<svg xmlns="http://www.w3.org/2000/svg" viewBox="0 0 300 300"><defs><style>.cls-1{fill:#fdfdfd;}.cls-2{fill:#ac987b;}.cls-3{fill:#75664e;}.cls-4{fill:#695d4d;}.cls-5{fill:#b29d81;}.cls-6{fill:#ae9a7f;}.cls-7{fill:#98825c;}.cls-8{fill:#8b7757;}.cls-9{fill:#847051;}.cls-10{fill:#9d8d79;}.cls-11{fill:#827463;}.cls-12{fill:#94826a;}.cls-13{fill:#bba482;}.cls-14{fill:#504942;}.cls-15{fill:#a49176;}.cls-16{fill:#c0ac90;}.cls-17{fill:#403b38;}.cls-18{fill:#8b7c69;}.cls-19{fill:#b4a287;}.cls-20{fill:#a89986;}.cls-21{fill:#978774;}.cls-22{fill:#bca88e;}.cls-23{fill:#d0bda0;}.cls-24{fill:#cdb89a;}.cls-25{fill:#c6b398;}.cls-26{fill:#a4937e;}.cls-27{fill:#b6a690;}.cls-28{fill:#cfba9d;}.cls-29{fill:#d6c3a7;}.cls-30{fill:#c1b098;}</style></defs><g id="Layer_2" data-name="Layer 2"><g id="Layer_1-2" data-name="Layer 1"><path class="cls-1" d="M0,300V0H300V300Zm163.05-15.74.32.18.36-.07,4.26.6h3.16l1.83.12,9,.05,6-1,1,0,3.08-.87c7.82,3.73,15.88,2.09,23.9,1.07l6,.86,2-.06h21c.71-1.1,2-2.19,2-3.3.16-8.77.13-17.54,0-26.31,0-.89-1.25-1.75-1.92-2.63a1.79,1.79,0,0,0,.26-.6c.53-.71,1.07-1.42,1.6-2.14l0-1.92-1.9-3.1c1.08-2.15,3.58-4,1.22-6.82l-.25,0,.92-1.11c-.19-1.4-.38-2.8-.58-4.2.29-3.55.58-7.1.87-10.69l-5-1.24a2,2,0,0,1,0-.73c.68-.54,1.79-1,1.94-1.63.87-3.79,1.51-7.63,2.22-11.45-.11-1.05-.23-2.1-.34-3.15l.27-2.86c0-1.76,0-3.52,0-5.28.37-5.74.87-11.47,1-17.21,0-1.24-1.32-2.51-2-3.77l.66-11.88.42-14.26.66-13.84q-.39-6.06-.8-12.14.4-5.46.79-10.92l-2-3.91c2-4.9,3.55-9.82,1.07-15,0-1-.07-2-.1-3q.54-8,1.09-16c-1-2.34-2.07-4.69-3.11-7l.4-2.89c2.79-2.07,2.46-4.49.81-7.06.72-1.3,2-2.58,2-3.88,0-2.38-.69-4.77-1.1-7.15l.23-1.87L247.08,20c0-.67,0-1.34,0-2L246,16.53l-22.93-.07-12,.65c-6.43-.1-12.86-.26-19.29-.27-6.9,0-13.81.1-20.71.16l-36-.17-17,.09-6,0-26,0-19.12.23-11.9,0-.75.82q0,17.51,0,35l-.08,5c0,3,.05,6,.08,9l-.18,80.11v2.06l.11,6,0,2v1.93l0,2v2q0,8.52-.07,17l0,9v2l0,5v81l0,2L56,284.92l4,.06,20.17-.22,18.89-.58c1.37.39,2.74,1.11,4.12,1.12,7.27,0,14.56-.1,21.84-.17l1.06-.08H132c8.58.06,17.17.18,25.75.1,1,0,2.06-1.08,3.1-1.66Z"/><path class="cls-2" d="M118,16.92l17-.09c.34,1.84.67,3.67,1.05,5.72L140.28,21l-1.92,5.51c3.53,0,6.84-3.59,10,.24a4.35,4.35,0,0,0,2.29-1.3,17.42,17.42,0,0,0,1.58-3.26l6.81-2.12q-1,2.92-2,5.85L155.14,43c-4.19-1.71-8.35-3.6-13.06-2.09.62-3.3,1.66-6.68-2.63-9.76-.22,2.21-.38,3.91-.56,5.81H124c0-.66,0-1.32,0-2h4.91l-.13-.3L113,32c0-.33,0-.66,0-1L119,29l3.14,2.82,2.92-3.8c.25-.36.51-.72.76-1.09l-.39-.26L125,28l-5.91-2.88L117,25l-1-3Z"/><path class="cls-3" d="M247.09,18v2c-4.07,2.62-1.45,6.38-1.63,9.65-.2,3.46-.29,6.92-.42,10.38l-4-1h0l-3-2h0l-5.94-7L230,32.09l-1-1-1.15-2L224.21,28c-.63-.64-1.29-1.83-1.9-1.81-3.15.11-3.57-1.7-3.34-4.16,5.24,1,3.71-3,4.12-5.53l22.93.07C246.38,17,246.73,17.51,247.09,18Z"/><path class="cls-4" d="M230,32.09,232.09,30,238,37h0l3,2h0l3.09,7-7,3c-5.18.23-4.52,4.92-6,7.94l-5.53,4.33c3.08.65,7,1.55,10.92,2.27a6.94,6.94,0,0,0,2.61-.6l4,0,1.28,1.12-.4,2.89L234,68.1l-2.88.05L230.07,68l.45-3.19-6.67-1-2.79-1.74-.93-2,8.18-5.92C227,52.09,226,50.6,225,49.1l8.54-1.94-4.63-2.35C229.41,40.58,234.43,36.72,230,32.09Z"/><path class="cls-3" d="M245.09,285.14h-21l3-5.93h0l1-2v0l2-1,0,0,1-2h0l3-2h0l1-2v0l2-2h0l1-1v0l1-1,2.9-8.1,1.14-1.87,1,0h1Z"/><path class="cls-5" d="M86.05,16.89h26c-2.2.7-4.36,1.53-6.6,2.06-1.74.42-4.7-.43-2.39,3.06l.08,5.91L102,29l-2,1-6.8-4.63L90.07,30l-1.92-1.93L86,32,83,32c-2-6-5.36-.66-8-1l-2-2c.83-2.33,1.67-4.67,2.61-7.28l.93,5,1.44.47,2.15-4.67L84,23c0,.33,0,.66,0,1l-2.75,2,1.24,1L84,24l1.77.06L85,22l-1-3Z"/><path class="cls-3" d="M55,17.17l11.9,0-1,1.81-3,3c-4.82.46-5.36.92-4.74,4l-.31,3L56.3,36.84c-.06.75-.11,1.5-.16,2.25-.46,2.66.34,3.94,3.36,4,5.79.1,11.57.56,17.35.93,3.42.22,6.83.57,10.25.85L86,47.93c-8.66.06-17.32.23-26,.11-3,0-4.44.81-4,3.94l-1.79,1q0-17.5,0-35Z"/><path class="cls-6" d="M80.16,284.76,60,285c1.21-2.69,2.43-5.39,3.67-8.16l-7.64.41v-4l1-1,3.11.08,1.84,1,6.08-1a7.58,7.58,0,0,1,2.19-.61c1.9.05,3.8.29,5.7.45l0-1.25,2.1,2.38,1,1,6,1c-.33.68-.67,1.35-1,2l-8.93,3.82Z"/><path class="cls-2" d="M247,135.06l-.66,13.84a41.29,41.29,0,0,0-4.92,3.95c-1.07,1.15-1.61,2.8-2.38,4.23l-2-8c-.86-3.6-1.73-7.19-2.5-10.39l-7.5.37,2-5,6.73-1.59c.44-4,1.3-7.49,6.2-7.46.3,1.5.59,3,.86,4.38l-4.88.93,1.61,5.91Z"/><path class="cls-7" d="M159.06,20.07l-6.81,2.12a17.42,17.42,0,0,1-1.58,3.26,4.35,4.35,0,0,1-2.29,1.3c-3.18-3.83-6.49-.19-10-.24L140.28,21l-4.17,1.55c-.38-2.05-.71-3.88-1.05-5.72l36,.17c-.65,1.35-1.31,2.69-2,4,0,1.34,0,2.67-.07,4-4.13.86-7.28-.1-8.64-4.56C160.32,20.23,159.52,20.2,159.06,20.07Z"/><path class="cls-8" d="M169.1,21c.65-1.34,1.31-2.68,2-4,6.9-.06,13.81-.18,20.71-.16,6.43,0,12.86.17,19.29.27L210,20l-6.89,2c-2.91-3.16-5.05-2.91-6.25,1.51l-2.36-4.29c-1.36,3.49-2.41,6.22-3.47,8.94l-2.89-1.34-1.35-6.36c-1.42,1.43-2.83,2.86-4.25,4.28a2.9,2.9,0,0,1-.41.27c-.35-.69-.7-1.38-1.06-2.07l-1,0,0,0-2,1h0L175,25.93l-1.82-.05C173.17,23.13,173.35,20.23,169.1,21Z"/><path class="cls-8" d="M246.35,201.3l-.27,2.86-2-2-.73-2.66-.77.09-.52,2.53-1,0h-.95L236,201.08l-1-2-.95-1.95c-.66-2-1.33-4-2-6h0c3.45-.46,6-1.73,5-5.92l1-1.1c.3,0,.59,0,.88,0,1.46-.77,3.51-1.19,4.24-2.41,1.16-1.93,1.44-4.4,2.09-6.64.71,1.26,2,2.53,2,3.77-.12,5.74-.62,11.47-1,17.21C246.32,197.78,246.34,199.54,246.35,201.3Z"/><path class="cls-3" d="M125,285.13c-7.28.07-14.57.21-21.84.17-1.38,0-2.75-.73-4.12-1.12.31-.68.63-1.37.94-2.06l1.24-1.59,1.79-.27c1.67-.19,3.36-.26,5-.59,1.27-.26,3.24-1.54,3.59-1.16,3,3.3,5.66.48,8.41-.26l6-.06h2l6.48-1.91,2.57,4L132,285.06h-5.93l3.41-4.43-7.16,1.09Z"/><path class="cls-9" d="M54.06,147.08,54.24,67,56,67q.51,8,1,16-.44,22.91-.87,45.81c-.07,4.08,0,8.17,0,12.25Z"/><path class="cls-10" d="M188.05,284.16l-6,1c.13-3.6.94-7.87-4.32-5.49-1.9-1.49-3.2-2.69-4.67-3.63-3.62-2.32-7.32-4.52-11-6.77,0-2,0-4.07,0-6.1l1-.93,1.95,3c.61,2,.59,4.9,4.07,3l5,0c1,1,1.95,2,2.93,3.05,3.06,4,6.23,7.76,12.08,4.91C189.48,279,183.78,280.94,188.05,284.16Z"/><path class="cls-11" d="M162.05,269.25c3.66,2.25,7.36,4.45,11,6.77,1.47.94,2.77,2.14,4.67,3.63,5.26-2.38,4.45,1.89,4.32,5.49l-9-.05-1.83-.12H168l3.8-4.47L169,279.22l0-1.9-.11-1.1c-3.28,2.66-6.57-.08-9.85,0l-2.8-1.83Z"/><path class="cls-11" d="M188.05,284.16c-4.27-3.22,1.43-5.2,1-7.94v-.16l2.05,1.09.37,1.36.62-1.17,4,.1.14,1.06c4.85,1.3,9.6,5,14.72.66l6,2.94-.89,2.24c-8,1-16.08,2.66-23.9-1.07l-3.08.87Z"/><path class="cls-12" d="M132,285.06l5.06-4.82h0l3.14-3.09,8.86,2.09,1,1h4l3,1h4l-.2,2.26c-1,.58-2.06,1.65-3.1,1.66C149.17,285.24,140.58,285.12,132,285.06Z"/><path class="cls-7" d="M60.13,272.3,57,272.22l-1,1c0,1.34,0,2.67,0,4l-1.86,0v-69c.61,2.66,1.23,5.32,1.84,8,0,.34,0,.69,0,1l.1,4v15.93q0,12.53-.05,25,1,2.51,1.91,5l1.08,3.92Z"/><path class="cls-3" d="M244.06,202.15l2,2c.11,1.05.23,2.1.34,3.15-1.09.17-2.95,0-3.16.56-1.66,4.08-5.74,3.68-7.83,4.72l-8.27-3.4.9-3,3-.95,4.88-4.14,4.11,1.07H241l1,0Z"/><path class="cls-8" d="M242.28,221.12l5,1.24c-.29,3.59-.58,7.14-.87,10.69-2.11-.32-4.25-.5-6.32-1-2.81-.69-4.15.23-4.06,3.15h-3l-2-2,1-4c3.14-2.07,6.31-4.1,9.4-6.26.4-.28.36-1.19.52-1.81Z"/><path class="cls-4" d="M245.27,175c-.65,2.24-.93,4.71-2.09,6.64-.73,1.22-2.78,1.64-4.24,2.41q-.83-3.56-1.66-7.11l.89-5.78c6.17-.59-.9-4.44,1.33-6.45l6.43-1.59Z"/><path class="cls-12" d="M237.1,49.09l7-3,2,0c.41,2.38,1.13,4.77,1.1,7.15,0,1.3-1.33,2.58-2,3.88q-1.05,3-2.09,5.94l-4,0,3.35-2.58L237.07,58Z"/><path class="cls-13" d="M100,282.12c-.31.69-.63,1.38-.94,2.06l-18.89.58-5.07-3.71L84,277.23a12.94,12.94,0,0,0,3,1.33c3.43.55,5.82,5,10,2.67l3,0C100,281.54,100,281.83,100,282.12Z"/><path class="cls-9" d="M227.16,209.19l8.27,3.4c2.09-1,6.17-.64,7.83-4.72.21-.53,2.07-.39,3.16-.56-.71,3.82-1.35,7.66-2.22,11.45-.15.66-1.26,1.09-1.94,1.63l-2.1-1.07c-.27-4-4.54-2.11-6.13-4.15l-6-1c-.36-1.31-.73-2.63-1.09-3.95,0-.24.08-.49.13-.73Z"/><path class="cls-12" d="M246,90.07c0,1,.06,2,.1,3-.34.63-.67,1.27-1,1.91l-4,10.09-4.41-4.41,1.9-.33c.65-1.8,2.06-3.74,1.76-5.37-.37-2.09-2.12-3.93-3.27-5.88L238.15,81H242v8.85Z"/><path class="cls-8" d="M245.93,163.16l-6.43,1.59c-2.23,2,4.84,5.86-1.33,6.45,0-.37-.11-.73-.16-1.09q.53-6.51,1-13c.77-1.43,1.31-3.08,2.38-4.23a41.29,41.29,0,0,1,4.92-3.95Z"/><path class="cls-12" d="M234,68.1,243.94,67c1,2.34,2.07,4.69,3.11,7l-2.23-.84c-.93,1.31-1.82,2.59-2.72,3.87l-6.18-.4c-.6-2.14-1.23-4.37-1.86-6.6Z"/><path class="cls-9" d="M236.06,235.19c-.09-2.92,1.25-3.84,4.06-3.15,2.07.51,4.21.69,6.32,1,.2,1.4.39,2.8.58,4.2l-.92,1.11.25,0L234,241.17l-2.93-1a16.85,16.85,0,0,0,3.63-2C235.41,237.46,235.61,236.2,236.06,235.19Z"/><path class="cls-9" d="M247,135.06l-7.42,1.22L238,130.37l4.88-.93c-.27-1.37-.56-2.88-.86-4.38a4.41,4.41,0,0,0,.09-.89l4.12-1.25Q246.61,129,247,135.06Z"/><path class="cls-2" d="M242.1,77.05l2.72-3.87,2.23.84q-.54,8-1.09,16l-4-.23V81C242,79.67,242.05,78.36,242.1,77.05Z"/><path class="cls-9" d="M210,20c.37-1,.74-1.94,1.1-2.91l12-.65C222.68,19,224.21,23,219,22l-3,0c-2.75-1.71-4.15.62-5.89,2,0-1-.09-2-.14-2.92A4,4,0,0,0,210,20Z"/><path class="cls-9" d="M56,216.16c-.61-2.66-1.23-5.32-1.84-8,0-3,0-6,0-9,0-1,0-2,0-3,0-1.67,0-3.35,0-5,0-.67,0-1.33,0-2,0-3,0-6,0-9l1.89-.07,0,13L58,197.18v2c-.63.61-1.77,1.2-1.81,1.84-.2,3.38-.12,6.78-.13,10.17l.06,3.11Z"/><path class="cls-14" d="M245.09,285.14q0-14.47,0-28.94c0-1.1.1-2.2.14-3.3.67.88,1.91,1.74,1.92,2.63.15,8.77.18,17.54,0,26.31C247.11,283,245.8,284,245.09,285.14Z"/><path class="cls-13" d="M103.05,22c-2.31-3.49.65-2.64,2.39-3.06,2.24-.53,4.4-1.36,6.6-2.06l6,0c-.66,1.68-1.31,3.37-2,5Z"/><path class="cls-5" d="M54.06,147.08l2.1-6c2.63-.3,4.08.51,3.89,3.52s0,6.31,0,9.47l-3.82.94-2.13-5.91Z"/><path class="cls-3" d="M56,67l-1.78,0c0-3-.05-6-.08-9l1.46-1.15L56.75,62l1.48-.09L59,53.05l3,1.94v7.19l-6,1.93Z"/><path class="cls-15" d="M65.94,18.94l1-1.81,19.12-.24c-.68.7-1.36,1.39-2,2.09Z"/><path class="cls-15" d="M54.16,277.21l1.86,0,7.64-.41c-1.24,2.77-2.46,5.47-3.67,8.16l-4-.06-1.83-5.67Z"/><path class="cls-14" d="M234,241.17l12.38-2.85c2.36,2.77-.14,4.67-1.22,6.82l-1.33.87-3.45-3.72.81-1.12Z"/><path class="cls-16" d="M246.21,122.92l-4.12,1.25c0-.36,0-.73,0-1.09l-1-3.84L247,112Q246.61,117.46,246.21,122.92Z"/><path class="cls-3" d="M247,112l-5.91,7.24-2.06-.15,2-9,1-1,3-.94Z"/><path class="cls-4" d="M245,40c.13-3.46.22-6.92.42-10.38.18-3.27-2.44-7,1.63-9.65l-.75,24.14C245.9,42.77,245.46,41.4,245,40Z"/><path class="cls-15" d="M245,108.09l-3,.94,1-3,2-11.12,1-1.9C248.54,98.27,247,103.19,245,108.09Z"/><path class="cls-3" d="M54.19,159.1v-1.93a7.89,7.89,0,0,0,.84,0h1l3,3,0,5-3,3.09-1.83-5.08v-2C54.2,160.45,54.2,159.77,54.19,159.1Z"/><path class="cls-8" d="M59,53.05l-.81,8.85L56.75,62l-1.13-5.14L54.16,58c0-1.66.05-3.32.08-5L56,52l1,.07Z"/><path class="cls-7" d="M54.21,163.11,56,168.19q0,6,0,11.9l-1.89.07Q54.17,171.63,54.21,163.11Z"/><path class="cls-7" d="M243.8,246l1.33-.87,1.9,3.1-1.57.73,1.59,1.19c-.53.72-1.07,1.43-1.6,2.14l-4.4-1.08c.58-.89,1.22-1.75,1.72-2.68A24.35,24.35,0,0,0,243.8,246Z"/><path class="cls-8" d="M216.07,284.34c.3-.75.59-1.49.89-2.23,0-.29,0-.59,0-.88l4.05-2,1,.06c0,2,0,4,0,5.94Z"/><path class="cls-4" d="M169,279.22l2.76,1.28L168,285l-4.26-.6,1.35-3.1C166.39,280.58,167.71,279.9,169,279.22Z"/><path class="cls-4" d="M222.05,285.2c0-2,0-4,0-5.94l1,0,4,0-3,5.93Z"/><path class="cls-11" d="M243.06,63q1-3,2.09-5.94c1.65,2.57,2,5-.81,7.06Z"/><path class="cls-8" d="M245,40c.43,1.37.87,2.74,1.3,4.11-.08.62-.15,1.25-.23,1.87l-2,0L241,39Z"/><path class="cls-12" d="M125,285.13l-2.69-3.42,7.16-1.09-3.41,4.43Z"/><path class="cls-9" d="M56,157.12H55c-.29-.67-.58-1.33-.86-2,0-2-.07-4-.11-6l2.13,5.91C56.13,155.74,56.07,156.43,56,157.12Z"/><path class="cls-7" d="M54.14,279.25,56,284.92Z"/><path class="cls-9" d="M246.35,201.3c0-1.76,0-3.52,0-5.28C246.32,197.78,246.34,199.54,246.35,201.3Z"/><path class="cls-4" d="M160.85,283.5c.06-.75.13-1.51.2-2.26l3.18,0-1.18,3Z"/><path class="cls-4" d="M241.05,251.22l4.4,1.08a1.79,1.79,0,0,1-.26.6c0,1.1-.09,2.2-.14,3.3h-1l-2-4-1-1Z"/><path class="cls-17" d="M240.16,219.32l2.1,1.07a2,2,0,0,0,0,.73H242l-2.62.41Z"/><path class="cls-11" d="M163.05,284.26l1.18-3a4.09,4.09,0,0,1,.85,0l-1.35,3.1-.36.07Z"/><path class="cls-17" d="M189.09,284.14l3.08-.87Z"/><path class="cls-3" d="M247.05,250.16,245.46,249l1.57-.73C247,248.88,247,249.52,247.05,250.16Z"/><path class="cls-7" d="M54.14,196.16c0,1,0,2,0,3C54.15,198.15,54.14,197.15,54.14,196.16Z"/><path class="cls-7" d="M54.19,159.1c0,.67,0,1.35,0,2C54.2,160.45,54.2,159.77,54.19,159.1Z"/><path class="cls-7" d="M54.17,155.12c.28.67.57,1.33.86,2a7.89,7.89,0,0,1-.84,0Z"/><path class="cls-9" d="M247.09,18c-.36-.48-.71-1-1.07-1.46C246.38,17,246.73,17.51,247.09,18Z"/><path class="cls-7" d="M54.19,189.15c0,.66,0,1.32,0,2C54.18,190.47,54.19,189.81,54.19,189.15Z"/><path class="cls-4" d="M171.15,285l1.83.12Z"/><path class="cls-14" d="M246.1,238.36l.92-1.11Z"/><path class="cls-8" d="M55,17.17l-.75.82Z"/><path class="cls-18" d="M113,31c0,.32,0,.65,0,1l2,3,2,2,7,0h14.86c.18-1.9.34-3.6.56-5.81,4.29,3.08,3.25,6.46,2.63,9.76l-4,4.05L136,44.08l3.19-4.42L131,39l-2,0-18,.08c-3.75.4-7.5.94-11.27,1.08-.88,0-1.81-1.28-2.72-2l8.1-1.23h7.2l0-1.65L107,35c0-1,0-2,0-3l.09-1,.82,0Z"/><path class="cls-5" d="M159.06,20.07c.46.13,1.26.16,1.33.4,1.36,4.46,4.51,5.42,8.64,4.56L168,30c-.89,4-5.55,7.14-2.94,12h-1l-3-.07L160,40c0-3.32-.08-6.65.15-9.95.09-1.33.9-2.6,1.39-3.9L157,25.92Zm3,17.29c-.24.14-.61.24-.66.43s.16.5.26.75l.91-.57Z"/><path class="cls-12" d="M138.05,45l4-4.05c4.71-1.51,8.87.38,13.06,2.09l.9,2-2,1h-1l-6,1a6,6,0,0,1-.85,0Z"/><path class="cls-7" d="M103.05,22l13,0,1,3c-1.24.86-2.61,2.6-3.68,2.43a19,19,0,0,0-9.74.52,1.37,1.37,0,0,1-.49,0Z"/><path class="cls-13" d="M103.13,27.91a1.37,1.37,0,0,0,.49,0,19,19,0,0,1,9.74-.52c1.07.17,2.44-1.57,3.68-2.43l2.06.11c0,1.29-.07,2.59-.11,3.89L113,31h-5l-1.24-.66.42.63L107,32l-2.89-.15L102,29Z"/><path class="cls-8" d="M156,45l-.9-2L157,25.92l4.47.23c-.49,1.3-1.3,2.57-1.39,3.9-.23,3.3-.13,6.63-.15,10C158.65,41.67,157.34,43.33,156,45Z"/><path class="cls-8" d="M119,29c0-1.3.07-2.6.11-3.89L125,28l0,0-2.92,3.8Z"/><path class="cls-12" d="M115,35l-2-3,15.78,2.7.13.3H124l-7,.07Z"/><path class="cls-19" d="M117.07,35.08l7-.07c0,.66,0,1.32,0,2l-7,0Z"/><path class="cls-8" d="M125,28l.41-1.32.39.26c-.25.37-.51.73-.76,1.09Z"/><path class="cls-12" d="M230,32.09c4.45,4.63-.57,8.49-1,12.72l-2.86.13,3.34-10.3c-2.35.72-4.59.78-4.95,1.63a60.45,60.45,0,0,0-2.39,8.83l-4-.06,3.15-5.83c-6.18,3-7.58,2.24-7.22-3.21,1.57-1.08,4.61-2.44,4.46-3.18-1.08-5.57,2.9-4.45,5.77-4.86l3.66,1.19,1.14,2Z"/><path class="cls-15" d="M224.21,28c-2.87.41-6.85-.71-5.77,4.86.15.74-2.89,2.1-4.46,3.18,0-1.65,0-3.31,0-5,.66-3,1.33-6,2-9.07l3,0c-.23,2.46.19,4.27,3.34,4.16C222.92,26.13,223.58,27.32,224.21,28Z"/><path class="cls-8" d="M238,37l-5.94-7Z"/><path class="cls-8" d="M241.05,39l-3-2Z"/><path class="cls-4" d="M229,31.11l-1.14-2Z"/><path class="cls-12" d="M225,49.1c1,1.5,1.95,3,3.28,5l-8.18,5.92-4.08,2-4.82-1.76,1-1.21L208.06,55c-1.11-1-2.42-2.94-3.3-2.77-4.32.84-8.2.68-11.82-3.47-.28,2.19-.44,3.48-.73,5.74-1.69-2.23-2.93-3.86-4.16-5.5,2.66-.16,5.31-.4,8-.46,5-.12,10-.12,15-.17Zm-11,6.92,2.34-.44-.64-1.14L214.05,56l-.23.41Zm5.62-3.28c-.27-.12-.61-.39-.81-.32s-.26.51-.38.79c.27.12.61.4.81.32S219.55,53,219.67,52.74Z"/><path class="cls-20" d="M234,68.1l0,2c-3.77,5.83-2.94,8,4.09,10.94L237,89.06c-4.23-.11-8.7.74-12-3l2.58-4,1.82,3.1c3-6,2.15-9.72-2.19-11q-1.11-2.5-2.2-5l3.9-1,1.34,1.47.87-1.45Z"/><path class="cls-17" d="M225,49.1l-14-.75c-.32-.78-.64-1.57-1-2.35l8-1,4,.05,4-.15,2.86-.13,4.63,2.35Z"/><path class="cls-11" d="M237.07,58l5.34,2.44L239.06,63a6.94,6.94,0,0,1-2.61.6c-3.93-.72-7.84-1.62-10.92-2.27L231.06,57Z"/><path class="cls-11" d="M216.05,62l4.08-2,.93,2a5.72,5.72,0,0,1,0,.92l-2,2-2,4.08-5,1.14-3-.15-1-2c1.48-.6,3.19-2,4.39-1.66C217.54,67.87,216.81,65.08,216.05,62Z"/><path class="cls-18" d="M237.07,58l-6-1c1.52-3,.86-7.71,6-7.94Z"/><path class="cls-9" d="M228.93,68.14l-3.9,1-1.94,0,0-5.11a3.68,3.68,0,0,0,.8-.17l6.67,1c-.11.8-.28,2-.45,3.19Z"/><path class="cls-20" d="M223.85,63.84a3.68,3.68,0,0,1-.8.17l-2-1a5.72,5.72,0,0,0,0-.92Z"/><path class="cls-18" d="M228.93,68.14l1.14-.14,1.07.15-.87,1.46Z"/><path class="cls-15" d="M243.13,256.24,242,258.12l-2,2.06c-2.88-3.93-5.65,0-8.48-.39l-.22,1.56,5.67.87-5.92,7-3-7c.31-.82.61-1.65.91-2.47l-3.87,1.42-1,0c-1.75-.67-3.46-1.69-5.26-1.91-2.12-.27-4-.2-3.77-3.12l13-2c.31.05.62.08.93.12l2.11,1,2.06-2,4.91.94,3,1Z"/><path class="cls-9" d="M240,260.18l2-2.06c-1,2.69-1.93,5.39-2.9,8.09l-1,1v0l-1,1h0l-2,2v0l-1,2h0l-3,2h0l-1,2,0,0-2,1v0l-1,2h0l-4,0c0-.75.05-1.49.07-2.23l0-.47,8-7.32,5.92-7Z"/><path class="cls-9" d="M243.13,256.24l-2.07-1,0-2,1-1,2,4Z"/><path class="cls-4" d="M231.05,274.21l3-2Z"/><path class="cls-4" d="M235.05,270.2l2-2Z"/><path class="cls-4" d="M228.05,277.21l2-1Z"/><path class="cls-4" d="M234,272.22l1-2Z"/><path class="cls-4" d="M230.05,276.2l1-2Z"/><path class="cls-4" d="M227,279.21l1-2Z"/><path class="cls-4" d="M238.05,267.2l1-1Z"/><path class="cls-4" d="M237.05,268.2l1-1Z"/><path class="cls-6" d="M65.94,18.94,84,19c.33,1,.67,2,1,3l-1,1-3.87-.5L78,27.16l-1.44-.47-.93-5C74.69,24.32,73.85,26.66,73,29L63,26.6c.21,2.91.33,4.46.48,6.55l-5.58-.93,1-1.1L57.86,29c.1-1,.21-2,.31-3l6.1-.62-1.36-3.4Z"/><path class="cls-15" d="M57.86,29l1.07,2.15-1,1.1,5.58.93c-.15-2.09-.27-3.64-.48-6.55L73,29l2,2,0,1c-.12.69-.57,1.76-.3,2A46.44,46.44,0,0,0,79,37L56.3,36.84Zm9.88,1.4c-.13.28-.4.62-.32.82s.51.27.79.39c.12-.28.4-.62.32-.82S68,30.49,67.74,30.37Z"/><path class="cls-12" d="M79,37a46.44,46.44,0,0,1-4.28-3c-.27-.23.18-1.3.3-2a45.73,45.73,0,0,0,5.7,1.25c.72.08,1.53-.77,2.3-1.2L86,32l2,0,4,1,3,2h0l-1,2Z"/><path class="cls-8" d="M95,35l-3-2,8-3,2-1c.71,1,1.41,1.91,2.12,2.87,0,.71-.08,1.43-.11,2.14v1l1,0,0,2L97,38.21l-2.84,0L94,37l1-2,.22-.42Z"/><path class="cls-15" d="M100,30l-8,3-4-1,0-2.07,2,.09,3.13-4.65Z"/><path class="cls-6" d="M83,32c-.77.43-1.58,1.28-2.3,1.2A45.73,45.73,0,0,1,75,32l0-1C77.67,31.36,81.07,26,83,32Z"/><path class="cls-6" d="M88.07,29.91,88,32l-2,0,2.13-3.88C88.12,28.68,88.1,29.3,88.07,29.91Z"/><path class="cls-6" d="M84,24,82.5,27l-1.24-1L84,24Z"/><path class="cls-15" d="M84,23l1-1c.26.69.52,1.39.77,2.08L84,24v0C84,23.65,84,23.32,84,23Z"/><path class="cls-3" d="M88.07,29.91c0-.61.05-1.23.08-1.84L90.07,30Z"/><path class="cls-5" d="M57,52.05,56,52c-.44-3.13,1-4,4-3.94,8.66.12,17.32,0,26-.11l5,.12,2,0,5,1,0,4.94L84,54,70,54c-2-.51-4-1.19-6.1-1.5C61.65,52.19,59.3,52.2,57,52.05Z"/><path class="cls-15" d="M87.1,44.86c-3.42-.28-6.83-.63-10.25-.85-5.78-.37-11.56-.83-17.35-.93-3,0-3.82-1.33-3.36-4a19.5,19.5,0,0,0,4.51.9c3.14-.1,6.28-.83,9.41-.78s6,1.17,9,1.1c5-.12,10-.81,15-1.26l-3,4.71L89,44Z"/><path class="cls-18" d="M94.06,39.05c-5,.45-10,1.14-15,1.26-3,.07-6-1.05-9-1.1s-6.27.68-9.41.78a19.5,19.5,0,0,1-4.51-.9c0-.75.1-1.5.16-2.25L79,37l15,0,.09,1.23C94.12,38.51,94.09,38.78,94.06,39.05Z"/><path class="cls-15" d="M62.91,21.93l1.36,3.4-6.1.62C57.55,22.85,58.09,22.39,62.91,21.93Z"/><path class="cls-9" d="M87.1,44.86,89,44c.67,1.36,1.35,2.71,2,4.06l-5-.12C86.38,46.91,86.74,45.88,87.1,44.86Z"/><path class="cls-19" d="M97,281.23c-4.17,2.34-6.56-2.12-10-2.67a12.94,12.94,0,0,1-3-1.33c.33-.68.67-1.35,1-2,1.32-4-1.18-4.15-4-4,0-1,0-2,0-3h2l8.56.89c-4.56,5.09-4.5,5.32.44,7.11,1,.48,2.29,1.59,3.12,1.34,3.13-.95,5,.05,6.1,3L100,282.12c0-.29,0-.58,0-.86C99,279.69,98.06,278.06,97,281.23Z"/><path class="cls-10" d="M78,273.21l-2.1-2.38,0,1.25c-1.9-.16-3.8-.4-5.7-.45a7.58,7.58,0,0,0-2.19.61c0-1,0-2,0-3l3-5h0l3-2,1.08,1q1,2.51,1.94,5l2,4,0,1Z"/><path class="cls-21" d="M68,269.21c0,1,0,2,0,3l-6.08,1,3.08-6,0-.08Z"/><path class="cls-16" d="M79,273.2l0-1,2-1c2.83-.16,5.33,0,4,4l-6-1Z"/><path class="cls-10" d="M65,267.29l-3.08,6-1.84-1-1-1.15q.43,0,.87.06l2.1-3Z"/><path class="cls-21" d="M56,273.22l1-1Z"/><path class="cls-19" d="M79,273.2l0,1-1-1Z"/><path class="cls-22" d="M242.05,123.08c0,.36,0,.73,0,1.09a4.41,4.41,0,0,1-.09.89c-4.9,0-5.76,3.48-6.2,7.46l-6.73,1.59c-2.4-2.38-4.82-4.75-7.21-7.14-1.62-1.61-3.21-3.26-4.81-4.89-.62-1-1-2.38-1.9-2.79-5.34-2.49-6.29-7.55-7.41-11.84l-5.62-1.73,5.94-2.69,3.67-2.12L208,99.7l3.17-2.76-4.23-1.66,3.17-.22.45-2.47-2.48.4c-1,.92-2.54,1.66-2.91,2.79-.53,1.63-.22,3.53-.27,5.31h-1.58V94.6l-6.86.33c-.14,2.66-.27,5.4-.41,8.13-.27,0-.54,0-.81,0a22.92,22.92,0,0,0-1.18-2.68c-.89-1.51-2-4.21-2.85-4.14-1.73.16-3.34,1.79-5,2.81L184.89,99c0-.61.09-1.23.14-1.84q-1.5-3.49-3-7l1-2.11,0,0c3.11,1.12,6.66-.74,9.71,1.51.41.31,2.72-1,3.18-2,.58-1.24.14-2.95.14-4.43l3,3.92,4,1.83c3.25-1.19,5.75-5,10-2.83l2,2,2,3.7c-4.81.74-2.71,4.84-4.18,7.86l6.48,1.55L217.91,97l5.8-.37L221,104.15l1.23.36,3.38-4.24c1.56,3.58,2.67,6.16,3.9,9l-6.3,1.88c2.31,1.83,4.49,2.75,5.35,4.37C231.46,121.08,236.85,121.8,242.05,123.08Z"/><path class="cls-13" d="M239.05,157.08q-.53,6.51-1,13c-6.35-.29-4.56,4.53-5,7.95h-2.93l-.32-5.46-1.15,0L227,178.1h0c-2.41.49-5.61-2.74-7.75,2h7.8l3,.09,3.1,4.94c0,.33-.06.66-.08,1a52.52,52.52,0,0,0-7.66,1.72c-1.63.62-2.91,2.15-4.34,3.28l-7-2,4.36-5.76c-2.52-.6-6.31.76-6.43-4-.09-3.8-3.27-6.11-7-5.71-1.63.17-3.26.28-4.89.42-1.07-5.34,4-3.28,6-5h7q.84,5.25,1.7,10.52l2.93-6.53a34.73,34.73,0,0,0,2.29-5.39,18.62,18.62,0,0,0,.08-4.61c1.75.39,4.21,1.67,5.08,1,1.42-1.13,2.83-3.83,2.42-5.39-.89-3.36.75-4.57,3.06-5.86s4.31-2.48,6.46-3.73Z"/><path class="cls-16" d="M217.05,122.08c1.6,1.63,3.19,3.28,4.81,4.89,2.39,2.39,4.81,4.76,7.21,7.14l-2,5v6.24l5.49-1.73.85,1.49-6.7,4.67c-1.53,1.06-4.06,1.83-4.42,3.19-.84,3.19-2.84,3.23-5.24,3.17q-.66-2.42-1.33-4.82c-1.63.87-3.55,1.46-4.83,2.7a53.81,53.81,0,0,0-4.84,6.12h-5c1.91-1.62,3.92-3.13,5.66-4.9.74-.75.91-2.05,1.33-3.1.67-2.34,1.34-4.67,2-7,3.22-3.56,6.49-7.09,9.6-10.75.29-.33-.44-1.48-.61-2.27C218.37,128.75,217.72,125.42,217.05,122.08Z"/><path class="cls-22" d="M217.05,156.11c2.4.06,4.4,0,5.24-3.17.36-1.36,2.89-2.13,4.42-3.19l6.7-4.67-.85-1.49-5.49,1.73v-6.24l7.5-.37c.77,3.2,1.64,6.79,2.5,10.39-2.15,1.25-4.28,2.52-6.46,3.73s-4,2.5-3.06,5.86c.41,1.56-1,4.26-2.42,5.39-.87.7-3.33-.58-5.08-1l-4-7Z"/><path class="cls-15" d="M168,30,169,25c0-1.33.05-2.66.07-4,4.25-.8,4.07,2.1,4.06,4.85l-1,.38c.32,1.83.58,3.28.83,4.74Z"/><path class="cls-15" d="M210,21c.05,1,.1,1.95.14,2.92,0,1.39,0,2.77,0,4.16q-.58,2.46-1.19,4.92L205,38l-.95-2,1.79-9.57L201.05,29c.2-1.17.39-2.34.59-3.51l-1.64.39c.36,1,.71,2.08,1.06,3.12q.51,3.49,1,7c-.19,1,0,2.65-.63,3-2.88,1.77-2.95,1.65-.43,4.08l-.9,1.6-7.24-.51c.27-1.24.53-2.49.8-3.73-1.4.39-3,.5-4.12,1.3-.61.45-.39,2-.55,3.13l-1.95-.55c-1-1.1-2-2.2-3-3.29L184,40l6.15-7.69c1.17,2.33,2.27,4.53,3.36,6.72l1.36-.13L196,35.05c4.61-2.43,1.87-5.63,1.12-10L193,30l-2-1.8c1.06-2.72,2.11-5.45,3.47-8.94l2.36,4.29c1.2-4.42,3.34-4.67,6.25-1.51C206,25.58,207.83,22.35,210,21Z"/><path class="cls-6" d="M196,35.05l-1.12,3.82-1.36.13c-1.09-2.19-2.19-4.39-3.36-6.72-2.11,2.65-4.13,5.17-6.15,7.69l-.63-.93-1.21-1.82L181.07,39l-1,2,0,1.82-1.22,1L175,43c.13-.81,0-1.9.43-2.39,4.49-4.71,1.4-5.75-3.15-5.94.31-1.44.54-2.54.77-3.64-.25-1.46-.51-2.91-.83-4.74l1-.38,1.82.05,1.07.06c.27,2.34-1.08,5.59,3.23,5.82.95-2,1.84-3.94,2.74-5.85,1.8,1.82,3.66,3.26,6.09.91L191,28.21l2,1.8Z"/><path class="cls-9" d="M182,26c-.9,1.91-1.79,3.81-2.74,5.85-4.31-.23-3-3.48-3.23-5.82l2-2h0l2-1,0,0,1,0c.36.69.71,1.38,1.06,2.07C182.07,25.36,182,25.66,182,26Z"/><path class="cls-15" d="M182,26c0-.3,0-.6.08-.9a2.9,2.9,0,0,0,.41-.27c1.42-1.42,2.83-2.85,4.25-4.28l1.35,6.36C185.68,29.22,183.82,27.78,182,26Z"/><path class="cls-10" d="M210,21c-2.15,1.35-4,4.58-6.9,1.05L210,20A4.59,4.59,0,0,1,210,21Z"/><path class="cls-15" d="M178.05,24l-2,2L175,25.93Z"/><path class="cls-15" d="M180.07,23l-2,1Z"/><path class="cls-15" d="M181,23l-1,0Z"/><path class="cls-2" d="M221,191.13c1.43-1.12,2.71-2.65,4.34-3.27a52.52,52.52,0,0,1,7.66-1.72c-.32,1.67-.65,3.34-1,5h0l-3.16,1.48,5.15,4.52c.32.65.64,1.3.95,1.95-2-.44-4-1-6-1.28a18.4,18.4,0,0,0-4,.34l-3-1,3.37-2.71-5.34-.31v-3C220.4,191.17,220.72,191.15,221,191.13Z"/><path class="cls-12" d="M225,198.16a18.4,18.4,0,0,1,4-.34c2,.24,4,.84,6,1.28l1,2-4.88,4.13-4.14-.94-2-.21,0-1.91c0-.33,0-.66,0-1l1.8-.51-1.79-.53Z"/><path class="cls-12" d="M230.09,178.07H233c1.42-.35,2.84-.72,4.26-1.08q.84,3.56,1.66,7.11c-.29,0-.58,0-.88,0-.8-5.17-5.8-1.71-8-3.92l-3-.09c0-.67,0-1.34,0-2h0Z"/><path class="cls-2" d="M230,180.21c2.24,2.21,7.24-1.25,8,3.92-.33.37-.65.74-1,1.1l-4-.08Z"/><path class="cls-12" d="M233.12,185.15l4,.08c.94,4.19-1.57,5.46-5,5.92.33-1.67.66-3.34,1-5C233.06,185.81,233.09,185.48,233.12,185.15Z"/><path class="cls-12" d="M234.05,197.15l-5.15-4.52,3.16-1.48C232.72,193.15,233.39,195.15,234.05,197.15Z"/><path class="cls-9" d="M244.06,202.15l-2,0c.17-.84.34-1.69.52-2.53l.77-.09Z"/><path class="cls-9" d="M241,202.15h0Z"/><path class="cls-11" d="M137.06,280.24l-2.57-4L128,278.19q1.52-4.49,3-9v-1a59.76,59.76,0,0,0,8.27-.34c1-.16,1.69-1.84,2.53-2.83.4-.29.8-.58,1.21-.86l1-.08,2-.82a32.31,32.31,0,0,0-1.61,4c-.16.55.35,1.28.56,1.93l-.07,1.9-9.6,2.63.3,1.23,4.53-.74-1.08,2-2,4.05Z"/><path class="cls-12" d="M131,269.22q-1.5,4.48-3,9h-2c-1.41-4-4-.79-6-.94-3.11.39-4.54-.87-4-4.07l8-6a1.55,1.55,0,0,0,.73-.18,4.5,4.5,0,0,0,.63.07l.58,3.17,1.25.19,2.52-1.24Z"/><path class="cls-9" d="M116.07,273.18c-.55,3.2.88,4.46,4,4.07,0,.33,0,.66,0,1-2.75.74-5.37,3.56-8.41.26-.35-.38-2.32.9-3.59,1.16-1.64.33-3.33.4-5,.59.72-1.64,1.45-3.27,2.17-4.9l7.68-1.4Z"/><path class="cls-6" d="M105.19,275.36c-.72,1.63-1.45,3.26-2.17,4.9l-1.79.27c-1.08-2.92-3-3.92-6.09-3-.83.25-2.07-.86-3.12-1.34Z"/><path class="cls-11" d="M120,278.25c0-.34,0-.67,0-1,2,.15,4.58-3.08,6,.94Z"/><path class="cls-2" d="M60,154.11c0-3.16-.15-6.33,0-9.47s-1.26-3.82-3.89-3.52c0-4.08,0-8.17,0-12.25q.41-22.91.87-45.81l4.91,1,.72,1c.09-.1.25-.19.27-.3.38-2.57.75-5.15,1.12-7.72L67,77l1,5-1,4c0,.66,0,1.32,0,2q0,16,0,32c0,.34,0,.67,0,1L64,128.91l-3.63-1.43c4.21,17,4.78,22.73,2.87,27.93a3.46,3.46,0,0,1-.19.7l-1.16.95Z"/><path class="cls-21" d="M62,84.08l-4.91-1q-.51-8-1-16l.09-2.91,3.14,2.65L64.89,63,66,67.79c.62-1.68.82-2.24,1-2.79l1.48,3.6L82,71l-3,1c-4.41.73-10.59-2.78-12,5l-2.92.06V68.53l-2.11,0Z"/><path class="cls-23" d="M165,265.25l-1.95-3,1-5,3-5c1.93,1.12,3.8,2.4,5.82,3.32,1.34.62,3.31,1.49,4.3.95,5.2-2.79,8,.41,10.88,3.79l0,2h-6c-1-1.26-1.91-2.53-2.86-3.79.53,3.79.11,6.23-3.65,7.4-.69.22-1,1.59-1.51,2.43l-5,0C169.34,265,167.13,265.13,165,265.25Z"/><path class="cls-18" d="M157,281.23l-3-1h-4l-1-1,3-2,3.58-.83-4.76-2.19,6-4.44c.08-1.77.15-3.15.21-4.54l2.7-.7-.25-.95-2.43.63-6.81-2.08,3.81-5.92,2,2-1.56,1.19.33.33L156,258.2l5.18,1c.28,1.31.55,2.62.83,3.93,0,2,0,4.07,0,6.1l-5.81,5.15,2.8,1.83c-.33,1.67-.67,3.33-1,5h-1Z"/><path class="cls-24" d="M189,276.22c-5.85,2.85-9-.89-12.08-4.91l9.09-2.08,3,0,3,3-3,3.83Z"/><path class="cls-25" d="M186.05,269.23,177,271.31c-1-1-2-2-2.93-3.05.5-.84.82-2.21,1.51-2.43,3.76-1.17,4.18-3.61,3.65-7.4.95,1.26,1.9,2.53,2.86,3.79Z"/><path class="cls-25" d="M162,263.15c-.28-1.31-.55-2.62-.83-3.93l1.83-2,1,0-1,5Z"/><path class="cls-25" d="M165,265.25c2.16-.12,4.37-.28,4.07,3C165.56,270.15,165.58,267.27,165,265.25Z"/><path class="cls-21" d="M158,281.23c.34-1.67.68-3.33,1-5,3.28-.09,6.57,2.65,9.85,0,0,.37.07.73.11,1.1l0,1.9c-1.32.68-2.64,1.36-3.95,2a4.09,4.09,0,0,0-.85,0l-3.18,0Z"/><path class="cls-4" d="M169,277.32c0-.37-.07-.73-.11-1.1C168.93,276.59,169,277,169,277.32Z"/><path class="cls-4" d="M217,281.23c0,.29,0,.59,0,.88l-6-2.95c-.33-.81-.67-1.61-1-2.42L207,275.2l-3.78-2.07c0-.62-.07-1.23-.11-1.84l1.91-1,8-3.11.45,6.38,4.52,1.7.13,2.1c-.09.27-.17.54-.24.82-.34.7-.67,1.4-1,2.1C217,280.6,217,280.91,217,281.23Z"/><path class="cls-22" d="M203.15,271.29c0,.61.07,1.22.11,1.84-2.41,4.36-4.36,0-7.17-.92v5.23l-4-.1-1-.19L189,276.06l3-3.83,2.25-9.43,1.07.33,3.7,3-.12.17,2.17,1.92.9,0,.88.13Z"/><path class="cls-18" d="M196.09,277.44v-5.23c2.81,1,4.76,5.28,7.17.92L207,275.2c-.06.41-.11.82-.17,1.23l-3.82,1.76-6.82.31Z"/><path class="cls-17" d="M196.23,278.5l6.82-.31,5.07-.66,1.83-.79c.33.81.67,1.61,1,2.42C205.83,283.51,201.08,279.8,196.23,278.5Z"/><path class="cls-18" d="M191.08,277.15l1,.19c-.21.39-.42.78-.62,1.17Z"/><path class="cls-26" d="M152,277.23l-3,2-8.86-2.09-1.13-1,1.08-2c2.85.9,5.35,1.24,4.77-3.12,0-.63,0-1.27.07-1.9l2.05,0C147.91,272.39,146.53,277,152,277.23Z"/><path class="cls-3" d="M139.05,276.2l1.13,1L137,280.25Z"/><path class="cls-21" d="M150,280.23h0Z"/><path class="cls-21" d="M157,281.23h0Z"/><path class="cls-5" d="M56.08,262.2q0-12.52.05-25l10.22-4.49-4.26-2.89H73.37L69,232.48l.1,1.13,4.89.58c-.34,2-.67,4-1,6-4.45,1.26-2.6,4.32-2,7v2l-2.13,1.4L74,259.21l-5,3-3,2-2-3L69.57,259c.08-5.73-1.17-6.46-7.55-3.64v5.85l-1,2Zm8.93-19-.42-.23.43.22L67.17,245l.44-1.3Zm3.17-3.29.72-1.51c-.83-.35-1.78-1.14-2.45-.94a5,5,0,0,0-2.17,2c-.11.14.88,1.51,1.3,1.48A8.66,8.66,0,0,0,68.18,239.91Z"/><path class="cls-22" d="M74,234.19l-4.89-.58-.1-1.13,4.34-2.71H62.09l4.26,2.89-10.22,4.49q0-8,0-15.93l10.86,1h3l1,3C74.11,229.17,74.11,229.17,74,234.19Z"/><path class="cls-5" d="M67,222.18l-10.86-1c0-1.34-.06-2.69-.1-4,1.63-.51,4.21,3,5-1.17l4,0C66,218,70.11,218.9,67,222.18Z"/><path class="cls-19" d="M61,263.21l1-2h2l2,3c-.33,1-.67,2-1,3l0,.08-3,.89-2.1,3q-.44,0-.87-.06L58,267.23Z"/><path class="cls-2" d="M61,263.21l-3,4q-.95-2.52-1.91-5Z"/><path class="cls-10" d="M61,216c-.75,4.18-3.33.66-5,1.17,0-.34,0-.69,0-1,0-.63.07-1.26.1-1.89Z"/><path class="cls-17" d="M228.06,206.16l-.9,3-.09.3-3.69-.84V207L225,205l2.29.88Z"/><path class="cls-15" d="M228.06,206.16l-.8-.25c-.1-.55-.2-1.09-.31-1.64l4.15.94Z"/><path class="cls-12" d="M240.16,219.32l-.78,2.22,2.62-.41c-.16.62-.12,1.53-.52,1.81-3.09,2.16-6.26,4.19-9.4,6.26.23-2.46,2.58-5.27-1.13-7.1l3.08-6.93C235.62,217.21,239.89,215.31,240.16,219.32Z"/><path class="cls-4" d="M236.06,235.19c-.45,1-.65,2.27-1.39,3a16.85,16.85,0,0,1-3.63,2l-2.73,1.54,4.74,3.49h-3l-2,0-4-2q1.51-2.52,3-5l6-3Z"/><path class="cls-15" d="M231,222.1c3.71,1.83,1.36,4.64,1.13,7.1l-1,4h-5c3.51-2.35,2.79-5.65,2-9Z"/><path class="cls-9" d="M226.06,233.18h5l2,2-6,3-1-2C226.07,235.19,226.07,234.18,226.06,233.18Z"/><path class="cls-2" d="M237.28,177c-1.42.36-2.84.73-4.26,1.08.43-3.42-1.36-8.24,5-7.95.05.36.11.72.16,1.09Q237.74,174.1,237.28,177Z"/><path class="cls-6" d="M97,281.23c1-3.17,2-1.54,3,0Z"/><path class="cls-21" d="M226.94,210.22c.36,1.32.73,2.64,1.09,3.95l-2,3c-3.52,1.43-.84,2.72.09,4.05-.05,1-.11,2-.16,3l-6-2c0-.33-.05-.67-.07-1,.77-1.93,1.53-3.86,2.3-5.8l2.9-4.18Z"/><path class="cls-4" d="M226,224.18c0-1,.11-2,.16-3l2.82-.84-2.91-3.21,2-3,6,1L231,222.1l-2.87,2.11Z"/><path class="cls-12" d="M226.94,210.22l-1.79.93L222,211l0-1.6,1.43-.77,3.68.84C227,209.73,227,210,226.94,210.22Z"/><path class="cls-19" d="M217,91.75c-.65-1.24-1.31-2.47-2-3.7l4.12-3.22L225,86c3.29,3.77,7.76,2.92,12,3,1.15,2,2.9,3.79,3.27,5.88.3,1.63-1.11,3.57-1.76,5.37l-1.9.33,4.41,4.41,2,1-1,3-1,1c-4.06,1.38-5,5.8-2,9l2.06.15,1,3.84c-5.2-1.28-10.59-2-13.54-7.59-.86-1.62-3-2.54-5.35-4.37l6.3-1.88c-1.23-2.81-2.34-5.39-3.9-9l-3.38,4.24-1.23-.36,2.76-7.52-5.8.37Q217.48,94.38,217,91.75Zm6.92,3.53c2.63,1,4.59,2.33,5.36,1.84,1.1-.71,1.33-2.77,1.93-4.26l-1.29-.67Z"/><path class="cls-11" d="M238.15,81c-7-2.89-7.86-5.11-4.09-10.94.63,2.23,1.26,4.46,1.86,6.6l6.18.4c0,1.31-.09,2.62-.14,3.94Z"/><path class="cls-13" d="M243.06,106.07l-2-1,4-10.09Q244.06,100.51,243.06,106.07Z"/><path class="cls-3" d="M233.05,245.22l-4.74-3.49,2.73-1.54,2.93,1h7.19l-.81,1.12L243.8,246a24.35,24.35,0,0,1-1,2.53c-.5.93-1.14,1.79-1.72,2.68l0,0-2,0-3-1Z"/><path class="cls-18" d="M210.1,28.08c0-1.39,0-2.77,0-4.16,1.74-1.34,3.14-3.67,5.89-2-.66,3-1.33,6.05-2,9.07l-2.43,1.2C211,30.63,210.56,29.35,210.1,28.08Z"/><path class="cls-21" d="M56,180.09q0-5.94,0-11.9l3-3.09,3,0c.59,1.88,1,3.82,1.81,5.62.89,2.09,2.06,4.06,3.1,6.09,0,5.49,2.79,8.71,8.15,9.33l1,4c-2.44,5.27,2,5.57,5,6.95-.74,3.84-1.66,7.59-5,10.12l-2-.16-3-4.41L72,198l-14,1.19c0-.66,0-1.31,0-2,2.45-2.81,1.27-3.91-1.91-4.06Zm2.74,11,5.12,4.77.15-2,3.79-3.63-3.32-3.07Z"/><path class="cls-18" d="M58,199.15,72,198l-1,4.69,3,4.42-4.93,0c-1.56-.5-4-1.85-4.51-1.34-1.29,1.4-1.74,3.58-2.52,5.45H56c0-3.39-.07-6.79.13-10.17C56.21,200.35,57.35,199.76,58,199.15Z"/><path class="cls-11" d="M56,211.16h6l5-2q3,1.53,6,3.05l4,2,2.08,7.5-2.12.31-2.91-1,1.12-2.68c-2.81-1.34-5.36-2.67-8-3.7-.49-.19-1.46.87-2.2,1.35l-4,0-4.9-1.75Z"/><path class="cls-18" d="M56.06,193.12c3.18.15,4.36,1.25,1.91,4.06C57.33,195.83,56.69,194.48,56.06,193.12Z"/><path class="cls-10" d="M60,154.11l1.84,2.95L59,160.12l-3-3c0-.69.11-1.38.17-2.07Z"/><path class="cls-18" d="M67,65l-1,2.79L64.89,63l-5.64,3.77-3.14-2.65,6-1.93V55c3.31.11,6.9-.34,8,4.06Z"/><path class="cls-15" d="M70.1,59.05c-1.14-4.4-4.73-3.95-8-4.06l-3-1.94-2-1c2.31.15,4.66.14,6.95.48,2.06.31,4.07,1,6.1,1.5l8.75,1.67L74,59Z"/><path class="cls-15" d="M239,119.09c-3-3.25-2.07-7.67,2-9C240.35,113.06,239.69,116.07,239,119.09Z"/><path class="cls-11" d="M59,160.12l2.84-3.06,1.16-.95c-.33,3-.67,6-1,9l-3,0C59,163.44,59,161.78,59,160.12Z"/><path class="cls-5" d="M217.94,278.18c.07-.28.15-.55.24-.82l4.93-.36c0,.74,0,1.48-.07,2.23l-1,0-1-.05-2,.11Z"/><path class="cls-11" d="M219,279.32l2-.11-4.05,2c0-.32,0-.63-.07-1Z"/><path class="cls-12" d="M239.05,251.18l2,0,1,1-1,1-2,0Z"/><path class="cls-9" d="M98,49l-5-1,1-4,17.08-.86,19.93.95,5,0,2.05.91,8.15,2c.27,1,.55,2,.82,3L148,52l-.17,1.62c-2.53.21-4.94-.17-6.69.73s-2.75,3-4.09,4.66h-2c0-.32,0-.65,0-1l1-2c4.7-.63,2.25-3.7,2-6,1.1-2.2.82-3.49-2-3l-6.94,2.93L123,49.11l-11.13.62-2.7.09Z"/><path class="cls-15" d="M131,44.05l-19.93-.95-.15-4L129,39l2,2Z"/><path class="cls-19" d="M111,39.11l.15,4L94,44l-2.94-.2,3-4.71c0-.27.06-.54.07-.81l2.84,0c.91.7,1.84,2,2.72,2C103.46,40.05,107.21,39.51,111,39.11Z"/><path class="cls-12" d="M131,44.05V39l8.15.66L136,44.08Z"/><path class="cls-19" d="M105.07,37c0-.66,0-1.32,0-2l2-.06,5.19.38,0,1.65Z"/><path class="cls-12" d="M107,35l-2,.06-1,0V34c0-.71.07-1.43.11-2.14L107,32C107,33,107,34,107,35Z"/><path class="cls-2" d="M117.07,35.08,117,37l-2-2Z"/><path class="cls-21" d="M131,39v2l-2-2Z"/><path class="cls-12" d="M107.12,31l-.42-.63,1.24.66Z"/><path class="cls-9" d="M173,31c-.23,1.1-.46,2.2-.77,3.64,4.55.19,7.64,1.23,3.15,5.94-.47.49-.3,1.58-.43,2.39h-8.91l-1-1c-2.61-4.88,2.05-8,2.94-12Z"/><path class="cls-18" d="M156,45c1.3-1.67,2.61-3.33,3.92-5,.37.65.74,1.29,1.1,1.94l1,1.07,1,1.62-2.86,1.07,3.8,2.23a7.36,7.36,0,0,1-6.1,6.1l-.84.07-.14-.21L154.07,46Z"/><path class="cls-15" d="M163.1,44.62l-1-1.61,2-1h1l1,1L166,44.8Z"/><path class="cls-15" d="M162.1,37.36l.51.61-.91.57c-.1-.25-.32-.54-.26-.75S161.86,37.5,162.1,37.36Z"/><path class="cls-12" d="M164,42l-2,1-1-1.07Z"/><path class="cls-6" d="M154.07,46q1.45,3.95,2.89,7.89c-2.9-5.4-4.18-5.9-9.94-3.83-.27-1-.55-2-.82-3a6,6,0,0,0,.85,0l6-1Z"/><path class="cls-9" d="M153,46l-6,1Z"/><path class="cls-3" d="M210.1,28.08c.46,1.27.91,2.55,1.49,4.15L214,31c0,1.66,0,3.32,0,5-.36,5.45,1,6.24,7.22,3.21L218.05,45l-8,1L208,45.93l0-2,3-.95,1,0q-1.56-5-3.11-10Q209.51,30.54,210.1,28.08Z"/><path class="cls-4" d="M226.08,44.94l-4,.15a60.66,60.66,0,0,1,2.39-8.82c.36-.85,2.6-.91,4.95-1.63Z"/><path class="cls-10" d="M188.05,49c1.23,1.64,2.47,3.27,4.16,5.5.29-2.26.45-3.55.73-5.74,3.62,4.15,7.5,4.31,11.82,3.47.88-.17,2.19,1.79,3.3,2.77l-3,2L201,55.55l-5.94,3.52c-3.22-2.77-7.08-2.17-10.86-2l-5.66,3.05a10.29,10.29,0,0,0-1.12-.64C174.27,58,171.13,56.51,168,55l-2.18-.19c.45-1.74.82-3.19,1.19-4.64l4.12-.4c.37,1,.45,2.43,1.17,2.92,6.68,4.5,9.29,3.64,11.74-3.66Z"/><path class="cls-5" d="M184.19,57c3.78-.14,7.64-.74,10.86,2,2.32,2.39,8.2,1.18,10-2l3-2,4.12,4.07-1,1.21L216.05,62c.76,3,1.49,5.84-3.6,4.37-1.2-.35-2.91,1.06-4.39,1.66L203.15,67c-2-5.55-7.44-3.43-11.22-5-2-3-5-2.13-7.83-2l0,0c0-.31,0-.61,0-.92Z"/><path class="cls-4" d="M188.05,49l-4,.08L178,48.91c0-1,0-2,.08-3l.77-2,1.22-1,1.11,1,4.77,1,1.13-.56,2,.55,3.87-.7,7.24.51L204,44l2,.11,0,0,2,1.85L210,46c.33.78.65,1.57,1,2.35-5,.06-10,.06-15,.18C193.36,48.59,190.71,48.83,188.05,49Z"/><path class="cls-11" d="M214.05,56l1.7-1.58.64,1.14-2.34.44Z"/><path class="cls-11" d="M219.67,52.74c-.12.28-.18.71-.38.79s-.54-.2-.81-.32c.12-.28.18-.71.38-.79S219.4,52.62,219.67,52.74Z"/><path class="cls-11" d="M214.05,56l-.23.41.23-.41Z"/><path class="cls-8" d="M225,86l-5.84-1.2L216.09,83l1-2.93,5.09-5,3.91,1c.48.74,1,1.48,1.46,2.22l.6-.37-1-1.86.07-1.9c4.34,1.31,5.21,5,2.19,11l-1.82-3.1Z"/><path class="cls-19" d="M226.05,76l-3.91-1-2.09-1,1-3,2-1.89,1.94,0q1.09,2.52,2.2,5c0,.63,0,1.27-.07,1.9Z"/><path class="cls-27" d="M220.05,74l2.09,1-5.09,5L214,75.2l-3.1,6L210,80.08l-1.09-4.89-1.54.1c-.42,1.31-.84,2.62-1.27,3.93q-1,2.91-2.09,5.82L199.38,85c-.2-1.77-.39-3.54-.58-5.3-4.65-1.54-5.76,1.44-6.36,5.48l-2-3.39-6.38,1.3c-.26,1.21-.66,3.1-1.07,5l0,0c-.36-1.85-.73-3.71-1-5l-6,1.48.17,2.34-.32.34-3-.12q-.43,0-.87,0a64.15,64.15,0,0,1,.7-7.74c.56-2.75,2.76-5.46-.3-8-6,2.77-8.2,1.68-8.38-3.94,0-.83.05-1.66.08-2.49,5.5,1.74,10.93,3.74,16.53,5.07,1.62.39,3.7-1.12,5.56-1.76l4.85-.18,8,1,9.84,4.93c.08-2,.13-2.91.17-3.86l3,.15,6,1.84Zm-8.62.28c.28.12.62.39.82.31s.26-.51.38-.78c-.28-.12-.62-.4-.81-.32S211.56,74,211.43,74.31Zm-9.66,4.11c-.12.28-.4.62-.32.82a.87.87,0,0,0,.78.34.84.84,0,0,0,.34-.77C202.49,78.6,202.05,78.54,201.77,78.42Z"/><path class="cls-21" d="M209.06,70.06c0,1-.09,1.91-.17,3.86L199.05,69l4.1-2,4.91,1.08C208.4,68.73,208.73,69.39,209.06,70.06Z"/><path class="cls-18" d="M223.09,69.12l-2,1.89c-.67-2-1.35-4-2-6l2-2,2,1C223.06,65.71,223.08,67.42,223.09,69.12Z"/><path class="cls-20" d="M219,65c.67,2,1.35,4,2,6l-1,3-2-2-1-3Z"/><path class="cls-19" d="M217.06,69.07l1,3-6-1.84Z"/><path class="cls-5" d="M218.05,275.26l-4.52-1.7-.45-6.38c0-.64,0-1.27,0-1.91l1-4,9.94,0,1,0,3,1.05,3,7-8,7.32Z"/><path class="cls-9" d="M228.07,245.18l2,0-2,8.95-13,2-2,0c-1.22.8-2.43,1.61-3.86,2.57-1.8-4.48.38-6.62,4.68-7.32l-2.79-4.28c3.56.33,7.13.88,10.7.88,1.42,0,2.85-1.2,4.27-1.85Z"/><path class="cls-12" d="M213,256.21l2,0c-.26,2.92,1.65,2.85,3.77,3.12,1.8.22,3.51,1.24,5.26,1.91l-9.94,0Z"/><path class="cls-9" d="M239.05,251.18v2l-1,1-4.91-.94-3.08-.06h0c.08-4.86,3.84-2.34,6-3Z"/><path class="cls-8" d="M236.07,250.2c-2.18.66-5.94-1.86-6,3L229,254.29c-.31,0-.62-.07-.93-.12l2-8.95h3Z"/><path class="cls-12" d="M240,260.18l-3,2-5.67-.87.22-1.56C234.36,260.22,237.13,256.25,240,260.18Z"/><path class="cls-12" d="M228,262.25l-3-1.05,3.87-1.42C228.64,260.6,228.34,261.43,228,262.25Z"/><path class="cls-4" d="M238.06,254.21l1-1,2,0,0,2Z"/><path class="cls-9" d="M229,254.29l1.07-1.09h0l1,2Z"/><path class="cls-8" d="M231.09,255.24l-1-2,3.08.06Z"/><path class="cls-8" d="M218.05,275.26l5,1.27,0,.47-4.93.36C218.14,276.66,218.09,276,218.05,275.26Z"/><path class="cls-6" d="M67.74,30.37c.28.12.71.18.79.39s-.2.54-.32.82c-.28-.12-.72-.19-.79-.39S67.61,30.65,67.74,30.37Z"/><path class="cls-18" d="M104,34v0Z"/><path class="cls-12" d="M95,35l.23-.41L95,35Z"/><path class="cls-26" d="M84,54l14,0L108,53l4,.05c0,.31,0,.63,0,.94v2c-2.84-1.09-5.7-2.3-8,1-4.12.44-2.93,3.54-3,6l-6,4C93.7,63.45,91,64.79,89,65.8c-3.18,1.67-4.52.79-5.1-2.44-.2-1.11-.6-2.18-.91-3.28L82,58h0Z"/><path class="cls-12" d="M84,54l-2,4a44.65,44.65,0,0,1-5.43,1.87c-.76.16-1.7-.56-2.56-.88l4.77-3.32L70,54Z"/><path class="cls-16" d="M108,53l-9.94,1L98,49l11.16.78Z"/><path class="cls-3" d="M91.09,43.76,94,44l-1,4-2,0c-.67-1.35-1.35-2.7-2-4.06Z"/><path class="cls-16" d="M69,262.21l5-3,4.39-.29L80,252.21l20-4,4,1,2-2h3l3,2c3.45-.33,6.9-.62,10.33-1s6-1.87,5.69-6c1.08-2.51,2.16-5,2.94-6.79l-6-1.25-1.81-5H132l3.58.4c-.21,1.75-.38,3.13-.55,4.51-.52,2.43-1,4.87-1.63,7.68h7.35c-.27-2.74-.51-5.22-.75-7.69l-1.48-5,14.51,1.16-2,5c-3.05,2.64-6.28,5.18-5,10-.92,0-2.25-.32-2.69.15a71.72,71.72,0,0,0-4.55,5.91l3.44,6.25L133,260.07c-3.46-7.24-8.43-9.18-17.08-7.75a121.49,121.49,0,0,1-19.79,1.55c-2.39,0-4.69-.64-4.66,2.21,0,1.38,2.27,3.68,3.79,3.93,3,.51,2.79,2.25,2.75,4.27l1.09,4,.72,2.62,1.08-.35-.81-2.38c-.36-1.3-.72-2.59-1.09-3.88h6.18l.19,3.45,6-3.1,1.67,2.58,0,3-.14,3.72-7.68,1.4L92,276.22c-4.94-1.79-5-2-.44-7.11L83,268.22l-1-1c.43-6.09-4.26-3.31-7-4l-1.08-1-3,2h0Zm34.54,7.54c-.09.29-.32.63-.23.83s.49.27.75.4c.08-.25.31-.58.22-.73S103.82,269.91,103.56,269.75Z"/><path class="cls-6" d="M81,271.21l-2,1-2-4h4Z"/><path class="cls-6" d="M82,267.19l1,1H81Z"/><path class="cls-19" d="M82,267.19l-1,1H77q-1-2.52-1.94-5C77.78,263.88,82.47,261.1,82,267.19Z"/><path class="cls-22" d="M69,262.21l2,2-3,5-3-2c.34-1,.68-2,1-3Z"/><path class="cls-22" d="M71,264.25l3-2Z"/><path class="cls-21" d="M59.94,271.21l2.1-3Z"/><path class="cls-25" d="M217.05,122.08c.67,3.34,1.32,6.67,2,10,.17.79.9,1.94.61,2.27-3.11,3.66-6.38,7.19-9.6,10.75l-5.33,1.4c-.33-1.65-.7-3.42-1.11-5.43l4.1-1.78-1.05-3.11,5.17-3.1a35.73,35.73,0,0,0-3.55-3.62,14.39,14.39,0,0,0-3.47-1.57c-2.29-.91-4.11-1.77-3-5,.81-2.34.14-5.24-3.19-4.6-5.42,1.06-9.52-5.27-15.15-2.42a4.24,4.24,0,0,1-1.59-2.1c-.47-2.24-.63-4.55-.91-6.83,2.07-2.26-.56-6.83,3.9-7.92l1.32.09c0,.92,0,1.83,0,2.74-.42,1-.83,2.08-1.57,3.9l6.4-.72,4.14-1.91c.27,0,.54,0,.81,0l3.8-1.2-.32-.76h5.37l3.17,1.94-5.94,2.69,5.62,1.73c1.12,4.29,2.07,9.35,7.41,11.84C216,119.7,216.43,121.12,217.05,122.08Z"/><path class="cls-24" d="M172,87.07q.44,0,.87,0c2.57,6.61,5.16,7.49,9.14,3.11q1.48,3.5,3,7h-5.29c-.68,3.21-1.18,5.56-1.68,7.9-1.54-3.58-3.08-7.15-5-11.58-2.52,5.69-5.12,10.33-6.57,15.3-1,3.28,1.44,2.38,3.14,1.18,8.18,2.06-1.37,5.24.34,8l-5-2.82c-1.48-1.62-4-3.1-4.26-4.91-.88-5.91-4.61-7.65-9.72-8.09-.07-1.77-.15-3.53-.22-5.3q1-2.34,2-4.68l2.22-2q2.5,2,5,4h.82c4.58,2.26,6.12-2.31,8.95-4Z"/><path class="cls-8" d="M183,88.06c.41-1.89.81-3.78,1.07-5l6.38-1.3,2,3.39c.6-4,1.71-7,6.36-5.48l.57,5.3-.3,2.08-3-3.92c0,1.48.44,3.19-.14,4.43-.46,1-2.77,2.31-3.18,2C189.69,87.32,186.14,89.18,183,88.06Z"/><path class="cls-8" d="M182.05,90.15c-4,4.38-6.57,3.5-9.14-3.11l3,.12a15.4,15.4,0,0,0,1,1.49c0,.06.49-.22.76-.34l-1.44-1.49-.17-2.34,6-1.48c.26,1.33.63,3.19,1,5C182.72,88.75,182.39,89.45,182.05,90.15Z"/><path class="cls-8" d="M203.31,101.1h-3.79l.32.76-3.8,1.2c.14-2.73.27-5.47.41-8.13l6.86-.33Z"/><path class="cls-9" d="M210,80.08l.86,1.09L213,85.06l0,1c-4.2-2.16-6.7,1.64-10,2.83.31-1.28.63-2.57.94-3.85q1.05-2.91,2.09-5.82Z"/><path class="cls-8" d="M208.06,103l-3.17-1.94c.05-1.78-.26-3.68.27-5.31.37-1.13,1.9-1.87,2.91-2.79l2,2.07-3.17.22,4.23,1.66L208,99.7l3.74,1.21Z"/><path class="cls-9" d="M217,91.75q.45,2.63.89,5.25l1.41,4.16-6.48-1.55C214.31,96.59,212.21,92.49,217,91.75Z"/><path class="cls-9" d="M186.26,101.81c0-.91,0-1.82,0-2.74,1.65-1,3.26-2.65,5-2.81.83-.07,2,2.63,2.85,4.14a22.92,22.92,0,0,1,1.18,2.68L191.09,105l.72-3c-.44-1.3-.88-2.6-1.33-3.9L188.23,102Z"/><path class="cls-8" d="M178.06,105c.5-2.34,1-4.69,1.68-7.9H185c-.05.61-.1,1.23-.14,1.84-4.46,1.09-1.83,5.66-3.9,7.93l-2.83.25C178.12,106.46,178.09,105.75,178.06,105Z"/><path class="cls-20" d="M213.05,86.06c0-.33,0-.67,0-1L216.09,83l3.09,1.85-4.12,3.22Z"/><path class="cls-5" d="M204,85c-.31,1.28-.63,2.57-.94,3.85l-4-1.83.3-2.08Z"/><path class="cls-20" d="M210.1,95.06l-2-2.07,2.48-.4Z"/><path class="cls-28" d="M201.05,160.11h5l-2.46,4.51,2.46,4.5c-2,1.7-7.05-.36-6,5-1,3.52-2.35,1.52-3.73.31-2.68-2.34-5-5.44-9.31-4.25-.77-.25-1.68-.88-2.29-.67-4.3,1.5-8.5.94-12.69-.35.89-2.15,1.78-4.31,2.59-6.25-5-2.64-9.61-5-14.08-7.49-.46-.25-.36-1.5-.52-2.28l7,1c1.66-1.24,3.79-2.17,4.9-3.79,2.27-3.36,4.07-7,7.83-7.62.47,4.11.78,7.79,1.44,11.4.09.49,1.86.68,2.86,1l4.34-2.5,8.71,8.21c-1.36.53-2.05-.22-2.57-.12a13.42,13.42,0,0,0-4.31,1.52c-.56.33-.54,1.62-.78,2.47a30.68,30.68,0,0,1,3.45.75c1.82.62,3.59,1.38,4.84,1.87Z"/><path class="cls-25" d="M187,170.16c4.29-1.19,6.63,1.91,9.31,4.25,1.38,1.21,2.76,3.21,3.73-.31,1.63-.14,3.26-.25,4.89-.42,3.76-.4,6.94,1.91,7,5.71.12,4.75,3.91,3.39,6.43,4l-4.36,5.76c-.33,3.18,1.83,3.08,4,3l1,2v2c-4-.68-7.63-3.67-12-2v-1c-1.34-3-2.67-6-3.91-8.76l-5.09.75c-.91-2.22-1.83-4.44-2.7-6.58l-7.3-1.43C185.69,175.1,186.53,172.6,187,170.16Z"/><path class="cls-16" d="M216.06,156.12l4,7a18.62,18.62,0,0,1-.08,4.61,34.73,34.73,0,0,1-2.29,5.39l-2.93,6.53q-.85-5.28-1.7-10.52-.66-6.12-1.31-12.29Z"/><path class="cls-25" d="M216.06,156.12l-4.32.71q.66,6.18,1.31,12.29h-7l-2.46-4.5,2.46-4.51a53.81,53.81,0,0,1,4.84-6.12c1.28-1.24,3.2-1.83,4.83-2.7q.67,2.4,1.33,4.82Z"/><path class="cls-2" d="M227,178.11c0,.67,0,1.34,0,2h-7.8C221.41,175.37,224.61,178.6,227,178.11Z"/><path class="cls-16" d="M218,192.16c-2.13.06-4.29.16-4-3l7,2-1,0Z"/><path class="cls-2" d="M230.09,178.07l-3.05,0q.78-2.76,1.58-5.52l1.15,0Z"/><path class="cls-28" d="M178.16,107.16l2.83-.25c.28,2.27.44,4.58.91,6.82a4.24,4.24,0,0,0,1.59,2.1c5.63-2.85,9.73,3.48,15.15,2.42,3.33-.64,4,2.26,3.19,4.6-1.12,3.27.7,4.13,3,5a14.39,14.39,0,0,1,3.47,1.57,35.73,35.73,0,0,1,3.55,3.62l-5.17,3.1,1.05,3.11-4.1,1.78c.41,2,.78,3.78,1.11,5.43l5.33-1.4c-.68,2.34-1.35,4.67-2,7l-9.48.93c-3.39.32-5.54-.58-4.07-5.39l-9.44,2.46v-5.36c6.13-.07,7.78-1.64,8-7.29.1-2.91-.42-5.75,4.43-4.68,2.24.49,4.71-1,2.52-4.36a29.34,29.34,0,0,1-1.87-4.53l-5.18,6.78-2.75-3.73-2,3.68-9-1.66c-.58-3-1.21-6.3-1.94-10-1.35,1.1-2.29,1.75-3.09,2.54-2.49,2.45-4.82,2.12-6.62-.64a37.07,37.07,0,0,1-2.52-5.75l5,2.82c-1.71-2.71,7.84-5.89-.34-8,.71-.84,1.29-2.23,2.13-2.4A39.63,39.63,0,0,1,178.16,107.16Z"/><path class="cls-25" d="M185.05,150.11l9.44-2.46c-1.47,4.81.68,5.71,4.07,5.39l9.48-.93c-.42,1-.59,2.35-1.33,3.1-1.74,1.77-3.75,3.28-5.66,4.9l-3.31,7.19c-1.25-.49-3-1.25-4.84-1.87a30.68,30.68,0,0,0-3.45-.75c.24-.85.22-2.14.78-2.47a13.42,13.42,0,0,1,4.31-1.52c.52-.1,1.21.65,2.57.12l-8.71-8.21-4.34,2.5Z"/><path class="cls-10" d="M211,43,208,44l-2,.11,0,0c.45-2.14-6.09-3.18-.95-6.06l3.88-5q1.56,5,3.11,10Z"/><path class="cls-18" d="M196,35.05l-3-5,4.16-4.92C197.9,29.42,200.64,32.62,196,35.05Z"/><path class="cls-11" d="M201.05,29l4.82-2.57L204.08,36h-2q-.49-3.5-1-7Z"/><path class="cls-18" d="M202.07,36h2l.95,2c-5.14,2.88,1.4,3.92.95,6.06L204,44l-3-.86c-2.52-2.43-2.45-2.31.43-4.08C202.05,38.64,201.88,37,202.07,36Z"/><path class="cls-18" d="M192.87,44.18l-3.87.7c.16-1.08-.06-2.68.55-3.13,1.11-.8,2.72-.91,4.12-1.3C193.4,41.69,193.14,42.94,192.87,44.18Z"/><path class="cls-2" d="M185.91,44.89l-4.77-1c-.37-.94-.73-1.88-1.09-2.82l1-2,2.34,0L184,40c0,.36,0,.71,0,1.07C184.68,42.32,185.29,43.6,185.91,44.89Z"/><path class="cls-10" d="M201.06,29c-.35-1-.7-2.08-1.06-3.12l1.64-.39c-.2,1.17-.39,2.34-.59,3.51Z"/><path class="cls-18" d="M185.91,44.89c-.62-1.29-1.23-2.57-1.85-3.85,1,1.09,2,2.19,3,3.29C186.66,44.51,186.29,44.7,185.91,44.89Z"/><path class="cls-10" d="M201,43.09l3,.86-3.88.74Z"/><path class="cls-12" d="M178.81,43.88l-.77,2L166,44.8l.06-1.82H175Z"/><path class="cls-4" d="M183.41,39l-2.34,0,1.13-1.77Z"/><path class="cls-12" d="M180.05,41c.36.94.72,1.88,1.09,2.82l-1.11-1C180,42.24,180,41.63,180.05,41Z"/><path class="cls-5" d="M225.06,201.17c0,.32,0,.65,0,1l-2-1-1,2.15,0,1.08-2,1.74H219l-5-1-3.79-1.51.33-1,5.9-1.38-4.45-4.16h10l3,1,0,2C225.07,200.48,225.06,200.82,225.06,201.17Z"/><path class="cls-16" d="M222.05,197.14h-3l0-1v-2l1,0,5.34.31Z"/><path class="cls-13" d="M220.08,194.12l-1,0-1-2,2.06-1Z"/><path class="cls-15" d="M222,204.4l0-1.08,1-2.15,2,1c0,.64,0,1.28,0,1.92a4.36,4.36,0,0,0,0,1L223.38,207Z"/><path class="cls-3" d="M225,205a4.36,4.36,0,0,1,0-1l2,.2.3,1.64Z"/><path class="cls-2" d="M225.06,201.17c0-.35,0-.69,0-1l1.79.53Z"/><path class="cls-21" d="M133,260.07l9.26-2.57-3.44-6.25a71.72,71.72,0,0,1,4.55-5.91c.44-.47,1.77-.12,2.69-.15l8-.94a4,4,0,0,0,.06,1l-4,3.29,3.94,3.71,0,4-3.81,5.92,6.81,2.08,0,1c-.06,1.39-.13,2.77-.21,4.54l-6,4.44,4.76,2.19-3.58.83c-5.5-.27-4.12-4.84-5-8,2.7,3.31,5,1.89,7.12-.46L148,263.21c.07-1.25.15-2.5.22-3.68l-11.95,2.06,5.52,3.46c-.83,1-1.55,2.67-2.52,2.83a59.76,59.76,0,0,1-8.27.34l-.08-.05,3.05-3.55-2.9-1.33Z"/><path class="cls-18" d="M148,263.21l6.11,5.56c-2.13,2.35-4.42,3.77-7.12.46l-2.05,0c-.21-.65-.72-1.38-.56-1.93a32.31,32.31,0,0,1,1.61-4Z"/><path class="cls-19" d="M148,263.21l-2,.08-2,.82a6.09,6.09,0,0,1-1,.08c-.41.28-.81.57-1.21.86l-5.53-3.46,11.95-2.06C148.18,260.71,148.1,262,148,263.21Z"/><path class="cls-21" d="M144.9,271.11c.58,4.36-1.92,4-4.77,3.12l-4.53.74-.3-1.23Z"/><path class="cls-18" d="M143,264.19a6.09,6.09,0,0,0,1-.08Z"/><path class="cls-18" d="M131,269.22l-1.23-.05,1.15-1,.08.05Z"/><path class="cls-15" d="M112.87,274c0-1.24.09-2.48.14-3.72l2-3c2.74.27,5-3.6,8-1h1a5.24,5.24,0,0,0,0,1l-8,6Z"/><path class="cls-17" d="M131,268.17l-1.15,1-2.52,1.24-1.25-.19c-.19-1.05-.38-2.11-.58-3.17l3.6-2.79,2-1,2.9,1.33Z"/><path class="cls-15" d="M129.05,264.26l-3.6,2.79a4.5,4.5,0,0,1-.63-.07,2.65,2.65,0,0,0-.1-.88C125.26,263.35,126.46,262.18,129.05,264.26Z"/><path class="cls-14" d="M126,270.22l1.25.19Z"/><path class="cls-22" d="M124.72,266.1a2.65,2.65,0,0,1,.1.88,1.55,1.55,0,0,1-.73.18,6.29,6.29,0,0,1,0-1A3.51,3.51,0,0,0,124.72,266.1Z"/><path class="cls-22" d="M67,77c1.44-7.82,7.62-4.31,12-5a24.37,24.37,0,0,0-3.21,1.78c-1,.74-2.22,1.61-2.51,2.66-.2.75.75,2.21,1.58,2.78,4,2.72,8.08,5.26,12.14,7.86-.83,3.93-6.62,8.24.89,11.57.21.09.08.94.11,1.44l-7,1c-.67,1-1.33,2-2,3h0l-7.54.36-.36-.77,8.93-5.36.52-1.2c-4.5-.53-6.46-2.42-5.13-6.52.11-.35-2.3-1.83-3.7-2.24A19.92,19.92,0,0,0,67,88c0-.66,0-1.32,0-2l8-1.48c-.47-.85-1-2.88-1.9-3.14C71.6,81,69.75,81.77,68,82Z"/><path class="cls-19" d="M67,88a19.92,19.92,0,0,1,4.72.3c1.4.41,3.81,1.89,3.7,2.24-1.33,4.1.63,6,5.13,6.52l-.52,1.2-8.93,5.36.36.77,7.54-.36q-2,6.53-4.07,13l-7.94,3Q67,104,67,88Zm7.89,9.33-2.55-2.59a21.26,21.26,0,0,0-2.19,2.57c-.13.19.73,1.4.94,1.35A35.69,35.69,0,0,0,74.92,97.37Z"/><path class="cls-10" d="M63.2,155.41c1.91-5.2,1.34-10.95-2.87-27.93L64,128.91c1.1-2.84,2.07-5.35,3.05-7.85q1,3.52,2,7.05l-2,8v2.08l2,2-1,16.95-1.15,2.19C65.51,158.1,67,154.25,63.2,155.41Z"/><path class="cls-14" d="M63.2,155.41c3.77-1.16,2.31,2.69,3.67,3.84q0,8.79,0,17.59c-1-2-2.21-4-3.1-6.09C63.05,169,62.6,167,62,165.13c.33-3,.67-6,1-9A3.46,3.46,0,0,0,63.2,155.41Z"/><path class="cls-26" d="M69,128.11q-1-3.53-2-7.05c0-.34,0-.67,0-1l7.94-3-2,10Z"/><path class="cls-9" d="M62,84.08V68.48l2.11,0v8.54c-.37,2.57-.74,5.15-1.12,7.72,0,.11-.18.2-.27.3Z"/><path class="cls-19" d="M68,82c1.72-.25,3.57-1,5.11-.58,1,.26,1.43,2.29,1.9,3.14l-8,1.48Z"/><path class="cls-6" d="M74,59c.86.32,1.8,1,2.56.88A44.65,44.65,0,0,0,82,58h0l1,2.06c.31,1.1.71,2.17.91,3.28.58,3.23,1.92,4.11,5.1,2.44,1.93-1,4.67-2.35,6,1.23l7,2h11.48l.11-1.32L109.07,65c.33-1.43.63-2.7.92-4l0,0,2-1,2,2,3,1v2l-1.81,1.76a27.37,27.37,0,0,1,2.64,1.36A23.82,23.82,0,0,1,120,70c-2.9-.26-3.09,1.56-3,3.77.12,3.73.09,7.46.13,11.2l-.1,3.08h-2c-.66-1.34-1.31-2.68-2-4,4.27-6.9,2.22-11.31-5.56-12-1.29-.12-2.61-.93-3.83-.77-2.6.36-5.13,1.15-7.69,1.76l-2,0H92.07L82,71.08,82,71,68.52,68.6,67,65l3.06-6Z"/><path class="cls-19" d="M87,87.05c-4.06-2.6-8.17-5.14-12.14-7.86-.83-.57-1.78-2-1.58-2.78.29-1,1.53-1.92,2.51-2.66A24.37,24.37,0,0,1,79,72l3-1,0,.07c0,6.53,4.12,10.18,9,8h0l-2,5h0l-2,3Zm-3.38-7.28c-.28-.12-.62-.4-.82-.32s-.26.51-.38.79c.28.12.62.39.81.31S83.51,80.05,83.64,79.77Z"/><path class="cls-25" d="M154,252.23l-3.94-3.71,4-3.29,6-1.07,2.07-1.91h.41l.41,0,9-1,5.06,5,2.09.9,1,1c.35.71.71,1.42,1.06,2.14l6.73,5.29c.72,1.17,1.44,2.34,2.15,3.51l-2,1.17c-2.87-3.38-5.68-6.58-10.88-3.79-1,.54-3-.33-4.3-.95-2-.92-3.89-2.2-5.82-3.32-.11-3.63-2.7-5-5.56-4.75-2.51.2-5.91.59-5.47,4.75Z"/><path class="cls-29" d="M156.05,252.18c-.44-4.16,3-4.55,5.47-4.75,2.86-.23,5.45,1.12,5.56,4.75l-3,5-1,0Z"/><path class="cls-22" d="M186.05,269.23l-4-7h6c.6,1.1,1.53,2.15,1.69,3.31s-.43,2.48-.69,3.73Z"/><path class="cls-22" d="M188.08,260.24l2-1.17h3.95l2.8,1.23-2.91.88-5.92,1h0Z"/><path class="cls-20" d="M156.05,252.18l7,5-1.83,2-5.18-1v0l-2-2,0-4Z"/><path class="cls-10" d="M157,265.23l0-1,2.43-.63.25.95Z"/><path class="cls-20" d="M156,258.2l-1.22,1.54-.33-.33,1.56-1.19Z"/><path class="cls-25" d="M188,262.21l5.92-1,.33,1.61L192,272.23l-3-3c.26-1.25.85-2.54.69-3.73S188.64,263.31,188,262.21Z"/><path class="cls-12" d="M213.1,265.27c0,.64,0,1.27,0,1.91l-8,3.11c0-.67,0-1.35,0-2l4.13-3.44Z"/><path class="cls-21" d="M210,276.74l-1.83.79-1.25-1.1c.06-.41.11-.82.17-1.23Z"/><path class="cls-18" d="M205.07,268.27c0,.67,0,1.35,0,2l-1.91,1c-.09-1-.17-2-.26-2.92Z"/><path class="cls-8" d="M219,279.32l-2.08,1c.33-.7.66-1.4,1-2.1Z"/><path class="cls-3" d="M205.07,268.27l-2.18.1-.88-.13c-.34-.69-.68-1.37-1-2.06l-2,.16.12-.17.12-1,1-.08,1.76.13,1.17-.85h.38l.37,0,2.19-2.2-2.19-2a6.59,6.59,0,0,0-.77,0c0-.63,0-1.27-.08-1.9,0-.33,0-.66,0-1l.24-.42-.23.43-2,0-2-1.07,2.76-3.1-.08-1.68-9.43-1.18c-3.53.07-4,2.59-4.31,5.32l-6.73-5.29,1.66-2-2.72-.18-1.05-1a3.87,3.87,0,0,1,0-.9c4,.72,5.21-2.49,6.95-5a5.24,5.24,0,0,1,.79-.15l2.15.05-.76,4.44,1.21.32,1.65-5.74h6l.72,2.65.77-.09.51-2.56,3,2c1.15,2,2.31,4.06,3.76,6.6l5.24-2.59c0,.33,0,.66,0,1l2.79,4.28c-4.3.7-6.48,2.84-4.68,7.32,1.43-1,2.64-1.77,3.86-2.57l1.08,5.06-1,4-3.9-.44Zm4.93-6.12-.42.51.53-.4.38-.5Z"/><path class="cls-14" d="M199.18,265.13l-.12,1-3.7-3,1.69.08,1.95.05.3,1.09A4,4,0,0,1,199.18,265.13Z"/><path class="cls-17" d="M197.05,263.21l-1.69-.08-1.07-.33-.33-1.61,2.91-.88Z"/><path class="cls-11" d="M198.94,266.34l2.05-.16.12,2.08Z"/><path class="cls-15" d="M201.11,268.26l-.12-2.08,1,2.06Z"/><path class="cls-4" d="M206.87,276.43l1.25,1.1-5.07.66Z"/><path class="cls-16" d="M77,222.06l2.12-.31,0,.33,1.6,3L83,223.25l4,2.93-3.76.55c3.31,5.26,6.13,5.54,9.74,1.41,1.72-1.8,6.42-.74,9,2l-2.49.74,1.49,1.26c.34,1,.67,2,1,3-2,1.13-4.87,1.61-4,5.05l-2-1.06-2.24-2.6c-1.57,3.54-2.39-1.25-3.72-.34l-5-2.65c-.21,2.79-.42,5.51-.65,8.55-3.45-1.08-5.84-.46-6.78,3.32-.27,1.07-1.75,1.84-2.67,2.74l-4,1v-2l2-7c.34-2,.67-4,1-6,.09-5,.09-5-3-9C73.23,224.54,77,227,77,222.06Zm3.07,8.86,2-.48c-.41-1-.8-2-1.3-3a3,3,0,0,0-1.21.36C79.68,228.87,79.9,229.89,80.09,230.92Z"/><path class="cls-22" d="M71,249.2l4-1,5,4-1.61,6.71-4.39.29-5.15-8.61Z"/><path class="cls-2" d="M64,261.21H62v-5.85c6.38-2.82,7.63-2.09,7.55,3.64Z"/><path class="cls-22" d="M73,240.18l-2,7C70.41,244.5,68.56,241.44,73,240.18Z"/><path class="cls-21" d="M68.18,239.91a8.66,8.66,0,0,1-2.6,1.08c-.42,0-1.41-1.34-1.3-1.48a5,5,0,0,1,2.17-2c.67-.2,1.62.59,2.45.94Z"/><path class="cls-21" d="M65,243.2l2.6.47-.44,1.3L65,243.19Z"/><path class="cls-21" d="M65,243.19l-.43-.22.42.23Z"/><path class="cls-10" d="M65,216.05c.74-.48,1.71-1.54,2.2-1.35,2.67,1,5.22,2.36,8,3.7l-1.13,2.68L70,222.18H67C70.11,218.9,66,218,65,216.05Z"/><path class="cls-5" d="M70,222.18l4.08-1.1,2.92,1c0,4.95-3.79,2.48-6,3.11C70.68,224.17,70.35,223.17,70,222.18Z"/><path class="cls-3" d="M222,204.4l1.4,2.55v1.7l-1.42.77-2-3.28Z"/><path class="cls-3" d="M226.07,236.19l1,2q-1.5,2.52-3,5c-.64,1-1.28,1.94-1.93,2.91l-7.07-.92c.06-4.92,5-2.87,7.08-5l2-4Z"/><path class="cls-8" d="M222.12,246.12c.65-1,1.29-1.94,1.93-2.91l4,2-2,1Z"/><path class="cls-18" d="M226.07,236.19l-1.93,0-8.09-1v-3l0,0,1-2,0,0,1-1c0-1.35,0-2.71,0-4.06l2-3,6,2,2.09,0c.77,3.32,1.49,6.62-2,9C226.07,234.18,226.07,235.19,226.07,236.19Z"/><path class="cls-14" d="M222.26,215.33c-.77,1.94-1.53,3.87-2.3,5.8-3.05-.12-6.08-.18-7.86,3-.27-1.43-.45-2.9-.83-4.3a17.09,17.09,0,0,0-1.2-2.66l11-5Z"/><path class="cls-4" d="M212.1,224.15c1.78-3.2,4.81-3.14,7.86-3,0,.34,0,.68.07,1l-2,3c-3.65,4.5-7.39,1.79-11.11.13a7.47,7.47,0,0,1,2.1-1.14A15.31,15.31,0,0,1,212.1,224.15Z"/><path class="cls-18" d="M226.06,217.17l2.91,3.21-2.82.84C225.22,219.89,222.54,218.6,226.06,217.17Z"/><path class="cls-3" d="M222.26,215.33c-.4-1.05-.79-2.11-1.19-3.16L222,211l3.16.13Q223.71,213.25,222.26,215.33Z"/><path class="cls-15" d="M222,211l-.92,1.15-11,5-7.89-2.11a3.53,3.53,0,0,1-.05-.92c.32-1,.64-2,1-3l3.58,1.32-.61-1.15c1.63-1.05,3.16-2.4,4.94-3.06a76.89,76.89,0,0,1,8-2.09H220l2,3.28Z"/><path class="cls-22" d="M223.94,95.28l6-3.09,1.29.67c-.6,1.49-.83,3.55-1.93,4.26C228.53,97.61,226.57,96.25,223.94,95.28Z"/><path class="cls-18" d="M76,207.22c3.38-2.53,4.3-6.28,5-10.12l2-1.9,5.9-1.1c.38-2.66.76-5.33,1.15-8l.91-1h0l1-1,4.08-4,1.81,1,2,7-5.86.55.16,2.38h5.64l2.15,2h0l3,4-2.37,3H106l2.17,6.18-1.14,3.75c0,1.05,0,2.1,0,3.14l-10-.09-7.87-2c.29-3.18.59-6.35.9-9.71l-8-1.43v9.16l-1.1.06Zm24.9-5-3.76-.07c-.7,1.69-1.42,3.37-2,5.09a16.57,16.57,0,0,0,1.9.9l1.86,4.05c.93-3.91,1.55-6.49,2.17-9.07l1.61-1.2Zm-.11-4.07c-1.26-1-2.1-2-2.56-1.86a3.45,3.45,0,0,0-1.95,2c-.13.38,1.08,1.75,1.6,1.71C98.7,199.92,99.47,199.05,100.77,198.18Z"/><path class="cls-18" d="M66.92,176.84q0-8.81,0-17.59c.38-.73.76-1.46,1.15-2.19a4,4,0,0,1,1,.1l1,1-.55,2.42.93.25.67-2.71c2.3-1.7,2.91-5.76,7-5,.09,1.58.18,3.16.28,4.74-5,.77-5.6,1.77-4.17,7.19l-4.69,11.2,1.56,1,4-2.12,2.06,4a4.88,4.88,0,0,1,.09.93l-1,2.18-1,3.9C69.71,185.55,66.9,182.33,66.92,176.84Z"/><path class="cls-19" d="M76,207.22l5,2-6.8,1.7-.63-1.38L73,212.23l-6-3.06,2-2.12,4.93,0Z"/><path class="cls-22" d="M75.07,186.17c.35-1.3.69-2.6,1-3.91l1.89-.14,7,4a20,20,0,0,0-3.68,1.29A25.79,25.79,0,0,0,78,190.14H76Z"/><path class="cls-10" d="M58.77,191.07l5.74-4,3.32,3.07L64,193.8l-.15,2Z"/><path class="cls-25" d="M76,190.15h2l3,1-3.37,1.72,5.42,2.33-2,1.9C78,195.72,73.58,195.42,76,190.15Z"/><path class="cls-21" d="M69.05,207.05l-2,2.12-5,2c.78-1.87,1.23-4,2.52-5.45C65,205.2,67.49,206.55,69.05,207.05Z"/><path class="cls-3" d="M79.14,221.75c-.69-2.5-1.39-5-2.08-7.5l3-.05h5l1.87.16L89,218.18l-.12,2-1,1.73-5,.49-3.88-.28Z"/><path class="cls-10" d="M80,214.2l-3,.05-4-2c.16-.89.33-1.78.49-2.67l.63,1.38,6.8-1.7,1.1-.06.81,3.1Z"/><path class="cls-21" d="M137,59c1.34-1.61,2.38-3.79,4.09-4.66s4.16-.52,6.69-.73c0-.06.09-.84.18-1.62l8.09,3-7.9,2.57c0,.59-.12,2-.2,3.43-3.64-3.34-7.25-3.49-10.84.07Z"/><path class="cls-11" d="M136,56l-1,2c-1.28.7-3.29,1.11-3.71,2.16A63.44,63.44,0,0,0,129,69l0,2-1,0-2-6V64l-2-2L123.26,60,125,60l3.79-.34L126,58l-2-2.78L128,54Z"/><path class="cls-15" d="M136,56l-8-2c.37-1.38.73-2.76,1.09-4.14L136,47l2,3C138.29,52.31,140.74,55.38,136,56Z"/><path class="cls-10" d="M129,69a63.44,63.44,0,0,1,2.25-8.83c.42-1.05,2.43-1.46,3.71-2.16,0,.32,0,.65,0,1-2.31,2.23-2.35,4,1,5.05V69Z"/><path class="cls-18" d="M156.09,55,148,52c-.33-.65-.66-1.3-1-1.95,5.76-2.07,7-1.57,9.94,3.83l.14.21Z"/><path class="cls-16" d="M112,54c0-.31,0-.63,0-.94,0-1.1-.08-2.2-.13-3.29L123,49.11l1,1.9-9,3.07Z"/><path class="cls-20" d="M124,51l-1-1.9,6.09.77c-.36,1.38-.72,2.76-1.09,4.14l-4,1.22-1-.33Z"/><path class="cls-11" d="M136.06,64.06c-3.39-1.06-3.35-2.82-1-5.05h2c0,.69.07,1.38.1,2.07Z"/><path class="cls-19" d="M111.89,49.73c0,1.09.09,2.19.13,3.29L108,53l1.19-3.15Z"/><path class="cls-18" d="M138.08,50l-2-3C138.9,46.51,139.18,47.8,138.08,50Z"/><path class="cls-4" d="M156.09,55l1-.92.84-.07,8.06,7-1.77,1.88L162,62.85l-4.13-3.67-2.69,2-2.15,1-2,.06-3-1.18H148c.08-1.42.16-2.84.2-3.43Z"/><path class="cls-20" d="M166,61.05l-8.06-7a7.36,7.36,0,0,0,6.1-6.1l1.71.34c.42.65.83,1.3,1.25,1.94-.37,1.45-.74,2.9-1.19,4.64L168,55c-3.13,3.79,2.18,4,3.17,6.59Z"/><path class="cls-17" d="M165.75,48.28,164,47.93l-3.8-2.23,2.86-1.07,2.9.17,12,1.09c0,1,0,2-.08,3l-5.88-.24Z"/><path class="cls-18" d="M206,44.08l2-.11,0,2Z"/><path class="cls-18" d="M211,43l1,0Z"/><path class="cls-18" d="M166,61.05l5.16.58c-1-2.58-6.3-2.8-3.17-6.59,3.14,1.47,6.28,2.93,9.42,4.41a10.29,10.29,0,0,1,1.12.64L184.19,57l-.12,2-2.22.18v.59l2.23.15,0,0c.71,2.73,1.42,5.47,2.14,8.2-1.87.64-4,2.15-5.57,1.76-5.6-1.33-11-3.33-16.53-5.07l.09-1.95Z"/><path class="cls-12" d="M172.08,48.67l5.88.24,6.07.16c-2.45,7.3-5.06,8.16-11.74,3.66-.72-.49-.8-1.92-1.17-2.91Z"/><path class="cls-30" d="M205.05,57c-1.8,3.23-7.68,4.44-10,2L201,55.55Z"/><path class="cls-4" d="M172.08,48.67l-1,1.15c-1.38.12-2.75.26-4.12.39-.42-.64-.83-1.29-1.25-1.94Z"/><path class="cls-4" d="M203.15,67l-4.1,2-8-1c.28-2,.56-4,.85-6.05C195.71,63.55,201.14,61.43,203.15,67Z"/><path class="cls-10" d="M191.93,62c-.29,2-.57,4-.85,6.05l-4.85.18L184.1,60C186.91,59.83,189.92,58.93,191.93,62Z"/><path class="cls-10" d="M184.08,60l-2.23-.15v-.59l2.22-.18C184.07,59.36,184.07,59.66,184.08,60Z"/><path class="cls-19" d="M216.09,83,213,85.06l-2.12-3.89,3.09-6,3.07,4.85Z"/><path class="cls-20" d="M226.05,76h1.11c.32.62.64,1.24,1,1.86l-.6.37C227,77.51,226.53,76.77,226.05,76Z"/><path class="cls-30" d="M164.23,62.93l-.09,1.95c0,.83-.11,1.66-.08,2.49.18,5.62,2.39,6.71,8.38,3.94,3.06,2.56.86,5.27.3,8a64.15,64.15,0,0,0-.7,7.74l-2.22,3a38.44,38.44,0,0,1-1.63-4c-2.12-7.71-6.51-9-12.8-3.87q-1.75-2.11-3.5-4.25c.3-1.08,1-2.21.85-3.25-.43-4.17-1.1-8.32-1.68-12.48l2-.06,1,.88c0,5.06,3.78,5.16,8,5.88V62.85Z"/><path class="cls-19" d="M210,80.08l-3.9-.86c.43-1.31.85-2.62,1.27-3.93l1.54-.1Z"/><path class="cls-19" d="M211.43,74.3c.13-.27.19-.7.39-.78s.53.2.81.32c-.12.27-.18.71-.38.78S211.71,74.43,211.43,74.3Z"/><path class="cls-5" d="M201.78,78.42c.27.12.71.18.79.39a.84.84,0,0,1-.34.77.87.87,0,0,1-.78-.34C201.37,79,201.65,78.7,201.78,78.42Z"/><path class="cls-4" d="M222.12,246.12l3.92.09c-1.42.65-2.85,1.85-4.27,1.85-3.57,0-7.14-.55-10.7-.88,0-.33,0-.66,0-1l4-1Z"/><path class="cls-22" d="M110,61.06l-.92,4,4.55,2.67L113.51,69H102c.32-.69.64-1.38,1-2.07-.67-1.31-1.33-2.62-2-3.93h0c.06-2.47-1.13-5.57,3-6L106,58l2.06,2Z"/><path class="cls-12" d="M112,54l3,.12,6,1-1.91,2c-2.94.4-5.46,1.22-5.1,5l-2-2c0-1,0-2,0-3l0-1Z"/><path class="cls-16" d="M103,67c-.33.69-.65,1.38-1,2.07l-7-2,6-4h0C101.07,64.64,98.83,67.41,103,67Z"/><path class="cls-6" d="M112,56c0,.34,0,.68,0,1l-2,4,0,0-2-1L106,58,104,57C106.32,53.71,109.18,54.92,112,56Z"/><path class="cls-12" d="M83,60.08,82,58Z"/><path class="cls-24" d="M135.07,234.09c.17-1.38.34-2.76.55-4.51l-3.58-.4c-1.78-1-3.45-2.48-5.34-2.87-2-.42-3.93-.29-3.67-3.13l7-5h27c.9-.93,1.79-1.86,2.69-2.78l2.3.69L191,221.91l8.28,4.17-6.22,5.16c-.43-.64-.87-1.83-1.29-1.83-6.25.08-12.61-2.23-18.73.75l-7,.06h-13l-14.51-1.16,1.48,5Zm13.4-8.92.18,1.94,5-.41-.1-1.53Zm11,1.58c-.79-.57-1.34-1.24-1.67-1.15-.53.15-.91.8-1.36,1.24.41.4.81,1.1,1.23,1.11S158.58,227.35,159.43,226.75Z"/><path class="cls-24" d="M124.72,266.1a3.51,3.51,0,0,1-.65.09h-1c-2.52-1.65-4.85-4.11-7.6-4.73-2.91-.66-2.9,1.68-1.44,3.73-.33.67-.67,1.34-1,2l-1.67-2.58-6,3.1-.19-3.45H99a8.18,8.18,0,0,0-1,0c0-2,.28-3.76-2.75-4.27-1.52-.25-3.78-2.55-3.79-3.93,0-2.85,2.27-2.21,4.66-2.21a121.49,121.49,0,0,0,19.79-1.55c8.65-1.43,13.62.51,17.08,7.75l-1.88,3.22-2,1C126.46,262.18,125.26,263.35,124.72,266.1Z"/><path class="cls-19" d="M80,252.21l-5-4c.92-.9,2.4-1.67,2.67-2.74.94-3.78,3.33-4.4,6.78-3.32.23-3,.44-5.76.65-8.55l5,2.65c-.35.65-.69,1.3-1,1.95l-2,3.62,2,.37c3.58,3,5.86,2,7-3l2,1,1.94,4,0,4Zm3.58-7.29-.83-.36c-.12.28-.39.62-.31.82s.51.25.78.37Z"/><path class="cls-25" d="M123,223.18c-.26,2.84,1.62,2.71,3.67,3.13,1.89.39,3.56,1.87,5.34,2.87h-8.83l1.81,5c0,2,0,4,0,6l-4.47-4.35.49,2.38-2,2,0,3h-1l-3-3.08,0-1.89-.08-3.38-4,2.33-5-2-2-3.06c1.25-4.22,4.45-4.41,8-3.78,2.83.51,5.63,1.15,7.54,1.54,1-2.72,1.77-4.72,2.51-6.72Zm-13.28,10.39c-.12.28-.39.62-.31.81s.51.27.78.39c.13-.28.4-.62.32-.82S110,233.69,109.75,233.57Z"/><path class="cls-6" d="M115.07,240.11l3,3.08c-.1.87-.19,1.74-.28,2.61l1.75-.15L119,243.2c0-1,0-2,0-3l2-2-.49-2.38,4.47,4.35,3.05,2.06c.31,4.09-2.19,5.55-5.69,6s-6.88.69-10.33,1c-.59-2.3,2.86-5.19-1-7,0-1.67,0-3.34,0-5l4-2.33c0,1.13,0,2.26.08,3.38l-2,1.23Z"/><path class="cls-19" d="M153.07,230.23h13v3c-4.58.8-2.47,4.46-3,7l-.1,2-.41,0h-.41a38.65,38.65,0,0,0-.91-5.63,14.49,14.49,0,0,0-2.13-3.34c-1.08,1-2.55,1.86-3.15,3.12-2,4.26,2.66,5.19,4.12,7.76l-6,1.07a4,4,0,0,1-.06-1c-4-2-2.84-5.76-3-9.05Z"/><path class="cls-19" d="M111,242.19c3.88,1.81.43,4.7,1,7l-3-2-6.21-2.16.19-2.85c.34-1.67.67-3.34,1-5C106.46,238.7,106.49,243.58,111,242.19Z"/><path class="cls-26" d="M135.07,234.09h5c.24,2.47.48,4.95.75,7.69h-7.35C134,239,134.55,236.52,135.07,234.09Z"/><path class="cls-24" d="M151,235.2c.17,3.29-1,7,3,9.05l-8,.94C144.75,240.38,148,237.84,151,235.2Z"/><path class="cls-26" d="M128.05,242.21,125,240.15c0-2,0-4,0-6l6,1.25Z"/><path class="cls-26" d="M103,242.2l-.19,2.85,6.21,2.16h-3l-2,2-4-1,0-4Z"/><path class="cls-12" d="M113,267.21c.34-.67.68-1.34,1-2l1,2-2,3C113,269.23,113,268.22,113,267.21Z"/><path class="cls-6" d="M98,264.28a8.18,8.18,0,0,1,1,0c.37,1.29.73,2.58,1.09,3.88l-1,.11Z"/><path class="cls-21" d="M99.08,268.27l1-.11.81,2.38-1.08.35Z"/><path class="cls-19" d="M104,249.18l2-2Z"/><path class="cls-12" d="M103.56,269.75c.26.16.61.27.74.5s-.14.48-.22.73c-.26-.13-.66-.2-.75-.4S103.47,270,103.56,269.75Z"/><path class="cls-22" d="M191.81,102l-.72,3-6.4.72c.74-1.82,1.15-2.86,1.57-3.9l2,.22Z"/><path class="cls-23" d="M185.05,150.11l-1,5c-1-.33-2.77-.52-2.86-1-.66-3.61-1-7.29-1.44-11.4-3.76.61-5.56,4.26-7.83,7.62-1.11,1.62-3.24,2.55-4.9,3.79,1.1-2.45,1.67-5.41,3.42-7.24,3.83-4,4.49-7,1.42-12.35-1.68-2.93-2.44-4.89-5.82-5.54-1.7-.32-3.17-1.66-4.83-2.37-2-.83-4-1.47-6-2.2l-.32.94L152,123.07c-.34-1.35-.68-2.69-1-4,2-4.3,2.69-8.59,0-12.89l.1-4.08c5.11.44,8.84,2.18,9.72,8.09.27,1.81,2.78,3.29,4.26,4.91a37.07,37.07,0,0,0,2.52,5.75c1.8,2.76,4.13,3.09,6.62.64.8-.79,1.74-1.44,3.09-2.54.73,3.74,1.36,7,1.94,10l9,1.66,2-3.68,2.75,3.73,5.18-6.78a29.34,29.34,0,0,0,1.87,4.53c2.19,3.32-.28,4.85-2.52,4.36-4.85-1.07-4.33,1.77-4.43,4.68-.2,5.65-1.85,7.22-8,7.29Z"/><path class="cls-7" d="M178.16,107.16a39.63,39.63,0,0,0-6.38.38c-.84.17-1.42,1.56-2.13,2.4-1.7,1.2-4.1,2.1-3.14-1.18,1.45-5,4.05-9.61,6.57-15.3,1.9,4.43,3.44,8,5,11.58C178.09,105.75,178.12,106.46,178.16,107.16Z"/><path class="cls-8" d="M155.39,82.19c6.29-5.18,10.68-3.84,12.8,3.87a38.44,38.44,0,0,0,1.63,4c-2.83,1.68-4.37,6.25-8.95,4,5.15-2.92,6.13-8.31,2.19-12H160l-1.18,2.14-.07.5a1.51,1.51,0,0,0-.74.27l-2,.07c-.33-.65-.66-1.31-1-2A7.92,7.92,0,0,0,155.39,82.19Z"/><path class="cls-3" d="M152.81,92.09q-1,2.34-2,4.68l-5.73-3.86c0-2.56,0-5.12,0-7.68a10.43,10.43,0,0,0,2.77,1.39,11.42,11.42,0,0,0,3.15-.31l1.87.08C152.87,88.29,152.84,90.19,152.81,92.09Z"/><path class="cls-30" d="M158.83,84.16,160,82h3.05c3.94,3.73,3,9.12-2.19,12h-.82q-1-4.56-2-9.13a1.51,1.51,0,0,1,.75-.27l1.81.77.29-1.3Z"/><path class="cls-19" d="M145.11,92.91l5.73,3.86c.07,1.77.15,3.53.22,5.3l-.09,4.08-5.83,1.08-.12-4.15c.49-1.84,1.31-3.66,1.35-5.51,0-1.44-.91-2.9-1.43-4.35Z"/><path class="cls-16" d="M158,84.93q1,4.57,2,9.13-2.52-2-5-4l1-5Z"/><path class="cls-30" d="M156.05,85l-1,5-2.22,2c0-1.9.06-3.8.1-5.7L155.05,83C155.39,83.69,155.72,84.35,156.05,85Z"/><path class="cls-27" d="M176.24,86.82l1.44,1.49c-.27.12-.72.4-.76.34a15.4,15.4,0,0,1-1-1.49Z"/><path class="cls-25" d="M191.81,102h-3.58l2.25-3.91C190.93,99.42,191.37,100.72,191.81,102Z"/><path class="cls-29" d="M152,123.07l2.89,2.27.32-.94c2,.73,4.07,1.37,6,2.2,1.66.71,3.13,2.05,4.83,2.37,3.38.65,4.14,2.61,5.82,5.54,3.07,5.34,2.41,8.36-1.42,12.35-1.75,1.83-2.32,4.79-3.42,7.24l-7-1-4.3-1.79-.44,3.43L151.62,153c.4-4.56,1-9.12,1.08-13.69.05-1.81-.92-3.65-1.43-5.48C151.5,130.24,151.74,126.65,152,123.07Z"/><path class="cls-23" d="M151.62,153l3.68,1.77.44-3.43,4.3,1.79c.16.78.06,2,.52,2.28,4.47,2.51,9,4.85,14.08,7.49-.81,1.94-1.7,4.1-2.59,6.25h-8l-7-2,0-3-6.14-3.16-.45-6.74Z"/><path class="cls-16" d="M164,169.14h8c4.19,1.29,8.39,1.85,12.69.35.61-.21,1.52.42,2.29.67-.5,2.44-1.34,4.94,1,7-2.81,2.11-2.81,2.11-4.93-3.42-5.65,0-11.24.11-16.83-.07-1.43,0-2.83-1-4.25-1.55Z"/><path class="cls-28" d="M162,172.09c1.42.54,2.82,1.5,4.25,1.55,5.59.18,11.18.07,16.83.07,2.12,5.53,2.12,5.53,4.93,3.42l7.3,1.43c.87,2.14,1.79,4.36,2.7,6.58-5.42,5-3.71-2.87-7-3.56v7.71l-1.93.08-1.59-2.05c-.82.93-1.63,1.87-2.44,2.8l-3.1.07c.19-1.19.39-2.38.78-4.82L176,188.19l-9.85-.67q-2-3.6-4-7.2l-1.72.23.42,7.29c-.09,2.34-.17,4.68-.26,7a8.11,8.11,0,0,0-.86.14c-.58-.84-1.65-1.67-1.67-2.53-.15-5.82,0-11.65-.1-17.47C158,171.91,160,172.11,162,172.09Z"/><path class="cls-19" d="M212.05,197.15l4.45,4.16-5.9,1.38-.33,1,3.79,1.51c-2.3.13-4.74.73-6.86.16-.81-.22-.9-3.1-1.47-5.34l-2.61,4.19-3-1c-1-.7-1.86-1.88-2.89-2-2.1-.25-4.42.27-4.14-3.05a6.8,6.8,0,0,0-.06-.9l3-.2,4,1.89c0-.94.06-1.89.08-2.83l.07-1,6.94-2c0,.34,0,.67,0,1l-1.66.65-.07,1.06Z"/><path class="cls-24" d="M207.05,193.15l-6.94,2L198,192l-1-2.6-3.07,1.9-3-2v-7.71c3.33.69,1.62,8.59,7,3.56l5.09-.75C204.38,187.17,205.71,190.16,207.05,193.15Z"/><path class="cls-15" d="M212.05,197.15l-6.74-1.28.07-1.06,1.66-.65c4.39-1.72,8,1.27,12,2l0,1Z"/><path class="cls-16" d="M203.12,204.18l2.61-4.19c.57,2.24.66,5.12,1.47,5.34,2.12.57,4.56,0,6.86-.16l5,1a76.89,76.89,0,0,0-8,2.09c-1.78.66-3.31,2-4.94,3.06l.61,1.15-3.58-1.32Q203.1,207.65,203.12,204.18Z"/><path class="cls-11" d="M223,201.17l-1,2.15Z"/><path class="cls-22" d="M115.05,267.2l-1-2c-1.46-2.05-1.47-4.39,1.44-3.73,2.75.62,5.08,3.08,7.6,4.73C120,263.6,117.79,267.47,115.05,267.2Z"/><path class="cls-25" d="M73,127.1l2-10q2-6.51,4.07-13h0c.66-1,1.32-2,2-3l7-1,2.23.19L92,101l2.78,5.58H82.43A3.79,3.79,0,0,0,85,109.51a20.69,20.69,0,0,0,4,.55q-1.5,2.5-3,5c0,.35,0,.7,0,1.05L83.11,118l-.65-6.29a8.76,8.76,0,0,0-2.24,3.55c-1.7,3.62-3.46,7.21-5.2,10.81Z"/><path class="cls-19" d="M90.25,100.25,88,100.06c0-.5.1-1.35-.11-1.44C80.4,95.29,86.19,91,87,87.05h0l2-3h0L93,82l.11,7.11L92.94,93,92,95l-.92,3Z"/><path class="cls-19" d="M81,101.06c-.67,1-1.33,2-2,3C79.69,103.07,80.35,102.06,81,101.06Z"/><path class="cls-22" d="M74.92,97.37a35.69,35.69,0,0,1-3.8,1.33c-.21,0-1.07-1.16-.94-1.35a21.26,21.26,0,0,1,2.19-2.57Z"/><path class="cls-30" d="M69,157.16a4,4,0,0,0-1-.1q.48-8.48,1-16.95l-2-2c0-.69,0-1.39,0-2.08l4.06,2.06c.27,4.75.55,9.5.82,14.29Z"/><path class="cls-19" d="M71.06,138.13,67,136.07l2-8,3.91-1,2.07-1q0,6,0,12Z"/><path class="cls-2" d="M67,138.15l2,2Z"/><path class="cls-19" d="M115,88.06h2q-.49,6.51-1,13c-1,3.56-3.78,1.89-5.93,2.08l-7.18-6L98,100.06l-2-4,3.41-7.38-3.85-2.23,6.65-2.5L104,84v3a73.18,73.18,0,0,0,1.67,7.42c.2.63,1.61,1.22,2.46,1.23,2,0,4-.33,6.86-.62Z"/><path class="cls-16" d="M104,87V84c.82-4.07-1.71-5.33-5-6L96,73c2.56-.61,5.09-1.4,7.69-1.76,1.22-.16,2.54.65,3.83.77,7.78.73,9.83,5.14,5.56,12C108.9,81.62,106.36,84,104,87Z"/><path class="cls-15" d="M120,70a23.82,23.82,0,0,0-2.17-1.85,27.37,27.37,0,0,0-2.64-1.36L117,65l7.95.07q.56,6.47,1.09,12.94c.66,1,1.32,2,2,3,0,1.33,0,2.67,0,4l-1,1-2,10c-.62-.45-1.82-1-1.77-1.34a42.59,42.59,0,0,0-.4-15.43c-.35-1.55.32-3.31.07-4.9-.14-.86-1.22-1.57-1.88-2.35Z"/><path class="cls-25" d="M104,87c2.34-3,4.88-5.42,9-3,.65,1.35,1.3,2.69,2,4v7c-2.9.29-4.88.64-6.86.62-.85,0-2.26-.6-2.46-1.23A73.18,73.18,0,0,1,104,87Z"/><path class="cls-22" d="M91,79c-4.86,2.22-9-1.43-9-8l10,1.93Z"/><path class="cls-9" d="M125,65.1,117,65c0-.67,0-1.34,0-2,5.19-.41.35-4.36,2.11-6l1.91-2,2-.14,1,.33L126,58c-.33.67-.66,1.34-1,2L123.26,60c.27.69.53,1.38.79,2.07l2,2v1Z"/><path class="cls-15" d="M116,101.07q.49-6.51,1-13c0-1,.07-2.06.1-3.08l1.93.1q0,8,0,16Z"/><path class="cls-7" d="M119.05,85.07l-1.93-.1c0-3.74,0-7.47-.13-11.2-.07-2.21.12-4,3-3.77.35.68.69,1.36,1,2h0c-4,1.84-1.19,5.37-2,8l0,2,0,3Z"/><path class="cls-15" d="M119.13,57c-1.76,1.62,3.08,5.57-2.11,6l-3-1C113.67,58.26,116.19,57.44,119.13,57Z"/><path class="cls-22" d="M96,73,99,78.07l-2,1L94,77c0-1.34,0-2.67,0-4Z"/><path class="cls-19" d="M94,73c0,1.33,0,2.66,0,4l-3,2h0l1-6Z"/><path class="cls-26" d="M110,61l2-4c0,1,0,2,0,3Z"/><path class="cls-25" d="M91,79l3-2,3,2.07L93,82l-3.94,2Z"/><path class="cls-25" d="M89,84l-2,3Z"/><path class="cls-22" d="M83.64,79.77c-.13.28-.19.7-.39.78s-.53-.19-.81-.31c.12-.28.18-.71.38-.79S83.36,79.65,83.64,79.77Z"/><path class="cls-22" d="M173,230.15c6.12-3,12.48-.66,18.73-.74.42,0,.86,1.19,1.29,1.83l-.87,4.08c-.11.63-.23,1.26-.34,1.89-1.69-.25-4-1.84-3.88,1.81l-1.1,2.12a5.24,5.24,0,0,0-.79.15l-3.69-5.16c-5,2.4-2.82,6.67-3.26,10.12a3.87,3.87,0,0,0,0,.9l-2.08-.9c1.94-3.89.56-7.16-1.89-10.23l1.48-3.6-3.6-.25C173,231.5,173,230.83,173,230.15Z"/><path class="cls-10" d="M173,232.17l3.6.25-1.48,3.6c-4.47-.33-1.44,3.89-3.17,5.22l-9,1,.09-2,2-1,4.29-5.41c.33.72.73,1.62,1.15,2.56Z"/><path class="cls-10" d="M160.07,244.16c-1.46-2.57-6.16-3.5-4.12-7.76.6-1.26,2.07-2.09,3.15-3.12a14.49,14.49,0,0,1,2.13,3.34,38.65,38.65,0,0,1,.91,5.63Z"/><path class="cls-18" d="M188,255.56c.27-2.73.78-5.25,4.31-5.32l2.86,4.95c-.36,1.3-.71,2.6-1.07,3.89h-3.95C189.41,257.9,188.69,256.73,188,255.56Z"/><path class="cls-11" d="M172,241.24c1.73-1.33-1.3-5.55,3.17-5.22,2.45,3.07,3.83,6.34,1.89,10.23Z"/><path class="cls-18" d="M180.18,248.13l2.72.18-1.66,2C180.89,249.55,180.53,248.84,180.18,248.13Z"/><path class="cls-11" d="M194.07,259.08c.36-1.29.71-2.59,1.07-3.89l3.89,1,2,1.07c-.21,1-3.64,2,0,2.91l0,1.11L200,263.24a8.35,8.35,0,0,0-1,0l-1.95-.05-.18-2.9Z"/><path class="cls-21" d="M206.9,225.27c3.72,1.66,7.46,4.37,11.11-.13,0,1.35,0,2.71,0,4.06l-1,1,0,0-1,2,0,0-6.12-.71-2.83,6.65-1.06,2.07-4,2-3-2,0,0c0-.67.05-1.33.07-2,.32-1,.63-2,1-3,4.65.21,4.65.21,5.37-3.62l-5.37,3.62-3,0-.08-.08c1.26-1.31,2.32-3.43,3.81-3.79,3.54-.87,4.4-3,4.29-6.12Z"/><path class="cls-9" d="M202.05,242.18l4-2c1.22.43,2.47,1.28,3.67,1.21,4.14-.22,8.27-.76,12.41-1.18-2,2.13-7,.08-7.08,5l-4,1-5.24,2.59C204.36,246.24,203.2,244.21,202.05,242.18Z"/><path class="cls-18" d="M200.05,235.19c-.32,1-.63,2-1,3l-2,2h-1l-2-2.82-1.88-2.07.87-4.08,6.22-5.16,1.77.11c.08,1.05.15,2.09.22,3.13h.59l.2-3.13,1-1,2,.06c.11,3.12-.75,5.25-4.29,6.12-1.49.36-2.55,2.48-3.81,3.79l-.19.48.27-.4,3,0Z"/><path class="cls-18" d="M179.12,246.25c.44-3.45-1.76-7.72,3.26-10.12l3.69,5.16C184.33,243.76,183.13,247,179.12,246.25Z"/><path class="cls-17" d="M199,256.2l-3.89-1-2.86-4.95,9.43,1.18.08,1.68Z"/><path class="cls-21" d="M194.06,237.39l2,2.82h-6.56L188,239c-.13-3.65,2.19-2.06,3.88-1.81Z"/><path class="cls-26" d="M189.51,240.22h1.6L189.46,246l-1.21-.32c.26-1.48.51-3,.76-4.44C189.18,240.87,189.35,240.55,189.51,240.22Z"/><path class="cls-12" d="M201.09,261.29c0-.37,0-.74,0-1.11l1-1,1.1.91a6.59,6.59,0,0,1,.77,0v4.18l-.37,0h-.38L202,264.2C201.71,263.23,201.4,262.26,201.09,261.29Z"/><path class="cls-19" d="M203.91,264.3v-4.18l2.19,2Z"/><path class="cls-10" d="M202,259.21l-1,1c-3.64-1-.21-1.94,0-2.91l2,0h0c0,.33,0,.66,0,1Z"/><path class="cls-5" d="M201.09,261.29c.31,1,.62,1.94.92,2.91a5.37,5.37,0,0,0,0,1l-1.77-.13a2.45,2.45,0,0,0-.07-.71l-.15-1.1Z"/><path class="cls-21" d="M199.07,240.21l-.51,2.56-.77.09-.72-2.65h0l2,0Z"/><path class="cls-4" d="M189.51,240.22c-.16.33-.33.65-.5,1l-2.15-.05L188,239Z"/><path class="cls-11" d="M202,259.21l1-1c0,.63.05,1.27.08,1.9Z"/><path class="cls-12" d="M210.11,262.26l-.53.4.42-.51Z"/><path class="cls-12" d="M210,262.15l.49-.39c-.13.17-.26.33-.38.5Z"/><path class="cls-11" d="M203,257.24l.23-.43-.24.42Z"/><path class="cls-18" d="M202,265.18a5.37,5.37,0,0,1,0-1l1.15.13Z"/><path class="cls-18" d="M200.15,264.34a2.45,2.45,0,0,1,.07.71l-1,.08a4,4,0,0,0,.12-.78l.42,0Z"/><path class="cls-3" d="M200.15,264.34l-.43,0-.42,0-.3-1.09a8.35,8.35,0,0,1,1,0Z"/><path class="cls-24" d="M122,223.17l-2.51,6.72c-1.91-.39-4.71-1-7.54-1.54-3.52-.63-6.72-.44-8,3.78a7.85,7.85,0,0,1-1,0l-1-1.95c-2.58-2.78-7.28-3.84-9-2l-3.88-1.88L94,222.19c1.91.62,3.81,1.72,5.73,1.76a96.51,96.51,0,0,0,10.3-.8l8.93-1Z"/><path class="cls-10" d="M96,239.18c-1.11,5-3.39,6-7,3,0-1.33,0-2.66,0-4,.34-.65.68-1.3,1-1.95,1.33-.91,2.15,3.88,3.72.34C94.55,237.44,95.3,238.31,96,239.18Z"/><path class="cls-26" d="M94,222.19l-4.89,4.06-2.1-.07-4-2.93c0-.3,0-.59,0-.89l5-.49,1-1.73Z"/><path class="cls-21" d="M103,242.2l-3,2-1.94-4c-.92-3.43,1.92-3.91,4-5h2l0,2C103.68,238.86,103.35,240.53,103,242.2Z"/><path class="cls-19" d="M87,226.18l2.1.07c1.29.64,2.59,1.27,3.88,1.89-3.61,4.13-6.43,3.85-9.74-1.41Z"/><path class="cls-19" d="M104,235.19h-2c-.34-1-.67-2-1-3l2-.05a7.85,7.85,0,0,0,1,0l2,3.06Z"/><path class="cls-5" d="M83,222.36c0,.3,0,.59,0,.89l-2.33,1.83-1.6-3Z"/><path class="cls-19" d="M80.09,230.92c-.19-1-.41-2-.51-3.09a3,3,0,0,1,1.21-.36c.5,1,.89,2,1.3,3Z"/><path class="cls-25" d="M103,232.13l-2,.05-1.49-1.26,2.49-.74Z"/><path class="cls-12" d="M222.13,240.2c-4.14.42-8.27,1-12.41,1.18-1.2.07-2.45-.78-3.67-1.21l1.06-2.07,8.94-2.91,8.09,1Z"/><path class="cls-3" d="M216.05,235.19l-8.94,2.91,2.83-6.65,6.12.71C216.05,233.17,216.05,234.18,216.05,235.19Z"/><path class="cls-3" d="M216,232.2l1-2Z"/><path class="cls-3" d="M217,230.19l1-1Z"/><path class="cls-11" d="M205.1,225.24l-2-.06-.87-10.1,7.89,2.11a17.09,17.09,0,0,1,1.2,2.66c.38,1.4.56,2.87.83,4.3a15.31,15.31,0,0,0-3.1,0,7.47,7.47,0,0,0-2.1,1.14Z"/><path class="cls-4" d="M202.18,215.08l.87,10.1-1,1h-1l-1.77-.11L191,221.91l-.78-4.91,6.83.65,3-4.6,2.08,1.11A3.53,3.53,0,0,0,202.18,215.08Z"/><path class="cls-11" d="M202.13,214.16l-2.08-1.11c0-.65,0-1.3-.05-2l-1-1,.05,0q.49-3.46,1-6.94l3,1q0,3.47,0,6.95C202.77,212.14,202.45,213.15,202.13,214.16Z"/><path class="cls-29" d="M99.92,188.19l-2-7c1-.43,2.57-.61,2.84-1.31,2.8-7.2,3.74-14.6,1.25-22.07-.36-1.08-2-1.74-3.83-3.29-.16-1.19-.49-3.77-.83-6.36q-.61-6.51-1.24-13l5.81-.1,6,5.05.12,2.05c-.32,1.66-.65,3.33-1,5l.08,1.89c.59,1.38,1.18,2.77,1.76,4.15l.89,1,.3,6-.81,7.86-.15,6.18-.08,6-5.63-1.3c0,2.29-.87,5.18.2,6.75,2.4,3.52.41,5.39-1.58,7.59h0l-1.91-5.07Zm-.87-34.56c3.53-2.88,3.9-10.3,1.11-14.61Z"/><path class="cls-20" d="M109,180.13q0-3,.08-6l6.89,3,1,1c-.26,3.6-.33,7,5,6l0,12v1.94l0,15.07,0,2.89L116,213.19c1-2.18,1.91-4.35,3.19-7.28l-6.13-.73c-1-2.25-1.93-4.5-3-6.89L106,200.13h-3.36l2.37-3a8.83,8.83,0,0,0,2.53-1.27C112.32,191.05,107.94,185.33,109,180.13Z"/><path class="cls-21" d="M96.1,180.11l-4.08,4-1,1h0a8.07,8.07,0,0,1-.85,0l-1.17-8q1.47-2.55,3-5.1c-2.52-7.57.24-14.8,1.43-22.13l2.66.19c-.35,5.13-.32,9.87,2,15C100.13,169.67,101,175.68,96.1,180.11Z"/><path class="cls-25" d="M96.1,180.11c4.88-4.43,4-10.44,2-15-2.33-5.12-2.36-9.86-2-15l1.29-2,.83,6.36c1.87,1.55,3.47,2.21,3.83,3.29,2.49,7.47,1.55,14.87-1.25,22.07-.27.7-1.86.88-2.84,1.31Z"/><path class="cls-27" d="M109,180.13c-1.08,5.2,3.3,10.92-1.45,15.74a8.83,8.83,0,0,1-2.53,1.27l-3-4c2-2.2,4-4.07,1.58-7.59-1.07-1.57-.19-4.46-.2-6.75Z"/><path class="cls-16" d="M82.86,212.27l-.81-3.1V200l8,1.43c-.31,3.36-.61,6.53-.9,9.71l-2.23,3.2L85,214.19Z"/><path class="cls-26" d="M86.87,214.35l2.23-3.2,7.87,2c1.5,1,1.28,5.06,4.72,2.73l1.34,2.35c-3.84,1-7.76,2.52-10.34-1.95L89,218.18Z"/><path class="cls-27" d="M113.06,205.18l6.13.73c-1.28,2.93-2.24,5.1-3.19,7.28l-8.94-3.13,1.14-3.75Z"/><path class="cls-20" d="M103,218.19l-1.34-2.35c-3.44,2.33-3.22-1.68-4.72-2.73l10,.09,7.08,2.9L104,218.18Z"/><path class="cls-11" d="M114.09,216.1,107,213.2c0-1,0-2.09,0-3.14l8.94,3.13,6.08,2.88c0,2.68-.23,2.73-4,1.11Z"/><path class="cls-10" d="M113.06,205.18l-4.86,1.13L106,200.13l4.08-1.84C111.13,200.68,112.09,202.93,113.06,205.18Z"/><path class="cls-25" d="M89,177.16c.4,2.66.79,5.31,1.18,8a1.82,1.82,0,0,0-.06,1c-.39,2.66-.77,5.33-1.15,8l-4-3,3-5Z"/><path class="cls-27" d="M97.12,202.18l3.76.07c.05.3.1.6.16.9-.62,2.58-1.24,5.16-2.17,9.07-1.06-2.32-1.46-3.19-1.86-4.05C97.05,206.17,97.09,204.18,97.12,202.18Z"/><path class="cls-22" d="M85,191.12l4,3-5.9,1.1-5.42-2.33L81,191.15Z"/><path class="cls-11" d="M99.86,191.12H94.22l-.16-2.38,5.86-.55.18-.1Z"/><path class="cls-27" d="M100.77,198.18c-1.3.87-2.07,1.74-2.91,1.81-.52,0-1.73-1.33-1.6-1.71a3.45,3.45,0,0,1,1.95-2C98.67,196.17,99.51,197.22,100.77,198.18Z"/><path class="cls-11" d="M97.12,202.18c0,2-.07,4-.11,6a16.57,16.57,0,0,1-1.9-.9C95.7,205.55,96.42,203.87,97.12,202.18Z"/><path class="cls-27" d="M99.86,191.12l.24-3,1.91,5.07Z"/><path class="cls-4" d="M101,203.15c-.06-.3-.11-.6-.16-.9l1.77-.3Z"/><path class="cls-11" d="M91,185.14l1-1Z"/><path class="cls-11" d="M90.11,186.11a1.82,1.82,0,0,1,.06-1,8.07,8.07,0,0,0,.85,0Z"/><path class="cls-23" d="M93.39,149.93c-1.19,7.33-4,14.56-1.43,22.13l-2.94.06h0v-9.84l-1.47,0L86,181.1l-1.92,0-2.47-6.18c1.43-10.16,1.22-13-2.37-16.85-.33-.07-.65-.12-1-.16-.1-1.58-.19-3.16-.28-4.74.67-1.7,1.33-3.41,2-5.11l4.68-.48L81,145.1l4-12,2.91.09.34.06.33-.06,2.09,4.44L94,135.11l.06,0Z"/><path class="cls-26" d="M80,148c-.67,1.7-1.33,3.41-2,5.11-4.07-.78-4.68,3.28-7,5l-1,0-1-1,2.88-4.74c-.27-4.79-.55-9.54-.82-14.29l4,0h0l1,0,2-1a15.32,15.32,0,0,1,2-3.2,59.72,59.72,0,0,1,5-3.79c0,.66,0,1.32,0,2v1l-4,12Z"/><path class="cls-19" d="M89,172.12l2.94-.06q-1.48,2.55-3,5.1-.52,4.5-1,9H85l-7-4,1.22-1.45-2.09-.58a4.88,4.88,0,0,0-.09-.93c.59-4.51,1.24-9,1.75-13.52.28-2.52.31-5.07.45-7.61,3.59,3.85,3.8,6.69,2.37,16.85l2.47,6.18,1.16,1.64.76-1.6,1.56-18.86,1.47,0v9.84l-.24.41Z"/><path class="cls-4" d="M79.24,158c-.14,2.54-.17,5.09-.45,7.61-.51,4.52-1.16,9-1.75,13.52q-1-2-2.06-4-.45-5-.89-10.08c-1.43-5.42-.86-6.42,4.17-7.19C78.59,157.91,78.91,158,79.24,158Z"/><path class="cls-10" d="M74.09,165.06q.43,5,.89,10.08l-4,2.12-1.56-1Z"/><path class="cls-21" d="M77.13,180.09l2.09.58L78,182.12l-1.89.14Z"/><path class="cls-10" d="M70,158.15l1,0c-.22.9-.45,1.81-.67,2.71l-.93-.25Z"/><path class="cls-5" d="M85,186.14H88l-3,5-4,0-3-1a25.79,25.79,0,0,1,3.33-2.71A20,20,0,0,1,85,186.14Z"/><path class="cls-16" d="M103,218.19h1l6.07,5a96.51,96.51,0,0,1-10.3.8c-1.92,0-3.82-1.14-5.73-1.76l-5.12-2.05.12-2,3.66-1.94C95.27,220.71,99.19,219.22,103,218.19Z"/><path class="cls-11" d="M82.86,212.27,85,214.19H80Z"/><path class="cls-6" d="M136.06,64.06l1.08-3c3.6-3.56,7.21-3.41,10.85-.07h.07c-1.58,3.54-3.09,7.1-4.8,10.57-.21.42-1.5.3-2.28.43l-3.83-3L136.06,69Z"/><path class="cls-26" d="M128,81c-.65-1-1.31-2-2-3q1-3.5,2-7l1,0L137,71c0,2.69.07,5.38.1,8.06-2.44,1.75-4.51,4.24-8,4Z"/><path class="cls-18" d="M128,71.05q-1,3.49-2,7-.54-6.48-1.09-12.94L126,65Z"/><path class="cls-18" d="M137,71l-7.89.11,0-2,7,0,1.09.05C137.08,69.68,137,70.33,137,71Z"/><path class="cls-18" d="M125,60c.34-.67.67-1.34,1-2l2.79,1.67Z"/><path class="cls-18" d="M126,64l-2-2Z"/><path class="cls-19" d="M123,54.91l-2,.14-6-1L124,51C123.69,52.31,123.36,53.61,123,54.91Z"/><path class="cls-18" d="M141,72c.78-.13,2.07,0,2.28-.43,1.71-3.47,3.22-7,4.8-10.57l3,1.18c.58,4.16,1.25,8.31,1.68,12.48.11,1-.55,2.17-.85,3.25l-.78.21c-.92-.56-2.54-1-2.64-1.69-.59-4.12-2.45-2.7-4.43-1.23Z"/><path class="cls-19" d="M162,62.85v6.06c-4.17-.72-7.93-.82-8-5.88.37-.62.75-1.23,1.13-1.85l2.69-2Z"/><path class="cls-18" d="M155.17,61.18c-.38.62-.76,1.23-1.13,1.85l-1-.88Z"/><path class="cls-23" d="M151.11,78.15l.78-.21q1.74,2.13,3.5,4.25a7.92,7.92,0,0,1-.34.85l-2.14,3.35L151,86.3Q151.08,82.24,151.11,78.15Z"/><path class="cls-26" d="M103,67c-4.17.46-1.93-2.31-2-3.93C101.67,64.33,102.33,65.64,103,67Z"/><path class="cls-26" d="M106,58l2.06,2Z"/><path class="cls-14" d="M190.22,217c.25,1.64.51,3.27.77,4.91l-28.93-5.78c2.57-1.2,5.53-2.09,5-5.93l10-4.09,3.77,4c-2.29,3.89-1.51,5.08,3.16,5.44A41.7,41.7,0,0,1,190.22,217Z"/><path class="cls-16" d="M118,217.18c3.82,1.62,4,1.57,4-1.11,0-1,0-1.93,0-2.89l4-2c4.79,1.2,6.86-3,10-5l8,5-3,3c-4.51,4.58-10.54,2.42-15.82,4.08h4.84l-7,5h-1l-3-1Z"/><path class="cls-17" d="M167,210.2c.56,3.84-2.4,4.73-5,5.93l-2.3-.69-1.71-4.28,0-2c0-1.35,0-2.7,0-4.05a3.46,3.46,0,0,0,.34-.82c.82-1.78,1.64-3.55,2.47-5.33l-1.13-4a8.11,8.11,0,0,1,.86-.14l2.13-.14,2.3,3.57,1.71.86C163.28,202.93,164.8,206.57,167,210.2Z"/><path class="cls-2" d="M130.06,218.22h-4.84c5.28-1.66,11.31.5,15.82-4.08.49,5,3.81,1.89,6,2.07h3l6.84-.62.19,2.63Z"/><path class="cls-19" d="M157.07,218.22l-.19-2.63-6.84.62c1.93-1.42,1-5.7,5-5h3l1.71,4.28C158.86,216.36,158,217.29,157.07,218.22Z"/><path class="cls-27" d="M173,232.17l-2.51,4.13c-.42-.94-.82-1.84-1.15-2.56l-4.3,5.41c.32-2,.64-4,.95-6v-3l7-.06C173,230.83,173,231.5,173,232.17Z"/><path class="cls-30" d="M148.47,225.17h5.12l.1,1.53-5,.41Z"/><path class="cls-30" d="M159.43,226.75c-.85.6-1.33,1.21-1.8,1.2s-.82-.71-1.23-1.11c.45-.44.83-1.09,1.36-1.24C158.09,225.51,158.64,226.18,159.43,226.75Z"/><path class="cls-16" d="M89.05,238.19c0,1.33,0,2.66,0,4l-2-.37Z"/><path class="cls-16" d="M83.6,244.92l-.36.83c-.27-.12-.7-.18-.78-.37s.19-.54.31-.82Z"/><path class="cls-16" d="M104,235.19h2l5,2c0,1.68,0,3.35,0,5-4.52,1.39-4.55-3.49-7-5C104,236.52,104,235.85,104,235.19Z"/><path class="cls-22" d="M119,243.2l.48,2.45-1.75.15c.09-.87.18-1.74.28-2.61Z"/><path class="cls-22" d="M115.07,240.11l-2-.66,2-1.23C115.05,238.85,115.06,239.48,115.07,240.11Z"/><path class="cls-16" d="M109.76,233.57c.27.12.7.18.78.38s-.19.54-.32.82c-.27-.12-.7-.19-.78-.39S109.63,233.85,109.76,233.57Z"/><path class="cls-22" d="M121,238.18l-2,2Z"/><path class="cls-26" d="M166,233.2c-.31,2-.63,4-.95,6l-2,1C163.56,237.66,161.45,234,166,233.2Z"/><path class="cls-11" d="M145.14,107.23l5.83-1.08c2.66,4.3,1.93,8.59,0,12.89l-1.84,0-5.17-6.93Z"/><path class="cls-10" d="M149.11,119l1.84,0,1,4c-.23,3.58-.47,7.17-.7,10.76-.75.77-1.5,1.53-2.24,2.3-.17-2.26-.33-4.51-.51-6.89L143,130c0-1.31,0-2.62,0-3.92l5.69,1.41C148.87,124.51,149,121.76,149.11,119Z"/><path class="cls-16" d="M158.83,84.16l2,0-.29,1.3-1.81-.77Z"/><path class="cls-16" d="M163.06,82h0Z"/><path class="cls-20" d="M129.1,83.07c3.44.2,5.51-2.29,8-4l6,2,2.1,4.16c0,2.56,0,5.12,0,7.68l-.17.3-2.9-.13-5-3-8-4C129.07,85.05,129.09,84.06,129.1,83.07Z"/><path class="cls-19" d="M145.12,85.23,143,81.07c4.23-1.27,0-4,1-5.84,2-1.47,3.84-2.89,4.43,1.23.1.67,1.72,1.13,2.64,1.69q0,4.08-.07,8.15a11.07,11.07,0,0,1-3.15.32A10.43,10.43,0,0,1,145.12,85.23Z"/><path class="cls-10" d="M145.14,107.23l-1.2,4.85-2.9,0-3-1v-1l-4-3q.52-5,1-10c0-.33,0-.65,0-1l3.13,0c.27,1,.21,2.43.87,3a61.27,61.27,0,0,0,6,4Z"/><path class="cls-25" d="M145,103.08a61.27,61.27,0,0,1-6-4c-.66-.55-.6-2-.87-3l1.87-2,2-1,2.9.13c.52,1.46,1.46,2.92,1.43,4.36C146.33,99.42,145.51,101.24,145,103.08Z"/><path class="cls-18" d="M149,136.13c.74-.77,1.49-1.53,2.24-2.3.51,1.83,1.48,3.67,1.43,5.48-.11,4.57-.68,9.13-1.08,13.69l-1.2,1.18-1.39-.07-2-1,.09-2,.36-1.48-1.46.47c-1.75.36-3.65.4-5.2,1.16a51.79,51.79,0,0,0-6,4l-1.75,0L129,153l2.83,1.39,3.21-7.27c3.5.31,7,.71,10.49.74.31,0,.92-2.43.87-3.71,0-1-.86-2.06-1.33-3.08l4-4.09C149,136.72,149,136.42,149,136.13Z"/><path class="cls-6" d="M158.05,211.16h-3l-2-4q1-7,2-14l.87-24.09,1.1-2,7,2-2,3c-2,0-4.09-.18-4,2.92.09,5.82-.05,11.65.1,17.47,0,.86,1.09,1.69,1.67,2.53.37,1.33.75,2.65,1.13,4-3.93.33-2.71,3-2.47,5.32a3.46,3.46,0,0,1-.34.82c0,1.35,0,2.7,0,4.05Z"/><path class="cls-19" d="M150.87,160.92l6.14,3.16-6,1h-2l-6-.95-8,1.94c-1.81-4-5.31-1.15-7.91-2l-4.25-1.06c0-.74.07-1.49.1-2.23l7.15-.69,1.88,0Z"/><path class="cls-3" d="M150.87,160.92,132,160.17c.37-1.67.73-3.33,1.1-5l1.75,0,3.26,1,1-.25,3.88.11,4.36,3.44,1.68-5.4,1.39.07Z"/><path class="cls-24" d="M151,165.13l6-1,0,3-1.1,2c-.44-1-.87-2-1.3-3C152.67,168.78,151.56,168.07,151,165.13Z"/><path class="cls-18" d="M191,189.29l3,2,4.06.7,2.07,3.12c0,.34-.05.68-.07,1l-4,.94-3,.19-3.92-.06H187l-9-.19-6-4.88,4.11-2.1,5.79.16,3.1-.08c1.62,2,3.06,4.49,6.19,2.42l-2.16-3.17Z"/><path class="cls-10" d="M165.06,198.3c-.77-1.19-1.53-2.38-2.31-3.57,2.94-3.25.7-5.11-1.86-6.89l-.42-7.29,1.72-.23q2,3.6,4,7.2l1.92,4.6c-.35,1.63-.71,3.26-1.07,4.89Z"/><path class="cls-11" d="M168.11,192.12l-1.92-4.6,9.85.67.12,1.85-4.11,2.1,0,0Z"/><path class="cls-10" d="M176.16,190l-.12-1.85,6.69-2.82c-.39,2.44-.59,3.63-.78,4.82Z"/><path class="cls-5" d="M189.08,189.37l2.16,3.17c-3.13,2.07-4.57-.41-6.19-2.42.81-.93,1.62-1.87,2.44-2.8Z"/><path class="cls-4" d="M160.89,187.84c2.56,1.78,4.8,3.64,1.86,6.89l-2.12.14C160.72,192.52,160.8,190.18,160.89,187.84Z"/><path class="cls-22" d="M187,197.21h2.07l4,1c-.28,3.32,2,2.8,4.14,3.05,1,.13,1.93,1.31,2.89,2q-.51,3.48-1,6.94l-10.7-.6c-.26-1.95-.54-3.94-.81-5.94l-1.27-.12-2,7.57-3.48-.92-3.77-4c0-2,0-4,0-6C180.72,200.36,184.83,202.09,187,197.21Z"/><path class="cls-25" d="M196,197.07l4-.94c0,.94,0,1.89-.08,2.83Z"/><path class="cls-25" d="M193.06,198.17l-4-1,3.92.06A7.07,7.07,0,0,1,193.06,198.17Z"/><path class="cls-28" d="M198,192l-4.06-.7,3.07-1.9Z"/><path class="cls-29" d="M86,115.07q1.48-2.5,3-5l1,0,4-1c2.22-1,4.37-2.28,6.69-2.83a86.85,86.85,0,0,1,9.43-1.25,71,71,0,0,1,2.9,7.38,64.94,64.94,0,0,1,1.19,7.66l-3.22.06-3.5-7.74L102,119.09H94.86v7.33l-1.28.14L91,123.08C92.05,118.73,91.56,115.32,86,115.07Z"/><path class="cls-30" d="M110.14,105a86.85,86.85,0,0,0-9.43,1.25c-2.32.55-4.47,1.86-6.69,2.83l-4,1-1,0a20.69,20.69,0,0,1-4-.55,3.79,3.79,0,0,1-2.54-2.89H94.8c-1-2-1.9-3.81-2.78-5.58l6-1,4.91-2.86,7.18,6Z"/><path class="cls-10" d="M78,137.09l-2,1c-.32,0-.65,0-1,0h0q0-6,0-12c1.74-3.6,3.5-7.19,5.2-10.81a8.76,8.76,0,0,1,2.24-3.55c.22,2.1.44,4.19.65,6.29A32.85,32.85,0,0,0,78,137.09Z"/><path class="cls-19" d="M78,137.09A32.85,32.85,0,0,1,83.11,118l2.88-1.9,1.7,2.65-4.28,5c1,2.46,1.82,4.37,2.62,6.29H85a59.72,59.72,0,0,0-5,3.79A15.32,15.32,0,0,0,78,137.09Z"/><path class="cls-24" d="M86,130.09c-.8-1.92-1.6-3.83-2.62-6.29l4.28-5L86,116.12c0-.35,0-.7,0-1.05,5.53.25,6,3.66,5,8a17.57,17.57,0,0,0-1.52,2.52,11.84,11.84,0,0,0-.49,2.48l-2,2Z"/><path class="cls-29" d="M98,100.06l-6,1-1.77-.79.8-2.19c.31-1,.61-2,.92-3,.32-.69.65-1.38,1-2.06l3,3.1Z"/><path class="cls-21" d="M93,82l4.09-2.91,2-1c3.28.64,5.81,1.9,5,6L102.18,84c-4.9-1.82-6-1.22-9.11,5.15Z"/><path class="cls-28" d="M93.07,89.11c3.14-6.37,4.21-7,9.11-5.15l-6.64,2.5,3.85,2.23L96,96.07l-3-3.1C93,91.68,93,90.39,93.07,89.11Z"/><path class="cls-30" d="M92,95c-.31,1-.61,2-.92,3C91.36,97.05,91.66,96,92,95Z"/><path class="cls-21" d="M110.14,105l0-1.83c2.15-.19,5,1.48,5.93-2.08h3c1.36,3.29,2.68,2,4,0,.67-1.67,1.33-3.33,2-5l2-10,1-1c0-1.33,0-2.67,0-4l1.08,2c0,1,0,2,0,3-.25,4.68,2.58,7.52,6,10,0,.32,0,.64,0,1-3.67.51-7,6-6.42,8.68l-5.56,7.38-8.17.87c2,1.43,3.08,2.63,4.36,3,2.11.55,4,0,3.77-2.85l4-.67c-.46,2.51-.83,4.48-1.2,6.45l.88.34,5.37-9.12,1-4h1l4,3-1.05,1-.08,2-3.46-.44c.91,6.8,1.76,13.17,2.61,19.54-.32,2.31-.65,4.63-1,6.95l-1.05,0H123.24l-.36-1.37,9.32-2.3c-2.38-2.47-10.39-1.15-6.13-8.35h4l1.23,3.24,1.1-.68L130,127.08v-5.22l-4,3.23-5.14,1,1-6h-7.69a64.94,64.94,0,0,0-1.19-7.66A71,71,0,0,0,110.14,105Z"/><path class="cls-6" d="M125,96.06c-.67,1.66-1.33,3.32-2,5l-4,0h0q0-8,0-16h0l1.79-1.75L119.08,82l0-2q1-4,2-8h0c.66.78,1.74,1.49,1.88,2.35.25,1.59-.42,3.35-.07,4.9a42.59,42.59,0,0,1,.4,15.43C123.2,95.08,124.4,95.61,125,96.06Z"/><path class="cls-26" d="M128,85l-1,1Z"/><path class="cls-15" d="M121,72q-1,4-2,8C119.85,77.41,117,73.88,121,72Z"/><path class="cls-15" d="M119.08,82l1.77,1.29-1.79,1.75C119.06,84.05,119.07,83,119.08,82Z"/><path class="cls-17" d="M194.06,237.39l-2.22-.18c.11-.63.23-1.26.34-1.89Z"/><path class="cls-18" d="M200.05,235.19l5.37-3.62c-.72,3.83-.72,3.83-5.37,3.62Z"/><path class="cls-3" d="M199,240.18l-2,0,2-2C199.08,238.85,199.06,239.51,199,240.18Z"/><path class="cls-11" d="M201,226.19h1c-.07,1-.13,2.09-.2,3.13h-.59C201.19,228.28,201.12,227.24,201,226.19Z"/><path class="cls-21" d="M197.08,235.23l-.27.4.19-.48Z"/><path class="cls-26" d="M118,217.18l1,5-8.93,1-6.07-5,10.1-2.08Z"/><path class="cls-12" d="M180.83,210.16l3.48.92,2-7.57,1.27.12c.27,2,.55,4,.81,5.94l10.7.6-.05,0,1,1c0,.66,0,1.31.05,2l-3,4.6-6.83-.65a41.3,41.3,0,0,0-6.22-1.4C179.32,215.24,178.54,214.05,180.83,210.16Z"/><path class="cls-22" d="M200,211.09l-1-1Z"/><path class="cls-10" d="M120.91,126.07l5.14-1c0,.66,0,1.32,0,2-4.26,7.2,3.75,5.88,6.13,8.35l-9.32,2.3.36,1.37H134l-2,6-3-.05.78-3.8a16.68,16.68,0,0,0-3.64,1.46c-.41.28-.14,1.56-.18,2.39l-3.73,6.42,4,1.05L125,154.07h-4l0,.05,0-1c-.42-6-1.12-6.59-6-4.93-2.36-1.68-1-7.14-6.12-6-.31,0-.63,0-.95,0l-.12-2.05c6.47.95,4.85-6.44,9-9.13-.28,2.73-.47,4.65-.67,6.56l1.41.29Q119.26,131.93,120.91,126.07Z"/><path class="cls-24" d="M120.91,126.07q-1.66,5.85-3.32,11.71l-1.41-.29c.2-1.91.39-3.83.67-6.56-4.11,2.69-2.49,10.08-9,9.13l-6-5.05,1.31-1.7,2.81-1.25,1.91,2.73,1.31-.31c.27-2.31.52-4.61.8-6.91.31-2.5.64-5,1-7.49l3.22-.06h7.69Z"/><path class="cls-11" d="M115.08,148.15c4.85-1.66,5.55-1.09,6,4.93,0,.34,0,.68,0,1l0-.05,1.92,6.82c0,.74-.07,1.49-.1,2.23H120l-1-1c-1.06-.81-2-2.12-3.19-2.3-1.87-.3-3.85.16-5.78.31l-.3-6C111.54,152.14,113.31,150.14,115.08,148.15Z"/><path class="cls-27" d="M119,162.11l1,1c0,1.33,0,2.67,0,4q-2,5-4,10l-6.89-3q.08-3.09.14-6.18c2.13,1,3.93,1.21,5.49-1.2A37,37,0,0,1,119,162.11Z"/><path class="cls-21" d="M119,162.11a37,37,0,0,0-4.3,4.67c-1.56,2.41-3.36,2.19-5.49,1.2q.42-3.93.82-7.86c1.93-.15,3.91-.61,5.78-.31C117,160,118,161.3,119,162.11Z"/><path class="cls-20" d="M115.08,148.15c-1.77,2-3.54,4-5.32,6-.29-.33-.59-.65-.89-1-.58-1.38-1.17-2.77-1.76-4.15,0-.63,0-1.26-.08-1.89.65-1.66,1.29-3.31,1.93-5C114.08,141,112.72,146.47,115.08,148.15Z"/><path class="cls-3" d="M93.39,149.93l.69-14.84,2,0q.62,6.51,1.24,13l-1.29,2Z"/><path class="cls-21" d="M96.1,135.11l-2,0-.06,0c.33-1.34.66-2.68,1-4l6-2,2.16,4.26-1.31,1.7Z"/><path class="cls-30" d="M99.05,153.63,100.16,139C103,143.33,102.58,150.75,99.05,153.63Z"/><path class="cls-24" d="M109,142.14c-.64,1.66-1.28,3.31-1.93,5,.33-1.67.66-3.34,1-5C108.33,142.1,108.65,142.12,109,142.14Z"/><path class="cls-24" d="M107.11,149c.59,1.38,1.18,2.77,1.76,4.15C108.29,151.77,107.7,150.38,107.11,149Z"/><path class="cls-5" d="M122,198.11c0-.65,0-1.3,0-1.94.65-4.72,1.36-9.43,1.85-14.16.05-.55-1.18-1.23-1.82-1.86a53.85,53.85,0,0,0,1.15-5.87c.07-.67-.76-1.43-1.18-2.15,0-1.67,0-3.34,0-5l3.91-1.06,0,6.05q-.37,6-.76,12,0,6-.08,12l.89,11-1,2c-3.74-1.5-1.44-4.41-1.68-6.77A20.22,20.22,0,0,0,122,198.11Z"/><path class="cls-26" d="M122,172.13c.42.72,1.25,1.48,1.18,2.15a53.85,53.85,0,0,1-1.15,5.87l-.06,4c-5.31,1.05-5.24-2.39-5-6Z"/><path class="cls-27" d="M122,198.11a20.22,20.22,0,0,1,1.36,4.3c.24,2.36-2.06,5.27,1.68,6.77l1,2-4,2Q122,205.64,122,198.11Z"/><path class="cls-27" d="M122,184.13l.06-4c.64.63,1.87,1.31,1.82,1.86-.49,4.73-1.2,9.44-1.85,14.16Z"/><path class="cls-10" d="M122,172.13l-5,6-1-1q2-5,4-10h2Z"/><path class="cls-15" d="M101.07,129.05l-6,2-2.72-.88-2.24.85-1.46,2.12-.33.06-.34-.06c-.3-.36-.6-.73-.91-1.09v-2l2-2h11Z"/><path class="cls-11" d="M88.6,133.18c.49-.71,1-1.41,1.46-2.12l2.24-.85,2.72.88c-.34,1.34-.67,2.68-1,4l-3.33,2.51Z"/><path class="cls-19" d="M80,148l1-2.92,3.64,2.44Z"/><path class="cls-22" d="M86,181.1l-.76,1.6-1.16-1.64Z"/><path class="cls-19" d="M87,132.09c.31.36.61.73.91,1.09L85,133.09v-1Z"/><path class="cls-25" d="M87,132.09H85c0-.67,0-1.33,0-2h2C87,130.75,87,131.42,87,132.09Z"/><path class="cls-19" d="M75,138.08c.32,0,.65,0,1,0Z"/><path class="cls-23" d="M89,172.12l-.23.42.24-.41Z"/><path class="cls-24" d="M144,75.23c-1,1.83,3.21,4.57-1,5.84l-6-2c0-2.68-.07-5.37-.1-8.06.07-.64.13-1.29.2-1.93L141,72Z"/><path class="cls-20" d="M177.05,200.14c0,2,0,4,0,6l-10,4.09c-2.23-3.63-3.75-7.27-.26-11l.59-.82,2.67-1.08,3.13.19C173.24,200.11,174.52,201,177.05,200.14Z"/><path class="cls-29" d="M126,211.22l-1-2,1-2,7-11,5.16-13.25-13,1.2q.38-6,.76-12c4-.54,8.68,0,9-6l8-1.94c-.79,2.06-1.59,4.11-2.4,6.19l4.07,2.49-4.06,2.55,1.49,1.68,7.8-3.17c.21-1.24.46-2.76.75-4.52l-4.55,1.41c1.18-2.29,2.06-4,2.94-5.68h2c.52,2.94,1.63,3.65,3.6,1,.43,1,.86,2,1.3,3l-.87,24.09-6.93-13.32-5.68,5.2v-5.41l-1.42,0c-.16,2.52-.32,5-.48,7.49l4.74-.68c-.82,2.18-1.36,3.63-1.91,5.07l1.38-.26,1.26,3.93-3,6-7,5C132.88,208.2,130.81,212.42,126,211.22Z"/><path class="cls-30" d="M136.06,206.18q3.48-2.52,7-5h0c-1,1.34-2,2.68-3,4l-.66,1.3.68-.32,12,1h1l2,4c-4-.66-3.1,3.62-5,5h-3c.23-2.14.47-4.27.74-6.77L144,211.18Z"/><path class="cls-19" d="M144,211.18l3.73-1.74c-.27,2.5-.51,4.63-.74,6.77-2.18-.18-5.5,3-6-2.07Z"/><path class="cls-4" d="M158.43,204.31c-.24-2.27-1.46-5,2.47-5.32Q159.65,201.65,158.43,204.31Z"/><path class="cls-19" d="M158.08,209.18c0-1.35,0-2.7,0-4.05C158.08,206.48,158.08,207.83,158.08,209.18Z"/><path class="cls-4" d="M167.36,198.34l-.59.82-1.71-.86,2-1.28C167.15,197.46,167.25,197.9,167.36,198.34Z"/><path class="cls-27" d="M141,112.06l2.9,0,5.17,6.93c-.12,2.75-.24,5.5-.38,8.49L143,126.09c-.33-.68-.65-1.35-1-2,3.46-1.46,1.92-3.66,1-5.91C142.23,116.19,141.7,114.1,141,112.06Z"/><path class="cls-26" d="M142.06,124.07c.33.67.65,1.34,1,2,0,1.3,0,2.61,0,3.92l1,5.07-.93,2c-1.74-2.52-2.71-6.15-7.06-5-.85-6.37-1.7-12.74-2.61-19.54l3.46.44Z"/><path class="cls-8" d="M144,135.08,143,130l5.5-.77c.18,2.38.34,4.63.51,6.89,0,.29,0,.59,0,.89Z"/><path class="cls-26" d="M135,96.06c-3.4-2.5-6.23-5.34-6-10l8,4c-.05,2.13-.18,4.32,3,4l-1.87,2Z"/><path class="cls-19" d="M140,94.05c-3.19.32-3.06-1.87-3-4l5,3Z"/><path class="cls-11" d="M132,111.08l-5.37,9.12-.88-.34c.37-2,.74-3.94,1.2-6.45l-4,.67c0-.33,0-.66,0-1l5.56-7.38C128,103,131.37,97.54,135,97q-.51,5-1,10h-1C130,107.73,129,108.9,132,111.08Z"/><path class="cls-30" d="M142.06,124.07l-5.16-11c0-.66,0-1.31.08-2l1.05,0,3,1c.66,2,1.19,4.13,2,6.1C144,120.41,145.52,122.61,142.06,124.07Z"/><path class="cls-26" d="M138,111.09l-1.05,0,1.05-1Z"/><path class="cls-11" d="M129.07,145.06l3,.05,2.93,2,0,0-3.21,7.27L129,153l4.13,2.14c-.37,1.67-.73,3.33-1.1,5l-1.88,0-4.3-1.66,1-.45c-.61-1.33-1.21-2.67-1.81-4l1.28-1.49-4-1.05,3.73-6.42Z"/><path class="cls-19" d="M145,141.1c.47,1,1.29,2,1.33,3.08,0,1.28-.56,3.71-.87,3.71-3.5,0-7-.43-10.49-.74l0,0c.38-1,.75-2,1.12-3l6.7.42c.12-1.3.22-2.4.32-3.5Z"/><path class="cls-27" d="M143,156.07l-3.88-.11-.69-1.14-.31,1.39-3.26-1a51.79,51.79,0,0,1,6-4c1.55-.76,3.45-.8,5.2-1.16l1.1,1-.09,2C145,153.07,142.76,152.89,143,156.07Z"/><path class="cls-21" d="M143,156.07c-.23-3.18,2-3,4.07-2.95l2,1-1.68,5.4Z"/><path class="cls-10" d="M145,141.1l-1.93-.09v-3.9l.93-2,5,1.94Z"/><path class="cls-21" d="M147.15,151.08l-1.1-1,1.46-.47Z"/><path class="cls-28" d="M153.05,207.16h-1l-4-6,1-5.66-2.84,2c-.06-1.07-.09-1.7-.12-2.33l-1.26-3.93-1.38.26c.55-1.44,1.09-2.89,1.91-5.07l-4.74.68c.16-2.45.32-5,.48-7.49l1.42,0v5.41l5.68-5.2,6.93,13.32Q154.07,200.17,153.05,207.16Z"/><path class="cls-24" d="M149,165.13c-.88,1.69-1.76,3.39-2.94,5.68l4.55-1.41c-.29,1.76-.54,3.28-.75,4.52l-7.8,3.17-1.49-1.68,4.06-2.55-4.07-2.49c.81-2.08,1.61-4.13,2.4-6.19Z"/><path class="cls-28" d="M135,166.12c-.35,6-5,5.46-9,6q0-3,0-6.05l1.17-1.9C129.72,165,133.22,162.1,135,166.12Z"/><path class="cls-4" d="M125,154.07c.6,1.34,1.2,2.68,1.81,4l-1,.45,4.3,1.66-7.15.69-1.92-6.82Z"/><path class="cls-21" d="M127.12,164.17l-1.17,1.9L122,167.13h-2c0-1.34,0-2.68,0-4h2.84Z"/><path class="cls-10" d="M138.11,156.21l.31-1.39.69,1.14Z"/><path class="cls-25" d="M177.05,200.14c-2.53.88-3.81,0-3.89-2.69L178,197l9,.19C184.83,202.09,180.72,200.36,177.05,200.14Z"/><path class="cls-11" d="M178,197l-4.86.43-3.13-.19,2-5.1,0,0Z"/><path class="cls-18" d="M172,192.16l-2,5.1-2.67,1.08c-.11-.44-.21-.88-.32-1.32.36-1.64.72-3.27,1.07-4.9Z"/><path class="cls-10" d="M111,120.08c-.32,2.5-.65,5-1,7.49-.28,2.3-.53,4.6-.8,6.91l-1.31.31L106,132.06c.42-3.62.84-7.23,1.21-10.36l-5.13,1.43c0-1.34,0-2.69-.07-4l5.47-6.75Z"/><path class="cls-25" d="M102,119.09c0,1.35,0,2.7.07,4l-2.1,5H89a11.84,11.84,0,0,1,.49-2.48A17.57,17.57,0,0,1,91,123.08l2.55,3.48,1.28-.14v-7.33Z"/><path class="cls-25" d="M90,110l4-1Z"/><path class="cls-22" d="M143.11,137.11V141c-.1,1.1-.2,2.2-.32,3.5l-6.7-.42c-.34-1.67-.68-3.35-1-5,.32-2.32.65-4.64,1-6.95C140.4,131,141.37,134.59,143.11,137.11Z"/><path class="cls-27" d="M123.06,113.09c0,.33,0,.66,0,1,.21,2.88-1.66,3.4-3.77,2.85-1.28-.34-2.33-1.54-4.36-3Z"/><path class="cls-18" d="M135.08,139.07c.33,1.67.67,3.35,1,5-.37,1-.74,2-1.12,3l-2.93-2,2-6Z"/><path class="cls-18" d="M126.07,127.08c0-.67,0-1.33,0-2l4-3.23v5.22h-4Z"/><path class="cls-10" d="M132,111.08c-3-2.18-2-3.35,1-4Z"/><path class="cls-15" d="M119,101.08l4,0C121.7,103.07,120.38,104.37,119,101.08Z"/><path class="cls-18" d="M130,127.08l2.31,2.57-1.1.68L130,127.09Z"/><path class="cls-21" d="M129.07,145.06l-3,.05c0-.83-.23-2.11.18-2.39a16.68,16.68,0,0,1,3.64-1.46Z"/><path class="cls-4" d="M121.07,154.11c0-.35,0-.69,0-1C121.06,153.42,121.07,153.76,121.07,154.11Z"/><path class="cls-11" d="M100,128.08l2.1-5,5.13-1.43c-.37,3.13-.79,6.74-1.21,10.36l-2.81,1.25-2.16-4.26Z"/><path class="cls-23" d="M125.24,184.1l13-1.2L133,196.15c-2.62-3.94-5.25.64-7.87,0Q125.21,190.13,125.24,184.1Z"/><path class="cls-28" d="M125.16,196.14c2.62.65,5.25-3.93,7.87,0l-7,11C125.75,203.49,125.45,199.81,125.16,196.14Z"/><path class="cls-16" d="M92.3,130.21l-2.24.85Z"/><path class="cls-30" d="M146,195.16c0,.63.06,1.26.12,2.33l2.84-2c-.39,2.29-.68,4-1,5.66l-5,0h0Z"/><path class="cls-29" d="M143,201.16l5,0,4,6-12-1c0-.33,0-.65,0-1C141,203.84,142,202.5,143,201.16Z"/><path class="cls-16" d="M140,205.17c0,.33,0,.65,0,1l-.68.32Z"/></g></g></svg>