<svg xmlns="http://www.w3.org/2000/svg" viewBox="0 0 300 300"><defs><style>.cls-1{fill:#fefefe;}.cls-2{fill:#f7b75a;}.cls-3{fill:#f9cf52;}.cls-4{fill:#b67550;}.cls-5{fill:#fbda46;}.cls-6{fill:#b49182;}.cls-7{fill:#f8d37f;}.cls-8{fill:#98704e;}.cls-9{fill:#c89c59;}.cls-10{fill:#f3dda9;}.cls-11{fill:#f9c76f;}.cls-12{fill:#f7e874;}.cls-13{fill:#f8dc56;}.cls-14{fill:#2b122b;}.cls-15{fill:#764b4a;}.cls-16{fill:#fad458;}.cls-17{fill:#fae264;}.cls-18{fill:#4a3148;}.cls-19{fill:#f9d861;}.cls-20{fill:#f7d66e;}.cls-21{fill:#fade4e;}.cls-22{fill:#f8da50;}.cls-23{fill:#fae36c;}.cls-24{fill:#33233d;}.cls-25{fill:#8d233b;}.cls-26{fill:#543a4e;}.cls-27{fill:#3a263c;}.cls-28{fill:#2b1835;}.cls-29{fill:#e42928;}.cls-30{fill:#fcde39;}</style></defs><g id="Layer_2" data-name="Layer 2"><g id="Layer_1-2" data-name="Layer 1"><path class="cls-1" d="M300,300H0V0H300Zm-172.93-8.16c7.79,0,15.58.13,23.36.06a33.92,33.92,0,0,0,5.51-.93l6-.27,1.09.4a12.11,12.11,0,0,0,3.11.88q28.7.09,57.41,0a13,13,0,0,0,3.5-1l16-.11,4,0c3.46.19,2.94-2.34,2.95-4.41,0-14.72,0-29.43,0-44.15a17.27,17.27,0,0,0-1.07-4.12c-.35-1.42-.71-2.85-1.06-4.27,0-.63,0-1.27,0-1.9.36-2.31.71-4.62,1.07-6.93l.28-1.07a7,7,0,0,0,.78-2.16c0-8.94-.06-17.88-.12-26.83l0-6.07q0-50.53.1-101.06c-.26-.94-.52-1.87-.77-2.8a9.09,9.09,0,0,0,.87-2.64c0-9.47-.08-18.94-.14-28.42v-35c0-1.34,0-2.68,0-4l-.78-4.88c.12-.24.4-.59.33-.7a1.14,1.14,0,0,0-.77-.47q-16.82.06-33.62.15a46.44,46.44,0,0,1-5.34.78c-5.55.17-11.11.19-16.67.26L183,10l-18.12.09-2-.15a7.68,7.68,0,0,0-2.51-.93c-12.11,0-24.21.1-36.32.17L70,9.16l-13.88.75-5-1.13V152q0,24.48,0,49l0,58v32.92l5.84-.71,4-.3A17.78,17.78,0,0,0,65.22,292c8.24.05,16.49-.05,24.73-.11h11.16Z"/><path class="cls-2" d="M247.84,233.93c.35,1.42.71,2.85,1.06,4.26a33.29,33.29,0,0,0-.85,5.18c-.08,8.62.07,17.25-.06,25.87-.06,3.59-.62,7.18-1,10.77l-8.11,1.28L243,290l0,.07-7.85-1a25.94,25.94,0,0,0-4.67-1c-6.82-.13-13.64-.1-20.47-.13q.35-4.68.68-9.36L211,277c2.76,0,4.64.69,3.63,4.17-.12.43,1.47,2,2.22,1.93a83.48,83.48,0,0,0,8.28-1.11H230l2.14,1.78.45-1.27L230,282l-2-1c-.51-2.09-1-4.19-1.63-6.79-1,2.07-1.64,3.53-3,6.55-.9-5.8-2.81-7.86-7.2-6-.83.35-2.15-.47-3.25-.75l-.84-7.93L224,259.89l2-.85,1-.33c5.87-1.94,13.56.79,16.58-8.46,1.05-3.19,3.13-5.63,1.6-9.13Z"/><path class="cls-3" d="M249.87,15.06c0,1.33,0,2.67,0,4-.31,1.66-.62,3.32-.94,5-.51,4.25-1,8.5-1.63,13.38-4.58-2.16-3.3-4.25-.41-6.39l-6.31-3.5c-.68,2.94-1.17,5.08-1.75,7.56-1.55-2.14-2.59-4.88-4.53-5.92-2.27-1.21-5.33-.92-8-1.32a1.58,1.58,0,0,1-.85-.48c-2.78-3.25-4.9-2.55-6.39,2l-.63-2.12L214,29l-2.14,2L207,31l-6-2,4-3-2-2.19L203,21l2.76-2L207,20.94l1.94.06L212,19.62l-.54-.88L210,19.93l-1.06-2V15.81l.1-1.69L215,14c4,.33,8,.86,12,1C234.59,15.12,242.24,15,249.87,15.06Z"/><path class="cls-4" d="M247.84,233.93l-2.73,7.19-2-1.83L241,244c-1.06-5.84-4-.48-6-1l0,0L231.48,235l-.6,5.64-1.95.3-4.8,6.84L219.06,249l1.77-5.76c-9.34-2.15-3.26-9.87-4.08-15.6L215,229l1.92-8.75.36-1c2.56-.06,5.22.29,7.68-.26,6.31-1.43,9.93.59,11,6.69l6.32-.73.75-.76,2,.88c-2.36,3.66,1.55,4.76,2.83,6.93Zm-21.91-8.17-.12.23-.82,1-2.56,2.24.72.85,4.33-2.53c.07,1.24.14,2.48.22,3.72l.19.09,1-.34c-.32-1.07-.63-2.14-.95-3.21a8.46,8.46,0,0,0,.1-.88,1,1,0,0,0,.06-.67c-.16-.7-.33-1.41-.49-2.12l-1.67,1Zm-2.22,13.68c-.26.53-.62.9-.56,1.18s.5.64.77,1c.26-.3.74-.63.71-.89S224.15,240,223.71,239.44Zm2.93-19.77c-.41,1.4-.65,1.83-.55,1.93a7,7,0,0,0,1.18.8C227.15,221.86,227,221.31,226.64,219.67Z"/><path class="cls-5" d="M249.13,85.11c.25.93.51,1.86.77,2.8q-.68,3.06-1.33,6.14L245,98c-1.32-1.5-2.4-3.43-4.05-4.37-1.37-.77-3.41-.32-5.14-.52-2.94-.33-5.88-.73-8.81-1.11l-1.92-1c-.68-1.47-1.71-2.89-1.92-4.42a6.34,6.34,0,0,1,.93-4.25c2.1-2.9,4.59-5.53,6.93-8.27h6c1.09.67,2.12,1.77,3.26,1.9A66.73,66.73,0,0,0,248,76Z"/><path class="cls-2" d="M245,225.1l-2-.88-.75.76-6.32.73c-1-6.1-4.66-8.12-11-6.69-2.46.55-5.12.2-7.69.25L217,219c0-2.34,0-4.69,0-7l1-1c3.63-1.26,6.91-2.19,11-.21,3.15,1.53,7.33.93,11.05,1.28l4.65.81c.31-2.44.57-4.42.92-7.17l2.38,3.31q.62,7.53,1.25,15.07c-.09.36-.19.71-.28,1.07Z"/><path class="cls-6" d="M210,287.9c6.83,0,13.65,0,20.47.13a25.65,25.65,0,0,1,4.66,1l-11.19.33-8.67.55-4.56,0H186.84l-24.87.76-6,.28-1.8-.94-34.08,0-30,.11c-4.79,0-9.58-.17-14.36,0s-9.74.54-14.61.84l-4,.3-1-1.17L56,289l60.21-1h10.69l3.28,0h4.92l15.91-.09,6.08,0h3.9l16.06-.05,6,0h2l6,0,8.95-.75Z"/><path class="cls-7" d="M249.87,15.06c-7.63,0-15.28.06-22.91-.1-4-.09-8-.62-12-1,0-1.31,0-2.62,0-3.93l16.83.13,1.34-.06,5.67,0,1.34,0h1.69l1.28,0,6,0Z"/><path class="cls-8" d="M248.57,94.05q.66-3.08,1.33-6.14-.06,50.52-.1,101.06h-1.63c0-1.34,0-2.68.05-4,0-1,0-1.93,0-2.9,0-.7,0-1.4,0-2.1l-.06-1.91c0-1,0-2,0-3.08l.53-1.24c-.11-1.6-.21-3.2-.32-4.8.06-.09.18-.2.16-.28a4,4,0,0,0-.21-.58c-.14-.68-.28-1.36-.41-2l.29-.05c.14-.76.29-1.53.43-2.29l-.63-4.64v-1.36a1.09,1.09,0,0,0-.05-.69l0-7q.14-14.46.28-28.91l.46-2.2c0-2.59.05-5.18.08-7.78l-.06-2.18Z"/><path class="cls-9" d="M51.09,110V8.78l5,1.13c0,1.37-.06,2.75-.1,4.13l-.78,0-1-.13L53,13a18.88,18.88,0,0,0-1,4.12Q52,53.58,52,90.05q-.08,9.95-.14,19.9A5.19,5.19,0,0,1,51.09,110Z"/><path class="cls-8" d="M247,280c.33-3.59.89-7.18,1-10.77.13-8.62,0-17.25.06-25.87a33.29,33.29,0,0,1,.85-5.18,17.47,17.47,0,0,1,1.07,4.13c.08,14.72.06,29.43,0,44.15,0,2.07.51,4.6-2.95,4.41-.05-.27-.1-.54-.16-.81C247,286.72,247,283.36,247,280Z"/><path class="cls-7" d="M56,14c0-1.38.07-2.76.1-4.13L70,9.16a32.16,32.16,0,0,0,4.71.79c6.81.1,13.63,0,20.44.17,1.24,0,2.45,1.22,3.68,1.88-9.7,0-19.4-.11-29.1.06-1.6,0-3.19,1.28-4.78,2Z"/><path class="cls-10" d="M164.92,10.13,183,10c.81,1.84,1.59,3.65,3.88,1.28.25-.25,1.35.32,2.05.52l-.84,2.95-11-.83-.1,0-.88-.81L174,13.05a2.75,2.75,0,0,0-1,0l-7,1C165.63,12.73,165.28,11.43,164.92,10.13Z"/><path class="cls-11" d="M215,10.08c0,1.31,0,2.62,0,3.93l-5.95.11c-1.89-4.17-3.92-2.95-6-.15L201,15l-2,1.05L194.93,16,196,13.13,193,11c0-.26,0-.52,0-.79,5.56-.07,11.12-.09,16.67-.26A46.44,46.44,0,0,0,215,9.16C215,9.47,215,9.77,215,10.08Z"/><path class="cls-9" d="M98.86,12c-1.23-.65-2.44-1.83-3.68-1.87-6.81-.2-13.63-.07-20.44-.17A32.16,32.16,0,0,1,70,9.16l54.06.06a5.23,5.23,0,0,1,0,.56c-2,.08-4,.1-6,.25-4,.3-8,.67-12.08,1a4.43,4.43,0,0,0-.89,0l-2.32.07-1.71,3,0,1.22-1.93-.42Z"/><path class="cls-12" d="M188.23,289.93h22.49l4.56,0,8.67-.55c0,.49,0,1,0,1.5l-60.92.25-1.09-.4,24.87-.77Z"/><path class="cls-9" d="M163.06,291.1l60.92-.25,3.1.12a13,13,0,0,1-3.5,1q-28.71.09-57.41,0A12.11,12.11,0,0,1,163.06,291.1Z"/><path class="cls-11" d="M164.92,10.13c.36,1.3.71,2.6,1.07,3.89,0,.33,0,.66,0,1L165,15c-.33,0-.66,0-1,0l-.53-1.3L163,15h-4l-4.7.06c-.73-1.34-1.47-2.67-2.21-4L150,11c0-.25,0-.5-.07-.75l13-.23Z"/><path class="cls-2" d="M51.16,259l0-58a6.28,6.28,0,0,0,.75,0q.09,23.53.17,47.06L52,259Z"/><path class="cls-8" d="M249.17,224q-.63-7.53-1.25-15.07.15-7,.32-13.92h1.59c.06,9,.12,17.89.12,26.83A7,7,0,0,1,249.17,224Z"/><path class="cls-7" d="M61.05,290.93c4.87-.3,9.73-.71,14.61-.84s9.57,0,14.36,0c0,.59,0,1.18-.07,1.77-8.24.06-16.49.16-24.73.11A17.78,17.78,0,0,1,61.05,290.93Z"/><path class="cls-3" d="M51.16,259H52l.78,20.87c.06,2.09-.25,4.28.3,6.24.42,1.47,1.93,2.64,2.95,3.94l1,1.17-5.84.71Z"/><path class="cls-8" d="M249.13,85.11,248,76l-.09-3q.42-7.44.85-14.88l.48-4.08.63,0c.06,9.48.14,19,.14,28.42A9.09,9.09,0,0,1,249.13,85.11Z"/><path class="cls-9" d="M51.88,200.93a6.28,6.28,0,0,1-.75,0q0-24.48,0-49h.43l.42,0c0,3,.05,6,.08,9Q51.94,181,51.88,200.93Z"/><path class="cls-2" d="M51.94,152l-.42,0h-.43V110a5.19,5.19,0,0,0,.79,0Z"/><path class="cls-4" d="M215,10.08c0-.31,0-.61.05-.92q16.82-.08,33.62-.15a1.14,1.14,0,0,1,.77.47c.07.11-.21.46-.33.7l-6,0-1.28,0h-1.69l-1.34,0-5.67,0-1.34.06Z"/><path class="cls-10" d="M90,291.89c0-.59,0-1.18.07-1.77l30-.11-.06,1-18.89.89Z"/><path class="cls-4" d="M162.92,10l-13,.23L141,10.05l-1,.12-15.89-.39a5.23,5.23,0,0,0,0-.56c12.11-.07,24.21-.16,36.32-.17A7.68,7.68,0,0,1,162.92,10Z"/><path class="cls-7" d="M227.08,291l-3.1-.12c0-.5,0-1,0-1.5l11.19-.33,7.86,1c0,.27,0,.54,0,.81Z"/><path class="cls-4" d="M249.86,54.05l-.64,0q-.15-15-.31-30c.32-1.66.63-3.32.94-5Q249.85,36.56,249.86,54.05Z"/><path class="cls-9" d="M154.14,290l1.8.94a33.92,33.92,0,0,1-5.51.93c-7.78.07-15.57,0-23.36-.06a4,4,0,0,1,.06-.7c6.14,0,12.27.1,18.4-.07C148.4,291,151.27,290.39,154.14,290Z"/><path class="cls-11" d="M127.13,291.14a4,4,0,0,0-.06.7l-26,.06L120,291Z"/><path class="cls-9" d="M245,225.1h3.9c-.36,2.31-.71,4.62-1.07,6.93C246.54,229.86,242.63,228.76,245,225.1Z"/><path class="cls-7" d="M193,10.2c0,.27,0,.53,0,.79l-2.91,1L189,11.84c-.7-.2-1.8-.77-2.05-.52-2.29,2.37-3.07.56-3.88-1.28Z"/><path class="cls-4" d="M249.83,195h-1.59q0-3-.07-6.06h1.63Z"/><path class="cls-13" d="M243,290.86c0-.27,0-.54,0-.81l0-.06,3.88.08c.06.27.11.54.16.81Z"/><path class="cls-14" d="M217,220.27,215,229l-3.18,14.88a23.72,23.72,0,0,0-5.33,19.51c.3,2,1.18,3.72,3.59,1.68l2,.95.84,7.93-2,3c-.08.51-.17,1-.26,1.54-1.31,2.71-3.39,3.29-5.76,1.61a31.77,31.77,0,0,1-4-4.11c-.67-3-1.35-6.06-2-9.09,0-1.64,0-3.29-.07-4.94l1.08-4q0-12.48,0-24.94L200,221c.38-1,.75-2,1.13-3l2.55.86-1.25-3.73c3.49-.32,6.58-.52,9.64-.92A12.69,12.69,0,0,0,215,213c.35,2,.71,4,1.06,6Z"/><path class="cls-15" d="M212.08,266l-2-.95c.64-1.35,1.28-2.7,1.93-4.05l1.94-1,2.93-1.32,2-1.71.07-.06,7-4c5.25-2.93,2.34-7.89,3-12l1.95-.29L235,243v0l4.87,1,.09,1c.86,5.46-3.84,6.29-7,8.52-2.16,1.53-4.06,3.42-6.07,5.15L226,259l-2,.85Z"/><path class="cls-8" d="M226.93,258.71c2-1.73,3.91-3.62,6.07-5.15,3.14-2.23,7.84-3.06,7-8.53l1-1h0l2.09-4.71,2,1.83c1.53,3.5-.55,5.94-1.6,9.13C240.49,259.5,232.8,256.77,226.93,258.71Z"/><path class="cls-11" d="M211,277l2-3c1.1.28,2.42,1.1,3.25.75,4.39-1.85,6.3.21,7.2,6,1.39-3,2.07-4.48,3-6.55.62,2.6,1.12,4.7,1.63,6.79l0,.05-2.91,1a83.48,83.48,0,0,1-8.28,1.11c-.75,0-2.34-1.5-2.22-1.93C215.59,277.69,213.71,277,211,277Zm6.35,1.22h.4v-1.47h-.4Z"/><path class="cls-9" d="M200.93,276a31.77,31.77,0,0,0,4,4.11c2.37,1.68,4.45,1.1,5.76-1.61q-.33,4.68-.68,9.36l-10-.77q-.45-5.61-.89-11.22Z"/><path class="cls-9" d="M246.9,290.07,243,290l-4.09-8.7L247,280C247,283.36,247,286.72,246.9,290.07Z"/><path class="cls-11" d="M230,282l2.57.53-.45,1.27L230,282Z"/><path class="cls-11" d="M230,282h-2.05a2.55,2.55,0,0,0,.05-1l0-.05,2,1Z"/><path class="cls-4" d="M228,281a2.55,2.55,0,0,1-.05,1h-2.86Z"/><path class="cls-8" d="M224,259.89l2-.85Z"/><path class="cls-16" d="M207,31l4.86,0c.39,1.27.78,2.55,1.18,3.83,3.94,2,3.24,5.19,2.77,7.44l-9.71,1.39c-4.65-1.06-9.66-2-12.72,2.59s-5.05,9.79-7.52,14.73c-.48.51-1.39,1-1.38,1.52,0,2.16.8,4.38.44,6.44-.51,3-1.77,5.81-2.61,8.41L177,79l-8,1-6-2c1-1,2.42-1.89,3.07-3.13,1.58-3,6.77-4,4.92-8.89l1-2.92V60l6-2-.05-1.41L173,56c.43-5.45,2.25-10,7.33-12.92,1.9-1.11,3.15-3.32,4.69-5h5.67c.88-1.54.78-5.63,4.89-2.56L197,33V32l0-1C200.35,32.16,203.66,34.15,207,31Z"/><path class="cls-16" d="M248.91,24.05q.17,15,.31,30c-.15,1.36-.31,2.72-.47,4.08-1.28.11-2.66.58-3.81.25-3-.87-6.67-3.74-8.83-2.85-5.61,2.32-10.88,1.29-16.34.73l.08-.08c.34-3.54.68-7.08,1-10.58l10.2-1.84.08-1.7c-2.6-2.18-7.69-2.07-7.22-7.09,2-2.8.86-4.54-2.12-4.56-2.51,0-5,1-7.68,1.57L214,29l4.38-1.77.63,2.12c1.49-4.54,3.61-5.24,6.39-2a1.58,1.58,0,0,0,.85.48c2.71.4,5.77.11,8,1.32,1.94,1,3,3.78,4.53,5.92.58-2.48,1.07-4.62,1.75-7.56l6.31,3.5c-2.89,2.14-4.17,4.23.41,6.39C247.88,32.55,248.4,28.3,248.91,24.05Z"/><path class="cls-16" d="M199,16.07,201,15c.65,1.32,1.3,2.63,1.94,3.95l.09,2L203,23.8,205,26l-4,3h-4l-7-1,.78-3.09L200,23l.42.23L200,23l-4-3.37Z"/><path class="cls-9" d="M214,29l.14,2.94c2.64-.58,5.17-1.59,7.68-1.57,3,0,4.15,1.76,2.12,4.56l-10.9-.1c-.4-1.28-.79-2.56-1.18-3.83C212.56,30.35,213.27,29.68,214,29Z"/><path class="cls-9" d="M203.07,14c2.06-2.8,4.09-4,6,.15,0,.56-.07,1.13-.1,1.69Z"/><path class="cls-17" d="M197,29h4l6,2c-3.33,3.15-6.64,1.16-10,0Z"/><path class="cls-17" d="M203.07,14,209,15.81c0,.7,0,1.39,0,2.09l-1.77-.1L203,19c-.64-1.32-1.29-2.63-1.94-3.95Z"/><path class="cls-2" d="M203,19l4.22-1.17L207,18l-1.21,1L203,21Z"/><path class="cls-2" d="M207.17,17.8l1.77.1,1.06,2L208.91,21,207,21c0-1,0-2,0-3Z"/><path class="cls-9" d="M208.91,21,210,19.93l1.46-1.19.54.88Z"/><path class="cls-9" d="M205,26l-2-2.19Z"/><path class="cls-4" d="M207,18c0,1,0,2,0,3L205.8,19Z"/><path class="cls-9" d="M226,252.94l-7,4c-1.32-3.61-2.49-7.28-4.06-10.78-.45-1-2-1.52-3.07-2.26L215,229l1.71-1.34c.82,5.73-5.26,13.45,4.08,15.6L219.06,249l5.06-1.2Z"/><path class="cls-8" d="M226,252.94l-1.83-5.11,4.81-6.85C228.29,245.05,231.2,250,226,252.94Z"/><path class="cls-8" d="M235,243l-4.13-2.28.6-5.65Z"/><path class="cls-8" d="M239.89,244,235,243c2,.53,4.92-4.83,6,1h-1.11Z"/><path class="cls-15" d="M227.48,227.51,223.15,230l-.72-.85L225,227l.82-1,.12-.22.46.17,1.73.28a1,1,0,0,1-.06.67A6.76,6.76,0,0,0,227.48,227.51Z"/><path class="cls-8" d="M223.71,239.44c.44.56.87.88.92,1.25s-.45.59-.71.89c-.27-.32-.69-.6-.77-1S223.45,240,223.71,239.44Z"/><path class="cls-18" d="M227.48,227.51a6.76,6.76,0,0,1,.58-.62,8,8,0,0,1-.1.87c-.09,1.15-.17,2.31-.26,3.47C227.62,230,227.55,228.75,227.48,227.51Z"/><path class="cls-2" d="M226.64,219.67c.38,1.64.51,2.19.63,2.73a7,7,0,0,1-1.18-.8C226,221.5,226.23,221.07,226.64,219.67Z"/><path class="cls-14" d="M227.7,231.23c.09-1.16.17-2.32.26-3.47.32,1.08.63,2.15.95,3.22l-1,.34Z"/><path class="cls-14" d="M228.12,226.22l-1.72-.28c-.15-.28-.3-.56-.44-.84l1.67-1C227.79,224.81,228,225.52,228.12,226.22Z"/><path class="cls-18" d="M227.89,231.32l1-.34Z"/><path class="cls-8" d="M225.81,226l-.82,1Z"/><path class="cls-8" d="M226,225.1c.14.28.29.56.44.84l-.47-.17Z"/><path class="cls-9" d="M242.29,225l.75-.76Z"/><path class="cls-2" d="M217,220.27l-.9-1.29H217l.34.3C217.2,219.61,217.08,219.94,217,220.27Z"/><path class="cls-19" d="M219.77,56.24c5.46.56,10.73,1.59,16.34-.73,2.16-.89,5.79,2,8.83,2.85,1.15.33,2.53-.14,3.81-.25q-.44,7.44-.85,14.88L237,74h-6c-4.29.5-8.61,1.25-11.37-3.5-.31-.52-1.8-.35-2.75-.51C222.33,64.73,222.69,63,219.77,56.24Z"/><path class="cls-16" d="M216.89,70c1,.16,2.44,0,2.75.51,2.76,4.75,7.08,4,11.37,3.5-2.33,2.74-4.82,5.37-6.92,8.27a6.34,6.34,0,0,0-.93,4.25c.21,1.53,1.24,3,1.92,4.42l-.32.29c-2.31-5.07-6.8-6.51-11.79-7.13l-1.92-.29.11.07-3.86-7.73.86-3Z"/><path class="cls-19" d="M248.57,94.05q.1,7.44.23,14.88l-.73,2-3-2a1.15,1.15,0,0,1-.15-.73L241,103l-3-1-4.88-1.93-.36-1.15A3.59,3.59,0,0,1,233,98c2,0,4,.13,6.06.13s4-.09,6-.13Z"/><path class="cls-13" d="M245,98c-2,0-4,.13-6,.13S235,98,233,98a6.2,6.2,0,0,1-.5-.86l-.59-.92a.78.78,0,0,0-.83-.06l-2.12,0q-1.37-1.65-2.72-3.32L227,92c2.93.38,5.87.78,8.81,1.11,1.73.2,3.77-.25,5.14.52C242.6,94.57,243.68,96.5,245,98Z"/><path class="cls-16" d="M237,74l10.92-1,.09,3a66.73,66.73,0,0,1-7.75-.08C239.1,75.78,238.07,74.68,237,74Z"/><path class="cls-13" d="M225.08,91,227,92l-.79.82-1.45-1.58Z"/><path class="cls-16" d="M248.17,189q0,3,.07,6.06-.17,7-.32,13.92l-2.38-3.31c-.35,2.75-.61,4.73-.92,7.17L240,212c-2.67-1.49-5.35-4.18-8-4.17-3.17,0-4.85-.88-6.33-3.22l.11.07,5.26-2.54,1.17-3.13,4.82-3,5-3.91c3.74-1,1.77-3.64,1.45-5.63a35.82,35.82,0,0,0-1.62-5.16c3.28-7.41,2.74-14.4-3.32-21.53l9.56-2.76a1.12,1.12,0,0,1,.05.7c0,.47,0,.95,0,1.42V159l-.09,7c.13.68.27,1.36.41,2a.77.77,0,0,0,.05.86c.11,1.6.21,3.2.32,4.8-.18.41-.35.83-.53,1.24,0,1,0,2,0,3.08l.06,1.91c0,.7,0,1.4,0,2.1,0,1,0,1.94,0,2.9C248.2,186.3,248.19,187.64,248.17,189Z"/><path class="cls-20" d="M225.62,204.62c1.48,2.34,3.16,3.23,6.33,3.22,2.67,0,5.35,2.68,8,4.17-3.72-.35-7.9.25-11.05-1.28-4.09-2-7.37-1-11,.21l-.18-.17C217.31,204.8,222.41,205.92,225.62,204.62Z"/><path class="cls-20" d="M217,219h-.91c-.35-2-.71-4-1.06-6l.92-1a3.45,3.45,0,0,1,.83-.25l.21.21Z"/><path class="cls-20" d="M217.92,210.94l-1,1-.21-.21,1-1Z"/><path class="cls-11" d="M133.89,288h-3.76l-3.28,0H116.16a20.58,20.58,0,0,0-4.22-.92q-26.59-.1-53.19,0a16.65,16.65,0,0,0-3.71.88c-.33-.69-.95-1.38-.95-2.06,0-11.9.18-23.8.29-35.7.35,1.3.71,2.59.9,3.28L60,244.05c1.18,2.47,1.8,4.72,2.32,4.7,4.44-.2,3.59,3.5,4.6,5.8.47,1.08.91,2.18,1.73,4.15,3-5.61,5.83-3.78,8.55-.61,2.36-2,4.38-3.86,6.59-5.45.43-.31,1.62.41,2.45.66.3,1.09.61,2.18.91,3.27L88,258c-1,5.21-4.93,2-7.24,2.5-1.38,2-2.6,3.79-3.81,5.57h0l-1.51-4.81-1.23.35c.26,1.49.53,3,.8,4.49l-1.54,2.57c6.6,3.52,13.06,2,19.51.36a9.43,9.43,0,0,0,1.91,1.48c3.26,1.36,6.56,2.6,9.85,3.89l-.08,1.84,4.75-3.86,6.6,9.94c.8-2.75,2-4.81,1.82-6.73-.36-3.49,1.62-4.55,4.16-5.5H125l5.91-.72-.22-2.08c-2,.1-3.9.31-5.84.27-1.61,0-3.21-.37-4.81-.57l-3.8-6.26L118,258h1l1-1,4.62-6.52.76,3.8,1.61-2,1.28.23c.18,3.93.36,7.85.48,10.27l4.35,3.47c-.66,2.23.26,3.37,2.5,3.45,3.25.11,7.16,1.75,8.27-3.39l1.59-5c5.5,1,5.16,5.76,6.77,9.13v7l-3.08,4.35,1.9,3.29c0,.93,0,1.87-.08,2.81l-15.91.09ZM82.53,280.6,82.21,279l-6,.95.42,2ZM74,280.27l-.05-.93H66.45l.08,1.32Z"/><path class="cls-8" d="M54.38,250.17c-.11,11.89-.24,23.79-.29,35.69,0,.68.62,1.37.95,2.06.3.38.61.75.91,1.12l.06,1c-1-1.3-2.53-2.47-2.95-3.94-.55-2-.24-4.15-.3-6.24q0-15.94.07-31.88l0-87q0-35.49,0-71L53,13l1.19,1c-.06.66-.18,1.32-.18,2q0,71.66,0,143.32a20.27,20.27,0,0,0,.75,3.8c0,.65,0,1.3,0,1.94q0,7.47,0,14.94v7.12c0,2.63,0,5.26,0,7.89l.23,1v3l-.31,12q-.2,4.66-.4,9.31v1.51l0,3.44c0,.89,0,1.78-.05,2.68q0,4.65-.08,9.3l.24,10.67Z"/><path class="cls-2" d="M199.11,275.9q.45,5.63.89,11.23l-8.95.75c-.6-3.29-1.19-6.58-1.79-9.87l-1.76.19c-.14,1.79-.88,3.83-.29,5.33,1.06,2.69-.5,3.42-2.2,4.38h-2l-6-.89h0c-.23-2.05-.47-4.09-.69-6.06l5.79-1.78-6.16-1.86L182,275l3.41-.65,2.57-.43,1.47-.56L191,273Z"/><path class="cls-11" d="M175.93,277.31l6.16,1.86L176.3,281c.22,2,.46,4,.69,6.06-4.56-.58-9.11-1.28-13.69-1.6-.72-.05-1.57,1.63-2.36,2.51H157l-3.14-3c1.16-.1,2.33-.3,3.49-.3,3.1,0,2.16-1.49,1.2-3,3-.62,5.43-4.28,9-1.57,2.63,2,3.56,0,4.39-2.06Z"/><path class="cls-10" d="M56,289c-.3-.37-.61-.74-.91-1.12a16.65,16.65,0,0,1,3.71-.88q26.6-.07,53.19,0a20.58,20.58,0,0,1,4.22.92Z"/><path class="cls-11" d="M185,287.91c1.7-1,3.26-1.69,2.2-4.38-.59-1.5.15-3.54.29-5.33l1.76-.19c.6,3.29,1.19,6.58,1.79,9.87Z"/><path class="cls-12" d="M127.13,291.14,120,291l.06-1,34.08,0c-2.87.36-5.74,1-8.61,1C139.4,291.24,133.27,291.13,127.13,291.14Z"/><path class="cls-7" d="M160.94,287.92c.79-.88,1.64-2.56,2.36-2.51,4.58.32,9.13,1,13.69,1.6h0c0,.29,0,.57,0,.86Z"/><path class="cls-7" d="M153.9,284.94l3.14,3-6.08,0c0-.94.06-1.88.08-2.81Z"/><path class="cls-10" d="M208.32,289.92h0Z"/><path class="cls-10" d="M117.84,288h0Z"/><path class="cls-11" d="M177,287.87c0-.29,0-.57,0-.86l6,.89Z"/><path class="cls-10" d="M215.28,289.9l-4.56,0Z"/><path class="cls-10" d="M126.85,288l3.28,0Z"/><path class="cls-10" d="M133.89,288h0Z"/><path class="cls-10" d="M188.23,289.93h0Z"/><path class="cls-9" d="M241.85,10.16l1.28,0Z"/><path class="cls-9" d="M238.82,10.19l1.34,0Z"/><path class="cls-9" d="M231.81,10.21l1.34-.06Z"/><path class="cls-20" d="M245,109l3,2c.26,0,.53.1.79.13,0,2.6-.05,5.19-.08,7.78-.15.74-.31,1.47-.46,2.2q-.13,14.46-.28,28.91c-.59-3.25-1.17-6.51-1.91-10.57-1.69,1.18-2.85,2.68-4,2.65a23.54,23.54,0,0,1-7-1.52c-1.11-.39-2-1.59-2.91-2.41a19.65,19.65,0,0,0-2.49,3.33c-1.05,2.19-1.82,4.51-2.5,6.25l2.61,10.58-7.26-12.49-5.72-8.66,5-3.13c1,.2,2.3.9,2.94.51a26.7,26.7,0,0,0,4-3.55c3.21-2.93,6.64-5.68,9.49-8.93.78-.91-.19-3.34-.35-5.07l.1-1.82L241,112a4.69,4.69,0,0,0,.89.31l1.3,2,1.11-1.58Z"/><path class="cls-19" d="M229.89,158.31l-2.61-10.58c.68-1.74,1.45-4.06,2.5-6.25a19.65,19.65,0,0,1,2.49-3.33c1,.82,1.8,2,2.91,2.41a23.54,23.54,0,0,0,7,1.52c1.12,0,2.28-1.47,4-2.65.74,4.06,1.32,7.32,1.91,10.57l0,7-9.56,2.76c6.06,7.13,6.6,14.12,3.32,21.52l-5.6-5.27Q233.07,167.17,229.89,158.31Z"/><path class="cls-19" d="M248,166l.09-7,.63,4.64c-.14.77-.29,1.53-.43,2.29Z"/><path class="cls-4" d="M248.22,185c0-1,0-1.93,0-2.9C248.24,183,248.23,184,248.22,185Z"/><path class="cls-9" d="M248.32,121.09c.15-.73.31-1.46.46-2.2C248.63,119.63,248.47,120.36,248.32,121.09Z"/><path class="cls-9" d="M248.86,111.11c-.26,0-.53-.08-.79-.13l.73-2Z"/><path class="cls-4" d="M248.33,166c.14-.76.29-1.52.43-2.29C248.62,164.44,248.47,165.21,248.33,166Z"/><path class="cls-4" d="M248.3,180l-.06-1.91Z"/><path class="cls-4" d="M248.5,168.92a.77.77,0,0,1-.05-.86,4,4,0,0,1,.21.58C248.68,168.72,248.56,168.83,248.5,168.92Z"/><path class="cls-4" d="M248.29,175c.18-.41.35-.83.53-1.24C248.64,174.13,248.47,174.55,248.29,175Z"/><path class="cls-19" d="M248.13,159.11c0-.47,0-1,0-1.42C248.13,158.16,248.13,158.64,248.13,159.11Z"/><path class="cls-5" d="M56,14H65l26,.22-4,3a1.37,1.37,0,0,0-.75-.05L83,17.94l-.92,2-1.08,1-3-.79L76.7,18.22,77,20.46c-1,5.28,1.67,7.22,7.83,6.81-4.95,8.65,3.82,17.84-3.42,25.67,2.13,3,10.38,2,5.6,9.06-.79-.48-2.08-1.55-2.3-1.36-3.69,3.13-4.54-.11-6.26-2.36-1.22-1.6-3.28-2.56-6.13-4.65,1.08,8.17-3.17,8.22-7.9,7.58-1.66,5.11,7,14.43-6.07,14.34C57.16,81.34,62.44,80.29,65,82c-3.35,2.76-6.47,3.45-9-1,0-16.27.05-32.54,0-48.8A36.47,36.47,0,0,0,55.23,27l0-12.87Z"/><path class="cls-6" d="M55.26,14.08l0,12.87V87c0,2.82-.12,5.64-.13,8.45q-.15,33.84-.28,67.66a20.27,20.27,0,0,1-.75-3.8Q54,87.6,54,15.94c0-.67.12-1.33.18-2Z"/><path class="cls-21" d="M53,13l-.15,77a8.27,8.27,0,0,0-.86,0q0-36.47,0-72.94A18.88,18.88,0,0,1,53,13Z"/><path class="cls-17" d="M52,90.05a8.27,8.27,0,0,1,.86,0q0,35.5,0,71L52,161c0-3-.06-6-.08-9L51.88,110Q51.94,100,52,90.05Z"/><path class="cls-10" d="M91,14.25,65,14c1.59-.69,3.18-1.94,4.78-2,9.7-.17,19.4-.07,29.1-.06l.27,2.9Z"/><path class="cls-19" d="M159,15h5c.33,0,.66,0,1,0l.95,0c0-.32,0-.65,0-1l7-1,2,3a19.28,19.28,0,0,1,1.62,3.45c.78,3.2-1.07,2.18-2.63,1.5l-.07-1-4.33-.48L170,23l-3-3c0-.76-.1-1.51-.19-3L165,19c-2.38-3.27-3.71-1.31-5,1L158,17.08C158.3,16.38,158.65,15.69,159,15Z"/><path class="cls-19" d="M177.08,14l11,.83,2,.17,0,0c-.66.67-1.31,1.91-2,1.92-3.55,0-3.32,1.72-2.09,4.07-5.48,1.78-7.37-1.89-9-5.95Zm4.3,4.43-.75,1.13c.29.14.66.46.84.38.34-.16.56-.55.84-.85Z"/><path class="cls-6" d="M190.08,15l-2-.17.84-2.95,1.12.12C190.09,13,190.09,14,190.08,15Z"/><path class="cls-16" d="M175,16l-2-3a2.75,2.75,0,0,1,1,0c.67.68,1.34,1.35,2,2Z"/><path class="cls-7" d="M176,15.08c-.66-.68-1.33-1.35-2-2l2.12.08.88.81.1,0c0,.37-.07.73-.11,1.09A5.46,5.46,0,0,0,176,15.08Z"/><path class="cls-19" d="M177,13.94l-.88-.81Z"/><path class="cls-13" d="M176,15.08a5.46,5.46,0,0,1,1,0c1.64,4.06,3.53,7.73,9,5.95,5.91,1.92,7.59.86,8-5.06h.93l4.06.12-3,3.56L200,23h0l-9.22,1.91c0,.07-.4,1.58-.78,3.09h-3V26l.31-1.53L186,26h-2l-.89-1.53c-.34.45-1.08,1.13-1,1.3A16.29,16.29,0,0,0,184,28h3c-2.72,2.92-4.83,6-2,10-1.54,1.71-2.79,3.92-4.69,5C175.24,46,173.42,50.5,173,56H157V53l1-5,3,.85c-.67-4.75-1.32-9.3-2-13.85,1.46-.61,2.89-2.73,4.5-.16,0,0,1-.56,1.5-.86l1.94,0,1.06,0,1,0,7.86.93L178,34l2.91,0,2.47-5.41-3.51,1.52h-3.74L173,28h5c.9-.74,2.22-1.33,2.54-2.27.2-.58-1.13-1.68-1.77-2.55L177,25h-2c-2.57-4.41-1.58,1.93-3,1,0-.33,0-.66,0-1l-2-2-.39-3.5,4.33.48-1.55,1.15L174,21c1.56.68,3.41,1.7,2.63-1.5A19.28,19.28,0,0,0,175,16Z"/><path class="cls-10" d="M190.08,15c0-1,0-2,0-3L193,11l3,2.13-2,1.4-4,.49Z"/><path class="cls-9" d="M194,14.52l2-1.4c-.36,1-.73,1.89-1.09,2.83H194C194,15.47,194,15,194,14.52Z"/><path class="cls-22" d="M91,14.25l8.18.65,1.92.42L104,17l8,2c.36,1.4.73,2.79,1.1,4.19L113,25l-4-1-2.31-2.9-2.23,3.74L109,24l4,2,7.1,1.81c0,1.65,0,3.31,0,5l-2.1.22c-1.3-.17-3.15-1-3.79-.39-2.84,2.54-4,5.74-2.13,9.47l-.22,3.85c-1.76,1.9-1.13,3.18,1.06,4,.7,1.37,1.07,3.41,2.19,4,3.52,1.81,4.6,4.42,3.86,8.08l-7.14,1.64L113,62.34,107.68,59l-2.57-5c.28-.45.56-.91.83-1.37L104,51l-5.2,4H98c-.32-1.83,1.37-5.18-3-4l1.19-6.18-1.46-.23-2,3.49-1.34-.51c1-2.85,1.65-6,3.19-8.49s1.87-3.89-.64-5.81c-2.34-1.81-4-4-1-7,.53-.54-.3-3.12-1.21-4.15s-2.54-.93-3.87-1.35l-1-3.46Z"/><path class="cls-10" d="M124.09,9.78l15.89.38L141.11,12c-.05,1-.09,2-.13,3h-1.92l-.36-3.09L137,14l-5,1c-1.17-.57-2.38-1.68-3.51-1.61-4.85.31-9.68,1-14.52,1.5l-3-.07-4-1.8-1-2v0c4-.34,8-.71,12.08-1C120.1,9.88,122.1,9.86,124.09,9.78Z"/><path class="cls-13" d="M104,17l-3-1.67.06-1.22,1.79.69,2.14.31a8.42,8.42,0,0,0,0,.87Z"/><path class="cls-6" d="M105,15.1l-2.14-.31c0-1.23-.05-2.47-.08-3.7l2.32-.07.12,2C105.19,13.71,105.12,14.4,105,15.1Z"/><path class="cls-10" d="M102.82,11.09c0,1.23.05,2.47.08,3.7l-1.79-.69Z"/><path class="cls-10" d="M105.26,13l-.12-2a4.43,4.43,0,0,1,.89,0v0Z"/><path class="cls-3" d="M159,15c-.34.7-.69,1.39-1,2.09l-1,.85-9,.22a1.51,1.51,0,0,0-.94,0L145.12,18,143,17l5.88-1.14,1-1H152l2.3.12Z"/><path class="cls-10" d="M141,10.05l8.88.16c0,.25.05.5.07.75v0l-1,1-3,3,0,0-.18-3.16-.6,0L144.92,15l-2.09,0c-.29-1-.59-2.07-.89-3.1Z"/><path class="cls-4" d="M154.29,15.05l-2.3-.12.09-3.89C152.82,12.38,153.56,13.71,154.29,15.05Z"/><path class="cls-7" d="M152.08,11,152,14.93h-2.06c0-1,0-2,.07-2.95l0-1v0Z"/><path class="cls-16" d="M163,15h0Z"/><path class="cls-16" d="M164,15h-1l.51-1.31Z"/><path class="cls-16" d="M166,15,165,15Z"/><path class="cls-12" d="M52,161l.85,0q0,43.5,0,87h-.78q-.09-23.52-.17-47.06Q51.94,181,52,161Z"/><path class="cls-23" d="M52.05,248h.78q0,15.94-.07,31.88L52,259C52,255.34,52,251.67,52.05,248Z"/><path class="cls-7" d="M141,10.05l.93,1.77a7.63,7.63,0,0,1-.83.17L140,10.16Z"/><path class="cls-3" d="M199.92,258l-1.08,4-1.72,3.79L193.56,262l-.51,1.5L185,262h0l-2.34-4.17-2.29,9.63-2.88-1-1.34,5.94L175,273q-.6-5.42-1.19-10.83,4.09-6.54,8.18-13.1c1-.27,2.77-.4,2.84-.82.67-3.93,3-4.29,6.13-3.16l3,4c-1.8,3.17-3,6.34,0,9.69C196,258.65,197.53,254.05,199.92,258Z"/><path class="cls-20" d="M191,245c-3.16-1.13-5.46-.77-6.13,3.16-.07.42-1.85.55-2.84.82l-1.92-4c4.42-8.31,8.28-16.76,7.43-26.57-.1-1.07.57-2.2.89-3.3l.67-.86,1.11-1.09,0,0,1-2.33,1.29-1.85,3.49-1.11c1.5,2.37,2.66,4,3.55,5.71a32.86,32.86,0,0,1,1.56,4.34c-.38,1-.75,2-1.13,3l-10.79-2.28c-.21,3.15-1.06,5.66-.35,7.59,1.46,4,5,7.47-.15,12.81l6.85-1.7C195.78,241.26,195.78,241.26,191,245Z"/><path class="cls-16" d="M191,245c4.79-3.78,4.79-3.78,4.56-7.65l-6.85,1.7c5.18-5.34,1.61-8.82.15-12.81-.71-1.93.14-4.44.35-7.59L200,221l-.09,12.08c-.56,6.8-1.11,13.6-1.63,19.91-1.43-1.34-2.85-2.65-4.26-4Z"/><path class="cls-2" d="M211.86,243.89c1,.74,2.62,1.25,3.07,2.26,1.57,3.5,2.74,7.17,4.06,10.78l-.07.06-2,1.71L214,260l-1.94,1c-.65,1.35-1.29,2.7-1.93,4.05-2.41,2-3.29.34-3.59-1.68A23.72,23.72,0,0,1,211.86,243.89Z"/><path class="cls-2" d="M176.15,272.37l1.34-5.94,2.88,1,2.29-9.63L185,262l-1.92,4,1.65.36L185,262l8.05,1.46.51-1.5,3.56,3.84,1.72-3.79c0,1.65,0,3.3.07,4.94l-11.22,3.67a1.09,1.09,0,0,0-.69.38l-3.18.63-1.8.24Z"/><path class="cls-24" d="M201.12,218a32.86,32.86,0,0,0-1.56-4.34c-.89-1.74-2.05-3.34-3.55-5.71L192.52,209l-.48-3.11c.12-.09.36-.23.34-.26A5.51,5.51,0,0,0,192,205l2.12-.93c1.51.64,3,1.25,4.54,2,1.15.55,2.25,1.22,3.38,1.83-.4,4.35,1,6.32,5.77,5,2.58-.73,5.4-.6,8.11-.85l-.92,1a12.69,12.69,0,0,1-2.94,1.19c-3.06.4-6.15.6-9.64.92l1.25,3.73Z"/><path class="cls-20" d="M194,249c1.41,1.31,2.83,2.62,4.26,4,.52-6.31,1.07-13.11,1.63-19.91q0,12.47,0,24.94c-2.39-3.94-4,.66-5.88.7C191,255.34,192.21,252.17,194,249Z"/><path class="cls-8" d="M187.69,270.61,198.91,267c.67,3,1.35,6.06,2,9.09l-1.82-.13L191,273c-.33-.36-.66-.73-1-1.1Z"/><path class="cls-9" d="M212.05,261l1.94-1Z"/><path class="cls-9" d="M216.92,258.7l2-1.71Z"/><path class="cls-4" d="M239.89,244H241l-1,1Z"/><path class="cls-2" d="M217.3,278.22v-1.47h.4v1.47Z"/><path class="cls-25" d="M216.89,70l-8.73,3.21c.16-1.82.32-3.65.53-5.93-2.85-.89-4.83-2.91-3.15-7.12.26-.66-1.71-2.21-2.65-3.35a.86.86,0,0,0,0-.57L201.24,52c-2.1-4.25-2.26.32-3.33.73L195.58,54l-1.63.14L193.06,56l0,2.12c-.76,1.87-1.51,3.74-2.27,5.62l-5-2.76c2.47-4.94,4.5-10.16,7.52-14.73s8.07-3.65,12.72-2.59c.52.39,1,1.09,1.57,1.11,6.24.21,9.74,3.35,10.67,9.53.1.68,1,1.23,1.52,1.84l-.08.08C222.69,63,222.33,64.73,216.89,70Z"/><path class="cls-22" d="M163,78l6,2-1,2-2,1.27L159,87c-3.68,0-7.48,1.32-10.93-1L143,85.2,141.93,85c-3.58-1.79-7.24-3.46-10.73-5.42A28.1,28.1,0,0,1,127,76l3.44-2.93-.16-1.85c2.9,1,6,1.73,8.68,3.2,6.64,3.69,10.75,1.49,11.06-6.12.13-3.1.63-6.19,1-9.28h5.06L158,62h-2c-.33,1.67-.67,3.33-1,5v3c1,1.33,2,2.66,3,4C158.92,76.27,159.6,78.83,163,78Z"/><path class="cls-19" d="M219.85,56.16c-.53-.61-1.42-1.16-1.52-1.84-.93-6.18-4.43-9.32-10.67-9.53-.54,0-1-.72-1.57-1.11l9.71-1.39c.47-2.25,1.17-5.45-2.77-7.44l10.9.1c-.47,5,4.62,4.91,7.22,7.09l-.08,1.7-10.2,1.84C220.53,49.08,220.19,52.62,219.85,56.16Z"/><path class="cls-19" d="M163,78c-3.4.82-4.08-1.74-5-4-1-1.34-2-2.67-3-4,0-1,0-2,0-3,4-.94.52-3.36,1-5h2l4,1c-.19,1.17-.39,2.34-.49,3H171c1.85,4.86-3.34,5.9-4.92,8.89C165.42,76.12,164,77,163,78Z"/><path class="cls-19" d="M185.85,61l5,2.76L194,72.05a2.26,2.26,0,0,1-.17.81c-1,5.18-4.38,7.87-9.27,7.51l-7.31-1L177,79l5.32-1.62c.84-2.6,2.1-5.44,2.61-8.41.36-2.06-.4-4.28-.44-6.44C184.46,62,185.37,61.51,185.85,61Z"/><path class="cls-19" d="M187,28h3l7,1,0,2,0,1-2.22.21v.59L197,33l-1.43,2.44c-4.11-3.07-4,1-4.89,2.56H185c-2.84-4-.73-7.08,2-10Z"/><path class="cls-2" d="M156.05,59H151l-4.22-.51L149,55l.07,1,.94,0,7,0h16l4.93.65L178,58l-6,2Z"/><path class="cls-17" d="M156.05,59,172,60c0,1,0,2.07,0,3.11L162,63l-4-1Z"/><path class="cls-2" d="M162,63l9.94,0L171,66h-9.44C161.65,65.37,161.85,64.2,162,63Z"/><path class="cls-19" d="M168,82l1-2,8-1,.28.35Z"/><path class="cls-17" d="M197,33l-2.22-.2v-.59L197,32Z"/><path class="cls-13" d="M200,23l.42.23L200,23Z"/><path class="cls-26" d="M224.76,91.24l1.45,1.58q1.35,1.67,2.72,3.32l-5.85,0c-2.13-.16-4.27-.34-6.4-.47-1.73-.11-4.51.48-5-.35-2.22-3.61-3.9-1.28-5.8,0l-7.56-.15L197,95c.22-1.42.43-2.84.65-4.23-4.83-3.83-5.55-3.69-6.58,1.24l-7.66-.4c2.43-1.82,3.81-3.37,5.54-4.06,4.28-1.72,8.72-3,13.09-4.52h1l1,0H206l.54,2.43,4.65-1.55-.11-.07,1.92.29C218,84.73,222.45,86.17,224.76,91.24Z"/><path class="cls-4" d="M202.89,56.81c.94,1.14,2.91,2.69,2.65,3.35-1.68,4.21.3,6.23,3.15,7.12-.21,2.28-.37,4.11-.53,5.93-.29,1-.58,2-.86,3l-2.28-2-2.31-.92V62.65l-2.56-2.44Z"/><path class="cls-27" d="M205,74.12l2.28,2,3.86,7.73-4.65,1.55L206,83l0,0c.13-.09.38-.22.36-.24a4.73,4.73,0,0,0-.36-.66Z"/><path class="cls-27" d="M213,84.11l-1.92-.29Z"/><path class="cls-7" d="M238,102l3,1-1.17,3L235,104.22,233.34,102Z"/><path class="cls-12" d="M239.81,106l1.17-3,3.91,5.25-2.08-.62Z"/><path class="cls-8" d="M242.81,107.65l2.08.62a1.15,1.15,0,0,0,.15.73l-.78,3.73L242,111.12c.33-.76.67-1.53,1-2.3Z"/><path class="cls-18" d="M232.47,97.14a6.2,6.2,0,0,0,.5.86,3.59,3.59,0,0,0-.26.92c-.1.39-.19.79-.29,1.19s0,1.09-.08,1.64l-.39,1.43a3.69,3.69,0,0,1-.87-.1l0-6.92a.78.78,0,0,1,.83.06C232.08,96.52,232.27,96.83,232.47,97.14Z"/><path class="cls-4" d="M232.34,101.75c0-.55,0-1.1.08-1.65l.32,0h.33L238,102l-4.61,0Z"/><path class="cls-8" d="M233.07,100.07h-.33l-.32,0c.1-.39.19-.79.29-1.18Z"/><path class="cls-15" d="M231.05,96.16l0,6.91,0,0c-1.09.53-3.82-1.42-3,2l-.15.84-4.54,1.19H219c3-1.72.07-3.39,0-5.08-.3-3.14,2.55-4.07,4.12-5.89l5.85,0Z"/><path class="cls-8" d="M232.47,97.14c-.2-.31-.39-.62-.59-.92C232.08,96.52,232.27,96.83,232.47,97.14Z"/><path class="cls-28" d="M194.12,204.07,192,205c0,.31,0,.62,0,.93l.48,3.11-1.29,1.85-1,2.33v0L189,213q.25-2.94.5-5.89l-.59,1.25-5.92-3.4a55.93,55.93,0,0,0,5.8-.17c.47-.06.82-1.16,1.23-1.79l-2-4-2-4,1-1h6.09c.22-4.56-1.15-9.65,4.91-11.34.44-.12.64-1.09.95-1.67h2q-2,5-4,10l-.21.44L197,191c2.64,1.54,5.34,3,7.89,4.64,2.74,1.79,5.34,3.78,8,5.69l1-1.15-.81-3c5.36-.52,8-3.72,6.89-8.24a8,8,0,0,1,.09-1c4-.69,5.59,1,4.94,5l1.06,1.94L228,198l2,1,1.6-.16a1.07,1.07,0,0,0,.6.19L231,202.15l-5.26,2.54-.11-.07c-3.21,1.3-8.31.18-7.88,6.15l-1,1a3.45,3.45,0,0,0-.83.25c-2.71.25-5.53.12-8.11.85-4.78,1.34-6.17-.63-5.77-5l10.16-2.49-.35-1.36H199l-3,0Zm6.11-4.27.83-1.62-3.2-1.12-.51,1.19Z"/><path class="cls-27" d="M229.89,158.31q3.18,8.85,6.34,17.69c.22,1.77.08,3.69.72,5.29,1.48,3.67,3.34,7.19,5.05,10.78L237,196l-4.08-4-.76,0c0-.44-.08-.89-.13-1.33l-4-3.52c-.92-2.42-3.31-6-2.49-7.07,3.73-4.71,0-6.53-2.52-9,0-.33,0-.66,0-1,2.34-3.31,1.65-6.4-2-9,0-6.45-4-11.86-9-12-2.29-3.76,1.56-3.37,2.9-3.55,2.51-.35,5.15.2,7.74.37Z"/><path class="cls-6" d="M242,192.07c-1.71-3.59-3.57-7.11-5.05-10.78-.64-1.6-.5-3.52-.72-5.29l5.6,5.27a36.34,36.34,0,0,1,1.62,5.17C243.77,188.43,245.74,191.05,242,192.07Z"/><path class="cls-8" d="M232,190.61c.05.44.09.89.13,1.33v2.27l.62,0,.14-2.26,4.08,4-4.82,3a1.07,1.07,0,0,1-.6-.19c-.18-.94-.37-1.88-.55-2.81l-1.93-1.11h0Z"/><path class="cls-20" d="M225.73,204.69l5.26-2.54Z"/><path class="cls-20" d="M152.22,270.48c-1.61-3.37-1.27-8.09-6.77-9.13-.52,1.63-1,3.3-1.59,5l-10.77-.05-4.35-3.47c-.12-2.42-.3-6.34-.48-10.27l-1.28-.23-1.61,2-.76-3.8L120,257l-1,1h-1l-1.31-2.39c-.7.78-1.23,1.92-1.85,2-4.65.4-9.33.45-14,.94-1,.11-1.92,1.51-2.88,2.32l-3,0-.07-3c0-.65,0-1.3,0-1.94l1-4.87c.58,0,1.43-.29,1.69,0,1.44,1.51,2.74,3.15,4,4.65V243.16L99,242H97l-6.45-3.65-1.39,1.23c-.08-1.58-.16-3.15-.23-4.73,1.87-1.11,5.83-.57,3.78-4.78l6.08,9.87c-.31-2-.53-3.42-.76-4.85a4.89,4.89,0,0,1,.54,0h6.9l.81-5.05,4.72-1.94a37.81,37.81,0,0,0,.07,5.22c0,.27,1.7.33,2.61.49L117,234l1.24,2.8L120,234l4,2c-1.36,3.22-2.37,6.19,3.07,6.11.63,0,1.28,1.12,1.93,1.72-.38,1-1.31,2.25-1,2.78a3.79,3.79,0,0,0,2.82,1.19c4,.13,8.06.06,12.1.06,0,2.23.5,3.65,3.07,2.12.67.38,1.34.8,2,1.13,1.21.59,2.44,1.12,3.67,1.68L153,249l2,0,8,4c.41,2.71.82,5.43,1.3,8.64l-4.54-1.49-.85.91,3.44,4.11c-1.28,1.36-2.34,3.18-3.91,4C156.6,270.06,154.31,270.08,152.22,270.48Z"/><path class="cls-14" d="M152.22,270.48c2.09-.4,4.38-.42,6.22-1.33,1.57-.79,2.63-2.61,3.91-4L167.81,251l2.94-25.94L171,224c.35-1.33.7-2.67,1.06-4l1.14-2c.12-.07.34-.13.33-.19a3.08,3.08,0,0,0-.13-.66l.34-2.32.11-1.13-.05-1.29a1.86,1.86,0,0,1,.36-.33,1.12,1.12,0,0,1,.45-.07c.3,1.85.59,3.7,1.07,6.77,1.5-6.64,4.59-2,7-2.08l-.68-2.74,6.49,1.23c-.32,1.1-1,2.23-.89,3.3.85,9.81-3,18.26-7.43,26.57-2,4.09-4.24,8.12-6,12.31-.59,1.38-.17,3.2-.22,4.81q.6,5.42,1.19,10.83l-3,5c-.83,2-1.76,4-4.39,2.06-3.62-2.71-6.06.95-9,1.57l-9.45.18,3.08-4.35Z"/><path class="cls-7" d="M99,242l2.62,1.16v12.57c-1.26-1.5-2.56-3.14-4-4.65-.26-.28-1.11,0-1.69,0l-1,1-.93-1c-2.58-1.95.6-2.06,1-3.06l1.42-2.66L93.85,245l-.51,0-3.55,0c-.62.61-1.68,1.15-1.79,1.84a25.82,25.82,0,0,0,0,4.65l-.94.51-1,1.14.12.12c-.83-.25-2-1-2.45-.66-2.21,1.59-4.23,3.45-6.59,5.45-2.72-3.17-5.51-5-8.55.61-.82-2-1.26-3.07-1.73-4.15-1-2.3-.16-6-4.6-5.8-.52,0-1.14-2.23-2.32-4.7l-4.74,9.39c-.19-.69-.55-2-.9-3.28v-2.32l.54-11c0-2.63,0-5.25,0-7.88,1,1.41,2.35,2.69,2.94,4.26a40.63,40.63,0,0,1,1.38,6.47c2-2.67,7.86.93,6.72-4.73h0l2-2,6.14-4.95c-2.35,5,3.93,2.79,4.84,5.89H73.35l.18,1.91c2.73-.48,6.44-.08,7.88-1.7,1.21-1.38.41-5.32-2.45-7l7-3.1c-1.45,2.57.1,3.95,2.06,5.17C87,231.1,85.88,233,84.7,235.05l4.24-.2.23,4.73,1.39-1.23L97,242Zm-17.71,3.37-.68-.8c-.8.82-1.6,1.63-2.37,2.48a7,7,0,0,0,.59.64Zm-16,2.15c.29-.5.6-.81.54-1s-.46-.35-.72-.51Z"/><path class="cls-7" d="M94.92,257.9c0,1,0,2,.07,3l-2.61.72.11.8h21.06l0-1.54H98c1-.81,1.85-2.21,2.88-2.32,4.63-.49,9.31-.54,14-.94.62,0,1.15-1.19,1.85-2L118,258l-1.81,2.71L120,267l-3.62,2.77,5.63.33c-2.54.95-4.52,2-4.16,5.5.19,1.92-1,4-1.82,6.73l-6.6-9.94-4.75,3.86.08-1.84c-3.29-1.29-6.59-2.53-9.85-3.89A9.43,9.43,0,0,1,93,269l-.07-1,.54-1.48-1.48.51-15-1c1.21-1.78,2.43-3.55,3.81-5.57C83.07,260,87,263.2,88,258Zm2.54,6.76-1.15-.75c-.36.71-.75,1.41-1,2.14,0,.07.66.53.68.5C96.48,265.94,97,265.3,97.46,264.66Z"/><path class="cls-9" d="M92.93,268l.07,1c-6.45,1.65-12.91,3.16-19.51-.36L75,266.09l1.94,0h0l15,1Z"/><path class="cls-10" d="M94.92,257.9,88,258l-.83-1.42c.9-.57,2.62-1.25,2.56-1.68-.16-1.18-1.08-2.25-1.7-3.36a25.82,25.82,0,0,1,0-4.65c.11-.69,1.17-1.23,1.8-1.84l4.15,2.9,1,.07c-.38,1-3.56,1.11-1,3.06L92,255l3,.93,0,0Z"/><path class="cls-4" d="M133.09,266.26l10.77.05c-1.11,5.15-5,3.51-8.27,3.4C133.35,269.63,132.43,268.49,133.09,266.26Z"/><path class="cls-9" d="M122,270.08l-5.63-.33L120,267c1.6.2,3.2.53,4.81.57,1.94,0,3.89-.17,5.84-.27l.22,2.08-5.91.72a3.62,3.62,0,0,0-.93,0Z"/><path class="cls-9" d="M149.14,281.79l9.45-.18c1,1.54,1.9,3.05-1.2,3-1.16,0-2.33.2-3.49.3l-2.86.14C150.41,284,149.78,282.88,149.14,281.79Z"/><path class="cls-2" d="M82.53,280.6l-5.94,1.31-.42-2,6-.95Z"/><path class="cls-29" d="M88,251.53c.62,1.11,1.54,2.18,1.7,3.36.06.43-1.66,1.11-2.56,1.68-.3-1.09-.61-2.18-.91-3.27l-.12-.13c.31-.38.63-.75,1-1.13Z"/><path class="cls-2" d="M74,280.27l-7.51.39-.08-1.32H74Z"/><path class="cls-7" d="M77,266.06l-1.94,0c-.27-1.5-.54-3-.8-4.49l1.23-.35Z"/><path class="cls-7" d="M119,258l1-1Z"/><path class="cls-7" d="M124,270.08a3.62,3.62,0,0,1,.93,0Z"/><path class="cls-13" d="M54.82,163.06q.13-33.83.28-67.66c0-2.81.09-5.63.13-8.45a3.5,3.5,0,0,0,.63-.12Q55.93,99,56,111.26c0,2.11-.22,4.43,3.1,2.71L62,119.12,63,120l1.05.33a19.22,19.22,0,0,0,3.92.19,42.09,42.09,0,0,0,5-1.39,29.26,29.26,0,0,0-2.12,5.15c-1.15,5.45-5.06,7.92-9.79,9.65L60.83,135,56,133.5c0,12,0,23.6,0,35.23a31.6,31.6,0,0,1-.87,5.22c-.09-3-.17-6-.26-8.95Z"/><path class="cls-11" d="M66,235c1.14,5.66-4.77,2.06-6.72,4.73a40.63,40.63,0,0,0-1.38-6.47C57.32,231.7,56,230.42,55,229l-.75-1.14c0-.9,0-1.79.05-2.68A3.29,3.29,0,0,1,55,225h1c4.93,1.11,3.5-3.38,4.62-5.6,4.18.5,3.55,3.32,3.12,5.88-.51,3.06-1.21,6.08-1.89,9.43Z"/><path class="cls-17" d="M55,199v-3L59,197c1.42,6.91,4.62.95,7,1l3-1,1.91,2.22L65,205l-8-1.92Z"/><path class="cls-13" d="M59,197,55,196c-.07-.34-.15-.68-.23-1,0-2.63,0-5.26,0-7.89,0-1,0-2.06,0-3.09,0-.64,0-1.29,0-1.93s0-1.4,0-2.1c.1-1.29.2-2.59.29-3.89,1.32,1.79,2.65,3.57,3.22,4.34-1.09,3.51-1.9,6.13-2.87,9.27l5.63.4Z"/><path class="cls-12" d="M55,199l2.1,4.07q.5,5.47,1,10.95-1,5.51-2,11H55c-.27-1.07-.53-2.15-.8-3.23,0-.5,0-1,0-1.51.13-3.1.27-6.21.4-9.31Z"/><path class="cls-6" d="M55.08,176.05c-.09,1.3-.19,2.6-.29,3.89q0-7.47,0-14.94c.09,3,.17,6,.26,8.95C55.09,174.65,55.09,175.35,55.08,176.05Z"/><path class="cls-11" d="M54.92,236.89l-.54,11-.24-10.67C54.4,237.07,54.66,237,54.92,236.89Z"/><path class="cls-6" d="M54.64,210.93c-.13,3.1-.27,6.21-.4,9.31Q54.45,215.59,54.64,210.93Z"/><path class="cls-6" d="M54.92,236.89c-.26.08-.52.18-.78.28q0-4.65.08-9.3L55,229C55,231.64,54.94,234.26,54.92,236.89Z"/><path class="cls-6" d="M54.76,187.06c0,2.63,0,5.26,0,7.89C54.73,192.32,54.75,189.69,54.76,187.06Z"/><path class="cls-6" d="M54.23,221.75c.27,1.08.53,2.16.8,3.23a3.29,3.29,0,0,0-.76.21C54.26,224,54.25,222.9,54.23,221.75Z"/><path class="cls-6" d="M54.78,182c0,.64,0,1.29,0,1.93C54.77,183.33,54.78,182.68,54.78,182Z"/><path class="cls-18" d="M172,278l3-5,1.12-.58,5.87-.5,1.8-.24L187,271l3.05.91c.32.37.65.74,1,1.1l-1.59.32-1.46.56-2.58.43L182,275l-6.07,2.34Z"/><path class="cls-15" d="M182,275l3.4-.65Z"/><path class="cls-15" d="M188,273.89l1.46-.56Z"/><path class="cls-24" d="M222.63,145.82c-2.59-.17-5.23-.72-7.74-.37-1.34.18-5.19-.21-2.9,3.55-.6.86-1.21,1.72-1.81,2.59-3.05-4.56-7.1-.55-10.65-1.1-3.18-.5-6.56.33-10,.58l-1.9-3.33c-1.46,1.63-2.59,3.84-3.51,3.76-4.42-.41-4.72,2.47-5.14,5.49l-1,2h0a11,11,0,0,1-2.1-2,37.27,37.27,0,0,1-1.84-4.18l-1.51.5-1,4.89-1.66-.05v-9.3A34,34,0,0,1,181,131.25c1.54-1.32,1.85-4.09,2.72-6.2a10.05,10.05,0,0,1,6.36,6.88c1,3,3.42,2.87,5.92,0,.43-1,1.25-2,1.2-3A15.46,15.46,0,0,0,196,125l2.62-3.23,3.22,1.69L201,120l8.33.57q-1.22,3.35-2.42,6.67c-.07.52-.13,1-.2,1.55l-.66.92c-5,.51-5.71,4.05-5.44,9,2.27,0,4.79.19,7.27,0,3-.29,6-1,9-1.45Zm-38-15.48-.31,1,3.06,1,.31-.93Z"/><path class="cls-27" d="M223.35,107.06l4.54-1.19,1,1.09,1.06.91,2.94,2.22L236,110a3.26,3.26,0,0,0,.07-.7,3.47,3.47,0,0,0,.84-.22l4.09,3L241,112l-2.86,3.21-1.1-.1-3.69,1.17,1.63,1.31L238,117c.16,1.73,1.13,4.16.35,5.07-2.85,3.25-6.28,6-9.49,8.94-2.81-5.35-3.33-5.81-7-6.18L220,125l.89-2.22c2.64-.86,6.76.19,6.19-4.8l4.85-2.22-6-5.72Z"/><path class="cls-7" d="M216.91,137.16c-3,.5-6,1.16-9,1.45-2.48.24-5,0-7.27,0-.27-4.95.42-8.49,5.44-9a.57.57,0,0,0,0,.66,14.85,14.85,0,0,0,12.85-.29l3,4Z"/><path class="cls-10" d="M221.92,134l-3-4,3-5.21c3.66.37,4.18.83,7,6.18a27.19,27.19,0,0,1-4,3.54C224.22,134.93,222.92,134.23,221.92,134Z"/><path class="cls-8" d="M238,117l-3.06.56c.69-.83,1.38-1.65,2.06-2.48l1.1.1C238.08,115.78,238,116.38,238,117Z"/><path class="cls-26" d="M242,111.12l2.27,1.61-1.11,1.57-1.3-2C241.89,111.89,241.94,111.5,242,111.12Z"/><path class="cls-15" d="M242,111.12c-.05.38-.1.77-.14,1.15A4.69,4.69,0,0,1,241,112l.06.11c0-1,0-2,0-3.06l2-.19C242.66,109.59,242.32,110.36,242,111.12Z"/><path class="cls-30" d="M59.12,114c-3.32,1.72-3.09-.6-3.1-2.71q-.08-12.21-.16-24.43L56,81c2.55,4.45,5.67,3.76,9,1,5,1.12,9.76,4.18,15,1,3.7,3.53,6.42,1.76,8-.9,4.73.91,9,1.1,12.75,2.64s5.17.52,6.23-2.73h2l4.77,2.58L115,81.06l2-.06,1,3-.24,9.92L108,92l3.41-4.42a23.26,23.26,0,0,0-6.4,3.53c-.31.24,0,1.24,0,1.89l-1,1c-5.59,1.57-10.74,3.82-14,9a21.12,21.12,0,0,1-3.74-2.35c-6.06-5.88-16.85-5.86-23.26.13C59.27,104.47,58.55,109,59.12,114Z"/><path class="cls-21" d="M109,82h-2c-4.33-2.5-8.73-3.48-13.4,0-1.2-4.28.65-9.82-6.3-10.92a30.52,30.52,0,0,0,0,4.42c.64,4.27-.92,6-5.47,6.07-.63,0-1.25.94-1.87,1.45-5.24,3.19-10,.13-15-1-2.56-1.71-7.84-.66-6.66-6.45,13.06.09,4.41-9.23,6.07-14.34,4.73.64,9,.59,7.9-7.58,2.85,2.09,4.91,3,6.13,4.65,1.72,2.25,2.57,5.49,6.26,2.36.22-.19,1.51.88,2.3,1.36,0,.66,0,1.33,0,2,.32,2-1.17,5.12,2.87,5,3-.12,5.67-3.83,5.1-7l1-1.09,1.87.07,2.18-.92,8,10.85L110,68l1,0c0,.34,0,.67,0,1q1,2,2,4c0,1.32,0,2.64,0,4C109.23,76.72,108.81,79.11,109,82Z"/><path class="cls-30" d="M95.94,60.9,95,62l-8,2c0-.66,0-1.33,0-2,4.78-7.07-3.47-6.11-5.6-9.06,7.24-7.83-1.53-17,3.42-25.67-6.16.41-8.86-1.53-7.83-6.81l1-.31,3,.79,5.06-.11-.06.1,1,0a3.93,3.93,0,0,1,.89-.25c1.33.42,3.09.45,3.87,1.35S93.5,25.67,93,26.21c-3,3-1.33,5.24,1,7,2.51,1.92,2.12,3.37.64,5.81s-2.17,5.64-3.19,8.49l1.34.51,2-3.49,1.46.23Q95.6,47.9,95,51c-.66,1.34-1.33,2.67-2,4-.59.76-1.17,1.53-1.75,2.29L95,58l1,1Z"/><path class="cls-10" d="M56,81l-.12,5.83a3.5,3.5,0,0,1-.63.12V27A36.47,36.47,0,0,1,56,32.2C56,48.46,56,64.73,56,81Z"/><path class="cls-2" d="M86.09,20.83,81,20.94l1.08-1c.31-.67.61-1.35.92-2l3.12-.74Z"/><path class="cls-4" d="M86.09,20.83l.06-3.63a1.37,1.37,0,0,1,.75.05l1,3.46A3.93,3.93,0,0,0,87,21c-.32,0-.65,0-1,0Z"/><path class="cls-8" d="M78,20.15l-1,.31c-.1-.75-.2-1.5-.29-2.24Z"/><path class="cls-8" d="M83,17.94c-.31.68-.61,1.36-.92,2C82.42,19.3,82.72,18.62,83,17.94Z"/><path class="cls-16" d="M170,23l2,2-3.53.4.29,1.32L172,26c1.42.94.43-5.4,3-1l-.23.42L175,25h2v3h-4l-1,2h0a22.64,22.64,0,0,0-4.79-.93c-3.94.07-4.41,2-2.19,4.92-.52.3-1.48.88-1.5.86-1.61-2.57-3-.45-4.5.16l-1-1c.33-1.67.67-3.34,1-5,.34-.67.67-1.34,1-2l-4-5.9,1-.14,3-1c1.26-2.3,2.59-4.26,5-1l2,1Z"/><path class="cls-2" d="M160,20l-3,1,0-3,1-.85Z"/><path class="cls-13" d="M167,20l-2-1,1.82-2C166.91,18.49,167,19.24,167,20Z"/><path class="cls-16" d="M174,21l-1.62.15L173.94,20C174,20.32,174,20.65,174,21Z"/><path class="cls-2" d="M194,14.52c0,.47,0,1,0,1.42-.43,5.92-2.11,7-8,5.06-1.23-2.35-1.46-4.06,2.09-4.07.67,0,1.32-1.25,2-1.92Z"/><path class="cls-16" d="M181.38,18.39l.93.66c-.28.3-.5.69-.84.85-.18.08-.55-.24-.84-.38Z"/><path class="cls-22" d="M160,27c-.33.66-.66,1.33-1,2-.33,1.67-.67,3.34-1,5l1,1c.65,4.55,1.3,9.1,2,13.85L158,48c-4.93.12-5.16.43-3,4l2,1h0v3l-7,0-.94,0c0-.35-.05-.7-.07-1,0-1,0-2,0-3,2.42-1.25,5-2.45,1-5-.35-3-.7-6-1.06-9,.69-1.68,1.37-3.37,2.05-5,.59-2.44-5.16-4-1-6.91l2.79-2,1.68,4.19Z"/><path class="cls-9" d="M176.86,35,169,34a2.25,2.25,0,0,0-1,0l-1.06,0A13.4,13.4,0,0,1,169,31c.73-.63,1.95-.68,2.95-1h0l4.13.1h3.74l1,3.89L178,34Z"/><path class="cls-19" d="M172,30c-1,.31-2.22.36-2.95,1a13.4,13.4,0,0,0-2.09,3L165,34c-2.22-3-1.75-4.85,2.19-4.92A22.64,22.64,0,0,1,172,30Z"/><path class="cls-3" d="M155,52c-2.17-3.58-1.94-3.89,3-4l-1,5h0Z"/><path class="cls-16" d="M177,25l1.78-1.81c.64.87,2,2,1.77,2.55-.32.94-1.64,1.53-2.54,2.27-.33-1-.66-2-1-3Z"/><path class="cls-19" d="M172,26l-3.25.73-.29-1.32L172,25C172,25.33,172,25.66,172,26Z"/><path class="cls-19" d="M180.91,34l-1-3.89,3.51-1.52Z"/><path class="cls-16" d="M184,28a16.29,16.29,0,0,1-1.86-2.23c-.11-.17.63-.85,1-1.3L184,26Z"/><path class="cls-19" d="M184,28V26h2l1,0v2h-3Z"/><path class="cls-19" d="M176.13,30.08,172,30l1-2Z"/><path class="cls-19" d="M177,25c.34,1,.67,2,1,3h-1Z"/><path class="cls-16" d="M187,26l-1,0,1.32-1.51Z"/><path class="cls-19" d="M168,34.06a2.25,2.25,0,0,1,1,0Z"/><path class="cls-19" d="M176.86,35,178,34Z"/><path class="cls-19" d="M175,28h0Z"/><path class="cls-13" d="M150,26c-4.16,3,1.59,4.47,1,6.91q-4,4-8.08,7.94-2.55,3-5.11,6l-1.89.11a7.3,7.3,0,0,1-.81,0l-4-1.72L127,50.69,125,49a.94.94,0,0,0-.51-.47l-1-1-.69-1.27q.15-5.6.31-11.19l-.41-3.26-2.73,1c0-1.65,0-3.31,0-5l3.11-.87.23-1.68-10.3-2.07L112,19l-1-4.11,3,.07L119.05,17c-1,2.62-.34,4.09,2.73,4,2.4-.08,4.8,0,7.33,0L128,18l0,0L131,17l1-2,5-1,2,1H139l2.07,1.12,2,.93,2.11,1L147,19.88l2,.1,2,1.16Z"/><path class="cls-10" d="M127,76a28.1,28.1,0,0,0,4.19,3.57c3.49,2,7.15,3.63,10.74,5.42q-.87,2.49-1.73,5c-.34,1-.67,2-1,3A1.85,1.85,0,0,0,139,94L131.83,97,129,91c.05-.86.11-1.71.17-2.56l-1.16.19,1,2.4-7-9c.12-1.43.89-3.38.24-4.18-1.78-2.21-4.16-4-6.3-5.87.12-1.3-.09-3.58.4-3.74,3.52-1.13,2.41-3.88,2.54-6.22.74-3.66-.34-6.27-3.86-8.08-1.12-.57-1.49-2.61-2.19-4l4.23,2.15,4.65.79.29,3.5L121,67a2.2,2.2,0,0,0,.14.91l1,2Z"/><path class="cls-13" d="M112,42.06c-1.88-3.73-.71-6.93,2.13-9.47.64-.57,2.49.22,3.79.39L120,42.87l-.39,1-4-.93-.46.05-1.77.17Z"/><path class="cls-19" d="M118.88,62c-.13,2.34,1,5.09-2.54,6.22-.49.16-.28,2.44-.4,3.74L113,73q-1-2-2-4c0-.33,0-.66,0-1l-1,0-2.1-7.18L107.68,59,113,62.34l-1.29,1.31Z"/><path class="cls-6" d="M107.68,59c.08.6.15,1.19.23,1.79l-5.44-3.66L100,60.05,97.82,61c.13-.55.25-1.09.37-1.64l2.3-2.79-1.79.21.12-1.8,5.2-4-.36,2-.52,1.13,2-.13Z"/><path class="cls-9" d="M113.1,23.18l10.3,2.07-.23,1.68-3.11.87L113,26a2.93,2.93,0,0,0,0-1Z"/><path class="cls-15" d="M120,42.87,117.91,33l2.1-.22,2.73-1c.14,1.14.27,2.2.41,3.26Q121.56,39,120,42.87Z"/><path class="cls-17" d="M111,14.88,112,19l-8-2,1-1,2-2.89Z"/><path class="cls-21" d="M93,55c.67-1.34,1.34-2.67,2-4,4.37-1.22,2.68,2.13,3,4L95.06,57Z"/><path class="cls-10" d="M112,42.06l1.41,1.07,1.77-.17.46-.05c.1.7.21,1.4.31,2.1l-2.09,2.87-2.08-2Z"/><path class="cls-8" d="M111.77,45.91c.69.66,1.38,1.32,2.08,2,3-.09,3.25,2,3.21,4.22L112.83,50C110.64,49.09,110,47.81,111.77,45.91Z"/><path class="cls-13" d="M109,24l-4.54.84,2.23-3.74L109,24Z"/><path class="cls-7" d="M95.06,57,98,55h.82c0,.6-.08,1.2-.11,1.8l-.18.23L96,58.89l-.09.14-1-1C95,57.69,95,57.36,95.06,57Z"/><path class="cls-5" d="M103.66,53l.36-2,1.92,1.62Z"/><path class="cls-13" d="M113,25a2.93,2.93,0,0,1,0,1l-4-2h0Z"/><path class="cls-7" d="M103.66,53l2.28-.37c-.27.46-.55.92-.83,1.37l-2,.13Z"/><path class="cls-17" d="M119.05,17,114,15c4.84-.53,9.67-1.19,14.52-1.5,1.13-.07,2.34,1,3.51,1.61l-1,2L128,18l0,0Z"/><path class="cls-7" d="M107.05,13.08l-2,2.89a8.42,8.42,0,0,1,0-.87c.08-.7.15-1.39.22-2.09l.78-1.94Z"/><path class="cls-9" d="M141.11,12a7.63,7.63,0,0,0,.83-.17l.9,3.1L141,15l0,0C141,14,141.06,13,141.11,12Z"/><path class="cls-6" d="M139.06,15l-2-1,1.66-2.13Z"/><path class="cls-9" d="M141.05,16.09,139,15h2l0,0Z"/><path class="cls-9" d="M151,21.14,149,20l-1-1.83,9-.22,0,3-1,.14Z"/><path class="cls-23" d="M141.05,16.09,141,15l1.82-.1,2.08,0L146,15l0,0,2.9.91L143,17Z"/><path class="cls-9" d="M148.89,15.88,146,15l3-3h1c0,1,0,2-.07,2.95Z"/><path class="cls-9" d="M147,19.88,145.12,18l1.91.06Z"/><path class="cls-4" d="M147,19.88l0-1.78a1.51,1.51,0,0,1,.94,0L149,20Z"/><path class="cls-9" d="M146,15l-1.11,0,.33-3.14.6,0Z"/><path class="cls-11" d="M150,12h-1l1-1Z"/><path class="cls-7" d="M173.84,262.12c0-1.61-.37-3.43.22-4.81,1.8-4.19,4-8.22,6-12.31l1.92,4Q177.93,255.58,173.84,262.12Z"/><path class="cls-24" d="M188.42,215.13l-6.49-1.23.68,2.74c-2.39.08-5.48-4.56-7,2.08-.48-3.07-.77-4.92-1.07-6.77a1.12,1.12,0,0,0-.45.07,1.86,1.86,0,0,0-.36.33L170,204l.09-2.12,12.89,3.1,5.92,3.4.59-1.25q-.24,3-.5,5.89c0,.43.06.86.1,1.29Z"/><path class="cls-14" d="M190.18,213.22l1-2.33Z"/><path class="cls-14" d="M189.09,214.27c0-.43-.07-.86-.1-1.29l1.2.2Z"/><path class="cls-3" d="M185,262l-.27,4.38-1.65-.36,1.92-4Z"/><path class="cls-15" d="M190.05,271.91,187,271a1.09,1.09,0,0,1,.69-.38Z"/><path class="cls-15" d="M183.82,271.63l-1.8.24Z"/><path class="cls-26" d="M194.12,204.07l1.88,0,3,0h12.85l.35,1.36L202,207.85c-1.13-.61-2.23-1.28-3.38-1.83C197.17,205.32,195.63,204.71,194.12,204.07Z"/><path class="cls-26" d="M192,205.93c0-.31,0-.62,0-.93a5.51,5.51,0,0,1,.38.67S192.16,205.84,192,205.93Z"/><path class="cls-7" d="M194,72.05l-3.19-8.29c.76-1.88,1.51-3.75,2.27-5.62l1.85,0c.06,1.62.12,3.24.17,4.86s-.18,3-.2,4.47,0,3,.05,4.45A7.58,7.58,0,0,1,194,72.05Z"/><path class="cls-15" d="M194.94,58.09l-1.85,0,0-2.12.89-1.86,1.63-.14,1.29,2.08C196.23,56.77,195.59,57.43,194.94,58.09Z"/><path class="cls-4" d="M201.24,52l1.62,4.24-3.14-.49.31-1.38Z"/><path class="cls-15" d="M199.72,55.75l3.14.49a.86.86,0,0,1,0,.57l-2.74,3.4-.14,0-.87-4.09A5.35,5.35,0,0,1,199.72,55.75Z"/><path class="cls-11" d="M199.72,55.75a5.35,5.35,0,0,0-.58.39l-2.27,0L195.58,54l2.33-1.29L200,54.37Z"/><path class="cls-29" d="M200,54.37l-2.12-1.64c1.07-.41,1.23-5,3.33-.73Z"/><path class="cls-8" d="M194,54.16,193.06,56Z"/><path class="cls-18" d="M140.21,90q.85-2.51,1.73-5l1.06.21,5.08.75c3.45,2.37,7.25,1.07,10.93,1,3.3.55,7.09,2,7-3.76L168,82l9.26-2.63,7.31,1c4.89.36,8.26-2.33,9.27-7.51l7.26.73,1.61-.4,2.31.93,1,7.95V83l0,0H204l-1,0a1.24,1.24,0,0,0-.95.29c-.11-.58-.08-1-.25-1.14a5.17,5.17,0,0,0-1.34-.34,13.24,13.24,0,0,0,1.59,1.48,117.74,117.74,0,0,0-13.15,4.24c-1.73.69-3.11,2.24-5.54,4.06L191,92l1.94.08,1,2,3,1,1.34.16c-2.45,2.67-1.68,5.32.07,8a11.3,11.3,0,0,1-3.2.46c-4.68-.73-9.3-1.91-14-2.28-1.22-.09-2.64,2.14-4,3.31l3.82,1.74-4.13,6.84L174,109V97.07c-2.57-.24-5.24-.58-7.92-.7-2.91-.13-5.84-.05-8.76-.06L156.83,94l-.75.28,1.21,2.16a26,26,0,0,1-5.27.16c-4.35-.72-8.66-1.73-13-2.63a1.85,1.85,0,0,1,.18-.93h9.21l0-1.48Zm26.15,2.51v-1h-5.72v1Zm30.92-11.11a1.36,1.36,0,0,0-.42-.13c-.05,0-.09.23-.13.35a1.36,1.36,0,0,0,.42.13S197.24,81.51,197.28,81.39Z"/><path class="cls-13" d="M127,76l-4.87-6c1.23-1.63,4.45,1.68,4.86-2h0L130,62.34l1.15-.13c-.44-1.24-.77-2.17-1.11-3.1l1.06-.1c1.44.15,2.95.65,4.3.36a21.41,21.41,0,0,0,4.57-2.06L142.8,54l-3.23-2.23a1.29,1.29,0,0,0-.39-.56,1,1,0,0,0,0-.81c.22-.75.45-1.49.68-2.23q1.63-2.52,3.25-5Q146.05,40.53,149,38c.36,3,.71,6,1.06,9,.4,1.81-5.78,2.29-1,5,0,1,0,2,0,3-.63,1-1.27,2-2.22,3.56L151,59c-.33,3.09-.83,6.18-1,9.28-.31,7.61-4.42,9.81-11.06,6.12-2.67-1.47-5.78-2.16-8.68-3.2l.16,1.85Z"/><path class="cls-26" d="M166,83.24c.08,5.76-3.71,4.31-7,3.76Z"/><path class="cls-16" d="M156,62c-.48,1.64,3,4.06-1,5C155.33,65.33,155.67,63.67,156,62Z"/><path class="cls-16" d="M155,70c1,1.33,2,2.66,3,4C157,72.66,156,71.33,155,70Z"/><path class="cls-15" d="M148.08,86,143,85.2Z"/><path class="cls-4" d="M201.1,73.59l-7.26-.73a2.26,2.26,0,0,0,.17-.81,8.1,8.1,0,0,0,1-.18Z"/><path class="cls-3" d="M149.06,56l.94,0Z"/><path class="cls-18" d="M223.08,96.09c-1.57,1.82-4.42,2.75-4.12,5.89h-.91l-1.17-1-2.22-1L208,99l-2.16-3.69c1.9-1.29,3.58-3.62,5.8,0,.51.83,3.29.24,5,.35C218.81,95.75,221,95.93,223.08,96.09Z"/><path class="cls-29" d="M205.86,95.28,208,99a6.38,6.38,0,0,0-.82.33L201,102.44v.23l-2.67.42c-1.75-2.64-2.52-5.29-.07-8Z"/><path class="cls-15" d="M193,92.06,191,92c1-4.93,1.75-5.07,6.58-1.24-.22,1.39-.43,2.81-.65,4.23l-3-1c.29-.64.59-1.27.88-1.91Z"/><path class="cls-27" d="M203,83l1,0Z"/><path class="cls-2" d="M201.1,73.59,195,71.87c0-1.48-.09-3-.06-4.45s.13-3,.2-4.47c.63.15,1.52.62,1.83.37A33.17,33.17,0,0,0,200,60.23l.14,0,2.56,2.44V73.2Z"/><path class="cls-26" d="M206,83v-.9a4.73,4.73,0,0,1,.36.66S206.14,82.88,206,83Z"/><path class="cls-4" d="M243,108.82l-2,.19-5.2-3a6,6,0,0,0-.83.24l-.24-.16.24-1.84,4.86,1.82,3,1.61Z"/><path class="cls-15" d="M235,104.22l-.24,1.84-2.77-2.22a2.91,2.91,0,0,1,0-.66l.39-1.43,1,.28Z"/><path class="cls-8" d="M232,103.18a2.91,2.91,0,0,0,0,.66l-.89-.8,0,0A3.24,3.24,0,0,0,232,103.18Z"/><path class="cls-26" d="M207.2,99.3A6.38,6.38,0,0,1,208,99l6.64,1,1.29,1.23,2.1.79H219c.12,1.69,3,3.36,0,5.08q-.42-.09-.84-.21L214.9,109a12.82,12.82,0,0,1-1.3-3.2c-.37-3.28-1.83-4.51-4.65-4q1.71,4.59,3.5,9.4l-5.81,3.6V113.7L201,113c-2-1-3.95-1.95-5.85-3A14.26,14.26,0,0,1,196,108c1.69-1.78,3.39-3.56,5.08-5.35v-.22Z"/><path class="cls-8" d="M218.17,106.85q.42.12.84.21h4.34l2.58,3c-1.71,3-2.55,5.77,1.15,7.94.57,5-3.55,3.94-6.19,4.8a98.82,98.82,0,0,0-.24-10.76C220.43,110.22,219,108.57,218.17,106.85Z"/><path class="cls-26" d="M231.05,103l.89.8,2.77,2.22.24.16,1.14,3a3.23,3.23,0,0,1-.07.69l-3.13.14L230,107.87c0-.31,0-.61,0-.92l0,0,.11-1.91-2,0C227.23,101.62,230,103.57,231.05,103Z"/><path class="cls-14" d="M228,105l2,0c0,.63-.07,1.27-.11,1.91l0,0h-1.08l-1-1.09Z"/><path class="cls-27" d="M170.09,201.84,170,204l-9.94-4c.19-2.72-1.14-4-3.69-5-2-.73-4.8-1.65-3.32-5,1-.88,2.37-1.57,2.89-2.66a141.14,141.14,0,0,0,5.5-13c.7-2,.49-4.23.69-6.36L167,153l1.81-3,1.09-1.18v9.3l1.66.05,1-4.89,1.51-.5a37.27,37.27,0,0,0,1.84,4.18,11,11,0,0,0,2.1,2l-2.13,4.63,3.1.34-1,4-1.3.39.26.38L178,168l3,1c-.69,1.62-1.37,3.25-2.13,5l2.17,1c-1.15,1.68-2.8,3.22-3.34,5.07A82.66,82.66,0,0,0,176,190c-6.69,0-6.69,0-5.69,2.91a22,22,0,0,1,5.6,3.34,9.81,9.81,0,0,1,1.6,1.68c3.12,3.87,6.9,1.41,10.46,1.1l2,4c-6.32-.74-12.63-1.5-18.95-2.17C170.78,200.77,170.42,201.48,170.09,201.84Zm-3.47-7.8c1.27-6.53,2.45-12.57,3.63-18.61l-1.31-.21C163.59,183.89,162.25,192,166.62,194Z"/><path class="cls-24" d="M199,181c-.31.58-.51,1.55-.95,1.67-6.06,1.69-4.69,6.78-4.91,11.34h-6.09q.47-6.51.95-13h1l2-2.08c-.31-.63-.47-1.62-1-1.83a27.27,27.27,0,0,0-4-1.07L183,173c.66-.8,1.25-2.16,2-2.26,1-.12,2,.8,3,1.27l1,1,8.65,2.86,7.95-12.93,1.65,2.11c1.18-2.24,2.14-4,3.11-5.86l1.59-.26c.67,2,1.35,4.09,2,6.13-2.35,1.27-5.18,9.52-3.83,11.42.3.42,1.18.44,1.8.64,2,1.86,5.93,2.57,3.56,7-.34.65,2.88,3.18,4.45,4.84,1.14,4.52-1.53,7.72-6.89,8.24l.81,3-1,1.15c-2.65-1.91-5.25-3.9-8-5.69-2.55-1.66-5.25-3.1-7.89-4.64l0,0q2-5,4-10l1-2.95-3.43,0Zm8.38,14.27c.28.12.62.4.82.32s.26-.51.38-.79c-.28-.12-.62-.4-.81-.32S207.5,195,207.38,195.27Z"/><path class="cls-26" d="M188,181q-.48,6.51-.95,13c-.34.34-.68.68-1,1-5.32,2.28-7-2.65-10-5a82.66,82.66,0,0,1,1.68-9.87c.54-1.85,2.19-3.39,3.34-5.07L183,173l3.09,3,5,2.9L189,181Z"/><path class="cls-24" d="M223,171c2.49,2.5,6.25,4.32,2.52,9-.82,1,1.57,4.65,2.48,7.07q-1.51,3-3,5.89c.65-3.93-.94-5.65-4.94-5-.13-5.23-.43-10.39-5-14l-.93-8a46.51,46.51,0,0,0,4.95,4C220.17,170.64,221.69,170.67,223,171Z"/><path class="cls-24" d="M176,190c3,2.38,4.67,7.31,10,5l2,4c-3.56.31-7.34,2.77-10.46-1.1a9.81,9.81,0,0,0-1.6-1.68,22,22,0,0,0-5.6-3.34C169.34,190,169.34,190,176,190Z"/><path class="cls-26" d="M215,174c4.6,3.62,4.9,8.78,5,14a8,8,0,0,0-.09,1c-1.57-1.66-4.79-4.19-4.45-4.84,2.37-4.47-1.54-5.18-3.56-7Z"/><path class="cls-15" d="M170.09,201.84c.33-.36.69-1.07,1-1,6.32.67,12.63,1.43,18.95,2.17-.41.63-.76,1.73-1.23,1.79a55.93,55.93,0,0,1-5.8.17Z"/><path class="cls-26" d="M225,193q1.53-2.94,3-5.89l4,3.52-2.92,4.29-3,0Z"/><path class="cls-27" d="M199,181l-.48-3,3.43,0L201,181Z"/><path class="cls-24" d="M200.23,199.8l-2.88-1.55.51-1.19,3.2,1.12Z"/><path class="cls-24" d="M226.05,194.92l3,0v0c-.37,1-.75,2.05-1.12,3.08Z"/><path class="cls-26" d="M228,198c.37-1,.75-2.05,1.12-3.08L231,196l-1,3Z"/><path class="cls-14" d="M230,199l1-3c.18.93.37,1.87.55,2.81Z"/><path class="cls-24" d="M199,204l-3,0Z"/><path class="cls-24" d="M197,191l-.24.41L197,191Z"/><path class="cls-28" d="M223,171c-1.35-.32-2.87-.35-4-1a46.51,46.51,0,0,1-4.95-4,5.9,5.9,0,0,1-.11-.93c-.68-2-1.36-4.09-2-6.13l-1.59.26c-1,1.81-1.93,3.62-3.11,5.86l-1.65-2.11-7.95,12.93L189,173c0-.33,0-.66,0-1,.08-.15.15-.29.22-.44L189,172c-.33,0-.67,0-1,0-1-.47-2.09-1.39-3-1.27-.75.1-1.34,1.46-2,2.26l-1.9,2.07-2.17-1c.76-1.78,1.44-3.41,2.13-5l4.71-2-4.5-1.66,3.66-2.91c-2.68-.61-5.13-2.93-5.9,1.51l-3.1-.34L178,159h0l1-2c.42-3,.72-5.9,5.14-5.49.92.08,2-2.13,3.51-3.76l1.9,3.33c3.41-.25,6.79-1.08,10-.58,3.55.55,7.6-3.46,10.65,1.1.6-.87,1.21-1.73,1.81-2.59,5,.14,9,5.55,9,12q1,4.5,2,9C223,170.33,223,170.66,223,171Z"/><path class="cls-24" d="M223,170q-1-4.5-2-9C224.65,163.6,225.34,166.69,223,170Z"/><path class="cls-26" d="M232.9,192l-.14,2.26-.62,0v-2.27Z"/><path class="cls-3" d="M111,228.07,106.29,230a27.62,27.62,0,0,0-5.65-2c-.54-.08-1.39,2-2.09,3-2.62-4.8-.64-9.07,1.53-13.57L102,219h3c1.42,1,2.74,2.62,4.27,2.85,2.88.44,5.89.08,8.84.06l11.8,1,2.28-2.83.2,1.39,12.54.88.29-1.23,3,4.78L154,219l3,1c-3.62,4.9,1.58,8.74,2.11,13.31l-4.39.48,6.25,8.57c-3.42.34-5.83-.1-7.26.89-2,1.35-3.18,3.78-4.71,5.74h-3l-2-2,4.6-6.74L141,242.1l1.69-5.66c-3.94-.78-7.47-1.54-8.6,3.61-2.09-.59-5.12-.81-5.28-1.61-.69-3.32-3-2.26-4.85-2.43l-4-2c-.33-1.67-.67-3.34-1-5Z"/><path class="cls-16" d="M149,249c1.53-2,2.75-4.39,4.71-5.74,1.43-1,3.84-.55,7.26-.89l-6.25-8.57,4.39-.48c-.53-4.57-5.73-8.41-2.11-13.31.93-.27,2.52-1,2.69-.75,2.76,3.94,6.12,1.31,9.4.78L171,224c-.07.37-.13.75-.2,1.12-.9,1.86-2.61,3.75-2.53,5.56.17,4.14-1.16,7.41-3.36,10.76-1,1.51-.72,3.85-1,6L161,248l-6,1-2,0Z"/><path class="cls-19" d="M102,219l-1.92-1.55c-2.17,4.5-4.15,8.77-1.53,13.57,0,1-.07,2.05-.1,3.07l-.41,1c.23,1.43.45,2.86.76,4.85l-6.08-9.87c-1.26-1.89-2.59-3.41-4.66-.85-2-1.22-3.51-2.6-2.06-5.18l2-3,7,1.79c.56-1.58,1.09-3.08,1.63-4.58.43-1.2.75-3.31,1.34-3.39,1.24-.17,2.63.72,4,1.18Z"/><path class="cls-19" d="M124,236c1.89.17,4.16-.89,4.85,2.43.16.8,3.19,1,5.28,1.61,1.13-5.15,4.66-4.39,8.6-3.61L141,242.1l7.58-1.84L144,247h-1c-.64-1-1.2-2.77-1.92-2.83-4-.33-8.09-.25-12.14-.32-.65-.6-1.3-1.73-1.93-1.72C121.62,242.2,122.63,239.23,124,236Z"/><path class="cls-9" d="M129,243.84c4,.07,8.11,0,12.14.32.72.06,1.28,1.84,1.92,2.83a4.34,4.34,0,0,0-.12.88c-4,0-8.07.07-12.1-.06a3.79,3.79,0,0,1-2.82-1.19C127.68,246.09,128.61,244.8,129,243.84Z"/><path class="cls-29" d="M98.45,234.1c0-1,.06-2,.1-3.07.7-1.07,1.55-3.1,2.09-3a27.62,27.62,0,0,1,5.65,2c-.23,1.42-.45,2.84-.81,5.05h-6.9A1.29,1.29,0,0,0,98.45,234.1Z"/><path class="cls-7" d="M167.81,251l-5.46,14.14-3.44-4.11.85-.91,4.54,1.49c-.48-3.21-.89-5.93-1.3-8.64l1,0Z"/><path class="cls-4" d="M98,260.85h15.56l0,1.54H92.49l-.11-.8,2.61-.72Z"/><path class="cls-29" d="M88.06,229.22c2.07-2.56,3.4-1,4.66.85,2,4.21-1.91,3.67-3.78,4.78l-4.24.2C85.88,233,87,231.1,88.06,229.22Z"/><path class="cls-19" d="M164,253l-1,0-8-4,6-1Z"/><path class="cls-2" d="M119,229c.33,1.67.67,3.34,1,5l-1.76,2.77c-.41-.93-.83-1.86-1.24-2.8-.38-.7-.76-1.4-1.15-2.1L112.21,229Z"/><path class="cls-29" d="M119,229h-6.8l3.65,2.88L114,232l-.16,1.56-.19.22c-.91-.16-2.58-.22-2.61-.49a37.81,37.81,0,0,1-.07-5.22Z"/><path class="cls-19" d="M149,249l4,0c-.44,1.26-.88,2.53-1.31,3.79-1.23-.56-2.46-1.09-3.67-1.68-.69-.33-1.36-.75-2-1.13v-1Z"/><path class="cls-16" d="M146,249v1c-2.57,1.53-3.1.11-3.07-2.12a4.34,4.34,0,0,1,.12-.88h1Z"/><path class="cls-3" d="M114,232l1.82-.11c.39.7.77,1.4,1.15,2.1l-3.32-.21.19-.22C113.93,233,114,232.52,114,232Z"/><path class="cls-10" d="M94.93,252.05l1-1L95,256l0,0c0-.92,0-1.83,0-2.74Z"/><path class="cls-19" d="M99,242h0Z"/><path class="cls-3" d="M98.45,234.1a1.29,1.29,0,0,1,.13,1,4.89,4.89,0,0,0-.54,0Z"/><path class="cls-23" d="M160.06,200l9.94,4,3.75,8.39c0,.43,0,.86.05,1.29-.09.11-.26.22-.26.33a4.5,4.5,0,0,0,.15.8c-.11.77-.23,1.55-.34,2.32a.68.68,0,0,0-.2.85L172,220l-5.26-7.3C163,215.25,160.1,214,158,210Q159,205,160.06,200Z"/><path class="cls-19" d="M158,210c2.1,4,5,5.25,8.75,2.68L172,220c-.36,1.33-.71,2.67-1.06,4L169.09,220c-3.28.53-6.64,3.16-9.4-.78-.17-.25-1.76.48-2.69.75l-3-1c0-3.51.88-7.68-5-7l.07-4.37c1.3.24,2.63.4,3.9.75C154.67,208.84,156.33,209.45,158,210Z"/><path class="cls-20" d="M164,253l-3-5,2.83-.61c.32-2.12.05-4.46,1-6,2.2-3.35,3.53-6.62,3.36-10.76-.08-1.81,1.63-3.7,2.53-5.56L167.81,251Z"/><path class="cls-24" d="M173.15,217.94a.68.68,0,0,1,.2-.85,3.08,3.08,0,0,1,.13.66C173.49,217.81,173.27,217.87,173.15,217.94Z"/><path class="cls-24" d="M173.69,214.77a4.5,4.5,0,0,1-.15-.8c0-.11.17-.22.26-.33C173.76,214,173.72,214.39,173.69,214.77Z"/><path class="cls-20" d="M56,225q1-5.5,2-11h3A45,45,0,0,0,65.1,216c3,1.13,6,2.12,9,3.17l.16,3h.39l.37-2.26,2.09.13c0,.27,0,.54-.07.81L77,222l-.93,5.11,0-.07-1,.78a2.76,2.76,0,0,1-.9.27L68,233l-2,2h0l-4.17-.32c.68-3.35,1.38-6.37,1.89-9.43.43-2.56,1.06-5.38-3.12-5.88C59.49,221.6,60.92,226.09,56,225Z"/><path class="cls-2" d="M77.07,220.91c0-.27.05-.54.07-.81l9.82-2L88,221l-2,3-7,3.11-2.89-.07L77,222l3.18-.14,0-.62Z"/><path class="cls-29" d="M76.07,227.08l2.89.07c2.86,1.69,3.66,5.63,2.45,7-1.44,1.62-5.15,1.22-7.88,1.7L73.35,234H79c-.91-3.1-7.19-.9-4.84-5.89a2.76,2.76,0,0,0,.9-.27l1-.78Z"/><path class="cls-9" d="M94,247.94,89.8,245l3.53,0C93.54,246,93.74,247,94,247.94Z"/><path class="cls-2" d="M94.93,252.05c0,.38,0,.76,0,1.14L92,255l2-3.94Z"/><path class="cls-9" d="M81.31,245.37l-2.46,2.32a7,7,0,0,1-.59-.64c.77-.85,1.57-1.66,2.37-2.48Z"/><path class="cls-11" d="M94,247.94c-.21-1-.41-2-.62-2.95l.53,0,2.54.32L95,248Z"/><path class="cls-11" d="M66,235l2-2Z"/><path class="cls-8" d="M96.4,245.35,93.86,245Z"/><path class="cls-11" d="M65.35,247.52,65.17,246c.26.16.63.28.72.51S65.64,247,65.35,247.52Z"/><path class="cls-11" d="M87.09,252c-.32.38-.64.75-1,1.13Z"/><path class="cls-11" d="M97.46,264.66c-.49.64-1,1.28-1.52,1.89,0,0-.71-.43-.68-.5.3-.73.69-1.43,1-2.14Z"/><path class="cls-11" d="M92.93,268l-.94-1,1.48-.51Z"/><path class="cls-4" d="M92,255l2.94-1.82c0,.92,0,1.83,0,2.75Z"/><path class="cls-17" d="M61,133.9c4.73-1.73,8.64-4.2,9.79-9.65a29.26,29.26,0,0,1,2.12-5.15L73,119c3.1,1.79,5.76.55,6.81-2.21,1.8-4.71,2-9.61-1.88-13.74l6.16,2c0,2-.56,4.21.18,5.87,1.26,2.8-4.61,11.22,5.52,7.55.41-.15,1.21.91,1.7.81a26,26,0,0,0,3.68-1.3l1.88-1c1.68,1.06,3.37,2.94,5,2.92,1.41,0,2.93-2.13,4.11-3.55.35-.41-.28-1.63-.46-2.48a18.42,18.42,0,0,0-2.7.84c-.56.26-1,.85-1.87,1.71-.11-1.86-.21-3-.25-4.12,0-.82-.3-1.89.09-2.42a18.48,18.48,0,0,1,3-2.66L109,106c-.31,1.58-1.1,3.25-.83,4.73a25.56,25.56,0,0,0,2.79,8.49c.38.63,3.93-.65,6-1,3.66,1.56,6.32,3.52,3.13,7.82l-2.52-1.07c-.22,1.28-.43,2.55-.65,3.83,0,.46.05.92.08,1.38,0,.25,0,.5,0,.75l-.1,2.78-1.06.08-4.89.08-.26,1.19c-1.5,0-2.9-3.27-4.5-.14-3.06-2-5.23-.87-6.15,3.17-.36,1.56-.63,3.14-1.11,5.54l-4.24-4.85L97,135.2l-.55-1.66c-2.35.48-5.59.16-6.89,1.59-5.34,5.88,3.77,6,4.85,10.73l-6.37-2c.92,6.14,5,3.92,8.33,3.68L92,150c-.91.21-1.82.46-2.74.61-2.94.47-6.19,1.48-6.25-3.38a5.59,5.59,0,0,0,.5-.7.44.44,0,0,0-.13-.41c-1.07-.82-2.15-1.62-3.22-2.43l2.55-2,1.14-2.54-3.33-2.41.33,0,3.21.19,1.5-1.57L82,134.22c-2.28-.12-5.12-1.26-5.13,2.79a30.41,30.41,0,0,1-3.74,3.54A16.52,16.52,0,0,1,69.28,142c-1.41-2.15,1.84-6.58-3.37-6.85ZM96,128l1,1.25-.2-4.55c-4.74-2.06-3.88,1.19-3.87,3.88l3.07-.53Zm12,2c4.55-.91,4.84-1.92,1.49-7.16-.59,2.71-1.06,4.92-1.53,7.12l-.22.45Z"/><path class="cls-5" d="M83,147.23c.06,4.86,3.31,3.85,6.25,3.38.92-.15,1.83-.4,2.74-.61l2,2.07-1.6,1.17L94,154c0,1.68,0,3.37,0,5l-5,2-1.52,3.29c-1.34-1.65-1.47-2.13-1.52-2.61a10.46,10.46,0,0,1,0-1.25c-.95,2.22-.68,3.57-.86,4.85a8.52,8.52,0,0,1-1.31,2.56c-.6-.62-1.24-1.19-1.78-1.86-1-1.3-2-2.65-3-4l-2.7-1.53-1.24,3.16L79,162c.23,3.5-3.2,3.85-4.1,2.68-1.37-1.76-1.11-4.78-1.68-8.07l-7.34.7C65.21,162.81,64.6,167.9,64,173l-2,2c-3.2,2.42-2.73,4.71.64,6.21s4.89,2.69,1.31,5.64c-.7.58-.67,2.05-1,3.11l-1.92.1-5.63-.4c1-3.14,1.78-5.76,2.87-9.27-.57-.77-1.9-2.55-3.22-4.34,0-.7,0-1.4,0-2.1a31.6,31.6,0,0,0,.87-5.22c.08-11.63,0-23.25,0-35.23L60.83,135h.31q-.15,5.44-.32,10.9c.33.69.54,1.87,1,2a22.32,22.32,0,0,0,4.19.24V150L59.22,161.4l.88.71L63,160l1-1c1-2,1.46-4.6,3-5.87,3-2.45,6.68-4.14,10.07-6.15Zm-1.42,14.05a1.13,1.13,0,0,0,.13-.43s-.23-.08-.35-.13a1.41,1.41,0,0,0-.13.43S81.49,161.24,81.61,161.28Z"/><path class="cls-29" d="M59.12,114c-.57-4.94.15-9.5,3.88-13.18,3.6-1.52,5.94.21,6.67,3.44.81,3.58-2.11,3.76-4.7,3.77l-1.31,7,5.26-.93,0,.07c1.93,4.89-2.68,4.58-4.91,6.17L63,120c-.32-.28-.64-.56-.95-.85Z"/><path class="cls-17" d="M64,120.3c2.23-1.59,6.84-1.28,4.91-6.17L70.86,113,73,119l-.08.09a42.09,42.09,0,0,1-5,1.39A19.22,19.22,0,0,1,64,120.3Z"/><path class="cls-25" d="M61,133.9l4.91,1.23a5.14,5.14,0,0,0,0,.88l-1.88.08L61.14,135h-.31C60.89,134.64,60.94,134.27,61,133.9Z"/><path class="cls-17" d="M62,119.12c.31.29.63.57.95.85C62.66,119.69,62.34,119.41,62,119.12Z"/><path class="cls-12" d="M65,205l5.88-5.76L69,197c0-.32,0-.65,0-1l4-2c3.06,2.79,2.59,6-1.74,10.66L78,210l-2,.66-3.06,0-.86.35H72l-1.32.07a2.89,2.89,0,0,0-.82.15,1.21,1.21,0,0,0-.81-.19H68l-3.07-4.11Z"/><path class="cls-12" d="M61.06,190.06,63,190c2.37-1.33,3.19-.36,3.05,2v6c-2.37,0-5.57,5.94-7-1Q60.05,193.55,61.06,190.06Z"/><path class="cls-10" d="M65,205l-.09,1.95L64,207c-3.05-.2-5.13.33-3,4l0,3H58q-.48-5.47-1-10.95Z"/><path class="cls-21" d="M66,198c0-2,0-4,0-6,1,1.33,2,2.67,3,4,0,.32,0,.65,0,1Z"/><path class="cls-23" d="M169.92,148.84,168.83,150l-7.8-8.9-3.09-5.91.45-9.69-4.65,2.55L151,125l0,0-1-1,0,0,.05-2,1.93-2.15.84-1,3.08-2.49-3-3.34v0L150.33,111a6.14,6.14,0,0,1,.49-1.86c.69-1.1,1.55-2.1,2.35-3.13l5.05-.65,1.28-1.55,5.25,11.7c4.3-.44,9.27,0,9.25-6.51l2.9,4.15,6.84,11.89c-.87,2.11-1.18,4.88-2.72,6.2A34,34,0,0,0,169.92,148.84Z"/><path class="cls-27" d="M183.74,125.05l-6.84-11.89,4.13-6.85,3,0,2.16.63c1.91-.31,3.84-1,5.7-.81,1.39.11,2.7,1.25,4.05,1.93a14.26,14.26,0,0,0-.8,1.94c1.9,1.09,3.88,2,5.85,3,0,2.32,0,4.64,0,7l.79,3.51-3.22-1.69L196,125c-1-3.94-1.92-7.89-3-12.48a32,32,0,0,0-.49,4.26c.11,4.75.34,9.49.52,14.23-.13.09-.38.22-.36.27a4,4,0,0,0,.36.71l3.05-.08c-2.5,2.89-5,3-5.92,0A10.05,10.05,0,0,0,183.74,125.05Z"/><path class="cls-18" d="M201,120c0-2.32,0-4.64,0-7l5.62.71v1.08l5.81-3.6q-1.78-4.82-3.5-9.4c2.82-.48,4.28.75,4.65,4a12.82,12.82,0,0,0,1.3,3.2L211,119a2.51,2.51,0,0,0-.49.87l-1.19.65Z"/><path class="cls-15" d="M196,131.91,193,132a2.49,2.49,0,0,0,0-1c-.18-4.74-.41-9.48-.52-14.23a32,32,0,0,1,.49-4.26c1.11,4.59,2.07,8.54,3,12.48a15.46,15.46,0,0,1,1.25,3.93C197.27,129.9,196.45,130.91,196,131.91Z"/><path class="cls-2" d="M209.35,120.52l1.19-.65,2.13.62-.68,4.05-.18.19-4.88,2.46Q208.13,123.86,209.35,120.52Z"/><path class="cls-15" d="M206.93,127.19l4.88-2.45-4.72,4.37-.36-.37Z"/><path class="cls-27" d="M184.6,130.34l3.06,1.07-.31.93-3.06-1Z"/><path class="cls-27" d="M179,157l-1,2Z"/><path class="cls-15" d="M206.07,129.66l.66-.92.36.37c-.35.4-.71.8-1.06,1.21A.57.57,0,0,1,206.07,129.66Z"/><path class="cls-9" d="M211,119l3.87-10,3.27-2.16c.87,1.72,2.26,3.37,2.48,5.16a98.82,98.82,0,0,1,.24,10.76c-.29.74-.59,1.48-.89,2.22l-5.75-1.89L215,120l.24-.35L215,120l-1.11-.19-.17-2.13Z"/><path class="cls-11" d="M214.25,123.1,220,125l1.88-.17-3,5.21a14.85,14.85,0,0,1-12.85.29c.35-.41.71-.81,1.06-1.21l4.72-4.37.18-.2Z"/><path class="cls-26" d="M227.08,118c-3.7-2.17-2.86-5-1.15-7.94l6,5.72Z"/><path class="cls-23" d="M235.78,106l5.2,3c0,1,0,2,0,3.06l-4.09-3C236.54,108,236.16,107,235.78,106Z"/><path class="cls-6" d="M237,115.07c-.68.83-1.37,1.65-2.06,2.48l-1.63-1.31Z"/><path class="cls-15" d="M232.89,110.09,236,110Z"/><path class="cls-15" d="M235.78,106c.38,1,.76,2,1.15,3a3.47,3.47,0,0,1-.84.22l-1.14-3A6,6,0,0,1,235.78,106Z"/><path class="cls-8" d="M228.89,107H230c0,.31,0,.61,0,.92Z"/><path class="cls-21" d="M70.86,113l-1.92,1.12,0-.07c-1.84-1.68-5.12-2.42-4-6.06,2.59,0,5.51-.19,4.7-3.77-.73-3.23-3.07-5-6.67-3.44,6.41-6,17.2-6,23.26-.13A21.12,21.12,0,0,0,90,103c0,.35.07.7.1,1,.18,1.17.37,2.33.6,3.86-4.35-3.38-5-3.63-6.62-2.86l-6.16-2C72.94,103.89,71.21,106.33,70.86,113Z"/><path class="cls-22" d="M109,106,104,107.18c.36-1,.72-2,1.07-2.92a7,7,0,0,1-.11-.8L103,100l1-6,1-1,3-1,9.74,1.94c.38,1.39.76,2.77,1.15,4.15A6.36,6.36,0,0,1,119,99c-.63,2-1.25,4-1.88,6.05C114.12,103,111.33,102.6,109,106Z"/><path class="cls-5" d="M80,83c.62-.51,1.24-1.44,1.87-1.45,4.55-.08,6.11-1.8,5.47-6.07a30.52,30.52,0,0,1,0-4.42c7,1.1,5.1,6.64,6.3,10.92,4.67-3.45,9.07-2.47,13.4,0-1.06,3.25-2.55,4.25-6.23,2.73S92.75,83,88,82.09C86.42,84.75,83.7,86.52,80,83Z"/><path class="cls-5" d="M129,91l2.86,6c-1.53,0-3.47.53-4.54-.19-4.2-2.82-5.87-.65-7.29,3V94a28,28,0,0,0,0-5.34A22.92,22.92,0,0,0,118,84c-.33-1-.67-2-1-3l3,.16.89.71L122,82l7,9Z"/><path class="cls-5" d="M104,94l-1,6h0l-3,3.13c0,.23-.06.45-.1.68L97.66,106,95,105.06l-4.85-1-.1-1C93.26,97.82,98.41,95.57,104,94Z"/><path class="cls-7" d="M120.05,81.16,117,81l-2,.06c-.66-1.36-1.33-2.71-2-4.06,0-1.33,0-2.65,0-4l2.9-1.06c2.14,1.92,4.52,3.66,6.3,5.87.65.8-.12,2.75-.24,4.18l-1.06-.15Z"/><path class="cls-5" d="M113,77c.66,1.35,1.33,2.7,2,4.06l-1.23,3.51L109,82C108.81,79.11,109.23,76.72,113,77Z"/><path class="cls-2" d="M118,84A22.92,22.92,0,0,1,120,88.65,28,28,0,0,1,120,94c-.36,1.37-.72,2.73-1.07,4.1-.39-1.38-.77-2.76-1.15-4.15Q117.89,89,118,84Z"/><path class="cls-5" d="M108,92l-3,1c0-.65-.26-1.65,0-1.89a23.26,23.26,0,0,1,6.4-3.53Z"/><path class="cls-22" d="M100,60.05l2.47-2.9,5.44,3.66L110,68l-2,2.91Z"/><path class="cls-5" d="M87,64l8-2c.57,3.14-2.12,6.85-5.1,7C85.84,69.11,87.33,66,87,64Z"/><path class="cls-5" d="M98.19,59.33c-.12.55-.24,1.09-.37,1.64L96,60.9c0-.62,0-1.25,0-1.87l.09-.14,1.68-.15A3.87,3.87,0,0,1,98.19,59.33Z"/><path class="cls-22" d="M111,68c0,.34,0,.67,0,1C111,68.68,111,68.35,111,68Z"/><path class="cls-5" d="M95.06,57c0,.33-.08.66-.11,1l-3.7-.73c.58-.76,1.16-1.53,1.75-2.29Z"/><path class="cls-5" d="M86,20.93c.32,0,.65,0,1,0Z"/><path class="cls-3" d="M151,21.14l5.06,0,4,5.9-5.53,1.18L152.79,24,150,26Z"/><path class="cls-13" d="M158,34c.33-1.67.67-3.34,1-5C158.67,30.67,158.33,32.34,158,34Z"/><path class="cls-19" d="M175,25l-.23.42L175,25Z"/><path class="cls-8" d="M149,38q-2.89,2.56-5.81,5.11c-.07-.74-.14-1.48-.22-2.22q4.05-4,8.08-7.94C150.32,34.6,149.64,36.29,149,38Z"/><path class="cls-3" d="M149,52c-4.77-2.7,1.41-3.18,1-5C154,49.55,151.42,50.75,149,52Z"/><path class="cls-13" d="M155,52l2,1Z"/><path class="cls-8" d="M139.18,51.16a1.27,1.27,0,0,1,.39.57l-3.47.14-1.27.27c-1.83-.72-3.7-1.63-4.74,1.09-.37.91-.74,1.83-1.12,2.74l-2.43-.78q-1.25-2.37-2.51-4.72a1.75,1.75,0,0,0,.42-.52l.58-1L127,50.69l4.16-5.51,4,1.72a7.3,7.3,0,0,0,.81,0L139,48h0l-.17,1.09h-3.25Z"/><path class="cls-2" d="M119.05,17,128,18l1.13,3c-2.53,0-4.93-.06-7.33,0C118.71,21.12,118.08,19.65,119.05,17Z"/><path class="cls-6" d="M120,42.87q1.58-3.91,3.17-7.82-.16,5.6-.31,11.19c-.29-.11-.58-.22-.86-.35l-2.39-2Z"/><path class="cls-10" d="M142.92,40.86c.08.74.15,1.48.22,2.22q-1.62,2.52-3.25,5c-.29,0-.59-.08-.89-.14h0l-1.21-1.18Q140.38,43.84,142.92,40.86Z"/><path class="cls-15" d="M135.11,46.9l-4-1.72Z"/><path class="cls-2" d="M128,18,131,17Z"/><path class="cls-15" d="M137.81,46.81,139,48l-3.1-1.07Z"/><path class="cls-15" d="M122,45.89c.28.13.57.24.86.35l.69,1.27-.72.71A2,2,0,0,1,122,48l-1.38-1.93Z"/><path class="cls-15" d="M123.53,47.51l1,1-.73.7-1-1Z"/><path class="cls-15" d="M125,49l-.58,1-.37,0a2.16,2.16,0,0,1-.29-.78l.73-.7A.94.94,0,0,1,125,49Z"/><path class="cls-19" d="M118.93,98.09c.35-1.37.71-2.73,1.07-4.1v5.87c1.42-3.69,3.09-5.86,7.29-3,1.07.72,3,.16,4.54.19L139,94c4.33.9,8.64,1.91,13,2.63a26,26,0,0,0,5.27-.16s0-.11,0-.11c2.92,0,5.85-.07,8.76.06,2.68.12,5.35.46,7.92.7V109c0,6.56-4.95,6.07-9.25,6.51l-5.25-11.7-1.28,1.55-5.05.65c-4.6-4.27-7-.23-9.62,2.77-4-5-4.61-5.15-10.76-2.86a2.64,2.64,0,0,0-.73.2,1.39,1.39,0,0,0-.43-.23c-.13,0-.38.09-.39.16q-.57,5.47-1.12,11v-11.9h-5.18l-3.84-.33-1.2,4.14-2.08-3.76L119,99A6.36,6.36,0,0,0,118.93,98.09Z"/><path class="cls-17" d="M126.54,55.19,129,56l1.12,1.08-.1,2.06c.34.93.67,1.86,1.11,3.1l-1.15.13c-1.2,2.3-2.08,4-2.95,5.66l-1.84-1.51-.43,1.35L127,68c-.41,3.65-3.63.34-4.86,2l-1-2c.11-.1.32-.25.3-.29A5.35,5.35,0,0,0,121,67l1-10.63,2.92-1.28Z"/><path class="cls-6" d="M124.92,55.1,122,56.38c-.09-1.11-.18-2.22-.29-3.49l-4.65-.79c0-2.25-.17-4.31-3.21-4.22L115.94,45l4.7,1.05L122,48l2.06,2,.37,0a1.75,1.75,0,0,1-.42.52C124.33,52,124.62,53.55,124.92,55.1Z"/><path class="cls-26" d="M140.21,90l8.17,1.55,0,1.48h-9.21C139.54,92,139.87,91,140.21,90Z"/><path class="cls-4" d="M129,91l-1-2.4,1.16-.19c-.06.85-.12,1.7-.17,2.56Z"/><path class="cls-13" d="M121,67a5.35,5.35,0,0,1,.44.62s-.19.19-.3.29A2.2,2.2,0,0,1,121,67Z"/><path class="cls-8" d="M120.64,46.06,115.94,45c-.1-.7-.21-1.4-.31-2.1l4,.93,2.39,2Z"/><path class="cls-6" d="M115.17,43l-1.77.17Z"/><path class="cls-13" d="M98.53,57l.18-.23,1.78-.21-2.3,2.79a3.87,3.87,0,0,0-.48-.59C98,58.15,98.26,57.57,98.53,57Z"/><path class="cls-8" d="M98.53,57c-.27.59-.55,1.17-.82,1.76L96,58.89Z"/><path class="cls-4" d="M200,60.23a33.17,33.17,0,0,1-3.07,3.09c-.31.25-1.2-.22-1.83-.37-.05-1.62-.11-3.24-.17-4.86.65-.66,1.29-1.32,1.93-2l2.27,0Z"/><path class="cls-6" d="M196,108c-1.35-.68-2.66-1.82-4.05-1.93-1.86-.14-3.79.5-5.7.81l-2.16-.63-3,0-3.82-1.73c1.32-1.17,2.74-3.4,4-3.31,4.7.37,9.32,1.55,14,2.28a11.3,11.3,0,0,0,3.2-.46l2.67-.42Z"/><ellipse class="cls-26" cx="163.5" cy="92" rx="4.05" ry="0.71"/><path class="cls-26" d="M193,92.06l1.92,0c-.29.64-.59,1.27-.88,1.91Z"/><path class="cls-26" d="M202.11,83.55l-1.64-1.75a5.17,5.17,0,0,1,1.34.34C202,82.23,202,82.7,202.11,83.55Z"/><path class="cls-26" d="M157.32,96.31s0,.1,0,.11c-.41-.72-.81-1.44-1.21-2.16l.75-.28Z"/><path class="cls-26" d="M197.28,81.39c0,.12-.08.35-.13.35a1.36,1.36,0,0,1-.42-.13c0-.12.08-.35.13-.35A1.36,1.36,0,0,1,197.28,81.39Z"/><path class="cls-6" d="M136.1,51.87l3.47-.14L142.8,54l-2.88,3.36-6-.3,1.2-.08,1.72-1c-.28-1-.57-2.07-.86-3.11a3.81,3.81,0,0,0-.07-.75Z"/><path class="cls-10" d="M135.13,56.93l-1.2.08-1-.4-1-.06c-.31.82-.61,1.64-.91,2.46l-1.06.1c0-.69.07-1.37.1-2.06V53.23c1-2.72,2.91-1.81,4.74-1.09l.08-.1-.31.35.15.45.68,2.19Z"/><path class="cls-8" d="M132.93,56.61l1,.4,6,.3a21.41,21.41,0,0,1-4.57,2.06c-1.35.29-2.86-.21-4.3-.36l.9-2.46C132.28,56.58,132.6,56.6,132.93,56.61Z"/><path class="cls-6" d="M139.18,51.16l-3.6-2.09h3.25c.12.42.25.85.38,1.28A1,1,0,0,1,139.18,51.16Z"/><path class="cls-15" d="M139.21,50.35c-.13-.43-.26-.86-.38-1.28.06-.36.12-.72.17-1.09.3.06.6.11.89.14C139.66,48.86,139.43,49.6,139.21,50.35Z"/><path class="cls-15" d="M218.05,102l-2.1-.79a3,3,0,0,1,.93-.2Z"/><path class="cls-8" d="M216.88,101a3,3,0,0,0-.93.2L214.66,100Z"/><path class="cls-9" d="M207.2,99.3,201,102.44Z"/><path class="cls-8" d="M230,107c0-.64.07-1.28.11-1.91C230,105.72,230,106.35,230,107Z"/><path class="cls-23" d="M167,153l-4.89,15L155,182l-3.81-5.74c-8.23,1.79-1.36,10.16-7,13.69,4.74-5.66-2.87-6.52-2.47-11l-5.53,5-3.31-4.8L126,182.4c.52.6,1.16,1.23,1.7,1.94.69.92,1.31,1.91,2,2.87-1.23,0-2.47,0-3.7-.05-.66,0-1.31-.1-2-.16l-5-2,4.54-1.76-.05-1L119,182l2-2,1.12-1,.77,0,1.75-1L123,176.89l3.11-8.32,1.12.38L126,164.82l-1.8-3.32,4.57-1.5H131a14.21,14.21,0,0,0,.54,1.4,24.82,24.82,0,0,1,4-1.27,57.71,57.71,0,0,1,6.31-.06c.18-.75.36-1.5.53-2.26-1.82-.89-3.56-2.14-5.48-2.6A81.53,81.53,0,0,0,128,154h-2c0-2.27,0-4.55,0-6.82l1.16-1.19h.71l1,.89h1.22l1-3c.26-.54.52-1.08,1.06-2.18.75,2.13,1.31,3.68,2.09,5.87l3.35-4.64,1.37,2c.1.73.19,1.46.29,2.19l2.34.63,2.57.17,4.85-.74c1.84,3.3,3.57,1.53,5.29-.12,3.22-3.08,5.18-2.72,7.77.93C163.4,149.9,165.35,151.36,167,153Zm-30,24.34c-.38-.34-.69-.84-1-.83s-.86.66-.8.81a5.22,5.22,0,0,0,1,1.19Z"/><path class="cls-17" d="M124,187c.66.06,1.31.14,2,.16,1.23,0,2.47,0,3.7.05-.66-1-1.28-2-2-2.87-.54-.71-1.18-1.34-1.7-1.94l6.82-3.29,3.31,4.8,5.53-5c-.4,4.49,7.21,5.35,2.47,11,5.66-3.53-1.21-11.9,7-13.69L155,182c-.64,2.68-1.27,5.35-1.91,8-1.48,3.35,1.37,4.27,3.32,5,2.55,1,3.88,2.25,3.69,5q-1,5-2.06,10c-1.67-.55-3.33-1.16-5-1.62-1.27-.35-2.6-.51-3.9-.75,0,1.46,0,2.91-.07,4.37a7.36,7.36,0,0,1-2.54,1c-4.15,0-8.35-.67-12.43-.23-2.43.26-4.7,2.11-7,3.24-1.83-2.73-3.25-5.91-5.62-8-1.76-1.57-5.09-2.6-5.38,2-2.34,2.56-4.67,1.71-7,0l-3,4-.06-.06-1.14-2.67L104,212l-3-2c0-.33,0-.66,0-1,.34-1.33.67-2.67,1-4l5-2c4.41.36,8.6.5,6.76-6.09-.07-.23.26-.57.4-.86h4.63c.66,2.41.62,6.07,2.14,6.89,2,1.09,5.19-.06,7.87-.25l.31-1.65L121,194.8C115.82,189.82,122.09,189.25,124,187Z"/><path class="cls-12" d="M167,153c-1.67-1.65-3.62-3.11-5-5-2.59-3.65-4.55-4-7.77-.93-1.72,1.65-3.45,3.42-5.29.12l3.06-1.18L147,145l0,0-.16-3.19,2.19-1.06-2.91-3.29,7.08-1.33c-2.51-4.07-6.68-1.15-9.69-2l-2,4.71c-2.08-3.41-3.86-6.36-6.61-.88-1.49-3.06-3-4.83-5.09-.9q-.8,3.54-1.6,7.08l-.4,1.84h-.71c-1.19-3.85,1.68-8.84-2-12l-2.1.39q.5,6.8,1,13.58L123,151l-6-5.67c1-1,2.42-1.76,2.88-2.93.67-1.73.65-3.72.93-5.6L120,135l-1-1.08c0-1.36,0-2.72-.07-4.08l0-1.83,0,0,1.14-2c3.19-4.3.53-6.26-3.13-7.82l3-4.1,1,3.72c3.34,3.07,6.43,3.35,9.12-.8q.56-5.48,1.12-11c0-.07.26-.17.39-.16a1.39,1.39,0,0,1,.43.23c0,3.76-.16,7.53-.06,11.3.08,2.82.54,3,3.18,1.47.19-1.32.37-2.63.48-3.38l7,4.4,2.43-1.15,6.88,1.1L150,122c0,.65,0,1.31-.05,2l0,0,1,1,0,0,3,6,0,0,7,10.13,7.8,8.9Z"/><path class="cls-6" d="M166.62,194c-4.37-2-3-10.15,2.32-18.82l1.31.21C169.07,181.47,167.89,187.51,166.62,194Z"/><path class="cls-6" d="M153.05,190c.64-2.68,1.27-5.35,1.91-8l7.17-14c-.2,2.13,0,4.4-.69,6.36a141.14,141.14,0,0,1-5.5,13C155.42,188.44,154,189.13,153.05,190Z"/><path class="cls-18" d="M179,164c.77-4.44,3.22-2.12,5.9-1.51l-3.66,2.91,4.5,1.66L181,169l-3-1,0,0C178.32,166.65,178.65,165.32,179,164Z"/><path class="cls-18" d="M178,168l-1.06.74-.26-.38L178,168Z"/><path class="cls-15" d="M214,165.05a5.9,5.9,0,0,0,.11.93l.93,8-3.07,3.1c-.62-.2-1.5-.22-1.8-.64C208.8,174.57,211.63,166.32,214,165.05Z"/><path class="cls-27" d="M191,178.9l-5-2.9a27.27,27.27,0,0,1,4,1.07C190.57,177.28,190.73,178.27,191,178.9Z"/><path class="cls-28" d="M207.38,195.27c.12-.28.18-.71.39-.79s.53.2.81.32c-.12.28-.18.71-.38.79S207.66,195.39,207.38,195.27Z"/><path class="cls-27" d="M189,172c0,.33,0,.66,0,1l-1-1c.33,0,.67,0,1,0Z"/><path class="cls-27" d="M188,181h0Z"/><path class="cls-27" d="M189,172l.24-.42c-.07.15-.14.29-.22.44Z"/><path class="cls-16" d="M127,216c2.33-1.13,4.6-3,7-3.24,4.08-.44,8.28.19,12.43.23a7.36,7.36,0,0,0,2.54-1c5.89-.69,5,3.48,5,7l-5.8,6.93-3-4.78-.29,1.23-12.54-.88-.2-1.39-2.28,2.83c.09-4.45-4.65-1.52-5.94-3.87l0-2.07Z"/><path class="cls-19" d="M124,217c0,.69,0,1.38,0,2.07l-5.61-.51-.25,3.36c-2.95,0-6,.38-8.84-.06-1.53-.23-2.85-1.85-4.27-2.85q.51-2.49,1-5l3-4c-1,5.85,2.56,6.46,7,6h3Z"/><path class="cls-4" d="M118.1,221.91l.25-3.36,5.61.51c1.29,2.35,6-.58,5.94,3.87Z"/><path class="cls-17" d="M106,214q-.5,2.5-1,5h-3v-3l2.09-2h.43l.42-.08,1,.05Z"/><path class="cls-23" d="M104.09,214,102,216c-1.34-.46-2.73-1.35-4-1.18-.59.08-.91,2.19-1.34,3.39-.54,1.5-1.07,3-1.63,4.58L88,221c-.35-1-.71-1.94-1.07-2.91L89,214.34l1.18-.3a6.58,6.58,0,0,0,7.8-1l3-3,3,2C104,212.66,104,213.31,104.09,214Z"/><path class="cls-20" d="M114,232c-.06.52-.11,1-.16,1.56C113.93,233,114,232.52,114,232Z"/><path class="cls-7" d="M89,214.34,87,218.09l-9.82,2L75.05,220l-.92-.78c-3-1.05-6-2-9-3.17A45,45,0,0,1,61,214l0-3,3-4,.88-.08L68,211h-.75l0,3,3.44-.05,1.38,0c.12-.1.37-.25.35-.29A4.39,4.39,0,0,0,72,213l0-1.08,1.95.27.39,1.15.64-.94,1.17-.4,2.44,1h2.05l4.82,0,.46-.6Z"/><path class="cls-29" d="M74.13,219.19l.92.78-.37,2.26h-.39Z"/><path class="cls-7" d="M77.07,220.91l3.14.3,0,.62L77,222C77,221.62,77.05,221.27,77.07,220.91Z"/><path class="cls-7" d="M76,227l-1,.78Z"/><path class="cls-13" d="M117,145.32l6,5.67c.19,1.82-.34,4.35,3,3h2l3,6h-2.24l-5.73-.91-1.17-1.56-.75,1.9a.51.51,0,0,1-.15.57l-4.36-.79-6.33-.06L94,159c0-1.68,0-3.37,0-5h26c-.81-2.66,4.27-1.77-26-1.89L92,150l4.33-2.44.38.24L98,146c1.21.07,2.43.07,3.64.21,2.13.24,4.25.57,6.37.87l3-1.11.89.86a1.13,1.13,0,0,0-.27.4c0,.12,0,.36.11.39,2.9,1.14,3.27-.68,3.32-2.86Z"/><path class="cls-29" d="M97.66,106l2.29-2.17,5.08.44c-.35,1-.71,1.95-1.07,2.92a18.48,18.48,0,0,0-3,2.66c-.39.53-.12,1.6-.09,2.42,0,1.13.14,2.26.25,4.12.91-.86,1.31-1.45,1.87-1.71a18.42,18.42,0,0,1,2.7-.84c.18.85.81,2.07.46,2.48-1.18,1.42-2.7,3.53-4.11,3.55-1.66,0-3.35-1.86-5-2.92-.48-1.48-1-3-1.88-5.82V118a26,26,0,0,1-3.68,1.3c-.49.1-1.29-1-1.7-.81-10.13,3.67-4.26-4.75-5.52-7.55-.74-1.66-.16-3.89-.18-5.87,1.67-.77,2.27-.52,6.62,2.86-.23-1.53-.42-2.69-.6-3.86l4.85,1,.18,2.91.21,3.15c.89-2.23,1.27-3.17,1.65-4.1Z"/><path class="cls-29" d="M108,147.09c-2.12-.3-4.24-.63-6.37-.87-1.21-.14-2.43-.14-3.64-.21l-1.27,1.79-.38-.24c-3.29.23-7.42,2.45-8.34-3.69l6.37,2c-1.08-4.7-10.19-4.85-4.85-10.73,1.3-1.43,4.54-1.11,6.89-1.59L97,135.2l-2.2,3.55L99,143.6c.48-2.4.75-4,1.11-5.54.92-4,3.09-5.14,6.15-3.16-3.58,2.83-4.78,6.07-1.85,10.37l5.1-2.74Z"/><path class="cls-29" d="M120,114.09l-3,4.1c-2.09.4-5.64,1.68-6,1a25.56,25.56,0,0,1-2.79-8.49c-.27-1.48.52-3.15.83-4.73,2.31-3.42,5.1-3,8.09-1a1.35,1.35,0,0,0,.71.16c.69,1.26,1.39,2.51,2.08,3.76C119.92,110.65,119.94,112.37,120,114.09Zm-6.76,1.4.51-.16v-7.46l-.51,0Z"/><path class="cls-29" d="M70.86,113c.35-6.68,2.08-9.12,7.06-10,3.86,4.13,3.68,9,1.88,13.74-1,2.76-3.71,4-6.81,2.21Zm5.36,1.42h.49v-6.7h-.49Z"/><path class="cls-3" d="M63,160l-2.89,2.11-.88-.71L66,150c.65-.94,1.31-1.87,2-2.81l1.3-5.22a16.52,16.52,0,0,0,3.85-1.43A30.41,30.41,0,0,0,76.87,137l.21,10c-3.39,2-7,3.7-10.07,6.15C65.45,154.38,65,157,64,159Z"/><path class="cls-12" d="M108,147.09l1.51-4.56-5.1,2.74c-2.93-4.3-1.73-7.54,1.85-10.37,1.6-3.14,3,.11,4.5.13.12,1.29.25,2.58.37,3.87q0,3.54-.11,7.08Z"/><path class="cls-29" d="M69.28,142q-.66,2.61-1.3,5.22a1.65,1.65,0,0,0-.63.06l-6.53-1.35q.16-5.46.32-10.9l2.94,1.08c0,2.46-.14,4.93,0,7.38,0,.3,1.37.51,2.1.77l-.05-7.39A4.81,4.81,0,0,0,66,136a5.14,5.14,0,0,1,0-.88C71.12,135.4,67.87,139.83,69.28,142Z"/><path class="cls-29" d="M77.08,147l-.21-10c0-4,2.85-2.91,5.13-2.79l-2,2.51.18,2.19c.86.92,1.72,1.84,2.57,2.77l-2.55,2c1.07.81,2.15,1.61,3.22,2.43a.44.44,0,0,1,.13.41,5.59,5.59,0,0,1-.5.7Z"/><path class="cls-12" d="M108,130l1.53-7.12c3.35,5.24,3.06,6.25-1.49,7.16Z"/><path class="cls-4" d="M111.14,138.9c-.12-1.29-.25-2.58-.37-3.87.08-.4.17-.8.26-1.19l4.89-.08,1.06-.08,1,0,1.08.25,1,1.08c-.3.05-.6.08-.9.1L117,136.36l-2.67,1-1.38-2.93Z"/><path class="cls-15" d="M96.06,128.06l-3.07.53c0-2.69-.87-5.94,3.87-3.88C96.59,125.82,96.32,126.94,96.06,128.06Z"/><path class="cls-25" d="M80,136.73l2-2.51,3.58,1.11-1.5,1.58-3.21-.2-.33,0A1.51,1.51,0,0,0,80,136.73Z"/><path class="cls-12" d="M95.16,118v-6.87c.92,2.86,1.4,4.34,1.88,5.82Z"/><path class="cls-12" d="M96.06,128.06c.26-1.12.53-2.24.8-3.35.07,1.51.14,3,.2,4.55L96,128Z"/><path class="cls-25" d="M82.73,141.69c-.85-.93-1.71-1.85-2.57-2.78l3.71.24Z"/><path class="cls-7" d="M117,128.77c.22-1.28.43-2.55.65-3.83L119,128l0,0Z"/><path class="cls-10" d="M119.06,133.9l-1.07-.25c-.31-.92-.61-1.83-.91-2.75,0-.25,0-.5,0-.75l1.95-.33C119,131.18,119,132.54,119.06,133.9Z"/><path class="cls-9" d="M83.87,139.15l-3.71-.24L80,136.73a1.51,1.51,0,0,1,.56,0Z"/><path class="cls-20" d="M115.92,133.76l-4.89.08Z"/><path class="cls-15" d="M119,128l-1.38-3.1,2.52,1.07Z"/><path class="cls-15" d="M119,129.82l-1.95.33c0-.46-.06-.92-.08-1.38L119,128C119,128.6,119,129.21,119,129.82Z"/><path class="cls-2" d="M80.87,136.71l3.21.2Z"/><path class="cls-20" d="M117.08,130.9c.3.92.6,1.83.91,2.75l-1,0C117,132.76,117,131.83,117.08,130.9Z"/><path class="cls-8" d="M96,128l1,1.25Z"/><path class="cls-12" d="M108,130l-.26.41L108,130Z"/><path class="cls-17" d="M116.6,159.21,121,160l1.17,6.57a21.78,21.78,0,0,0,1.22,2.23,6.4,6.4,0,0,0,1.17-.5l-.79-1.51,2.26-2,1.22,4.13-1.12-.38c-1,2.77-2.08,5.55-3.11,8.32,0,.71,0,1.43-.07,2.14l-.77,0L121,177l-.79,0a5.18,5.18,0,0,1-.2-.95l1.73-3.41-1.06-.72c-1.24,1.05-4.61.24-2.64,4.1l0,0-.94.84-2,.19-.49-2.45L111,177c0-.33,0-.66-.05-1v-3.58h-1.54L109,176l-3,3.16-3-2.8c.59-2.57,1-4.31,1.54-6.64A26.69,26.69,0,0,1,100,171.5a14.52,14.52,0,0,1-3.73-.34,13.37,13.37,0,0,0,2.3,2.9c3.18,2.27,4.2,8,1.69,9.94-1.45,1.11-2.7,2.46-3.9,3.57L90.73,186,88,185l.07-.06L87,185,86,186h-.91L85,184c0-.33,0-.66,0-1,2-1.38,4.17-2.62,6-4.18,2.93-2.42,3.75-10.26,1-11.39-3.49-1.43-2.93-3.89-3-6.45l5-2,16.25.14v8.45c2.57-6.55,5.51-1.5,8.81-.09C118.09,164.18,117.35,161.7,116.6,159.21Zm-16.52,1c-.4.51-.83.81-.86,1.15s.29.82.46,1.23c.39-.36.91-.66,1.12-1.1C100.9,161.24,100.43,160.75,100.08,160.17Zm.55,6.1c-.11-.29-.15-.73-.35-.82s-.55.18-.84.29c.11.29.15.73.36.82S100.35,166.38,100.63,166.27Z"/><path class="cls-21" d="M89,161c.09,2.56-.47,5,3,6.45,2.77,1.13,2,9-1,11.39-1.88,1.56-4,2.8-6,4.18l-3,1,0,1-6.2,1L73,193l-3-5.36-1.66-1.11,4.07-5.38,2.12,1.05L68,179a42.26,42.26,0,0,0,3.58-3.63c.19-.22-.63-1.26-1-1.92l-3.3,2.13L64,173c.6-5.09,1.21-10.18,1.86-15.66l7.34-.7c.57,3.29.31,6.31,1.68,8.07.9,1.17,4.33.82,4.1-2.68l0,0c1,1.33,2,2.68,3,4,.54.67,1.18,1.24,1.78,1.86a8.52,8.52,0,0,0,1.31-2.56c.18-1.28-.09-2.63.86-4.85a10.46,10.46,0,0,0,0,1.25c0,.48.18,1,1.52,2.61Zm-4.87,15.13L78,176.05l-1.23,3.8,4.63-.81.31,0,4.07-.11Z"/><path class="cls-13" d="M68,179l6.5,3.19-2.12-1.05-4.07,5.38L70,187.65,73,193l0,1-4,2c-1-1.33-2-2.67-3-4,.14-2.41-.68-3.38-3.05-2,.3-1.06.27-2.53,1-3.11,3.58-2.95,2-4.19-1.31-5.64S58.8,177.42,62,175c.28,1,.57,2,.85,3l2,1Z"/><path class="cls-9" d="M94,152.07c30.29.12,25.21-.77,26,1.89H94l-1.59-.72Z"/><path class="cls-17" d="M68,179l-3.13-.08-2-1c-.28-1-.57-2-.85-3l2-2,3.3,2.61,3.3-2.13c.36.66,1.18,1.7,1,1.92A42.26,42.26,0,0,1,68,179Z"/><path class="cls-21" d="M79,162l-3.91,1.59,1.24-3.16L79,162Z"/><path class="cls-4" d="M60.82,145.91l6.53,1.35-1.34.87a22.32,22.32,0,0,1-4.19-.24C61.36,147.78,61.15,146.6,60.82,145.91Z"/><path class="cls-21" d="M66,148.13l1.34-.87a1.65,1.65,0,0,1,.63-.06c-.66.94-1.32,1.87-2,2.81Z"/><path class="cls-21" d="M81.61,161.28c-.12,0-.35-.08-.35-.13a1.41,1.41,0,0,1,.13-.43c.12.05.35.09.35.13A1.13,1.13,0,0,1,81.61,161.28Z"/><path class="cls-21" d="M63,160l1-1Z"/><path class="cls-17" d="M65,108c-1.17,3.64,2.11,4.38,4,6.06l-5.26.93Z"/><path class="cls-17" d="M66.18,144.24c-.73-.26-2.08-.47-2.1-.77-.14-2.45,0-4.92,0-7.38L66,136a4.81,4.81,0,0,1,.17.84C66.15,139.31,66.16,141.77,66.18,144.24Z"/><path class="cls-23" d="M73,194l0-1c.89-2.25,1.79-4.5,2.76-6.94l6.2-1c-.33,1.36-.67,2.72-1,4.08l2,.88h0c3.14,1.31,4.77,3.47,4,7l-.22.41L87,197l7-1,1,.29c0,.62,0,1.24,0,1.87.27.6.65,1.75.81,1.72,1.68-.31,3.33-.82,5-1.27l-4.7,9.52L102,205c-.34,1.34-.67,2.68-1,4l-3,3-8-1,0,0-.44-1.28c-.2.38-.39.77-.59,1.16l-3,1.55-.46.59-1.59-.44a1.56,1.56,0,0,0-.74-.55l-4.33-1L78,210l-6.76-5.37C75.57,200,76,196.77,73,194Zm5.07,3.36,5.67,1.6v-2.8Z"/><path class="cls-9" d="M70.69,213.94l-3.44.05c0-1,0-2,0-3H68c.24.62.48,1.24.71,1.86l1.19-1.67a2.89,2.89,0,0,1,.82-.15C70.7,212,70.69,213,70.69,213.94Z"/><path class="cls-11" d="M78,210l.85,1c-.08.68-.15,1.37-.22,2.06l-2.44-1c-.06-.44-.12-.89-.19-1.34Z"/><path class="cls-9" d="M76,210.67c.07.45.13.9.19,1.34l-1.17.4-1-.21L72,211.93c0-.31,0-.62,0-.93h.06a2.4,2.4,0,0,0,.86-.35Z"/><path class="cls-10" d="M72,211c0,.31,0,.62,0,.93L72,213a4.52,4.52,0,0,0,.06,1l-1.38,0c0-1,0-1.91,0-2.87Z"/><path class="cls-8" d="M69.88,211.22c-.39.56-.79,1.11-1.19,1.67.13-.62.26-1.24.38-1.86A1.21,1.21,0,0,1,69.88,211.22Z"/><path class="cls-7" d="M69.07,211c-.12.62-.25,1.24-.38,1.86-.23-.62-.47-1.24-.71-1.86Z"/><path class="cls-11" d="M72.94,210.65a2.4,2.4,0,0,1-.86.35Z"/><path class="cls-12" d="M64,207l-3,4C58.9,207.32,61,206.79,64,207Z"/><path class="cls-29" d="M152,119.87l-6.88-1.1c-.34-.9-.67-1.8-1-2.71h0l2.17-1,3.27,1,.35-1.25-3.8-.88,0,0-2.2-3.08-2,2c-2.63,1.33-.82,2.64,0,4l.73,3.11-7-4.4c-.11.75-.29,2.06-.48,3.38-.74-1.1-2-2.14-2.12-3.3-.35-3.19-.21-6.44-.27-9.67,6.15-2.29,6.78-2.14,10.76,2.86,2.59-3,5-7,9.62-2.77-.8,1-1.66,2-2.35,3.13a6.14,6.14,0,0,0-.49,1.86l2.57,2.12v0l-.09,5.83Z"/><path class="cls-12" d="M153.74,128.07l4.65-2.55c-.18,3.88-.31,6.79-.45,9.69-1.31-1.41-2.63-2.81-3.95-4.22l0,0Z"/><path class="cls-9" d="M154,131c1.32,1.41,2.64,2.81,3.95,4.22l3.09,5.91Z"/><path class="cls-12" d="M152.8,118.92l.09-5.83,3,3.34Z"/><path class="cls-9" d="M153.74,128.07,154,131l-3-6Z"/><path class="cls-12" d="M152.9,113.13,150.33,111Z"/><path class="cls-9" d="M150,124c0-.66,0-1.32.05-2C150,122.67,150,123.33,150,124Z"/><path class="cls-9" d="M151,125l-1-1Z"/><path class="cls-18" d="M184.05,106.26l2.16.63Z"/><path class="cls-24" d="M193,131a2.49,2.49,0,0,1,0,1,4,4,0,0,1-.36-.71C192.59,131.23,192.84,131.1,193,131Z"/><path class="cls-20" d="M211,119l2.71-1.3c0,.67.11,1.4.17,2.14l-1.24.65-2.13-.62A2.51,2.51,0,0,1,211,119Z"/><path class="cls-15" d="M212.67,120.49l1.24-.65L215,120l-.05,0-.72,3.12L212,124.54C212.21,123.19,212.44,121.84,212.67,120.49Z"/><path class="cls-15" d="M215,120l.19-.39L215,120Z"/><path class="cls-2" d="M117.82,105.17a1.35,1.35,0,0,1-.71-.16c.63-2,1.25-4,1.88-6.05Z"/><path class="cls-8" d="M105,104.26l-5.08-.44c0-.23.08-.45.1-.68l3-.28,1.89.6A7,7,0,0,0,105,104.26Z"/><path class="cls-17" d="M104.92,103.46l-1.89-.6c0-1,0-1.9,0-2.85h0Z"/><path class="cls-30" d="M120.05,81.16l.89.71Z"/><path class="cls-22" d="M103,100c0,.95,0,1.9,0,2.85l-3,.28Z"/><path class="cls-17" d="M97.66,106c-.22.34-.45.68-.67,1l-1.86,1L95,105.06Z"/><path class="cls-10" d="M124.92,55.1c-.3-1.55-.59-3.09-.89-4.63q1.26,2.36,2.51,4.72Z"/><path class="cls-9" d="M130.09,53.23v3.82L129,56C129.35,55.06,129.72,54.14,130.09,53.23Z"/><path class="cls-6" d="M134.83,52.14l1.27-.27-.18.21-1,0Z"/><path class="cls-10" d="M124.08,50,122,48a2,2,0,0,0,.79.23l1,1A2.16,2.16,0,0,0,124.08,50Z"/><path class="cls-29" d="M130.12,117c-2.69,4.15-5.78,3.87-9.11.8l.09-13,3.84.33v9.58h1.12v-9.6h4.06Z"/><path class="cls-4" d="M132.79,105.93c.06,3.23-.08,6.48.27,9.67.12,1.16,1.38,2.2,2.12,3.3-2.64,1.5-3.1,1.35-3.18-1.47-.1-3.77,0-7.54.06-11.3A2.64,2.64,0,0,1,132.79,105.93Z"/><path class="cls-4" d="M121.1,104.79l-.09,13c-.36-1.24-.71-2.48-1.06-3.72,0-1.72,0-3.44,0-5.16Z"/><path class="cls-12" d="M126.06,105.11v9.6h-1.12v-9.58Z"/><path class="cls-13" d="M127,68l-2.27-.16.43-1.35L127,68Z"/><path class="cls-15" d="M135.43,55c-.22-.73-.45-1.46-.67-2.19H136l.87,3.11Z"/><path class="cls-8" d="M135.43,55l1.43.91-1.73,1Z"/><path class="cls-8" d="M136,52.83h-1.23l-.16-.45.31-.35,1,0A3.81,3.81,0,0,1,136,52.83Z"/><path class="cls-9" d="M132.93,56.61c-.33,0-.65,0-1-.06Z"/><path class="cls-13" d="M94,196l-7,1h0c.78-3.54-.85-5.7-4-7l2.06-4H86l.87,1,1.79,2,2.09-3,5.6,1.54c1.2-1.11,2.45-2.46,3.9-3.57,2.51-1.93,1.49-7.67-1.69-9.94a13.37,13.37,0,0,1-2.3-2.9,14.52,14.52,0,0,0,3.73.34,26.69,26.69,0,0,0,4.68-1.76c-.54,2.33-1,4.07-1.54,6.64l3,2.8,3-3.16h2c0,.33,0,.66.05,1,.92,1.94,2,3.35,4,1l5.15-1.05.79,0c0,1,0,2,0,3l-2,2c0,1,0,2,0,3l5,2c-1.91,2.25-8.18,2.82-3,7.8L118.79,196h-4.63l-9.3-1.6c.91,3.65,1.53,6.1,2.14,8.55l-5,2-5.85,3.12,4.7-9.52C100.52,192.63,97,195.15,94,196Zm9.21,4.24.78.2.49-1.8-.84-.22Z"/><path class="cls-29" d="M129.88,137.06c2.06-3.93,3.6-2.16,5.09.9,2.75-5.48,4.53-2.53,6.61.88l2-4.71c3,.84,7.18-2.08,9.69,2l-7.08,1.33,2.91,3.29-2.19,1.07c.06,1.06.11,2.12.16,3.18l0,0,5.06,1.08L149,147.21l-4.85.74L143,146.17l-1.45,1.61-2.34-.64c-.1-.73-.19-1.46-.29-2.18l-1.37-2-3.35,4.64c-.78-2.19-1.34-3.74-2.09-5.87-.54,1.1-.8,1.64-1.06,2.18a2.76,2.76,0,0,1-.89.26l-.71-.62Zm7.5,3.7-.14.43.6,0a1.24,1.24,0,0,0-.11-.44C137.68,140.73,137.5,140.77,137.38,140.76Z"/><path class="cls-17" d="M131,160l-3-6a81.53,81.53,0,0,1,8.85,1.22c1.92.46,3.66,1.71,5.48,2.6-.17.76-.35,1.51-.53,2.26a57.71,57.71,0,0,0-6.31.06,24.82,24.82,0,0,0-4,1.27A14.21,14.21,0,0,1,131,160Z"/><path class="cls-29" d="M124.07,148l-1-13.58,2.1-.39c3.66,3.17.79,8.16,2,12L126,147.18Z"/><path class="cls-29" d="M126,164.82c-.76.65-1.51,1.31-2.26,2l-1.6-.22L121,160a.51.51,0,0,0,.15-.57l1.92-.34,5.73.91-4.57,1.5Z"/><path class="cls-17" d="M124.07,148l1.94-.77c0,2.27,0,4.55,0,6.82-3.35,1.34-2.82-1.19-3-3Z"/><path class="cls-17" d="M119,185c0-1,0-2,0-3l4.51.22.05,1Z"/><path class="cls-17" d="M137,177.35l-.8,1.17a5.22,5.22,0,0,1-1-1.19c-.06-.15.51-.8.8-.81S136.63,177,137,177.35Z"/><path class="cls-9" d="M141.59,147.78l1.45-1.61,1.12,1.78Z"/><path class="cls-9" d="M122.91,179c0-.71,0-1.43.07-2.14l1.68,1.13Z"/><path class="cls-25" d="M139,145c.1.72.19,1.45.29,2.18C139.15,146.42,139.06,145.69,139,145Z"/><path class="cls-25" d="M130.2,144.17a2.76,2.76,0,0,0,.89-.26l-1,3Z"/><path class="cls-29" d="M130.2,144.17l-.12,2.71h-1.22c0-.92-.07-1.84-.1-2.76a4.34,4.34,0,0,0,.72-.56Z"/><path class="cls-25" d="M128.76,144.11c0,.92.07,1.84.1,2.76l-1-.89c.13-.61.27-1.23.4-1.84Z"/><path class="cls-4" d="M121,180c0-1,0-2,0-3l1.17,2Z"/><path class="cls-29" d="M107,203c-.61-2.45-1.23-4.9-2.14-8.55l9.3,1.6c-.14.29-.47.63-.4.86C115.6,203.47,111.41,203.33,107,203Z"/><path class="cls-23" d="M124,217l-5-1c-.64-2.18,1.87-5.93-3-6h0c.29-4.63,3.62-3.6,5.38-2,2.37,2.12,3.79,5.3,5.62,8Z"/><path class="cls-29" d="M118.79,196,121,194.8l8.11,6.2-.31,1.65c-2.68.19-5.89,1.34-7.87.25C119.41,202.08,119.45,198.42,118.79,196Z"/><path class="cls-23" d="M116,216c-4.45.46-8-.15-7-6,2.34,1.71,4.67,2.56,7,0h0Z"/><path class="cls-19" d="M98,212l3-3c0,.33,0,.66,0,1l-3,3C98,212.67,98,212.34,98,212Z"/><path class="cls-8" d="M104.09,214c0-.65-.09-1.3-.13-2l.85-.74c0,.88.09,1.75.13,2.62l-.42.08Z"/><path class="cls-9" d="M104.94,213.89c0-.87-.09-1.74-.13-2.62.37.89.75,1.78,1.13,2.67Z"/><path class="cls-29" d="M111.14,138.9l1.76-4.47c.67,1.41,1,2.17,1.38,2.93l1.35,3.5c2.55-.32,4.4-1,2.24-4l-.92-.5,2.17-1.28,1.72,1.71c-.28,1.88-.26,3.87-.93,5.6-.46,1.17-1.88,2-2.88,2.93l-2-.55c-.36-.08-.9-.35-1-.21-.76.7-1.42,1.51-2.11,2.28L111,146Q111.09,142.44,111.14,138.9Z"/><path class="cls-4" d="M128.76,144.11l-.48,0q.81-3.54,1.6-7.08l-.39,6.49A4.88,4.88,0,0,1,128.76,144.11Z"/><path class="cls-9" d="M142.65,119.92l-.72-3.11,2.14-.75c.34.91.67,1.81,1,2.71Z"/><path class="cls-4" d="M152.07,146,147,145Z"/><path class="cls-4" d="M147,145c0-1.06-.1-2.12-.16-3.18C146.94,142.87,147,143.93,147,145Z"/><path class="cls-25" d="M120.84,136.79l-1.72-1.71c.3,0,.6-.05.9-.1C120.29,135.59,120.56,136.19,120.84,136.79Z"/><path class="cls-17" d="M116,216v-6c4.87.07,2.36,3.82,3,6Z"/><path class="cls-7" d="M98,212c0,.32,0,.65,0,1a6.58,6.58,0,0,1-7.8,1L90,211Z"/><path class="cls-9" d="M90,211l.18,3-1.18.3-3.07-2,3-1.54,1,.12Z"/><path class="cls-9" d="M78.63,213c.07-.69.14-1.38.22-2.06l4.32,1c-.17.23-.34.45-.5.68l1.24-.13,1.59.44-4.82,0H78.63Z"/><path class="cls-10" d="M67.23,211c0,1,0,2,0,3C67.24,213,67.24,212,67.23,211Z"/><path class="cls-11" d="M74,212.2l1,.21c-.21.32-.42.63-.64.94Z"/><path class="cls-11" d="M72.07,214a4.52,4.52,0,0,1-.06-1,4.39,4.39,0,0,1,.41.68S72.19,213.88,72.07,214Z"/><path class="cls-11" d="M80.35,213h0Z"/><path class="cls-29" d="M116.6,159.21c.75,2.49,1.49,5,2.48,8.3-3.3-1.41-6.24-6.46-8.81.09v-8.45Z"/><path class="cls-4" d="M111.92,146.84c.69-.77,1.35-1.58,2.11-2.28.15-.14.69.13,1,.21,0,2.18-.42,4-3.32,2.86-.08,0-.14-.27-.11-.39A1.13,1.13,0,0,1,111.92,146.84Z"/><path class="cls-17" d="M123,159.09l-1.92.34.75-1.9Z"/><path class="cls-17" d="M96.73,147.8,98,146Z"/><path class="cls-12" d="M95.13,108,97,107c-.38.93-.76,1.87-1.65,4.1Z"/><path class="cls-17" d="M113.19,115.49v-7.6l.51,0v7.46Z"/><path class="cls-12" d="M76.22,114.43v-6.69h.49v6.7Z"/><path class="cls-3" d="M66.18,144.24c0-2.47,0-4.93-.05-7.39C66.15,139.31,66.16,141.77,66.18,144.24Z"/><path class="cls-20" d="M117,136.36l.92.5q-1.11,2-2.24,4l-1.35-3.5Z"/><path class="cls-2" d="M85.07,186,83,190h0l-2-.88c.33-1.36.67-2.72,1-4.08,0-.35,0-.7,0-1h3Z"/><path class="cls-23" d="M118,176c-2-3.86,1.4-3.05,2.64-4.1l1.06.72c-.58,1.13-1.15,2.27-1.73,3.41Z"/><path class="cls-29" d="M90.73,186l-2.09,3-1.78-2L87,185,88,184.9v2.68l1.06-.3L88,185Z"/><path class="cls-23" d="M115,178c-2,2.33-3.07.92-4-1l3.52-2.4c.14.68.31,1.57.49,2.45C115,177.37,115,177.69,115,178Z"/><path class="cls-11" d="M115,178c0-.33,0-.65,0-1l2-.19L118,176l0,0,2,0a5.18,5.18,0,0,0,.2.95Z"/><path class="cls-23" d="M111,176h-2c.14-1.2.29-2.4.44-3.6H111Z"/><path class="cls-13" d="M100.08,160.17c.35.58.82,1.07.72,1.28-.21.44-.73.74-1.12,1.1-.17-.41-.49-.83-.46-1.23S99.68,160.68,100.08,160.17Z"/><path class="cls-23" d="M122.13,166.57l1.6.22.79,1.51a6.4,6.4,0,0,1-1.17.5A21.78,21.78,0,0,1,122.13,166.57Z"/><path class="cls-13" d="M100.63,166.27c-.28.11-.64.38-.83.29s-.25-.53-.36-.82c.29-.11.64-.38.84-.29S100.52,166,100.63,166.27Z"/><path class="cls-13" d="M85,184H82l3-1C85,183.33,85,183.66,85,184Z"/><path class="cls-2" d="M87,185,86.86,187c-.3-.33-.59-.67-.88-1Z"/><path class="cls-23" d="M118,176l-.95.84Z"/><path class="cls-3" d="M78,176.05l6.19.06L81.66,179l-.31,0Z"/><path class="cls-9" d="M78,176.05l3.4,3-4.63.81Z"/><path class="cls-9" d="M81.66,179l2.48-2.88,1.59,2.77Z"/><path class="cls-4" d="M62.85,178l2,1Z"/><path class="cls-29" d="M94,196c2.93-.84,6.5-3.36,6.83,2.61-1.66.45-3.31,1-5,1.27-.16,0-.54-1.12-.81-1.72l3.4-1.14-.49-.69-3,0Z"/><path class="cls-29" d="M83.72,198.94l-5.67-1.6Z"/><path class="cls-12" d="M83.72,198.94l-5.67-1.6,5.67-1.2Z"/><path class="cls-12" d="M98.45,197l-3.4,1.14c0-.63,0-1.25,0-1.87l3,0A1.06,1.06,0,0,0,98.45,197Z"/><path class="cls-13" d="M81,189.11l2,.88Z"/><path class="cls-7" d="M83.91,212.55l-1.24.13c.16-.23.33-.45.5-.68A1.56,1.56,0,0,1,83.91,212.55Z"/><path class="cls-7" d="M90,211l-1-.12c.2-.39.39-.78.59-1.16Z"/><path class="cls-13" d="M87,197l-.22.41L87,197Z"/><path class="cls-12" d="M144.07,116.06l-2.14.75c-.85-1.31-2.66-2.62,0-4l2.16,3.19Z"/><path class="cls-9" d="M144.06,116.05l-2.16-3.19,2-2,2.2,3.08,0,0,.18,1.08Z"/><path class="cls-12" d="M146.23,115l-.18-1.08,3.8.88-.35,1.25Z"/><path class="cls-12" d="M146.09,114l-2.2-3.08Z"/><path class="cls-23" d="M103.23,200.23l.43-1.82.84.22-.49,1.8Z"/><path class="cls-25" d="M137.38,140.76c.12,0,.3,0,.35,0a1.24,1.24,0,0,1,.11.44l-.6,0Z"/><path class="cls-4" d="M115.63,140.86q1.13-2,2.24-4C120,139.82,118.18,140.54,115.63,140.86Z"/><path class="cls-12" d="M88,185l1.13,2.32-1.06.3V184.9Z"/><path class="cls-9" d="M98.45,197a1.06,1.06,0,0,1-.49-.69Z"/></g></g></svg>