<svg xmlns="http://www.w3.org/2000/svg" viewBox="0 0 300 300"><defs><style>.cls-1{fill:#fdfdfd;}.cls-2{fill:#655839;}.cls-3{fill:#5d5946;}.cls-4{fill:#67624d;}.cls-5{fill:#60502f;}.cls-6{fill:#14110c;}.cls-7{fill:#423422;}.cls-8{fill:#444138;}.cls-9{fill:#6e6648;}.cls-10{fill:#72633f;}.cls-11{fill:#231f17;}.cls-12{fill:#342719;}.cls-13{fill:#655a3f;}.cls-14{fill:#55492d;}.cls-15{fill:#5b533f;}.cls-16{fill:#a7805a;}.cls-17{fill:#72542f;}.cls-18{fill:#dfc939;}.cls-19{fill:#c3b550;}.cls-20{fill:#c4d3d2;}.cls-21{fill:#bdd0d0;}.cls-22{fill:#604425;}.cls-23{fill:#857135;}.cls-24{fill:#d1cebe;}.cls-25{fill:#d8d7cd;}.cls-26{fill:#d1bea2;}.cls-27{fill:#b09a7a;}.cls-28{fill:#81939d;}.cls-29{fill:#c5cdc5;}.cls-30{fill:#d0c170;}</style></defs><g id="Layer_2" data-name="Layer 2"><g id="Layer_1-2" data-name="Layer 1"><path class="cls-1" d="M0,0H300V300H0ZM125.12,284h.08l3.83,1.14,2,.17,2,.48,27.19,1,3-.4,1.89-.22.79-.1c13.13-2.2,24.69-7.08,32.1-19,1.14-2.65,2.29-5.3,3.55-8.2l4.51,2.23,2.07,2.38,1.05,3.9-4.85,2.91.2.81h3.63l1.09,0,.39.24.37-.25,3.07.06h25l-4.81-4L232.75,246l.09-4.7-.09-59.34-.08-1.73c.07-.76.15-1.52.22-2.29l-.12-3.69c.06-14,.23-28,.16-41.94-.06-10.14-.42-20.27-.65-30.41l.3-4.72,4.26-2.92L233.15,93c0-.94,0-1.87,0-2.81l1-.69c.33-.82,1.17-2.09.91-2.39a13.32,13.32,0,0,0-3-2q-.15-8.53-.29-17.06l0-1,.12-7.95L232,48c0-1.66,0-3.33,0-5,0-2,0-4-.05-6V27l0-1,.07-2,4.31-4.18c-6.68-.21-13.36-.46-20-.61-4-.08-8,0-12.07,0L204,20.55l3.82,2.59h.09c.34.64.68,1.29,1,1.93l-.08,1.81c-3.39,3.29-7.05,6.34-12.08,4-1.55-.7-2.36-3-3.52-4.63a45.66,45.66,0,0,1,4.92-3.22c.8-.4,2-.07,3-.07l.18-1.74L165.06,16l-5.23-.6a.49.49,0,0,0-.48-.17l-2.59-.68-3.7-.61-11,1-9.14,2.95c-11-1-21.74.55-32.67,4l5.5,1.16.9,1.25v.07c-.78,7-5.77,8.65-13.2,4.35l-2.19-4.63,6.64-5H63.63C69.19,22,66.26,27.08,67.22,31Q67.61,42,68,53l.09,26,.81,3.33.82.75-2.62,2.11-3,2L66,88l-.64,6L67,95v.09l.75,7.37c0,1,0,2.06-.07,3.09L67,178.11c-.17,15.77-.4,31.53-.5,47.3-.08,13.6,0,27.2,0,40.8-1,1.77-2,3.53-2.83,5.09H96.09L92,266.17l0-3,2-4.1,4.92-.72c1.08,3.55,1.56,7.46,3.38,10.59,4.52,7.79,11.86,12.12,20.36,14.6Z"/><path class="cls-2" d="M206,261.14l-4.51-2.23c-1.26,2.9-2.41,5.55-3.55,8.2q-.27-4.11-.52-8.24l1.4-.18-2.59-3.44c-1.4,2.92-2.73,5.66-4,8.41-.71.46-1.42.92-1.25.8-.72-2.72-1.32-5-1.68-6.4l-8.84-.59,3.54,5.55-3,1.77a40.57,40.57,0,0,0,1.75,5.69,13.46,13.46,0,0,0,2.57,2.85c-3.87,2-7.74,4.07-11.6,6.14-1.54.83-3,1.73-4.56,2.61L147,284.14a26.5,26.5,0,0,0-4.11-1.08c-3.29-.33-6.59-.46-9.88-.67l-14-5,1.11-1.2,4-2c5.2,1.18,5.9-4.25,8.58-6.51.83-.7,1.77-2.65,3.36-3.48.3,1.63.61,3.26.91,4.88l4.07,4.07h1.2l0,0a1.91,1.91,0,0,0,0,.95l.93,3c4.83,3.74,9.17,4,14.05.93a15.08,15.08,0,0,0,6-16.83c3.83.52,5.33-1.29,4.92-5,.07-.15.15-.29.22-.43l-.23.42c-3.14,2.16-5.37,1.52-6.69-2l4.21-3.45L161.94,244c-.49,2.31-.67,3.2-.86,4.08l0,0-5.84.38c.3,1.9.59,3.79.89,5.68L153,253.05l-2.94-1.91,4-10c3.91-3.86,4-4.84,12.55,3.94.45-.85.91-1.73,1.38-2.6-1.24,8.07,7.9,3.75,9.28,8.44a39.7,39.7,0,0,0,1.86-5.33c1.6-5,3.42-5.66,8.6-4,1.47.47,3.5-.87,5.26-1.38.7-.1,1.82-.53,2-.26,2.12,2.84,4.08,5.8,5.82,8.33l5.09-3.09ZM183,245l-.71-.17c-.15.63-.3,1.25-.44,1.87l.73.16Z"/><path class="cls-3" d="M93.45,28.76c7.43,4.3,12.42,2.65,13.2-4.35l9.81-4L120.05,26l.33,4.56h1L122,28l4-4c4.94-1.71,5.44,3.2,7.14,4.95l4.73-1.67c.38,1.49,1.1,3,1.06,4.48-.07,2.76-.59,5.51-.92,8.26l-6.79-.91c-.14,3-.26,5.33-.38,7.75l5.17-.84v1l-7,4-1.32,0L126.19,48l2.74-1.66-.84-1.15-2.13,2c-3.44,1-1.71,2.94-.81,4.71L125,52l-3,.94c-3.76-.34-5.55-2.11-5.17-6.14C117,46,115,44.94,114,44q0-.37,0-.75L116.08,39l5.92,1.6a21.15,21.15,0,0,0-2.44-2.76c-1.44-1.07-3-2-4.48-3l-1.07,0L113.63,36l-.65,0-2.73-4.84L99.08,33.13v10h2.81L102,44.4,98.07,45l-3,2h0l-4-2a42.22,42.22,0,0,0,1.36-5.34C92.87,36,93.11,32.39,93.45,28.76Z"/><path class="cls-4" d="M93.45,28.76c-.34,3.63-.58,7.28-1,10.89A42.22,42.22,0,0,1,91,45c.29,2.73.58,5.46.91,8.54l4,2.2c-1.86,3.67-.77,6.27,3.7,7.83l-4.12,1.69C96.33,70,97.14,74.5,97.86,79c0,.35-.51.81-.79,1.21-2.12.91-5.74.81-3.17,4.81L92.09,85v-.08c-.14-3.3-2.26-7.09,4.1-9.48l-9.28-3.28,5.14-1.65V57l.73-1.07-.37-.25L92,57l-4.27.77c-1.66-2.83-3.31-5.67-5-8.54L85,49l.15.09c.57.14.19,0-.18,0l-1-2.9q1-2,2-4c-5.56-2.66-6.15-4.06-5.52-10l-1.44-9,12.23,1.05Z"/><path class="cls-5" d="M165.06,16l36.29,5.25L201.17,23c-1,0-2.19-.33-3,.07a45.66,45.66,0,0,0-4.92,3.22c1.16,1.59,2,3.93,3.52,4.63,5,2.3,8.69-.75,12.08-4,.34,1.18,1.06,2.42.93,3.55-.36,2.88-1.1,5.72-1.68,8.57,0,.32,0,.65,0,1A37.39,37.39,0,0,1,204,38.26c-2.52-1.41-4.59-5.15-7.94-1.29l-2-1,.61-4.07-1.35.47L191.08,30h0c.13-.1.39-.24.37-.28a4.22,4.22,0,0,0-.38-.73l0-1V23l-1-.38-2,4.34-9-1-4,0c-5-1.13-8.9-3.49-10-9Zm9.63,5.23c-.11-.28-.15-.71-.35-.8s-.54.18-.83.28c.11.29.16.72.35.81S174.41,21.35,174.69,21.24Z"/><path class="cls-6" d="M67.67,105.55c0-1,0-2.06.07-3.09L67,95.09V95l2-1,24.11.07a1.17,1.17,0,0,1-.22.87l-.33,3.17,0,2.79-.75,2-1.77.89L89,105c-.87.7-3.2-1.63-3,2,.19,2.56-1.91,5.29-3,8l-1,0-2,.9c-1.71.61-3.55-6.28-5.16.09L71,115c1-2.66,2-5.32,3.07-8h9.77l.43-2L81,103c1.32-5,5.73-5,9.58-6.51H70.7L79.08,102H74.16l-.15,3.2c-3.69-2.93-4.17,1-5.56,3.1Zm22-5.16c0,.11,0,.28.08.33s.27.06.41.09l-.11-.58Z"/><path class="cls-4" d="M94.06,259l-2,4.1a18.85,18.85,0,0,0-2.77-2.38,14.39,14.39,0,0,0-3.12-1,23.4,23.4,0,0,0,.52,3.16,7.15,7.15,0,0,0,1.15,1.77L83,267H80.08q-1-5-2.09-9.92c.9-.33,1.87-1.06,2.68-.91,4.72.83,5.59-1.38,5.37-5.59-.32-5.8,0-11.63.07-17.45a27.71,27.71,0,0,0,2,4.23,17.72,17.72,0,0,0,2.9,2.76c.2,4.08.4,8.15.65,13.11l1.53-3,8.11.91-.29,2-4,3Z"/><path class="cls-7" d="M232.77,174.23l.12,3.7c-.07.76-.15,1.52-.22,2.28,0,.58.05,1.15.08,1.73a41.58,41.58,0,0,0-.6,4.81c-.07,11.11-.08,22.21-.1,33.31l-4.89-1.94.84-8.9c.81-.79,2.2-1.49,2.31-2.36a53.12,53.12,0,0,0,.07-7.14c0-9.94-.1-19.89-.11-29.83,0-13.6,0-27.21,0-41.08l-3.09,1.31c.4-1.4.46-3.05,1.26-4.17,3.81-5.3,3.84-6.47-.37-10.92,0-.32,0-.64,0-1l-.87-6c.63-.71,1.25-1.43,1.88-2.15l2.78,2.1c.09,17.8.13,35.61.29,53.41C232.14,165.67,232.54,170,232.77,174.23Z"/><path class="cls-8" d="M74.08,107.06c-1,2.65-2,5.31-3.07,8l-3.19-1.24c.47,2.4.9,4.45,1.26,6.51.61,3.49,1.44,6.71,6.18,5.74l.38,0H76l-.87,4.16c-1.22-.42-2.49-1.25-3.63-1.11-.74.09-1.81,1.61-1.83,2.51-.08,3.14.23,6.3.39,9.45l-.86,4.19v1.61l0,2.46-.08,1.56v13.29L69,172.09v2l-1.77,16.88L67,178.11l.69-72.56.78,2.78c1.39-2.1,1.87-6,5.56-3.1C74,105.84,74.05,106.45,74.08,107.06Z"/><path class="cls-9" d="M67,178.11q.13,6.42.28,12.83L67.14,208c0,7.14-.07,14.29,0,21.43,0,2.61.17,5.21.27,7.82v15.53c.66-2.14.29-4.34.77-6.35.38-1.57,1.82-2.88,2.78-4.31a85.51,85.51,0,0,0,.3,10.39c.23,1.67,1.82,3.14,2.79,4.7l.06,10-1,.08-3.18-1-3.39-.08c0-13.6-.08-27.2,0-40.8C66.58,209.64,66.81,193.88,67,178.11Zm.33,84.94.47-.18v-6.6h-.47Z"/><path class="cls-10" d="M232,43c0,1.67,0,3.34,0,5l-5,1c0,2.62.35,4.74-.09,6.67-.53,2.25-.59,3.59,2.23,3.32,0,1.33-.07,2.65-.1,4-2.9-.55-5.9-.9-7.59-3.89-.12-.22-.92-.07-1.4-.09,0-3.67,0-7.35,0-11,3.8,2.47,2.26-3.13,4.52-3-.14-1.18-.27-2.36-.4-3.49L220.06,47l-3,0V46c0-.67,0-1.34,0-2h0l3-3c1.95-1.52-1.66-5.83,3-6l1,1,4,2v0C227.92,40.81,227.77,43.61,232,43Zm-6,4.32.43-.77a4.68,4.68,0,0,0-.83-.05c-.08,0-.23.34-.2.38A3.31,3.31,0,0,0,226,47.3Z"/><path class="cls-7" d="M192.15,263.66c1.32-2.75,2.65-5.49,4-8.41l2.59,3.44-1.4.18q.26,4.13.52,8.24c-7.41,11.89-19,16.77-32.1,19a1.65,1.65,0,0,0-.79.1l-1.89.22a30.49,30.49,0,0,1,2.5-2.2c1.1-.78,2.29-1.42,3.44-2.12,1.52-.88,3-1.78,4.56-2.61,3.86-2.07,7.73-4.1,11.59-6.14l3.84-1.22c2.71-1.12,5.78-1.95,5.12-6C193.51,265.31,192.83,264.48,192.15,263.66Z"/><path class="cls-11" d="M231.81,108l-2.78-2.1c2.63-2.93-1.48-4.23-1.24-5.81l-4.73.84-4.08-3,1.37-3.23-8.35-2,9.53-1.67-.21-1.22c-3.7,1.6-8.34-2.55-11.52,3-.27.46-1.88.15-2.87.2l-.15-3.94,17.2-.16,9.21,1.26c0,.94,0,1.87,0,2.81l-8.52,3,.16.8,7.79.37-.3,4.72Q232.06,104.93,231.81,108Z"/><path class="cls-12" d="M91.26,24.13,79,23.08l-8.88,0-.28.93L69,31H67.22c-1-3.88,2-9-3.59-11.81H97.9Z"/><path class="cls-13" d="M69.71,83.07l-.82-.75L70,79l.06-15c3.31,1.09,6.52,1.76,8.53-3.81L79,64l1,3,5,10h0L71.6,78,71,83Zm8.05-10.28-1.51,1.1,2.68,2.83,1-.86Z"/><path class="cls-14" d="M120.05,26l-3.59-5.53-9.81,4v-.07l-.91-1.25-5.5-1.16c10.93-3.47,21.64-5,32.67-4l4.15,1c-2.56,1-5.15,1.92-7.68,3A29.37,29.37,0,0,0,126,24l-4,4h0V23.86L120,26Z"/><path class="cls-13" d="M223.05,35c-4.66.17-1.05,4.48-3,6l-2,1-7-2h0l-3-1c.58-2.85,1.32-5.69,1.68-8.57.13-1.13-.59-2.37-.93-3.55,0-.61,0-1.21.08-1.81l4.25-1.84h1.73l2.14,1.83-2.82,3.44a17.4,17.4,0,0,1,2,.13c.14,3.74,2.17,4.71,5.57,4.08C222.05,32.66,222.62,34.2,223.05,35Z"/><path class="cls-7" d="M66.48,266.21l3.39.08,3.18,1,1-.08,6-.18H83l9-.84,4.11,5.13H63.65C64.51,269.74,65.5,268,66.48,266.21Z"/><path class="cls-11" d="M206,261.14l0-16,.06-12c0-.39-.05-.79-.07-1.18l-.25-3q-.1-3.32-.2-6.65v-1.4q0-3.33.08-6.64c.17-.72.34-1.44.5-2.16l0-6.1c.28.08.57.14.86.2q1,5,1.91,10l0,3.88.12,2.09c0,1.64,0,3.27,0,4.91l-.64,2.19,0,1.72-.06,7.27c0,3.61,0,7.23,0,10.85l0,12c-.07.79-.13,1.58-.2,2.37Z"/><path class="cls-7" d="M233.15,267.17l4.8,4H213l2-1.91,3.11.95,4.36.86h3.15l6.42-.92L230,267.91c-.05-2.67.35-5.45-.3-8-.39-1.52-2.41-2.61-3.7-3.9.32-2,.64-3.93.95-5.89h1.09l1.83,3.68,1.2-.45v-7.26l1-11q.39,3,.79,6.1l-.09,4.7Q232.95,256.57,233.15,267.17Z"/><path class="cls-11" d="M69,94l-2,1-1.61-.94c.25-2.36.44-4.2.64-6L93.17,88c0,1,0,2,0,3-1.62.63-3.21,1.66-4.88,1.81C81.87,93.33,75.44,93.62,69,94Zm22.11-3.3v-1H75.71v1Z"/><path class="cls-3" d="M97,256.12l4-3,1,0c.21,1.46.43,2.93.63,4.4q.74,5.36,1.46,10.73l1.94,1.92,0,0,2,2v0l1,1,0,0,14,9.06a2.77,2.77,0,0,0,.16.81l-.47.5c-8.5-2.48-15.84-6.81-20.36-14.6-1.82-3.13-2.3-7-3.38-10.59Z"/><path class="cls-8" d="M133,282.39c3.29.21,6.59.34,9.88.67a26.5,26.5,0,0,1,4.11,1.08c2,.53,4.08,1.14,6.15,1.55,2.32.46,4.68.75,7,1.11l-27.19-1Z"/><path class="cls-7" d="M229,63c0-1.33.07-2.65.1-4l2.78,0L231.8,67c-.12.09-.37.21-.35.27a3.76,3.76,0,0,0,.32.75q.14,8.53.29,17.06L231,85l-2-3a32.06,32.06,0,0,1-.86-5.77C228.31,71.81,228.74,67.39,229,63Z"/><path class="cls-15" d="M207.82,23.14,204,20.55l.26-1.41c4,0,8.05-.07,12.07,0,6.68.15,13.36.4,20,.61-5,.17-10,0-14.89.6C216.88,20.9,212.37,22.18,207.82,23.14Z"/><path class="cls-16" d="M231.81,108q.24-3.06.47-6.1c.23,10.14.59,20.27.65,30.41.07,14-.1,28-.16,41.94-.23-4.28-.63-8.56-.67-12.84C231.94,143.59,231.9,125.78,231.81,108Z"/><path class="cls-8" d="M93.17,88,66,88l-1.92-.8,3-2c5.66.3,11.32.75,17,.82,2.67,0,5.35-.65,8-1l1.81.07a3.31,3.31,0,0,1,.33.91Z"/><path class="cls-16" d="M232.84,241.28q-.41-3.06-.79-6.1l0-2.1,0-10.91v-2.11c0-11.1,0-22.2.1-33.31a41.58,41.58,0,0,1,.6-4.81Z"/><path class="cls-8" d="M137.06,18.93l-4.15-1L142.05,15c.68,1,1.35,2.06,2,3.1-.08,1.83-.17,3.66-.26,5.49l-1,.06c-.23-.54-.47-1.09-.7-1.64l.22-.44L142,22l-1.95,1.13Z"/><path class="cls-6" d="M133,282.39l0,3.45-2-.48-1.95-1.21h0l-1.19-.18-2.67.08h-.08a1.32,1.32,0,0,0,0-.94l-2.07-.9-14-9.06,9.92,4.21Z"/><path class="cls-2" d="M231.92,59l-2.78,0c-2.82.27-2.76-1.07-2.23-3.32.44-1.93.09-4,.09-6.67l5-1Z"/><path class="cls-6" d="M231,85l1,.12a13.32,13.32,0,0,1,3,2c.26.3-.58,1.57-.91,2.39l-11.12-2.07L206,87l1-1.16,5.16-.84,2.79.15,3.35-.07,2.91-.06Z"/><path class="cls-14" d="M70.08,64,70,79H68.08L68,53l1,0Q69.54,58.47,70.08,64Z"/><path class="cls-6" d="M207.82,23.14c4.55-1,9.06-2.24,13.66-2.78,4.92-.57,9.92-.43,14.89-.6l-4.31,4.18-3-.64h-9.77l-4.33-.08h-1.73l-5.28-.09Z"/><path class="cls-15" d="M153.06,14l3.7.61-1.67.82.26.76,4-.9a.47.47,0,0,1,.47.17L158.05,22c-3.61.09-5.59-1.72-6.11-5.24Z"/><path class="cls-13" d="M92,266.17,83,267l4.79-2.31a7.15,7.15,0,0,1-1.15-1.77,23.4,23.4,0,0,1-.52-3.16,14.39,14.39,0,0,1,3.12,1A18.85,18.85,0,0,1,92,263.14C92,264.15,92,265.16,92,266.17Z"/><path class="cls-7" d="M153.06,14c-.37.93-.75,1.85-1.12,2.78l-1.88.19-6,1.14c-.67-1-1.34-2.07-2-3.1Z"/><path class="cls-6" d="M160.16,286.8c-2.34-.36-4.7-.65-7-1.11-2.07-.41-4.1-1-6.15-1.55l22.08-2.06c-1.15.7-2.34,1.34-3.44,2.12a30.49,30.49,0,0,0-2.5,2.2Z"/><path class="cls-7" d="M69,53l-1,0Q67.61,42,67.22,31H69Q69,42,69,53Z"/><path class="cls-6" d="M92.09,85c-2.67.36-5.35,1.05-8,1-5.66-.07-11.32-.52-17-.82l2.62-2.11L71,83c1.28.53,2.55,1.47,3.86,1.52,5.73.26,11.48.26,17.23.35Z"/><path class="cls-14" d="M158.05,22l1.77-6.56,5.24.6V17c-.67,1.19-1.81,2.33-1.92,3.56C162.69,25.88,160.51,24.21,158.05,22Z"/><path class="cls-12" d="M232.58,97.16l-7.79-.37-.16-.8,8.52-3,3.69,1.28Z"/><path class="cls-7" d="M229,23.31l3,.63c0,.67-.05,1.35-.07,2-.12.09-.36.22-.35.28A4.4,4.4,0,0,0,232,27c0,3.32,0,6.64,0,10l-1.87-1Z"/><path class="cls-10" d="M208,263.52c.07-.79.13-1.58.2-2.37l3.84,0L212,269l-3.31-.78a1,1,0,0,1,.41-.83Z"/><path class="cls-2" d="M230.07,36l1.87,1c0,2,0,4,.05,6-4.22.63-4.07-2.17-3.92-5Z"/><path class="cls-16" d="M233.14,267.17,232.75,246Z"/><path class="cls-14" d="M223.05,87.39l11.12,2.07-1,.69L224,88.89Z"/><path class="cls-8" d="M208.68,268.25,212,269l2.06.12a4.82,4.82,0,0,1,1,.14l-2,1.91-3.06-.06a1.08,1.08,0,0,1-.77,0l-1.09,0C208.27,270.17,208.48,269.21,208.68,268.25Z"/><path class="cls-7" d="M208.68,268.25c-.2,1-.41,1.92-.61,2.89h-3.63l-.2-.81,4.85-2.91A1,1,0,0,0,208.68,268.25Z"/><path class="cls-15" d="M97,256.12l2,2.2-4.92.72Z"/><path class="cls-7" d="M207.91,23.14l5.28.09-4.25,1.84C208.59,24.43,208.25,23.78,207.91,23.14Z"/><path class="cls-8" d="M67,95.09l.75,7.37Z"/><path class="cls-14" d="M159.35,15.24l-4,.9-.26-.76,1.67-.82Z"/><path class="cls-15" d="M68.08,79H70l-1.13,3.32Z"/><path class="cls-3" d="M125.2,284.05l2.68-.08,1.18.18h0l0,1Z"/><path class="cls-16" d="M232.67,180.21c.07-.76.15-1.52.22-2.28C232.82,178.69,232.74,179.45,232.67,180.21Z"/><path class="cls-3" d="M125.1,283.1a1.32,1.32,0,0,1,0,.94l-2.4-.53.47-.5Z"/><path class="cls-8" d="M129,285.19l0-1,1.95,1.21Z"/><path class="cls-2" d="M231.77,68a3.76,3.76,0,0,1-.32-.75c0-.06.23-.18.35-.27Z"/><path class="cls-2" d="M232,27a4.4,4.4,0,0,1-.31-.75c0-.06.23-.19.35-.28Z"/><path class="cls-3" d="M105.74,23.09l.91,1.25Z"/><path class="cls-7" d="M209.16,271.16a1.08,1.08,0,0,0,.77,0l-.38.25Z"/><path class="cls-8" d="M165,286.18a1.65,1.65,0,0,1,.79-.1Z"/><path class="cls-5" d="M193,240.17c-1.76.51-3.79,1.85-5.26,1.38-5.18-1.64-7-1-8.6,4a39.7,39.7,0,0,1-1.86,5.33c-1.38-4.69-10.52-.37-9.28-8.44-.47.87-.93,1.75-1.38,2.6-8.56-8.78-8.64-7.8-12.55-3.94-.49-.77-.84-2-1.51-2.22-2.43-.75-5-1.16-7.48-1.7l-7.92,2-5.13-2-2-5.6,10-.25h1.06l4.95.12h1.05l9,0,3-.05,2,0h1.06l4.94.06H170c1.38.57,2.73,1.55,4.13,1.64,3.64.22,7.3.05,10.95,0Zm-17.62-2-1.35-.14c-.87,1.88-1.73,3.77-2.71,5.9l5.94.93Z"/><path class="cls-5" d="M136,264.16c-1.59.83-2.53,2.78-3.36,3.48-2.68,2.26-3.38,7.69-8.58,6.51-1.49-4.82-1.53-4.87-4-5h-2l-1-1c-1.81-3.58-4.15-2.28-6.76-.06l-.26-4.93c-.33-3-.67-6-1-9l5.25-.25c.21,1.88.39,3.47.7,6.1l5.24-8.46-2.06-2.44c.87-2.26,1.27-3.65,1.91-4.92,1-2,2.17-3.93,3.27-5.89l2.72.86,0,0v7.29l4-1.28,3,2.93-1.24,1.45c1.22,2.33,2.36,4.51,3.39,6.5l-7.3,1.33,8.07,5.8Z"/><path class="cls-17" d="M193,240.17l-8-7.08,5.08-.84a24.28,24.28,0,0,0,2.37,1.84c1.35.79,2.77,1.44,4.31,2.23l9.18-3.16-.06,12-5.09,3.09c-1.74-2.53-3.7-5.49-5.82-8.33C194.84,239.64,193.72,240.07,193,240.17Z"/><path class="cls-11" d="M142.13,274a1.91,1.91,0,0,1,0-.95c1.32,0,2.91.38,3.91-.22a5.71,5.71,0,0,0,2.72-3.53c.09-.86-1.9-2.78-2.87-2.72a5.61,5.61,0,0,0-3.62,2.6c-.59,1-.11,2.58-.1,3.91H141c-2-5.61-2.45-10.91,3-15,2.28.42,6.49.73,6.52,1.27.19,3.3,2.92,2.75,4.54,3.77-.37.49-1,.93-1.08,1.47C152.23,273.43,150.93,274.48,142.13,274Z"/><path class="cls-18" d="M142.13,274c8.8.47,10.1-.58,11.82-9.41.11-.54.71-1,1.08-1.47l3.7,5.82c.51-2.57.93-4.72,1.36-6.86.61.82,1.58,1.55,1.78,2.45,1.42,6.53-7.22,14.94-13.46,13.37-1.75-.44-3.56-.6-5.35-.89Z"/><path class="cls-10" d="M192.15,263.66c.68.82,1.36,1.65,2,2.48l-5.12,6-3.84,1.22a13.69,13.69,0,0,1-2.56-2.85,40.57,40.57,0,0,1-1.75-5.69l3-1.77-3.54-5.55,8.84.59c.36,1.38,1,3.68,1.68,6.4C190.73,264.58,191.44,264.12,192.15,263.66Z"/><path class="cls-19" d="M160.09,262.09c-.43,2.14-.85,4.29-1.36,6.86l-3.7-5.82c-1.62-1-4.35-.47-4.54-3.77,0-.54-4.24-.85-6.52-1.27l-1.92-2a3.81,3.81,0,0,0,.27-.66L153,253.05l3.09,1.17.42.05.41,0c.09.61.19,1.22.28,1.83l.61,1.13Z"/><path class="cls-13" d="M110,263.17l.26,4.93c2.61-2.22,5-3.52,6.76.06l1,1h2l-3,3.91,3,3.07-1.11,1.2L109,273.14l0,0-1-1v0l-2-2,0,0V268.1c.3-2.24.59-4.48,1-7.26Z"/><path class="cls-10" d="M157.81,257.19l-.61-1.13,1.25-1.74-1.53-.09-.41,0-.42-.05c-.3-1.89-.59-3.78-.89-5.68l5.84-.38c.13.43.27.86.4,1.29l.38-.25-.74-1.08c.19-.88.37-1.77.86-4.08l3.64,6.64-4.21,3.45c1.32,3.53,3.55,4.17,6.69,2h0c.41,3.68-1.09,5.49-4.92,5C161.48,259.65,162.25,254.87,157.81,257.19Z"/><path class="cls-10" d="M145.1,237.2c2.5.54,5.05,1,7.48,1.7.67.21,1,1.45,1.51,2.22l-4,10-5.9,1.1-3.08-4.18,3,.07,2-1.15c.89-3.09,1.66-6.18-1-8.86C145.06,237.81,145.07,237.5,145.1,237.2Z"/><path class="cls-7" d="M157.81,257.19c4.44-2.32,3.67,2.46,5.34,3.93a15.08,15.08,0,0,1-6,16.83c-4.88,3.1-9.22,2.81-14.05-.93,1.79.29,3.6.45,5.35.89,6.24,1.57,14.88-6.84,13.46-13.37-.2-.9-1.17-1.63-1.78-2.45Z"/><path class="cls-18" d="M142.05,256.1l1.92,2c-5.46,4.11-5,9.41-3,15L136.89,269A14.48,14.48,0,0,1,142.05,256.1Z"/><path class="cls-14" d="M120.06,276.15l-3-3.07,3-3.91c2.49.11,2.53.16,4,5Z"/><path class="cls-12" d="M142.05,256.1A14.48,14.48,0,0,0,136.89,269c-.3-1.62-.61-3.25-.91-4.88v-1l2.19-5.94.9-1,2.85-1.19.4.45A4.06,4.06,0,0,1,142.05,256.1Z"/><path class="cls-12" d="M144.16,252.24l5.9-1.1,2.94,1.91-10.68,2.39-.4-.44Z"/><path class="cls-9" d="M183,245l-.42,1.86-.73-.16c.14-.62.29-1.24.44-1.87Z"/><path class="cls-10" d="M168.06,256.14l.23-.42c-.07.14-.15.28-.22.43Z"/><path class="cls-15" d="M97.07,80.25c.28-.4.84-.86.79-1.21-.72-4.54-1.53-9.07-2.34-13.79l4.12-1.69c-4.47-1.56-5.56-4.16-3.7-7.83l-4-2.2c-.33-3.08-.62-5.81-.91-8.54l4,2-.23.42L95,47l3-2v2L99.15,49c3.66-.18,4.17,2,4.06,5A33.14,33.14,0,0,0,104,60l7.63,6.7a11.78,11.78,0,0,0-1.79,3.63c-.2,1.1.73,2.4,1.16,3.62-1.65,5,2,4.71,5,5.06l-10.93,1.62-2.2-.17-1.81.12Z"/><path class="cls-9" d="M127.73,51l1.32,0c1.8,2,3.61,4.07,4.71,5.31l7.18-2.53c.38-2.59-5.07-7,2.11-7.79.36.68.71,1.36,1.07,2l-1,11-4,1-2-1-3,1-1,6.1c-6.26-1.93-4.91,2.6-5,5.9l-5-3,1.36-.31c-.84-3.51-1.59-6.59-2.33-9.68l1.29-.52-1.3-.52L122,56.06l3-4,.12-.2L128,55.49C127.87,53.28,127.8,52.15,127.73,51Z"/><path class="cls-15" d="M144.07,18.06l6-1.14c-.33,2-.67,4-1,6.06-.24,4.51-6.91,7.84-1.5,13.35l-8.89,1.55,4.65,3.1c-.83,1.1-1.55,2.05-2.28,3l-4,2q.49-3,1-6c.33-2.75.85-5.5.92-8.26,0-1.48-.68-3-1.06-4.48l-4.73,1.67c-1.7-1.75-2.2-6.66-7.14-4.95a29.37,29.37,0,0,1,3.34-2c2.53-1.09,5.12-2,7.68-3l3,4.15L142,22l0,0,.7,1.64,1-.06C143.9,21.72,144,19.89,144.07,18.06Z"/><path class="cls-9" d="M111,74c-.43-1.22-1.36-2.52-1.16-3.62a11.78,11.78,0,0,1,1.79-3.63L104,60c.65-1,1.72-2,1.86-3.14.29-2.26,0-4.6.18-6.87,0-.45,1.33-.78,2-1.17V62.48l5.35-3.89c-4.59-3.08,0-4.89.78-7.22l-1.4-.22L114,44c1,.95,2.92,2,2.84,2.85-.38,4,1.41,5.8,5.17,6.14-.33,1-.66,2-1,3-.57.91-1,2.09-1.76,2.69-3.44,2.56-5.07,8.38-3.26,12.28Z"/><path class="cls-15" d="M114,44l-1.19,7.16,1.4.22c-.83,2.33-5.37,4.14-.78,7.22l-5.35,3.89V48.83c.26-.8.52-1.6.79-2.4q-.47-4.82-.91-9.63l-.17-2.67L113,35.92l.65,0c.14,1,.27,2,.4,3l0,4.27Q114,43.62,114,44Z"/><path class="cls-4" d="M113,35.92l-5.15-1.79-5.55.25c.94,3.39,1.69,6.1,2.43,8.81,1.1-1.49,1.13-3.12,1.54-4.65.19-.69,1.14-1.17,1.75-1.74q.45,4.81.91,9.62L100,47H98.07V45L102,44.4l-.11-1.23H99.08v-10l11.17-2.05Z"/><path class="cls-13" d="M137.05,46l4-2,2,2c-7.18.81-1.73,5.2-2.11,7.79l-7.18,2.53c-1.1-1.24-2.91-3.27-4.71-5.31l7-4,1-1Z"/><path class="cls-13" d="M138.05,40q-.51,3-1,6h-1l-5.17.84c.12-2.42.24-4.75.38-7.75Z"/><path class="cls-6" d="M127.73,51c.07,1.12.14,2.25.27,4.46l-2.85-3.65c-.9-1.77-2.63-3.68.81-4.71a4.28,4.28,0,0,0,.23.85Z"/><path class="cls-11" d="M114,39c-.13-1-.26-2-.4-3,.13-.35.26-.71.38-1.06l1.07,0c1.5,1,3,1.91,4.48,3A21.15,21.15,0,0,1,122,40.59L116.08,39Z"/><path class="cls-4" d="M121.05,56c.34-1,.67-2,1-3l3-.94-3,4A7.3,7.3,0,0,0,121.05,56Z"/><path class="cls-14" d="M122,28l-.62,2.56h-1L120.05,26h0l2,2Z"/><path class="cls-13" d="M126.19,48a4.28,4.28,0,0,1-.23-.85l2.13-2,.84,1.15Z"/><path class="cls-6" d="M114,39l2,0L114,43.24C114,41.82,114,40.4,114,39Z"/><path class="cls-15" d="M136.05,46h1l-1,1Z"/><path class="cls-8" d="M115.08,34.85l-1.07,0Z"/><path class="cls-20" d="M97.07,80.25l4.05.34,1.81-.12,2.2.17H125l2,0,6.06.06,1-.09,3-.07,6.92.1h2.05l3,0,13,.53c2.16,1.87,16.9,1.85,19,0h1l.94,1.43,1.07-1.29h9.07l.86,0,2.14,0,.87,0,7.09-.07h1l-.11-.42,2,.33c0,1.57-.05,3.15-.08,4.72L206,87c.28.67.56,1.34.83,2l.15,3.94c.15,1.32.3,2.64.46,4l-.09,3.14-.14.15-.82.28.82.29.72,4.15c-.1,1.36-.21,2.72-.31,4.07v11.15l0,2.94-.83.29.86.55v2.09c-.46,1.42-1.34,2.86-1.32,4.28.13,9.25.45,18.49.71,27.74q-.74-3.12-1.46-6.23l-.93-.05c-.28,2-.55,4.07-.85,6.29h-5.68l-14,1c-.33-6.35-6.38-6.35-10-9l-2-2q.48-7.06.95-14.13,3.48-5.38,7-10.76c3.22,5.34,7.44,7.39,12.18,5.91l1.88,2,0,0c1.42,1.52,2.73,3.15,4.27,4.55,2.19,2,3.48,1.32,3.75-1.56,0-.28.08-.55.13-.82,1.5-1.76,2.66-3.52-.11-5.19a31,31,0,0,0-3-2.43c-5-3.2-10-6.32-15-9.47-.72-1.12-1.19-2.56-2.18-3.29-2.82-2.08-5.85-3.88-8.79-5.79a37.54,37.54,0,0,0-.16-4A8.16,8.16,0,0,0,172,101c1.28-2,4.1-5,3.54-5.89-1.79-3-4.83-5.2-7.38-7.71-1.28.1-2.75.68-3.79.23-3.73-1.61-5,.4-5.85,3.45l-.39,11-3.33,2.38,5.29-.35-2,2-6.42-3.14L148.06,104h0c-.61-.38-1.41-1.22-1.8-1.07a20.68,20.68,0,0,0-3.32,2.08c-1.06-.66-2.12-1.33-3.19-2L128,96l0-7c.08-.13.17-.25.25-.37l-.2.41-7.83-.9c-.36-3.56-2.59-5-5.89-5.1-5.26-.08-10.53-.24-15.77.11-1.51.1-2.9,1.84-4.35,2.82a3.31,3.31,0,0,0-.33-.91C91.33,81.06,95,81.16,97.07,80.25Zm84.65,51.56c-.94,5.24.51,7.1,3.73,7.11,1.14,0,2.29-1.3,3.43-2Z"/><path class="cls-9" d="M69,53Q69,42,69,31c.3-2.33.61-4.66.91-7a5,5,0,0,0,.28-.93l8.88,0,1.44,9c-.63,5.92,0,7.32,5.52,10q-1,2-2,4l-5,3.2c1.12,1.46,2.28,2.88,3.34,4.38.82,1.17,1.52,2.43,2.27,3.64-1.44-.15-2.89-.22-4.31-.51a8.72,8.72,0,0,1-2.15-1.25c.23,5.69,4,4.27,6.88,4.43l2,2v1H86L84,65,80,65l-1-1-.43-3.82c-2,5.57-5.22,4.9-8.53,3.81Q69.54,58.48,69,53Z"/><path class="cls-15" d="M87,63V62l.87-4.09-.13-.15L92,57l0,0V70.5l-5.14,1.65,9.28,3.28c-6.36,2.39-4.24,6.18-4.1,9.48-5.75-.09-11.5-.09-17.23-.35-1.31,0-2.58-1-3.86-1.52.19-1.65.39-3.3.6-5L85,77l.42.22L85,77,80,67l.07-.07.45,0H81l8.48,3.32Z"/><path class="cls-6" d="M85,60c-2.88-.16-6.65,1.26-6.88-4.43a8.72,8.72,0,0,0,2.15,1.25c1.42.29,2.87.36,4.31.51-.75-1.21-1.45-2.47-2.27-3.64-1.06-1.5-2.22-2.92-3.34-4.38l5-3.2c.33,1,.66,1.93,1,2.9L85,49l-2.27.23c1.68,2.87,3.33,5.71,5,8.54l.13.16Z"/><path class="cls-15" d="M92,57l.39-1.29.37.25L92.05,57Z"/><path class="cls-6" d="M85,49c.37.09.75.18.18,0L85,49Z"/><path class="cls-9" d="M175.06,25.94l4,0c-1.2,1.3-2.88,2.38,0,4,1.59.87,2.68,2.66,4,4l-2.67,3.15a24.37,24.37,0,0,0,3.41.1c3.44-.36,6.88-.84,10.32-1.27l2,1a22.89,22.89,0,0,0,.71,2.58A26.88,26.88,0,0,0,198.07,42l-2,6-5.48-5.61c-2.15-.09-3,2.58-3.54,5.65L184.84,50c-1.15-3.12-2.29-6.24-3.18-8.66L178,46l-7.16,2-2.82-1.06-1-1c0-.32,0-.65,0-1,2.11-2,5.89-2.85,4.81-7l-3.18.6,2.09-4.3L167.12,34l.93-3,1-1,3,1.38C173.15,29.42,174.11,27.68,175.06,25.94ZM187.28,39.1l-.8.78,1.86,1.65.57-.65Z"/><path class="cls-13" d="M198.07,42a26.88,26.88,0,0,1-1.28-2.43,22.89,22.89,0,0,1-.71-2.58c3.35-3.86,5.42-.12,7.94,1.29A37.39,37.39,0,0,0,208.08,40c.15.46.17,1.15.48,1.34,2.13,1.28,4.33,2.45,6.5,3.65l2,1v1q-1.5,3.1-3,6.21l-6.6-7.51L205.78,47l5.3,9.07-2,1.95L207,56.2l-.47,1.26,2.59.55c.69,2.38,1.39,4.76,2.08,7.14,0,.59,0,1.19-.05,1.78l-1,2.07-7-3.1c-.59-1.84-1.18-3.69-1.8-5.6l-3.23.68q0-3.48,0-7c.93-3.24,2-6.46,2.64-9.76C200.79,43.68,199,42.75,198.07,42Zm8.7,18.94-1.91,1.22c.75,1.15,1.49,2.3,2.23,3.45l1.66-.94Z"/><path class="cls-2" d="M175.06,25.94c-.95,1.74-1.91,3.48-3,5.41l-3-1.38c-1.27-2.49-2.59-2.81-4-1-2.51,1.32-5,3.43-7.12-.72-.23-.46-1.87-.21-2.85-.28-1.34-2.46-2.54-5.1-6-5,.33-2,.67-4,1-6.06l1.88-.19c.52,3.52,2.5,5.33,6.11,5.24,2.46,2.24,4.64,3.91,5.09-1.45.11-1.23,1.25-2.37,1.92-3.56C166.16,22.45,170.06,24.81,175.06,25.94Z"/><path class="cls-13" d="M194.11,35.94c-3.44.43-6.88.91-10.32,1.27a24.37,24.37,0,0,1-3.41-.1L183.05,34a14.59,14.59,0,0,0,2.37-.77c1.91-1,3.78-2.13,5.66-3.21l2.29,2.36,1.35-.47Z"/><path class="cls-2" d="M191.08,30c-1.88,1.08-3.75,2.19-5.66,3.21a14.59,14.59,0,0,1-2.37.77c-1.31-1.37-2.4-3.16-4-4-2.87-1.58-1.19-2.66,0-4l9,1,3,1,0,1v1Z"/><path class="cls-10" d="M215.06,45c-2.17-1.2-4.37-2.37-6.5-3.65-.31-.19-.33-.88-.48-1.34s0-.65,0-1l3,1-.23.42.23-.42,7,2-1,2h0Z"/><path class="cls-13" d="M191.05,28l-3-1c.65-1.44,1.31-2.89,2-4.34l1,.38Z"/><path class="cls-2" d="M174.69,21.24c-.28.11-.63.37-.83.29s-.24-.52-.35-.81c.29-.1.64-.37.83-.28S174.58,21,174.69,21.24Z"/><path class="cls-13" d="M191.08,30V29a4.22,4.22,0,0,1,.38.73S191.21,29.88,191.08,30Z"/><path class="cls-21" d="M94.23,86c1.45-1,2.84-2.72,4.35-2.82,5.24-.35,10.51-.19,15.77-.11,3.3,0,5.53,1.54,5.89,5.1-.71,1.34-1.79,2.62-2,4-1.31,7.24,6.46,8.87,8.8,13.9,3.21,4.56,8.2,5.25,13.15,6l3.08-.07h1.71l1.1-1,1-1.11c0-.25,0-.51,0-.76l3,4.82c-1.77,3.53-3.24,7.26-5.44,10.49-1.31,2-3.77,3.12-5.71,4.64L133,119.54c-1,3.24-1.87,5.85-2.71,8.47q2,8,3.91,16l-4.9,4.28c-3.39-1-3.6-7.24-8.23-3.17l-4.24,5.6-6.76-.61-4,1c-4,.94-.55,3.36-1,5h-1l-2,0c-.74-3-2.77-2.77-5-2l-2,0-1-1c-.32-1-.65-2-1-3q-.19-11.13-.4-22.26l0-1.54q.09-8.19.2-16.39l-.4-3,.14-2.79,0-3.16,0-2.79L92.91,95a1.17,1.17,0,0,0,.22-.87c3.17-1,1.16-2.09,0-3.15,0-1,0-2,0-3Zm28,53.31.67.26.8-1.48-1.09-.42Zm.6-7.35-.68.1.32,2L123,134Z"/><path class="cls-12" d="M83,115c1.08-2.66,3.18-5.39,3-8-.25-3.63,2.08-1.3,3-2,.37,3-3.92,6.58,1.08,9,0,1,0,2,0,3l-4.23-.6c.47,2.39.82,4.2,1.25,6.38l3-1.73.09,4c-1.35,2.75-3.73,5.45-3.85,8.25-.42,9.87-.05,19.77,0,29.67l-.12,2,0,2q0,7-.1,14a2,2,0,0,0,0,1l2,4,.07,1.09-3.13.92,0,0-1-9q.36-10.58.71-21.13l.12-14.91,0-2c.06-2.45.58-5,0-7.32-.33-1.38-2.33-2.35-3.59-3.5L80.13,128l0-1L83,123.93l-.94-2C82.4,119.64,82.72,117.3,83,115Z"/><path class="cls-13" d="M83,115c-.31,2.35-.63,4.69-.94,7L79,124.16,76,126h-.38l-.38,0q-.21-5-.41-10.05c1.61-6.37,3.45.52,5.16-.08l2-.91Z"/><path class="cls-11" d="M74.85,116q.2,5,.41,10.05c-4.74,1-5.57-2.25-6.18-5.74-.36-2.06-.79-4.11-1.26-6.51L71,115Z"/><path class="cls-7" d="M79.08,102,70.7,96.51H90.6C86.75,98,82.34,98.05,81,103Z"/><path class="cls-12" d="M79.08,102,81,103l3.26,2-.43,2H74.08c0-.61,0-1.22-.07-1.83,0-1.08.1-2.17.15-3.2Z"/><path class="cls-3" d="M90.05,114c-5-2.45-.71-6-1.08-9L90,103.85l2.41,3c.13,1,.27,2,.4,3Z"/><path class="cls-9" d="M93.16,90.94c1.13,1.06,3.14,2.13,0,3.15L69,94c6.42-.4,12.85-.69,19.26-1.27C90,92.6,91.54,91.57,93.16,90.94Z"/><path class="cls-12" d="M92.44,106.87l-2.41-3L91.8,103l.78,1.12Z"/><path class="cls-3" d="M92.58,104.08,91.8,103l.75-2Z"/><path class="cls-3" d="M92.91,95l-.33,3.17Z"/><path class="cls-7" d="M89.68,100.39l.38-.16.11.58c-.14,0-.31,0-.41-.09S89.7,100.5,89.68,100.39Z"/><path class="cls-12" d="M82,115l-2,.91Z"/><path class="cls-12" d="M74,257.24c-1-1.56-2.56-3-2.79-4.7a85.51,85.51,0,0,1-.3-10.39c0-1,0-2,0-3.05q.55-6.47,1.12-12.92l1.9-1q.12,6.93.26,13.88l0,5.07v10.22l4.86-.38h5v-9.85c0-3.69-.05-7.39-.07-11.08L84,222.13c0-7.11-.08-14.21.08-21.31.1-4.25.61-8.48.94-12.72l0,0c.42.47,1.18.94,1.19,1.42.08,3.53,0,7.06,0,10.59l-.1,2q0,12,0,24l-.05,2v5c-.06,5.82-.39,11.65-.07,17.45.22,4.21-.65,6.42-5.37,5.59-.81-.15-1.78.58-2.68.91Z"/><path class="cls-14" d="M101.28,251.13l-8.11-.91L94,232.14l2-.78,5-.3v.29c2.29,2.13,4.61,2.12,7,.09l3,0c0,.26,0,.52,0,.78,0,.64,0,1.29,0,1.93l-4.23.3L105,243.75l-2.89,6.56Z"/><path class="cls-13" d="M86.15,226.12q0-12,0-24l4-1-3.89-1.08c0-3.53.1-7.06,0-10.59,0-.48-.77-1-1.19-1.42l3.13-.92,4.86,5c0,1,0,2,0,3q-.51,5-1,10l-1.11,1.92c-3.47,0-4.48,2.73-3.69,5,1.19,3.37-1.77,8.41,3.76,10.11,0,3.67,0,7.34,0,11v7a17.72,17.72,0,0,1-2.9-2.76,27.71,27.71,0,0,1-2-4.23c0-1.67,0-3.35,0-5l1.52-1.2Z"/><path class="cls-12" d="M90.93,207.05,92,205.13l1,.26.9,6.74c.06.34.13.69.19,1l.21,3.9-.2,2.05-1,11.83.83,1.19-.84,18.08c-.39.78-.79,1.55-1.53,3-.25-5-.45-9-.65-13.11,0-1.34,0-2.68,0-4,0-1,0-2,0-3,0-3.67,0-7.34,0-11Q91,214.6,90.93,207.05Z"/><path class="cls-2" d="M74,257.24l4-.14q1,5,2.09,9.92l-6,.18Z"/><path class="cls-12" d="M101.28,251.13l.86-.82c0,.94-.08,1.88-.11,2.82h0l-1,0C101.08,252.47,101.18,251.8,101.28,251.13Z"/><path class="cls-17" d="M227.17,130.12l3.09-1.31c0,13.87,0,27.48,0,41.08,0,9.94.07,19.89.11,29.83a53.12,53.12,0,0,1-.07,7.14c-.11.87-1.5,1.57-2.31,2.36a14.71,14.71,0,0,1-1.21-3.48c-.36-4.51-.52-9-.76-13.55-.62-2.35-1.24-4.69-1.87-7l0-2.14c2.9-1.95,2.93-3.9,0-5.85l.23-1.43c.54-1.3,1.55-2.58,1.57-3.89.15-9.65.12-19.31.13-29,0-3.6,0-7.19,0-10.79Zm1.22,62.2h.38v-1.49h-.38Z"/><path class="cls-22" d="M232.05,220.06v2.11c-1.33,3.63-2.93,7.27,0,10.91l0,2.1-1,11-3,4H227c0-7.38.13-14.76,0-22.14,0-1.29-1.17-2.55-1.8-3.82l-.06-1.11,2.07-5Z"/><path class="cls-6" d="M207.88,105l-.72-4.15.18-.29-.18-.28.14-.15,1.62-.22,9.05,1.31c-.52,2.46-1.3,4.63-1,4.81a62.57,62.57,0,0,0,7.09,3c-1.54,3.91,1.21,4.48,3.94,5.07,0,.32,0,.64,0,1l-3,1.91a2.16,2.16,0,0,1-.78-.21l-2.27-.72-6-4c-1.66-2.08-3.2-4.28-5-6.18C210.39,105.16,209,105.23,207.88,105Zm8,3.37v.39h1.46v-.39Z"/><path class="cls-11" d="M225.1,116.94l3-1.91c4.21,4.45,4.18,5.62.37,10.92-.8,1.12-.86,2.77-1.26,4.17-.35.65-.69,1.31-1,2l-3-.06c3.42-2.35-.51-3.27-1-4.86C226.5,124.72,224.63,120.49,225.1,116.94Z"/><path class="cls-6" d="M227.16,218.12l-2.07,5-.42-4q.11-6.94.19-13.9l0-1.14,0-2.85-.48-1.32,0-1.56c.15-1.08.29-2.17.44-3.26s0-2,.08-3l1.12.15c.24,4.52.4,9,.76,13.55a14.71,14.71,0,0,0,1.21,3.48Z"/><path class="cls-6" d="M223.06,100.91l4.73-.84c-.24,1.58,3.87,2.88,1.24,5.81-.63.72-1.25,1.44-1.88,2.15l-3,0,0-1.94,1.31-1.22-1.37-.73-2.46-1.37Z"/><path class="cls-11" d="M224.15,108l3,0,.87,6c-2.73-.59-5.48-1.16-3.94-5.07C224.11,108.66,224.13,108.32,224.15,108Z"/><path class="cls-5" d="M67.14,208l.12-17.09L69,174.06v-2l.15-7.94c.32-.05.64-.08,1-.11l2.78,0v4.09c-.61.65-1.71,1.26-1.77,2-.79,9.67-1.43,19.35-2.11,29l2,2,0,0c-.51,2-1,4-1.7,6.73Z"/><path class="cls-10" d="M72.91,164l-2.78,0c.31-1.77,1-3.58.82-5.29a61.9,61.9,0,0,0-1.77-7.89c0-.52.06-1,.08-1.56l0-2.46c0-.54,0-1.07,0-1.61l2.32-1.7c-.52-.87-1-1.68-1.46-2.49-.16-3.15-.47-6.31-.39-9.45,0-.9,1.09-2.42,1.83-2.51,1.14-.14,2.41.69,3.63,1.11L74,131.28a27.73,27.73,0,0,0-1,5C72.93,145.55,73,154.78,72.91,164Z"/><path class="cls-22" d="M69.18,150.86A61.9,61.9,0,0,1,71,158.75c.18,1.71-.51,3.52-.82,5.29-.32,0-.64.06-1,.11Q69.17,157.51,69.18,150.86Z"/><path class="cls-11" d="M74,131.28l1.12-1.09L76,126l3-1.88c0,1.62,0,3.23,0,4.85l-.85,1.92c-.37.38-.75.75-1.13,1.12l-2.19,1Z"/><path class="cls-22" d="M70.08,141c.47.81.94,1.62,1.46,2.49l-2.32,1.7C69.5,143.84,69.79,142.44,70.08,141Z"/><path class="cls-22" d="M69.23,146.84l0,2.46Z"/><path class="cls-2" d="M69,172.09v2C69,173.4,69,172.75,69,172.09Z"/><path class="cls-13" d="M67.14,208l2.19-.16c.69-2.74,1.19-4.74,1.7-6.73l1.08-.07q1,6.56,1.93,13.11c0,.3,0,.59,0,.89-4.26,1.4-.62,2.75,0,4.11,0,.31,0,.61,0,.91q-1,3-2,6.09-.55,6.45-1.12,12.92l-3.59-1.82c-.1-2.61-.27-5.21-.27-7.82C67.07,222.32,67.12,215.17,67.14,208Z"/><path class="cls-5" d="M67.36,237.28,71,239.1c0,1,0,2,0,3.05-1,1.43-2.4,2.74-2.78,4.31-.48,2-.11,4.21-.77,6.35Z"/><path class="cls-5" d="M67.31,263.05v-6.77h.47v6.6Z"/><path class="cls-2" d="M73.05,267.28l-3.18-1Z"/><path class="cls-2" d="M209.09,58l2-1.95c2,1.07,3.35.94,3.17-1.83L217,52.1c0,2.34-.27,4.12.14,5.72.15.6,1.88.8,2.89,1.18.48,0,1.28-.13,1.4.09,1.69,3,4.69,3.34,7.59,3.89-.3,4.41-.73,8.83-.84,13.25a32.06,32.06,0,0,0,.86,5.77l-4.63,2.69-.86-11.15-1,0c-.33,1.68-.66,3.36-1.12,5.76l-6.31-3.1v7.29l6,1.53-2.91,0-3.35.08L212.07,85c.33-1.68.67-3.35,1-5V75h2l2-1,1.16,0c.31-1.11,1.2-2.89.83-3.21-1-.89-2.59-1.17-3.93-1.69l-1.23-2-2.76-1.87c-.69-2.38-1.39-4.76-2.08-7.14Z"/><path class="cls-15" d="M230.07,36l-2,2v0l-4-2-1-1c-.43-.8-1-2.34-1.28-2.29-3.4.63-5.43-.34-5.57-4.08a17.4,17.4,0,0,0-2-.13l2.82-3.44,2.19-1.75H229Z"/><path class="cls-11" d="M220.05,59c-1-.38-2.74-.58-2.89-1.18-.41-1.6-.14-3.38-.14-5.72l-2.78,2.1c0-.33-.09-.67-.13-1q1.48-3.11,3-6.21l3,0a7.37,7.37,0,0,0,0,.94C220.06,51.65,220.05,55.33,220.05,59Z"/><path class="cls-2" d="M220.06,48a7.37,7.37,0,0,1,0-.94l4.12-5.54c.13,1.13.26,2.31.4,3.49C222.32,44.84,223.86,50.44,220.06,48Z"/><path class="cls-2" d="M224,36l4,2Z"/><path class="cls-2" d="M217.09,44l1-2,2-1Z"/><path class="cls-2" d="M215.06,45l2-1c0,.66,0,1.33,0,2Z"/><path class="cls-2" d="M226,47.31a3.91,3.91,0,0,1-.6-.45s.12-.37.2-.38a4.68,4.68,0,0,1,.83.05C226.29,46.79,226.15,47.05,226,47.31Z"/><path class="cls-2" d="M189.06,272.11l5.12-6C194.84,270.16,191.77,271,189.06,272.11Z"/><path class="cls-12" d="M224.15,108c0,.34,0,.68-.07,1a62.57,62.57,0,0,1-7.09-3c-.32-.18.46-2.35,1-4.81l-9.05-1.31L207.39,97c-.16-1.32-.31-2.64-.46-4,1,0,2.6.26,2.87-.2,3.18-5.5,7.82-1.35,11.52-3l.21,1.22L212,92.73l8.35,2L219,97.91l4.08,3-1.47,1.81,2.46,1.37.06,2Z"/><path class="cls-9" d="M206.78,89.05c-.27-.67-.55-1.34-.83-2l17.1.35.93,1.5Z"/><path class="cls-7" d="M70.15,23a5,5,0,0,1-.28.93C70,23.65,70.06,23.34,70.15,23Z"/><path class="cls-15" d="M77.76,72.79l2.15,3.07-1,.86-2.68-2.83Z"/><path class="cls-15" d="M79,64l1,1c0,.35,0,.7,0,1s0,.61,0,.92L80,67Z"/><path class="cls-3" d="M122.05,28l-2-2,2-2.11Z"/><path class="cls-7" d="M219.25,23.31l-2.19,1.75-2.14-1.83Z"/><path class="cls-18" d="M94.14,219.12c.07-.68.13-1.36.2-2.05.55-1.41,1.1-2.82,1.66-4.23l2-.2,4,.05,4-.08,2.23-.22,3.49.09,2.29.26a1.58,1.58,0,0,0,1-.21l11,.24h1.11l3-.07h10l12.87.05,2.14.05,4-.06h6.89l1.13.05,5,0h9l2.07.12,9,0,4-.06,3,.06h2l1,0h2l1.49,1.29q0,3.32-.08,6.64v1.4q.09,3.33.2,6.65L204,231l-1.89.26-8,.3-3,0-21.13-.2H167l-4.94-.06H161l-2,0-3,.05-9,0H146l-4.95-.12H140l-10,.25-5-.13-1.09-.06-7,.09-6,0-3,0-7-.09v-.29c-4.55-1.59-6.84-4.42-5.56-9.51C95.65,220.89,94.62,219.94,94.14,219.12Zm50.82,5,.83,1.13,1.25.79,1.76,1.47c.2-.67.67-1.4.53-2a10.2,10.2,0,0,0-1.28-2.44l1.42-.67-.58-.59-.83,1.28a5.42,5.42,0,0,1-.9,0v-3l7.12,1.11.46,1.87-.78,4.15c4-.11,3.25-2.67,2.83-5.05l0-3.32c.25-.73.49-1.46.73-2.18l-1.33.67-1.13.91c-.78-1.05-8-1.13-8.84-.1l-.54,1.67a1.72,1.72,0,0,0-.72.22h-.77L143,218l-1,.46a5.56,5.56,0,0,0-.87-.46l-3.25-.1a3.48,3.48,0,0,0-.83.26l-8,1.8-2.81-.93,2.81,7,8.88.33L141,222.1l.91-.54.87.73v4.36l1,.08.45-2.57.37,0Zm19.17-6.87-.64.93,0,1.82c-.13,2-.27,4-.4,6l4,.81.45.12.46-.07.77-.82,0-1-.42-7.16-1.19-.77h-2.28A1.05,1.05,0,0,0,164.13,217.28Zm26.92,1.85h0l-1-1.29-2,4.12-.76,1-.15,2.17c1.44,2.73,2.12,2.72,4.16,0l.51,0,.86,1.36,3.47-.31H198l3.83-.14.08-2.9c0-1.3.51-2.76.07-3.86-.91-2.27-2.38-3.3-4-.35l-1.48-.18-3.28-.69-1.16,1Zm-87.44,7.81,1.71,0c3.6-2.93,1-6.3,1.54-9.44l-1.21-.15-.78,3.57-1.68-3.64-1.15-.2L97,216.16l-.27,1.16,4.2,3.06-4-.36,4.13,6v-7.8l1.34,7.1Zm16.65-4.88L118,216.6l-.54.64c.17,2.62.33,5.25.5,7.87l-2.07,1,.83,1.07,2.32-1c.38-1,.77-2,1.16-3,.11-.11.33-.24.32-.33A5.7,5.7,0,0,0,120.26,222.06Zm54.9-3.71-2.2-1.1c-5.37.68-2.35,4.84-2.71,7.29-.47,3.11,1.37,3.73,3.77,1.57l4.25.16a22.71,22.71,0,0,0-.74-4.7A14.05,14.05,0,0,0,175.16,218.35Zm-66.3-.28h-.47V226l.47,0Z"/><path class="cls-17" d="M183.09,212.92,181,212.8h-9l-5,0-1-.74-2-1.94,2,0h4c.65-1.19,1.29-2.39,1.93-3.59l12.07-.45c3.42.06,6.85.31,10.26.13s7.06-.77,10.59-1.18l1.16,1,0,6.1-2,.87h-2l-1,0h-2l-3-.06-4,.06Z"/><path class="cls-22" d="M208.86,216.19q-.95-5-1.91-10,.27-9.58.52-19.18c0-1-.07-2-.1-3-.36-1-.71-2.06-1.07-3.08a1.75,1.75,0,0,1,0-.85l.91-5.06c-.11-2.36-.23-4.73-.34-7.1l.36-2.9c.62,1.64,1.73,3.28,1.77,4.93.18,8.17.08,16.35.08,24.52l1.08.2q1.43-1.83,2.84-3.68l0,24.13Z"/><path class="cls-10" d="M208.86,216.19l4.1-1,0,25c-1,1-2.23,1.75-2.77,2.9a44.15,44.15,0,0,0-1.9,6c0-3.62,0-7.24,0-10.85,1.16-1.94,2.33-3.88,3.71-6.17l-3.65-1.1,0-1.72c.21-.73.43-1.46.64-2.19,0-1.64,0-3.27,0-4.91l-.12-2.09Z"/><path class="cls-23" d="M208.26,249.1a44.15,44.15,0,0,1,1.9-6c.54-1.15,1.82-1.95,2.77-2.9q0,6.48.07,13c0,.33-.07.67-.1,1,0,1.33.08,2.67.13,4-.32,1-.63,2-.95,3l-3.84,0Q208.24,255.14,208.26,249.1Z"/><path class="cls-22" d="M191.11,231.62l3,0,8-.3L204,231l2,1c0,.39,0,.79.07,1.18l-9.18,3.16c-1.54-.79-3-1.44-4.31-2.23a24.28,24.28,0,0,1-2.37-1.84Z"/><path class="cls-9" d="M207.47,187q-.25,9.59-.52,19.18c-.29-.06-.58-.12-.86-.2l-1.16-1,.18-5c1.87-.6,1.88-1.11,0-3.84-.33-.64-.67-1.28-1-1.92Z"/><path class="cls-22" d="M208.34,231l3.65,1.1c-1.38,2.29-2.55,4.23-3.71,6.17Z"/><path class="cls-22" d="M208.88,220.07l.12,2.09Z"/><path class="cls-22" d="M209,227.07c-.21.73-.43,1.46-.64,2.19C208.59,228.53,208.8,227.8,209,227.07Z"/><path class="cls-23" d="M205.93,232l-2-1,1.71-2.05C205.76,230,205.85,231,205.93,232Z"/><path class="cls-23" d="M204.07,213l2-.87c-.16.72-.33,1.44-.5,2.16Z"/><path class="cls-23" d="M205.48,222.32v0Z"/><path class="cls-11" d="M212.9,254.15c0-.34.06-.68.1-1l2.14,1,10.21-1.67c-.44-6.16-.87-12.26-1.31-18.36l1.11-9.88c.63,1.27,1.77,2.53,1.8,3.82.15,7.38,0,14.76,0,22.14-.31,2-.63,3.93-.95,5.89l0,.15c-3.12,0-6.26.16-9.35-.14C215.4,255.93,214.17,254.81,212.9,254.15Z"/><path class="cls-14" d="M226,256.05c1.29,1.29,3.31,2.38,3.7,3.9.65,2.51.25,5.29.3,8l-6,0q-.51-3.93-1-7.86l3-3.9Z"/><path class="cls-6" d="M224.06,268l6,0,2.06,2.28-6.42.92h-3.15l-4.36-.85L215,269.3a4.82,4.82,0,0,0-1-.14Z"/><path class="cls-14" d="M228.06,250.17l3-4v7.26l-1.2.45Z"/><path class="cls-8" d="M225.66,271.11l6.42-.92Z"/><path class="cls-8" d="M218.15,270.25l4.36.85Z"/><path class="cls-8" d="M91.13,90.72H75.71v-1H91.12Z"/><path class="cls-14" d="M110,263.17l-3-2.33c-.36,2.78-.65,5-1,7.26l-1.94.15q-.74-5.37-1.46-10.73c-.2-1.47-.42-2.94-.63-4.4h0l7,1C109.37,257.14,109.71,260.16,110,263.17Z"/><path class="cls-6" d="M106,270.13l2,2Z"/><path class="cls-6" d="M104.12,268.25l1.94-.15v2.07Z"/><path class="cls-8" d="M125.1,283.1l-1.91-.09a2.77,2.77,0,0,1-.16-.81Z"/><path class="cls-6" d="M108,272.14l1,1Z"/><path class="cls-14" d="M221.12,85.06l-6-1.53V76.24l6.31,3.1c.46-2.4.79-4.08,1.12-5.76l1,0,.86,11.15L229.06,82l2,3Z"/><path class="cls-7" d="M232,233.08c-2.9-3.64-1.3-7.28,0-10.91Z"/><path class="cls-15" d="M142,22l.25-.42-.22.44Z"/><path class="cls-8" d="M129.06,284.15l-1.18-.18Z"/><path class="cls-14" d="M213.07,80c-.33,1.67-.67,3.34-1,5l-5.16.84c0-1.57.05-3.15.08-4.72Z"/><path class="cls-14" d="M214.86,85.19l3.35-.08Z"/><path class="cls-5" d="M224.06,268l-10,1.2L212,269l.09-7.91c.32-1,.63-2,.95-3a11,11,0,0,1,10,2Q223.55,264,224.06,268Z"/><path class="cls-2" d="M144.16,252.24,141.92,255l-2.85,1.19-2-1.05c0-.57,0-1.14,0-1.71l-.46.13c.13.53.28,1.06.43,1.58l1.12,2.05L136,263.13l-8.07-5.8,7.3-1.33c-1-2-2.17-4.17-3.39-6.5l1.24-1.45,5.77-1.76-4.77-2.16-.69-3.94,3.81-1,7.92-2c0,.3,0,.61,0,.92-1,1.08-2.48,2-2.92,3.29a38.41,38.41,0,0,0-1,6.65Z"/><path class="cls-22" d="M117,231.45l7-.09,1.09.06,5,.13,2,5.6-2.85,1L112,236.14l-1-1,0-1c0-.64,0-1.29,0-1.93Z"/><path class="cls-23" d="M191.11,231.62l-1,.63-5.08.84c-3.65,0-7.31.19-10.95,0-1.4-.09-2.75-1.07-4.13-1.64Z"/><path class="cls-12" d="M129.2,238.19l2.85-1,5.13,2-3.82,1-4.36.86C129.07,240.1,129.14,239.15,129.2,238.19Z"/><path class="cls-2" d="M175.4,238.14l1.88,6.69-5.94-.93c1-2.13,1.84-4,2.71-5.9Z"/><path class="cls-23" d="M156.05,231.4l3-.05Z"/><path class="cls-23" d="M140,231.3h0Z"/><path class="cls-23" d="M146,231.42h0Z"/><path class="cls-23" d="M161,231.37h0Z"/><path class="cls-23" d="M167,231.42h0Z"/><path class="cls-2" d="M129.2,238.19c-.06,1-.13,1.91-.2,2.87l-3-1.95,0,0-2.72-.86c-1.1,2-2.27,3.88-3.27,5.89-.64,1.27-1,2.66-1.91,4.92l2.06,2.44L115,260c-.31-2.63-.49-4.22-.7-6.1l-5.25.25-7-1c0-.94.07-1.88.11-2.82l2.89-6.56,1.78-9.33,4.23-.3c0,.34,0,.68,0,1l-1.79,1.35,2,1.72v10l4.94-2.7c-1.35-2.28,2.38-7.41-4.1-7.3v-2.09Z"/><path class="cls-11" d="M126.05,239.11l3,1.95,4.36-.87c.24,1.31.47,2.62.7,3.94l-4,1-4,1.28Z"/><path class="cls-12" d="M130.05,245.12l4-1,4.77,2.16-5.77,1.76Z"/><path class="cls-11" d="M123.35,238.27l2.72.86Z"/><path class="cls-14" d="M118.05,269.16l-1-1Z"/><path class="cls-18" d="M142.16,273.1c0-1.33-.49-3,.1-3.91a5.61,5.61,0,0,1,3.62-2.6c1-.06,3,1.86,2.87,2.72a5.71,5.71,0,0,1-2.72,3.53c-1,.6-2.59.18-3.91.22Z"/><path class="cls-7" d="M156.92,254.23l1.53.09-1.25,1.74C157.11,255.45,157,254.84,156.92,254.23Z"/><path class="cls-2" d="M161.08,248.12l.74,1.08-.38.25c-.13-.43-.27-.86-.4-1.29Z"/><path class="cls-12" d="M141.08,248.06a38.41,38.41,0,0,1,1-6.65c.44-1.28,1.91-2.21,2.92-3.29,2.69,2.68,1.92,5.77,1,8.87l-2-3.25v4.39Z"/><path class="cls-2" d="M144.05,248.13v-4.39l2,3.25Z"/><path class="cls-5" d="M137.06,255.14l2,1.05-.9,1c-.37-.68-.75-1.36-1.12-2.05Z"/><path class="cls-2" d="M127,80.68l-2,0-9-1.63c-3-.35-6.67-.08-5-5.06l5-3,2,0,1-1h1l2-1h1l5,3c0,.66,0,1.33,0,2l-1,6A5.52,5.52,0,0,0,127,80.68Z"/><path class="cls-6" d="M100,47l9-.54c-.27.81-.53,1.61-.79,2.41-.71.39-2,.72-2,1.17-.21,2.27.11,4.61-.18,6.87C105.76,58,104.69,59,104,60a33.14,33.14,0,0,1-.83-5.95c.11-3.05-.4-5.21-4.06-5C99.41,48.34,99.68,47.65,100,47Z"/><path class="cls-4" d="M116.06,79l9,1.63H105.13Z"/><path class="cls-3" d="M100,47c-.27.69-.54,1.38-.8,2.07L98.07,47Z"/><path class="cls-4" d="M102.93,80.47l-1.81.12Z"/><path class="cls-3" d="M95,47l-.24.41L95,47Z"/><path class="cls-4" d="M149.06,23c3.46-.1,4.66,2.54,6,5l0,7h0c-.66.56-1.8,1.06-1.9,1.71-.55,3.77-.85,7.57-1.23,11.36l-4-.15-.87-2,.22-.41-.22.41-2,2.09a3.38,3.38,0,0,0-.9-.06c-.36-.67-.71-1.35-1.07-2l-2-2c.73-.95,1.45-1.9,2.28-3l-4.65-3.1,8.89-1.55C142.15,30.82,148.82,27.49,149.06,23Zm1,20-.37,1.3.37-1.3.23-.42Zm3.17-13.75a1,1,0,0,0-.41.14s.05.23.09.36a1.32,1.32,0,0,0,.41-.14S153.26,29.35,153.23,29.23Z"/><path class="cls-13" d="M127.05,80q.49-3,1-6c5.93-.35,7.05-2.14,5-7.89.34-2,.67-4.06,1-6.1l3-1,2,1c2.07,2.55,5.18,5.14-.3,7l4.07,3-.76,1-3.88-1.92c-.38,4.06-.74,7.79-1.1,11.52l-3,.07-1-1.64Z"/><path class="cls-5" d="M137.08,80.58c.36-3.73.72-7.46,1.1-11.52L142.06,71l.76-1-4.07-3c5.48-1.87,2.37-4.46.3-7l4-1,1,.21L144,62V80a2.61,2.61,0,0,0,0,.68Z"/><path class="cls-13" d="M118,71l-2,0c-1.81-3.9-.18-9.72,3.26-12.28.81-.6,1.19-1.78,1.76-2.69a7.3,7.3,0,0,1,.94.05l.06,1.91c0,.35,0,.69,0,1,.74,3.09,1.49,6.17,2.33,9.68L123,69h-1l-2-2-.42-.23.42.23c0,1,0,2,0,3h-1Z"/><path class="cls-7" d="M133,66.09c2.07,5.75,1,7.54-5,7.89,0-.66,0-1.33,0-2C128.13,68.69,126.78,64.16,133,66.09Z"/><path class="cls-6" d="M144.09,59.17l-1-.21,1-11a3.38,3.38,0,0,1,.9.06Z"/><path class="cls-5" d="M137.06,59l-3,1Z"/><path class="cls-4" d="M122.06,59c0-.35,0-.69,0-1l1.3.52Z"/><path class="cls-11" d="M108,36.8c-.61.57-1.56,1.05-1.75,1.74-.41,1.53-.44,3.16-1.54,4.65-.74-2.71-1.49-5.42-2.43-8.81l5.55-.25C107.89,35,107.94,35.91,108,36.8Z"/><path class="cls-24" d="M184.08,159.09l14-1c2.33,3.94,6.11,1.15,9.11,2a3.85,3.85,0,0,1,.83.19l-1.79,3c-1.12-.42-2.32-1.28-3.35-1.12-1.25.18-2.37,1.24-3.54,1.93-1-.33-2-1-3-.94-5.77.28-11.52.72-17.29,1.12l-22,.78c-1.85-.57-3.68-1.23-5.56-1.69-2.9-.71-4.56.31-4.38,3.53l-1.07,0v-4c4.2-.76,8.4-2,12.61-2.1,2.69,0,5.38-1.52,5.43-4.74a10,10,0,0,0,6.95-7.88l1.05-.1,2,2C174.49,156,179.18,160.23,184.08,159.09Z"/><path class="cls-25" d="M150,114l-3-4.83L142.94,105a20.68,20.68,0,0,1,3.32-2.08c.39-.15,1.19.69,1.8,1.07l-.23.41.23-.41,3.62-1.12,6.42,3.14c2.28,2,4.33,4.37,6.9,5.86,5.12,3,7.82,1.21,8.09-4.86,2.94,1.91,6,3.71,8.79,5.79,1,.73,1.46,2.17,2.18,3.28l-5.11,4c-5.43-.74-8.53,1.86-10,6.9-.12.42-.62.72-.95,1.08-.31-.61-.63-1.21-1-1.82l-6-6.21-.14-1.82,2-2.5-7.6-3.84Z"/><path class="cls-26" d="M173.09,107.05c-.27,6.07-3,7.84-8.09,4.86-2.57-1.49-4.62-3.88-6.9-5.86l2-2c.24-1.07.48-2.14.82-3.6L158.12,102l.39-11c2.53,1.68,5,3.52,8.32,2.27.39.89,1.24,1.89,1.08,2.66-.76,3.54.24,5.36,4.08,5a8.16,8.16,0,0,1,.94,2.13A37.54,37.54,0,0,1,173.09,107.05Z"/><path class="cls-26" d="M179,120.08l5.11-4c5,3.16,10,6.28,15,9.48a31,31,0,0,1,3,2.43l-8,3,0,0,2.78-2.07-.3-.77-4.36.85c-4.74,1.48-9-.57-12.18-5.92Z"/><path class="cls-13" d="M193.15,81.35h-9.07l-2-.14h-1l-6-.39,1-.81h5c3.33.69,5.3-.69,6-4l1.07-2.13,5-2.92H202l2,3.06.93,6.79.11.42h-1l-7.09.07a.83.83,0,0,0-.87,0l-2.14,0A.81.81,0,0,0,193.15,81.35Z"/><path class="cls-26" d="M142.94,105l4.05,4.13c0,.26,0,.52,0,.77L143.23,112l-3.08.07a32.64,32.64,0,0,0-4.47-3.64c-2.43-1.37-5.08-2.34-7.63-3.49-.09-3-3.69-6-.06-9l11.76,7.07C140.82,103.71,141.88,104.38,142.94,105Z"/><path class="cls-27" d="M128,96c-3.63,3,0,6,.06,9L127,106.08c-2.34-5-10.11-6.66-8.8-13.9.25-1.42,1.33-2.7,2-4l7.83.9,0,0Z"/><path class="cls-28" d="M179,120.08l1,3.09q-3.5,5.39-7,10.77c-2.6-1.16-6-1.66-5-5.88.33-.36.83-.66.95-1.08C170.42,121.94,173.52,119.34,179,120.08Z"/><path class="cls-12" d="M172,101c-3.84.37-4.84-1.45-4.08-5,.16-.77-.69-1.77-1.07-2.66.43-2,.87-4,1.31-6,2.55,2.51,5.59,4.74,7.38,7.71C176.09,96,173.27,98.93,172,101Z"/><path class="cls-27" d="M168,128.06c-1,4.22,2.39,4.72,5,5.88q-.48,7.06-.95,14.13l-1.05.1c-.84-1.53-2-3-2.47-4.61-1-4.08-1.74-8.24-2.58-12.37l1.11-5C167.39,126.85,167.71,127.45,168,128.06Z"/><path class="cls-5" d="M205,80.83,204.07,74l6-2,2,0c0,.41.05.83.07,1.24.32.61.65,1.21,1,1.81v5L207,81.16Z"/><path class="cls-12" d="M207.88,105c1.08.27,2.51.2,3.17.88,1.85,1.9,3.39,4.1,5,6.18-2.13.35-4.24.41-4.86,3.33-.22,1.06-1.93,1.8-3,2.69-.23-3-.47-6-.7-9C207.67,107.68,207.78,106.32,207.88,105Z"/><path class="cls-14" d="M168.15,87.35c-.44,2-.88,4-1.31,6-3.33,1.25-5.8-.59-8.33-2.27.83-3,2.12-5.06,5.85-3.45C165.4,88,166.87,87.45,168.15,87.35Z"/><path class="cls-25" d="M184.08,159.09c-4.9,1.14-9.59-3.08-10-9C177.7,152.74,183.75,152.74,184.08,159.09Z"/><path class="cls-4" d="M208,160.24a3.85,3.85,0,0,0-.83-.19c-.06-.66-.13-1.32-.19-2-.26-9.25-.58-18.49-.71-27.74,0-1.42.86-2.86,1.32-4.28l1.71-.27c0,.36-.09.72-.14,1.07-.33,1.08-.67,2.15-1,3.23v20Z"/><path class="cls-27" d="M194,131.05l8-3c2.77,1.67,1.61,3.43.11,5.19,0,.27-.08.54-.13.82-.27,2.88-1.56,3.56-3.75,1.56C196.76,134.2,195.45,132.57,194,131.05Z"/><path class="cls-21" d="M181.72,131.81l7.16,5.11c-1.14.7-2.29,2-3.43,2C182.23,138.91,180.78,137.05,181.72,131.81Z"/><path class="cls-9" d="M162.07,81.25l-13-.53L150,80c4.63-.59,9.47,1.56,13.91-2.44,2.3-2.07,4.5,0,4.18,3.39Z"/><path class="cls-12" d="M209.29,125.78l-1.71.27V124a2.87,2.87,0,0,0,.33-.21c-.1-.22-.24-.42-.36-.63,0-1,0-2,0-2.94a1.09,1.09,0,0,0,.71-.12l4.69-1,1,3.06Z"/><path class="cls-29" d="M162.07,81.25l6-.35,7-.08,6,.39C179,83.1,164.23,83.12,162.07,81.25Z"/><path class="cls-25" d="M207,158.07c.06.66.13,1.32.19,2-3-.82-6.78,2-9.11-2h5.68c.3-2.22.57-4.25.85-6.29l.93.05Q206.23,154.95,207,158.07Z"/><path class="cls-4" d="M208.28,120.06a1.09,1.09,0,0,1-.71.12V109c.23,3,.47,6,.7,9C208.27,118.71,208.28,119.39,208.28,120.06Z"/><path class="cls-25" d="M158.12,102l2.78-1.57c-.34,1.46-.58,2.53-.82,3.6l-5.29.35Z"/><path class="cls-27" d="M192.17,129.09l4.36-.85.3.77-2.78,2.07Z"/><path class="cls-4" d="M127.05,80l6-1v1.73L127,80.68A5.52,5.52,0,0,1,127.05,80Z"/><path class="cls-5" d="M150,80l-.93.77-3,0-.88-.74,1.89-.93,3,0A6.86,6.86,0,0,1,150,80Z"/><path class="cls-4" d="M207.39,97l1.53,2.92-1.62.22Z"/><path class="cls-29" d="M182.07,81.21l2,.14L183,82.64Z"/><path class="cls-4" d="M207.55,123.12c.12.21.26.41.36.63a2.87,2.87,0,0,1-.33.21l-.86-.55Z"/><path class="cls-9" d="M133.06,80.74V79l1,1.64Z"/><path class="cls-9" d="M145.17,79.94l.88.74H144a2.66,2.66,0,0,1,0-.69Z"/><path class="cls-27" d="M128.07,89l.2-.41c-.08.12-.17.24-.25.37Z"/><path class="cls-4" d="M207.16,100.24l.18.28-.18.29-.82-.29Z"/><path class="cls-29" d="M204.11,81.24h0Z"/><path class="cls-26" d="M202.05,134c0-.28.09-.55.13-.82C202.13,133.49,202.08,133.76,202.05,134Z"/><path class="cls-29" d="M196.15,81.36a.83.83,0,0,1,.87,0Z"/><path class="cls-29" d="M193.15,81.35a.81.81,0,0,1,.86,0Z"/><path class="cls-13" d="M80.05,66c0-.35,0-.7,0-1L84,65,86,67.16V63h1l2.46,7.3L81,67Z"/><path class="cls-4" d="M85,60l2.85-2.11L87,62Z"/><path class="cls-15" d="M86,63v4.17L84,65Z"/><path class="cls-13" d="M85,77l.41.23L85,77Z"/><path class="cls-9" d="M80.05,66,81,67h-.46l-.45,0C80.06,66.64,80.05,66.33,80.05,66Z"/><path class="cls-10" d="M145.17,79.94,144,80V62q1.65-1.48,3.28-3c2,1.67,3.65,1.88,4.61-.21,1.24-2.7,1.51-5.85,2.19-8.8l5.31-.63-.73,4.14.7.25,5.26-7.39c-5.3-4,3.31-5,2.42-8.38v7c0,.32,0,.65,0,1s0,.67-.05,1a76.29,76.29,0,0,0,.18,9.81c.18,1.28,1.89,2.36,2.9,3.53-.27,1.08-.35,3-.84,3.12-5.19,1.19-2.78,4.31-1.5,7.38l-5.68-.68-.16,1.34,12.94,2V66.84l1.2,0V80l-1,.81-7,.08c.32-3.34-1.88-5.46-4.18-3.39-4.44,4-9.28,1.85-13.91,2.44a6.86,6.86,0,0,0,0-.91l1.2-1.76-.72-.9L147.06,79ZM152.06,68l.41.23-.41-.23c-.66-2.33-2.12-2.77-2.75-.37-.5,1.93.44,4.24.74,6.38l1,1.29.35-.35-1.3-1Q151.05,71,152.06,68Zm11.84,0c-.53-.38-.85-.79-1.19-.8s-.78.33-1.17.52a4.47,4.47,0,0,0,1.15,1C162.9,68.87,163.35,68.38,163.9,68Z"/><path class="cls-13" d="M167.07,45V38c.89,3.35-7.72,4.42-2.42,8.38l-5.26,7.39-.7-.25.73-4.14-5.31.63L153,48.87,152,48l0,.06c.38-3.79.68-7.59,1.23-11.36.1-.65,1.24-1.15,1.9-1.71v8.77L160,42c.23.73.47,1.45.7,2.18L162,42.84l-1.69-1.1c.17-1.94.35-3.87.61-6.73h-5.79l0-7c1,.07,2.62-.18,2.85.28,2.08,4.15,4.61,2,7.12.72l0,1v4l-.23.42.23-.41,2.06,0,3.67.34-2.09,4.3,3.18-.6C173,42.14,169.18,43,167.07,45Z"/><path class="cls-23" d="M176.07,77V66.87l-1.2,0v6.58l-12.94-2,.16-1.34,5.68.68c-1.28-3.07-3.69-6.19,1.5-7.38.49-.11.57-2,.84-3.13l.54-2.17c-.13-.73-.25-1.46-.38-2.19q.3-4,.61-7.94L178,46c-.94,4.81,4.48,10.13-1.18,14.66-.43.35-.13,1.93.18,2.81,1.54,4.42,2.29,8.88,1,13.5Zm-4.13-8.47-.69.23.32,1.65L172.7,70Z"/><path class="cls-10" d="M178.05,77c1.28-4.62.53-9.08-1-13.5-.31-.88-.61-2.46-.18-2.81,5.66-4.53.24-9.85,1.18-14.66l3.62-4.7c.89,2.42,2,5.54,3.18,8.66,0,2.36,0,4.72,0,7.08l.18,3.95,0,6c-1,.16-2.76.22-2.8.51-.53,4.13-.84,8.3-1.2,12.46h-2Zm2.3-13.6a1.13,1.13,0,0,0-.42-.13c-.05,0-.09.22-.14.35a1.5,1.5,0,0,0,.43.13C180.27,63.73,180.31,63.51,180.35,63.39Z"/><path class="cls-13" d="M187.06,48c.49-3.07,1.39-5.74,3.54-5.65L196.08,48h0a5.32,5.32,0,0,0-.92,1.65c-.36,2.36-.59,4.74-.87,7.12L187.66,55a2,2,0,0,0-.49,0C187.13,52.68,187.1,50.35,187.06,48Z"/><path class="cls-11" d="M170.88,48q-.31,4-.61,7.94c.13.73.25,1.46.38,2.19l-.54,2.17c-1-1.16-2.72-2.24-2.9-3.52A76.29,76.29,0,0,1,167,47l1,0Z"/><path class="cls-2" d="M198.07,42c.92.77,2.72,1.7,2.61,2.28-.63,3.3-1.71,6.52-2.64,9.76-.65-2-1.31-4-2-6h0Z"/><path class="cls-6" d="M187.06,48c0,2.32.07,4.65.11,7L187,59.39l-1.86-.47-.24-1.86c0-2.36,0-4.72,0-7.08Z"/><path class="cls-5" d="M165.06,30l0-1c1.44-1.82,2.76-1.5,4,1l-1,1Z"/><path class="cls-2" d="M165.06,30l3,1-.93,3-2.06,0h0Z"/><path class="cls-13" d="M187.28,39.1l1.63,1.78-.57.65-1.86-1.65Z"/><path class="cls-13" d="M168.06,46.94l-1,0c0-.34,0-.67.05-1C167.4,46.29,167.73,46.61,168.06,46.94Z"/><path class="cls-9" d="M187,59.39l.18-4.38a2,2,0,0,1,.49,0l6.63,1.75c.28-2.38.51-4.76.87-7.12a5.32,5.32,0,0,1,.92-1.65c.65,2,1.31,4,2,6q0,3.48,0,7l-1,1v3l0,4.26,5-.22V71h-8.87c-.26-3.12-.19-6.66-5-3.83Z"/><path class="cls-7" d="M202,71c0-.64,0-1.29,0-1.94,0-1,.08-2,.11-3a6.27,6.27,0,0,0,1-.11l7,3.1c0,1,0,2-.05,3l-6,2Z"/><path class="cls-6" d="M214.11,53.2c0,.33.09.67.13,1,.19,2.77-1.14,2.9-3.16,1.83L205.78,47l1.73-1.27Z"/><path class="cls-2" d="M203.08,65.9a6.27,6.27,0,0,1-1,.11l-5.05-1V63c0-.34,0-.68,0-1l1-1,3.23-.68C201.9,62.21,202.49,64.06,203.08,65.9Z"/><path class="cls-2" d="M206.77,60.92l2,3.73-1.66.94c-.74-1.15-1.48-2.3-2.23-3.45Z"/><path class="cls-9" d="M210,72c0-1,0-2,.05-3,.33-.69.67-1.38,1-2.07l1.15,1.12.06,2.9L212,72Z"/><path class="cls-2" d="M209.07,58l-2.59-.55L207,56.2,209.09,58Z"/><path class="cls-7" d="M212.25,68.05l-1.15-1.12c0-.59,0-1.19.05-1.78L213.91,67c0,.34,0,.68,0,1Z"/><path class="cls-13" d="M211.08,40l-.23.42.23-.42Z"/><path class="cls-25" d="M146,162.89v4a2.59,2.59,0,0,1-.83.1,21.87,21.87,0,0,1-3.36-.26c-2-.45-3.92-1.08-5.87-1.64,3-1,3.66-4.36,1.28-7.08a1.76,1.76,0,0,1-.24-.9l3-1L127,151.07l-6-6c4.63-4.07,4.84,2.19,8.23,3.17l4.9-4.29L140,142c2-.06,4,3.88,6,0l5,1.43c-.79,1.59-1.83,2.82-2,4.15-.56,4.52-.35,9.23-4.43,12.55C144.45,160.28,145.52,161.94,146,162.89Z"/><path class="cls-26" d="M146,142c-2,3.89-4,0-6,0-.21-3.26-.43-6.52-.64-9.77l-.51-3.12c1.94-1.52,4.4-2.69,5.71-4.64,2.2-3.23,3.67-7,5.44-10.49l5.31-2.13,7.6,3.84-2,2.5c-1.3,1.23-2.69,2.38-3.89,3.7-2.19,2.42-4.34,4.89-6.39,7.43a46.49,46.49,0,0,0-2.74,4.15Z"/><path class="cls-24" d="M95,154l2,0,5,2,2,0h1c1.92,1,3.74,2.45,5.78,2.9,2.29.5,4.77.1,7.17.1l-9.89,11-11-1.33-4.1-1.49V150.08c.33,1,.66,2,1,3Z"/><path class="cls-5" d="M86.28,163c-.07-9.89-.44-19.79,0-29.66.12-2.8,2.5-5.5,3.85-8.25l2-.08.54,1.26c0,.51,0,1,0,1.54-.19,1.77-.55,3.54-.57,5.31-.11,9.63-.14,19.26-.2,28.9Z"/><path class="cls-29" d="M118,159.06c-2.4,0-4.88.4-7.17-.1-2-.45-3.86-1.89-5.78-2.9.44-1.64-3-4.06,1-5l2.21,5.23c3.44,0,3.44,0,1.79-6.23l6.76.61,4.24-5.6,6,6-7,5.9Z"/><path class="cls-12" d="M139.35,132.25c.21,3.25.43,6.51.64,9.77L134.17,144q-2-8-3.91-15.94c1.75-.06,4.11-2.29,4.64,1.79C135,130.79,137.79,131.44,139.35,132.25Z"/><path class="cls-27" d="M91.89,162c.06-9.64.09-19.27.2-28.9,0-1.77.38-3.54.57-5.31q.21,11.13.4,22.26v17.17l4.1,1.49-4,1.29L92,167.12C91.94,165.42,91.92,163.72,91.89,162Z"/><path class="cls-2" d="M139.35,132.25c-1.56-.81-4.33-1.46-4.45-2.45-.53-4.08-2.89-1.85-4.64-1.79.84-2.62,1.67-5.23,2.71-8.47l5.87,9.59Z"/><path class="cls-16" d="M127,106.08l1.05-1.11c2.55,1.14,5.2,2.11,7.63,3.48a32.64,32.64,0,0,1,4.47,3.64C135.2,111.33,130.21,110.64,127,106.08Z"/><path class="cls-27" d="M92.64,126.28,92.1,125c0-1.33-.09-2.66-.13-4l-1.85-2.26L90,117c0-1,0-2,0-3l2.79-4.14Q92.73,118.1,92.64,126.28Z"/><path class="cls-20" d="M110,150.06c1.65,6.18,1.65,6.18-1.79,6.23L106,151.06Z"/><path class="cls-29" d="M102.05,156.05l-5-2C99.28,153.28,101.31,153,102.05,156.05Z"/><path class="cls-25" d="M143.23,112l3.81-2.08-1,1.11-1.1,1Z"/><path class="cls-25" d="M122.19,139.28l.38-1.64,1.09.42-.8,1.48Z"/><path class="cls-25" d="M122.79,131.93l.22,2-.58.09-.32-2Z"/><path class="cls-29" d="M95,154l-1-1Z"/><path class="cls-26" d="M144.94,112l1.1-1Z"/><path class="cls-29" d="M105,156.07h0Z"/><path class="cls-5" d="M74,219.18c-.64-1.36-4.28-2.71,0-4.11l2.92,3.63,2.65-6.55H74.24c0-.7,0-1.39,0-2.09,3,.37,5.34,0,4.74-3.92v-20c-.25-.32-.78-.78-.7-1,.48-1.06,1.11-2,1.68-3.07,0-.33,0-.66,0-1l1-2,3,0,1,9c-.33,4.24-.84,8.47-.94,12.72-.16,7.1-.07,14.2-.08,21.31Z"/><path class="cls-2" d="M91.89,162c0,1.69,0,3.39.07,5.09-4.55,5.41-.93,11.26-.89,16.92l-2.94,2q-1-2-2-4c.12-.09.37-.21.35-.26a3.77,3.77,0,0,0-.32-.71q.06-7,.1-14l1.41-1-1.46-1,.12-2Q89.09,162.51,91.89,162Z"/><path class="cls-9" d="M81.25,130.26c1.26,1.15,3.26,2.12,3.59,3.5.56,2.3,0,4.87,0,7.32,0,.66,0,1.31,0,2L84.74,158l-2.29-4.5-2.35,1.6q0-9.41.07-18.81Z"/><path class="cls-2" d="M80.1,155.06l2.35-1.6,2.29,4.5q-.36,10.56-.71,21.13l-3,0-.18-13c0-.29.06-.57.08-.85L80,156A6,6,0,0,1,80.1,155.06Z"/><path class="cls-9" d="M88.13,186.06l2.94-2,1.33-3.69L94,183.56l6.73-1.16-2.64,2.69-4,4-1,3.06h0l-4.86-5C88.17,186.78,88.15,186.42,88.13,186.06Z"/><path class="cls-6" d="M81.25,130.26l-1.08,6L79.08,136,77,132c.38-.37.76-.74,1.13-1.12l1.77-1.85.21-1Z"/><path class="cls-8" d="M90,117l.09,1.77c0,.76-.05,1.51-.08,2.26l0,0-3,1.73c-.43-2.18-.78-4-1.25-6.38Z"/><path class="cls-8" d="M80.13,128l-.21,1c-.31,0-.61,0-.92-.07,0-1.62,0-3.23,0-4.85l3.1-2.16c.31.64.63,1.29.94,1.94L80.17,127Z"/><path class="cls-8" d="M92,121c0,1.33.08,2.66.13,4l-2,.08-.09-4,0,0Z"/><path class="cls-6" d="M80.17,127,83,123.93C82.07,125,81.12,126,80.17,127Z"/><path class="cls-5" d="M86.16,165.05l1.46,1-1.41,1C86.2,166.42,86.18,165.73,86.16,165.05Z"/><path class="cls-2" d="M84.86,143.05c0-.66,0-1.31,0-2C84.83,141.74,84.84,142.39,84.86,143.05Z"/><path class="cls-5" d="M86.11,181.1a3.77,3.77,0,0,1,.32.71c0,.05-.23.17-.35.26A2,2,0,0,1,86.11,181.1Z"/><path class="cls-9" d="M74,219.18l10,2.95-.06,10.94-4.36-1.74c-1.17,2.6-2.35,5.19-3.53,7.79l-1.82,0q-.14-6.94-.26-13.88c0-1.71,0-3.42.07-5.12C74.05,219.79,74.05,219.49,74,219.18Z"/><path class="cls-9" d="M74.2,248.11v-4L78,243.08l6,1.07V254h-5c.17-1.42.34-2.85.45-3.8Zm3.3-.79.75.78,1.21-1.37-.53-.5Z"/><path class="cls-3" d="M84,244.15l-6-1.07c0-.59,0-1.19,0-1.78l1.05-.23,1.16-.46c2.1-2.58,3.73-5.14-.18-7.57l-.44-1.71,4.36,1.74C84,236.76,84,240.46,84,244.15Z"/><path class="cls-13" d="M74.2,248.11l5.31,2.1c-.11.95-.28,2.38-.45,3.8l-4.86.37Z"/><path class="cls-13" d="M78,241.3c0,.59,0,1.19,0,1.78l-3.83,1.08,0-5.07,1.82,0,.32.06h.33l1.31,1,0,0Z"/><path class="cls-5" d="M74,220.09c0,1.7-.05,3.41-.07,5.12l-1.9,1Q73.06,223.14,74,220.09Z"/><path class="cls-2" d="M86.24,200.08l3.89,1.08-4,1C86.17,201.44,86.21,200.76,86.24,200.08Z"/><path class="cls-2" d="M86.15,226.12l1.46.8-1.52,1.2Z"/><path class="cls-19" d="M94.14,219.12c.48.82,1.51,1.77,1.35,2.43-1.28,5.09,1,7.92,5.56,9.51l-5,.3L93.18,231Z"/><path class="cls-17" d="M101.05,231.35l7,.09C105.66,233.47,103.34,233.48,101.05,231.35Z"/><path class="cls-17" d="M117,231.45l-6,.74c0-.26,0-.52,0-.78Z"/><path class="cls-17" d="M93.18,231l2.84.41-2,.78Z"/><path class="cls-27" d="M93,205.39l-1-.26q.49-5,1-10l1.94,0c3.62,1.62,6.41,1,8-2.95l1-.19,2.18,1.08a45.13,45.13,0,0,0,7.21-1.13c1.79-.58,5.18.26,4.5-3.6l5.38-1.14c-.28,1.18-.56,2.36-1,4.17l5.82-1.25h4c-3.62,1.51-7.18,3.23-10.89,4.49-6.91,2.35-15,.07-21.2,5.3l-5.9.2L93,205Z"/><path class="cls-14" d="M90.93,207.05q0,7.55.07,15.09c-5.53-1.7-2.57-6.74-3.76-10.11C86.45,209.78,87.46,207.05,90.93,207.05Z"/><path class="cls-20" d="M95,195.13l-1.94,0c0-1,0-2,0-3h0l1.86,1.07Z"/><path class="cls-4" d="M91,233.15c0,1,0,2,0,3C91,235.13,91,234.14,91,233.15Z"/><path class="cls-14" d="M111.77,212.48l-3.49-.09-2.23.22-4,.08-4-.05-2,.2a2.46,2.46,0,0,0-.92-.24l-1.14-.47-.9-6.74,0-.41,8,1,2-.07,7,.34,5,6.29a1.58,1.58,0,0,1-1,.21Z"/><path class="cls-19" d="M95.08,212.6a2.46,2.46,0,0,1,.92.24c-.56,1.41-1.11,2.82-1.66,4.23l-.21-3.9Z"/><path class="cls-23" d="M95.08,212.6l-1,.57c-.06-.35-.13-.7-.19-1Z"/><path class="cls-23" d="M224.85,201.18l0,2.85c-.09.12-.29.26-.27.36a4.69,4.69,0,0,0,.31.78q-.09,7-.19,13.9a4.53,4.53,0,0,0-.52,0l-3.71-.5c.62-3.3,1.15-5.91,1.51-8.54,0-.18-1.24-.53-1.91-.81l-1-.11c1.89-2.4,3.35-4.91,1.92-8.1,3.44-6.27.5-12.66.33-19l.66-10.86c.76-1.08,1.52-2.17,2.29-3.25l.21,7.8c-.08.47-.15,1-.23,1.43V183c0,.71,0,1.42,0,2.14l.75,6.89c0,1-.06,2-.08,3s-.29,2.18-.44,3.26c0,.52,0,1,0,1.56Z"/><path class="cls-12" d="M224.43,175.73l-.21-7.8q.33-15.88.67-31.79L223.12,132l3,.06c0,3.6,0,7.19,0,10.79,0,9.66,0,19.32-.13,29C226,173.15,225,174.43,224.43,175.73Z"/><path class="cls-22" d="M224.91,192l-.75-6.89c.63,2.35,1.25,4.69,1.87,7Z"/><path class="cls-22" d="M224.2,183v-5.85C227.13,179.11,227.1,181.06,224.2,183Z"/><path class="cls-22" d="M228.39,192.32v-1.48h.38v1.49Z"/><path class="cls-10" d="M224.15,219.1a4.53,4.53,0,0,1,.52,0l.42,4,.06,1.11L224,234.08l-1.95-.94-1-.95c-.17-3.38-.33-6.76-.5-10.42Z"/><path class="cls-10" d="M214,122.08,213,119l3.56-4.68,3.29,4.19,2.23-2.52,2.27.72-3.38,6.44c-.25,0-.51,0-.77-.06l-2,2C214.5,127.16,214.3,124.53,214,122.08Z"/><path class="cls-11" d="M222.05,116l-2.23,2.52-3.29-4.19L213,119l-4.69,1c0-.67,0-1.35,0-2,1-.89,2.75-1.63,3-2.69.62-2.92,2.73-3,4.86-3.33Z"/><path class="cls-17" d="M220.94,123.17l3.38-6.44a2.16,2.16,0,0,0,.78.21c-.47,3.55,1.4,7.78-2.94,10.21C221.75,125.83,221.35,124.5,220.94,123.17Z"/><path class="cls-11" d="M215.86,108.33h1.46v.39h-1.46Z"/><path class="cls-8" d="M220.94,123.17c.41,1.33.81,2.66,1.22,4,.45,1.6,4.38,2.52,1,4.87l1.77,4.11c-3.7,1.33-4.11,4.3-4,7.69.1,5.19,0,10.39-.11,15.58,0,.5-1,1-2,1.84l-1.69-28,0-1.28c.7-2.28,1.4-4.55,2.09-6.83l1.09-2C220.43,123.12,220.69,123.14,220.94,123.17Z"/><path class="cls-22" d="M224.39,198.3c.15-1.08.29-2.17.44-3.26C224.68,196.13,224.54,197.22,224.39,198.3Z"/><path class="cls-22" d="M224.85,201.18l-.48-1.32Z"/><path class="cls-22" d="M224.86,205.17a4.69,4.69,0,0,1-.31-.78c0-.1.18-.24.27-.36C224.84,204.41,224.85,204.79,224.86,205.17Z"/><path class="cls-11" d="M224.11,106l-.06-2,1.37.73Z"/><path class="cls-12" d="M74.28,210.06c0,.7,0,1.39,0,2.09s-.12,1.35-.19,2q-1-6.56-1.93-13.11l.76-2.95-.07-2.05q.06-14,.11-28V164c0-9.24,0-18.47.15-27.71a27.73,27.73,0,0,1,1-5l.8,1.73c.06,12.14.18,24.28.14,36.42,0,3.23-.5,6.47-.78,9.7V193c0,.7,0,1.4,0,2.11l.66,2.1.17,1.84Z"/><path class="cls-2" d="M72.91,168.11q-.06,14-.11,28l-1.37,1.06,1.44,1-.76,2.95-1.08.07,0,0-2-2c.68-9.68,1.32-19.36,2.11-29C71.2,169.37,72.3,168.76,72.91,168.11Z"/><path class="cls-13" d="M69,199.1l2,2Z"/><path class="cls-2" d="M74.19,179.13c.28-3.23.77-6.47.78-9.7,0-12.14-.08-24.28-.14-36.42L77,132,79.08,136l-2,25,2,4.28q-.49,5.34-1,10.68l1.2,4.08a4.88,4.88,0,0,0,.75.12,4.59,4.59,0,0,0,0,1c0,.34,0,.67,0,1Z"/><path class="cls-3" d="M79,129c.31,0,.61.06.92.07l-1.77,1.85C78.44,130.28,78.72,129.64,79,129Z"/><path class="cls-2" d="M74,214.18c.07-.68.13-1.36.19-2h5.36l-2.65,6.55L74,215.07C74,214.77,74,214.48,74,214.18Z"/><path class="cls-7" d="M217.08,74l-2,1,.09-5.94c1.34.52,2.9.8,3.93,1.69.37.32-.52,2.1-.83,3.21-.14-1.06-.27-2.13-.4-3.19l-.59,0C217.19,71.87,217.14,72.94,217.08,74Z"/><path class="cls-9" d="M215.14,69.07,215.05,75h-2c-.32-.6-.65-1.2-1-1.81L214,71,213.93,68c0-.34,0-.68,0-1Z"/><path class="cls-9" d="M217.08,74c.06-1.06.11-2.13.17-3.2l.59,0c.13,1.06.26,2.13.4,3.19Z"/><path class="cls-22" d="M115,212.53l-5-6.29,4-.32.46.16L115,206l3-.07,11.07-.13,8.07,1.14,15.75-.91,4.22,0,3-.76,2.77.55,3.21,1.29,0,3-2,0a46.93,46.93,0,0,0-6.06-1c-2.13-.08-5-.93-5,2.88a6.46,6.46,0,0,0-.11.75l-12.87,0h-10l-3,.07H126Zm26.44-2v-1.32H128.33v1.32Zm-16.37-2.35c-.34.54-.76.92-.69,1.18s.54.66.83,1c.24-.3.68-.61.66-.89S125.47,208.77,125.09,208.2Z"/><path class="cls-14" d="M137.91,226.43,129,226.1V220l8-1.8,1,6.8Z"/><path class="cls-5" d="M153,212c0-3.81,2.85-3,5-2.88a46.93,46.93,0,0,1,6.06,1l2,1.94c0,.22-.07.45-.1.68h-6.89l-4,.06Z"/><path class="cls-19" d="M146.25,218.2c.88-1,8.06-.95,8.84.1-.26,1-.53,2-.8,2.95l-7.12-1.11Z"/><path class="cls-19" d="M101.05,218.18V226l-4.13-6,4,.36-4.2-3.06.27-1.16,5.06.94Z"/><path class="cls-14" d="M174,226.11c-2.4,2.16-4.24,1.54-3.77-1.57.36-2.45-2.66-6.61,2.71-7.29-.29.63-.58,1.27-.86,1.9l.79,2.07c-.11,1.76-2.94,4.2,1.21,4.92Z"/><path class="cls-5" d="M198,219c1.59-2.95,3.06-1.92,4,.35.44,1.1,0,2.56-.07,3.86l-.64-.05-1.25,0a1.76,1.76,0,0,0-.79,0,4.35,4.35,0,0,0-.95.07Z"/><path class="cls-8" d="M175.16,218.35a14.05,14.05,0,0,1,2.37,3.22,22.71,22.71,0,0,1,.74,4.7l-4.25-.16.08,0c.66-1,1.32-2,2-3,.13.74.26,1.48.38,2.22l.78-.35-1.17-1.86L175,221.24C175,220.27,175.1,219.31,175.16,218.35Z"/><path class="cls-14" d="M120.24,223.17l-1.16,3L118,225.11c-.17-2.62-.33-5.25-.5-7.87l.54-.64,2.22,5.46C120.25,222.43,120.24,222.8,120.24,223.17Z"/><path class="cls-7" d="M193.21,218.11l3.28.69c-.11,2.47-.21,4.95-.32,7.42l-3.47.31,1.2-1.36a1.4,1.4,0,0,0,.39.3.68.68,0,0,0,.37-.08q-.27-3.1-.57-6.21Z"/><path class="cls-8" d="M187.32,223l.76-1,3-2.83h0q.13,3,.28,6c-2,2.75-2.72,2.76-4.16,0l.44,0,.43.09,1.62-.51-1.52-1.12Z"/><path class="cls-2" d="M168.83,225.11c0,.33,0,.66,0,1l-.77.82-.46.07-.45-.12-3.06-3.75c0-.73,0-1.46.05-2.19l1-.89,1.71-.06,1.07,1C168.24,222.34,168.54,223.72,168.83,225.11Z"/><path class="cls-5" d="M104.87,220.94l.78-3.57,1.21.15c-.5,3.14,2.06,6.51-1.54,9.44,0-1.31-.07-2.61-.1-3.92Z"/><path class="cls-11" d="M104.87,220.94c.12.7.23,1.4.35,2.1l-1.61,3.9-1.22-1.66q.39-4,.8-8Z"/><path class="cls-7" d="M137.91,226.43,138,225q-.06-3.53-.13-7.06l3.25.1-1,1-1,.31.92,1.67,1,1Z"/><path class="cls-5" d="M193.9,225.17l-1.2,1.36-.86-1.36.21-6.08,1.16-1,.88,1.07C194,221.18,194,223.17,193.9,225.17Z"/><path class="cls-14" d="M156.8,222.22c.42,2.38,1.19,4.94-2.83,5.05l.78-4.15Z"/><path class="cls-23" d="M196.17,226.22c.11-2.47.21-4.95.32-7.42L198,219l.27,4.24c-.09,1-.19,2-.28,3Z"/><path class="cls-19" d="M129,220v6.11l-2.81-7Z"/><path class="cls-12" d="M143,218l1.26,2.06v4.07l-.45,2.57-1-.08v-4.36C142.86,220.87,142.91,219.45,143,218Z"/><path class="cls-23" d="M108.86,218.07V226l-.47,0v-7.92Z"/><path class="cls-19" d="M148.05,223.11a10.2,10.2,0,0,1,1.28,2.44c.14.59-.33,1.32-.53,2L147,226.07l.12-3a5.42,5.42,0,0,0,.9,0Z"/><path class="cls-16" d="M156.8,222.22l-2.05.9c-.16-.62-.31-1.25-.46-1.87.27-1,.54-2,.8-2.95l1.13-.91.6,1.51Z"/><path class="cls-23" d="M130.05,212.7h0Z"/><path class="cls-23" d="M183.09,212.92l9,0Z"/><path class="cls-23" d="M164.07,223.12l3.06,3.75-4-.81Z"/><path class="cls-7" d="M198,226.23c.09-1,.19-2,.28-3a4.35,4.35,0,0,1,.95-.07c.24.93.48,1.85.73,2.77l1.34.22a3.17,3.17,0,0,1,.53,0Z"/><path class="cls-23" d="M103.19,217.3q-.41,4-.8,8c-.45-2.37-.9-4.73-1.34-7.1l1-1.08Z"/><path class="cls-19" d="M191.06,219.14l-3,2.83,2-4.12Z"/><path class="cls-12" d="M147.16,223.1l-.12,3c-.41-.27-.83-.53-1.25-.79,0-1.81,0-3.61-.08-5.41l.54-1.67c.3.65.61,1.3.92,1.94C147.16,221.13,147.16,222.11,147.16,223.1Z"/><path class="cls-23" d="M202.08,231.28l-8,.3Z"/><path class="cls-23" d="M137.84,217.93q.07,3.54.13,7.06l-1-6.8A3.48,3.48,0,0,1,137.84,217.93Z"/><path class="cls-2" d="M140.1,219.07l1-1a5.56,5.56,0,0,1,.87.46l0,3.07-.91.54-1-1C140.05,220.39,140.08,219.73,140.1,219.07Z"/><path class="cls-23" d="M168.83,225.11c-.29-1.39-.59-2.77-.88-4.15.15-1,.3-2,.46-3Z"/><path class="cls-17" d="M164.07,223.12l-.93,2.94c.13-2,.27-4,.4-6,.2.3.39.6.58.9Z"/><path class="cls-19" d="M192.05,219.09l-.21,6.08-.51,0q-.15-3-.28-6Z"/><path class="cls-23" d="M175.11,212.79h0Z"/><path class="cls-23" d="M175.16,218.35c-.06,1-.13,1.92-.19,2.89a1.47,1.47,0,0,0-.71-.15l-2.16-1.94c.28-.63.57-1.27.86-1.9Z"/><path class="cls-19" d="M166.88,220l-1.71.06c-.08-.95-.15-1.91-.23-2.87h2.28C167.1,218.12,167,219.05,166.88,220Z"/><path class="cls-11" d="M164.94,217.17c.08,1,.15,1.92.23,2.87l-1,.89c-.19-.3-.38-.6-.58-.9,0-.61,0-1.21,0-1.82l.64-.93A1.05,1.05,0,0,1,164.94,217.17Z"/><path class="cls-23" d="M145.71,219.87c0,1.8.06,3.6.08,5.41l-.83-1.13,0-4.06A1.72,1.72,0,0,1,145.71,219.87Z"/><path class="cls-7" d="M118,225.11l1.08,1.08-2.32,1-.83-1.07Z"/><path class="cls-23" d="M98,212.64l4,.05Z"/><path class="cls-19" d="M156.82,218.9l-.6-1.51,1.33-.67Z"/><path class="cls-11" d="M166.88,220c.11-.93.22-1.86.34-2.8l1.19.77c-.16,1-.31,2-.46,3Z"/><path class="cls-23" d="M141.93,221.56l0-3.07,1-.46c-.05,1.42-.1,2.84-.16,4.26Z"/><path class="cls-19" d="M145,220.09l0,4.06h-.37l-.37,0v-4.07Z"/><path class="cls-30" d="M103.61,226.94l1.61-3.9c0,1.31.07,2.61.1,3.92Z"/><path class="cls-12" d="M201.79,226.09a4.73,4.73,0,0,0-.53,0l0-3,.64.05C201.84,224.16,201.81,225.13,201.79,226.09Z"/><path class="cls-19" d="M148.06,223.13l.83-1.28.58.59-1.42.67Z"/><path class="cls-23" d="M196.09,212.88l3,.06Z"/><path class="cls-23" d="M159.05,212.74h0Z"/><path class="cls-23" d="M111.77,212.48l2.29.26Z"/><path class="cls-23" d="M153,212l2,.8-2.14-.05A6.46,6.46,0,0,1,153,212Z"/><path class="cls-23" d="M106.05,212.61l2.23-.22Z"/><path class="cls-23" d="M187.32,223l.82.59c0,.54-.06,1.09-.1,1.63l-.43-.09-.44,0Z"/><path class="cls-23" d="M172.07,212.81h0Z"/><path class="cls-17" d="M164.13,217.28l-.64.93Z"/><path class="cls-23" d="M165.94,212.73c0-.23.06-.46.1-.68l1,.74Z"/><path class="cls-19" d="M120.24,223.17c0-.37,0-.74,0-1.11a5.7,5.7,0,0,1,.3.78C120.57,222.93,120.35,223.06,120.24,223.17Z"/><path class="cls-23" d="M201.07,213l1,0Z"/><path class="cls-23" d="M168,226.92l.77-.82Z"/><path class="cls-23" d="M126,212.77h0Z"/><path class="cls-23" d="M125.09,231.42l-1.09-.06Z"/><path class="cls-30" d="M204.14,194.23c.34.64.68,1.28,1,1.92,0,1.28,0,2.56,0,3.84l-.18,5c-3.53.41-7.05,1-10.59,1.18s-6.84-.07-10.26-.13c.84-1.65,1.59-3.36,2.55-4.94s2.25-3.28,3.39-4.92l6.67-1.62L189.75,192C198.21,188.71,200.65,189.16,204.14,194.23Z"/><path class="cls-19" d="M190,196.19c-1.14,1.64-2.36,3.22-3.39,4.92s-1.71,3.29-2.55,4.94L172,206.5l-1.93.13-4-.25-3.18-1.21-.21-1.8,2.38-3.14Z"/><path class="cls-5" d="M166.09,206.38l4,.24v3.47h-4c0-1,0-2,0-3Z"/><path class="cls-22" d="M170.08,210.09v-3.47l1.93-.12C171.37,207.7,170.73,208.9,170.08,210.09Z"/><path class="cls-24" d="M190,196.19l-24.94,4c-.7-1.77-1.81-3.51-2-5.33s.59-3.86.95-5.8l4.87-3.1L174,185l.45-1.88c1.22,1.44,1.15,6.14,4.65,1.84l4-1,2.94,2.52,1.13-2.23,7-1.37,10.82,0,2.08.2.32,1.05c0,1,.07,2,.1,3l-3.33,7.19c-3.49-5.07-5.93-5.52-14.39-2.19l6.94,2.53Zm-12.25-8-.1,1.54h4.39l.1-.76Zm-2.92,1.12c-.42-.44-.65-.9-1-1s-.82.19-1.23.31c.27.42.46,1,.84,1.19C173.71,190,174.23,189.6,174.85,189.34Z"/><path class="cls-17" d="M208,160.24l.15-10.18c.6-.45,1.75-.94,1.72-1.34-.48-6.22-1.11-12.43-1.71-18.64.33-1.08.67-2.15,1-3.22l4,5.12q0,8.57,0,17.13-.12,21-.23,41.95l-2.84,3.68-1.08-.2c0-8.17.1-16.35-.08-24.52,0-1.65-1.15-3.29-1.77-4.93l-1-1.81Z"/><path class="cls-12" d="M213,191.06q.12-21,.23-41.95h1.66c0,5.49,0,11,.2,16.45.11,3.22.61,6.44.94,9.66,0,.64.06,1.3.1,2-.47,1-1.33,2-1.32,3,0,5,.28,9.9.45,14.85,0,3.33-.05,6.65-.07,10l0,2.12.05,1.86-.12,31.14,0,13.94-2.14-1q0-6.49-.07-13l0-25Q213,203.13,213,191.06Z"/><path class="cls-30" d="M207.05,183l-2.07-.2c-1.33-5.14-5.42-3.5-8.82-3.58l-2.09-4.15c.35-1.32.69-2.64,1-3.95h0l1.87,1.08c.37-1,.75-2.1,1.13-3.15v0l8.76-1.14c.11,2.37.23,4.74.34,7.1-.3,1.69-.61,3.38-.91,5.06a1.75,1.75,0,0,0,0,.85Zm-7.28-8.32h-.39v1.62h.39Z"/><path class="cls-25" d="M206.88,168l-8.76,1.14-3.63-2.57-.66.92,1.3,3.67h0c-3.2-1.06-6.42-2.06-9.57-3.23-.61-.23-1-1.13-1.46-1.72l15.23-2.11c1.17-.69,2.29-1.75,3.54-1.93,1-.16,2.23.7,3.35,1.12l1,1.81Z"/><path class="cls-9" d="M206.31,180.15c.3-1.68.61-3.37.91-5.06C206.92,176.78,206.61,178.47,206.31,180.15Z"/><path class="cls-9" d="M207.05,183l-.75-2c.36,1,.71,2.05,1.07,3.08C207.26,183.73,207.16,183.38,207.05,183Z"/><path class="cls-10" d="M223.05,260.1a11,11,0,0,0-10-2c-.05-1.33-.09-2.67-.13-4,1.27.66,2.5,1.78,3.82,1.91,3.09.3,6.23.12,9.35.14Z"/><path class="cls-24" d="M205.11,200c0-1.28,0-2.56,0-3.84C207,198.88,207,199.39,205.11,200Z"/><path class="cls-17" d="M215.14,254.11q0-7,0-13.94l1.94,0,3.21,1.73a16.1,16.1,0,0,0,1.75-3.75,27.47,27.47,0,0,0,0-5l1.95.94c.44,6.1.87,12.2,1.31,18.36Z"/><path class="cls-5" d="M137.05,255.14c-.15-.52-.3-1-.43-1.58l.46-.13c0,.57,0,1.14,0,1.71Z"/><path class="cls-17" d="M111.21,238.21l-2-1.72,1.79-1.35,1,1c0,.7,0,1.39,0,2.09A7.85,7.85,0,0,1,111.21,238.21Z"/><path class="cls-11" d="M111.21,238.21a7.85,7.85,0,0,0,.84,0c6.48-.11,2.75,5,4.1,7.3l-4.94,2.7Z"/><path class="cls-9" d="M120.05,67l2,2-2,1c0-1,0-2,0-3Z"/><path class="cls-9" d="M118,71l1-1Z"/><path class="cls-11" d="M153,48.87,154.11,50c-.68,3-1,6.1-2.19,8.8-1,2.09-2.63,1.88-4.61.21,2.47-3.57,3.45-7.22.62-11.08l4,.15,0-.06Z"/><path class="cls-9" d="M147.93,47.93c2.83,3.86,1.85,7.51-.62,11.08q-1.63,1.5-3.28,3l.06-2.83.93-11.1,2-2.09h0Z"/><path class="cls-9" d="M150.06,43l-.37,1.3.37-1.3Z"/><path class="cls-13" d="M153.23,29.23c0,.12.13.32.09.36a1.32,1.32,0,0,1-.41.14c0-.13-.14-.33-.09-.36A1,1,0,0,1,153.23,29.23Z"/><path class="cls-9" d="M147.06,46l.22-.41-.22.41Z"/><path class="cls-9" d="M150.06,43l.23-.42-.23.42Z"/><path class="cls-9" d="M120.05,67l-.42-.23.42.23Z"/><path class="cls-28" d="M146,142l1.92-8.52L155,135q1.29,7.93,2.57,15.87a6.55,6.55,0,0,1,3.53,2.23c1,1,2,1.95,3,2.93-.05,3.22-2.74,4.69-5.43,4.74-4.21.08-8.41,1.34-12.61,2.1-.5-.95-1.57-2.61-1.4-2.75,4.08-3.32,3.87-8,4.43-12.55.16-1.33,1.2-2.56,2-4.15Z"/><path class="cls-25" d="M164.06,156.05c-1-1-2-1.94-3-2.93a6.55,6.55,0,0,0-3.53-2.23Q156.24,143,155,135l5.22-3.88c1.92.65,3.83,3,5.78.05.84,4.13,1.53,8.29,2.58,12.37.42,1.64,1.63,3.08,2.47,4.61A10,10,0,0,1,164.06,156.05Z"/><path class="cls-7" d="M157,165.05l22-.78.06,2.79.14.27-2.05,1-1.31-.08-10.72.11-3.13-.11-1.9-.42-3.84-2.57A1.2,1.2,0,0,0,157,165.05Z"/><path class="cls-27" d="M156.27,165.24l3.84,2.57c-.83.77-1.69,2.22-2.5,2.2-4.51-.12-9-.59-13.5-.94l1.08-2a2.59,2.59,0,0,0,.83-.1l1.07,0Z"/><path class="cls-22" d="M179.08,167.06l-.06-2.79c5.77-.4,11.52-.84,17.29-1.12,1-.05,2,.61,3,.94l-15.23,2.11Z"/><path class="cls-25" d="M156.27,165.24l-9.18,1.65c-.18-3.22,1.48-4.24,4.38-3.53,1.88.46,3.71,1.12,5.56,1.69A1.2,1.2,0,0,1,156.27,165.24Z"/><path class="cls-16" d="M160.18,131.14,155,135l-7.05-1.53a46.49,46.49,0,0,1,2.74-4.15c2-2.54,4.2-5,6.39-7.43,1.2-1.32,2.59-2.47,3.89-3.7,0,.61.1,1.21.14,1.82Q160.62,125.58,160.18,131.14Z"/><path class="cls-26" d="M160.18,131.14q.45-5.56.89-11.11l6,6.21-1.11,5C164,134.15,162.1,131.79,160.18,131.14Z"/><path class="cls-20" d="M148.06,104l-.23.41.23-.41Z"/><path class="cls-2" d="M181,80c.36-4.16.67-8.33,1.2-12.46,0-.29,1.83-.35,2.8-.51.7,1.64,1.39,3.29,2.08,4.93v0c0,1.35,0,2.7-.05,4C186.34,79.31,184.37,80.69,181,80Z"/><path class="cls-7" d="M188.15,67.15c4.81-2.83,4.74.71,5,3.83l-5,2.92-1-1.92v0C187.46,70.36,187.8,68.75,188.15,67.15Z"/><path class="cls-2" d="M178.05,77l1,3h-3V77Z"/><path class="cls-23" d="M187.12,72l1,1.92L187.07,76C187.08,74.68,187.1,73.33,187.12,72Z"/><path class="cls-7" d="M214,71l-1.89,2.23c0-.41,0-.83-.07-1.24l.27-1Z"/><path class="cls-11" d="M213.2,132l-4-5.12c0-.36.09-.72.14-1.08l4.67-3.7c.34,2.45.54,5.08,4.16,3l.48-.07.48,0c-.69,2.28-1.39,4.55-2.09,6.83Zm1.9-4-.46-.2.41.25.42,1.33c.13-.09.37-.25.37-.26C215.61,128.76,215.35,128.39,215.1,128Z"/><path class="cls-14" d="M208.15,130.08c.6,6.21,1.23,12.42,1.71,18.64,0,.4-1.12.89-1.72,1.34Q208.14,140.07,208.15,130.08Z"/><path class="cls-9" d="M147.06,79l3.44-2.63.72.9L150,79Z"/><path class="cls-9" d="M150.05,74c-.3-2.14-1.24-4.45-.74-6.38.63-2.4,2.09-2,2.75.37h0l-2,6Z"/><path class="cls-23" d="M163.9,68c-.55.36-1,.85-1.21.76a4.47,4.47,0,0,1-1.15-1c.39-.19.79-.53,1.17-.52S163.37,67.64,163.9,68Z"/><path class="cls-9" d="M150.06,74l1.3,1-.35.35-1-1.29Z"/><path class="cls-9" d="M152.06,68l.41.23-.41-.23Z"/><path class="cls-6" d="M155.09,35h5.79c-.26,2.86-.44,4.79-.61,6.73L160,42l-4.91,1.74V35Z"/><path class="cls-6" d="M160.27,41.74l1.69,1.1-1.25,1.38c-.23-.73-.47-1.45-.7-2.18Z"/><path class="cls-4" d="M153,48.87,152,48Z"/><path class="cls-2" d="M165.06,34l-.23.41.23-.42Z"/><path class="cls-10" d="M171.94,68.51,172.7,70l-1.13.35-.32-1.65Z"/><path class="cls-10" d="M170.65,58.13c-.13-.73-.25-1.46-.38-2.19C170.4,56.67,170.52,57.4,170.65,58.13Z"/><path class="cls-23" d="M188.15,67.15c-.35,1.6-.69,3.21-1,4.81-.69-1.64-1.38-3.29-2.08-4.93l0-6,.06-2.09,1.86.47C187.38,62,187.76,64.56,188.15,67.15Z"/><path class="cls-9" d="M185.13,58.92,185.07,61l-.18-3.95Z"/><path class="cls-2" d="M180.35,63.39c0,.12-.08.34-.13.35a1.5,1.5,0,0,1-.43-.13c.05-.13.09-.35.14-.35A1.13,1.13,0,0,1,180.35,63.39Z"/><path class="cls-13" d="M197.07,65l5.05,1c0,1-.07,2-.11,3l-5,.22Z"/><path class="cls-13" d="M197.06,62c0,.34,0,.68,0,1C197.06,62.66,197.06,62.32,197.06,62Z"/><path class="cls-12" d="M214,71l-1.69,0c0-1,0-1.94-.05-2.9h1.68Z"/><path class="cls-7" d="M145.19,167l-1.08,2c-3.15,0-6.31-.14-9.43.17-1.91.19-3.76,1.12-5.63,1.72l-6.92-.91c1.25-1.65,2.19-3.73,3.8-4.84a89.49,89.49,0,0,1,9.35-5.08l.87-3,.43,0,.42.07a1.76,1.76,0,0,0,.24.9q-.63,3.54-1.28,7.08c1.95.56,3.89,1.19,5.87,1.64A21.87,21.87,0,0,0,145.19,167Z"/><path class="cls-24" d="M137,157.14l-.42-.07-.43,0-2-.45-3-2.08c.47,1.77.67,2.56.88,3.36l-5.57,4.39c.33-5.17-.95-6.48-4.34-4.09-.27.19-1.38-.82-2.1-1.27l7-5.9L140,156.16Z"/><path class="cls-24" d="M136,165.12q.64-3.54,1.28-7.08C139.62,160.76,139,164.14,136,165.12Z"/><path class="cls-26" d="M120,157c.72.45,1.83,1.46,2.1,1.27,3.39-2.39,4.67-1.08,4.34,4.09l5.57-4.39,2.69,2a1.41,1.41,0,0,0,.56.21,89.49,89.49,0,0,0-9.35,5.08c-1.61,1.11-2.55,3.19-3.8,4.84l-1.29,5.09-2.68,2.69c-6.23,1.28-10,6-14.19,10.16l-2.1,1.32-3.81-4.22,2.64-2.69,7.41-12.33,9.89-11Z"/><path class="cls-28" d="M108.11,170.07,100.7,182.4,94,183.56c-.53-1.09-1-2.15-1.56-3.21.24-3.44.47-6.88.71-10.32l4-1.29Z"/><path class="cls-22" d="M93.12,170c-.24,3.44-.47,6.88-.71,10.32-.45,1.23-.9,2.46-1.34,3.69,0-5.66-3.66-11.51.89-16.92Z"/><path class="cls-12" d="M92,121H90c0-.75,0-1.5.08-2.26Z"/><path class="cls-10" d="M74.19,179.13l5.82,3c-.57,1-1.2,2-1.68,3.07-.08.17.45.63.7,1l-1,2-.92,2L77,192.09l-2.84.93Z"/><path class="cls-8" d="M78,188.12l1-2q0,10,0,20c-.33,0-.66,0-1,0l-1-2,0-1.95c3.48-1.72-.21-3.37,0-5.05,0-.66,0-1.32,0-2l0-3,.09-1.94C77.42,189.47,77.73,188.8,78,188.12Z"/><path class="cls-2" d="M77.1,202.15l0,1.95c-.17.82-.33,1.65-.5,2.47l1.46-.44c.33,0,.66,0,1,0,.6,3.94-1.77,4.29-4.74,3.92.24-3.66.47-7.33.7-11Z"/><path class="cls-12" d="M80,181.1a4.59,4.59,0,0,1,0-1q.45-7,.88-14l.18,13Z"/><path class="cls-8" d="M77.07,161l2-25,1.09.28q0,9.41-.07,18.81A6,6,0,0,0,80,156Z"/><path class="cls-11" d="M80.9,166.1q-.44,7-.88,14a4.88,4.88,0,0,1-.75-.12l-1.2-4.08q.51-5.34,1-10.68H81C81,165.53,80.93,165.81,80.9,166.1Z"/><path class="cls-3" d="M81,165.25h-1.9l-2-4.28L80,156C80.33,159.09,80.66,162.17,81,165.25Z"/><path class="cls-15" d="M98.06,185.09l3.81,4.22c.06.53.13,1.05.2,1.58l.87,1.29c-1.54,4-4.33,4.57-8,2.95l-.06-1.92c-.3-1.38-.6-2.76-.89-4.14Z"/><path class="cls-13" d="M94,189.07c.29,1.38.59,2.76.89,4.14l-1.86-1.08C93.39,191.11,93.71,190.09,94,189.07Z"/><path class="cls-27" d="M76.7,239.17h-.33l-.32-.06c1.18-2.6,2.36-5.19,3.53-7.79.15.57.3,1.14.44,1.71l.18,7.57-1.16.46L78,240.15l0,0Z"/><path class="cls-13" d="M77.5,247.32l1.43-1.09.53.5-1.21,1.37Z"/><path class="cls-28" d="M80.2,240.61,80,233C83.93,235.47,82.3,238,80.2,240.61Z"/><path class="cls-26" d="M78,240.15l1.07.92L78,241.3C78,240.92,78,240.54,78,240.15Z"/><path class="cls-26" d="M76.7,239.17l1.31,1Z"/><path class="cls-29" d="M137.12,206.9l-8.07-1.14L126,204l-1.92.11-2,0c-6.23.28-12.46.56-18.69.89-.12,0-.22.57-.32.88l-2,.07c-.29-5.53-4.48-1.35-6.75-2.73L94,200.11l5.9-.2c5.26-.31,10.54-.4,15.76-1,13.79-1.5,27.56-3.22,41.34-4.85.18,1.51.35,3,.52,4.53v.08l-1.44,1.54c-.38.39-.74,1.11-1.15,1.14-6,.5-12,.91-17.85,1.33Z"/><path class="cls-28" d="M120.84,175.14l1.29-5.09,6.92.91a53.19,53.19,0,0,0,6.92,1.17c4.09.17,8.2,0,12.3,0l-1.24,3,0,0-1.34,1-1.51,2.11-.24,2.93a6.17,6.17,0,0,0-.86,0l-2,2.09c-.68-.51-2-1-2-1.54,0-3.47-2.08-2.92-4.22-2.37l-3.32-.46.59,2.37,1.11,5.06L128,187.89l-4.77-.69-5.38,1.14c-4.86-2.91-8,1.65-11.85,2.81l-1.14-.07-.89-.87V188c4.19-4.15,8-8.87,14.2-10.15,1,1.2,1.77,2.68,3,3.53a8.18,8.18,0,0,0,4.48,1.48c.76,0,1.5-1.7,2.24-2.64l1.17-3.07-2.07-.81h-1.8l-2,.83Zm1.35,10.56a3.29,3.29,0,0,0-.57-.47c-.12,0-.3,0-.46,0l.08.58Z"/><path class="cls-24" d="M157,194.08c-13.78,1.63-27.55,3.35-41.34,4.85-5.22.58-10.5.67-15.76,1,6.21-5.23,14.29-2.95,21.2-5.3,3.71-1.26,7.27-3,10.89-4.5,2.35-2.13,2.81-2,8.25,2l3.95-3.24.6.13.42-1.84a1.3,1.3,0,0,1,0-.95l2.68-.11c3.17-.79,6.43-2.46,9.23.84Z"/><path class="cls-29" d="M144.23,188.85l-3.95,3.24c-5.44-4-5.9-4.11-8.25-2h-4l-.07-2.23,5.27-1.69,9.52.22,2.48.72c-.14.61-.28,1.23-.41,1.84l-.22-.41Z"/><path class="cls-29" d="M106,191.15c3.9-1.16,7-5.72,11.85-2.81.68,3.86-2.71,3-4.5,3.6a45.13,45.13,0,0,1-7.21,1.13C106.07,192.43,106,191.79,106,191.15Z"/><path class="cls-20" d="M94,200.11l.24,3.13c2.27,1.38,6.46-2.8,6.75,2.73l-8-1Z"/><path class="cls-24" d="M128,187.89l.07,2.23-5.82,1.25c.42-1.81.7-3,1-4.17Z"/><path class="cls-16" d="M106,191.15c0,.64.09,1.28.14,1.92L103.94,192a5.53,5.53,0,0,0,.11-.9h.38l.4,0Z"/><path class="cls-26" d="M104.05,191.09a5.53,5.53,0,0,1-.11.9l-1,.19-.87-1.28Z"/><path class="cls-20" d="M103.06,205.9c.1-.31.2-.87.32-.88,6.23-.33,12.46-.61,18.69-.89L118,205.89l-3,.07-.94,0-4,.32Z"/><path class="cls-17" d="M216,175.23c-.33-3.22-.83-6.44-.94-9.66-.2-5.48-.15-11-.2-16.45.09-4.41.07-8.83.34-13.23.06-.93,1.16-1.79,1.78-2.69l1.69,28c1-.87,2-1.34,2-1.84.14-5.19.21-10.39.11-15.58-.07-3.39.34-6.36,4-7.69q-.34,15.92-.67,31.8c-.77,1.08-1.53,2.17-2.29,3.25l-1.75-2.68C218.69,170.92,217.36,173.07,216,175.23Z"/><path class="cls-22" d="M217.1,240.13l-1.94,0,.12-31.14,3.74.11,1,.11c-3.19,3.58-2.73,7.65-1.64,11.84.14.51-.27,1.21-.53,1.78-1.71,3.63-.92,6.64,2.19,9.11C215.91,233.55,217.06,237,217.1,240.13Z"/><path class="cls-17" d="M220.06,232c-3.11-2.47-3.9-5.48-2.19-9.11.26-.57.67-1.27.53-1.78-1.09-4.19-1.55-8.26,1.64-11.84.67.28,1.93.63,1.91.81-.36,2.63-.89,5.24-1.51,8.54l3.71.5-3.58,2.67c.17,3.66.33,7,.5,10.42Z"/><path class="cls-15" d="M221.27,182c.17,6.34,3.11,12.73-.33,19l-2-1a3.55,3.55,0,0,0,0-.8l0-1.21q-.42-7-.85-13.92Z"/><path class="cls-17" d="M219,200l2,1c1.43,3.18,0,5.69-1.92,8.09l-3.74-.11c0-.62,0-1.24-.05-1.86l1.43-1.08-1.46-1c0-3.32.05-6.64.07-10L219,198l0,1.21a1.66,1.66,0,0,0-.34.19A4.85,4.85,0,0,0,219,200Z"/><path class="cls-7" d="M221.27,182l-3.14,2c-.66-2.3-1.33-4.6-2-6.9,0-.65-.07-1.31-.1-2,1.32-2.16,2.65-4.31,4.14-6.73l1.75,2.68Z"/><path class="cls-27" d="M220.06,232l1,.21,1,.95a27.47,27.47,0,0,1,0,5,16.1,16.1,0,0,1-1.75,3.75l-3.21-1.73C217.06,237,215.91,233.55,220.06,232Z"/><path class="cls-17" d="M219.08,125.09l-.48,0-.48.07,2-2C219.81,123.77,219.45,124.43,219.08,125.09Z"/><path class="cls-7" d="M217,133.2c-.62.9-1.72,1.76-1.78,2.69-.27,4.4-.25,8.82-.34,13.23h-1.66q0-8.56,0-17.13l3.79-.06Z"/><path class="cls-5" d="M77.1,202.15,75,199.07c0-.61-.11-1.23-.17-1.84l2.24-.13C76.89,198.78,80.58,200.43,77.1,202.15Z"/><path class="cls-5" d="M77,192.09l0,3H74.15c0-.71,0-1.41,0-2.11Z"/><path class="cls-2" d="M74.15,195.13h2.91c0,.66,0,1.32,0,2l-2.24.13Z"/><path class="cls-5" d="M72.87,198.12l-1.44-1,1.37-1.06C72.82,196.76,72.85,197.44,72.87,198.12Z"/><path class="cls-4" d="M78.07,175.92l1.2,4.08Z"/><path class="cls-19" d="M137.12,206.9v-4.2c5.84-.42,11.85-.83,17.85-1.33.41,0,.77-.75,1.15-1.15l1.93,0,2,2.78c0,.78,0,1.55,0,2.32l-3,.76c-.14-.81-.27-1.62-.44-2.67L152.87,206Z"/><path class="cls-2" d="M141.46,210.55H128.32v-1.32h13.14Z"/><path class="cls-26" d="M118,205.89l4.09-1.76,2,0L126,204l3.08,1.78Z"/><path class="cls-17" d="M152.87,206l3.78-2.62c.17,1,.3,1.86.44,2.67Z"/><path class="cls-20" d="M160.08,205.28c0-.77,0-1.54,0-2.32l2.66.41.21,1.8a.84.84,0,0,0-.06.66Z"/><path class="cls-2" d="M125.09,208.2c.38.57.78.91.8,1.27s-.42.59-.66.89c-.29-.32-.74-.6-.83-1S124.75,208.74,125.09,208.2Z"/><path class="cls-17" d="M162.85,205.83a.84.84,0,0,1,.06-.66l3.18,1.21,0,.74Z"/><path class="cls-26" d="M114.08,205.92l.94,0-.48.12Z"/><path class="cls-19" d="M174.26,221.09a1.47,1.47,0,0,1,.71.15l1.09,1.88h0c-.65,1-1.31,2-2,3-4.15-.72-1.32-3.16-1.21-4.92Z"/><path class="cls-18" d="M174.26,221.09l-1.37.13-.79-2.07Z"/><path class="cls-23" d="M201.23,223.14l0,3-1.34-.21.06-2.74Z"/><path class="cls-18" d="M200,223.18l-.06,2.74c-.25-.92-.49-1.84-.73-2.77A1.76,1.76,0,0,1,200,223.18Z"/><path class="cls-19" d="M176.06,223.12l1.17,1.86-.78.35c-.12-.74-.25-1.48-.38-2.22Z"/><path class="cls-18" d="M193.9,225.17c.06-2,.13-4,.19-6q.3,3.1.57,6.21a.68.68,0,0,1-.37.08A1.4,1.4,0,0,1,193.9,225.17Z"/><path class="cls-16" d="M188,225.23c0-.54.07-1.09.1-1.63.51.37,1,.74,1.52,1.12Z"/><path class="cls-18" d="M140.1,219.07c0,.66,0,1.32-.07,2-.31-.56-.61-1.12-.92-1.67Z"/><path class="cls-27" d="M162.7,203.37,160,203l-2-2.79,3.09-.93q.35-4.56.7-9.12c.08-1,.16-2,.25-3.06l2,2c-.36,1.94-1.12,3.91-.95,5.8s1.26,3.56,2,5.33Z"/><path class="cls-27" d="M194.07,175.1q1.05,2.07,2.09,4.14l-2,3.57-7,1.37-4.07-.29-4,1-3.4-5.26-6.36,5.59c-.36-2.9-.72-5.8-1.07-8.65l-3.15.55L165,177l0-2.58,6-2.44,1.17,2.1c.46,1.38.93,2.75,1.39,4.13l2.54-1.16,3.85-1,2.19-1,3.78-1.74Z"/><path class="cls-16" d="M165.11,177.15l3.15-.55c.35,2.85.71,5.75,1.07,8.65a3.56,3.56,0,0,0-.39.75l-4.87,3.1-2-2-1.08-.77a7.1,7.1,0,0,0-.88-.42c3.38-3.57,3.1-5.44,0-6.88v-7.84l.84.08,2.95,2.9,1,.31c0,.86,0,1.72,0,2.58l-.37.48Z"/><path class="cls-19" d="M194.15,182.81l2-3.57c3.4.09,7.49-1.55,8.82,3.59Z"/><path class="cls-26" d="M168.94,186a3.56,3.56,0,0,1,.39-.75l6.36-5.59,3.4,5.26c-3.5,4.29-3.43-.41-4.65-1.85l-1.94.65L174,185Z"/><path class="cls-26" d="M183.07,183.89l4.07.29L186,186.41Z"/><path class="cls-26" d="M177.77,188.22l4.39.78-.1.76h-4.39Z"/><path class="cls-26" d="M174.85,189.34c-.62.26-1.14.66-1.36.53-.38-.22-.57-.77-.84-1.19.41-.12.86-.39,1.23-.31S174.43,188.9,174.85,189.34Z"/><path class="cls-16" d="M174,185l-1.49-1.23,1.94-.65Z"/><path class="cls-23" d="M216.14,177.18c.66,2.3,1.33,4.6,2,6.9q.44,7,.85,13.92l-3.71-2.92c-.17-5-.43-9.9-.45-14.85C214.81,179.21,215.67,178.2,216.14,177.18Z"/><path class="cls-22" d="M215.2,205.05l1.46,1-1.43,1.08Z"/><path class="cls-24" d="M194.07,175.1l-8.2-1.85L182.09,175c0-.34-.05-.67-.07-1l1.36-2h-4.31l.15-4.71-.14-.27,5-.86c.48.59.85,1.49,1.46,1.72,3.15,1.17,6.37,2.17,9.57,3.23C194.76,172.46,194.42,173.78,194.07,175.1Z"/><path class="cls-24" d="M195.13,171.15l-1.3-3.67.66-.92,3.63,2.57v0c-.38,1-.76,2.1-1.13,3.15Z"/><path class="cls-25" d="M197,172.23c.37-1,.75-2.1,1.13-3.15C197.75,170.13,197.37,171.18,197,172.23Z"/><ellipse class="cls-16" cx="199.57" cy="175.52" rx="0.28" ry="1.15"/><path class="cls-26" d="M165,174.44l-1-.31-2.95-2.9-.84-.08-7.07.88-.54,1.57,1.57-.56c1.66,3.49,1.49,4.68-.71,5l-4.27-1.11L148,175l.24-2.85c-4.1,0-8.21.2-12.3,0a53.19,53.19,0,0,1-6.92-1.17c1.87-.6,3.72-1.53,5.63-1.72,3.12-.31,6.28-.14,9.43-.17,4.5.35,9,.82,13.5.94.81,0,1.67-1.43,2.5-2.2l1.9.42c.4.61.81,1.21,1.21,1.81l1.92-1.7,10.72-.11-3.76,3.34,4.06-.43c.31,1.07.63,2.14.94,3.21l-.92.78-3.06-1-1,0L171,172Z"/><path class="cls-27" d="M177.1,174.35c-.31-1.07-.63-2.14-.94-3.21.33-.95.67-1.89,1-2.83l2.05-1-.15,4.71c0,.38,0,.77,0,1.15l0,1.16Z"/><path class="cls-16" d="M177.17,168.31c-.34.94-.68,1.88-1,2.83l-4.06.43,3.76-3.34Z"/><path class="cls-27" d="M165.14,168.34l-1.92,1.7c-.4-.6-.81-1.2-1.21-1.81Z"/><path class="cls-7" d="M215.1,128c.25.37.51.74.74,1.12,0,0-.24.17-.37.26l-.42-1.33Z"/><path class="cls-7" d="M215.05,128.07l-.41-.25.46.2Z"/><path class="cls-16" d="M134.14,156.66l2,.45-.87,3a1.41,1.41,0,0,1-.56-.21C134.53,158.84,134.34,157.75,134.14,156.66Z"/><path class="cls-25" d="M134.14,156.66c.2,1.09.39,2.18.58,3.26l-2.69-2c-.21-.8-.41-1.59-.88-3.36Z"/><path class="cls-29" d="M127.87,180.2c-.74.94-1.48,2.63-2.24,2.64a8.18,8.18,0,0,1-4.48-1.48c-1.22-.85-2-2.33-3-3.53l2.68-2.69,2.35,2C123.08,180.72,125.74,180.06,127.87,180.2Z"/><path class="cls-16" d="M104.05,191.09l-2-.19c-.07-.54-.14-1.06-.2-1.59L104,188c0,.74,0,1.48,0,2.22a1.24,1.24,0,0,0,.08.89Z"/><path class="cls-5" d="M78,188.12c-.31.68-.62,1.35-.92,2Z"/><path class="cls-5" d="M78,206.13l-1.46.44c.17-.82.33-1.65.5-2.47Z"/><path class="cls-26" d="M161.14,199.24l-3.09.93-1.93.05,1.44-1.53v-.08c-.17-1.51-.34-3-.52-4.53l.15-7.16,1.94-.69c0,3.1-.26,6.21,0,9.28C159.25,196.8,160.44,198,161.14,199.24Z"/><path class="cls-20" d="M126,204l-1.92.11Z"/><path class="cls-19" d="M157.56,198.61v0Z"/><path class="cls-27" d="M148,175l1.08,2-.17.25-1.76,4,0,1.83L146,185.08l-1.36-3.52-1.59,4.53-.28.33-9.52-.22q-.54-2.53-1.1-5.06l2.73-1.91c2.14-.55,4.2-1.1,4.22,2.37,0,.52,1.27,1,2,1.54l2-2.09a6.17,6.17,0,0,1,.86,0l1.94-1.59-1.7-1.34c.51-.7,1-1.4,1.51-2.11l1.34-1,0,0Z"/><path class="cls-27" d="M127.87,180.2c-2.13-.14-4.79.52-4.68-3l2-.83,1.56,1.65,2.31-.84Z"/><path class="cls-29" d="M134.88,179.23l-2.73,1.91c-.19-.79-.39-1.58-.59-2.37Z"/><path class="cls-30" d="M144.2,178.13l1.7,1.34L144,181.06Z"/><path class="cls-29" d="M126.73,178l-1.56-1.65H127Z"/><path class="cls-24" d="M148,175l-1,.13,1.24-3Z"/><path class="cls-16" d="M126.73,178l.24-1.65,2.07.81Z"/><path class="cls-24" d="M143.1,181.05l-2,2.09Z"/><path class="cls-29" d="M122.19,185.7l-1,.14-.08-.58c.16,0,.34-.08.46,0A3.29,3.29,0,0,1,122.19,185.7Z"/><path class="cls-24" d="M147.05,175.06l-1.34,1Z"/><path class="cls-26" d="M104,191.1a1.24,1.24,0,0,1-.08-.89l.89.87-.41,0Z"/><path class="cls-27" d="M159.13,186.23l-1.94.69c-2.8-3.3-6.06-1.63-9.23-.84l1.08-3,3.08-5h1.26c2.2-.32,2.37-1.51.71-5l-1-1,7.07-.88V179c3.1,1.44,3.38,3.31,0,6.88Z"/><path class="cls-30" d="M149,183.1l-1.08,3-2.68.11-.35-.23,1.07-.88,1.14-2.09,1.86-.06Z"/><path class="cls-27" d="M145.25,187.14l-2.48-.72.28-.33,1.88-.13.35.23A1.3,1.3,0,0,0,145.25,187.14Z"/><path class="cls-27" d="M144.23,188.85l.39-.28.22.41Z"/><path class="cls-23" d="M219,200a4.85,4.85,0,0,1-.29-.61,1.66,1.66,0,0,1,.34-.19A3.55,3.55,0,0,1,219,200Z"/><path class="cls-25" d="M159.13,186.23l1-.36a7.1,7.1,0,0,1,.88.42c.28,1.27.55,2.55.83,3.83q-.36,4.56-.7,9.12c-.7-1.24-1.89-2.44-2-3.73C158.87,192.44,159.1,189.33,159.13,186.23Z"/><path class="cls-26" d="M161.84,190.12c-.28-1.28-.55-2.56-.83-3.83l1.08.77C162,188.08,161.92,189.1,161.84,190.12Z"/><path class="cls-24" d="M172.12,174.1l1,0,3,3,0,0-2.54,1.16C173.05,176.85,172.58,175.48,172.12,174.1Z"/><path class="cls-24" d="M177.1,174.35h2l.85,1.7-3.85,1,0,0,.09-2Z"/><path class="cls-26" d="M179.9,176l-.85-1.7,0-1.15,2.94.8c0,.34,0,.67.07,1Z"/><path class="cls-27" d="M161,171.23l2.95,2.9Z"/><path class="cls-27" d="M165.11,177.15l-.5.35L165,177Z"/><path class="cls-16" d="M182,174l-2.94-.8c0-.38,0-.77,0-1.15h4.31Z"/><path class="cls-16" d="M153.38,178h-1.26l-3.18-.87.17-.25Z"/><path class="cls-27" d="M176.18,175.13l-.09,2-3-3Z"/><path class="cls-19" d="M153.06,172l1,1-1.57.56Z"/><path class="cls-26" d="M148.94,177.18l3.18.87-3.08,5,0-.17-1.82-1.77Z"/><path class="cls-23" d="M144.93,186l-1.88.13c.4-1.15.81-2.29,1.59-4.53l1.36,3.52Z"/><path class="cls-24" d="M147.18,181.16l1.82,1.77-1.86.06C147.16,182.38,147.17,181.77,147.18,181.16Z"/></g></g></svg>