<svg xmlns="http://www.w3.org/2000/svg" viewBox="0 0 300 300"><defs><style>.cls-1{fill:#fefefe;}.cls-2{fill:#ab2c17;}.cls-3{fill:#e7e1de;}.cls-4{fill:#030306;}.cls-5{fill:#110c0b;}.cls-6{fill:#47669e;}.cls-7{fill:#0c1324;}.cls-8{fill:#0a101f;}.cls-9{fill:#10182b;}.cls-10{fill:#070b15;}.cls-11{fill:#ce6f28;}.cls-12{fill:#b95317;}.cls-13{fill:#6a3817;}.cls-14{fill:#d8dbe0;}.cls-15{fill:#e49d45;}.cls-16{fill:#9f4d19;}.cls-17{fill:#232325;}.cls-18{fill:#0e0f12;}.cls-19{fill:#0a0e19;}.cls-20{fill:#de8d35;}.cls-21{fill:#3f619f;}.cls-22{fill:#192444;}.cls-23{fill:#5272ad;}.cls-24{fill:#111b32;}.cls-25{fill:#0f1629;}.cls-26{fill:#141e38;}.cls-27{fill:#161d2f;}.cls-28{fill:#db822a;}.cls-29{fill:#f1c16b;}.cls-30{fill:#d05e18;}</style></defs><g id="Layer_2" data-name="Layer 2"><g id="Layer_1-2" data-name="Layer 1"><path class="cls-1" d="M0,0H300V300H0ZM137,289l1-.13,5,.2,14,0h2l17,0c1.33,0,2.66-.08,4-.08q34.44,0,68.89,0c1.84,0,4.89,1.14,3.81-2.89.09-5.89.28-11.79.17-17.68,0-1.2-1.18-2.38-1.82-3.56a6.89,6.89,0,0,0,0-.79c.65-1.27,1.76-2.51,1.87-3.83a73.42,73.42,0,0,0,.05-9.84c-.25-5.18-.7-10.36-1.07-15.54,0-.25.09-.5.14-.74.31-.53.88-1.06.88-1.58,0-8.49-.11-17-.19-25.47l.06-10V180.94l-.2-14.29q-.69-3.81-1.4-7.64c-.06-.3-.1-.6-.13-.9.62-1.19,1.76-2.35,1.8-3.55.14-5.42,0-10.84-.09-16.26V137q0-21-.05-42V46l.09-38L252,6.27a12.2,12.2,0,0,0-1.48-.18q-74,0-148,0A14.17,14.17,0,0,0,99,7L87,25l-1.62.47c.56-1.48,1.11-3,1.67-4.45l.86-4.18a.74.74,0,0,1,0-.81l1.18-1.36L97.5,7.6l-1-1.44H90.28l-10.57,0L49,6.28,48.24,7l0,64v1c-.06,4.31-.19,8.62-.18,12.93q.09,46,.21,92l0,5q0,10.49,0,21l0,2,0,34.94-.09,5v42l.82,1.82,51,0h2l23.06.19h.86l6.2,0,.83,0h3.09l1.13,1.58L137,289Z"/><path class="cls-2" d="M252,234.07c-.05.24-.1.49-.14.74-2.67,1.32-5.32,2.7-8,4-11.49,5.4-22.77,11.37-34.57,16-10.24,4-21.48,6.4-32.27,3.91-9.81-2.26-19.32-6.58-28.38-11.13-16.64-8.36-32.78-11.8-49.63-.61-8.18,5.43-17.12,5.75-26.78,2.92-5.7-1.67-7.7-6.35-11.61-9.35-4.66-3.57-6.19-8.45-6.66-13.93l.3-1.52c.3-1.4.21-3.11,1-4.1A13.46,13.46,0,0,1,60,217.39c.59-.29,1.93,1,2.94,1.53-1.78,5.61-1.11,10.74,3,15.18l0,0c4.39,5.56,10.19,7.66,17.12,7l2-.17,14.4-5.43,3-2L104,232h0l2.1-1a2.39,2.39,0,0,0,.88-.19l3-1.81h0l2-1v0c7.37-.34,14.77-1.24,22.11-.84,5,.28,9.91,2.36,14.87,3.64,6.61,1.42,13.26,4.22,19.81,4,16.74-.59,33.44-2.54,50.15-3.94l9.87-2L234,225l9-4.11,1-.94L244,220l5.94-8,1-1.53a6.9,6.9,0,0,1,1,2.37C252,220,252,227,252,234.07Z"/><path class="cls-3" d="M54,226.58c.47,5.48,2,10.36,6.66,13.93,3.91,3,5.91,7.68,11.61,9.35,9.66,2.83,18.6,2.51,26.78-2.92,16.85-11.19,33-7.75,49.63.61,9.06,4.55,18.57,8.87,28.38,11.13,10.79,2.49,22,.09,32.27-3.91,11.8-4.62,23.08-10.59,34.57-16,2.69-1.27,5.34-2.65,8-4,.37,5.18.82,10.36,1.07,15.54a73.42,73.42,0,0,1-.05,9.84c-.11,1.32-1.22,2.56-1.87,3.83-8.31-3.69-16.57-4.67-24.74.39l-.06,0L225,265l-13.44,6-2.26,1.44,0,0c-5.55,1.83-11,3.87-16.66,5.46-8.8,2.48-17.8,2.08-26.78,1.17-1.3-.15-2.83.09-3.87-.5-8.44-4.82-17.14-9.29-25.1-14.83-13.48-9.39-27.26-14.66-43.49-7.5-3.29,1.46-6.93,2.13-10.42,3.16l-2.9.86-3.08.08L67,256.13c-7.1-4.21-9.55-12.18-14.63-18a42.18,42.18,0,0,0-.76-5.41C50.83,230,51.16,227.82,54,226.58Z"/><path class="cls-4" d="M252.71,286.05c1.08,4-2,2.89-3.81,2.89q-34.46.06-68.89,0c-1.33,0-2.66.06-4,.08l-17,0h-2l-14,0-5-.2-1,.13h0l-1,0H133a.72.72,0,0,0-.83,0l-6.2,0a.72.72,0,0,0-.86,0L102,288.78l1.77-5.35-5.34.61,1.55,4.74-51,0L48.21,287q0-21,0-42l1.56-1,8.05,15.29c7.11,10.33,18.45,13.33,29.46,7.81,11.66-1.81,22.35.74,31.55,8,10.63,8.44,22.61,12.1,35.89,10.72,5-.52,9.73-3.08,14.58-4.7,13.92,1.52,27-1.41,39.47-7.51,6.87.4,13.75.75,20.62,1.21C238.63,275.5,246.1,279.88,252.71,286.05ZM77,284l1,1.14,2-.19c7.78,4.17,11.73,3,14.79-5-6,1.53-10.61-4.52-16.64-2-.33-4.15-3.33-2.41-5.19-2-1.56.33-2.88,1.77-4.71,3-3-2.59-6.1-.28-9.16,2.05l-6.43-2.57c-.27,1.92-.54,3.85-.88,6.23l7.07-2.87c2.86,3.62,6.51,4.65,10.85,3.28,1.8-.57,3.55-1.29,5.32-1.94l2,.89Zm22.64-3.26c-.27-.12-.61-.39-.81-.31s-.26.51-.37.78c.27.12.61.39.81.31S99.51,281,99.63,280.75Z"/><path class="cls-4" d="M252.7,47V93L251,93V91q-1-6-2-12-.5-2.5-1-5l-1-1,0-2c1.44-3.2,2.87-6.39-1-9l-1-4c1.48-.47,4.21-.86,4.25-1.42A73.47,73.47,0,0,0,249,44.3c-.1-.94-1.95-1.7-3-2.55L243,39l1-1,6,1c.34-1.34.68-2.68,1-4V28.75l-1.94,3.35-1.94-2.61L247,24.12l1.62-3.92L250,20l.42.23L250,20l-.21-1.35L249,18l0,.08c.53-4.17-2.81-3-4.88-3.52a2.47,2.47,0,0,0-.08-.6l4.52-3c-3-2-10-1.22-13.7,1.4l6,2-7.29.29L231,14.7h-2l-2.13-.24-.2.2.82-5.21c-5.78.32-10.46.23-15,1-2,.32-3.67,2.34-5.49,3.58l-1,1.77-.91.51L199.15,14,197,13l-2.18-1.79-1.66,3.12-1.77.89-3.34-.7h-4l1.77-3.35-7.66.47-.22,4-2,0-2-.68L170,15.1c-6.91-4-7.89,3-11,6.68l-7.15-7.42c.31-3.2.56-6.35-5.49-5.94L149,14,145.68,16l-3.54-1.05a45.84,45.84,0,0,0-.08-5.06c0-.28-1.6-.66-1.63-.6-.57,1.21-1,2.46-1.49,3.72a3.53,3.53,0,0,0,0,1l-3.85-.09c-3.6-5.82-9-6.62-15.19-5.68a10,10,0,0,1-4.24.1c-3.41-1-5.56.05-6.63,4.07L103,8,99,7a14.17,14.17,0,0,1,3.51-.9q74-.08,148,0a12.2,12.2,0,0,1,1.48.18L252.79,8l-.09,38c-.11.1-.32.22-.31.28A4.71,4.71,0,0,0,252.7,47ZM169.55,11.47l.07,1.33,2.93-.46-.12-.87Z"/><path class="cls-4" d="M48.27,71l0-64L49,6.28l30.69-.14A4.87,4.87,0,0,0,80,7L72,8c-5.43.67-10.89,1.19-16.27,2.11C54.69,10.32,53.88,12,53,13c-.68,2-1.35,4.07-2,6.1L50.4,29H57l2,.09L59,33H54c-3-2.13-3.7-.08-3.93,2.25S50,39.74,50,42v4l1,7.09.92.9c0,.32,0,.64,0,1L51,57l0,8c-.31,2-1,4.13-.82,6.14.13,1.51,1.36,2.93,2.1,4.4,1.24-1,2.43-2.12,3.73-3.06s2.59-1.65,3.89-2.46l2,11.9c-.58.84-1.74,1.76-1.64,2.51.55,4.23,1.41,8.43,2.15,12.57C60.91,98.22,57.22,93.51,57,99l-1,2-5.85,1.87,2,4.18c-1.82,6-2.76,12,0,18-.69.92-1.86,1.79-2,2.76A59.62,59.62,0,0,0,50,136c.14,3.44.43,6.87.71,10.29,0,.28.51.52,1,1l.62-4.77,2.64.72V152c-4.12-.66-5.55,1.24-5,5.16A29.2,29.2,0,0,1,50,161q0,6.5,0,13l-1.71,3q-.11-46-.21-92c0-4.31.12-8.62.18-12.93.12-.09.36-.22.35-.27A5,5,0,0,0,48.27,71Z"/><path class="cls-5" d="M228.87,228.91l-9.87,2c1-2.56-1.82-9.77-4-9.33-4.4.91-4.56-2.46-6.06-4.6l-3-3-3-2v-1c.13-.1.39-.24.37-.28a4.42,4.42,0,0,0-.39-.7l-2,0c.28-1.87,1.79-4.37-2.12-4l7.07-3.72v4.49l6.35-1.86-.18,1.22c.14,1.43.28,2.87.51,5.33l2.35-4.23,1.07,1,.09-3.07c.78-.85,1.55-1.71,2.33-2.57l1.59-1.46,2.89-1.13c6.84-.06,9.43-6.41,14.18-9.55l.27-.2a1.16,1.16,0,0,0,.76-.45l1-.57L241,188l1.95-1.57,9.08-5.7a.82.82,0,0,0,.76.21V197l-2.64-1c-.43,5.84-.8,6.29-6.22,8.19-2,.72-4,1.53-6,2.3l-6.77.59c-2.86-.54-5-.14-5.68,3.34a52.75,52.75,0,0,1-2.21,6.68l-3.86-2.77c0-.05.52-1.44,1-2.83-1.55.15-3,1-3,1.81-.09,3.31-1.63,7.24,2.53,9.3l3.25-3.73Z"/><path class="cls-6" d="M252.71,286.05c-6.61-6.17-14.08-10.55-23.33-11.17-6.87-.46-13.75-.81-20.62-1.21l.57-1.25,0,0,2.27-1.44L225,265l1.23-.6.06,0c8.29-1.93,16.55-2.43,24.76.4.64,1.18,1.8,2.36,1.82,3.56C253,274.26,252.8,280.16,252.71,286.05Z"/><path class="cls-7" d="M99,7l4,1c0,2-.7,4.67.3,5.7,3.65,3.78.44,6.9-.28,10.26l-7.1-1.5c-.19.36-1,1.92-1.88,3.45-1,1.71-2,3.38-3,5.07-1.34.77-3.62,1.33-3.83,2.33a56.55,56.55,0,0,0-.92,10.5A41.82,41.82,0,0,0,87,50c-6.22,2.11-5.72,7-5,12-1,1.67-2,3.35-3,5,0,.4-.11.8-.16,1.2A2.12,2.12,0,0,0,78,68.1l-3.18-2-.33-.65-.18.65-1.55.81q1.56-7.39,3.13-14.78a2.94,2.94,0,0,1,.36-.42h0L75.88,49,78,44.21c1.73-3.45,3.49-6.87,5.07-10.38.09-.19-1.25-1-1.93-1.59l3-3.54L86.05,26l0,.05L87,25Z"/><path class="cls-8" d="M48.32,205l0-2c.6-1.43,1.59-2.82,1.72-4.29.48-5.55.68-11.12,1-16.69,0-3.37.17-6.63,5-4-.34,2-.67,4-1,6l-.22.44L55,184l2.05,0a42,42,0,0,0,2,5.11c1.51,2.77,3.27,5.42,4.92,8.12-.33.89-.66,1.79-1,2.68,0,.38,0,.75-.05,1.13L60,202H55.34c-1.17,5.3-2.25,10.15-3.32,15-4.05-1.92-1.18-5.41-1.88-8.08A23.23,23.23,0,0,0,48.32,205Zm7.77-5.43-1-1.47-2.57,2.09.62,1Zm5.16-.88v-.42h-1.5v.42Zm-4.49-4.41v.39h1.5v-.39Z"/><path class="cls-5" d="M251.19,159c.46,2.55.93,5.1,1.39,7.65a47.32,47.32,0,0,0-6.91,2.38,88,88,0,0,0-7.66,5l-1.86-4.94-2.18-2L232,166c0-.31-.07-.61-.12-.92l-1.17-.89a.87.87,0,0,1-.77-.22l-.92-.1-2.21-.7.15-4.25.94-.9a18.56,18.56,0,0,1,4,1.55c2.91,2,5.51,2,8-.58l8.94.88Z"/><path class="cls-4" d="M252.7,95l.05,42-1.93.25,0,0c.2-2.41,1.14-4.95-2.79-5.61-1.16-.2-2-2.38-3-3.64l-2-6v-3l2,1,2,2c0,.32,0,.65,0,1,.3,1.94.61,3.87.91,5.81l1.58-.27c-.16-1.51-.33-3-.49-4.54v-3l-2-2c.08-.64,0-1.77.27-1.86,4.86-1.66,3.64-5.68,3.68-9.2,0-3.12-.15-6.24.09-9.34C251.17,97.35,252.13,96.2,252.7,95Z"/><path class="cls-9" d="M72,8l8-1c1.1,1.11,2.26,2.17,3.28,3.35,1.6,1.86,3.12,3.79,4.67,5.69a.74.74,0,0,0,0,.81c-.29,1.39-.57,2.78-.86,4.18-.56,1.48-1.11,3-1.66,4.44a.54.54,0,0,0,.63.6l0-.05L76.47,15.64H73l2.34-1.26-5.22-1C70.86,11.29,71.44,9.66,72,8Z"/><path class="cls-10" d="M245,120l-2-1v-4c1-2.53,2.49-5,2.88-7.6.72-4.75.78-9.6,1.12-14.41h4l1.71,0v2c-.57,1.18-1.53,2.33-1.62,3.55-.24,3.1-.06,6.22-.09,9.34,0,3.52,1.18,7.54-3.68,9.2-.27.09-.19,1.22-.27,1.86Z"/><path class="cls-11" d="M238,174a88,88,0,0,1,7.66-5,47.32,47.32,0,0,1,6.91-2.38q.1,7.13.2,14.27a.82.82,0,0,1-.76-.21v-5.39L243,177l-5.13,2.75v-4.07Z"/><path class="cls-4" d="M48.32,205a23.23,23.23,0,0,1,1.82,3.89c.7,2.67-2.17,6.16,1.88,8.08l0,3-1.8,1.28L52,223l2.3,2-.3,1.52c-2.82,1.24-3.15,3.38-2.41,6.11a42.27,42.27,0,0,1,.76,5.4L49.05,240a1.32,1.32,0,0,0-.76-.07Z"/><path class="cls-12" d="M252.76,138.3c.06,5.42.23,10.84.09,16.26,0,1.2-1.18,2.36-1.8,3.55l-2.13-3c4.31-2,1.51-5.39,2-8.47-4.3,1.8-5.55.19-5-3.6l5.14-.74c-2.61-2-4.37-2.81-5.28-4.17a58.74,58.74,0,0,1-3.62-7.28l5.82,5,.85.55,1.87.87.06,0Z"/><path class="cls-13" d="M237.91,206.53c2-.77,4-1.58,6-2.3,5.42-1.9,5.79-2.35,6.22-8.19l2.64,1-.06,10-5.88,1.12-1.87,0-5.67.49Z"/><path class="cls-10" d="M56,178c-4.83-2.67-5,.59-5,4H48.33l0-5L50,174c6.52,0,6.59-.08,6.83-5.53L52,166.92l.31-.91h7.77Z"/><path class="cls-14" d="M87.94,16c-1.55-1.9-3.07-3.83-4.67-5.69C82.25,9.15,81.09,8.09,80,7a4.87,4.87,0,0,1-.28-.84l10.57,0c-.39,2.83-.77,5.67-1.16,8.5Z"/><path class="cls-15" d="M248.92,155.09l2.13,3c0,.3.07.6.13.9l-2.26.83c-.33-.53-.54-1.25-1-1.54-4-2.42-8-4.75-12-7.11l1-.38c2,.06,4.2-.38,6,.3C245.09,152,246.93,153.72,248.92,155.09Z"/><path class="cls-4" d="M48.33,182H51c-.31,5.57-.51,11.14-1,16.69-.13,1.47-1.12,2.86-1.72,4.29Q48.3,192.5,48.33,182Z"/><path class="cls-16" d="M246.84,208.14l5.88-1.12c.08,8.49.17,17,.19,25.47,0,.52-.57,1-.88,1.58,0-7.06,0-14.12-.08-21.18a6.9,6.9,0,0,0-1-2.37l-1,1.53L247,209h0A3.18,3.18,0,0,0,246.84,208.14Z"/><path class="cls-17" d="M89.12,14.66c.39-2.83.77-5.67,1.16-8.5h6.24l1,1.44Z"/><path class="cls-14" d="M251.06,264.81c-8.21-2.83-16.47-2.33-24.76-.4,8.17-5.06,16.43-4.08,24.74-.39A6.89,6.89,0,0,1,251.06,264.81Z"/><path class="cls-17" d="M159,289.07l17,0Z"/><path class="cls-17" d="M143,289.08l14,0Z"/><path class="cls-10" d="M100,288.78,98.44,284l5.34-.61L102,288.78Z"/><path class="cls-17" d="M48.29,240a1.32,1.32,0,0,1,.76.07c.24,1.34.47,2.67.71,4l-1.56,1Z"/><path class="cls-14" d="M87,21c.29-1.4.57-2.79.86-4.18C87.61,18.22,87.33,19.61,87,21Z"/><path class="cls-17" d="M136.05,289l1,0c0,.52.11,1,.16,1.55Z"/><path class="cls-18" d="M252.76,138.3l-1.94-1.07,1.93-.24C252.76,137.43,252.76,137.86,252.76,138.3Z"/><path class="cls-18" d="M252.79,8,252,6.27Z"/><path class="cls-17" d="M48.21,287l.82,1.82Z"/><path class="cls-17" d="M49,6.28,48.24,7Z"/><path class="cls-14" d="M86,26.05a.54.54,0,0,1-.63-.6c.53-.14,1.07-.3,1.61-.46Z"/><path class="cls-18" d="M252.7,47a4.71,4.71,0,0,1-.31-.69c0-.06.2-.18.31-.28Z"/><path class="cls-17" d="M137,289l1-.13Z"/><path class="cls-17" d="M48.27,71a5,5,0,0,1,.35.74s-.23.18-.35.27Z"/><path class="cls-17" d="M125.07,289a.72.72,0,0,1,.86,0Z"/><path class="cls-17" d="M132.13,288.94a.72.72,0,0,1,.83,0Z"/><path class="cls-10" d="M85,240.9l-2,.17c-1.22-.69-2.41-1.43-3.66-2.07-2.49-1.26-6.52.37-7.37-3.95l3.09-2.88L75,230.41l-8.47-1.82c1.26,2.73,1.87,4.08,2.49,5.42l-3.09.07,0,0Q65,229,64,224c4.79,1.89,5.55-.46,4.5-4L79,217l-1.51,9.65,7.53-.6,2,.9H88l10,0,3,3c-2.09,3-7.53,2.11-8,7A24.5,24.5,0,0,0,88,238.09C86.79,238.63,86,239.93,85,240.9Z"/><path class="cls-18" d="M209,217c1.5,2.14,1.66,5.51,6.06,4.6,2.14-.44,5,6.77,4,9.33-16.71,1.4-33.41,3.35-50.15,3.94-6.55.23-13.2-2.57-19.81-4l3-3.9c3.6,1,7.16,2.65,10.81,2.87a184.83,184.83,0,0,0,22.94,0c7.12-.46,14.17-1.88,21.25-2.89l4.85-1.87L207,221h0l-2.06-2c-.3,0-.61,0-.91,0Z"/><path class="cls-7" d="M79,217l-10.47,3c1,3.56.29,5.91-4.5,4-.38-1.69-.75-3.37-1.12-5.06-1-.55-2.35-1.82-2.94-1.53A13.46,13.46,0,0,0,55.29,221c-.8,1-.71,2.7-1,4.1L52,223c0-1,0-2,0-3.05l0-3c1.07-4.84,2.15-9.69,3.32-15H60a41.74,41.74,0,0,1-2,4.61c-1.09,1.9-2.05,3.59,1,4.44l-.29,4.07c2.4-.49,4.45-.81,6.46-1.34C68,213.06,68.5,211.39,67,209l-1.19-1.6L65,209,63,209a34,34,0,0,1,2.1-3.16C66,204.85,67,204,68,203l6,2,1,1C77,209.43,82.16,211.71,79,217Z"/><path class="cls-19" d="M152,227l-3,3.9c-5-1.28-9.87-3.36-14.87-3.64-7.34-.4-14.74.5-22.12.84L109,223c0-5.43,3.12-7.2,8-6.94-1.07,3-2.14,6-2.83,7.94h14.86Z"/><path class="cls-13" d="M228.87,228.91q-2.85-5-5.71-10l.09-1.78a52.75,52.75,0,0,0,2.21-6.68c.67-3.48,2.82-3.88,5.68-3.34q1.43,8.41,2.86,16.85l0,1.05Z"/><path class="cls-20" d="M234,224q-1.42-8.43-2.86-16.85l6.77-.59,1.39,2.12c-4.57.4-2.24,3.78-3.07,6.07,6.79-1,8.29-2,6.94-4.17L247,209l2.92,3.05L244,220l1.35-4.88c-.59.08-1,0-1.21.18C240.73,218.19,237.37,221.08,234,224Z"/><path class="cls-7" d="M109,223l3.06,5.12v0l-2,1h0l-3,1.81a2.39,2.39,0,0,1-.88.19l-2.1,1h-2l-1-2-3-3,8.12-4a4.78,4.78,0,0,1,.76,0h1.21Z"/><path class="cls-16" d="M234,224c3.37-2.89,6.73-5.78,10.12-8.65.21-.17.62-.1,1.21-.18L244,220,244,220l-1,.94L234,225C234,224.67,234,224.32,234,224Z"/><path class="cls-5" d="M65.9,234.08,69,234l3,1c.85,4.32,4.88,2.69,7.37,3.95,1.25.64,2.44,1.38,3.66,2.07C76.09,241.74,70.29,239.64,65.9,234.08Z"/><path class="cls-5" d="M85,240.9c1-1,1.8-2.27,3-2.81A24.5,24.5,0,0,1,93,237l6-2,.42.5Z"/><path class="cls-5" d="M62.9,218.92c.37,1.69.74,3.37,1.12,5.06Q65,229,65.92,234.1C61.79,229.66,61.12,224.53,62.9,218.92Z"/><path class="cls-5" d="M102.4,233.47l-3,2c-.13-.16-.27-.32-.4-.49l3-2Z"/><path class="cls-19" d="M107,230.84l3-1.81Z"/><path class="cls-19" d="M110,229l2-1Z"/><path class="cls-19" d="M104,232l2.1-1Z"/><path class="cls-5" d="M102,232h2l-1.63,1.46L102,233C102,232.63,102,232.32,102,232Z"/><path class="cls-20" d="M243,220.91l1-.94Z"/><path class="cls-21" d="M169.29,281.18c-4.85,1.62-9.61,4.18-14.58,4.7-13.28,1.38-25.26-2.28-35.89-10.72-9.2-7.29-19.89-9.84-31.55-8L77,260.32l3.07-.08,2.91-.86c3.49-1,7.13-1.7,10.42-3.16,16.23-7.16,30-1.89,43.49,7.5,8,5.54,16.66,10,25.1,14.83,1,.59,2.57.35,3.87.5Z"/><path class="cls-6" d="M77,260.32l10.24,6.81c-11,5.52-22.35,2.52-29.46-7.81L67,256.13Z"/><path class="cls-21" d="M67,256.13l-9.15,3.19L49.76,244c-.24-1.33-.47-2.66-.71-4l3.28-1.94C57.41,244,59.86,251.92,67,256.13Z"/><path class="cls-14" d="M169.29,281.18l-3.4-2.13c9,.91,18,1.31,26.78-1.17,5.62-1.59,11.11-3.63,16.66-5.46l-.57,1.25C196.29,279.77,183.21,282.7,169.29,281.18Z"/><path class="cls-6" d="M83,259.38l-2.91.86Z"/><path class="cls-14" d="M211.57,271l-2.27,1.44Z"/><path class="cls-14" d="M226.24,264.38,225,265Z"/><path class="cls-22" d="M80,285c-.67.07-1.33.13-2,.18L77,284h0l-2-.89c-1.77.65-3.52,1.37-5.32,1.94-4.34,1.37-8,.34-10.84-3.28A2,2,0,0,1,59,281c3.06-2.33,6.13-4.64,9.16-2.05,1.83-1.22,3.15-2.66,4.71-3,1.86-.39,4.86-2.13,5.18,2Z"/><path class="cls-10" d="M80,285l-1.86-7c6-2.56,10.62,3.49,16.65,2C91.68,288,87.73,289.13,80,285Z"/><path class="cls-21" d="M59,281a2,2,0,0,0-.23.79l-7.08,2.87c.34-2.38.61-4.31.88-6.23Z"/><path class="cls-10" d="M99.63,280.75c-.12.28-.18.7-.37.78s-.54-.19-.81-.31c.11-.27.17-.7.37-.78S99.36,280.63,99.63,280.75Z"/><path class="cls-10" d="M75,283.12l2,.89Z"/><path class="cls-10" d="M77,284l1,1.13Z"/><path class="cls-19" d="M243,39l3,2.75c-.1.51-.24,1-.31,1.54A26.65,26.65,0,0,1,245,47.7c-.08.27-2.46.29-2.56,0a26,26,0,0,1-.77-4.36,21.66,21.66,0,0,0-1.2-2.81c-1.1,2.68-1.88,4.2-2.35,5.81a49.87,49.87,0,0,0-1.46,6.49c-.63,4.28-3.45,2.52-5.94,2.6-1.44,0-2.82,1.68-4.23,2.59l.57,1H236l-2,2-4,1.23c2.89,2.17,2.89,2.17,4-1.23h5c1.46-.21,3.81.9,3.25-2.37-.06-.37,1.77-1.07,2.72-1.62v1l1,4-7,3-13.71,1.21c.87-2.15,1.42-3.53,2-4.9l-.89-1L220,64l-5-5.08h4.51c-7.65-3.11-8.52-8.41-6.79-14.85H209c-.34-1-.68-2.05-1-3.08,0-.32,0-.65,0-1l3.51-1.08,4.67,4c3.21.72,6.36,1.52,7,5.52L223,50h-5.25c-.23-1.62-.4-2.75-.68-4.71-1.08,1.2-1.88,1.67-2,2.27-.8,4.67-.93,7.85,7.75,8.65l-2.1,2.26c5.12-.31,8.28-6.94,6.17-11.35s-6-5-9.88-6.25c1.29-.58,2.9-2,3.8-1.62,5.74,2.31,8.94-1.59,13.26-4.45L227,33l4.62-.45c.51-6.05,1-11.53,1.43-17,.66,1.24,1.82,2.44,1.89,3.71.23,4.37.09,8.77.09,13.29l7,.49v1l-6.24,2-.06,1.87ZM227.3,43.55c5.22,0,6.94,2.7,5.71,8.29,4-3.24,4-6.58,2-9.19C232.72,39.6,229.81,41.25,227.3,43.55Z"/><path class="cls-6" d="M135.06,13.86l3.85.08,3.22,5.87c1.19-1.28,2.37-2.57,3.55-3.85L149,14l2.84.33L159,21.78c3.12-3.63,4.1-10.67,11-6.68-.09.43-.17.87-.25,1.3-3.06-1.16-2.88,1-2.89,2.87,0,4.42,0,8.85,0,14.52l-5.34-2.53q.91-5.09,1.81-10.19l-1.36-.3c-1.28,1.82-2.57,3.64-5,7.16-1.6-2.83-2.79-4.95-4-7.06l-.84.79V31l-.72,1.85-2.85-1.45c3.55-4.7,1.45-9.3.14-14.09-5.34,2.56-6.19,6.8-5.5,11.72,0,1.3-.08,2.59-.13,3.89l-4.35-.55c1.41-10.55-2.4-16-7.45-15.8V30.48l4.26,1.25-.16.86h-9.69c-.59-2.11,3.86-4.68-.58-6.45.31-1.75.61-3.49.91-5.24V14.42Z"/><path class="cls-10" d="M135.06,13.86l-9.08.56V20.9l-8-6.53c-7.47-.76-11.2,3.47-10.87,12.33L106,30l-3-1V24c.72-3.36,3.93-6.48.28-10.26-1-1-.25-3.75-.3-5.7l6,4.32c1.07-4,3.22-5.09,6.63-4.07a10,10,0,0,0,4.24-.1C126,7.24,131.46,8,135.06,13.86Z"/><path class="cls-10" d="M207,14c1.82-1.24,3.52-3.26,5.49-3.58,4.55-.74,9.23-.65,15-1-.2,1.29-.51,3.25-.82,5.2l-.14.34h-3.35l-1.26-.38-.87.05-3.23.4V32.62L216,34l-5-1c-2.19-3.42-6.14-6.13-4.43-11.1l.41-1,2.1-4.87L215,18l.75,1.05L215,18c-.4-1.53-.79-3.07-1.16-4.5Zm6,12-2.78,1.22.79,1.52L214,27q1.2-2.4,2.38-4.8l-1.72-.58Z"/><path class="cls-8" d="M239,65l7-3c3.86,2.62,2.43,5.81,1,9-1.14-1.41-2.29-2.81-3.82-4.69C241.91,71,241,74.49,240,78h0l-1,1-3.67,2.74L241,82h0c.23,2,.45,4,.7,6.2L238,88l-1-1c-.26-5.85-4.36-2.72-7-3,.93-4.18-3.53-4.53-5-7V72c1,.43,2.37.6,2.9,1.36a19.21,19.21,0,0,1,1.72,4.31l2.21.4c-3.23-4.52,0-5.25,1.92-7.21S240.24,69.5,239,65Z"/><path class="cls-19" d="M188.05,14.54l3.34.7c-2.48,5-1.84,6.43,3.21,9.49,2,1.23,3.46,3.39,5.74,5.7l.82-1.41h1.7c.41.61.83,1.22,1.25,1.82L201,35H191l-4-3Q187.53,23.27,188.05,14.54Zm9.28,18c-.06-.1-.09-.26-.18-.3s-.24,0-.37,0l.25.46Z"/><path class="cls-23" d="M242,33l-7-.49c0-4.52.14-8.92-.09-13.29-.07-1.27-1.23-2.47-1.89-3.71h0l.56-.91,7.28-.3v0l3.23.26c2.07.56,5.41-.65,4.88,3.52l-3.67-1.17-1.21-.38L241,16.32l-.89.67L240,21l6.06.37,2.52-1.17L247,24.12l0-.1-4.84-.53c-4.11.19-1.88,3.32-2.06,5.07-.07.65,1.9,1.51,2.94,2.28l3.27-.67.86-.68c.65.87,1.29,1.74,1.95,2.6Z"/><path class="cls-23" d="M236,59h-8.9l-.57-1c1.41-.91,2.79-2.54,4.23-2.59,2.49-.08,5.31,1.68,5.94-2.6a49.87,49.87,0,0,1,1.46-6.49c.47-1.61,1.25-3.13,2.35-5.81a21.66,21.66,0,0,1,1.2,2.81,26,26,0,0,0,.77,4.36c.1.3,2.48.28,2.56,0a26.65,26.65,0,0,0,.67-4.41c.07-.52.21-1,.31-1.54,1,.85,2.89,1.61,3,2.55a73.47,73.47,0,0,1,.23,12.32c0,.56-2.77,1-4.25,1.42V57c.62-1.75,1.55-3.48,1.65-5.26,0-.45-3.67-1.74-3.86-1.45a50.62,50.62,0,0,0-3.42,6.78l1,.37Z"/><path class="cls-10" d="M238,88l3.69.18c-.25-2.21-.47-4.2-.7-6.2,3.12.21,6.75,1.77,8-3q1,6,2,12h-3l-.93-1.53L240,94l-2-2C238,90.67,238,89.34,238,88Zm8.37-2.75c.28.12.62.4.82.32s.26-.51.38-.79c-.28-.12-.62-.4-.81-.32S246.51,85,246.38,85.27Z"/><path class="cls-23" d="M188.05,14.54q-.53,8.73-1,17.46c-2.56,1.58-3.91.89-4-2.14-.07-2.27-.12-4.54-.18-6.81l1.78-1.15-.86-.88-1.64,2-3,4-1.25-2.37a1.12,1.12,0,0,1,.3-.7l.32-.93-.69-5,3,0a.57.57,0,0,1,.34.58l1,1.35.12-4.06-.26-1a.81.81,0,0,0,.67-.48l1.42.15Z"/><path class="cls-6" d="M233,15.51h0c-.46,5.49-.92,11-1.43,17L227,33l-.8-.72.86-1.08c2.32-5.72,1.69-7.4-3-8.17,0-.27,0-.53,0-.79l4-.49L227,18l-.43-3,.14-.34.2-.19,2.13.24h2Z"/><path class="cls-6" d="M201.16,29l-.82,1.41c-2.28-2.31-3.72-4.47-5.74-5.7-5-3.06-5.69-4.46-3.21-9.49l1.77-.89L197,13l2.15,1c-.05.8-.09,1.6-.12,2.07l-4.8,1.18c1,1.26,2,2.61,3.15,3.77a20,20,0,0,0,2.79,2Z"/><path class="cls-6" d="M204.11,30.83c-.42-.6-.84-1.21-1.25-1.82l-1-6,3.2-6.7.91-.51,3,.22L207,20.86c-.14.34-.27.67-.41,1-1.71,5,2.24,7.68,4.43,11.1l-1,.36L207,33l-1.9-1.31Z"/><path class="cls-10" d="M205.1,16.28q-1.59,3.36-3.2,6.7h-1.73a20,20,0,0,1-2.79-2c-1.15-1.16-2.11-2.51-3.15-3.77l4.8-1.18c0-.47.07-1.27.12-2.07Z"/><path class="cls-10" d="M178.15,24a1.12,1.12,0,0,0-.3.7l-4.77,2.12L173.9,15l2,.68,1.83,2.33.69,5A1.17,1.17,0,0,0,178.15,24Z"/><path class="cls-9" d="M240,78l3.19-11.68c1.53,1.88,2.68,3.28,3.82,4.69,0,.67,0,1.33,0,2l-4,5h-3Z"/><path class="cls-10" d="M242,33l7.07-.91c.38-.67.77-1.35,1.93-3.34V35c-.33,1.34-.67,2.68-1,4l-6-1-2-4Z"/><path class="cls-10" d="M240.87,14.3l-6-2c3.67-2.62,10.68-3.41,13.7-1.4l-4.52,3-3.15.34Z"/><path class="cls-10" d="M145.68,16c-1.18,1.28-2.36,2.57-3.55,3.85l-3.22-5.87a3.47,3.47,0,0,1,0-1c.45-1.26.92-2.51,1.49-3.72,0-.06,1.59.32,1.63.6a45.84,45.84,0,0,1,.08,5.06Z"/><path class="cls-23" d="M173.9,15q-.41,5.9-.82,11.78c.1.82.19,1.65.28,2.47l0,0-.74.26.75.37a2,2,0,0,1,.22.93l-3.88.06A2.1,2.1,0,0,1,170,30l0-8,0-2c0-1,0-2,0-3a1.11,1.11,0,0,1-.23-.6l.26-1.3Z"/><path class="cls-7" d="M242,34l2,4-1,1-7.31-1.12.06-1.87Z"/><path class="cls-8" d="M241,78h2l3.25,2.26C247,77.61,247.49,75.8,248,74q.51,2.51,1,5c-1.25,4.77-4.88,3.21-8,3h0C241,80.66,241,79.33,241,78Z"/><path class="cls-19" d="M184.08,14.53l-1.41-.15a.68.68,0,0,0-.68.48c.09.35.17.7.25,1l-2.64.2L178,15.7l.22-4,7.66-.47Z"/><path class="cls-10" d="M240,21l.06-4,.89-.67,3.15.18,1.21.38L249,18.05l0-.08.83.68L250,20h0l-1.41.2-2.52,1.17L244.94,19Z"/><path class="cls-10" d="M151.85,14.36,149,14l-2.65-5.61C152.41,8,152.16,11.16,151.85,14.36Z"/><path class="cls-19" d="M209.05,16l-3-.22L207,14l6.84-.5c.37,1.43.76,3,1.16,4.5h0Z"/><path class="cls-10" d="M248,74c-.51,1.81-1,3.62-1.76,6.27L243,78l4-5Z"/><path class="cls-19" d="M247.12,29.49l-.86.68c-1.74-2.27-2.56-4.44.69-6.15l0,.1Z"/><path class="cls-18" d="M197,13l-3.84,1.33,1.66-3.12Z"/><path class="cls-6" d="M178,15.7l1.63.4L180.8,18l-3,0L176,15.72Z"/><path class="cls-19" d="M169.55,11.47h2.88l.12.87-2.93.46Z"/><path class="cls-19" d="M248,91h3v2h-4c0-.33,0-.66,0-1h0l1-1Z"/><path class="cls-19" d="M250,39c.34-1.34.68-2.68,1-4C250.67,36.34,250.33,37.68,250,39Z"/><path class="cls-24" d="M240.88,14.27l3.15-.34a2.47,2.47,0,0,1,.08.6Z"/><path class="cls-24" d="M233,15.51l-2-.81,2.59-.11Z"/><path class="cls-24" d="M229,14.7l-2.13-.24Z"/><path class="cls-10" d="M250,20l.42.23L250,20Z"/><path class="cls-23" d="M249.79,18.65,249,18Z"/><path class="cls-10" d="M59.84,70c-1.29.81-2.64,1.56-3.88,2.46s-2.49,2-3.73,3.06c-.74-1.47-2-2.89-2.1-4.4-.18-2,.51-4.09.82-6.14,6.35-5,6.38-5.36.95-11L51,53.1l3.78-4.43L50,46V42l5,3c3,1,4.16,7.42,9,3-1.39,2.22-2.79,4.45-4.62,7.39,1.45-.16,3.3.18,4-.56,1.42-1.48,2.2-3.56,3.25-5.4L64,48l2-3,5.39-2.62L67,59l-1.93,3.16,3.27,1.94L64.05,67Z"/><path class="cls-7" d="M60.05,166H52.28l-.31.91,4.87,1.54C56.6,173.91,56.53,174,50,174q0-6.5,0-13l3.42,1c1.53-1.58,3.23-2.57,3.6-3.92.52-1.89,0-4,0-6.1l3.24-4.68L63,149c1,4.78,5.18,3.2,7.83,3.28,2.45.08,3.22.42,3.18,2.68-.65,0-1.42-.2-1.93.08-1.4.74-2.7,1.68-4,2.54.92,1.18,1.92,2.31,2.75,3.55S72.28,163.71,73,165c-3.54-1-4.94,1.28-6,4Z"/><path class="cls-19" d="M63,149l-2.78-1.69L57,152l-2,0v-8.76l-2.64-.72-.62,4.77c-.48-.47-1-.71-1-1-.28-3.42-.57-6.85-.71-10.29a59.62,59.62,0,0,1,.1-8.24c.1-1,1.27-1.84,2-2.76L63,135l2.05,4L69,149Z"/><path class="cls-8" d="M72,8c-.58,1.63-1.16,3.26-1.91,5.35l5.22,1L73,15.64l-2-.05-.95.14c-1.8,1.57-1.21,2.6,1.31,4.18,4.39,2.74,8.54,5.84,12.79,8.79l-3,3.54L79,34l.06,0-5.26-8.37L64,30.11a44.86,44.86,0,0,0,.32-6c-.22-3,4-6.27-.36-9.11l1.8-1.75L63,12H60l-3,2-4-1c.92-1,1.73-2.64,2.79-2.82C61.13,9.22,66.59,8.7,72,8Z"/><path class="cls-24" d="M63,135,52.07,125c-2.78-6-1.84-12,0-18l5-2c1.21,4.75,3.3,9.4,1.4,14.47-.12.34.35.89.53,1.35L64,134Z"/><path class="cls-25" d="M57,99c.27-5.44,4-.73,5.39-1.94-.74-4.14-1.6-8.34-2.15-12.57-.1-.75,1.06-1.67,1.64-2.51l4.29,3.12,1.45,4.66L76,92l-.28,2.43c-4.92-1.9-7-.33-6.5,4.8A17.11,17.11,0,0,0,70,102c-3.27.18-7-1.17-9,3l-3-3v0Z"/><path class="cls-17" d="M66.12,85.05l-4.29-3.12-2-11.9,4.2-3,3,4.11q1.13,3,2.27,6.08c1.93,2.53,3.9,5,5.73,7.63.28.4-.07,1.24-.12,1.88l-1-.54-3.32-1.73-1.69,2.13-1.88-1.85Z"/><path class="cls-24" d="M60,12h3c.33,1,.67,2,1,3,4.38,2.84.14,6.07.36,9.11a44.86,44.86,0,0,1-.32,6l-2,2-3.06-3L57,29c1.32-2.34,2.63-4.67,4.52-8l-10.6-1.91c.68-2,1.35-4.07,2-6.1l4,1c.81,1.65,1.63,3.29,3,6.08Z"/><path class="cls-19" d="M55,45l-5-3c0-2.26-.16-4.53.06-6.76s1-4.38,3.93-2.25a19.49,19.49,0,0,0,2.25,3.17c2.3,2.18,4.77,4.2,7.85,6.88Z"/><path class="cls-24" d="M55,45l9.06-2c-3.08-2.68-5.55-4.7-7.85-6.88A19.49,19.49,0,0,1,54,33h5v0c-.31,6.2,6.92,4.32,8.82,8.34L66,45l-2,3h0C59.2,52.41,58,46,55,45Z"/><path class="cls-25" d="M50.93,19.06,61.53,21c-1.89,3.33-3.2,5.66-4.52,8H50.4Z"/><path class="cls-8" d="M55,152l2,0c.06,2.05.54,4.21,0,6.1-.37,1.35-2.07,2.34-3.6,3.92L50,161a29.2,29.2,0,0,0,0-3.86C49.43,153.22,50.86,151.32,55,152Z"/><path class="cls-19" d="M57,105l-5,2q-1-2.1-2-4.18L55.93,101,58,102v0Z"/><path class="cls-9" d="M51.9,54c5.43,5.65,5.4,6-.95,11l0-8,.93-2C51.92,54.64,51.92,54.32,51.9,54Z"/><path class="cls-9" d="M50,46l4.75,2.66L51,53.1C50.66,50.74,50.33,48.37,50,46Z"/><path class="cls-19" d="M59,29.05l3.06,3-1.7,1.09L59,33.05v0Z"/><path class="cls-26" d="M58,102l-2.07-1,1-2Z"/><path class="cls-10" d="M51.91,55,51,57Z"/><path class="cls-16" d="M223,199.94l-2.89,1.13-.23-.22-.91-1.43L218,201l0,0-3,0c-.13.08-.38.21-.36.25a4.53,4.53,0,0,0,.32.71l3.08,0a6,6,0,0,0,.48.53c-.78.86-1.55,1.72-2.33,2.57l-3.83-.25L206,206.72v-4.49l-2-6.4,2.19,1.84,2.72-5.64,10.19-3.13,2.83,1L228,192a15.45,15.45,0,0,1-1.21,2.85C225.62,196.61,224.26,198.25,223,199.94Zm-3.81-6,.3-.89-2.56-.88-.31.93Z"/><path class="cls-12" d="M228,192l-6.08-2.09c.9-2.24,2.83-4.88-1.92-4.88L220,185l6-4c.79.8,1.43,1.95,2.39,2.35,6.73,2.77,11-3.69,17.34-4.25L243,177l9-1.68v5.39l-9.08,5.7c.23-3.06-.9-4.15-3.75-2.48-2.23,1.32-4.38,2.76-6.8,4.3l3.7,2Z"/><path class="cls-8" d="M209,217l-5,2-3.92,0L192,218c-5.59-3.77-5.58-12,0-15l4.12,1,.91.91,4,5.12,2,0c0,.33,0,.65,0,1s0,.67,0,1l3,2Zm-18.57-8.77c.9,3,1.63,5.47,2.7,9.1C197.87,210,197.61,209.22,190.41,208.22Z"/><path class="cls-11" d="M197,204.87l-.91-.91-5.31-6,2.06-2.08,6.13-4.73,3-1.08L203,188,206,188l2.92,4.05-2.72,5.64L204,195.83l2,6.4L198.89,206Z"/><path class="cls-13" d="M228,192l8.07-1.8,1,.19c-4.75,3.14-7.34,9.49-14.18,9.55,1.3-1.69,2.66-3.33,3.85-5.09A15.45,15.45,0,0,0,228,192Z"/><path class="cls-18" d="M223.25,217.14l-.09,1.78-3.24,3.73c-4.16-2.06-2.62-6-2.53-9.3,0-.85,1.48-1.66,3-1.81-.51,1.39-1,2.78-1,2.83Z"/><path class="cls-11" d="M237.14,190.39l-1-.19-3.7-2c2.42-1.54,4.57-3,6.8-4.3,2.85-1.67,4-.58,3.75,2.48L241,188l-1.8,1.18-1,.57c-.25.14-.51.29-.76.45Z"/><path class="cls-18" d="M197,204.87l1.85,1.08c3.91-.33,2.4,2.17,2.12,4Z"/><path class="cls-16" d="M215,207.18l-2.35,4.23c-.23-2.46-.37-3.9-.51-5.33Z"/><path class="cls-13" d="M215,207.18l-2.86-1.1.18-1.22,3.84.24-.09,3.07Z"/><path class="cls-18" d="M206,214l-3-2Z"/><path class="cls-13" d="M239.19,189.17,241,188Z"/><path class="cls-16" d="M220.07,201.07l-1.59,1.46A6,6,0,0,1,218,202v-1l0,0,1.8-.11Z"/><path class="cls-18" d="M203,211c0-.33,0-.65,0-1a4.42,4.42,0,0,1,.39.7S203.13,210.9,203,211Z"/><path class="cls-13" d="M237.41,190.19c.25-.16.51-.31.76-.45A1.16,1.16,0,0,1,237.41,190.19Z"/><path class="cls-9" d="M103,29l3,1c0,.65,0,1.29,0,1.94.41,3,.81,6.07,1.22,9.1l1.57-.06L111,37l14.45-1.5.44,2.6L118.26,40c-3.75.66-8.26.25-8.43,6l-1.57,4.85-2,1.59-2.67-5.75L101,61q-4.5-5-9-10l-.41-.23L92,51l-4,9a20.78,20.78,0,0,1-1.51-4.64A27.32,27.32,0,0,1,87,50a41.82,41.82,0,0,1-.77-6.16,56.55,56.55,0,0,1,.92-10.5c.21-1,2.49-1.56,3.83-2.33,3.45,6.3,3.77,6.33,10.68.81l-4-2.53Z"/><path class="cls-24" d="M87,50a27.32,27.32,0,0,0-.51,5.36A20.78,20.78,0,0,0,88,60c4.06,2.21,8.06,4.65,13,3-.54,1.74-1.08,3.47-1.56,5L104,73H97c-.15-1-.18-2.81-.48-2.86A37.43,37.43,0,0,0,91,70c-.25-.89-.51-1.78-.77-2.67l-1.2.81L91,70l2,2-1,8H91l-2.58-3.73L84,81.11l-2.09-4-3.31-7a3.14,3.14,0,0,0-.61,0,2.17,2.17,0,0,0,.14-.91l.76-.92c0-.41.11-.81.16-1.21,2.45-.81,5.13-1.48,3-5C81.28,57,80.78,52.11,87,50Z"/><path class="cls-19" d="M103,29l-5.34.29,4,2.53C94.75,37.34,94.43,37.31,91,31c1-1.69,2.06-3.36,3-5.07.88-1.53,1.69-3.09,1.88-3.45L103,24Z"/><path class="cls-14" d="M84.11,28.7c-4.25-2.95-8.4-6.05-12.79-8.79C68.8,18.33,68.21,17.3,70,15.73l.49,0,.46-.16,2,.05h3.48L86.05,26Z"/><path class="cls-12" d="M78.1,69.15a2.17,2.17,0,0,1-.14.91L73.05,72c-4.25-3.68-4.25-3.68-6-.85l-3-4.11,4.29-2.93,1-.95A.93.93,0,0,0,70,63a2,2,0,0,1,.57.28L71,66l1.94.83-.14,0,1.55-.81h.51l3.18,2C78.05,68.45,78.08,68.8,78.1,69.15Z"/><path class="cls-14" d="M71,66l-.39-2.72c.75-1.73,1.44-3.48,2.26-5.18,1-2,2-4,3.06-6q-1.56,7.4-3.13,14.78l.14,0Z"/><path class="cls-14" d="M79,34l2.08-1.72c.68.55,2,1.4,1.93,1.59-1.58,3.51-3.34,6.93-5.07,10.38Q78.49,40.61,79,37Z"/><path class="cls-8" d="M75.92,52.1c-1,2-2.09,4-3.06,6-.82,1.7-1.51,3.45-2.26,5.18A2,2,0,0,0,70,63l4-14,1.86,0,.42,2.7h0A2.94,2.94,0,0,0,75.92,52.1Z"/><path class="cls-19" d="M75.88,49,74,49c0-4.67.63-9.12,5-12Q78.5,40.61,78,44.21Z"/><path class="cls-25" d="M82,62c2.15,3.54-.53,4.21-3,5C80,65.35,81,63.67,82,62Z"/><path class="cls-14" d="M76.28,51.68h0Z"/><path class="cls-16" d="M74.85,66.07h-.51l.18-.65Z"/><path class="cls-16" d="M78.1,69.15c0-.35,0-.7-.07-1.05a2.12,2.12,0,0,1,.83.12Z"/><path class="cls-24" d="M60.05,166,67,169c-.31,1.32-.63,2.65-1,4,0,.34,0,.68,0,1l3,2,8,3v1c-3.74,0-3.36,2.53-3,5l-2.36.13C70,183.53,68.48,181.49,66,184l1.85,3,.37,1.94-1.45,1-5.87-6.83,0,0-1.67-2L57,183a.83.83,0,0,0,0,.94L55,184l0,0c.34-2,.67-4,1-6Z"/><path class="cls-27" d="M60.91,183.08l5.87,6.83,1.45-1c.22,1,.45,2,.67,3l-.55,1.22v1.72l-.19,1.66.52.08.27-1.54,4.92,1.56c-1.36,1.81-2.49,3.63.13,5.35v3l-6-2c.32-.65.64-1.3,1-2l.14-1.92-6.1.74,1-2.68c.39-1.4,1.43-3,1.06-4.17C64,189.63,62.33,186.39,60.91,183.08Z"/><path class="cls-10" d="M69,201.07c-.33.65-.65,1.3-1,2-1,.95-2,1.83-2.85,2.86A34,34,0,0,0,63,209l-4,2c-3.09-.85-2.13-2.54-1-4.44A41.74,41.74,0,0,0,60,202l2.94-1Z"/><path class="cls-1" d="M60.91,183.08c1.42,3.31,3.06,6.55,4.14,10,.37,1.16-.67,2.77-1.06,4.17-1.65-2.7-3.41-5.35-4.92-8.12a42,42,0,0,1-2-5.11.83.83,0,0,1,0-.94l3.92.06Z"/><path class="cls-22" d="M69,201.07l-6,0c0-.38,0-.75.05-1.13l6.1-.74Z"/><path class="cls-7" d="M56.09,199.59l-3,1.59-.62-1,2.57-2.09Z"/><ellipse class="cls-7" cx="60.5" cy="198.5" rx="1.06" ry="0.29"/><path class="cls-7" d="M56.76,194.3h1.5v.39h-1.5Z"/><path class="cls-24" d="M55,184l-.24.42L55,184Z"/><path class="cls-28" d="M230,163.94a.87.87,0,0,0,.77.22l1.17.89c.05.31.09.61.12.92L217,176l-7-1-1.14-4.07,7.19-6.11,1.36-.59,1.49-.13,1.09,0,1-.33,5.85-.58,2.21.7.44.2Z"/><path class="cls-4" d="M227.93,158l-.94.91L222,161l-2.22-.27,6.5-7.24L220.23,152l-2.15-1.12,3-3,11.07,4.2c-.67,1.31-1.34,2.62-2,3.93Z"/><path class="cls-29" d="M230.14,156c.66-1.31,1.33-2.62,2-3.93l2.84-1,.93.19c4,2.36,8,4.69,12,7.11.48.29.69,1,1,1.54L240,159Z"/><path class="cls-30" d="M217,176,232,166l1.94,1.1V170l-1,1-1.95.09c-3.9-.6-6.9.31-9,4.12C221.33,176.4,219.38,180.76,217,176Z"/><path class="cls-13" d="M238,174c0,.56-.09,1.12-.13,1.68L226,179l-2-1h0c4.59-2.24,10.4-2.81,12.14-8.93Z"/><path class="cls-16" d="M236.15,169.08c-1.74,6.12-7.55,6.69-12.14,8.93a32.27,32.27,0,0,1,2.92-3.81,38.32,38.32,0,0,1,4.1-3.14L233,171l1-1v-2.91Z"/><path class="cls-17" d="M230.14,156l9.84,3c-2.49,2.54-5.09,2.54-8,.58a18.56,18.56,0,0,0-4-1.55Z"/><path class="cls-17" d="M222,161l5-2.11-.15,4.24-5.85.58Z"/><path class="cls-17" d="M231.91,165.05l-1.17-.89Z"/><path class="cls-17" d="M230,163.94l-.48.1-.44-.2Z"/><path class="cls-19" d="M240,94l7.07-4.53L248,91h0l-1,1h0c-1.18,2.71-3,5.34-3.41,8.16-.67,4.88-.43,9.89-.58,14.84v7l-4.24-3.24,1.52,1.1L234,124c-4.62,0-9.1-.22-12.63-4-.73-.76-2.38-.66-3.61-1L216,117.94l0-5.72.8-1.3,1.1-.73,1.11-1.2,1.95,1-1.35,4.56,1,1a67.25,67.25,0,0,0,5.19-4.3A35.84,35.84,0,0,0,229,107c0,1,0,2,0,3l1,0h3l-1.29,6.22c7-1.7,8.85-5.3,8.3-14.45L236,107l-1-11C237.05,96.3,239.68,98,240,94Z"/><path class="cls-10" d="M234,124l6.28-4.14-1.52-1.1L243,122l2,6-4,1-7-2.06C234,126,234,125,234,124Z"/><path class="cls-18" d="M241,129l4-1c1,1.26,1.81,3.44,3,3.64,3.93.66,3,3.2,2.79,5.61l-1.88-.87-.85-.55-5.82-5Z"/><path class="cls-18" d="M249,124c.16,1.51.33,3,.49,4.54l-1.58.27c-.3-1.94-.61-3.87-.91-5.81Z"/><path class="cls-18" d="M245,120l2-1,2,2-2,1Z"/><path class="cls-10" d="M247,122l2-1v3l-2-1C247,122.67,247,122.34,247,122Z"/><path class="cls-7" d="M243,115c.15-5-.09-10,.58-14.84.39-2.82,2.23-5.45,3.41-8.16,0,.33,0,.66,0,1-.34,4.81-.4,9.66-1.12,14.41C245.49,110,244,112.48,243,115Z"/><path class="cls-30" d="M226,179l11.87-3.32v4.06L243,177c.73.56,1.45,1.13,2.69,2.11-6.34.56-10.61,7-17.34,4.25-1-.4-1.6-1.55-2.39-2.35,0-.35,0-.71,0-1.07S226,179.33,226,179Z"/><path class="cls-8" d="M52,220c0,1,0,2,0,3.05l-1.79-1.77Z"/><path class="cls-30" d="M248.92,155.09c-2-1.37-3.83-3.13-6-4-1.77-.68-4-.24-6-.3l-3-1.74-1-1c.09-2.74.17-5.47.25-8.21l7.79,5.3,1.05-1.3c-1.42-4.86-5.27-7.81-9-10.94a76.21,76.21,0,0,1-5.87-6l6,1.2c1,1,2,1.92,2.95,2.95,3,3.34,5.91,6.71,8.86,10.07l.92,1c0,.32.06.65.1,1-.6,3.79.65,5.4,5,3.6C250.43,149.7,253.23,153.1,248.92,155.09Zm-11.42-8.44c-.49-.28-.79-.58-1-.52s-.34.44-.5.69Z"/><path class="cls-16" d="M246,143c0-.32-.08-.65-.1-1l-.92-1c-3-3.36-5.88-6.73-8.86-10.07-.92-1-2-2-2.95-2.95l.84-1.12,7,2.06,1.22,1.83a58.74,58.74,0,0,0,3.62,7.28c.91,1.36,2.67,2.17,5.28,4.17Z"/><path class="cls-10" d="M248,135.84l.85.55Z"/><path class="cls-29" d="M247,209l-3.83,1.55c1.35,2.18-.15,3.2-6.94,4.17.83-2.29-1.5-5.67,3.07-6.07l5.67-.49,2,.84Z"/><path class="cls-20" d="M247,209l-2-.84,1.87,0A3.18,3.18,0,0,1,247,209Z"/><path class="cls-12" d="M234,149.07l3,1.74-1,.38L235,151C234.65,150.35,234.31,149.71,234,149.07Z"/><path class="cls-9" d="M79,217c3.17-5.3-2-7.58-4-11l5-1,5.61-3.92c-.3,3.38-.46,5.15-.61,6.92q.5,2.5,1,5,0,4.5,0,9l-4.95.77,0,1.21,4,2.07-7.53.6Z"/><path class="cls-22" d="M85,226.06l-4-2.07,0-1.21L86,222l10,0,5-.92,5.13,2L98,227l-10,0H87Z"/><path class="cls-9" d="M72,235.05l-3-1c-.62-1.34-1.23-2.69-2.49-5.42L75,230.41l.11,1.76Zm-.25-2.88a1.16,1.16,0,0,0-.14-.42s-.24.06-.36.1a1.39,1.39,0,0,0,.14.42S71.62,232.21,71.74,232.17Z"/><path class="cls-24" d="M102,232c0,.32,0,.63,0,.95l-3,2-6,2c.44-4.86,5.88-4,8-7Z"/><path class="cls-9" d="M87,227h0Z"/><path class="cls-22" d="M200.07,219.07l3.92,0c.3,0,.61,0,.91,0l2.06,2h0c0,2,0,4,0,6-7.08,1-14.13,2.43-21.25,2.89a184.83,184.83,0,0,1-22.94,0c-3.65-.22-7.21-1.87-10.81-2.87l-23-3c.32-1.31.64-2.63,1-3.94h9l7,.88,9,2.06,2,0,2,0,2-.06,5-.07c4.66,1.57,9.31,4.1,14,.16C186.91,222.88,194.4,225.59,200.07,219.07Z"/><path class="cls-8" d="M207,227c0-2,0-4,0-6l4.9,4.09Z"/><path class="cls-8" d="M207,221l-2.06-2Z"/><path class="cls-22" d="M59.07,211.05l4-2,2-.08,2,.07c1.5,2.36,1,4-1.76,4.75-2,.53-4.06.85-6.46,1.34Z"/><path class="cls-8" d="M80,205l-5,1-1-1v-1h1Z"/><path class="cls-10" d="M67,209,65,209c.26-.51.52-1,.79-1.53Z"/><path class="cls-9" d="M130,220c-.33,1.31-.65,2.63-1,3.94H114.19C114.88,222,116,219,117,216h2l10,4Z"/><path class="cls-10" d="M119,216h-2c-4.91-.26-8.06,1.51-8,6.94l-.9,0h-1.21a4.78,4.78,0,0,0-.76,0L101,221c.33-2,.65-4,1-6l2-1h0c1.61,3.18,3.28,3.1,5,.11l10,.87Z"/><path class="cls-22" d="M106.88,223h0Z"/><path class="cls-8" d="M170,20c0,.66,0,1.33,0,2l0,8a2.1,2.1,0,0,0-.21.92l2.9,1.94,1-2a2,2,0,0,0-.22-.93.73.73,0,0,0,0-.63l0,0,5.74-2.21,3-4h.72c.06,2.27.11,4.54.18,6.81.09,3,1.44,3.72,4,2.14l4,3-4.87,4.14L192,40h3l1.3.37L195,40l4-5h2l4.09-3.28L207,33l3,2c-.66,1.66-1.33,3.33-2,5,0,.32,0,.65,0,1l-1.16.1c-2.73-.12-4.74.65-4.82,3.84L203.6,47v9.07l-.62,1-.36,1.63L194,58l-3-3V51c2,0,4,0,6.37-.15a4.3,4.3,0,0,1-.77.45l1.73,2.32,1.31-1.31a8,8,0,0,0-2.27-1.46c-.92-4.36-5.25-6-10.44-3.67-.3-.11-.61-.22-.92-.31-.3-1.09-.59-2.18-.89-3.27l1.69-.3c-.5-.74-.94-2.08-1.5-2.13-2.41-.23-4.86-.09-7.29-.09l-2-.36c-.11-2.7,1.34-2.75,3.55-2.5,1.62.18,3.35-.57,6.13-1.13l-7.31-4.75L169.65,37l4.3,3.88c.39,5.93.78,11.86,1.19,18.07H186l0,2-12,0h-6l-6,0c0-.55,0-1.1,0-1.65l4-.35c5.21,1.88,6.06,1.38,5.39-2.81l-5.27.79V40.39L160.88,42,157,39l2-7,2.53-.73,5.33,2.53c0-5.67,0-10.1,0-14.52,0-1.87-.17-4,2.89-2.87a1,1,0,0,0,.22.6C170,18,170,19,170,20Zm22.36,23.72-.63-1.07a4.31,4.31,0,0,0-1.58-.41c-.31,0-.87.81-.8.92.31.48.78,1.1,1.25,1.16S191.77,43.94,192.36,43.72Zm6.22,0-.83-.36c-.12.28-.39.62-.31.82s.51.26.78.38Zm5.09-4.16-.45-1.13-1.46,1.13Z"/><path class="cls-24" d="M215,58.91,220,64l1,2,1,4-3.59-.57-.85,1.1L222,75,226,84,223,82A25,25,0,0,0,208,71.92L207,70c0-2,0-4,0-6l1-4.87-.49-4.6Z"/><path class="cls-7" d="M208,40c.67-1.66,1.34-3.33,2-5l0-1.7,1-.36,5,1,1.24,2.6L223,33.07,224,31h0l2.19,1.26.8.72,7.08,1.84c-4.32,2.86-7.52,6.76-13.26,4.45-.9-.37-2.51,1-3.8,1.62l-.83,2-4.67-4Z"/><path class="cls-23" d="M215,58.91l-7.5-4.37c.15,1.38.32,3,.49,4.6h-2a1.35,1.35,0,0,0-1,0l-2.39-.37.36-1.63.62-1V47L202,44.92c.08-3.19,2.09-4,4.82-3.84q.3,5.81.61,11.62l1.56-.05V44.06h3.69c-1.73,6.44-.86,11.74,6.79,14.85Z"/><path class="cls-25" d="M221,66l-1-2,6.37-3.68.89,1c-.56,1.37-1.11,2.75-2,4.9L239,65c1.25,4.49-3.44,4-5.23,5.86s-5.15,2.69-1.92,7.21l-2.21-.4a19.21,19.21,0,0,0-1.72-4.31c-.53-.76-1.91-.93-2.9-1.36l0,0C223.74,69.94,225.41,66,221,66Z"/><path class="cls-23" d="M216.18,42.92l.83-2c3.84,1.2,7.84,2,9.88,6.25s-1,11-6.17,11.35l2.1-2.26,1-4.29-.67-3.51C222.54,44.44,219.39,43.64,216.18,42.92Z"/><path class="cls-10" d="M236,59l4.38-1.56-1-.37a50.62,50.62,0,0,1,3.42-6.78c.19-.29,3.88,1,3.86,1.45-.1,1.78-1,3.51-1.65,5.26-1,.55-2.78,1.25-2.72,1.62.56,3.27-1.79,2.16-3.25,2.37h-5Z"/><path class="cls-9" d="M223.84,51.94l-1,4.29c-8.68-.8-8.55-4-7.75-8.65.11-.6.91-1.07,2-2.27.28,2,.45,3.09.68,4.71H223Z"/><path class="cls-23" d="M227.3,43.55c2.51-2.3,5.42-3.95,7.73-.9,2,2.61,2,6-2,9.19C234.24,46.25,232.52,43.58,227.3,43.55Z"/><path class="cls-24" d="M209,44.06v8.59l-1.56.05q-.3-5.81-.61-11.62L208,41C208.34,42,208.68,43,209,44.06Z"/><path class="cls-25" d="M234,61c-1.14,3.4-1.14,3.4-4,1.23L234,61Z"/><path class="cls-8" d="M237,61h0Z"/><path class="cls-8" d="M223.84,51.94,223,50l.18-1.58C223.39,49.6,223.62,50.77,223.84,51.94Z"/><path class="cls-8" d="M118.26,40l7.64-1.91-.44-2.6L111,37c-.36-1.65-.73-3.29-1.09-4.93l1.57-.22.28,0L112,32c2,3.28,4.23,3.9,7,.87a3.31,3.31,0,0,1,.31-.66L121,32l4.65.57h9.69l.16-.86-4.26-1.25V16.55c5-.21,8.86,5.25,7.45,15.8l4.35.55L129,36.51v4.2L122.15,42,121,43h-1l-1-1Z"/><path class="cls-9" d="M129,40.71v-4.2L143,32.9c.05-1.3.09-2.59.13-3.89l5.36,2.37,2.85,1.45L152.1,31l6.9,1c-.67,2.32-1.35,4.65-2,7L150,40.89l-4.51,0h-6.7V46l-1.37.23C136.56,41.42,132.45,41.55,129,40.71Z"/><path class="cls-10" d="M159,32l-6.9-1V21.66l.84-.79c1.2,2.11,2.39,4.23,4,7.06,2.47-3.52,3.76-5.34,5-7.16l1.36.3q-.9,5.1-1.81,10.19Z"/><path class="cls-10" d="M148.53,31.38,143.17,29c-.69-4.92.16-9.16,5.5-11.72C150,22.08,152.08,26.68,148.53,31.38Z"/><path class="cls-23" d="M121,32l-1.72.16-1.25-.9c5.12-5,5.12-10,0-15.41v-1.5l8,6.53c-.3,1.75-.6,3.49-.91,5.24Z"/><path class="cls-19" d="M121,32l4.07-5.88c4.44,1.77,0,4.34.58,6.45Z"/><path class="cls-6" d="M118,31.28l1.25.9a3.31,3.31,0,0,0-.31.66L112,32l-.23-.16-.28,0-4.33-5.15c-.33-8.86,3.4-13.09,10.87-12.33,0,.5,0,1,0,1.5-4.93.53-7.25,3.48-6.82,8.68C111.58,29.15,114,31.55,118,31.28Z"/><path class="cls-19" d="M107.16,26.7l4.33,5.15c-.52.07-1,.15-1.57.21L106,32c0-.65,0-1.29,0-1.94Z"/><path class="cls-23" d="M224,22.22c0,.26,0,.52,0,.79-5.42,2-3.09,5.56-1.76,8.92l-.31,1-4.11-.35V15.05l3.23-.4.44.11.43-.16,1.26.38c-.06.32-.14.65-.23,1C220.72,18.46,219.58,20.78,224,22.22Z"/><path class="cls-19" d="M217.83,32.62l4.11.35,1,.1-5.74,3.53L216,34Z"/><path class="cls-8" d="M213,26l1.66-4.37,1.72.58Q215.2,24.61,214,27Z"/><path class="cls-19" d="M213,26l1,1-3,1.73-.79-1.52Z"/><path class="cls-19" d="M223,16c.09-.32.17-.65.23-1h3.35c.14,1,.29,2,.43,3Z"/><path class="cls-8" d="M215,18l.75,1.05L215,18Z"/><path class="cls-19" d="M206.54,21.86c.14-.33.27-.66.41-1C206.81,21.19,206.68,21.53,206.54,21.86Z"/><path class="cls-19" d="M221.93,14.6l-.43.16-.44-.11Z"/><path class="cls-25" d="M240,94c-.32,4-2.95,2.3-5,2-1.38-2.55-3.19-3.81-6-2L227,84h3c2.65.28,6.75-2.85,7,3l-6.54,1.53L229.91,90l7.87,3,.22-1Z"/><path class="cls-19" d="M238,92l-.22,1-7.87-3,.55-1.45L237,87l1,1C238,89.34,238,90.67,238,92Z"/><path class="cls-25" d="M222,75l-4.47-4.48.85-1.1L222,70l3,2,0,0c0,1.66,0,3.32,0,5Z"/><path class="cls-10" d="M222,75l3,2c1.46,2.47,5.92,2.82,5,7h-3L226,84Z"/><path class="cls-25" d="M241,78c0,1.33,0,2.66,0,4l-5.67-.25L239,79c.33-.34.67-.67,1-1h1Z"/><path class="cls-9" d="M240,78c-.34.33-.68.66-1,1C239.32,78.66,239.66,78.33,240,78Z"/><path class="cls-9" d="M192,40l-5.87-.87L191,35h3Z"/><path class="cls-7" d="M192,40l2-5h5l-4,5h-3Z"/><path class="cls-7" d="M205.09,31.72,201,35l3.11-4.17Z"/><path class="cls-7" d="M200.17,23h1.73l1,6h-1.7Z"/><path class="cls-7" d="M197.33,32.54l-.3.21-.25-.46c.13,0,.27-.09.37,0S197.27,32.44,197.33,32.54Z"/><path class="cls-19" d="M243,30.84c-1-.77-3-1.63-2.94-2.28.18-1.75-2.05-4.88,2.06-5.07C242.4,25.94,242.7,28.39,243,30.84Z"/><path class="cls-8" d="M243,30.84c-.29-2.45-.59-4.9-.88-7.35L247,24c-3.25,1.71-2.43,3.88-.69,6.15Z"/><path class="cls-8" d="M240,21l4.93-2,1.13,2.41Z"/><path class="cls-8" d="M241,16.32l-.89.67Z"/><path class="cls-8" d="M245.32,16.88l-1.21-.38Z"/><path class="cls-8" d="M246.38,85.27c.13-.28.19-.71.39-.79s.53.2.81.32c-.12.28-.18.71-.38.79S246.66,85.39,246.38,85.27Z"/><path class="cls-6" d="M179.1,27.07l-5.74,2.21c-.09-.81-.18-1.64-.28-2.46l4.77-2.12Z"/><path class="cls-4" d="M180.8,18l-1.2-1.93,2.64-.2c0,1.35-.07,2.7-.11,4.06l-1-1.35A.57.57,0,0,0,180.8,18Z"/><path class="cls-6" d="M182.84,23.05h-.72c.55-.67,1.09-1.35,1.64-2l.86.88Z"/><path class="cls-6" d="M178.15,24a1.17,1.17,0,0,1,.32-.93C178.37,23.38,178.26,23.69,178.15,24Z"/><path class="cls-4" d="M182,14.86a.68.68,0,0,1,.68-.48A.84.84,0,0,1,182,14.86Z"/><path class="cls-6" d="M181.14,18.61l1,1.35Z"/><path class="cls-7" d="M222.25,31.93C220.92,28.57,218.59,25,224,23c4.73.77,5.36,2.45,3,8.17l-1.46-2L224,31h0Zm3.36-4.65a1.36,1.36,0,0,0,.13-.42c0-.05-.23-.09-.35-.13a1.36,1.36,0,0,0-.13.42C225.26,27.2,225.49,27.24,225.61,27.28Z"/><path class="cls-24" d="M223,16l4,2,1,3.74-4,.49C219.58,20.78,220.72,18.46,223,16Z"/><path class="cls-24" d="M224,31l1.59-1.85,1.46,2-.86,1.08Z"/><path class="cls-10" d="M210,33.32l0,1.7-3-2Z"/><path class="cls-6" d="M173.62,30.87l-1,2-2.9-1.94Z"/><path class="cls-6" d="M170,30l0-8Z"/><path class="cls-6" d="M170,20c0-1,0-2,0-3C170,18,170,19,170,20Z"/><path class="cls-6" d="M173.39,29.31a.73.73,0,0,1,0,.63l-.75-.37Z"/><path class="cls-10" d="M247,92l1-1Z"/><path class="cls-25" d="M79,37c-4.37,2.87-5,7.32-5,12L70,63a.93.93,0,0,1-.71.15C68.54,61.77,67.77,60.38,67,59l4.42-16.58L66,45l1.78-3.65c-1.9-4-9.13-2.14-8.82-8.34l1.34.1c1.15.53,2.31,1.53,3.45,1.52,5.1-.07,10.19-.42,15.29-.68L79,34C79,35,79,36,79,37Z"/><path class="cls-27" d="M64,48l2.65,1.42c-1.05,1.84-1.83,3.92-3.25,5.4-.71.74-2.56.4-4,.56C61.22,52.45,62.62,50.22,64,48Z"/><path class="cls-8" d="M67,59c.77,1.38,1.54,2.77,2.32,4.15l-1,.95-3.27-1.94Z"/><path class="cls-26" d="M63,149h6c3.56.12,3.85-2.37,4-5l4,1,3,3v6l-6,1c0-2.26-.73-2.6-3.18-2.68C68.2,152.21,64,153.79,63,149Z"/><path class="cls-10" d="M74,155l6-1,3,.08c0,.65,0,1.3,0,2l1,5H80l-3.41-2.27a23.55,23.55,0,0,1-1.36,3.54A19.72,19.72,0,0,1,73,165h0c-.72-1.29-1.37-2.63-2.18-3.86s-1.83-2.37-2.75-3.55c1.33-.86,2.63-1.8,4-2.54C72.61,154.77,73.38,155,74,155Z"/><path class="cls-10" d="M66,173c.31-1.32.63-2.65.94-4,1.09-2.73,2.49-5,6-4h0l4,9-10-1Z"/><path class="cls-22" d="M73,144c-.13,2.61-.42,5.1-4,5l-4-9.95,6,3Z"/><path class="cls-7" d="M71,142l-6-3L63,135l1-1,4,2,3,3Z"/><path class="cls-14" d="M79.07,34c-5.1.26-10.19.61-15.29.68-1.14,0-2.3-1-3.45-1.52L62,32.06l2-2,9.77-4.49Z"/><path class="cls-9" d="M60,12v8.05c-1.38-2.79-2.2-4.43-3-6.08Z"/><path class="cls-9" d="M64,15c-.33-1-.67-2-1-3l2.8,1.24Z"/><path class="cls-9" d="M71,15.59l-.46.16-.49,0Z"/><path class="cls-10" d="M68,136l-4-2-5.08-13.17c-.18-.46-.65-1-.53-1.35,1.9-5.07-.19-9.72-1.4-14.47l1-3,3,3,3,4a67.08,67.08,0,0,0,3,7.63A37.88,37.88,0,0,0,71,122l1,2,2,6L61.72,117.25c.46,3.4.38,5.43,1.06,7.16C64.33,128.36,66.26,132.16,68,136Z"/><path class="cls-26" d="M72,124l-1-2h8.5c-.48-.71-1.21-2.93-2.73-3.79C72.54,115.8,70,112.32,68.06,108c-.5-1.13-1.82-1.9-2.76-2.83-.44,1.28-.88,2.56-1.31,3.85l-3-4c1.95-4.15,5.72-2.8,9-3,.41,1.59.81,3.18,1.22,4.77,3-9.48,3-9.48,9.18-6.37L83,97l1,0L86,98,89,103l-2.59,2.3L89,109l-4-.78V129l-1,1c-3.69,1-6.38.14-8.14-3.64C75.33,125.23,73.31,124.78,72,124Zm9.87-15.63.71-1.72-6.91-3.35L75,104.71Z"/><path class="cls-9" d="M83,97l-2.65,3.45c-6.15-3.11-6.15-3.11-9.18,6.37-.41-1.59-.81-3.18-1.22-4.77a17.11,17.11,0,0,1-.75-2.85c-.46-5.13,1.58-6.7,6.5-4.8.1-.85.19-1.64.28-2.43l4-2,1.07-.22a.32.32,0,0,1-.2.47C81.62,92.47,82.32,94.73,83,97Z"/><path class="cls-4" d="M80,90l-4,2-8.44-2.24L68,88.05h1l3.92-.2L75,88l4.06.83Z"/><path class="cls-14" d="M68,88.05l-.42,1.66-1.45-4.66.94-.31Z"/><path class="cls-15" d="M79.05,88.81,75,88c0-.42-.06-.83-.08-1.25,0-.64.4-1.48.12-1.88-1.83-2.6-3.8-5.1-5.73-7.63l4.62,1.63V74.16c1.93,3.38,3.8,6.8,5.82,10.12.44.73,1.44,1.12,2.19,1.66l1,1,1.39,2.22-3.39,1a.32.32,0,0,0,.2-.47Z"/><path class="cls-29" d="M73.92,74.16v4.69L69.3,77.22q-1.14-3-2.27-6.08c1.77-2.83,1.77-2.83,6,.85Z"/><path class="cls-11" d="M72.94,87.86l-3.92.2c0-.49-.06-1-.08-1.47l1.69-2.13L74,86.19Z"/><path class="cls-22" d="M68.94,86.59c0,.49,0,1,.08,1.47H68l-.93-3.31Z"/><path class="cls-13" d="M72.94,87.86l1-1.67,1,.54c0,.42,0,.83.08,1.25Z"/><path class="cls-11" d="M226,180c0,.36,0,.72,0,1.07l-6,4-.21.46L220,185c4.75,0,2.82,2.64,1.92,4.88l-2.83-1L211,184l-2.18-2.82c2.41-1.47,4.69-2.66,7.39-.24.74.66,2.53.13,3.84.14l2-1h0Z"/><path class="cls-12" d="M211,184l8.13,4.94L208.92,192,206,188l1-3,1.76-1.08Z"/><path class="cls-30" d="M219.15,193.9l-2.57-.84.31-.93,2.56.88Z"/><path class="cls-11" d="M218,201v1l-3.08,0a6.17,6.17,0,0,0,0-1Z"/><path class="cls-12" d="M219.84,200.85,218,201l.89-1.54Z"/><path class="cls-12" d="M215,201a6.17,6.17,0,0,1,0,1,4.53,4.53,0,0,1-.32-.71S214.83,201.1,215,201Z"/><path class="cls-9" d="M192,203c-5.6,3-5.61,11.23,0,15,.38,4.06-2.63,1.41-4,2l-4.83-1.56,2.07-2.83c-.87-3-1.47-5.12-2.17-7.54L179,210c-.64-4,1.19-6.61,4.81-7.87A38.31,38.31,0,0,1,190,201Z"/><path class="cls-10" d="M188,220c1.36-.61,4.37,2,4-2l8.08,1.07c-5.67,6.52-13.16,3.81-20.08,4Z"/><path class="cls-22" d="M190.41,208.22c7.2,1,7.46,1.78,2.7,9.1C192,213.69,191.31,211.22,190.41,208.22Z"/><path class="cls-18" d="M192,203l-2-2,.81-3,5.31,6Z"/><path class="cls-8" d="M190.82,198l-.81,3a38.31,38.31,0,0,0-6.2,1.13c-3.62,1.26-5.45,3.88-4.81,7.87h0l-1,0L167,207l1-2.05c3.89,1.23,6.56-.07,8-3.87q.8-8.48,1.57-16.94l5.24,3.65c-.35-1.91-.63-3.4-.9-4.89a48,48,0,0,1-1.74-5.54,38.39,38.39,0,0,1-.34-5.38l3.06,1.89c.36,1.44.71,2.88,1.06,4.32-1.21,3.14-1.36,6,2.22,7.72l1.68,4.2,5,5.78Zm-10.52-8.23c-3.43,6.53-2.65,7.87,4.57,9.19Z"/><path class="cls-13" d="M192.88,195.92l-5-5.78c1.5-.72,3.06-1.36,4.5-2.19,1.66-.94,3.22-2.06,4.82-3.11a1.59,1.59,0,0,1,.77.15l5,3-.93,2.08-3,1.08Z"/><path class="cls-16" d="M203,188l-5-3,9,0-1,3Z"/><path class="cls-16" d="M199,191.19l3-1.08Z"/><path class="cls-26" d="M104,73l-4.56-5c.48-1.52,1-3.25,1.56-5,0-.66,0-1.33,0-2l2.58-14.34,2.67,5.75,2-1.59c.52-1.61,1-3.23,1.57-4.85,2.09,2,4.08,4.19,6.3,6.07s3.56,3.49.88,5.91l0,.15-4.72,3L115,64v5l-2.48,3.17-.8-5.68c-2.14,2.94-3.43,4.72-4.72,6.51Z"/><path class="cls-22" d="M101,61c0,.66,0,1.33,0,2-4.94,1.65-8.94-.79-13-3q2-4.5,4-9h0Z"/><path class="cls-23" d="M117,58c2.68-2.42,1.28-4.1-.88-5.91s-4.21-4-6.3-6.07c.17-5.72,4.68-5.31,8.43-6,.25.66.49,1.32.73,2l-5.09,1.88c1.12,1.43,2.16,2.94,3.39,4.27.76.83,2.15,1.21,2.64,2.13.86,1.58,2.06,3.72,1.57,5.08S118.59,57.11,117,58Z"/><path class="cls-26" d="M106,32l3.89.1c.36,1.65.73,3.29,1.09,4.94l-2.19,4-1.57.06C106.84,38,106.44,35,106,32Z"/><path class="cls-22" d="M92,51l-.41-.23L92,51Z"/><path class="cls-7" d="M104,73h3l7,5,5.88,2.85,3.35-3.56.52,4.84c2.49,0,5-.61,7.06.12,5.29,1.9,9-1.36,13.19-3.24-.42,3.29-.85,6.59-1.23,9.59L133,86c-8.19-3-10.34-2.49-15.53,3.93-3.77-1-8.17-4.61-10.47,2.06l-8.47-6.78L92,80c.33-2.66.67-5.33,1-8l4,1Z"/><path class="cls-27" d="M92,80l6.53,5.22L107,92l2,3.09-7-2-9.06-4L88,85.6,86.82,84l-1.9-1.22-1-1.63,4.45-4.84c.83,1.21,1.7,2.47,2.58,3.73Z"/><path class="cls-16" d="M84,81.11l1,1.63-3,3.2c-.75-.54-1.75-.93-2.19-1.66-2-3.32-3.89-6.74-5.82-10.12L73.05,72,78,70.06a3.14,3.14,0,0,1,.61,0l3.31,7Z"/><path class="cls-27" d="M97,73l-4-1-2-2h0a37.43,37.43,0,0,1,5.51.14C96.81,70.19,96.84,72,97,73Z"/><path class="cls-7" d="M81.88,77.08l-3.31-7Z"/><path class="cls-27" d="M91,70l-2-1.86,1.2-.81c.26.89.52,1.78.77,2.67Z"/><path class="cls-7" d="M92,80h0Z"/><path class="cls-16" d="M71,66l1.94.83Z"/><path class="cls-26" d="M67,173l10,1h3l5-1c-.17,6.45,4.74,2.76,6.61,2.63,8.07-.59,15.89-.95,23.44,2.93,1.62.83,4.17,0,6.26-.3a41.63,41.63,0,0,0,4.73-1.23L124,181l-3.87,2.42a.31.31,0,0,1,.09.53L113,185h-2.63c-.15-.63-.3-1.27-.44-1.9-2.4-2.92-8-3.05-11-.26l-5.26.24c3.69,2,4.55,9.94,2.26,16l-.9-2L86,183.82l-1.68-1.6-4,1.08L77,180v-1c.44-.82.89-1.63,1.64-3H69l-3-2Zm28.78,8.32v.36h1.48v-.36Z"/><path class="cls-14" d="M73.87,196.65,69,195.09a.37.37,0,0,0-.6-.2v-1.72c.18-.41.37-.81.55-1.22-.22-1-.45-2-.67-3-.12-.65-.25-1.29-.37-1.94L66,184c2.47-2.47,4-.43,5.62,1.17L76,193.06l-.9,3.2Z"/><path class="cls-25" d="M76,193.06l-4.32-7.93L74,185l6-1.44L78.1,190,76,192.93Z"/><path class="cls-22" d="M69,176h9.65c-.75,1.38-1.2,2.19-1.64,3Z"/><path class="cls-22" d="M80,183.56,74,185c-.35-2.48-.73-5,3-5,1.09,1.11,2.19,2.21,3.28,3.31l-.35.07Z"/><path class="cls-27" d="M60.94,183.1,57,183l2.25-1.95Z"/><path class="cls-27" d="M66,184l1.85,3Z"/><path class="cls-7" d="M67,173l-1,1c0-.33,0-.67,0-1Z"/><path class="cls-7" d="M73.87,196.65l1.18-.39c-.28,3.61.9,5.53,4.87,4.21l.39.11,6.9.49.23-1.41-3.28-.7q.38-7.58.74-15.16c.07.47.13.95.2,1.42a53.81,53.81,0,0,0,2.57,5.55c1.25,2.08,3.71,3.86,4,6,.37,2.89,2.06,1.9,3.42,2.24l5.72,2c0-4.72.17-8.45-.06-12.14-.16-2.61.39-4.37,3.18-4.88,5,1.54,1.61,5.33,2.19,8.05l-4.33,1.84.6,1,3.7-.89-.58,5.86h4.27l.4-4.85,4.76,3.05,4.08-3-8.78-3,.17-7H112c.24.87.47,1.75.7,2.62l.93-.21L113,185l7.22-1.1c.16,1.9.38,3.8.46,5.71.15,3.73.22,7.47.32,11.2q-.43,2.9-.88,5.79l2.24.27.62-6,2.88-.09L131,205h-1c-4,.95-.51,3.37-1,5h-2l-3,0-13-1L109,211l0,0-5-1-1.88-2.85-.93.67L102,210l-3.38.49c.56,1.82,1,3.16,1.39,4.51l-6,1c-1.49-2-6.08,2.15-6-3,.22-.64.81-1.63.6-1.86A40.07,40.07,0,0,0,85,208c.15-1.77.31-3.54.61-6.92L80,205l-5-1-1-2C71.38,200.28,72.51,198.46,73.87,196.65Zm30.77,6.1c-.28-.12-.62-.39-.82-.31s-.26.51-.38.78c.28.12.62.39.82.31S104.52,203,104.64,202.75Zm9.87.91c-.49-.29-.8-.6-1-.53s-.34.45-.5.7Z"/><path class="cls-23" d="M68.35,194.89a.37.37,0,0,1,.6.2l-.27,1.54-.52-.08Z"/><path class="cls-22" d="M74,202l1,2H74Z"/><path class="cls-23" d="M68.9,192c-.18.41-.37.81-.55,1.22C68.53,192.76,68.72,192.36,68.9,192Z"/><path class="cls-5" d="M222,161l-1,2.71-1,.33-1.09,0-1.49.13-1.36.59-7.19,6.11-2.4.29-1.3,1.1-.38.21-.33-.28c-.26-.58-.52-1.17-.77-1.75.54-1.46,1.09-2.91,1.63-4.37L220.23,152l6.07,1.51-6.5,7.24Z"/><path class="cls-12" d="M220,181c-1.31,0-3.1.52-3.84-.14-2.7-2.42-5-1.23-7.38.23L208,182l-1-1v-.92c-.11-1.26-.21-2.52-.39-4.54L210,175l7,1c2.41,4.79,4.36.43,5-.79,2.12-3.81,5.12-4.72,9-4.12a38.32,38.32,0,0,0-4.1,3.14A32.27,32.27,0,0,0,224,178h0l-2,2h0Z"/><path class="cls-11" d="M210,175l-3.36.52c.18,2,.28,3.28.39,4.54l-1,.83-7.71-1.15L201,177l3.32-4.76h.12l.33.28.38-.21,1.3-1.1,2.4-.29Z"/><path class="cls-17" d="M218.88,164.1l1.09,0Z"/><path class="cls-17" d="M216,164.82l1.36-.59Z"/><path class="cls-15" d="M220.23,152l-14.94,14.14c-2,1.49-4,3-6.1,4.46-1.39,1-2.89,1.75-4.35,2.62L193.75,171l1.16-2.06,3-5,2.15,2.84,1.56.06q1.15-4.9,2.32-9.81h0l8.14,1.48c-.37-3.76-.72-7.18-1.06-10.6l7,3Z"/><path class="cls-16" d="M234,149.07c.33.64.67,1.28,1,1.93l-2.84,1-11.07-4.2c-2.78-6.26-8.94-5.52-14.12-6.81L203,138c-1-3-4.27-6,0-9l2.13,4.06c2,4.18,5.65,5.62,9.88,6.16l3.72,2.12,3.79,3.12,2.4,2.51,8,1.11Z"/><path class="cls-13" d="M207,141c5.18,1.29,11.34.55,14.12,6.81l-3,3-7-3-1-1Z"/><path class="cls-12" d="M234,170l-1,1Z"/><path class="cls-16" d="M222,180l2-2,2,1c0,.31,0,.62,0,.93Z"/><path class="cls-3" d="M219.05,109l-1.11,1.2c-.37.24-.74.48-1.1.73l-.8,1.3-1,.07-.91-.52-7-6.8-6.28-5.17c0-.17-.17-1.33-.32-2.5l-2.62-2.16-1.73-2.31-.87-4.8a37.62,37.62,0,0,1-2-4.45c-.93-3-2.78-4.27-5.89-3.56l2-1.83a.65.65,0,0,0,.67-.37l2.06-1.76,0,0a5.91,5.91,0,0,0,.94-.25l3.82-1.14c2.59,5.45,8.43,4.46,12.77,6.44l.25.41,2,6.44.2,1.87L213,91c.29,1,.57,2,.86,3l.23.93-.06-.06.85,2.09a1.73,1.73,0,0,1,.13.87l.81,1.12,1.13,1.1c.72,1.59,1.44,3.17,2.17,4.76,0,1.06,0,2.11.07,3.17Z"/><path class="cls-26" d="M229,94c2.83-1.81,4.64-.55,6,2l1,11-3,3h-3l-1,0c0-1,0-2,0-3L227,104c.34-1.67.67-3.33,1-5Z"/><path class="cls-25" d="M233,110l3-3,4-5.22c.55,9.15-1.34,12.75-8.3,14.45Z"/><path class="cls-25" d="M227,104l2.06,3a35.84,35.84,0,0,1-3.2,4.28,67.25,67.25,0,0,1-5.19,4.3l-1-1L221,110v-2h0l1.06-1,.95-1Z"/><path class="cls-13" d="M216,117.94l1.77,1.16,3.36,4.7-6.27.32L213.05,123l.09-.11c-.38-1.93-.77-3.86-1.15-5.79l1.73-3.68Z"/><path class="cls-5" d="M221.13,123.8l-3.36-4.7c1.22.29,2.87.19,3.6,1,3.53,3.73,8,4,12.63,4,0,1,0,2,0,2.94l-.84,1.12-6-1.2v0Z"/><path class="cls-5" d="M216,117.94l-2.28-4.57L214,113l1-.7,1-.07C216,114.13,216,116,216,117.94Z"/><path class="cls-5" d="M221,108v2l-1.95-1c.06-.33.11-.66.17-1Z"/><path class="cls-25" d="M229,110l1,0Z"/><path class="cls-5" d="M216.84,110.92c.36-.25.73-.49,1.1-.73C217.57,110.43,217.2,110.67,216.84,110.92Z"/><path class="cls-20" d="M227.12,126.86a76.21,76.21,0,0,0,5.87,6c3.76,3.13,7.61,6.08,9,10.94l-1.05,1.3-7.79-5.3a5.93,5.93,0,0,0-2-.13A26.28,26.28,0,0,0,228,141c-.68-1.32-1.35-2.65-2-4q-1.48-5-3-10l4.12-.09Z"/><path class="cls-12" d="M228,141a26.28,26.28,0,0,1,3.18-1.26,5.93,5.93,0,0,1,2,.13c-.08,2.74-.16,5.47-.25,8.21l-8-1.11-.81-2.95Z"/><path class="cls-12" d="M237.5,146.65l-1.46.17c.16-.25.28-.62.5-.69S237,146.37,237.5,146.65Z"/><path class="cls-12" d="M245,141.08l.92,1Z"/><path class="cls-10" d="M88,213c-.07,5.15,4.52,1,6,3,.65,2,1.31,4,2,6l-10,0q0-4.5,0-9Z"/><path class="cls-25" d="M88,213H86q-.51-2.5-1-5a40.07,40.07,0,0,1,3.6,3.14C88.81,211.37,88.22,212.36,88,213Z"/><path class="cls-25" d="M96,222c-.65-2-1.31-4-2-6l6-1h2c-.33,2-.65,4-1,6Z"/><path class="cls-10" d="M71.74,232.17c-.12,0-.33.13-.36.1a1.39,1.39,0,0,1-.14-.42c.12,0,.33-.14.36-.1A1.16,1.16,0,0,1,71.74,232.17Z"/><path class="cls-7" d="M130,220l-1,0-3-5,1-1,5,0,4.7-1.26-.45-1.56L133,211l-2-.95q2-3.52,4-7.05c.35-.69.69-1.38,1-2.07l8-.89c-1.9,2.34-1.74,4.66,0,7q-.48,0-1,0c-2.32-1-4.93-2.69-5.06,2l1.8,2.93,3.24-2,5,1.86,2,4.17c.8,1.25,1.57,2.53,2.43,3.73s1.71,2.16,2.57,3.23l-9-2c-.22-3.41-1.2-5.19-4.65-2.36-.54.44-1.54.31-2.33.45-3.8-3.16-5.64-2.89-7,1Zm14.56-6.29-.83-.36c-.12.28-.39.62-.32.82s.52.26.79.38Z"/><path class="cls-7" d="M188,220l-8,3c-4.72,3.94-9.37,1.41-14-.16-.16-4.91,1.55-7.39,7-6.06,1,.24,4.25,1.92,3.94-1.92Q178,213,179,211l0-1h0l4.07-1.9c.7,2.42,1.3,4.53,2.17,7.54l-2.07,2.83Z"/><path class="cls-10" d="M176.92,214.92c.31,3.84-3,2.16-3.94,1.92-5.47-1.33-7.18,1.15-7,6.06l-5,.07-11-7q-1-2.09-2-4.17l3-.84a23.44,23.44,0,0,1,3.87,3c5.82,6.75,6.69,6.79,12.16.05Z"/><path class="cls-8" d="M150,216l11,7-2,.06-2,0-2,0c-.86-1.08-1.77-2.12-2.57-3.24S150.81,217.24,150,216Z"/><path class="cls-9" d="M132,220c1.36-3.9,3.2-4.17,7-1l0,1Z"/><path class="cls-8" d="M139,220l0-1c.79-.14,1.79,0,2.33-.45,3.45-2.83,4.43-1.05,4.65,2.36Z"/><path class="cls-7" d="M157,223l2,0Z"/><path class="cls-8" d="M126,215l3,5-10-4c0-.34,0-.68,0-1l6,0Z"/><path class="cls-22" d="M125,215l-6,0-10-.87L109,211l0,0,2-1.94,13,1Z"/><path class="cls-24" d="M109,211l.06,3.13c-1.74,3-3.41,3.07-5-.11l.23-.42L104,214l-2,1h-2c-.42-1.35-.83-2.69-1.39-4.51L102,210h2Z"/><path class="cls-7" d="M162,61l6,0c0,2.66,0,5.31,0,8a39.26,39.26,0,0,0,0,5.84,14.71,14.71,0,0,0,1.58,3.68c-1.49.49-3,1-4.46,1.47s-2.74.77-4.28,1.2L166,84c-2,3-5.15,5.91-5.67,9.18S158.63,97.93,156,99l-2,1c-.68-1-1.37-2-2.05-2.95.83-.62,2.42-1.33,2.35-1.84A16.76,16.76,0,0,1,158,82c0-6.94,0-7-8-7-2.26-2.13-2.26-2.13,3.4-4.21L150,67c0-.33,0-.66,0-1l0-1a36.27,36.27,0,0,0-4.08-1.38c-3.13-.7-6.4-2-8.93,1.37L135,65l-1-1a18.53,18.53,0,0,1,1.86-2.51A36.52,36.52,0,0,1,139,59l3-.34,5,.14,3,.34.92.81c1.37-1.21,2.72,4.08,4.11,0l7,1Z"/><path class="cls-9" d="M166,84l-5.14-2.81c1.54-.43,2.92-.78,4.28-1.2s3-1,4.46-1.47A14.71,14.71,0,0,1,168,74.84,39.26,39.26,0,0,1,168,69c4.57,3.43,8.22,3,11.23-.35L174,61l12,0q.75,6,1.51,12.05l1.35-.08,1.43-3.46L192,75l.05,1.09,0,0L190,77.82a.65.65,0,0,1-.67.37c-3.19-3.58-7.32-4.27-10.28-1.54-2.15,2-4.07,4.22-6.09,6.35l-4,1Z"/><path class="cls-25" d="M196.81,74.69,193,75.83c0-.28,0-.56,0-.84,5.35-4.83-2.21-5-3.07-8.08,5.46-1.46,4.3-5.17,3.06-8.9l1,0,8.62.76,2.39.37,1,0h2L207,64l-4.89,1.71c1.32,1.39,2.62,2.78,4,4.13.18.18.62.11.94.15l1,1.92L205.24,74Z"/><path class="cls-10" d="M150,40.89,157,39l3.9,3.05c1.63,5.7,2.24,11.36-.73,16.87L160,59,159,58l.53-4.5-.83-.53L156,56l-1.44,1.39L151,57.15l-.27-1.69c-.1-3.13-.2-6.27-.29-9.4l8.84-2.16c-3.93-4.9-6.21-1.13-8.8,0C150.31,42.91,150.18,41.9,150,40.89Zm3,9.3.24,1.23,5.64-.28c-.45-1.24-.86-2.35-1.27-3.45Z"/><path class="cls-7" d="M186.92,47.19c5.19-2.33,9.52-.69,10.08,3.81h-6c-.67,1-1.33,2-2,3h0l-3,1.94c-2.65,1.13-5.67,5.14-7.37-1a1.05,1.05,0,0,0,.06-.93c0-.7,0-1.39,0-2.09l.5-1.88a2.05,2.05,0,0,0,.77-.17l6.64,1.32C186.71,49.81,186.81,48.5,186.92,47.19Z"/><path class="cls-26" d="M186,55.93,189,54a13.14,13.14,0,0,0-.11,3.36c.07.35,1.37.45,2.11.66h2c1.24,3.73,2.4,7.44-3.06,8.9.86,3.06,8.42,3.25,3.07,8.08-.33,0-.67,0-1,0l-1.74-5.5L188.83,73l-1.35.08Q186.73,67,186,61c0-.67,0-1.34,0-2C186,58,186,57,186,55.93Z"/><path class="cls-26" d="M174,61l5.26,7.63c-3,3.35-6.66,3.78-11.23.35,0-2.66,0-5.31,0-8Z"/><path class="cls-23" d="M186,55.93c0,1,0,2,0,3H175.14c-.41-6.21-.8-12.14-1.19-18.07l2.07-.18,2,.36,1.2,1L178.76,47,180,49.89a2.06,2.06,0,0,1-.78.17c-.16.63-.33,1.25-.49,1.88,0,.7,0,1.39,0,2.09-.09.09-.28.19-.27.26a4,4,0,0,0,.21.67C180.34,61.07,183.36,57.06,186,55.93Z"/><path class="cls-23" d="M160.15,58.89c3-5.51,2.36-11.17.73-16.87l5.23-1.63V57L166,59l-4,.35Z"/><path class="cls-25" d="M176,40.73l-2.07.18L169.65,37l8.74-4.68,7.31,4.75c-2.78.56-4.51,1.31-6.13,1.13C177.36,38,175.91,38,176,40.73Z"/><path class="cls-7" d="M178.76,47c.15-1.65.3-3.3.44-4.95l5.91,1.52c.3,1.09.59,2.18.89,3.27Z"/><path class="cls-6" d="M178.76,47l7.24-.16c.31.09.62.2.92.31-.11,1.31-.21,2.62-.33,4L180,49.89C179.56,48.94,179.16,48,178.76,47Z"/><path class="cls-26" d="M166,59l.12-2,5.27-.79C172.05,60.37,171.2,60.87,166,59Z"/><path class="cls-6" d="M185.11,43.61l-5.91-1.52-1.19-1c2.43,0,4.88-.14,7.29.09.56,0,1,1.39,1.5,2.13Z"/><path class="cls-25" d="M191,58c-.74-.21-2-.31-2.11-.66A13.14,13.14,0,0,1,189,54h2v4Z"/><path class="cls-7" d="M197.72,50.73l1.91,1.59-1.31,1.31-1.73-2.32Z"/><path class="cls-7" d="M191,58V55l3,3h-3Z"/><path class="cls-7" d="M192.36,43.72c-.59.22-1.21.68-1.76.6s-.94-.68-1.25-1.16c-.07-.11.49-.89.8-.92a4.31,4.31,0,0,1,1.58.41Z"/><path class="cls-26" d="M191,54h-2c.67-1,1.33-2,2-3Z"/><path class="cls-7" d="M160.15,58.89l1.87.45c0,.55,0,1.1,0,1.65h0l-2-2Z"/><path class="cls-7" d="M202,44.92,203.6,47Z"/><path class="cls-7" d="M198.58,43.72l-.36.84c-.27-.12-.71-.18-.78-.38s.19-.54.31-.82Z"/><path class="cls-7" d="M203.67,39.56h-1.91l1.46-1.13Z"/><path class="cls-7" d="M195,40l1.3.37L195,40Z"/><path class="cls-7" d="M203.6,56.08l-.62,1Z"/><path class="cls-5" d="M205.24,74,208,71.92A25,25,0,0,1,223,82c-.09,1.8-.19,3.61-.31,5.92l-4.8,2.54c1.54,2,2.85,3.78,4.16,5.51-2.84-.06-4.05,1.89-5.05,4.09L215.85,99,215,97.85a1.73,1.73,0,0,0-.13-.87l-.85-2.09.06.06a9,9,0,0,1-.23-.93c-.29-1-.57-2-.86-3l-1-1.17-.2-1.87-2-6.44-.25-.41Z"/><path class="cls-4" d="M222,96c-1.31-1.73-2.62-3.46-4.16-5.51l4.8-2.54c.12-2.31.22-4.12.31-5.92L226,84,227,84,229,94l-1,5h-3l-2-2Zm1.48-3.43v.91h2.9v-.91Zm1.87-2.83a1.11,1.11,0,0,0-.12.42s.22.09.35.13a1.36,1.36,0,0,0,.13-.42S225.51,89.76,225.38,89.72Z"/><path class="cls-8" d="M207,70c-.32,0-.76,0-.94-.15-1.35-1.35-2.65-2.74-4-4.13L207,64C207,66,207,68,207,70Z"/><path class="cls-8" d="M225,72l-3-2-1-4C225.41,66,223.74,69.94,225,72Z"/><path class="cls-24" d="M222.25,31.93,224,31l-1,2.07-1-.1C222,32.62,222.15,32.27,222.25,31.93Z"/><path class="cls-24" d="M206,59.15l-1,0A1.35,1.35,0,0,1,206,59.15Z"/><path class="cls-23" d="M129,40.71c3.47.84,7.58.71,8.48,5.51.55,6.85-4.89,7.82-9.47,9.42V59l-4.38-.34c-.51-5.87-1-11.31-1.46-16.74Zm-1.6,12.19c3.52.59,5-1.58,5.32-4.34.36-3.32-1.49-5.38-5.32-6.29Z"/><path class="cls-7" d="M122.15,42c.47,5.43.95,10.87,1.46,16.74L128,59l-6.33,4L127,64c-2.66,3.48-5.85,2-9,1,.49-1.44,1-2.89,1.38-4.1L117,58.11l0-.15c1.58-.85,4-1.37,4.49-2.62s-.71-3.5-1.57-5.08c-.49-.92-1.88-1.3-2.64-2.13-1.23-1.33-2.27-2.84-3.39-4.27L119,42l1,1,1.11,1.61L121,43Z"/><path class="cls-19" d="M112,32l7,.87C116.23,35.87,114,35.25,112,32Z"/><path class="cls-9" d="M121,43l.1,1.62L120,43Z"/><path class="cls-24" d="M127,64l-5.35-1L128,59V55.64c4.58-1.6,10-2.57,9.47-9.42l1.37-.23.06,10.86.22,1.77L139,59a36.52,36.52,0,0,0-3.14,2.49A18.53,18.53,0,0,0,134,64Z"/><path class="cls-23" d="M150.41,46.06c.09,3.13.19,6.27.29,9.4L150,57c0,.73,0,1.45,0,2.18l-3-.34L145.88,58q-.18-8.52-.35-17l4.51,0c.14,1,.27,2,.41,3C150.44,44.64,150.42,45.35,150.41,46.06Z"/><path class="cls-23" d="M138.89,56.85,138.83,46V40.91h4.78l-.57,16-1,1.72L139,59l.11-.38C139,58,139,57.44,138.89,56.85Z"/><path class="cls-8" d="M143,56.94l.57-16h1.92q.16,8.52.35,17Z"/><path class="cls-19" d="M118,31.28c-4,.27-6.45-2.13-6.83-6.73-.43-5.2,1.89-8.15,6.82-8.68C123.15,21.24,123.15,26.33,118,31.28Z"/><path class="cls-24" d="M225.61,27.28c-.12,0-.35-.08-.35-.13a1.36,1.36,0,0,1,.13-.42c.12,0,.35.08.35.13A1.36,1.36,0,0,1,225.61,27.28Z"/><path class="cls-9" d="M72,124c1.33.76,3.35,1.21,3.88,2.34C77.62,130.14,80.31,131,84,130l1.87,11.13L77,145h0l-4-1-2-2c0-1,0-2,0-3,6.3.42,6.29.43,4.11-5.3-.45-1.19-.76-2.45-1.13-3.68Z"/><path class="cls-22" d="M83,154,80,154v-6l1-1c6.24,2,12.56,2.78,19,1,2.34.32,4.69.72,7,.94,2.08.2,3.83.41,1.93,3l-21,2-2.94.09Z"/><path class="cls-9" d="M81,147l-1,1-3-3h0Z"/><path class="cls-8" d="M80,174H77l-4-9a19.72,19.72,0,0,0,2.23-2.73,23.55,23.55,0,0,0,1.36-3.54L80,161l3,5c.33,1.05.65,2.1,1.07,3.46H80.22Z"/><path class="cls-26" d="M83,166l-3-5h4l-1-5h2c1.56,1.76.42,6.22,5,5,0,1.66,0,3.32,0,5l-2.93,1-.8-2.46L85,165.92Z"/><path class="cls-9" d="M85,156H83c0-.65,0-1.3,0-2l2.09.07C85,154.74,85,155.37,85,156Z"/><path class="cls-22" d="M74,130c.37,1.23.68,2.49,1.13,3.68,2.18,5.73,2.19,5.72-4.11,5.3l-3-3c-1.78-3.86-3.71-7.66-5.26-11.61-.68-1.73-.6-3.76-1.06-7.16Z"/><path class="cls-9" d="M64,109.06c.43-1.29.87-2.57,1.31-3.85.94.93,2.26,1.7,2.76,2.83,1.9,4.28,4.48,7.76,8.69,10.15,1.52.86,2.25,3.08,2.73,3.79H71a37.88,37.88,0,0,1-4-5.29A67.08,67.08,0,0,1,64,109.06Z"/><path class="cls-25" d="M85,129V108.22l4,.78c2.86,4.43,9.36,7.31,6.11,14.39-.15.33.57,1.06.89,1.61.7,2.5.66,6.34,2.25,7.22,3.15,1.73,3.93,3.3,2.25,6.23L107,140l4,2,1,2-5,3.09c-5.48-3-6.6-3-10-.1l-4.73-1.29,3.47-2.59c-.7-1.16-2.1-2.58-1.81-3.15,1.66-3.27.26-4.41-2.73-5.19-.86-.23-1.39-1.58-2.17-2.31C87.74,131.26,86.35,130.15,85,129Z"/><path class="cls-5" d="M80.91,90.22l3.39-1,.12-.16,5.65,7.92,16.41,15.42L113,116l.93.94c.87,3.76,2.89,6.26,7.07,6.37V126c-2.22-1.06-4.48-2-6.64-3.21-4.13-2.23-8.19-4.58-12.29-6.88-2.09-6.6-8.36-9-13-13L86,98,84,97l-1,0C82.32,94.73,81.62,92.47,80.91,90.22Z"/><path class="cls-8" d="M85,129c1.35,1.15,2.74,2.26,4,3.46.78.73,1.31,2.08,2.17,2.31,3,.78,4.39,1.92,2.73,5.19-.29.57,1.11,2,1.81,3.15l-3.47,2.59L97,147l3,1c-6.46,1.73-12.78,1-19-1l-4-2,8.87-3.87L84,130Z"/><path class="cls-9" d="M89,103c4.68,4,10.95,6.36,13,13a48.27,48.27,0,0,0-4,4.54A28.54,28.54,0,0,0,96,125c-.32-.55-1-1.28-.89-1.61,3.25-7.08-3.25-10-6.11-14.39l-2.55-3.74Z"/><path class="cls-25" d="M81.85,108.39,75,104.71l.69-1.39,6.91,3.35Z"/><path class="cls-9" d="M84,97,86,98Z"/><path class="cls-11" d="M79.05,88.81l2.06.94L80,90Z"/><path class="cls-12" d="M84.42,89l-.12.16L82.91,87,85,86.07l3.07,2.69L88,90Z"/><path class="cls-29" d="M85,86.07,82.91,87l-1-1,3-3.2L86.82,84c-.11.47-.23.94-.35,1.41Z"/><path class="cls-16" d="M208,182l.83-.84c.72,1,1.44,1.89,2.17,2.83l-2.23-.09C208.5,183.24,208.24,182.61,208,182Z"/><path class="cls-16" d="M220,181l2-1Z"/><path class="cls-12" d="M220,185l-.26.41L220,185Z"/><path class="cls-5" d="M208,182c.26.64.52,1.27.77,1.9L207,185l-9,0a1.59,1.59,0,0,0-.77-.15c-.11-1.62-.21-3.24-.31-4.86l1.36-.25,7.71,1.16,1,.09Z"/><path class="cls-7" d="M182,182.93l.9,4.89-5.24-3.65h-4.27c-.47,1.79-.87,3.29-1.27,4.8l-2.16,2.14a11.06,11.06,0,0,1-2.46-1.66c-1.59-1.85-3-3.85-4.49-5.79l-2.67-.31-.48.07-5,.67h-5.74l-5.07.69-2,.23L141,185l0-1.93c7.8-4.13,16.18-3,24.47-2.77,2.66.07,5.33-.24,8-.37l-.1-1.34L157,177c-1.09-.66-2.17-1.35-3.28-2s-2.5-1.34-3.75-2c5.35,0,11.2,1.81,15-4,.62.52,1.18,1.37,1.86,1.48,2,.33,4.1.37,6.15.52l3,1C176,179.91,177.12,181.91,182,182.93Z"/><path class="cls-22" d="M176.92,214.92,167,214c-4.92-.28-9.63-1.23-13.8-4.11-.34-.23-1.47.69-2.23,1.07l-3,.84L143,210c0-.31-.06-.62-.07-.92l.1-2q.48,0,1,0l2-1,7-1,4,.93,2-1,8,2L178,210l1,1Q178,213,176.92,214.92Z"/><path class="cls-16" d="M182.94,173.9,179.88,172c-.11-.42-.23-.83-.34-1.24a.76.76,0,0,0-.49-.65L179,170c-.06-.65-.13-1.3-.19-2,.23-1.37.47-2.74.7-4.1l.27-.09.21.18,4,1.51c-.33-4.8-.64-9.15-.94-13.51l.9-3q2.49-5.53,5-11.07l2,3.1q-.44,3-.88,5.89c-1,5.25-2,10.49-2.81,15.76-.06.33,1.12.86,1.72,1.3l-5.07,7-.87,2.26A.63.63,0,0,1,182.94,173.9Z"/><path class="cls-7" d="M167,207l-8-2-2,1-4-.93-3-1q-1.51-2-3-4.07l2-3,2,.16a2.58,2.58,0,0,0,0,.92l-.12,2.3,3.87-.19,2.23,1.13h1l2-.18,5.81,2,.72-1.5-4.82-2.64c-.68-1.21-1.33-2.44-2.05-3.62-.59-1-1.26-1.88-1.9-2.81L162,189.9l5.86,4.85L168,202l0,3Z"/><path class="cls-13" d="M183.05,173.27c.29-.75.58-1.51.88-2.26,1.19,4,3.76,5.78,7.95,5L193,179a24,24,0,0,1-2.69,4,28,28,0,0,1-4.11,2.94c-3.58-1.76-3.43-4.58-2.22-7.72C183.68,176.57,183.37,174.92,183.05,173.27Z"/><path class="cls-16" d="M186.22,185.94a28,28,0,0,0,4.11-2.94,24,24,0,0,0,2.69-4l3.06-.87.83,1.88c.1,1.62.2,3.24.31,4.86-1.6,1-3.16,2.17-4.82,3.11-1.44.83-3,1.47-4.5,2.19Z"/><path class="cls-3" d="M172.08,189c.4-1.51.8-3,1.27-4.8h4.27q-.78,8.47-1.57,16.94l-3.88-.19Z"/><path class="cls-22" d="M179.54,170.77c.11.41.23.82.34,1.24a38.39,38.39,0,0,0,.34,5.38,48,48,0,0,0,1.74,5.54c-4.84-1-5.93-3-6-10.93l3-2,.07.13A1.32,1.32,0,0,0,179.54,170.77Z"/><path class="cls-9" d="M180.3,189.77l4.57,9.19C177.65,197.64,176.87,196.3,180.3,189.77Z"/><path class="cls-22" d="M172.17,200.92l3.88.19c-1.46,3.8-4.13,5.1-8,3.87,0-1,0-2,0-3Z"/><path class="cls-20" d="M183.05,173.27c.32,1.65.63,3.3.95,4.95-.35-1.44-.7-2.88-1.06-4.32A.63.63,0,0,0,183.05,173.27Z"/><path class="cls-9" d="M179,211l-1-1,1,0C179,210.32,179,210.65,179,211Z"/><path class="cls-22" d="M127,64h7l1,1-4.92,3.51c.53,2.83.53,2.83-3.14,4.54l-5,2h-1l-6-6c0-1.67,0-3.34,0-5l3,1C121.16,66.05,124.35,67.49,127,64Z"/><path class="cls-24" d="M115,69l6,6-7,3-7-5c1.29-1.79,2.58-3.57,4.72-6.51l.8,5.68Z"/><path class="cls-24" d="M118,65l-3-1-2.72-2.88,4.72-3,2.39,2.79C119,62.11,118.49,63.56,118,65Z"/><path class="cls-24" d="M127,73c3.67-1.71,3.67-1.71,3.14-4.54L135,65,137,65c.93.62,1.82,1.7,2.79,1.77,3.39.26,6.81.17,10.22.22l3.42,3.81c-5.66,2.08-5.66,2.08-3.4,4.21-.34,2.32-.67,4.65-1,7s-1.14,5-.64,7.23c.6,2.73,2.36,5.21,3.62,7.8.68,1,1.37,2,2.05,2.95-.62,1.05-2,2.44-1.71,3.08,1.68,3.74.15,6.42-2.32,9l2,6,0,2.93-1,.06L146,117.75l-3.15-1.54,0,.1c-1-6.23-1.93-6.82-6.84-4.32l-1-4,5.19-.34L132,100c-.27-1.27-1.2-3.14-.69-3.69,2.8-3,1.23-5.1-1.26-6.82L133,86l9.77,2.59c.38-3,.81-6.3,1.23-9.59l-13-1Zm24,28-7.51-7c-3.83,3.21-6.13,6.17-1.13,9.17,1.52.91,3.75.63,5.65.89Z"/><path class="cls-9" d="M133,86l-2.95,3.5c2.49,1.72,4.06,3.79,1.26,6.82-.51.55.42,2.42.69,3.69l-6.43-1.73-.94,1.47,4.42,3.26-3.32,1.43v-.1l-1.87-1.15h0l-8-4,.05,0-3-1.2a1.73,1.73,0,0,0-.9.11l-3-3.06L107,92c2.3-6.67,6.7-3.11,10.47-2.06C122.66,83.52,124.81,83,133,86Z"/><path class="cls-9" d="M131,78l13,1c-4.18,1.88-7.9,5.14-13.19,3.24-2.05-.73-4.57-.12-7.06-.12l-.52-4.84-3.35,3.56L114,78l7-3h1l5.16,1.5c.4,1.17.76,2.25,1.12,3.33Z"/><path class="cls-28" d="M109,95.09l3,3.06c-.71,3.41.67,5.74,3.58,7.54A58.44,58.44,0,0,1,121,110l7.59,5.66a8.48,8.48,0,1,1,.44-.73l1,.08h1l4.09-.17h.47l.46-.09,1.05.42c-1,2.61-2,5.23-3.05,7.84h0l-1-1c-2-.69-4.23-1-5.89-2.14-4.08-2.81-8.23-4.48-13.19-2.88L113,116v-4c-.63-5.6-4.21-8.8-9-11l0,0V99l-5.35-5,3.41-1Zm6.55,17.31.08,1.49,3.86-.35-.1-1.14Z"/><path class="cls-20" d="M113,112v4l-6.52-3.67,2.45-1c-4-3.32-7.44-6.32-11-9.1-2.49-1.93-5.21-3.56-7.82-5.33L84.42,89,88,90l4.26,1L93,89.13l9.06,4-3.41,1L104,99l-1.43.83L104,101l0,0Z"/><path class="cls-28" d="M93,89.13,92.26,91l-4.2-2.26L85,86.07l1.48-.7L88,85.6Z"/><path class="cls-3" d="M88,85.6l-1.49-.23c.12-.47.24-.94.35-1.41Z"/><path class="cls-7" d="M126,177.06a41.63,41.63,0,0,1-4.73,1.23c-2.09.29-4.64,1.13-6.26.3-7.55-3.88-15.37-3.52-23.44-2.93-1.87.13-6.78,3.82-6.61-2.63l16.1-7.13L105,165l11-1h3v6l-8,2-8.41-2.15C103.78,176,108,173.17,111,174l7,1,9,2Z"/><path class="cls-22" d="M126,177.06l1-.05h2l10,1,18-1,16.33,1.58.1,1.34c-2.66.13-5.33.44-8,.37-8.29-.19-16.67-1.36-24.47,2.77h-4.86L135,183l-2-1-9-1Z"/><path class="cls-3" d="M121,200.84c-.1-3.73-.17-7.47-.32-11.2-.08-1.91-.3-3.81-.46-5.71a.31.31,0,0,0-.09-.53c2.75.17,5.72-.25,8.18.69,2.29.87,5.15,2.87,5.75,4.95.87,3-2.18,4.47-4.92,5.29,0-.42-.09-.83-.13-1.25,2.13-5.47,1.63-6.57-5-9.07v9.93l0,2,1.89,4.83-2.88.09Z"/><path class="cls-14" d="M80.31,200.58l-.39-.11c.11-1.34.53-2.76.24-4a27.41,27.41,0,0,0-2-4.73L78.1,190,80,183.56a1.39,1.39,0,0,0-.06-.19l.35-.07,4-1.08.6,1.58q-.37,7.57-.74,15.16Z"/><path class="cls-14" d="M103.91,184c-2.79.51-3.34,2.27-3.18,4.88.23,3.69.06,7.42.06,12.14l-5.72-2L95,199l1,.05c2.29-6,1.43-14-2.26-16l5.26-.24,5,1.21Z"/><path class="cls-10" d="M101.08,165.89,85,173l-5,1,.22-4.56h3.85c-.42-1.36-.74-2.41-1.07-3.46l2-.05,2.11,1L90,166Z"/><path class="cls-27" d="M129.16,194.33c2.74-.82,5.79-2.31,4.92-5.29-.6-2.08-3.46-4.08-5.75-4.95-2.46-.94-5.43-.52-8.18-.69L124,181l9,1,2,1,1.12.06c-.09,3.65-.17,7.29-.26,10.94-1,1.59-1.9,3.19-2.86,4.78Z"/><path class="cls-14" d="M110.16,195l-.4,4.85h-4.27l.58-5.86,0-2c-.58-2.72,2.77-6.51-2.19-8.05l.12.12,5.92-.95c.14.63.29,1.27.44,1.9-.06,2.32-.12,4.65-.17,7Z"/><path class="cls-3" d="M95.07,199c-1.36-.34-3,.65-3.42-2.24-.27-2.12-2.73-3.9-4-6a53.81,53.81,0,0,1-2.57-5.55l.87-1.4L95.1,197,95,199Z"/><path class="cls-9" d="M110,183.12l-5.92.95-5-1.21C101.94,180.07,107.55,180.2,110,183.12Z"/><path class="cls-25" d="M113,185l.6,2.41-.93.21c-.23-.87-.46-1.75-.7-2.62Z"/><path class="cls-22" d="M86,183.82l-.87,1.4c-.07-.47-.13-.95-.2-1.42l-.6-1.58Z"/><path class="cls-9" d="M95.77,181.31h1.48v.36H95.77Z"/><path class="cls-7" d="M95,199l.15-2,.9,2Z"/><path class="cls-27" d="M78.15,191.72a27.41,27.41,0,0,1,2,4.73c.29,1.26-.13,2.68-.24,4-4,1.32-5.15-.6-4.87-4.21l.9-3.2.09-.13Z"/><path class="cls-22" d="M78.15,191.72,76,192.93,78.1,190Z"/><path class="cls-9" d="M125.88,200.81,124,196c1.47.89,2.89,1.89,4.42,2.65,1.81.9,3.72,1.61,5.58,2.41.34.65.68,1.31,1,2q-2,3.53-4,7.05l-2,0c.48-1.65-3-4.07,1-5,.43.51.87,1,1.3,1.51L131,205Z"/><path class="cls-25" d="M110.16,195l.06-3,8.78,3-4.08,3Z"/><path class="cls-22" d="M129,210l2,0,2,.95c-.33,1-.65,2-1,3l-5,0c0-1.33,0-2.66,0-4Z"/><path class="cls-25" d="M121,200.84l2,.06c-.21,2-.41,4-.62,6l-2.24-.27Q120.59,203.74,121,200.84Z"/><path class="cls-22" d="M80.31,200.58,84.16,199l3.28.7-.23,1.41Z"/><path class="cls-25" d="M106.1,192l0,2-3.7.89-.6-1Z"/><path class="cls-9" d="M127,210c0,1.33,0,2.66,0,4l-1,1h-1l-1-5Z"/><path class="cls-25" d="M104,210h-2l-.81-2.19.93-.67Z"/><path class="cls-24" d="M111,209,109,211Z"/><path class="cls-25" d="M104.64,202.75c-.12.28-.18.71-.38.78s-.54-.19-.82-.31c.12-.27.18-.71.38-.78S104.36,202.63,104.64,202.75Z"/><path class="cls-25" d="M131,205l.3,1.51c-.43-.5-.87-1-1.3-1.51Z"/><path class="cls-25" d="M114.51,203.66l-1.47.17c.16-.25.28-.62.5-.7S114,203.37,114.51,203.66Z"/><path class="cls-28" d="M196.08,178.1,193,179l-1.14-2.92,3-2.84c1.46-.87,3-1.66,4.35-2.62,2.07-1.43,4.07-3,6.1-4.46-.54,1.46-1.09,2.91-1.63,4.37l-1.61,1.43-3.18,3Z"/><path class="cls-17" d="M202.05,171.93l1.61-1.43c.25.58.51,1.17.77,1.75a.5.5,0,0,1-.12,0Z"/><path class="cls-17" d="M206.44,171.22l-1.3,1.1Z"/><path class="cls-16" d="M207,181l-1-.09,1-.83Z"/><path class="cls-5" d="M202.05,171.93l2.26.3L201,177l-2.12-2Z"/><path class="cls-17" d="M198.87,175l2.12,2-2.72,2.74-1.36.24-.83-1.88Z"/><path class="cls-30" d="M194.84,173.21l-3,2.84c-4.19.74-6.76-1.07-7.95-5q2.52-3.51,5.06-7c4.4-4.56,8.08-9.52,8.95-16.05h0l1-2,4.08-8L207,141l3.13,5.8Q207,151.9,204,157h0l-6,6.91q-1.51,2.52-3,5L193.75,171Z"/><path class="cls-28" d="M204,157q3.06-5.07,6.1-10.14l1,1c.34,3.42.69,6.84,1.06,10.6Z"/><path class="cls-28" d="M197.94,163.89l6-6.91q-1.16,4.91-2.32,9.81l-1.56-.06C199.37,165.78,198.65,164.84,197.94,163.89Z"/><path class="cls-28" d="M193.75,171l1.17-2.06Z"/><path class="cls-20" d="M203,138q-2,4-4.07,8c-.33.66-.66,1.33-1,2h0l-1.95,0,.11-6.95c0-2.65-.08-5.29-.11-7.94l.14-.23q1.92-6.52,3.85-13c.35-1.91.7-3.81,1.06-5.72h0l1.19-1H204l.14,1.9c2.5,3.33,2.69,6.54,0,10-.82,1-.8,2.72-1.17,4.11C198.73,132,202,135,203,138Z"/><path class="cls-29" d="M215,139.19c-4.23-.54-7.91-2-9.88-6.16.6-1.27,1.84-2.64,1.69-3.81-.68-5.11,2.24-6.24,6.34-6.37l-.09.11c-1.69,4.1-1.72,7.92,1.84,11.14.08.64.15,1.29.23,1.93Z"/><path class="cls-11" d="M213.14,122.85c-4.1.13-7,1.26-6.34,6.37.15,1.17-1.09,2.54-1.69,3.81L203,129c.37-1.39.35-3.08,1.17-4.11,2.71-3.42,2.52-6.63,0-10l3,1,4.84,1.13Z"/><path class="cls-15" d="M215,139.19c0-1.05.09-2.11.13-3.16l3.88,3,.14,1.87c-.15.14-.29.29-.43.44Z"/><path class="cls-15" d="M222.5,144.43l-3.79-3.12c.14-.15.28-.3.43-.44l3.94,3Z"/><path class="cls-15" d="M224.09,144l.81,2.95-2.4-2.51.58-.54Z"/><path class="cls-11" d="M187.35,80c3.11-.71,5,.54,5.89,3.56a37.62,37.62,0,0,0,2,4.45c-.45.48-.81,1.11-1.36,1.4-1.22.63-2.54,1.08-3.82,1.61l-6.93,2.86-2-1.44-2.1,10.65L176,104a2.89,2.89,0,0,0-.83,0L174,100H171l.28-1.87,8.22-7.61L178,86l9-4,1.34,1.89.68-1L187,82Zm-1.3,6.69.42,1,2.1-.94-.22-.64Z"/><path class="cls-13" d="M196.11,92.83l1.73,2.31q-.92,2.72-1.84,5.41c-1.08,1.68-2.16,3.36-3.3,5.15l2.47,1.45a34.74,34.74,0,0,1,2.33,5.55c.16.63-1.11,1.63-1.73,2.46l-5.32-5.43c-1.38,2.75-4.08,3.79-7.45,1.06l5.66-2.16c-.24-2.15-.44-3.9-.64-5.66Z"/><path class="cls-8" d="M187.35,80l-.4,2L187,82l-9,4-1.95.72L173,83c2-2.13,3.94-4.36,6.09-6.35,3-2.73,7.09-2,10.28,1.54Z"/><path class="cls-29" d="M196.11,92.83,188,103c-4,.12-7.6,5.8-12.07,1.07l3.11-.93a35.2,35.2,0,0,0,5-4c2.19-2.51,4-5.33,6-8,1.28-.53,2.6-1,3.82-1.61.55-.29.91-.92,1.36-1.4Z"/><path class="cls-17" d="M195.17,107.15l-2.47-1.45c1.14-1.79,2.22-3.47,3.3-5.15l1.57-.47.52-1,2.37-1.81c.15,1.17.3,2.33.32,2.5l6.28,5.17-1.39.17-2.7,2-4.78.13-1.31-.12Z"/><path class="cls-1" d="M205.24,74l4.34,7.1c-4.34-2-10.18-1-12.77-6.44Z"/><path class="cls-5" d="M205.67,105.14l1.39-.17,7,6.8c0,.41-.05.82-.08,1.22l-.28.38c-.57,1.23-1.15,2.46-1.73,3.69l-4.84-1.13.78-1.93,2.71-.74-.78-1.24-1.87,2c-.31-1-.63-2-.94-3,.49-.68,1.55-1.65,1.37-2A28.85,28.85,0,0,0,205.67,105.14Z"/><path class="cls-18" d="M222,96l1,1,0,2-4.3,1.36.42,4.58,0-.1c-.73-1.59-1.45-3.17-2.17-4.76C218,97.87,219.19,95.92,222,96Z"/><path class="cls-1" d="M209.83,81.54l2,6.44Z"/><path class="cls-28" d="M200.46,97.3l-2.37,1.81c-.17.33-.35.65-.52,1l-1.57.47q.93-2.7,1.84-5.41Z"/><path class="cls-18" d="M221,108h-1.78c0-1.06-.05-2.11-.07-3.17l0,.1L221,108Z"/><path class="cls-1" d="M214.06,94.89c.28.69.57,1.39.85,2.09Z"/><path class="cls-8" d="M190,77.82l2.06-1.76Z"/><path class="cls-19" d="M214,113c0-.4.06-.81.08-1.22l.91.52Z"/><path class="cls-1" d="M215,97.85l.81,1.12Z"/><path class="cls-1" d="M213.89,94a9,9,0,0,0,.23.93C214,94.64,214,94.33,213.89,94Z"/><path class="cls-1" d="M212,89.85,213,91Z"/><path class="cls-8" d="M192,75c.33,0,.67,0,1,0,0,.28,0,.56,0,.84a5.91,5.91,0,0,1-.94.25C192,75.72,192,75.35,192,75Z"/><path class="cls-5" d="M221,108l-1.89-3.07-.42-4.58L223,99l0,0,.76,1.55L225,99h3c-.34,1.67-.67,3.33-1,5L223,106c-.32.34-.64.69-.95,1Z"/><path class="cls-18" d="M222.06,107.05c.31-.35.63-.7.95-1C222.69,106.35,222.37,106.7,222.06,107.05Z"/><path class="cls-11" d="M227.12,126.9,223,127l-2.78-1-.22.63,2.45,1.6L217,129l-2.14-4.88,6.27-.32Z"/><path class="cls-15" d="M214.86,124.12c.71,1.63,1.43,3.25,2.14,4.88,0,.66,0,1.32.05,2l-2.16,3.12c-3.56-3.22-3.53-7-1.84-11.14Z"/><path class="cls-30" d="M217.05,131c0-.66,0-1.32-.05-2l5.45-.78-2.45-1.6.22-.63,2.78,1q1.5,5,3,10l-3,0Z"/><path class="cls-28" d="M223,137l3,0c.67,1.33,1.34,2.66,2,4l-3.92,3-1-.1-3.94-3c0-.63-.1-1.25-.14-1.87Z"/><path class="cls-14" d="M135.86,194c.09-3.65.17-7.29.26-10.94H141l0,1.93-1.66,16,3.78-2.81,1.92,1.59-1,.29-8,.89C136,198.63,135.91,196.31,135.86,194Z"/><path class="cls-9" d="M144,200.05l1-.3,2,.17q1.53,2,3,4.07l-4,2-2,1C142.25,204.71,142.09,202.39,144,200.05Z"/><path class="cls-26" d="M135.86,194c0,2.31.11,4.63.17,6.94-.34.69-.68,1.38-1,2.07-.33-.66-.67-1.32-1-2l-1-2.26C134,197.19,134.91,195.59,135.86,194Z"/><path class="cls-10" d="M143,209c0,.3,0,.61.07.92l-3.23,2L138,209Z"/><path class="cls-9" d="M132,214c.33-1,.65-2,1-3l3.27.21.45,1.56Z"/><path class="cls-9" d="M143,209l-5,0c.13-4.65,2.74-2.93,5.06-2C143,207.72,143,208.38,143,209Z"/><path class="cls-9" d="M144.58,213.72l-.36.84c-.27-.12-.71-.18-.79-.38s.2-.54.32-.82Z"/><path class="cls-26" d="M151,211c.76-.38,1.89-1.3,2.23-1.07,4.17,2.88,8.88,3.83,13.8,4.11-5.47,6.74-6.34,6.7-12.16-.05A23.44,23.44,0,0,0,151,211Z"/><path class="cls-10" d="M104,214l.23-.42L104,214Z"/><path class="cls-26" d="M150,112c2.47-2.54,4-5.22,2.32-9-.29-.64,1.09-2,1.71-3.08l2-1,4,2,7.93,4,2,3v1l1,2c.26,1.67.52,3.35.93,6h-7.92c-1.45-2.15-1.18-6-5.47-5.69L159,114Z"/><path class="cls-19" d="M160,101l-4-2c2.63-1.07,3.8-2.54,4.33-5.82S164,87.05,166,84l3,0q0,3,0,6l-2.16-.28c0,3,.88,6.17-.26,8.11C165.55,99.59,162.31,100,160,101Z"/><path class="cls-8" d="M152,97c-1.26-2.59-3-5.07-3.62-7.8-.5-2.25.37-4.81.64-7.23h9a16.76,16.76,0,0,0-3.66,13.19C154.4,95.68,152.81,96.39,152,97Z"/><path class="cls-22" d="M158,82h-9c.34-2.32.67-4.65,1-7C158,75,158,75,158,82Z"/><path class="cls-22" d="M150,67c-3.41,0-6.83,0-10.22-.22-1-.07-1.86-1.15-2.79-1.77,2.53-3.36,5.8-2.07,8.93-1.37A36.27,36.27,0,0,1,150,65c0,.33,0,.66,0,1S150,66.66,150,67Z"/><path class="cls-26" d="M160,59l2,2-7-1c0-.32,0-.64,0-1l-.42-1.6L156,56l3,2Z"/><path class="cls-21" d="M154.58,57.4,155,59l-4.1,1-.92-.81c0-.73,0-1.45,0-2.18a1.83,1.83,0,0,0,.95.19Z"/><path class="cls-25" d="M150.9,60l4.1-1c0,.33,0,.65,0,1C153.62,64,152.27,58.74,150.9,60Z"/><path class="cls-21" d="M143,56.94l2.84,1,1.11.84-5-.14Z"/><path class="cls-24" d="M150,66c0-.34,0-.67,0-1C150,65.34,150,65.67,150,66Z"/><path class="cls-7" d="M169,90q0-3,0-6l4-1,3,3.73-3.54,4.45Z"/><path class="cls-25" d="M150.41,46.06c0-.71,0-1.42,0-2.13,2.59-1.16,4.87-4.93,8.8,0Z"/><path class="cls-25" d="M153,50.19l4.61-2.5c.41,1.1.82,2.21,1.27,3.45l-5.64.28Z"/><path class="cls-25" d="M159,58l-3-2L158.72,53l.83.53Z"/><path class="cls-25" d="M151,57.15A1.83,1.83,0,0,1,150,57l.68-1.5Z"/><path class="cls-6" d="M178.68,51.94c.16-.63.33-1.25.49-1.88C179,50.69,178.84,51.31,178.68,51.94Z"/><path class="cls-6" d="M178.64,55a4,4,0,0,1-.21-.67c0-.07.18-.17.27-.26A1.05,1.05,0,0,1,178.64,55Z"/><path class="cls-5" d="M223.51,92.55h2.9v.91h-2.9Z"/><path class="cls-5" d="M223,99l0-2,2,2h-2Z"/><path class="cls-5" d="M225.38,89.72c.13,0,.35.08.36.13a1.36,1.36,0,0,1-.13.42c-.13,0-.35-.08-.35-.13A1.11,1.11,0,0,1,225.38,89.72Z"/><path class="cls-7" d="M127.38,52.9V42.27c3.83.91,5.68,3,5.32,6.29C132.39,51.32,130.9,53.49,127.38,52.9Z"/><path class="cls-21" d="M138.89,56.85c.08.59.15,1.18.22,1.77C139,58,139,57.44,138.89,56.85Z"/><path class="cls-9" d="M119,164h-3l-6-3,2.38-1.95c-3.84-.89-7.49-1.7-11.13-2.6-1.32-.33-2.89-1.51-3.81-1.09s-1,2.37-1.44,3.64l-3,1-5-6,21-2c.42.92.84,1.83,1.27,2.74L115,151l14,6-5,3h-6.57l-.08,1.26L119,162Z"/><path class="cls-24" d="M115,151l-4.74,3.76c-.43-.91-.85-1.82-1.27-2.74,1.9-2.63.15-2.84-1.93-3-2.35-.22-4.7-.62-7-.94l-3-1c3.43-2.89,4.55-2.85,10,.1l5-3.09h0l3,5Z"/><path class="cls-19" d="M88,154l5,6v0l-2,.94-1,0c-4.56,1.23-3.42-3.23-5-5,0-.62,0-1.25,0-1.88Z"/><path class="cls-22" d="M90,161c.33,0,.66,0,1,0l2-.95v0l3-1,9,2v4l-3.92.87L90,166C90,164.3,90,162.64,90,161Z"/><path class="cls-8" d="M87.07,167l-2.11-1c.44-.48.87-1,1.31-1.43Z"/><path class="cls-26" d="M115,151v-2c3,1.24,4.49.43,4-3l5.6-1.19c.42-4.1.77-7.47,1.13-10.93l-20.26-8.28c3.58,2.9.66,9.21,6,11.11a18.16,18.16,0,0,1,3.16,1.71L115,144h-3l-1-2c.4-4.08-2.26-2.12-4-2l-6.5-1.55c1.68-2.93.9-4.5-2.25-6.23-1.59-.88-1.55-4.72-2.25-7.22a28.54,28.54,0,0,1,2.13-4.54,48.27,48.27,0,0,1,4-4.54c4.1,2.3,8.16,4.65,12.29,6.88C116.53,124,118.79,125,121,126l0,0,3,2,5.85,2,7.17,6,2,2h2l0,2c-3.89,2.09-4.18,4.16-.48,8.32l3.46-6.37,3,2.07c-2.2,2.83.27,3.78,2,5l-1,2c-4.53-1-8.68.55-12.68,2.23-1.08.45-1.52,2.43-2.26,3.71l-4,0Z"/><path class="cls-24" d="M107,140c1.72-.11,4.38-2.07,4,2Z"/><path class="cls-17" d="M129.85,130,124,128l-3-2,0,0c0-.89,0-1.78,0-2.67L137,128l11,7-7.07.1c-2.07-1.21-4.07-2.54-6.22-3.57A35,35,0,0,0,129.85,130Z"/><path class="cls-29" d="M137,128l-16-4.64c-4.18-.11-6.2-2.61-7.07-6.37,5-1.6,9.11.07,13.19,2.88C128.78,121,131,121.3,133,122l1,1h0Z"/><path class="cls-29" d="M90.07,96.94c2.61,1.77,5.33,3.4,7.82,5.33,3.6,2.78,7,5.78,11,9.1l-2.45,1Z"/><path class="cls-16" d="M88.06,88.76,92.26,91,88,90Z"/><path class="cls-25" d="M133,157c.74-1.28,1.18-3.26,2.26-3.71,4-1.68,8.15-3.26,12.68-2.23.17.46.31,1.3.52,1.32,5.67.57,11.33,1.12,17,1.43.44,0,1-1.7,1.46-2.61l3.44-2.74-.11.21c.68.75,1.37,1.5,2.05,2.26l2.56,1.24.73,1,1.31,1.92c.38.69.75,1.39,1.13,2.09.63,2.3,1.27,4.61,1.9,6.92l-.21-.18-.27.09L177,166h0c-.6-2.07-1.2-4.14-2-7-1.24,3.82-2.09,6.4-2.93,9-2.4,0-5.43-4.42-7.06,1-3.81,5.81-9.66,4-15,4a15.58,15.58,0,0,1-.64-2.57c-.19-2.14-.25-4.29-.36-6.44h3l8.77-.68-.09-1.46L158,160c-1.13-3.23-7.15-4.46-10-2l-9-2c-1.67-1.82-2.77-1.8-3,.94Z"/><path class="cls-26" d="M149,164c.11,2.15.17,4.3.36,6.44A15.58,15.58,0,0,0,150,173c1.25.67,2.52,1.31,3.75,2s2.19,1.32,3.28,2l-18,1-7.46-4L129,177h-2l-9-2,3-3.93,9,0c8.36-2.24,8.76-2.07,8.3,3.75,1.65-.32,3.4-.33,4.78-1.06.8-.42,1.54-2.83,1.39-2.92-2.65-1.71-5.53-4.62-8.17-4.44-4.83.33-7.45-1.35-9.32-5.31,2.23.28,5.51-.27,6.49,1,4.12,5.23,3.69.45,4.57-2.22,1.43.39,3.72.43,4,1.19C143.36,164.72,146.27,164,149,164Z"/><path class="cls-14" d="M157.76,192.46c.64.93,1.31,1.84,1.9,2.81.72,1.18,1.37,2.41,2.05,3.63L160,201l-2,.18h-1l-2.23-1.13-.74-2.23.19-1.84-2.37-4.89q-1.4-3.52-2.81-7h5.74c.25.69.51,1.37.77,2a1,1,0,0,0,.41.86C156.57,188.82,157.16,190.64,157.76,192.46Z"/><path class="cls-24" d="M143.07,198.17,139.29,201,141,185l1.05,0C145.73,189.12,146,193.52,143.07,198.17Z"/><path class="cls-3" d="M167.9,194.75,162,189.9l-2.22-6.48.48-.07,2.67.31c1.49,1.94,2.9,3.94,4.49,5.79a11.06,11.06,0,0,0,2.46,1.66Z"/><path class="cls-3" d="M143.07,198.17c2.92-4.65,2.66-9-1.07-13.17l2-.23q2.58,5.11,5.14,10.23a1.71,1.71,0,0,0-.05.84L149,196.9l-2,3-2-.17Z"/><path class="cls-26" d="M167.9,194.75l2-3.64,2.16-2.14.09,11.95L168,202Q168,198.38,167.9,194.75Z"/><path class="cls-24" d="M149.12,195q-2.56-5.12-5.14-10.23l5.07-.69q1.41,3.53,2.81,7l.11-.1Z"/><path class="cls-26" d="M159.82,183.42,162,189.9l-4.28,2.56c-.6-1.82-1.19-3.64-1.79-5.45l-.41-.87c-.26-.68-.52-1.36-.77-2Z"/><path class="cls-26" d="M165,169c1.63-5.42,4.66-1,7.06-1l.95,1v2c-2.05-.15-4.12-.19-6.15-.52C166.17,170.37,165.61,169.52,165,169Z"/><path class="cls-25" d="M173,171v-2l4-3h0l1.8,2c.06.65.13,1.3.19,2l-3,2Z"/><path class="cls-26" d="M163,183.66l-2.67-.31Z"/><path class="cls-25" d="M146,206l4-2,3,1Z"/><path class="cls-9" d="M157,206l2-1Z"/><path class="cls-20" d="M191,141.05l-2-3.1c0-.32,0-.63,0-.94-.54-1.88-1.08-3.75-1.8-6.27l-2-2.66-2.64-5L181,114l-.23-1.06.33.08,4.61,1.06c.52,2.68.93,4.81,1.49,7.74,2.15-1.83,3.2-2.73,4.51-3.83l4.47,14.8L196,133q-1.5,4-3,8Z"/><path class="cls-12" d="M196,147.91l1.95,0c-.87,6.53-4.55,11.49-8.95,16.05-.6-.44-1.78-1-1.72-1.3.84-5.27,1.85-10.51,2.81-15.76a42.09,42.09,0,0,0,4.29,1.82C194.78,148.89,195.45,148.22,196,147.91Z"/><path class="cls-29" d="M180,164c-.63-2.31-1.27-4.62-1.9-6.92.35-.33.71-.65,1.07-1l2-3.76L182,152h1.09c.3,4.36.61,8.71.94,13.51Z"/><path class="cls-28" d="M183.07,152H182q-2-6.51-4-13l3-2,3.84,2.84A7.61,7.61,0,0,0,184,149Z"/><path class="cls-15" d="M184,149a7.6,7.6,0,0,1,.88-9.19l1.14-5,3,2.21c0,.31,0,.62,0,.94Q186.47,143.48,184,149Z"/><path class="cls-30" d="M196,147.91c-.54.31-1.21,1-1.62.85a42.09,42.09,0,0,1-4.29-1.82q.45-2.94.88-5.89l2-.05,1.33,2.32L196.1,141Z"/><path class="cls-22" d="M178.79,168l-1.8-2,2.5-2.06C179.26,165.3,179,166.67,178.79,168Z"/><path class="cls-8" d="M179.54,170.77a1.32,1.32,0,0,1-.49-.65A.76.76,0,0,1,179.54,170.77Z"/><path class="cls-26" d="M160,201l1.71-2.14,4.82,2.63-.72,1.5Z"/><path class="cls-9" d="M154,197.86l.74,2.23-3.87.19L151,198Z"/><path class="cls-23" d="M154,197.86l-3,.12a2.58,2.58,0,0,1,0-.92l0-1h3.19Z"/><path class="cls-14" d="M151,196l0,1-2-.16c0-.36.06-.71.08-1.06l1.9.12Z"/><path class="cls-9" d="M157,201.22h0Z"/><path class="cls-7" d="M131,78l-2.72,1.81c-.36-1.08-.72-2.16-1.12-3.33L122,75l5-2Z"/><path class="cls-15" d="M137,128l-3-5c1-2.61,2-5.23,3.05-7.84l5.77,1.16,0-.1,3.15,1.54L151,121l5,4.24c-.28.6-.55,1.21-.82,1.82l-5.88-3.37c.42,2.14.79,4,1.25,6.33H157l0,0,1,.83c1.47,1.35,4.3,1.89,2.94,4.92L151,134l-.4-.53c0,.1,0,.25.05.3a1.7,1.7,0,0,0,.41.18l-.19,1.2L148,135Z"/><path class="cls-19" d="M156,125.23,151,121l1-.06c2.57.61,5.13,1.63,7.71,1.66,1.41,0,2.84-1.66,4.26-2.57l9.38,1.12c.67-3.33,1.16-5.74,1.64-8.15,3.47-.27,4.19,2.17,5,4.79a38.56,38.56,0,0,0,2.55,5.31l2.64,5a3.25,3.25,0,0,0-.32.82L183,129h0l-1.1-1-1.65.92L177,126.13c-4.09-3.16-8.3-4.85-13-1.12Z"/><path class="cls-7" d="M148,104c-1.9-.26-4.13,0-5.65-.89-5-3-2.7-6,1.13-9.17l7.51,7Z"/><path class="cls-17" d="M136,114.73l-.46.09h-.47q-4.67-5.19-9.35-10.37l3.32-1.43,5.93,5,1,4C136,112.9,136,113.82,136,114.73Z"/><path class="cls-25" d="M150,112l9,2c.66,2,1.32,4,2,6-1.89-.71-3.74-1.55-5.68-2.07a12.13,12.13,0,0,0-3.29,0Z"/><path class="cls-26" d="M135,108l-5.93-5-4.42-3.26.94-1.47L132,100l8.17,7.62Z"/><path class="cls-26" d="M152,118a12.13,12.13,0,0,1,3.29,0c1.94.52,3.79,1.36,5.68,2.07h3c-1.42.91-2.85,2.59-4.26,2.57-2.58,0-5.14-1-7.71-1.66C152,120,152,119,152,118Z"/><path class="cls-18" d="M136,114.73c0-.91,0-1.83,0-2.74,4.91-2.5,5.85-1.91,6.84,4.32l-5.77-1.16Z"/><path class="cls-26" d="M148,104l3-3Z"/><path class="cls-18" d="M146,117.75l-3.15-1.54Z"/><path class="cls-15" d="M125.73,104.45q4.68,5.19,9.35,10.37L131,115h-1l-1-.08L121,110a58.44,58.44,0,0,0-5.44-4.28c-2.91-1.8-4.29-4.13-3.58-7.54a1.73,1.73,0,0,1,.9-.11l3,1.2-.05,0,8,4h0l1.87,1.15Z"/><path class="cls-17" d="M123.86,103.2l-8-4Z"/><path class="cls-17" d="M115.87,99.24l-3-1.2Z"/><path class="cls-17" d="M125.73,104.35l-1.87-1.15Z"/><path class="cls-29" d="M113,112l-9-11C108.79,103.19,112.37,106.39,113,112Z"/><path class="cls-20" d="M121,110l8,4.93a8.48,8.48,0,1,0-.44.73Z"/><path class="cls-20" d="M115.57,112.4h3.84l.1,1.14-3.86.35Z"/><path class="cls-29" d="M104,101l-1.44-1.19L104,99C104,99.65,104,100.33,104,101Z"/><path class="cls-15" d="M134,123l-1-1Z"/><path class="cls-20" d="M130,115h0Z"/><path class="cls-25" d="M127,161c1.87,4,4.49,5.64,9.32,5.31,2.64-.18,5.52,2.73,8.17,4.44.15.09-.59,2.5-1.39,2.92-1.38.73-3.13.74-4.78,1.06.46-5.82.06-6-8.3-3.75-2.16-5-7.3-3.4-11-5v-4c2.34-.27,5.25,3.38,7-1Z"/><path class="cls-26" d="M105,165v-4h5l6,3Z"/><path class="cls-8" d="M119,166c3.7,1.6,8.84,0,11,5l-9,0-2-1Z"/><path class="cls-22" d="M119,170l2,1L118,175l-7-1v-2Z"/><path class="cls-26" d="M111,172v2c-3-.83-7.22,2-8.41-4.15Z"/><path class="cls-9" d="M129,177l2.54-3,7.46,4Z"/><path class="cls-26" d="M135,183l-2-1Z"/><path class="cls-7" d="M124,193.94V184c6.64,2.5,7.14,3.6,5,9.07Z"/><path class="cls-14" d="M124,193.94l5-.86c0,.42.09.83.13,1.25l3.84,4.45,1,2.26c-1.86-.8-3.77-1.51-5.58-2.41-1.53-.76-3-1.76-4.42-2.65Z"/><path class="cls-12" d="M198,147.94c.32-.66.65-1.33,1-2C198.6,146.61,198.27,147.28,198,147.94Z"/><path class="cls-29" d="M196.13,132.79,191.66,118c-1.31,1.1-2.36,2-4.51,3.83-.56-2.93-1-5.06-1.49-7.74L181.05,113l0-1.11.86-.9,1.13-.22c3.37,2.73,6.07,1.69,7.45-1.06l5.32,5.43v7.58l4.21-3Q198,126.27,196.13,132.79Z"/><path class="cls-12" d="M200,119.74l-4.21,3v-7.58c.62-.83,1.89-1.83,1.73-2.46a34.74,34.74,0,0,0-2.33-5.55l1.71,0,.57,1.3.74-1.18,4.78-.13-3.9,3.92-.47-.43.44.46,2,3C200.68,115.93,200.33,117.83,200,119.74Z"/><path class="cls-11" d="M201,114l-2-3,0,0,3.9-3.92,2.7-2a28.85,28.85,0,0,1,2.75,3.92c.18.34-.88,1.31-1.37,2l-3,2H202.2L201,114Z"/><path class="cls-28" d="M196.1,141l-1.77,2.36L193,141q1.49-4,3-8C196,135.67,196.06,138.31,196.1,141Z"/><path class="cls-12" d="M204,113l3-2c.31,1,.63,2,.94,3l-.06-.07-.78,1.93-3-1C204.12,114.27,204.07,113.63,204,113Z"/><path class="cls-12" d="M201,114l1.19-1Z"/><path class="cls-20" d="M223,137,219,139l-3.88-3c-.08-.64-.15-1.29-.23-1.93l2.16-3.12Z"/><path class="cls-5" d="M183,110.79l-1.13.22-.86.9c0,.37,0,.74,0,1.11l-.33-.08c-.08.13-.26.3-.23.37a5.17,5.17,0,0,0,.46.69l1.62,9.09a38.56,38.56,0,0,1-2.55-5.31c-.82-2.62-1.54-5.06-5-4.79l-4-2-1-2v-1l-2-3,3.33-6.88c-.09.63-.18,1.25-.28,1.87l-.43,1.18L169,104h6.16a2.89,2.89,0,0,1,.83,0c4.47,4.73,8-1,12.07-1.07.2,1.76.4,3.51.64,5.66Z"/><path class="cls-17" d="M171.3,98.12,168,105,160,101c2.27-1,5.51-1.45,6.55-3.19,1.14-1.94.26-5.07.26-8.11L169,90l3.48,1.16L176,86.73,178,86l1.54,4.5Z"/><path class="cls-28" d="M190.06,91c-2,2.69-3.83,5.51-6,8a35.2,35.2,0,0,1-5,4l2.1-10.65,2,1.44Z"/><path class="cls-15" d="M175.12,104H169l1.63-2.86,2.16,1.61L174,100Z"/><path class="cls-28" d="M174,100l-1.21,2.79-2.16-1.61c.15-.39.29-.78.43-1.18Z"/><path class="cls-5" d="M187,82l2.09.81-.68,1L187,82Z"/><path class="cls-5" d="M186.05,86.71l2.3-.6.22.64-2.1.94Z"/><path class="cls-13" d="M198.19,107.25l-.74,1.18-.57-1.3Z"/><path class="cls-13" d="M197.57,100.08c.17-.32.35-.64.52-1C197.92,99.44,197.74,99.76,197.57,100.08Z"/><path class="cls-13" d="M208,114.07l1.87-2,.78,1.24-2.71.74Z"/><path class="cls-18" d="M223,99h2l-1.23,1.56Z"/><path class="cls-9" d="M171.05,110.94l4,2c-.48,2.41-1,4.82-1.64,8.15L164,120h0c0-1,0-2,.07-3H172C171.57,114.29,171.31,112.61,171.05,110.94Z"/><path class="cls-10" d="M164.06,117c0,1-.05,2-.07,3h-3c-.65-2-1.31-4-2-6-.12-.82-.25-1.63-.41-2.72C162.88,110.94,162.61,114.82,164.06,117Z"/><path class="cls-19" d="M170,108v0Z"/><path class="cls-22" d="M127,161l-1,0-2-1,5-3,4,0H136l3-.94,9,2,10,2,2.69,1.85.09,1.46L152,164c-.58-.61-1.17-1.21-1.75-1.81L149,164h0c-2.71,0-5.62.73-6.95-3-.27-.76-2.56-.8-4-1.19-.88,2.67-.45,7.45-4.57,2.22C132.49,160.75,129.21,161.3,127,161Z"/><path class="cls-8" d="M110,161h-5l-9-2c.45-1.27.59-3.25,1.44-3.64s2.49.76,3.81,1.09c3.64.9,7.29,1.71,11.13,2.6Z"/><path class="cls-19" d="M124,160l2,1c-1.75,4.39-4.66.74-7,1l-1.66-.74.08-1.26Z"/><path class="cls-9" d="M112,144h3l4,2c.49,3.43-1,4.24-4,3Z"/><path class="cls-26" d="M93,160,91,161Z"/><path class="cls-5" d="M148,135l2.82.18.09-.12,2.08,1.51a74.44,74.44,0,0,0,7.87,4.21c.68.27,2.06-1.15,3.12-1.79q3.19,4.71,6.4,9.43L167,151.16,155,149c.39-.5.79-1,1.32-1.69L147,144l-3-2.07L141,140c0-.66,0-1.32,0-2l0,0,2.39.63.25-1L141,137h0l-.05-1.9Z"/><path class="cls-22" d="M119,146l-4-2c-.13-1.62-.25-3.25-.43-5.57a18.16,18.16,0,0,0-3.16-1.71c-5.29-1.9-2.37-8.21-6-11.11l20.26,8.28c-.36,3.46-.71,6.83-1.13,10.93Z"/><path class="cls-22" d="M155,149l12,2.14c-.48.91-1,2.64-1.46,2.61-5.68-.31-11.34-.86-17-1.43-.21,0-.35-.86-.52-1.32l1-2Z"/><path class="cls-25" d="M141,140l3,1.95-3.46,6.37C136.85,144.15,137.14,142.08,141,140Z"/><path class="cls-13" d="M141,135.1c0,.63,0,1.27.05,1.9h-2l-2-1-7.17-6a35,35,0,0,1,4.88,1.52C136.88,132.56,138.88,133.89,141,135.1Z"/><path class="cls-7" d="M155,149h-6c-1.75-1.23-4.22-2.18-2-5l9.32,3.32C155.77,148,155.37,148.52,155,149Z"/><path class="cls-5" d="M121,126l3,2Z"/><path class="cls-25" d="M137,136l2,1c0,.33,0,.67,0,1Z"/><path class="cls-5" d="M139,138c0-.33,0-.67,0-1h2a4.68,4.68,0,0,0,0,1l0,0Z"/><path class="cls-15" d="M170.4,148.42q-3.19-4.72-6.4-9.43a3.69,3.69,0,0,1,0-.94l3.05-1.06c1.3,2-.4,6,3.93,6l.72,1.06-.74-1,2-2h1q1,4,2,8c0,.31-.07.61-.09.92l-1,2.22-2.56-1.24c-.68-.76-1.37-1.51-2.05-2.26Z"/><path class="cls-22" d="M177,166l-4,3-.95-1c.84-2.57,1.69-5.15,2.93-9C175.81,161.87,176.41,163.94,177,166Z"/><path class="cls-19" d="M158,160l-10-2C150.85,155.54,156.87,156.77,158,160Z"/><path class="cls-28" d="M175.91,149.91c0-.31.05-.61.09-.92,2.42.06,5.36-.68,5.12,3.39-.66,1.25-1.32,2.51-2,3.76L176.94,155l-1.31-1.92,3.76-.93Z"/><path class="cls-11" d="M175.91,149.91l3.48,2.26-3.76.93-.73-1Z"/><path class="cls-26" d="M139,156l-3,.94C136.23,154.21,137.33,154.19,139,156Z"/><path class="cls-26" d="M149,164l1.27-1.8c.58.6,1.17,1.2,1.75,1.81Z"/><path class="cls-11" d="M176.94,155l2.19,1.12-1.06,1C177.69,156.41,177.32,155.71,176.94,155Z"/><path class="cls-5" d="M170.29,148.63c.68.75,1.37,1.5,2.05,2.26C171.66,150.13,171,149.38,170.29,148.63Z"/><path class="cls-26" d="M154.23,196H151L151,196c.33-1.64.67-3.29,1-4.93l-.11.1Z"/><path class="cls-7" d="M155.56,186.14l.41.87A1,1,0,0,1,155.56,186.14Z"/><path class="cls-23" d="M152,191c-.33,1.64-.67,3.29-1,4.93l-1.9-.12a1.71,1.71,0,0,1,.05-.84Z"/><path class="cls-12" d="M184.89,128.9a3.25,3.25,0,0,1,.32-.82l2,2.66c.72,2.52,1.26,4.39,1.8,6.27l-3-2.21-2-1.69c0-1-.11-2-.16-3Z"/><path class="cls-13" d="M181,114a5.17,5.17,0,0,1-.46-.69c0-.07.15-.24.23-.37C180.8,113.3,180.87,113.65,181,114Z"/><path class="cls-11" d="M181.12,152.38c.24-4.07-2.7-3.33-5.12-3.39q-1-4-2-8,2-1,4-2h0q2,6.51,4,13Z"/><path class="cls-11" d="M181,137l-3,2h0c0-2,0-4,0-6l2-1,2,1.94Z"/><path class="cls-30" d="M181,137c.33-1,.66-2,1-3,0-.24,0-.49,0-.73l2-.09,2,1.69-1.14,5Z"/><path class="cls-11" d="M167.08,137,164,138.05l-3.09-2.26c1.36-3-1.47-3.57-2.93-4.92l-1-.83,0,0-1.77-3c.27-.61.54-1.22.82-1.82l8-.22q.53,2.52,1.07,5v0l-2.13,1.7,2.92.32C166.27,133.7,166.68,135.34,167.08,137Z"/><path class="cls-16" d="M160.94,135.79l3.09,2.26a3.69,3.69,0,0,0,0,.94c-1.06.64-2.44,2.06-3.12,1.79a74.44,74.44,0,0,1-7.87-4.21l-2.08-1.51-.09.12c.06-.4.13-.8.19-1.2L151,134Z"/><path class="cls-28" d="M155.19,127.05l1.77,3h-6.4c-.46-2.34-.83-4.19-1.25-6.33Z"/><path class="cls-28" d="M157,130l1,.83Z"/><path class="cls-16" d="M151,134a1.7,1.7,0,0,1-.41-.18c-.06-.05,0-.2-.05-.3l.4.53Z"/><path class="cls-28" d="M165.08,130.06q-.54-2.53-1.07-5c4.68-3.73,8.89-2,13,1.12,0,.29,0,.58,0,.86l-4,1Z"/><path class="cls-13" d="M184,133.11l-2,.09-2-2.22-.77-.9,1-1.21,1.65-.92,1.1,1h0l.81,1.11C183.9,131.08,184,132.09,184,133.11Z"/><path class="cls-11" d="M180.28,128.87c-.34.4-.67.8-1,1.21L178,130h0l-1-2v-1c0-.28,0-.57,0-.86Z"/><path class="cls-16" d="M183.85,130.07,183,129l1.85-.06Z"/><path class="cls-16" d="M183,129l-1.1-1Z"/><path class="cls-13" d="M181,111.91l.86-.9Z"/><path class="cls-13" d="M199,111.07l-.44-.46.47.43Z"/><path class="cls-13" d="M141,138a4.68,4.68,0,0,1,0-1l2.65.65-.25,1Z"/><path class="cls-15" d="M150.93,135.06l2.08,1.51Z"/><path class="cls-29" d="M165.08,130.06l7.85-2.05L170,129c0,1.32,0,2.65,0,4,1,2.68,2,5.37,3,8l-2,2,0,0c-4.33,0-2.63-4-3.93-6-.4-1.65-.81-3.29-1.2-4.94-.27-.67-.53-1.35-.8-2Z"/><path class="cls-20" d="M173,141c-1-2.68-2-5.37-3-8,0-1.32,0-2.65,0-4l2.93-1,4-1v1L173,131.63l5,1.38c0,2,0,4,0,6q-2,1-4,2h-1Z"/><path class="cls-29" d="M171,143l.74,1L171,143Z"/><path class="cls-28" d="M178,133l-5-1.38L177,128l1,2c-.44.31-.87.63-1.3.95l.35.35L178,130l1.28.08.77.9c0,.34,0,.67-.07,1Z"/><path class="cls-12" d="M180,132c0-.34.05-.67.07-1l2,2.22c0,.24,0,.49,0,.73Z"/><path class="cls-28" d="M165.08,130c.27.67.53,1.35.8,2l-2.93-.32Z"/><path class="cls-28" d="M170,129c0,1.32,0,2.65,0,4C170,131.64,170,130.31,170,129Z"/><path class="cls-11" d="M178,130l-.95,1.3-.35-.35c.43-.32.86-.64,1.3-.95Z"/></g></g></svg>