<svg xmlns="http://www.w3.org/2000/svg" viewBox="0 0 378.76 654.88"><defs><style>.cls-1{fill:#fefefe;}.cls-2{fill:#0f0f0f;}.cls-3{fill:#c9c9c9;}.cls-4{fill:#0c0c0c;}.cls-5{fill:#0b0b0b;}.cls-6{fill:#090909;}.cls-7{fill:#0a0a0a;}.cls-8{fill:#0d0d0d;}.cls-9{fill:#0e0e0e;}.cls-10{fill:#111;}.cls-11{fill:#fcfcfc;}.cls-12{fill:#f8f8f8;}.cls-13{fill:#fafafa;}.cls-14{fill:#f5f5f5;}.cls-15{fill:#f3f3f3;}.cls-16{fill:#f7f7f7;}.cls-17{fill:#040404;}.cls-18{fill:#fdfdfd;}.cls-19{fill:#fbfbfb;}</style></defs><g id="Layer_2" data-name="Layer 2"><g id="Layer_1-2" data-name="Layer 1"><path class="cls-1" d="M378.76,603v51.85H0V.21H1.14A29.29,29.29,0,0,0,.45,4.72Q.41,233.34.41,462q0,20.81,0,41.61c0,4.08,0,4.08,4.09,4.07H361.8c4.73,0,9.46.06,14.19,0a8.77,8.77,0,0,0,2.41-.73h.36V600c-1.34-1.17-2.65-2.36-4-3.48a15.56,15.56,0,0,1-2.28-1.63,9.83,9.83,0,0,1-1.09-2.56,10.7,10.7,0,0,1,3.24-.72c.71,0,1.38,1,2,1.54a17.09,17.09,0,0,1,1.33,1.6l.58-.29c-.26-1.11-.22-2.48-.87-3.26s-1.93-.8-2.95-1.12a4.64,4.64,0,0,0-5.33,2c-1,1.77-.48,3.57,1.47,5.09,1.43,1.13,3,2.06,4.37,3.28a2.68,2.68,0,0,1,.8,2.24c-.23.74-1.19,1.72-1.87,1.74a6.3,6.3,0,0,1-3.15-1.08,9.71,9.71,0,0,1-1.84-2l-.59.22.38,3.42C372.75,605.87,376.38,607,378.76,603ZM163.33,595.5c1.49,2,1,7.69-1,10.3h6.17c-2.13-2.37-2.33-12.15-.55-15.11-3.3-.71-4.26-.18-5.5,2.87-.93,2.31-1.95,4.58-3.09,7.25a9.21,9.21,0,0,1-1.32-1.57c-1-2-1.91-4.1-2.84-6.16-1.2-2.63-2-3-4.56-2.38,1,5.16,2.09,10.22-.83,15.23h4.64c-2-2.18-2.55-8.37-1-10.5,1.55,3.47,3.07,6.88,4.6,10.28l.58.06Q161,600.64,163.33,595.5Zm153.56-.21.41,0,4.52,11.05c2.87-3.9,3.37-8.44,6.57-11.44-1.31,3.61,1.35,7.89-2.23,11.07H332c-2.94-4.93-1.48-9.9-.88-14.94-2.06-.92-3.13-.63-4.2,1.57-1.36,2.8-2.59,5.66-4,8.79-.49-.85-.86-1.41-1.14-2-1-2.23-2-4.49-3-6.7s-2.73-2.67-4.88-1.6c2.47,2.12,1.15,5,1.26,7.45s.91,5.44-2,7.37h5.53c-2.12-.73-2-2.36-1.93-4s0-3.28,0-4.92A16.4,16.4,0,0,1,316.89,595.29Zm-229.14,49a16.33,16.33,0,0,0,1.16-1.52c.79-1.32.15-4-1.12-4.63-3.4-1.77-7-1.24-10.77-.81,2.17.63,1.84,2.26,1.86,3.74,0,2,.1,4,.12,6,0,1.86.74,4-2.15,4.76,2.61,1.39,10.16.72,12-.87a3.55,3.55,0,0,0,.32-5.33C88.78,645.24,88.31,644.83,87.75,644.3Zm37.83,8H132l.25-.41c-2.71-.87-1.67-3.23-2.19-5-.09-.27.47-1,.77-1.05a1.83,1.83,0,0,1,1.32.67c1.23,1.5,2.33,3.11,3.57,4.6a4,4,0,0,0,4.87,1.16c-.3-.4-.48-.7-.71-1-1.49-1.62-3-3.21-4.47-4.83-1-1.07-1.13-1.86.59-2.41a2.84,2.84,0,0,0,1.81-3.38,4.68,4.68,0,0,0-1.88-2.91c-3.21-1.81-6.71-.72-10.61-.85,3.46,2.15,2.07,5.13,2.09,7.62S128.69,650.1,125.58,652.31Zm70.88-112.93a6.45,6.45,0,0,0-5,.12c.62.73,1.34,1.21,1.51,1.84.94,3.32,0,4.52-3.41,4.6h-.38c-3.7.08-4.17-.35-3.7-4,.1-.85.88-1.61,1.45-2.58h-5c1.51,4.87,1,9.58.36,14.42h4.57c-1.74-2.21-2.24-4.95-.75-6a6.68,6.68,0,0,1,6.18-.08c2,1.33,1.11,4-.64,6.05h4.72a28,28,0,0,1-.78-3.88c-.11-2.32-.12-4.66,0-7A19.38,19.38,0,0,1,196.46,539.38Zm-83,109.08c-2.54,2.48-3.88,3.09-6.48,2.59-.6-.11-1.52-.93-1.52-1.42A25.08,25.08,0,0,1,106,645c0-.1.73-.17,1.08-.09,1.49.34,3,.73,4.75,1.18-.07-1.27-.15-2.6-.25-4.27-.67.47-.93.63-1.17.81a3.71,3.71,0,0,1-4.56.29c-.67-.53-.53-2.28-.46-3.45a1.89,1.89,0,0,1,1.33-1.28c1.9-.12,3.94-.5,5.39,1.36.16.21.66.15,1.09.22v-2.56H100.81c1.64.7,1.87,1.87,1.81,3.33-.09,2.07-.06,4.15-.05,6.23s.47,4.05-1.9,5.58a11,11,0,0,0,1.74.34c2.77,0,5.54,0,8.31-.13C113.74,652.47,114.23,651.73,113.43,648.46Zm160-58.12c-1.64-.15-2.84-.25-4-.37a12.22,12.22,0,0,0-2.59-.28c-3.91.44-6.71,3.61-7.21,8-.38,3.35,1.47,6,5,7.62,2.51,1.12,4.89.68,7.34-.09a2.07,2.07,0,0,0,1.67-2.15c.08-2,.32-4,.49-6h-4.7l1.12,1.23a4.89,4.89,0,0,1,.16,5.13c-1.17,1.44-2.62,1.42-4.26.81-3.56-1.33-4.21-4.28-3.57-8.52a5,5,0,0,1,4.38-4.38c2.12-.34,4,.24,5,2.5.14.33.72.47,1.51.94C273.56,592.85,273.48,591.45,273.42,590.34Zm81.84,5.27-.47-.48c-.89,2.1-2.55,2.14-4.17,1.82-.66-.13-1.61-.82-1.7-1.37a6.06,6.06,0,0,1,.28-3.6c.6-1.09,5.33-.17,6.15.94a4.7,4.7,0,0,0,1,.8,6.08,6.08,0,0,0,.43-1.31c.12-1.26-.5-1.84-1.77-1.87s-2.77-.24-4.15-.19c-1.88.07-3.75.32-5.31.46.72,5.31,1.83,10.2-.81,15.17.72.06,1.38.15,2,.15,2.71,0,5.42,0,8.13,0,2,0,3.36-2.44,2.27-4.46-.62.67-1.17,1.35-1.81,1.92a5.42,5.42,0,0,1-5.66,1.1c-1.73-.68-.86-2.64-1-4.07,0-.13,0-.25,0-.38,0-1.18.72-1.82,1.82-1.63,1.54.25,3,.74,4.66,1.16ZM194.68,652.1l4-.26c-.74-1.24-1.57-2-1.62-2.82-.17-2.7-.07-5.43-.07-8.15l.39-.28,9.83,12a14.13,14.13,0,0,0,.42-2c.06-2.52,0-5,.11-7.56.09-1.86.43-3.71.67-5.67h-4.07c2.09,1.61,2.68,6.43.92,9.26a19,19,0,0,1-1.09-1.7c-1.62-2.16-3.29-4.29-5-6.43-1.33-1.71-2.72-2-4.74-.89C195.87,639,196.08,647.58,194.68,652.1ZM8,599.35l3.34,5-1.77.81.3.59h6.19c-1.91-2.56-3.68-5-5.52-7.35a1.56,1.56,0,0,1,.2-2.41c1.68-1.72,3.24-3.56,5-5.48H11.17c2,2.4-.44,3.15-1.34,4.42a1.5,1.5,0,0,1-1.42.25c-1.11-.54-2.07-3.19-1.79-4.42H1.73l5.68,7.48-7,7.86c2.2-.46,4,.67,5.75-1-2.07-.84-1.7-1.88-.56-3.06C6.38,601.32,7,600.48,8,599.35Zm79.81-1.52c0-4.43-3.24-8-7.31-8-4.77,0-7.9,3.23-7.87,8.19a7.72,7.72,0,0,0,7.55,7.82C84.8,605.77,87.81,602.64,87.81,597.83Zm128.12-54.09c-1.5,1.36-4.49,2.17-5.17,1.45-1.39-1.5-.71-3.24-.34-5a22.71,22.71,0,0,1,3.52,0,21.92,21.92,0,0,1,3.21,1.06c.53-1.49-.14-2.55-1.63-2.5-2.13.06-4.26,0-6.38.07a28.11,28.11,0,0,0-2.79.39c1.8,2.54,1.74,11.49.06,14.34a16.21,16.21,0,0,0,2.07.28c2.26,0,4.53,0,6.8,0,2.12,0,2.85-.53,3-2.63a3.09,3.09,0,0,0-.37-1.11,3.87,3.87,0,0,0-.9.68c-1.1,1.56-4.6,2.4-6.33,1.45-.24-.14-.56-.46-.56-.7,0-1.44,0-2.88.17-4.31,0-.27.6-.68.92-.69,1.64-.05,3.45-.48,4.73,1.45Zm75.5,62.13c-.19-.43-.39-.87-.58-1.31-.81-1.9.08-3.29,2.14-3.35a18,18,0,0,1,3.2,0c.55.08,1.41.58,1.48,1a24.15,24.15,0,0,1,.07,3.83h4.82c-2.47-5.34-4.87-10.53-7.28-15.72l-.74.06c-2.29,5.09-4.59,10.18-7,15.49ZM235,603.34l-.3-.68c-.8.36-1.6.71-2.39,1.08a5.25,5.25,0,0,1-7.64-3.36,8.49,8.49,0,0,1,1-7.07c1.66-2.77,5.9-2.62,7.62.15.29.48.64.92,1,1.38l.66-.2c-.09-1.41-.18-2.82-.28-4.29-2.37-.16-4.53-.63-6.6-.37a7.83,7.83,0,0,0-6.77,8.41,7.67,7.67,0,0,0,7.57,7.62C231.23,606.1,233.59,605.51,235,603.34Zm-48.79,2.43c-1.82-1.68-2.57-3.94-1.9-5.73s2.29-.75,3.47-1.08c.36-.1.76-.05,1.11-.16,1.41-.44,2.63-1.27,2.71-2.81.06-1.29.06-2.94-.66-3.85-1.58-2-7.94-2.57-10-1.5a22.55,22.55,0,0,1,1,3.82c.15,2.13,0,4.28,0,6.43,0,1.77.26,3.59-2.07,4.39l.24.49Zm114.49,29.61-3.1,1.45a11.35,11.35,0,0,0-2.18,1.08,9.76,9.76,0,0,0-2.83,11.55c1.54,3.7,6.88,3.21,8.37.84a6.35,6.35,0,0,0,.39-6.13,3.47,3.47,0,0,0-4.08-2.23,1.79,1.79,0,0,1-1.53-.8,1.88,1.88,0,0,1,.59-1.58c1.08-.92,2.33-1.64,3.43-2.53C300.17,636.74,300.31,636.16,300.74,635.38Zm-136.56,12c-1.07,3.4-3.31,3.83-6,3.67-1.57-.08-2.13-.7-2.11-2.17,0-2.77,0-5.54,0-8.31,0-1.38-.09-2.79,2.12-2.93l-.37-.49h-6.08c2.07,2.19,2.07,11.1,0,15.16.67.08,1.27.22,1.87.23,2.71,0,5.42,0,8.13,0C164.18,652.6,165.48,650.35,164.18,647.42Zm89.95,4.8c5.62.15,10.34-5.51,9.47-10.61-.6-3.53-2-5-5.3-5.58.28.45.52.77.7,1.12a30.22,30.22,0,0,1,2.29,4.59,2.37,2.37,0,0,1-1.64,3.14,3.9,3.9,0,0,1-3-1.55c-1.08-1.54-.76-3.36.24-5,.3-.5.62-1,.93-1.47l-.39-.5c-.91.5-2.37.81-2.64,1.55a12.25,12.25,0,0,0-.76,5.28c.22,2.13,2.05,3.23,4.2,3.28a9.69,9.69,0,0,1,2.06.51,7.06,7.06,0,0,1-1.22,1.76C257.61,649.9,256.05,650.89,254.13,652.22Zm-95-109.64.7,0c.22-.43.48-.85.67-1.29.73-1.72,2.26-1.13,3.45-1,.4,0,.93,1.27,1,2,.12,2.52,0,5,.06,7.56,0,1.55-.18,2.86-1.79,3.78h5.55c-.46-1.11-1.23-2.15-1.28-3.23-.15-3,0-5.93.1-8.88a1.82,1.82,0,0,1,1.21-1.22c1.91-.36,3.57,0,3.85,2.65l.77-.42-.24-3.77c-4.25,0-8,0-11.66,0-.79,0-2.06.24-2.26.71A8.74,8.74,0,0,0,159.14,542.58Zm123,94.47h-6.41c-2.6,0-3.1.61-2.75,3.38,1.83-.88,3.66-1.73,5.81-.63l-2.17,4.77c.68.08,1.11.11,1.53.19,2.42.51,3,1.82,2.11,4.1s-2.91,2.54-4.88,3c-.87.2-1.7.57-3,1a7.42,7.42,0,0,0,9.64-3.06c1.57-2.65.93-5.55-2.25-7.66C280.48,640.56,281.24,639,282.12,637.05ZM135.76,605.81c-2.47-1.95-2.6-2-2.38-4.83.34-4.3,3.33-7.06,6-10.24h-3.56l.48.31-3.07,6.14-.6-.08c-1-2.1-3.79-3.4-2.55-6.45h-5.28c1.72,2.27,3.27,4.4,4.9,6.47a6.85,6.85,0,0,1,1.15,6.23c-.23.87-1.17,1.55-1.88,2.45Zm-22.89-4.45c-1,2.92-3.4,3.13-5.62,3.49-1.72.28-2.75-.72-2.79-2.49,0-2-.11-3.91,0-5.85.11-1.57.56-3.12.75-4.7,0-.4-.29-1.19-.52-1.22a28.23,28.23,0,0,0-3.14-.05c.48,5.47,1.82,10.45-.82,15.43a9.31,9.31,0,0,0,1.35.15c2.88,0,5.77,0,8.65,0C112.93,606.06,114.16,603.73,112.87,601.36Zm67.82,51,.2-.53c-2.06-.65-2-2.12-1.86-3.78.16-2.32-.06-4.66.09-7a21.9,21.9,0,0,1,.91-3.87H174.4c1.79.64,2,1.86,1.93,3.4-.1,2.26,0,4.53,0,6.8,0,1.85.47,3.95-2.57,4.45l.47.5ZM29.32,605.84c-2.18-2.71-2.44-7.39-1-15.05H24.27a26.18,26.18,0,0,1,.48,3.41c0,2.53.05,5-.12,7.57a26.82,26.82,0,0,1-.9,4.07Zm173.79-.45.44.64h6.23l.47-.48c-2.79-.74-2.6-2.72-2.54-4.69,0-1.7,0-3.41,0-5.11s-.33-3.77,1.78-5.1h-5.07a28.38,28.38,0,0,1,.88,4c.16,2,.06,4,.08,6.05C205.36,602.57,206,604.64,203.11,605.39Zm39.85,47c-.7-1.09-1.7-1.94-1.75-2.84-.13-2.87.15-5.75.17-8.63,0-4.57-.28-4.73-4.26-2.55-.07,0-.07.22-.19.59,2.8-.05,2.28,2,2.27,3.69s0,3.39,0,5.09-.11,3.39-1.87,4.65ZM43.07,592.08c.91-.85.77-1.91-.42-2.19a20.61,20.61,0,0,0-5.65-.47c-1.09.05-1.32,1.27-.69,2.24l2.4-1.66v8.48h2c-.07-1.86-.23-3.62-.17-5.38a11.06,11.06,0,0,1,.67-2.6Zm12,6.33v-8.63l-2.68-.31c.28,1.69,1.49,3.38-.73,4.17A8.13,8.13,0,0,1,52.9,596a7.77,7.77,0,0,1-.47,2.58Zm-5.47.1v-9.15l-2.32.15v9c.52.06,1.19.14,1.87.19A1.2,1.2,0,0,0,49.55,598.51Zm166.26,56.06c2.08-.59,3.26-2.35,2.87-3.75a2,2,0,0,0-2.57-1.57c-.38.1-.54,1.08-.8,1.65C217.12,651.64,216.87,652.91,215.81,654.57Z"/><path class="cls-2" d="M378.4,506.92a8.77,8.77,0,0,1-2.41.73c-4.73.05-9.46,0-14.19,0H4.49c-4.12,0-4.1,0-4.09-4.07q0-20.81,0-41.61,0-228.63,0-457.24A29.29,29.29,0,0,1,1.14.21H2.65A14.23,14.23,0,0,0,4.87.56L374.32.6c1.48,0,3,.24,4.44.37v.76c-.12,1.38-.35,2.76-.35,4.14q0,191.15,0,382.27ZM2.27,254.32V500.67c0,5.26,0,5.26,5.34,5.26h365c.56,0,1.13,0,1.7,0,1.58.12,2.35-.51,2.25-2.18-.07-1.19,0-2.4,0-3.59V5.57c0-3.09,0-3.09-3.13-3.09h-343C22,2.47,13.64,2.37,5.26,2.4c-3,0-3,.11-3,3.12Z"/><path class="cls-3" d="M378.4,506.92V388.14q0-191.13,0-382.27c0-1.38.23-2.76.35-4.14V506.92h-.36Z"/><path class="cls-1" d="M378.76,1c-1.48-.13-3-.37-4.44-.37L4.87.56A14.23,14.23,0,0,1,2.65.21q187.2,0,374.41.06C377.54.27,378.81-.67,378.76,1Z"/><path class="cls-4" d="M378.76,603c-2.38,4-6,2.84-9.82,2l-.38-3.42.59-.22a9.71,9.71,0,0,0,1.84,2,6.3,6.3,0,0,0,3.15,1.08c.68,0,1.64-1,1.87-1.74a2.68,2.68,0,0,0-.8-2.24c-1.35-1.22-2.94-2.15-4.37-3.28-1.95-1.52-2.43-3.32-1.47-5.09a4.64,4.64,0,0,1,5.33-2c1,.32,2.36.41,2.95,1.12s.61,2.15.87,3.26l-.58.29a17.09,17.09,0,0,0-1.33-1.6c-.62-.59-1.29-1.49-2-1.54a10.7,10.7,0,0,0-3.24.72,9.83,9.83,0,0,0,1.09,2.56,15.56,15.56,0,0,0,2.28,1.63c1.37,1.12,2.68,2.31,4,3.48Z"/><path class="cls-5" d="M163.33,595.5q-2.36,5.14-4.72,10.27l-.58-.06c-1.53-3.4-3.05-6.81-4.6-10.28-1.56,2.13-1,8.32,1,10.5h-4.64c2.92-5,1.88-10.07.83-15.23,2.54-.64,3.36-.25,4.56,2.38.93,2.06,1.85,4.13,2.84,6.16a9.21,9.21,0,0,0,1.32,1.57c1.14-2.67,2.16-4.94,3.09-7.25,1.24-3,2.2-3.58,5.5-2.87-1.78,3-1.58,12.74.55,15.11H162.3C164.33,603.19,164.82,597.54,163.33,595.5Z"/><path class="cls-6" d="M316.89,595.29a16.4,16.4,0,0,0-.2,1.7c0,1.64,0,3.28,0,4.92s-.19,3.23,1.93,4h-5.53c2.94-1.93,2.15-4.8,2-7.37s1.21-5.33-1.26-7.45c2.15-1.07,3.84-.57,4.88,1.6s2,4.47,3,6.7c.28.61.65,1.17,1.14,2,1.43-3.13,2.66-6,4-8.79,1.07-2.2,2.14-2.49,4.2-1.57-.6,5-2.06,10,.88,14.94h-5.82c3.58-3.18.92-7.46,2.23-11.07-3.2,3-3.7,7.54-6.57,11.44l-4.52-11.05Z"/><path class="cls-7" d="M87.75,644.3c.56.53,1,.94,1.45,1.38a3.55,3.55,0,0,1-.32,5.33c-1.87,1.59-9.42,2.26-12,.87,2.89-.74,2.16-2.9,2.15-4.76,0-2-.09-4-.12-6,0-1.48.31-3.11-1.86-3.74,3.78-.43,7.37-1,10.77.81,1.27.65,1.91,3.31,1.12,4.63A16.33,16.33,0,0,1,87.75,644.3Zm-6.08,3.35c.15,1.4-.64,3.29,1.74,3.48,1.8.13,3.72-1.47,3.8-3,.1-2-1.23-3-3.81-3.19C81,644.79,81.92,646.55,81.67,647.65Zm0-6.78c.25,1-.66,2.73,1.67,2.66s3.64-.95,3.64-2.41-1.88-2.92-3.55-3C81.23,638,81.77,639.54,81.69,640.87Z"/><path class="cls-6" d="M125.58,652.31c3.11-2.21,1.83-5.16,1.82-7.7s1.37-5.47-2.09-7.62c3.9.13,7.4-1,10.61.85a4.68,4.68,0,0,1,1.88,2.91,2.84,2.84,0,0,1-1.81,3.38c-1.72.55-1.56,1.34-.59,2.41,1.47,1.62,3,3.21,4.47,4.83.23.25.41.55.71,1a4,4,0,0,1-4.87-1.16c-1.24-1.49-2.34-3.1-3.57-4.6a1.83,1.83,0,0,0-1.32-.67c-.3,0-.86.78-.77,1.05.52,1.73-.52,4.09,2.19,5l-.25.41Zm4.1-11.52c.57,1.38.73,2.68,1.45,3.19.49.35,1.86-.22,2.66-.68a2.62,2.62,0,0,0,1.13-3.58,2.74,2.74,0,0,0-3.41-1.63C130.68,638.4,130.28,639.85,129.68,640.79Z"/><path class="cls-2" d="M196.46,539.38a19.38,19.38,0,0,0-.89,3.48c-.12,2.33-.11,4.67,0,7a28,28,0,0,0,.78,3.88h-4.72c1.75-2.08,2.6-4.72.64-6.05a6.68,6.68,0,0,0-6.18.08c-1.49,1.06-1,3.8.75,6h-4.57c.6-4.84,1.15-9.55-.36-14.42h5c-.57,1-1.35,1.73-1.45,2.58-.47,3.67,0,4.1,3.7,4h.38c3.41-.08,4.35-1.28,3.41-4.6-.17-.63-.89-1.11-1.51-1.84A6.45,6.45,0,0,1,196.46,539.38Z"/><path class="cls-8" d="M113.43,648.46c.8,3.27.31,4-2.71,4.1-2.77.09-5.54.11-8.31.13a11,11,0,0,1-1.74-.34c2.37-1.53,1.9-3.61,1.9-5.58s0-4.16.05-6.23c.06-1.46-.17-2.63-1.81-3.33h12.41v2.56c-.43-.07-.93,0-1.09-.22-1.45-1.86-3.49-1.48-5.39-1.36a1.89,1.89,0,0,0-1.33,1.28c-.07,1.17-.21,2.92.46,3.45a3.71,3.71,0,0,0,4.56-.29c.24-.18.5-.34,1.17-.81.1,1.67.18,3,.25,4.27-1.79-.45-3.26-.84-4.75-1.18-.35-.08-1.06,0-1.08.09a25.08,25.08,0,0,0-.59,4.63c0,.49.92,1.31,1.52,1.42C109.55,651.55,110.89,650.94,113.43,648.46Z"/><path class="cls-7" d="M273.42,590.34c.06,1.11.14,2.51.25,4.4-.79-.47-1.37-.61-1.51-.94-1-2.26-2.83-2.84-5-2.5a5,5,0,0,0-4.38,4.38c-.64,4.24,0,7.19,3.57,8.52,1.64.61,3.09.63,4.26-.81a4.89,4.89,0,0,0-.16-5.13L269.38,597h4.7c-.17,2.07-.41,4.05-.49,6a2.07,2.07,0,0,1-1.67,2.15c-2.45.77-4.83,1.21-7.34.09-3.52-1.57-5.37-4.27-5-7.62.5-4.39,3.3-7.56,7.21-8a12.22,12.22,0,0,1,2.59.28C270.58,590.09,271.78,590.19,273.42,590.34Z"/><path class="cls-9" d="M355.26,595.61v4.15c-1.62-.42-3.12-.91-4.66-1.16-1.1-.19-1.78.45-1.82,1.63,0,.13,0,.25,0,.38.14,1.43-.73,3.39,1,4.07a5.42,5.42,0,0,0,5.66-1.1c.64-.57,1.19-1.25,1.81-1.92,1.09,2-.24,4.47-2.27,4.46-2.71,0-5.42,0-8.13,0-.66,0-1.32-.09-2-.15,2.64-5,1.53-9.86.81-15.17,1.56-.14,3.43-.39,5.31-.46,1.38-.05,2.77.17,4.15.19s1.89.61,1.77,1.87a6.08,6.08,0,0,1-.43,1.31,4.7,4.7,0,0,1-1-.8c-.82-1.11-5.55-2-6.15-.94a6.06,6.06,0,0,0-.28,3.6c.09.55,1,1.24,1.7,1.37,1.62.32,3.28.28,4.17-1.82Z"/><path class="cls-4" d="M194.68,652.1c1.4-4.52,1.19-13.14-.19-14.55,2-1.08,3.41-.82,4.74.89,1.66,2.14,3.33,4.27,5,6.43a19,19,0,0,0,1.09,1.7c1.76-2.83,1.17-7.65-.92-9.26h4.07c-.24,2-.58,3.81-.67,5.67-.13,2.51-.05,5-.11,7.56a14.13,14.13,0,0,1-.42,2l-9.83-12-.39.28c0,2.72-.1,5.45.07,8.15.05.82.88,1.58,1.62,2.82Z"/><path class="cls-4" d="M8,599.35c-1,1.13-1.62,2-2.36,2.73-1.14,1.18-1.51,2.22.56,3.06-1.72,1.64-3.55.51-5.75,1l7-7.86-5.68-7.48H6.62c-.28,1.23.68,3.88,1.79,4.42a1.5,1.5,0,0,0,1.42-.25c.9-1.27,3.34-2,1.34-4.42h4.55c-1.74,1.92-3.3,3.76-5,5.48a1.56,1.56,0,0,0-.2,2.41c1.84,2.37,3.61,4.79,5.52,7.35H9.87l-.3-.59,1.77-.81Z"/><path class="cls-5" d="M87.81,597.83c0,4.81-3,7.94-7.63,8A7.72,7.72,0,0,1,72.63,598c0-5,3.1-8.23,7.87-8.19C84.57,589.83,87.82,593.4,87.81,597.83Zm-3-.05c-.16-1.33-.2-2.28-.41-3.19a4.49,4.49,0,0,0-3.58-3.42,4.66,4.66,0,0,0-4.56,2.41,10.62,10.62,0,0,0-.18,8.26,4.72,4.72,0,0,0,4,3c1.68.15,3.7-1.66,4.16-3.56C84.57,600,84.68,598.71,84.82,597.78Z"/><path class="cls-5" d="M215.93,543.74V548c-1.28-1.93-3.09-1.5-4.73-1.45-.32,0-.89.42-.92.69-.14,1.43-.17,2.87-.17,4.31,0,.24.32.56.56.7,1.73,1,5.23.11,6.33-1.45a3.87,3.87,0,0,1,.9-.68,3.09,3.09,0,0,1,.37,1.11c-.14,2.1-.87,2.67-3,2.63-2.27,0-4.54,0-6.8,0a16.21,16.21,0,0,1-2.07-.28c1.68-2.85,1.74-11.8-.06-14.34a28.11,28.11,0,0,1,2.79-.39c2.12-.07,4.25,0,6.38-.07,1.49,0,2.16,1,1.63,2.5a21.92,21.92,0,0,0-3.21-1.06,22.71,22.71,0,0,0-3.52,0c-.37,1.79-1,3.53.34,5C211.44,545.91,214.43,545.1,215.93,543.74Z"/><path class="cls-5" d="M291.43,605.87h-3.88c2.4-5.31,4.7-10.4,7-15.49l.74-.06c2.41,5.19,4.81,10.38,7.28,15.72h-4.82a24.15,24.15,0,0,0-.07-3.83c-.07-.43-.93-.93-1.48-1a18,18,0,0,0-3.2,0c-2.06.06-2.95,1.45-2.14,3.35C291,605,291.24,605.44,291.43,605.87Zm3-11-.93.15c-.3,1.52-.6,3-.89,4.55h4.19C295.85,597.78,295.12,596.35,294.4,594.92Z"/><path class="cls-4" d="M235,603.34c-1.45,2.17-3.81,2.76-6.17,2.67a7.67,7.67,0,0,1-7.57-7.62,7.83,7.83,0,0,1,6.77-8.41c2.07-.26,4.23.21,6.6.37.1,1.47.19,2.88.28,4.29l-.66.2c-.33-.46-.68-.9-1-1.38-1.72-2.77-6-2.92-7.62-.15a8.49,8.49,0,0,0-1,7.07,5.25,5.25,0,0,0,7.64,3.36c.79-.37,1.59-.72,2.39-1.08Z"/><path class="cls-8" d="M186.25,605.77H180.2l-.24-.49c2.33-.8,2.1-2.62,2.07-4.39,0-2.15.11-4.3,0-6.43a22.55,22.55,0,0,0-1-3.82c2-1.07,8.38-.51,10,1.5.72.91.72,2.56.66,3.85-.08,1.54-1.3,2.37-2.71,2.81-.35.11-.75.06-1.11.16-1.18.33-2.84-.58-3.47,1.08S184.43,604.09,186.25,605.77Zm-2-11.13c.25,1.31-.75,3.18,1.71,3.24a3.18,3.18,0,0,0,3.28-2.91c.15-2.23-1.8-3.28-3.75-3.31C183.31,591.61,184.81,593.71,184.24,594.64Z"/><path class="cls-8" d="M300.74,635.38c-.43.78-.57,1.36-.94,1.65-1.1.89-2.35,1.61-3.43,2.53a1.88,1.88,0,0,0-.59,1.58,1.79,1.79,0,0,0,1.53.8,3.47,3.47,0,0,1,4.08,2.23,6.35,6.35,0,0,1-.39,6.13c-1.49,2.37-6.83,2.86-8.37-.84a9.76,9.76,0,0,1,2.83-11.55,11.35,11.35,0,0,1,2.18-1.08Zm-1,11.92a10.77,10.77,0,0,0-.63-2.34,2.8,2.8,0,0,0-3.29-1.56c-1.58.29-1.7,1.56-1.61,2.76a7.2,7.2,0,0,0,.8,3.05c.48.83,1.72,2.08,2.14,1.92.95-.37,1.64-1.47,2.33-2.35C299.69,648.48,299.62,647.93,299.72,647.3Z"/><path class="cls-4" d="M164.18,647.42c1.3,2.93,0,5.18-2.39,5.2-2.71,0-5.42,0-8.13,0-.6,0-1.2-.15-1.87-.23,2-4.06,2-13,0-15.16h6.08l.37.49c-2.21.14-2.12,1.55-2.12,2.93,0,2.77,0,5.54,0,8.31,0,1.47.54,2.09,2.11,2.17C160.87,651.25,163.11,650.82,164.18,647.42Z"/><path class="cls-8" d="M254.13,652.22c1.92-1.33,3.48-2.32,4.92-3.45a7.06,7.06,0,0,0,1.22-1.76,9.69,9.69,0,0,0-2.06-.51c-2.15,0-4-1.15-4.2-3.28a12.25,12.25,0,0,1,.76-5.28c.27-.74,1.73-1.05,2.64-1.55l.39.5c-.31.49-.63,1-.93,1.47-1,1.61-1.32,3.43-.24,5a3.9,3.9,0,0,0,3,1.55,2.37,2.37,0,0,0,1.64-3.14,30.22,30.22,0,0,0-2.29-4.59c-.18-.35-.42-.67-.7-1.12,3.32.55,4.7,2.05,5.3,5.58C264.47,646.71,259.75,652.37,254.13,652.22Z"/><path class="cls-9" d="M159.14,542.58a8.74,8.74,0,0,1,.1-3.08c.2-.47,1.47-.7,2.26-.71,3.7-.07,7.41,0,11.66,0l.24,3.77-.77.42c-.28-2.66-1.94-3-3.85-2.65a1.82,1.82,0,0,0-1.21,1.22c-.14,3-.25,5.92-.1,8.88.05,1.08.82,2.12,1.28,3.23H163.2c1.61-.92,1.84-2.23,1.79-3.78-.07-2.52.06-5-.06-7.56,0-.71-.57-1.94-1-2-1.19-.12-2.72-.71-3.45,1-.19.44-.45.86-.67,1.29Z"/><path class="cls-7" d="M282.12,637.05c-.88,1.9-1.64,3.51-2.38,5.11,3.18,2.11,3.82,5,2.25,7.66a7.42,7.42,0,0,1-9.64,3.06c1.31-.45,2.14-.82,3-1,2-.45,4-.74,4.88-3s.31-3.59-2.11-4.1c-.42-.08-.85-.11-1.53-.19l2.17-4.77c-2.15-1.1-4-.25-5.81.63-.35-2.77.15-3.37,2.75-3.38Z"/><path class="cls-7" d="M135.76,605.81H129c.71-.9,1.65-1.58,1.88-2.45a6.85,6.85,0,0,0-1.15-6.23c-1.63-2.07-3.18-4.2-4.9-6.47h5.28c-1.24,3.05,1.57,4.35,2.55,6.45l.6.08,3.07-6.14-.48-.31h3.56c-2.71,3.18-5.7,5.94-6,10.24C133.16,603.84,133.29,603.86,135.76,605.81Z"/><path class="cls-7" d="M112.87,601.36c1.29,2.37.06,4.7-2.11,4.72-2.88,0-5.77,0-8.65,0a9.31,9.31,0,0,1-1.35-.15c2.64-5,1.3-10,.82-15.43a28.23,28.23,0,0,1,3.14.05c.23,0,.56.82.52,1.22-.19,1.58-.64,3.13-.75,4.7-.14,1.94-.07,3.9,0,5.85,0,1.77,1.07,2.77,2.79,2.49C109.47,604.49,111.87,604.28,112.87,601.36Z"/><path class="cls-6" d="M180.69,652.4H174.2l-.47-.5c3-.5,2.55-2.6,2.57-4.45,0-2.27-.07-4.54,0-6.8.06-1.54-.14-2.76-1.93-3.4H180a21.9,21.9,0,0,0-.91,3.87c-.15,2.31.07,4.65-.09,7-.11,1.66-.2,3.13,1.86,3.78Z"/><path class="cls-4" d="M29.32,605.84H23.73a26.82,26.82,0,0,0,.9-4.07c.17-2.52.16-5,.12-7.57a26.18,26.18,0,0,0-.48-3.41h4.05C26.88,598.45,27.14,603.13,29.32,605.84Z"/><path class="cls-6" d="M203.11,605.39c2.89-.75,2.25-2.82,2.24-4.66,0-2,.08-4.05-.08-6.05a28.38,28.38,0,0,0-.88-4h5.07c-2.11,1.33-1.79,3.26-1.78,5.1s.08,3.41,0,5.11c-.06,2-.25,3.95,2.54,4.69l-.47.48h-6.23Z"/><path class="cls-9" d="M243,652.38h-5.62c1.76-1.26,1.92-2.89,1.87-4.65s0-3.39,0-5.09.53-3.74-2.27-3.69c.12-.37.12-.55.19-.59,4-2.18,4.28-2,4.26,2.55,0,2.88-.3,5.76-.17,8.63C241.26,650.44,242.26,651.29,243,652.38Z"/><path class="cls-10" d="M43.07,592.08l-1.9-1.58a11.06,11.06,0,0,0-.67,2.6c-.06,1.76.1,3.52.17,5.38h-2V590l-2.4,1.66c-.63-1-.4-2.19.69-2.24a20.61,20.61,0,0,1,5.65.47C43.84,590.17,44,591.23,43.07,592.08Z"/><path class="cls-4" d="M55,598.41l-2.59.13A7.77,7.77,0,0,0,52.9,596a8.13,8.13,0,0,0-1.29-2.32c2.22-.79,1-2.48.73-4.17l2.68.31Z"/><path class="cls-2" d="M49.55,598.51a1.2,1.2,0,0,1-.45.16c-.68,0-1.35-.13-1.87-.19v-9l2.32-.15Z"/><path class="cls-9" d="M215.81,654.57c1.06-1.66,1.31-2.93-.5-3.67.26-.57.42-1.55.8-1.65a2,2,0,0,1,2.57,1.57C219.07,652.22,217.89,654,215.81,654.57Z"/><path class="cls-11" d="M2.27,254.32V5.52c0-3,0-3.11,3-3.12,8.38,0,16.77.07,25.15.08h343c3.13,0,3.13,0,3.13,3.09V500.16c0,1.19-.1,2.4,0,3.59.1,1.67-.67,2.3-2.25,2.18-.57,0-1.14,0-1.7,0H7.61c-5.34,0-5.34,0-5.34-5.26Zm366,.38h.09q0-120.15,0-240.29c0-.75-.07-1.51-.13-2.26-.08-1.08-.61-1.49-1.74-1.45-2.83.12-5.67.13-8.5.13H27.25c-4.35,0-8.69-.12-13-.2a1.56,1.56,0,0,0-1.8,1.69c0,1.33,0,2.65,0,4q-.06,229.32-.11,458.64c0,6.75-.09,13.5-.16,20.24,0,1.36.17,2.32,1.92,2.3,5.36-.07,10.72,0,16.08,0H361c1.89,0,3.79,0,5.68,0,1.07,0,1.62-.34,1.59-1.54-.06-2.89,0-5.8,0-8.7Z"/><path class="cls-12" d="M81.67,647.65c.25-1.1-.66-2.86,1.73-2.7,2.58.17,3.91,1.22,3.81,3.19-.08,1.52-2,3.12-3.8,3C81,650.94,81.82,649.05,81.67,647.65Z"/><path class="cls-13" d="M81.69,640.87c.08-1.33-.46-2.91,1.76-2.77,1.67.1,3.54,1.62,3.55,3s-1.44,2.35-3.64,2.41S81.94,641.87,81.69,640.87Z"/><path class="cls-14" d="M129.68,640.79c.6-.94,1-2.39,1.83-2.7a2.74,2.74,0,0,1,3.41,1.63,2.62,2.62,0,0,1-1.13,3.58c-.8.46-2.17,1-2.66.68C130.41,643.47,130.25,642.17,129.68,640.79Z"/><path class="cls-13" d="M84.82,597.78c-.14.93-.25,2.25-.56,3.51-.46,1.9-2.48,3.71-4.16,3.56a4.72,4.72,0,0,1-4-3,10.62,10.62,0,0,1,.18-8.26,4.66,4.66,0,0,1,4.56-2.41,4.49,4.49,0,0,1,3.58,3.42C84.62,595.5,84.66,596.45,84.82,597.78Z"/><path class="cls-15" d="M294.4,594.92c.72,1.43,1.45,2.86,2.37,4.7h-4.19c.29-1.52.59-3,.89-4.55Z"/><path class="cls-16" d="M184.24,594.64c.57-.93-.93-3,1.24-3,2,0,3.9,1.08,3.75,3.31a3.18,3.18,0,0,1-3.28,2.91C183.49,597.82,184.49,596,184.24,594.64Z"/><path class="cls-14" d="M299.72,647.3c-.1.63,0,1.18-.26,1.48-.69.88-1.38,2-2.33,2.35-.42.16-1.66-1.09-2.14-1.92a7.2,7.2,0,0,1-.8-3.05c-.09-1.2,0-2.47,1.61-2.76a2.8,2.8,0,0,1,3.29,1.56A10.77,10.77,0,0,1,299.72,647.3Z"/><path class="cls-17" d="M368.24,254.7V487.23c0,2.9,0,5.81,0,8.7,0,1.2-.52,1.56-1.59,1.54-1.89,0-3.79,0-5.68,0H30.13c-5.36,0-10.72,0-16.08,0-1.75,0-1.94-.94-1.92-2.3.07-6.74.15-13.49.16-20.24q.06-229.32.11-458.64c0-1.32,0-2.64,0-4a1.56,1.56,0,0,1,1.8-1.69c4.35.08,8.69.2,13,.2H358c2.83,0,5.67,0,8.5-.13,1.13,0,1.66.37,1.74,1.45.06.75.13,1.51.13,2.26q0,120.15,0,240.29ZM14.06,12.85V492.1c0,3.67,0,3.67,3.74,3.67H358.7c1.89,0,3.78-.18,5.67-.08,1.72.1,2.14-.66,2.13-2.22,0-5.68.07-11.35.07-17q0-170.74,0-341.49,0-59.61,0-119.2c0-1-.14-1.94-.22-2.9Z"/><path class="cls-18" d="M14.06,12.85H366.35c.08,1,.22,1.93.22,2.9q0,59.6,0,119.2,0,170.75,0,341.49c0,5.68-.09,11.35-.07,17,0,1.56-.41,2.32-2.13,2.22-1.89-.1-3.78.08-5.67.08H17.8c-3.74,0-3.74,0-3.74-3.67V12.85ZM202.49,60.46c-7.35-.15-14.46-.32-21.57-.37-.39,0-1.11,1-1.12,1.51-.05,1.56.22,3.13.29,4.71.06,1.1-.45,1.67-1.63,1.38-.49-.12-1-.22-1.47-.35-7.68-2.17-15.43-3.74-23.48-2.83a20.41,20.41,0,0,0-16.12,10.73c-3.57,6.24-3.27,13-1.7,19.68A274.23,274.23,0,0,0,148,133.11c1.4,3.54,1.41,3.53-2.08,4.6-.12,0-.23.1-.35.14a142.17,142.17,0,0,0-23.18,10.43A62.55,62.55,0,0,0,107.85,159c-6,6-10.17,13.19-10.85,21.69-1.44,18.22-2.64,36.47-3.45,54.73-1.07,23.69-1.64,47.39-2.48,71.09-.21,6-.31,11.91-2,17.76A55.53,55.53,0,0,1,76.33,347,107.71,107.71,0,0,1,49,368.78c-1.86,1-2.36,2.67-2.36,4.6q0,12.78,0,25.54c0,.63.13,1.26.1,1.89-.07,1.24.54,1.82,1.61,2.41,6.94,3.76,14.43,5.78,22.07,7.46,18.26,4,36.5,8.11,55.07,10.44A359,359,0,0,0,172.59,424a3.26,3.26,0,0,1,2.75,1.17c5.73,6.32,12.75,8.91,21.06,6.31,4-1.26,8-3.11,10.27-7.12a2.33,2.33,0,0,1,1.74-.82c6.42-.28,12.86-.23,19.26-.74,12.43-1,24.94-1.64,37.23-3.63,15.88-2.57,31.57-6.33,47.35-9.56a105.28,105.28,0,0,0,20.36-6.76,4.42,4.42,0,0,0,3.06-4.75c-.17-8.38-.12-16.77,0-25.16a4.6,4.6,0,0,0-2.38-4.48c-4.8-3-9.76-5.84-14.16-9.37a159.65,159.65,0,0,1-13.65-12.76c-8.37-8.5-12.61-19.11-14-30.7-.9-7.41-.53-15-.77-22.47-.42-13.43-.72-26.86-1.35-40.27q-1.49-31.26-3.4-62.51a79.71,79.71,0,0,0-2-15c-2.14-8.29-7.13-14.93-13.77-20.29-10.49-8.46-22.71-13.58-35.29-17.95-2.4-.83-2.4-.72-1.59-3.05,3.42-9.78,6.93-19.53,10.19-29.37,2.15-6.52,3.74-13.14,3.59-20.16-.24-10.94-7.89-18.13-17.4-20.12-7.15-1.5-14.15-.28-21.07,1.67-2.09.59-4.2,1.11-6.63,1.75C202.18,65.21,202.33,62.91,202.49,60.46Z"/><path class="cls-9" d="M202.49,60.46c-.16,2.45-.31,4.75-.49,7.47,2.43-.64,4.54-1.16,6.63-1.75,6.92-2,13.92-3.17,21.07-1.67,9.51,2,17.16,9.18,17.4,20.12.15,7-1.44,13.64-3.59,20.16-3.26,9.84-6.77,19.59-10.19,29.37-.81,2.33-.81,2.22,1.59,3.05,12.58,4.37,24.8,9.49,35.29,17.95,6.64,5.36,11.63,12,13.77,20.29a79.71,79.71,0,0,1,2,15q1.88,31.25,3.4,62.51c.63,13.41.93,26.84,1.35,40.27.24,7.49-.13,15.06.77,22.47,1.41,11.59,5.65,22.2,14,30.7a159.65,159.65,0,0,0,13.65,12.76c4.4,3.53,9.36,6.36,14.16,9.37a4.6,4.6,0,0,1,2.38,4.48c-.11,8.39-.16,16.78,0,25.16a4.42,4.42,0,0,1-3.06,4.75,105.28,105.28,0,0,1-20.36,6.76c-15.78,3.23-31.47,7-47.35,9.56-12.29,2-24.8,2.63-37.23,3.63-6.4.51-12.84.46-19.26.74a2.33,2.33,0,0,0-1.74.82c-2.31,4-6.23,5.86-10.27,7.12-8.31,2.6-15.33,0-21.06-6.31a3.26,3.26,0,0,0-2.75-1.17,359,359,0,0,1-47.15-2.92c-18.57-2.33-36.81-6.42-55.07-10.44C62.73,409,55.24,407,48.3,403.22c-1.07-.59-1.68-1.17-1.61-2.41,0-.63-.1-1.26-.1-1.89q0-12.76,0-25.54c0-1.93.5-3.59,2.36-4.6A107.71,107.71,0,0,0,76.33,347,55.53,55.53,0,0,0,89,324.23c1.74-5.85,1.84-11.8,2-17.76.84-23.7,1.41-47.4,2.48-71.09.81-18.26,2-36.51,3.45-54.73.68-8.5,4.81-15.69,10.85-21.69a62.55,62.55,0,0,1,14.58-10.68,142.17,142.17,0,0,1,23.18-10.43c.12,0,.23-.11.35-.14,3.49-1.07,3.48-1.06,2.08-4.6a274.23,274.23,0,0,1-12.35-38.19c-1.57-6.66-1.87-13.44,1.7-19.68a20.41,20.41,0,0,1,16.12-10.73c8.05-.91,15.8.66,23.48,2.83.48.13,1,.23,1.47.35,1.18.29,1.69-.28,1.63-1.38-.07-1.58-.34-3.15-.29-4.71,0-.54.73-1.51,1.12-1.51C188,60.14,195.14,60.31,202.49,60.46Zm126.1,308.22.2-.59a18.82,18.82,0,0,0-1.65-1.33c-2.5-1.58-5.27-2.82-7.48-4.73q-7.49-6.5-14.48-13.54a50.76,50.76,0,0,1-6.76-8.55c-4.41-7-7.46-14.66-8.1-22.93-.76-9.91-.88-19.88-1.23-29.83-.59-16.63-1-33.27-1.77-49.9-.85-17.69-2.11-35.36-3.14-53-.67-11.42-5.82-20.58-14.61-27.49S250.49,144.82,239.85,141c-13.89-5-28.42-6.5-43-7.57A114.54,114.54,0,0,0,174,134.56c-12.75,1.63-25.4,3.59-37.21,9.11-8.5,4-17,7.83-24.24,14C105,164.15,100,172,99.11,182c-1.17,12.66-2.16,25.36-2.88,38.06-.75,13.21-1.09,26.45-1.57,39.68-.64,17.83-1.13,35.67-1.88,53.49a53.08,53.08,0,0,1-15.84,36.11c-2,2.07-4.16,4.05-6.14,6.17a57.49,57.49,0,0,1-14.19,10.87c-1.14.64-2.22,1.38-3.33,2.08l.21.64c1-.23,2-.49,3-.69,10.66-2.11,21.32-4.26,32-6.31A241.35,241.35,0,0,1,124,358.17c14.6-.6,29.2-1.27,43.81-1.77,9.07-.31,18.16-.65,27.23-.43,19.59.46,39.18,1.18,58.77,2,8.81.37,17.64.87,26.39,1.92a408.5,408.5,0,0,1,44.11,8.34A34.37,34.37,0,0,0,328.59,368.68Zm-96.48-9.95-.44.66c.76,1.16,1.25,2.78,2.32,3.4,2.91,1.67,3.91,4.16,3.93,7.22,0,2.2-.21,4.41-.28,6.61-.08,2.49-1.57,3.94-4.18,4-2.25,0-3.78-1.51-3.85-4a34.6,34.6,0,0,1,0-5.67,13.3,13.3,0,0,1,1.62-5.49c1.21-1.81.19-3.21.09-4.8-.17-2.54-2.07-2.34-3.71-2.37-12.86-.18-25.71-.6-38.56-.41-18.78.26-37.56,1-56.34,1.48-13.17.36-26.32,1.08-39.33,3.35-7.75,1.35-15.46,2.86-23.17,4.41-6.85,1.38-13.66,2.92-20.49,4.37-1.23.27-2,.71-2,2.22.06,8,0,15.89,0,23.84,0,2.53.25,2.75,2.76,2.14,2.81-.68,5.56-1.69,8.4-2.13,8.9-1.37,17.84-2.5,26.75-3.79,7.29-1,14.52-2.69,21.84-3.23,16.85-1.23,33.72-2,50.59-2.83,9.57-.45,19.15-.56,28.73-.81,2.2-.06,4.41-.21,6.61-.1,10.7.5,21.41,1,32.11,1.65,21.07,1.22,42.16,2.31,63.21,3.86a200.48,200.48,0,0,1,42.89,7.56c1.56.46,2.09-.05,2.08-1.57q0-12.3,0-24.6c0-1.43-.6-2-1.93-2.25-7.58-1.55-15.11-3.36-22.73-4.71-11.82-2.11-23.65-4.46-35.58-5.72-13-1.36-26-1.58-39.07-2.29C233.69,358.69,232.9,358.73,232.11,358.73ZM50.24,401.66l-.13.87c4,1.49,7.81,3.39,11.88,4.41q26.82,6.71,54.11,11.21c18.59,3,37.31,4,56.09,4.25a2.68,2.68,0,0,0,3.11-2.47,175.72,175.72,0,0,0,3.7-28.61c.14-2.52.12-2.54-2.44-2.47-13.48.39-27,.58-40.43,1.25-10.18.51-20.36,1.41-30.5,2.54-9.19,1-18.33,2.51-27.47,3.94-8.63,1.35-17.24,2.9-25.85,4.39A14.36,14.36,0,0,0,50.24,401.66Zm281.91.12a5,5,0,0,0-.81-.54c-.65-.23-1.31-.43-2-.61C308.94,395.05,288,393.36,267,392c-15.09-1-30.22-1.49-45.33-2.2-5.48-.26-11-.48-16.44-.79-1.52-.09-2.26.26-2,2a43.29,43.29,0,0,1,.41,5.08c.19,8.17,1.86,16.13,3.34,24.11a2,2,0,0,0,2.27,1.94c2,0,3.91.09,5.86,0,8.81-.44,17.64-.69,26.42-1.46,9.15-.81,18.33-1.73,27.37-3.32,12.63-2.21,25.16-5,37.72-7.7A124.12,124.12,0,0,0,332.15,401.78ZM202,85.67l1.11-.48c5.56-2.6,11.28-3.79,17.38-2.12,4,1.1,6.76,3.66,7.47,7.66a28.53,28.53,0,0,1,.22,9.75c-1,5.55-2.56,11-4,16.46-1.31,5-2.77,9.92-4.15,14.89-.32,1.16-.78,2.44,1.09,2.76,2.91.51,5.83,1,8.73,1.52a1.45,1.45,0,0,0,1.87-1,278.28,278.28,0,0,0,11.83-34.37c1.68-5.89,3-11.85,2-18.06-.57-3.76-1.86-7.26-4.61-9.91A22.31,22.31,0,0,0,225.07,66c-7.36,0-14.33,1.66-21.23,3.92a2.43,2.43,0,0,0-1.73,2.6c-.12,4-.29,7.93-.42,11.9A5.08,5.08,0,0,0,202,85.67Zm-21.5-.14c0-4.74.05-9.32-.07-13.91,0-.54-.92-1.36-1.56-1.56-7.9-2.45-15.9-4.31-24.29-3.52a19.11,19.11,0,0,0-15.68,10c-3,5.32-2.88,11.3-1.66,17a239.86,239.86,0,0,0,13.38,41.55,2.19,2.19,0,0,0,1.81,1c2.87-.36,5.7-1,8.56-1.4,1.71-.26,2-1.11,1.52-2.65q-1.78-5.76-3.44-11.56c-2.55-8.87-5.55-17.59-5.22-27.09.16-4.77,3.54-9.8,9-10.7,5.31-.88,10.39-.54,15.2,2.11A11.29,11.29,0,0,0,180.51,85.53Zm19.18,34.14h-.26c0,3.46,0,6.93,0,10.39,0,1.49.55,2.19,2.12,2.16a31.75,31.75,0,0,1,3.76.3c3.44.37,6.88.79,10.32,1.14,1,.09,2,.18,2.37-1.22,1.9-6.84,3.9-13.64,5.84-20.47,1.75-6.18,3.54-12.34,2.82-18.91a9.16,9.16,0,0,0-7.45-8.49c-5.75-1.26-11.08-.15-16.21,2.55a2.87,2.87,0,0,0-1.84,2.73q-.21,7.94-.61,15.86C200.31,110.36,200,115,199.69,119.67ZM168,84.07c-.85.06-1.73.08-2.6.2-5.36.74-8.92,3.52-9.37,7.82-.31,3-.58,6.17.13,9,2.61,10.41,5.64,20.71,8.52,31.06a2,2,0,0,0,2.39,1.59c4.88-.59,9.75-1.18,14.63-1.7,1.38-.15,1.78-.76,1.67-2.11-.22-2.82-.31-5.65-.45-8.48-.56-10.74-1.1-21.48-1.71-32.21a2.29,2.29,0,0,0-1-1.62A27.93,27.93,0,0,0,168,84.07Zm22.72-22v0c-2,0-4,0-6,0-3.05,0-3.11,0-3,3l0,.57q.74,15.3,1.45,30.58.8,17,1.53,34c.06,1.21.58,1.65,1.78,1.6,2.88-.1,5.78-.18,8.67-.18,2.41,0,2.58-.1,2.69-2.49.4-9,.77-18,1.19-27,.59-12.71,1.22-25.41,1.8-38.12,0-1-.14-2-1.65-1.92C196.32,62.09,193.49,62,190.67,62Zm1.23,326.21c-3.54.23-6.43.45-9.32.59-1.12.06-1.61.54-1.54,1.64a12.75,12.75,0,0,1,0,1.51,167.22,167.22,0,0,1-4.18,29.86,3.64,3.64,0,0,0,1.27,3.9c8.19,6.72,16.66,7.65,25.73.57a4.84,4.84,0,0,0,1.75-5.19c-1.2-6.43-2.33-12.87-3.22-19.35-.5-3.6-.45-7.28-.63-10.92-.05-1-.18-1.88-1.49-2C197.29,388.67,194.28,388.41,191.9,388.23Zm44.84-15.06.49-.07a66.23,66.23,0,0,0-1.21-6.58,2.81,2.81,0,0,0-2-1.47,2.14,2.14,0,0,0-1.66,1.3c-.24,3.35-.34,6.72-.35,10.08,0,1.46.89,2.25,2.45,2.23s2.06-1.08,2.23-2.3A21.22,21.22,0,0,0,236.74,373.17Z"/><path class="cls-18" d="M328.59,368.68a34.37,34.37,0,0,1-4.32-.46,408.5,408.5,0,0,0-44.11-8.34c-8.75-1.05-17.58-1.55-26.39-1.92-19.59-.81-39.18-1.53-58.77-2-9.07-.22-18.16.12-27.23.43-14.61.5-29.21,1.17-43.81,1.77a241.35,241.35,0,0,0-35.47,3.93c-10.68,2-21.34,4.2-32,6.31-1,.2-2,.46-3,.69l-.21-.64c1.11-.7,2.19-1.44,3.33-2.08A57.49,57.49,0,0,0,70.8,355.51c2-2.12,4.1-4.1,6.14-6.17a53.08,53.08,0,0,0,15.84-36.11c.75-17.82,1.24-35.66,1.88-53.49.48-13.23.82-26.47,1.57-39.68.72-12.7,1.71-25.4,2.88-38.06.92-10,5.92-17.85,13.47-24.31,7.23-6.19,15.74-10.05,24.24-14,11.81-5.52,24.46-7.48,37.21-9.11a114.54,114.54,0,0,1,22.81-1.12c14.59,1.07,29.12,2.59,43,7.57,10.64,3.81,20.81,8.75,29.72,15.74s13.94,16.07,14.61,27.49c1,17.68,2.29,35.35,3.14,53,.8,16.63,1.18,33.27,1.77,49.9.35,9.95.47,19.92,1.23,29.83.64,8.27,3.69,15.92,8.1,22.93a50.76,50.76,0,0,0,6.76,8.55q7,7,14.48,13.54c2.21,1.91,5,3.15,7.48,4.73a18.82,18.82,0,0,1,1.65,1.33Zm-83.27-76.76a7.07,7.07,0,0,0,.62-2c0-3,0-5.92-.15-8.88-.44-12.16-.86-24.32-1.37-36.48q-1-25.5-2.26-51a14.77,14.77,0,0,0-6-11.28c-3.85-3-8.43-3.92-13-4.5-4-.5-5.74.49-5.43,5,.48,7,.51,14,.58,21,0,3.45-.12,3.45-3.3,3.49a2.58,2.58,0,0,1-.38,0c-3.54-.47-7.1-.88-10.62-1.46-1.78-.3-2.57-1.57-2.66-3.39-.18-3.65-.36-7.31-.71-10.95-.58-6.08-1.25-12.15-2-18.22-.33-2.79-.86-3.19-3.62-3.2-3.16,0-6.31,0-9.46.06-.86,0-1.71.39-2.57.48-1.32.13-2.65.13-4,.22-1.12.09-2.47-.14-3.34.4-5,3.08-6.32,6.48-4.75,12.32a13.92,13.92,0,0,0,1.43,2.72,20.11,20.11,0,0,1,2.35-1.58c.87-.44,2-1.18,2.74-.9a4.43,4.43,0,0,1,2.2,2.45,10.17,10.17,0,0,1,.19,3.75c-.22,4.28-.54,8.55-.75,12.83a2.66,2.66,0,0,1-2.31,2.79q-5.65,1-11.35,1.66c-2.58.32-3.23-.31-3.43-2.94a11.84,11.84,0,0,1,0-1.33c.24-7.28.49-14.57.71-21.86.07-2.31-.75-3.28-3-3.4a13.43,13.43,0,0,0-4.48.33c-3.47,1-7.12,1.86-10.22,3.63-5.81,3.3-7.23,9.21-7.58,15.39-.45,7.92-.78,15.86-1.09,23.79-.56,14.62-1.05,29.24-1.59,43.85-.22,6.17-.48,12.34-.71,18.51-.09,2.4-.2,4.79-.2,7.19,0,1,.39,2,1.58,1.1,1.6-1.16,3-2.58,4.56-3.8,3.35-2.63,5.86-6.36,10.2-7.7a6.53,6.53,0,0,0,2-1.41c2.19-1.81,4.33-3.66,6.53-5.46a3.09,3.09,0,0,1,1.61-.77c1.38,0,2.76.12,4.26.2a2.13,2.13,0,0,1-.12.9c-.92,2-1.84,4-2.86,5.89s-2.6,3.62-1.67,6.08a2.31,2.31,0,0,1-.24,1.47c-1,2.59-1.89,5.2-3,7.73-1.29,2.93-3.16,4.89-6.82,4.95-3.44.06-5.78,2.56-7.83,5.1-1.39,1.72,0,3.31.41,5,.11.49-.34,1.12-.54,1.69-.5-.24-1.17-.35-1.48-.74-1.24-1.57-2.23-3.35-3.57-4.83-10.15-11.27-28.91-7.54-34.06,6.74a21,21,0,0,0,7,23.85c8.54,6.36,19.91,4.25,25.56-.85,1.64-1.49,2.08-1.39,3.26.64,4.38,7.52,11,10.78,19.55,10.31,7.83-.43,15.63-6.31,17.79-13.43.64-2.12.67-2.13,2.38-.9a20.84,20.84,0,0,0,22.8.85c1.74-1.07,2.15-.9,3.12.91a33.73,33.73,0,0,0,3.1,5.14,20.67,20.67,0,0,0,34.19-3.14c.34-.64.74-1.26,1.13-1.93,1,.8,1.9,1.52,2.81,2.19,7.32,5.36,15.14,5.71,22.91,1.48,7.38-4,10.51-10.76,10.18-19.06a20,20,0,0,0-13.37-18,20.61,20.61,0,0,0-22.54,5.83c-1.21,1.44-2.15,3.1-3.3,4.6-.27.36-1.14.76-1.27.64a2.84,2.84,0,0,1-.79-1.51,2.14,2.14,0,0,1,.47-1.19,3.78,3.78,0,0,0-.55-4.86c-2.27-2.58-4.89-4.4-8.52-4.68-1.34-.1-3.22-.91-3.77-2-1.88-3.6-3.29-7.45-4.85-11.21-.13-.32.05-.75,0-1.11a15.63,15.63,0,0,0-.74-3.72c-1.06-2.34-2.42-4.54-3.57-6.84a8.74,8.74,0,0,1-.45-2.14c1.33.24,2.48.82,3.23.49,2-.87,3.06.27,4.21,1.45,3.24,3.3,6.7,6.29,11.14,7.92a6.19,6.19,0,0,1,1.72,1.39c1.8,1.65,3.53,3.37,5.38,5C242.17,289.71,243.57,290.62,245.32,291.92Z"/><path class="cls-19" d="M232.11,358.73c.79,0,1.58,0,2.36,0,13,.71,26.11.93,39.07,2.29,11.93,1.26,23.76,3.61,35.58,5.72,7.62,1.35,15.15,3.16,22.73,4.71,1.33.27,1.94.82,1.93,2.25q-.06,12.3,0,24.6c0,1.52-.52,2-2.08,1.57a200.48,200.48,0,0,0-42.89-7.56c-21.05-1.55-42.14-2.64-63.21-3.86-10.7-.63-21.41-1.15-32.11-1.65-2.2-.11-4.41,0-6.61.1-9.58.25-19.16.36-28.73.81-16.87.8-33.74,1.6-50.59,2.83-7.32.54-14.55,2.18-21.84,3.23-8.91,1.29-17.85,2.42-26.75,3.79-2.84.44-5.59,1.45-8.4,2.13-2.51.61-2.76.39-2.76-2.14,0-7.95,0-15.89,0-23.84,0-1.51.76-1.95,2-2.22,6.83-1.45,13.64-3,20.49-4.37,7.71-1.55,15.42-3.06,23.17-4.41,13-2.27,26.16-3,39.33-3.35,18.78-.52,37.56-1.22,56.34-1.48,12.85-.19,25.7.23,38.56.41,1.64,0,3.54-.17,3.71,2.37.1,1.59,1.12,3-.09,4.8a13.3,13.3,0,0,0-1.62,5.49,34.6,34.6,0,0,0,0,5.67c.07,2.47,1.6,4,3.85,4,2.61,0,4.1-1.49,4.18-4,.07-2.2.3-4.41.28-6.61,0-3.06-1-5.55-3.93-7.22-1.07-.62-1.56-2.24-2.32-3.4ZM76.26,375.39c-.58-1.4-1.1-2.84-1.78-4.2-.29-.57-.94-1-1.43-1.44a5.65,5.65,0,0,0-.51,1.71c.06,1.06.42,2.1.5,3.16.15,2.09-.15,2.33-2.2,2.05-3.72-.51-5.81,1.13-6,4.86A65.94,65.94,0,0,0,65,388.7c.25,3.62,1.92,4.71,5.29,3.55.51-.18,1.17-.68,1.25-1.12a1.86,1.86,0,0,0-.7-1.56c-.31-.2-1.09.13-1.56.4-1.49.85-2.42.51-2.6-1.26a30.76,30.76,0,0,1-.13-6c.39-4.1.48-4.1,4.54-4,.19,0,.44-.08.55,0,.49.42,1.29.84,1.34,1.34.23,1.92.21,3.88.31,5.82a15.05,15.05,0,0,0,.3,3.16c.11.41.91.63,1.4.94.23-.52.69-1.06.66-1.57-.19-2.79-.55-5.57-.75-8.36-.14-1.81.8-2.41,3.32-2.56,1.83-.11,1.63,1.13,1.69,2.25.12,2.52.18,5,.4,7.55,0,.48.66.9,1,1.35.3-.39.87-.79.86-1.17-.1-3.05-.15-6.12-.52-9.15C81.28,374.94,79.6,374,76.26,375.39Zm132.64.33c2.75-.14,3-.21,4-2.71.43-1.09.21-2.41.48-3.59a6.33,6.33,0,0,1,1-1.73c.35.51,1,1,1,1.54.15,2.64.07,5.29.25,7.92,0,.7.71,1.35,1.09,2,.29-.68.85-1.36.83-2-.05-2.77-.24-5.54-.44-8.31-.11-1.54.95-1.94,2.06-2.23a1.89,1.89,0,0,1,2.55,1.31,14,14,0,0,1,.63,3.31c.11,2.14,0,4.3.13,6.43,0,.65.66,1.27,1,1.9.4-.69,1.18-1.4,1.14-2.06-.19-2.95-.55-5.88-1-8.81-.51-3.6-1.87-4.31-5.45-3.62a29.85,29.85,0,0,1-7.25.5c-2.2-.13-4.19.78-4.39,3-.23,2.6-.05,5.24-.05,7.87,0,3.34,1,4.32,4.31,4.1.6,0,1.16-.6,1.73-.92a5.26,5.26,0,0,0-1.65-1C208.89,378.32,208.45,377.8,208.9,375.72ZM105.43,370.6c-.15,3.57-.21,7.09-.48,10.6-.17,2.24-1,2.9-2.71,2.83s-2.67-1.13-2.7-3.2c0-2.32-.1-4.66.09-7,.14-1.59-.5-2.15-1.89-2-2.6.3-5.2.67-7.79,1.09-1.46.24-1.26,1.1-.84,2.25a20.68,20.68,0,0,1,1.15,4.65c.21,1.87.07,3.78.21,5.66a2.28,2.28,0,0,0,.84,1.31c.16.13.91,0,1-.21a6.15,6.15,0,0,0,.29-1.95c0-2.8-.38-5.63-.16-8.41.19-2.51,1.74-3.14,4-2.05,1.59.75,1.74,2.19,1.72,3.68S98,380.66,98,382a3.85,3.85,0,0,0,4,3.9c1.85.05,3.7,0,5.55-.15a1.48,1.48,0,0,0,1.07-.83c.09-.31-.37-.78-.61-1.17-.42-.66-1.24-1.3-1.23-2a71.48,71.48,0,0,1,.53-9C107.5,371.26,107.11,370.73,105.43,370.6Zm176.86,3h.38c0,2.57-.13,5.15.05,7.71.12,1.75,1.32,2.7,3.15,2.95a39.49,39.49,0,0,1,5.14,1.09c2.49.66,3.93-.25,4.21-2.78a38,38,0,0,0,.55-5.06c-.09-3.39-.35-6.78-.7-10.15-.05-.45-1-.81-1.53-1.22-.18.51-.66,1.14-.5,1.5,2,4.67,1,9.43.54,14.17-.14,1.58-1.09,2.07-2.51,1.64-1.14-.34-1.3-1.15-1.28-2.19,0-4.21.1-8.42.06-12.63,0-2.34-.48-2.72-2.73-2.88a11,11,0,0,1-2.4-.46c-1.42-.43-2,.14-2.11,1.51C282.5,369,282.4,371.31,282.29,373.57Zm-11.69,9.2.94,0a9.66,9.66,0,0,0,.37-2c-.07-3-.27-6-.26-9,0-.54.83-1.55,1.16-1.51a2.85,2.85,0,0,1,1.71,1.25c.34.54.18,1.4.48,2a1.74,1.74,0,0,0,1.29.68c.23,0,.69-.71.67-1.07-.06-.93-.37-1.84-.51-2.77a2.15,2.15,0,0,0-2.42-2c-2.43,0-4.85-.3-7.28-.43a2.73,2.73,0,0,0-2.7,1.63c-1.83,3.16-1.29,6.59-1.28,9.95,0,2.56,1.05,3.39,3.58,3,.48-.07,1.26-.88,1.19-1.19-.13-.53-.82-1.33-1.25-1.31-1.7.06-1.81-.64-1.31-1.9,3.1-.26,3.08-.32,3.35-3.33a32.14,32.14,0,0,1,.9-4l.81.11c0,3,0,6,0,9A19.82,19.82,0,0,0,270.6,382.77Zm39,4.92.53,0a3.28,3.28,0,0,0,.49-.92,9.44,9.44,0,0,0,.06-1.51c.07-4.84.16-9.69.17-14.54,0-.48-.58-1-.89-1.44-.42.42-1.11.8-1.19,1.29-.36,2.12-.47,2.23-2.49,1.4-3-1.22-4.55-.3-4.79,3-.19,2.76-.12,5.53-.3,8.29-.13,2.11,1.35,3.15,2.66,4.28a1.53,1.53,0,0,0,1.44-.12,2,2,0,0,0-.09-1.6c-.28-.53-1-.8-1.31-1.32a3.88,3.88,0,0,1-.69-2.33c.11-.47,1.25-.94,1.94-.95,1.3,0,1.78-.57,1.91-1.79a16.57,16.57,0,0,1,.65-2.41l.64.1C309.56,380.47,308.38,384.3,309.62,387.69ZM200.5,383.07a10.6,10.6,0,0,0-2.4-.35c-1.1.13-2-.07-2.1-1.25-.1-1.41,1.13-1.12,1.92-1,1.51.21,2-.5,2.15-1.85a66.94,66.94,0,0,0,.63-6.75,21.26,21.26,0,0,0-1-5.25,3,3,0,0,0-3.59-2.28c-1.85.22-3.77,1.67-3.76,3.43a90.91,90.91,0,0,0,.73,13.32C193.64,384.58,197.84,385.81,200.5,383.07Zm58.7-9.32h0c0-1.32-.08-2.65,0-4a4.77,4.77,0,0,0-2-4.27c-1.47-1.14-3.2-2-3.7-4-.06-.28-.69-.41-1.06-.62-.18.42-.52.85-.5,1.26,0,.61.42,1.19.48,1.8a4.28,4.28,0,0,1-.11,2.29c-2.23,4.26-1.27,8.71-.91,13.13a4.07,4.07,0,0,0,.61,1.37,2.57,2.57,0,0,0,3,1.39c2.84-.5,4-1.87,4-4.76C259.06,376.15,259.15,375,259.2,373.75Zm-139.08,2.92.23,0c0,.95,0,1.89,0,2.84.17,3.11,2,4.61,5.08,4.19a1.85,1.85,0,0,0,1.81-2.16c0-.18-1.39-.21-2.13-.32s-2,0-2.5-.49c-1.37-1.47-.29-3.86,1.62-4.49,1.18-.39,3-1.2,3.11-2,.25-1.91-.35-3.93-.63-5.9,0-.09-.17-.17-.28-.23-1.63-.8-5,.44-5.4,2.22C120.54,372.41,120.41,374.56,120.12,376.67Zm38.58-2.36,1.8.24c2.42.33,3.25-.35,3.31-2.78a41.7,41.7,0,0,0,0-4.33,2.18,2.18,0,0,0-.76-1.55c-1.29-.82-5.36,1-5.6,2.55a35.78,35.78,0,0,0-.77,6.72,14.55,14.55,0,0,0,1.46,4.93,2.42,2.42,0,0,0,1.78,1.12c.59.05,1.24-.53,1.87-.83-.4-.54-.7-1.33-1.23-1.57C158.4,377.86,157.83,376.68,158.7,374.31Zm21-8.18-1,0a18.41,18.41,0,0,0-.48,3c0,1.95.26,3.89.29,5.84,0,4,.85,4.92,4.86,5.36,2.37.26,3-.14,3.08-2.57s0-4.65.06-7c0-1.12.32-2.24.3-3.36,0-.43-.57-.84-.87-1.26-.37.35-1,.65-1.06,1.06a10.89,10.89,0,0,0-.13,2.43c-.07,2.32,0,4.66-.25,7-.21,1.79-1.47,2.35-3,1.3a4,4,0,0,1-1.33-2.62c-.17-2.06.06-4.15,0-6.23A19,19,0,0,0,179.71,366.13ZM54.35,393.49c1.63,2.24,2.8,2.31,4.09.36a5.85,5.85,0,0,0,1-2.79c.23-4.08.31-8.17.43-12.25a8.06,8.06,0,0,0-.11-1.7c-.29-1.7-.79-3.21-3-3.08-.46,0-.93-.42-1.41-.46s-1.51-.08-1.67.22a12.52,12.52,0,0,0-.74,2.72,5.34,5.34,0,0,0,2,.43c2.38-.43,3.1.06,3.12,2.56s-.09,5.29,0,7.93S57.84,392.7,54.35,393.49Zm114.1-11.41c.76,1.85,1.88,1.54,2.82.54a4.45,4.45,0,0,0,1.19-2.46c.31-3.79.49-7.6.63-11.4.06-1.44-.42-2.94-.14-4.31.41-2-.64-2.6-2.08-3a13.81,13.81,0,0,0-2.78-.47c-1-.09-2.07-.08-2,1.27s1.16,1.17,2.09,1.06c2.36-.26,3.26.49,3.22,2.9-.06,3.71-.21,7.41-.31,11.12C171,379.28,170.46,381,168.45,382.08Zm-49-15.36c-.52-2.15-1.47-2.45-3.07-1.86a5.49,5.49,0,0,0-4,4.8c-.35,3.76-.46,7.53-.61,11.3a3.77,3.77,0,0,0,.46,2c.22.39.89.51,1.36.74a5,5,0,0,0,.63-1.34c0-.4-.29-.83-.33-1.26-.3-3.21-1.49-6.69,2.5-8.66,0,0,0-.11.11-.39l-2.12-2C115.32,367.8,116.78,366.45,119.45,366.72Zm198.06,17a9.33,9.33,0,0,1,.82-3.11c.21-.35,1.75.28,2.67.2a2.05,2.05,0,0,0,1.44-1,1.75,1.75,0,0,0-.58-1.5c-.29-.26-1-.09-1.46-.11-2.17-.07-2.5-.55-1.86-2.63.13-.4.3-1,.11-1.24A8.45,8.45,0,0,0,317,373.1c-.3.55-.83,1.09-.86,1.65-.2,3.67-.31,7.34-.38,11a8.38,8.38,0,0,0,.42,2.91c.14.41.93.58,1.43.87.18-.49.56-1,.52-1.47C318,386.7,317.75,385.34,317.51,383.69Zm9.71-3.71c0,1.64-.06,3.28,0,4.91,0,.45.54.87.83,1.3.35-.45,1-.9,1-1.35q0-4.62-.24-9.24c0-.42-.68-.8-1.05-1.19-.27.41-.78.82-.78,1.24C327,377.09,327.13,378.54,327.22,380Zm-176.76,1,.82-.12a16.27,16.27,0,0,0,.28-2.29c-.05-2.61-.12-5.23-.29-7.83a7,7,0,0,0-.69-1.88c-.37.58-1,1.14-1.06,1.73-.11,2.51-.12,5,0,7.54A11.54,11.54,0,0,0,150.46,381Zm-1-21.94c-.65.95-1.41,1.58-1.32,2.06a8.94,8.94,0,0,0,1.27,2.42,17.14,17.14,0,0,0,2-2.64C151.53,360.73,150.42,359.93,149.49,359.07Zm178.45,34.08c.56-.77,1.23-1.32,1.13-1.64a2.47,2.47,0,0,0-1.29-1.25c-.15-.08-1,.69-1,1C326.88,391.8,327.39,392.29,327.94,393.15Z"/><path class="cls-18" d="M50.24,401.66a14.36,14.36,0,0,1,2.07-.69c8.61-1.49,17.22-3,25.85-4.39,9.14-1.43,18.28-2.92,27.47-3.94,10.14-1.13,20.32-2,30.5-2.54,13.46-.67,27-.86,40.43-1.25,2.56-.07,2.58-.05,2.44,2.47a175.72,175.72,0,0,1-3.7,28.61,2.68,2.68,0,0,1-3.11,2.47c-18.78-.27-37.5-1.22-56.09-4.25Q88.79,413.7,62,406.94c-4.07-1-7.93-2.92-11.88-4.41Z"/><path class="cls-18" d="M332.15,401.78a124.12,124.12,0,0,1-25.58,7.8c-12.56,2.65-25.09,5.49-37.72,7.7-9,1.59-18.22,2.51-27.37,3.32-8.78.77-17.61,1-26.42,1.46-1.95.09-3.91,0-5.86,0a2,2,0,0,1-2.27-1.94c-1.48-8-3.15-15.94-3.34-24.11a43.29,43.29,0,0,0-.41-5.08c-.24-1.7.5-2.05,2-2,5.48.31,11,.53,16.44.79,15.11.71,30.24,1.19,45.33,2.2,21,1.4,42,3.09,62.39,8.67.67.18,1.33.38,2,.61A5,5,0,0,1,332.15,401.78Z"/><path class="cls-11" d="M202,85.67a5.08,5.08,0,0,1-.32-1.21c.13-4,.3-7.94.42-11.9a2.43,2.43,0,0,1,1.73-2.6c6.9-2.26,13.87-4,21.23-3.92A22.31,22.31,0,0,1,241,72.74c2.75,2.65,4,6.15,4.61,9.91,1,6.21-.37,12.17-2,18.06a278.28,278.28,0,0,1-11.83,34.37,1.45,1.45,0,0,1-1.87,1c-2.9-.53-5.82-1-8.73-1.52-1.87-.32-1.41-1.6-1.09-2.76,1.38-5,2.84-9.91,4.15-14.89,1.45-5.46,3-10.91,4-16.46a28.53,28.53,0,0,0-.22-9.75c-.71-4-3.45-6.56-7.47-7.66-6.1-1.67-11.82-.48-17.38,2.12Z"/><path class="cls-11" d="M180.51,85.53a11.29,11.29,0,0,1-2.43-.77c-4.81-2.65-9.89-3-15.2-2.11-5.48.9-8.86,5.93-9,10.7-.33,9.5,2.67,18.22,5.22,27.09q1.66,5.81,3.44,11.56c.48,1.54.19,2.39-1.52,2.65-2.86.43-5.69,1-8.56,1.4a2.19,2.19,0,0,1-1.81-1,239.86,239.86,0,0,1-13.38-41.55c-1.22-5.66-1.35-11.64,1.66-17a19.11,19.11,0,0,1,15.68-10c8.39-.79,16.39,1.07,24.29,3.52.64.2,1.54,1,1.56,1.56C180.56,76.21,180.51,80.79,180.51,85.53Z"/><path class="cls-18" d="M199.69,119.67c.29-4.66.62-9.31.85-14q.39-7.93.61-15.86A2.87,2.87,0,0,1,203,87.12c5.13-2.7,10.46-3.81,16.21-2.55a9.16,9.16,0,0,1,7.45,8.49c.72,6.57-1.07,12.73-2.82,18.91-1.94,6.83-3.94,13.63-5.84,20.47-.39,1.4-1.38,1.31-2.37,1.22-3.44-.35-6.88-.77-10.32-1.14a31.75,31.75,0,0,0-3.76-.3c-1.57,0-2.14-.67-2.12-2.16,0-3.46,0-6.93,0-10.39Z"/><path class="cls-18" d="M168,84.07a27.93,27.93,0,0,1,12.22,3.57,2.29,2.29,0,0,1,1,1.62c.61,10.73,1.15,21.47,1.71,32.21.14,2.83.23,5.66.45,8.48.11,1.35-.29,2-1.67,2.11-4.88.52-9.75,1.11-14.63,1.7a2,2,0,0,1-2.39-1.59c-2.88-10.35-5.91-20.65-8.52-31.06-.71-2.85-.44-6-.13-9,.45-4.3,4-7.08,9.37-7.82C166.22,84.15,167.1,84.13,168,84.07Z"/><path class="cls-11" d="M190.67,62c2.82,0,5.65.07,8.48,0,1.51-.06,1.7.9,1.65,1.92-.58,12.71-1.21,25.41-1.8,38.12-.42,9-.79,18-1.19,27-.11,2.39-.28,2.48-2.69,2.49-2.89,0-5.79.08-8.67.18-1.2,0-1.72-.39-1.78-1.6q-.73-17-1.53-34-.7-15.28-1.45-30.58l0-.57c-.15-3-.09-3,3-3,2,0,4,0,6,0Z"/><path class="cls-11" d="M191.9,388.23c2.38.18,5.39.44,8.41.64,1.31.09,1.44.95,1.49,2,.18,3.64.13,7.32.63,10.92.89,6.48,2,12.92,3.22,19.35a4.84,4.84,0,0,1-1.75,5.19c-9.07,7.08-17.54,6.15-25.73-.57a3.64,3.64,0,0,1-1.27-3.9A167.22,167.22,0,0,0,181.08,392a12.75,12.75,0,0,0,0-1.51c-.07-1.1.42-1.58,1.54-1.64C185.47,388.68,188.36,388.46,191.9,388.23Z"/><path class="cls-12" d="M236.74,373.17a21.22,21.22,0,0,1,0,3.19c-.17,1.22-.67,2.28-2.23,2.3s-2.45-.77-2.45-2.23c0-3.36.11-6.73.35-10.08a2.14,2.14,0,0,1,1.66-1.3,2.81,2.81,0,0,1,2,1.47,66.23,66.23,0,0,1,1.21,6.58Z"/><path class="cls-8" d="M245.32,291.92c-1.75-1.3-3.15-2.21-4.4-3.29-1.85-1.59-3.58-3.31-5.38-5a6.19,6.19,0,0,0-1.72-1.39c-4.44-1.63-7.9-4.62-11.14-7.92-1.15-1.18-2.2-2.32-4.21-1.45-.75.33-1.9-.25-3.23-.49a8.74,8.74,0,0,0,.45,2.14c1.15,2.3,2.51,4.5,3.57,6.84a15.63,15.63,0,0,1,.74,3.72c.06.36-.12.79,0,1.11,1.56,3.76,3,7.61,4.85,11.21.55,1.05,2.43,1.86,3.77,2,3.63.28,6.25,2.1,8.52,4.68a3.78,3.78,0,0,1,.55,4.86,2.14,2.14,0,0,0-.47,1.19,2.84,2.84,0,0,0,.79,1.51c.13.12,1-.28,1.27-.64,1.15-1.5,2.09-3.16,3.3-4.6a20.61,20.61,0,0,1,22.54-5.83,20,20,0,0,1,13.37,18c.33,8.3-2.8,15-10.18,19.06-7.77,4.23-15.59,3.88-22.91-1.48-.91-.67-1.79-1.39-2.81-2.19-.39.67-.79,1.29-1.13,1.93A20.67,20.67,0,0,1,207.28,339a33.73,33.73,0,0,1-3.1-5.14c-1-1.81-1.38-2-3.12-.91a20.84,20.84,0,0,1-22.8-.85c-1.71-1.23-1.74-1.22-2.38.9-2.16,7.12-10,13-17.79,13.43-8.57.47-15.17-2.79-19.55-10.31-1.18-2-1.62-2.13-3.26-.64-5.65,5.1-17,7.21-25.56.85a21,21,0,0,1-7-23.85c5.15-14.28,23.91-18,34.06-6.74,1.34,1.48,2.33,3.26,3.57,4.83.31.39,1,.5,1.48.74.2-.57.65-1.2.54-1.69-.38-1.66-1.8-3.25-.41-5,2.05-2.54,4.39-5,7.83-5.1,3.66-.06,5.53-2,6.82-4.95,1.1-2.53,2-5.14,3-7.73a2.31,2.31,0,0,0,.24-1.47c-.93-2.46.65-4.17,1.67-6.08s1.94-3.91,2.86-5.89a2.13,2.13,0,0,0,.12-.9c-1.5-.08-2.88-.24-4.26-.2a3.09,3.09,0,0,0-1.61.77c-2.2,1.8-4.34,3.65-6.53,5.46a6.53,6.53,0,0,1-2,1.41c-4.34,1.34-6.85,5.07-10.2,7.7-1.55,1.22-3,2.64-4.56,3.8-1.19.87-1.59-.13-1.58-1.1,0-2.4.11-4.79.2-7.19.23-6.17.49-12.34.71-18.51.54-14.61,1-29.23,1.59-43.85.31-7.93.64-15.87,1.09-23.79.35-6.18,1.77-12.09,7.58-15.39,3.1-1.77,6.75-2.6,10.22-3.63a13.43,13.43,0,0,1,4.48-.33c2.29.12,3.11,1.09,3,3.4-.22,7.29-.47,14.58-.71,21.86a11.84,11.84,0,0,0,0,1.33c.2,2.63.85,3.26,3.43,2.94q5.7-.7,11.35-1.66A2.66,2.66,0,0,0,179,202.8c.21-4.28.53-8.55.75-12.83a10.17,10.17,0,0,0-.19-3.75,4.43,4.43,0,0,0-2.2-2.45c-.7-.28-1.87.46-2.74.9a20.11,20.11,0,0,0-2.35,1.58,13.92,13.92,0,0,1-1.43-2.72c-1.57-5.84-.3-9.24,4.75-12.32.87-.54,2.22-.31,3.34-.4,1.33-.09,2.66-.09,4-.22.86-.09,1.71-.46,2.57-.48,3.15-.07,6.3-.07,9.46-.06,2.76,0,3.29.41,3.62,3.2.71,6.07,1.38,12.14,2,18.22.35,3.64.53,7.3.71,10.95.09,1.82.88,3.09,2.66,3.39,3.52.58,7.08,1,10.62,1.46a2.58,2.58,0,0,0,.38,0c3.18,0,3.33,0,3.3-3.49-.07-7-.1-14-.58-21-.31-4.53,1.4-5.52,5.43-5,4.61.58,9.19,1.49,13,4.5a14.77,14.77,0,0,1,6,11.28q1.2,25.5,2.26,51c.51,12.16.93,24.32,1.37,36.48.11,3,.17,5.92.15,8.88A7.07,7.07,0,0,1,245.32,291.92Zm-70.09-4.64a8.76,8.76,0,0,0,2.34.46c3.42-.45,6.84-.95,10.24-1.54.4-.07.91-.83.95-1.3.12-1.5,0-3,0-4.54,0-4.79-.06-9.58,0-14.38,0-.56.61-1.11.93-1.66a18.31,18.31,0,0,1,1.26,1.77c.13.23,0,.61,0,.93-.06,5.73-.08,11.47-.21,17.2a1.94,1.94,0,0,0,1.87,2.3c2.85.45,5.69,1,8.56,1.39s3.27-.07,2.23-2.74c-2.48-6.38-5-12.74-7.49-19.13-.17-.45.14-1.09.22-1.64a9.56,9.56,0,0,1,1.4.9c.22.18.27.56.38.85,2.39,6.29,4.77,12.57,7.19,18.85.54,1.41,1.14,2.79,1.8,4.15.93,1.93,1.43,2,3,.45a27,27,0,0,0,2.21-2.33c1-1.2,1.94-1.73,3.57-1.06s2.83-.43,2.57-2.27a5.75,5.75,0,0,0-.59-1.57c-1.42-2.93-3.15-5.74-4.17-8.79a16.24,16.24,0,0,0-3.33-5.76c-4.5-5.08-7.51-10.91-8-17.75-.35-5.21-.28-10.46-.33-15.69,0-.47.54-.95.82-1.42.3.48.84.94.86,1.43.17,4,.42,8.06.32,12.09-.2,8.3,2.87,15.22,8.53,21.09a28.68,28.68,0,0,0,4.15,3.24,1.93,1.93,0,0,0,1.37.05c.13,0,.22-.66.17-1-.61-3.84-1.56-7.66-1.83-11.52-.52-7.1-.67-14.23-.87-21.35,0-.58.74-1.19,1.13-1.79.26.6.75,1.2.74,1.79a160.62,160.62,0,0,0,1.92,30c.27,1.63,1.59,3.19,2.71,4.54a38.38,38.38,0,0,0,4,3.74c1,.95,2.12,1.88,3.2,2.84,1.51-1.22.61-2.53.58-3.68-.24-11.66-.55-23.31-.77-35,0-.93-.64-2.32,1-2.56a5.82,5.82,0,0,1,.85,2.63q.63,19.37,1.13,38.75c0,1.3.64,1.78,1.79,2.25a11.87,11.87,0,0,1,3.07,2.16c1.65,1.43,3.18,3,4.85,4.41a6.23,6.23,0,0,0,2,.7,8.56,8.56,0,0,0,.43-2.08c-.33-8.38-.75-16.76-1.06-25.14-.8-21.48-1.54-43-2.37-64.45-.13-3.42-.8-6.77-3-9.57-4.24-5.44-10.25-6.92-16.7-7.32-1.29-.09-2,.52-1.92,1.92.24,6.93.51,13.86.62,20.8a23.43,23.43,0,0,1-.77,5.36,2.19,2.19,0,0,1-2.55,1.77c-4.19-.47-8.41-.8-12.56-1.52-3.41-.59-4.76-2.68-4.52-6.07a9.52,9.52,0,0,0,0-1.51q-1.25-13.08-2.51-26.16a2.07,2.07,0,0,0-2.32-2.15c-5.14-.06-4.52-.82-4.58,4.36,0,.25,0,.51,0,.76,0,3.32-2.22,5.23-5.53,4.71-2.41-.38-4,1.34-3.51,3.79a9.92,9.92,0,0,1,.14,1.88c-.17,5.34-.26,10.68-.61,16a5.3,5.3,0,0,1-1.81,3.09,5.92,5.92,0,0,1-3.07,1.32c-4.18.58-8.37,1-12.57,1.44a2.37,2.37,0,0,1-2.78-2.22,27.3,27.3,0,0,1-.38-4.32c.15-6.55.4-13.11.59-19.66a19.09,19.09,0,0,0-.17-2.26c-.1-1.09-.7-1.53-1.79-1.37-1.25.17-2.5.3-3.75.46-10,1.24-15.46,6.75-16,16.61-.66,11.77-1.07,23.55-1.58,35.33-.37,8.75-.77,17.49-1.08,26.23-.32,9.33-.57,18.66-.81,28,0,.57.17,1.51.5,1.64a2.18,2.18,0,0,0,1.85-.33c1.7-1.47,3.27-3.1,4.91-4.65.76-.72,1.48-1.73,2.39-2,2-.61,2.72-1.49,2.75-3.82.16-12.54.62-25.08,1-37.62,0-.37-.12-.83.05-1.11a8.09,8.09,0,0,1,1.19-1.3l.66.34c-.36,13.51-.72,27-1.09,40.83a7.58,7.58,0,0,0,1.83-.84c1.76-1.51,3.32-3.29,5.21-4.62a9.31,9.31,0,0,0,4.11-7.09c.83-9.21,2.38-18.38,1.66-27.69a13,13,0,0,1,.37-2.67l.91.1c.33,12,.17,24-2.4,36.36,1.16-.56,1.71-.8,2.24-1.09,3.62-2,5.61-5.54,7.86-8.78a25.75,25.75,0,0,0,4.39-15.15c0-4.23.16-8.45.33-12.67,0-.4.55-.78.84-1.17a8.38,8.38,0,0,1,.9,1.27c.12.24,0,.61,0,.93a70.05,70.05,0,0,0-.39,8.67c.7,9.52-2.32,17.64-8.47,24.82-1.3,1.52-2,3.58-2.88,5.42-.82,1.68-1.51,3.42-2.32,5.1-.69,1.41-1.58,2.73-2.18,4.17-.75,1.8.4,3.61,1.91,3,2.29-1,3.53,0,4.74,1.7a10.1,10.1,0,0,0,1.62,1.58c1.54,1.31,2.26,1.12,3-.78L181.61,265c.22-.56.48-1.11.7-1.63,1.74.36,1.26,1.29.89,2.3C180.56,272.74,178,279.87,175.23,287.28Zm83,52a65.13,65.13,0,0,0,6.83-1.94c7.47-3,11.54-8.78,11.67-16.72.13-7.79-3.15-13.85-10.56-17.45-10.29-5-21.16.53-25.17,8.81a4,4,0,0,0,0,3.95,22.46,22.46,0,0,1,2.46,13.69,5.08,5.08,0,0,0,1.27,3.69A20.34,20.34,0,0,0,258.27,339.24Zm-155-17.89c.37,6.31,3.78,12.14,10.61,15.52,7,3.49,13.87,2.33,20-2.3,1-.73,2.84-1.34,2.46-3.51-1-5.76-.31-11.26,3.08-16.24a2.09,2.09,0,0,0,.22-1.71,24.77,24.77,0,0,0-2.45-4.43,19,19,0,0,0-20.76-6.57C108.62,304.77,103.3,312,103.3,321.35Zm86.64-24.54-3.21.16a4,4,0,0,0-.93.15c-6.61,2.06-11.23,6.19-13.53,12.83a3.58,3.58,0,0,0,.56,3.94,20.41,20.41,0,0,1,4.38,13.34,4.34,4.34,0,0,0,1.39,3,18.36,18.36,0,0,0,21,1.68c2.36-1.43,3.58-2.85,3.29-5.77a15,15,0,0,1,3.78-12.08c1.92-2.06,2-4.06.79-6.35C203.81,300.56,198,296.89,189.94,296.81Zm-40.63,13.94c-1.73-1-3.09-.45-4.34.75-.59.56-1.19,1.12-1.83,1.64a2.6,2.6,0,0,0-.95,2.78c.81,5.09.54,10.1-2.49,14.51a3.51,3.51,0,0,0-.19,4.19c5,8.56,11.81,11.77,21.06,10,7.07-1.38,11.73-6.06,13.83-13a3.88,3.88,0,0,0-.46-3.06c-2.42-3.15-4.13-6.65-4-10.57.11-4.22-1.53-6.92-5.26-8.58-.05,0-.1-.07-.16-.09-3.25-.83-6.44-3.2-9.84-.41C152.7,307.07,150.54,307.76,149.31,310.75Zm75.41-2.24c-1-.48-1.78-1.19-2.46-1.1a22.1,22.1,0,0,0-10,3.52c-1.25.85-2.15,1.76-1.59,3.59a9.89,9.89,0,0,1-.06,3.55c-.34,4.09-2.19,7.58-4.51,10.83a4,4,0,0,0-.5,4.38c2.76,5.76,7,9.9,13.34,11.25a18.21,18.21,0,0,0,15-2.95c2.83-2,4.34-4.81,6.18-7.48a3.06,3.06,0,0,0,0-3.8,18.64,18.64,0,0,1-2.78-13,5,5,0,0,0-1.74-5.05c-1.32-1.24-2.55-2.43-4.61-1.87a1.54,1.54,0,0,1-1.18-.61C228.33,307.62,226.8,307.26,224.72,308.51Zm-14.45,1.55a15.7,15.7,0,0,0,3-1.85,3.07,3.07,0,0,0,.69-2.19c-.18-2.17-.48-4.34-.87-6.49a62.62,62.62,0,0,0-1.47-6.34,1.59,1.59,0,0,0-2.43-1c-1.32.6-2.18.11-3.07-1a4.48,4.48,0,0,0-2.41-1.5c-2.34-.38-4.73-.42-7.09-.7-3.21-.38-6.24-1.69-9.66-.91-3.72.84-7.57,1-11.35,1.6a2.92,2.92,0,0,0-1.73.93c-1.68,2.14-1.81,2.22-4.2,1-1.82,1.44-3.08,4.62-3.16,7.55a27.68,27.68,0,0,1-.58,6.52c-.39,1.44-.38,2.21.93,2.87a13,13,0,0,1,1.1.72c2,1.32,2.09,1.21,3.06-.92a23.42,23.42,0,0,1,3.29-5.9c10.54-12,29.39-8.42,35,5.25C209.53,308.44,209.85,309.11,210.27,310.06Zm-45.41-22.62c-2.54.08-3.62,1-4.54,3.41s-2.12,4.95-3.28,7.38a13.4,13.4,0,0,1-1.53,1.88c-.53.72-1.61,1.79-1.42,2.15.77,1.46.75,3.76,3.37,3.67a13.12,13.12,0,0,1,4.28.5c1.68.52,2.38,0,2.54-1.61a31.81,31.81,0,0,0,.38-4.65c-.15-3.3,1.21-6.1,2.59-8.93C168,289.81,166.39,287.39,164.86,287.44Zm50,12.25c.22,1.45.44,3.45.89,5.4a2.07,2.07,0,0,0,1.51,1.24,19.1,19.1,0,0,0,6.13-.85c1.11-.46,1.81-2.19,2.39-3.49.15-.33-.87-1.19-1.37-1.79a12,12,0,0,1-1.65-2,45.89,45.89,0,0,1-3.06-7.07c-.64-2.21-1.31-3.86-4-3.23A7,7,0,0,0,213,289c-.95.76-.72,1.79-.13,2.86C214.09,294.1,215.46,296.36,214.85,299.69ZM173,183.61c1.57-1.47,3-2.79,5.33-1.47,1.07.6,3.07-1.43,2.8-2.79a32.67,32.67,0,0,0-1.42-5.26c-.69-1.82-2.37-2.23-4-1.19C172.08,175.24,171,179.5,173,183.61Zm15.55-8c-.05-.5-.09-.82-.12-1.13-.22-2.53-.72-2.9-3.43-2.53s-3.1,1-2.64,3.42c.19,1,.53,1.95.68,2.94.26,1.69,1.37,2,2.76,1.77C187.82,179.77,188.74,178.15,188.59,175.58Zm20.53,138.58c-2.54,1.81-5.66,9.57-5,12.07.09.38.44.89.74.95a1.35,1.35,0,0,0,1-.63,22.05,22.05,0,0,0,1.6-3A18.16,18.16,0,0,0,209.12,314.16Zm-71.24,14.76c2.47-1.2,4.09-9.7,2.3-12.08A17.37,17.37,0,0,0,137.88,328.92Zm91.72-27.73c-1.42,0-3.09,2.08-3.15,3.77,0,.57,3.07,2.25,3.86,1.66a5.41,5.41,0,0,0,1.54-3.37C232.05,301.76,230.75,301.34,229.6,301.19Zm11.81,27.71c.34-.33.56-.43.58-.57a18.68,18.68,0,0,0-1.4-9.71c-.09-.24-.7-.55-.84-.46a1.48,1.48,0,0,0-.68,1A23,23,0,0,0,241.41,328.9ZM174.8,326c.73-3.66-1.5-10.06-3.49-10.63A18.71,18.71,0,0,0,174.8,326Zm-23.9-19.6c.55-.39,1.8-.85,2.27-1.74s-1.62-3.41-2.42-3.26c-1.14.22-2.81.11-2.64,1.92C148.23,304.65,148.38,306.21,150.9,306.44Zm-4.3-2.74-.61-.19c-.7.73-1.38,1.49-2.11,2.18-1,1-.4,1.89.1,2.7.22.35,1.12.71,1.36.55.71-.49,1.65-1.17,1.76-1.89A11.35,11.35,0,0,0,146.6,303.7Zm90.56,3.71c-1.19-1.43-1.87-3-2.87-3.28-1.62-.39-1.48,1.48-1.69,2.53-.33,1.68,1.09,2,2.23,2.14C235.41,308.85,236.07,308.09,237.16,307.41Z"/><path class="cls-4" d="M76.26,375.39c3.34-1.37,5-.45,5.42,2.91.37,3,.42,6.1.52,9.15,0,.38-.56.78-.86,1.17-.35-.45-1-.87-1-1.35-.22-2.51-.28-5-.4-7.55-.06-1.12.14-2.36-1.69-2.25-2.52.15-3.46.75-3.32,2.56.2,2.79.56,5.57.75,8.36,0,.51-.43,1.05-.66,1.57-.49-.31-1.29-.53-1.4-.94a15.05,15.05,0,0,1-.3-3.16c-.1-1.94-.08-3.9-.31-5.82,0-.5-.85-.92-1.34-1.34-.11-.09-.36,0-.55,0-4.06-.07-4.15-.07-4.54,4a30.76,30.76,0,0,0,.13,6c.18,1.77,1.11,2.11,2.6,1.26.47-.27,1.25-.6,1.56-.4a1.86,1.86,0,0,1,.7,1.56c-.08.44-.74.94-1.25,1.12-3.37,1.16-5,.07-5.29-3.55a65.94,65.94,0,0,1-.13-7.17c.14-3.73,2.23-5.37,6-4.86,2,.28,2.35,0,2.2-2.05-.08-1.06-.44-2.1-.5-3.16a5.65,5.65,0,0,1,.51-1.71c.49.48,1.14.87,1.43,1.44C75.16,372.55,75.68,374,76.26,375.39Z"/><path class="cls-5" d="M208.9,375.72c-.45,2.08,0,2.6,2.06,2.94a5.26,5.26,0,0,1,1.65,1c-.57.32-1.13.88-1.73.92-3.34.22-4.31-.76-4.31-4.1,0-2.63-.18-5.27.05-7.87.2-2.23,2.19-3.14,4.39-3a29.85,29.85,0,0,0,7.25-.5c3.58-.69,4.94,0,5.45,3.62.41,2.93.77,5.86,1,8.81,0,.66-.74,1.37-1.14,2.06-.35-.63-1-1.25-1-1.9-.15-2.13,0-4.29-.13-6.43a14,14,0,0,0-.63-3.31,1.89,1.89,0,0,0-2.55-1.31c-1.11.29-2.17.69-2.06,2.23.2,2.77.39,5.54.44,8.31,0,.67-.54,1.35-.83,2-.38-.67-1-1.32-1.09-2-.18-2.63-.1-5.28-.25-7.92,0-.53-.66-1-1-1.54a6.33,6.33,0,0,0-1,1.73c-.27,1.18,0,2.5-.48,3.59C211.93,375.51,211.65,375.58,208.9,375.72Zm3.2-5.67c-.13-2.31-1.06-3-2.82-2-1,.55-1.63,4-.89,4.84a2,2,0,0,0,3-.36A10,10,0,0,0,212.1,370.05Z"/><path class="cls-5" d="M105.43,370.6c1.68.13,2.07.66,1.85,2.22a71.48,71.48,0,0,0-.53,9c0,.65.81,1.29,1.23,2,.24.39.7.86.61,1.17a1.48,1.48,0,0,1-1.07.83c-1.85.13-3.7.2-5.55.15a3.85,3.85,0,0,1-4-3.9c-.07-1.38.1-2.77.12-4.15S98,375,96.42,374.21c-2.28-1.09-3.83-.46-4,2.05-.22,2.78.11,5.61.16,8.41a6.15,6.15,0,0,1-.29,1.95c0,.17-.8.34-1,.21a2.28,2.28,0,0,1-.84-1.31c-.14-1.88,0-3.79-.21-5.66a20.68,20.68,0,0,0-1.15-4.65c-.42-1.15-.62-2,.84-2.25,2.59-.42,5.19-.79,7.79-1.09,1.39-.17,2,.39,1.89,2-.19,2.32-.13,4.66-.09,7,0,2.07,1,3.13,2.7,3.2s2.54-.59,2.71-2.83C105.22,377.69,105.28,374.17,105.43,370.6Z"/><path class="cls-8" d="M282.29,373.57c.11-2.26.21-4.53.32-6.79.07-1.37.69-1.94,2.11-1.51a11,11,0,0,0,2.4.46c2.25.16,2.71.54,2.73,2.88,0,4.21,0,8.42-.06,12.63,0,1,.14,1.85,1.28,2.19,1.42.43,2.37-.06,2.51-1.64.43-4.74,1.46-9.5-.54-14.17-.16-.36.32-1,.5-1.5.53.41,1.48.77,1.53,1.22.35,3.37.61,6.76.7,10.15a38,38,0,0,1-.55,5.06c-.28,2.53-1.72,3.44-4.21,2.78a39.49,39.49,0,0,0-5.14-1.09c-1.83-.25-3-1.2-3.15-2.95-.18-2.56-.05-5.14-.05-7.71Zm6.18,1.68h.14c0-2,.07-4,0-6s-1.51-2-3-2-1.83,1-1.82,2.23c0,3.21,0,6.42.07,9.62a4.14,4.14,0,0,0,.73,2.64,4.31,4.31,0,0,0,2.75,1c.35,0,1-1.12,1.08-1.77C288.56,379,288.47,377.14,288.47,375.25Z"/><path class="cls-9" d="M270.6,382.77a19.82,19.82,0,0,1-.53-3c-.07-3,0-6,0-9l-.81-.11a32.14,32.14,0,0,0-.9,4c-.27,3-.25,3.07-3.35,3.33-.5,1.26-.39,2,1.31,1.9.43,0,1.12.78,1.25,1.31.07.31-.71,1.12-1.19,1.19-2.53.38-3.58-.45-3.58-3,0-3.36-.55-6.79,1.28-9.95a2.73,2.73,0,0,1,2.7-1.63c2.43.13,4.85.39,7.28.43a2.15,2.15,0,0,1,2.42,2c.14.93.45,1.84.51,2.77,0,.36-.44,1.07-.67,1.07a1.74,1.74,0,0,1-1.29-.68c-.3-.58-.14-1.44-.48-2a2.85,2.85,0,0,0-1.71-1.25c-.33,0-1.16,1-1.16,1.51,0,3,.19,6,.26,9a9.66,9.66,0,0,1-.37,2Zm-6.52-8.8,1.26,1.59c.46-.49,1.12-.9,1.33-1.49a8.44,8.44,0,0,0,.39-2.75,1.33,1.33,0,0,0-.68-1.07,1.36,1.36,0,0,0-1.16.57A28.55,28.55,0,0,0,264.08,374Z"/><path class="cls-8" d="M309.62,387.69c-1.24-3.39-.06-7.22-1.26-10.62l-.64-.1a16.57,16.57,0,0,0-.65,2.41c-.13,1.22-.61,1.76-1.91,1.79-.69,0-1.83.48-1.94.95a3.88,3.88,0,0,0,.69,2.33c.28.52,1,.79,1.31,1.32a2,2,0,0,1,.09,1.6,1.53,1.53,0,0,1-1.44.12c-1.31-1.13-2.79-2.17-2.66-4.28.18-2.76.11-5.53.3-8.29.24-3.28,1.81-4.2,4.79-3,2,.83,2.13.72,2.49-1.4.08-.49.77-.87,1.19-1.29.31.48.89,1,.89,1.44,0,4.85-.1,9.7-.17,14.54a9.44,9.44,0,0,1-.06,1.51,3.28,3.28,0,0,1-.49.92Zm-4.8-9.27a22.92,22.92,0,0,0,.93-3.54,1.78,1.78,0,0,0-.92-1.47,2.1,2.1,0,0,0-1.69.78C302.24,375.45,302.94,377.42,304.82,378.42Z"/><path class="cls-9" d="M200.5,383.07c-2.66,2.74-6.86,1.51-7.42-2a90.91,90.91,0,0,1-.73-13.32c0-1.76,1.91-3.21,3.76-3.43a3,3,0,0,1,3.59,2.28,21.26,21.26,0,0,1,1,5.25,66.94,66.94,0,0,1-.63,6.75c-.12,1.35-.64,2.06-2.15,1.85-.79-.11-2-.4-1.92,1,.08,1.18,1,1.38,2.1,1.25A10.6,10.6,0,0,1,200.5,383.07ZM199,371.48c0-1.07.24-1.87-.05-2.29a36,36,0,0,0-2.77-3.29c-.84,1-2.26,1.92-2.4,3a42.7,42.7,0,0,0,.14,7.23c.05,1.1.19,2.2,1.73,2.13,1.38-.06,2.69-.23,2.87-2S198.9,372.79,199,371.48Z"/><path class="cls-10" d="M259.2,373.75c-.05,1.2-.14,2.4-.16,3.59,0,2.89-1.19,4.26-4,4.76a2.57,2.57,0,0,1-3-1.39,4.07,4.07,0,0,1-.61-1.37c-.36-4.42-1.32-8.87.91-13.13a4.28,4.28,0,0,0,.11-2.29c-.06-.61-.44-1.19-.48-1.8,0-.41.32-.84.5-1.26.37.21,1,.34,1.06.62.5,2.06,2.23,2.9,3.7,4a4.77,4.77,0,0,1,2,4.27c-.09,1.31,0,2.64,0,4Zm-6.83,2.31.25.07a7.85,7.85,0,0,0,.46,2.36c.35.67,1.17,1.67,1.65,1.6.92-.14,2.34-.78,2.51-1.47a17,17,0,0,0-.41-10.74,3,3,0,0,0-2.27-1.2c-.43,0-1.24,1-1.34,1.63C252.83,370.88,252.64,373.47,252.37,376.06Z"/><path class="cls-8" d="M120.12,376.67c.29-2.11.42-4.26.91-6.32.43-1.78,3.77-3,5.4-2.22.11.06.27.14.28.23.28,2,.88,4,.63,5.9-.11.81-1.93,1.62-3.11,2-1.91.63-3,3-1.62,4.49.46.5,1.64.35,2.5.49s2.11.14,2.13.32a1.85,1.85,0,0,1-1.81,2.16c-3.07.42-4.91-1.08-5.08-4.19,0-1,0-1.89,0-2.84Zm2-4.64c.25,1-.32,2.46,1.57,2.34,1.22-.07,2.29-.38,2.27-1.87,0-1.21-.43-2.22-1.93-2.2C122.9,370.32,122.09,370.7,122.13,372Z"/><path class="cls-4" d="M158.7,374.31c-.87,2.37-.3,3.55,1.83,4.5.53.24.83,1,1.23,1.57-.63.3-1.28.88-1.87.83a2.42,2.42,0,0,1-1.78-1.12,14.55,14.55,0,0,1-1.46-4.93,35.78,35.78,0,0,1,.77-6.72c.24-1.51,4.31-3.37,5.6-2.55a2.18,2.18,0,0,1,.76,1.55,41.7,41.7,0,0,1,0,4.33c-.06,2.43-.89,3.11-3.31,2.78Zm2.4-1,.47-.53a16.88,16.88,0,0,0,.09-3.17,3,3,0,0,0-1.12-1.55,1.42,1.42,0,0,0-1.16.2,10.69,10.69,0,0,0-.3,3.66C159.2,372.48,160.39,372.84,161.1,373.3Z"/><path class="cls-8" d="M179.71,366.13a19,19,0,0,1,.54,2.94c.06,2.08-.17,4.17,0,6.23a4,4,0,0,0,1.33,2.62c1.49,1.05,2.75.49,3-1.3.27-2.3.18-4.64.25-7a10.89,10.89,0,0,1,.13-2.43c.1-.41.69-.71,1.06-1.06.3.42.86.83.87,1.26,0,1.12-.27,2.24-.3,3.36-.06,2.33.07,4.66-.06,7s-.71,2.83-3.08,2.57c-4-.44-4.81-1.36-4.86-5.36,0-2-.28-3.89-.29-5.84a18.41,18.41,0,0,1,.48-3Z"/><path class="cls-6" d="M54.35,393.49c3.49-.79,3.59-3.35,3.54-6.06s.08-5.29,0-7.93-.74-3-3.12-2.56a5.34,5.34,0,0,1-2-.43,12.52,12.52,0,0,1,.74-2.72c.16-.3,1.1-.27,1.67-.22s.95.49,1.41.46c2.23-.13,2.73,1.38,3,3.08a8.06,8.06,0,0,1,.11,1.7c-.12,4.08-.2,8.17-.43,12.25a5.85,5.85,0,0,1-1,2.79C57.15,395.8,56,395.73,54.35,393.49Z"/><path class="cls-9" d="M168.45,382.08c2-1.07,2.54-2.8,2.6-4.79.1-3.71.25-7.41.31-11.12,0-2.41-.86-3.16-3.22-2.9-.93.11-2.07.41-2.09-1.06s1.07-1.36,2-1.27a13.81,13.81,0,0,1,2.78.47c1.44.44,2.49,1.07,2.08,3-.28,1.37.2,2.87.14,4.31-.14,3.8-.32,7.61-.63,11.4a4.45,4.45,0,0,1-1.19,2.46C170.33,383.62,169.21,383.93,168.45,382.08Z"/><path class="cls-8" d="M119.45,366.72c-2.67-.27-4.13,1.08-5,3.35l2.12,2c-.08.28-.08.37-.11.39-4,2-2.8,5.45-2.5,8.66,0,.43.38.86.33,1.26a5,5,0,0,1-.63,1.34c-.47-.23-1.14-.35-1.36-.74a3.77,3.77,0,0,1-.46-2c.15-3.77.26-7.54.61-11.3a5.49,5.49,0,0,1,4-4.8C118,364.27,118.93,364.57,119.45,366.72Z"/><path class="cls-9" d="M317.51,383.69c.24,1.65.51,3,.61,4.38,0,.47-.34,1-.52,1.47-.5-.29-1.29-.46-1.43-.87a8.38,8.38,0,0,1-.42-2.91c.07-3.67.18-7.34.38-11,0-.56.56-1.1.86-1.65a8.45,8.45,0,0,1,1.66,1.19c.19.22,0,.84-.11,1.24-.64,2.08-.31,2.56,1.86,2.63.5,0,1.17-.15,1.46.11a1.75,1.75,0,0,1,.58,1.5,2.05,2.05,0,0,1-1.44,1c-.92.08-2.46-.55-2.67-.2A9.33,9.33,0,0,0,317.51,383.69Z"/><path class="cls-7" d="M327.22,380c-.09-1.44-.24-2.89-.22-4.33,0-.42.51-.83.78-1.24.37.39,1,.77,1.05,1.19q.26,4.62.24,9.24c0,.45-.63.9-1,1.35-.29-.43-.8-.85-.83-1.3C327.16,383.26,327.22,381.62,327.22,380Z"/><path class="cls-8" d="M150.46,381a11.54,11.54,0,0,1-.92-2.85c-.14-2.51-.13-5,0-7.54,0-.59.69-1.15,1.06-1.73a7,7,0,0,1,.69,1.88c.17,2.6.24,5.22.29,7.83a16.27,16.27,0,0,1-.28,2.29Z"/><path class="cls-9" d="M149.49,359.07c.93.86,2,1.66,1.95,1.84a17.14,17.14,0,0,1-2,2.64,8.94,8.94,0,0,1-1.27-2.42C148.08,360.65,148.84,360,149.49,359.07Z"/><path class="cls-10" d="M327.94,393.15c-.55-.86-1.06-1.35-1.15-1.91,0-.29.84-1.06,1-1a2.47,2.47,0,0,1,1.29,1.25C329.17,391.83,328.5,392.38,327.94,393.15Z"/><path class="cls-19" d="M175.23,287.28c2.72-7.41,5.33-14.54,8-21.65.37-1,.85-1.94-.89-2.3-.22.52-.48,1.07-.7,1.63l-9.08,23.37c-.74,1.9-1.46,2.09-3,.78a10.1,10.1,0,0,1-1.62-1.58c-1.21-1.67-2.45-2.66-4.74-1.7-1.51.62-2.66-1.19-1.91-3,.6-1.44,1.49-2.76,2.18-4.17.81-1.68,1.5-3.42,2.32-5.1.89-1.84,1.58-3.9,2.88-5.42,6.15-7.18,9.17-15.3,8.47-24.82a70.05,70.05,0,0,1,.39-8.67c0-.32.16-.69,0-.93a8.38,8.38,0,0,0-.9-1.27c-.29.39-.83.77-.84,1.17-.17,4.22-.33,8.44-.33,12.67a25.75,25.75,0,0,1-4.39,15.15c-2.25,3.24-4.24,6.76-7.86,8.78-.53.29-1.08.53-2.24,1.09,2.57-12.39,2.73-24.37,2.4-36.36l-.91-.1a13,13,0,0,0-.37,2.67c.72,9.31-.83,18.48-1.66,27.69a9.31,9.31,0,0,1-4.11,7.09c-1.89,1.33-3.45,3.11-5.21,4.62a7.58,7.58,0,0,1-1.83.84c.37-13.8.73-27.32,1.09-40.83l-.66-.34a8.09,8.09,0,0,0-1.19,1.3c-.17.28,0,.74-.05,1.11-.37,12.54-.83,25.08-1,37.62,0,2.33-.7,3.21-2.75,3.82-.91.28-1.63,1.29-2.39,2-1.64,1.55-3.21,3.18-4.91,4.65a2.18,2.18,0,0,1-1.85.33c-.33-.13-.52-1.07-.5-1.64.24-9.33.49-18.66.81-28,.31-8.74.71-17.48,1.08-26.23.51-11.78.92-23.56,1.58-35.33.56-9.86,6-15.37,16-16.61,1.25-.16,2.5-.29,3.75-.46,1.09-.16,1.69.28,1.79,1.37a19.09,19.09,0,0,1,.17,2.26c-.19,6.55-.44,13.11-.59,19.66a27.3,27.3,0,0,0,.38,4.32,2.37,2.37,0,0,0,2.78,2.22c4.2-.4,8.39-.86,12.57-1.44a5.92,5.92,0,0,0,3.07-1.32,5.3,5.3,0,0,0,1.81-3.09c.35-5.32.44-10.66.61-16a9.92,9.92,0,0,0-.14-1.88c-.48-2.45,1.1-4.17,3.51-3.79,3.31.52,5.55-1.39,5.53-4.71,0-.25,0-.51,0-.76.06-5.18-.56-4.42,4.58-4.36a2.07,2.07,0,0,1,2.32,2.15Q198,186.89,199.22,200a9.52,9.52,0,0,1,0,1.51c-.24,3.39,1.11,5.48,4.52,6.07,4.15.72,8.37,1,12.56,1.52a2.19,2.19,0,0,0,2.55-1.77,23.43,23.43,0,0,0,.77-5.36c-.11-6.94-.38-13.87-.62-20.8,0-1.4.63-2,1.92-1.92,6.45.4,12.46,1.88,16.7,7.32,2.19,2.8,2.86,6.15,3,9.57.83,21.48,1.57,43,2.37,64.45.31,8.38.73,16.76,1.06,25.14a8.56,8.56,0,0,1-.43,2.08,6.23,6.23,0,0,1-2-.7c-1.67-1.4-3.2-3-4.85-4.41a11.87,11.87,0,0,0-3.07-2.16c-1.15-.47-1.76-.95-1.79-2.25q-.51-19.38-1.13-38.75a5.82,5.82,0,0,0-.85-2.63c-1.6.24-1,1.63-1,2.56.22,11.66.53,23.31.77,35,0,1.15.93,2.46-.58,3.68-1.08-1-2.15-1.89-3.2-2.84a38.38,38.38,0,0,1-4-3.74c-1.12-1.35-2.44-2.91-2.71-4.54a160.62,160.62,0,0,1-1.92-30c0-.59-.48-1.19-.74-1.79-.39.6-1.15,1.21-1.13,1.79.2,7.12.35,14.25.87,21.35.27,3.86,1.22,7.68,1.83,11.52.05.32,0,.94-.17,1a1.93,1.93,0,0,1-1.37-.05,28.68,28.68,0,0,1-4.15-3.24c-5.66-5.87-8.73-12.79-8.53-21.09.1-4-.15-8.06-.32-12.09,0-.49-.56-.95-.86-1.43-.28.47-.82.95-.82,1.42.05,5.23,0,10.48.33,15.69.45,6.84,3.46,12.67,8,17.75a16.24,16.24,0,0,1,3.33,5.76c1,3.05,2.75,5.86,4.17,8.79a5.75,5.75,0,0,1,.59,1.57c.26,1.84-.88,2.95-2.57,2.27s-2.6-.14-3.57,1.06a27,27,0,0,1-2.21,2.33c-1.57,1.55-2.07,1.48-3-.45-.66-1.36-1.26-2.74-1.8-4.15-2.42-6.28-4.8-12.56-7.19-18.85-.11-.29-.16-.67-.38-.85a9.56,9.56,0,0,0-1.4-.9c-.08.55-.39,1.19-.22,1.64,2.46,6.39,5,12.75,7.49,19.13,1,2.67.7,3.12-2.23,2.74s-5.71-.94-8.56-1.39a1.94,1.94,0,0,1-1.87-2.3c.13-5.73.15-11.47.21-17.2,0-.32.14-.7,0-.93a18.31,18.31,0,0,0-1.26-1.77c-.32.55-.92,1.1-.93,1.66-.07,4.8,0,9.59,0,14.38,0,1.52.08,3,0,4.54,0,.47-.55,1.23-.95,1.3-3.4.59-6.82,1.09-10.24,1.54A8.76,8.76,0,0,1,175.23,287.28Zm8.18-62.84-.47.67a7.91,7.91,0,0,0,1.45,1.54c3.08,1.82,6.22,2.22,9.44.29a3.06,3.06,0,0,1,4,.33c2.61,2.86,5.31,2.52,8.23.68.37-.23.78-.41,1.17-.61,2.23-1.16,3.49-1,5.19.8,3.78,3.91,4.08,4,8.83,1.52a3.83,3.83,0,0,1,4.56.39c.73.6,1.4,1.27,2.15,1.84a5.34,5.34,0,0,0,6.64.08c1-.79,1.92-1.33,3.22-.58.28.16.85-.18,1.28-.28-.19-.47-.25-1.12-.6-1.36-1.48-1-2.8-.42-4.16.49-2.65,1.77-3.51,1.71-5.74-.49-2.41-2.39-5.35-2.94-8.15-1.5-3,1.53-5,.9-6.87-1.42a6.73,6.73,0,0,0-.81-.79,4.47,4.47,0,0,0-5.56-.7c-1,.52-2,1.11-3,1.65-2.28,1.25-2.83,1.22-4.53-.7a4.59,4.59,0,0,0-5.61-1.32,13.32,13.32,0,0,0-1.74.73,5.51,5.51,0,0,1-6.36-.24A11.71,11.71,0,0,0,183.41,224.44ZM174,218.07a11.06,11.06,0,0,0-1.53.34c-2.67,1-3.15.85-4.86-1.51a2.36,2.36,0,0,0-3.59-.69c-1.58,1-3.21,2-4.7,3.15s-2.7,1.34-4.27.3a4.06,4.06,0,0,0-5.22.44c-1,.79-2,1.49-3.05,2.22-.88.61-1.74,1.18-2.87.34-.23-.17-.9.24-1.37.38.22.44.39,1.22.66,1.26a7.33,7.33,0,0,0,3.33,0A12.28,12.28,0,0,0,150,222a3.83,3.83,0,0,1,5.15-.34,2.9,2.9,0,0,0,3.66-.1c1.58-1.12,3.27-2.12,4.87-3.23,1.09-.76,2.11-.93,3,.24,1.5,2.06,3.58,2.06,5.78,1.77C173.57,220.21,174.26,219.68,174,218.07Zm34.82,1,.12-.66c-1.19-.9-2.42-1.75-3.56-2.71-2.25-1.9-4.52-2.33-7-.37a3.17,3.17,0,0,1-4.57-.06,8.26,8.26,0,0,0-1.26-.82c-2.28-1.49-3-1.49-5,.28-.37.32-.4,1-.59,1.55.51,0,1.21.24,1.5,0,1.57-1.34,2.83-.64,4.22.31,3,2,4,2,6.94-.1a2.68,2.68,0,0,1,3.45-.07,40.39,40.39,0,0,0,3.55,2.48A5.65,5.65,0,0,0,208.82,219Zm5.11-3.55c1.34,3.06,8.91,6.4,11.62,5.77.36-.08.7-.36,1-.37a10.38,10.38,0,0,1,3.21.13c1.42.45,2.7,1.34,4.1,1.88.5.19,1.19-.1,1.8-.17-.35-.45-.6-1.06-1.05-1.32a21.7,21.7,0,0,0-4.25-2,16.69,16.69,0,0,0-4-.32c-1.58-.07-3.29.24-4.74-.24A48.84,48.84,0,0,1,216,216,9.81,9.81,0,0,0,213.93,215.47Zm-71.21,17.7c2.81-2.14,2.81-2.14,5.45.3a5.12,5.12,0,0,0,.43.36,2.51,2.51,0,0,0,3.58.06c1.65-1.52,3.21-3.15,4.73-4.8.27-.29.16-1,.22-1.43-.54.13-1.22.1-1.58.43-.92.84-1.65,1.89-2.53,2.77-2.41,2.41-2.42,2.39-4.87.06-2-1.87-3.8-1.9-5.6-.14C141.7,231.61,141.58,232.34,142.72,233.17ZM181.15,257c.45,2.65,1.3,3.31,3.17,2.67a9.81,9.81,0,0,0,3-1.81c2.25-1.83,2.67-1.95,5.24-.54.77.42,1.43,1,2.21,1.43a8.2,8.2,0,0,0,1.88.45l.35-.69a11.65,11.65,0,0,0-1.78-1.67c-1.16-.74-2.44-1.28-3.64-2a3.48,3.48,0,0,0-4.46.55C185.54,256.9,184.11,259.11,181.15,257Zm.14-19.44-.19.75c.58.19,1.22.64,1.73.53a10.2,10.2,0,0,0,3.12-1.2c1.33-.81,2.58-2.64,3.76-2.56s2.47,1.89,3.74,2.88a2.64,2.64,0,0,0,3.57.16c-1.17-.75-2.2-1.3-3.09-2a35,35,0,0,1-2.74-2.57c-1.06-1.06-1.95-.88-3.09,0C186,235.25,184.44,237.72,181.29,237.59Zm-37.66-25.22.3.6c1.6-3.1,3.07-1.81,4.8-.64a3.69,3.69,0,0,0,3.14.47,44.2,44.2,0,0,0,5.68-4.48c.24-.2.07-.88.09-1.33-.45.1-1,.07-1.33.33a32.57,32.57,0,0,0-3.08,2.79c-1.43,1.48-2.9,1.5-4.54.36a5.26,5.26,0,0,0-2.28-1.2,4.07,4.07,0,0,0-2.71.83C143.31,210.42,143.63,211.59,143.63,212.37ZM237,210.15l.1-.68c-.57-.37-1.17-1.08-1.71-1a12.92,12.92,0,0,0-4.48.85c-1.39.64-2.44.78-3.59-.27a22,22,0,0,0-2.59-2.15c-.41-.27-1.09-.14-1.64-.2.13.54.08,1.27.41,1.59.91.85,2,1.49,3,2.29a3.9,3.9,0,0,0,5,.43c1.22-.77,2.4-1.26,3.86-.45C235.67,210.73,236.4,210.29,237,210.15Zm-78.07,18.61-.14.66c2.11,2.88,5.06,3.27,7.78,1.13,1.72-1.34,3.58-2.51,5.3-3.85.41-.32.51-1,.76-1.57-.59,0-1.35-.28-1.75,0a54.9,54.9,0,0,0-5.32,3.89c-1.59,1.36-3,1.53-4.69.21A5.08,5.08,0,0,0,158.89,228.76Zm64.56-42.07-.56.12c0,.58-.21,1.26,0,1.7,1.76,3.27,4.57,4.28,8.1,3.07a29.7,29.7,0,0,0,2.87-.84c.52-.24.83-.92,1.23-1.4-.57-.19-1.2-.64-1.7-.52a29.7,29.7,0,0,0-4.26,1.45,2.41,2.41,0,0,1-3-.74C225.28,188.55,224.35,187.64,223.45,186.69Zm-80.68,65.54a44.22,44.22,0,0,0,1-13.22c-.73.42-1.44.94-1.5,1.54a31.18,31.18,0,0,0-.28,6C142.18,248.44,140.72,250.51,142.77,252.23ZM237,238.93l-.66,0a13.07,13.07,0,0,0-.36,2.37c.08,2.95.19,5.91.43,8.85,0,.66.65,1.29,1,1.93.32-.73.92-1.49.89-2.21-.12-3.07-.41-6.13-.7-9.19A7.91,7.91,0,0,0,237,238.93Zm-.68-37.75c-.3-.15-.58-.43-.85-.42-2.2.05-3.6-1.47-5.25-2.55-2-1.34-6.13-1.51-7.42,1.31,1-.1,1.81-.2,2.6-.25a6.94,6.94,0,0,1,2.68-.05,11.34,11.34,0,0,1,3.16,1.92A3.6,3.6,0,0,0,236.34,201.18ZM222.9,237.73c0,3.49,0,7,0,10.42a1.21,1.21,0,0,0,.76.92,1.24,1.24,0,0,0,1-.63,4.15,4.15,0,0,0,.21-1.65c-.06-2.63-.19-5.26-.23-7.89C224.64,237.64,224,237.42,222.9,237.73ZM189.5,207.6c1.14-.62,1.92-1,2.62-1.45a15.73,15.73,0,0,0,2.48-2c.37-.38.41-1.08.6-1.63a9.69,9.69,0,0,0-1.62.19c-.28.07-.49.38-.72.59-2.82,2.57-2.82,2.57-6.11.53-.15-.1-.32-.27-.48-.27a8.07,8.07,0,0,0-1.19.15c.06.34,0,.86.19,1C186.65,205.75,188.08,206.66,189.5,207.6Zm-33.32,29.82-.64.23-.48,7.83a18.76,18.76,0,0,0-.09,2.8c0,.35.57.66.88,1,.26-.31.72-.61.74-.93.17-3.12.3-6.24.34-9.36C156.93,238.46,156.44,237.94,156.18,237.42Zm-11.74-34.48.52.56a11,11,0,0,0,6.69-3.66c.35-.39.28-1.14.41-1.73-.6.12-1.53,0-1.75.4-1.12,1.81-2.89,2.47-4.73,3.15C145.11,201.83,144.82,202.5,144.44,202.94Zm64.76,38.74h.11a5.46,5.46,0,0,0,0,1.67c.15.45.63.78,1,1.16.29-.4.8-.78.84-1.21.17-1.92.28-3.86.26-5.79,0-.44-.62-.87-.95-1.31-.31.4-.83.76-.89,1.19C209.36,238.82,209.32,240.25,209.2,241.68Zm-29,4.94c.44,0,.86.13,1,0,1.43-1.34,2.7-.6,4,.22a.44.44,0,0,0,.17.08l2-.2a6.64,6.64,0,0,0-1.2-1.42,23,23,0,0,0-2.33-1.16C181.71,243,180.26,244,180.18,246.62Zm-11-7.85a35.19,35.19,0,0,0,.55,3.5c.12.44.67.77,1,1.15a5,5,0,0,0,.64-1.38c.18-1.68-.86-3.48.45-5.1.08-.1-.25-.78-.5-.86a1.2,1.2,0,0,0-1.06.27A25.73,25.73,0,0,0,169.19,238.77Zm10.08-12.84c-1.63,2.87-3.5,2.29-5.4.33-.26,2.22.74,3.8,2.39,3.53s3-1.36,4.8-2.24Zm6.21-30.57c1,0,1.81.25,2.24-.05a2.22,2.22,0,0,1,2.88-.15c.28.19,1-.26,1.49-.42-.26-.41-.42-1-.79-1.2C188.83,192.16,188,192.4,185.48,195.36Zm-27.39-7.16c-.58-1.79-1.27-1.63-4,1.12l1,1.22Zm23.64,29.45,3,.49.27-.67-2.19-1.83Zm9.55-31.13c-.92-.37-1.44-.78-1.84-.69s-.69.69-1,1.07c.41.25.83.72,1.23.7S190.46,187.09,191.28,186.52Zm5.23,58.07-1.29,1.54c.41.3.81.83,1.21.82a1.38,1.38,0,0,0,1-.9C197.52,245.7,197,245.27,196.51,244.59Zm-44.28-52.41-.27-1.09a11.87,11.87,0,0,0-2,.39,5.57,5.57,0,0,0,.16,1.3Zm-7.6-.41.71.15,1.27-1.75-.28-.48c-.61.09-1.43,0-1.76.35S144.59,191.17,144.63,191.77Z"/><path class="cls-18" d="M258.27,339.24a20.34,20.34,0,0,1-13.49-6,5.08,5.08,0,0,1-1.27-3.69,22.46,22.46,0,0,0-2.46-13.69,4,4,0,0,1,0-3.95c4-8.28,14.88-13.8,25.17-8.81,7.41,3.6,10.69,9.66,10.56,17.45-.13,7.94-4.2,13.69-11.67,16.72A65.13,65.13,0,0,1,258.27,339.24Z"/><path class="cls-11" d="M103.3,321.35c0-9.35,5.32-16.58,13.19-19.24a19,19,0,0,1,20.76,6.57,24.77,24.77,0,0,1,2.45,4.43,2.09,2.09,0,0,1-.22,1.71c-3.39,5-4.09,10.48-3.08,16.24.38,2.17-1.49,2.78-2.46,3.51-6.16,4.63-13,5.79-20,2.3C107.08,333.49,103.67,327.66,103.3,321.35Z"/><path class="cls-18" d="M189.94,296.81c8.05.08,13.87,3.75,17.51,10.91,1.17,2.29,1.13,4.29-.79,6.35a15,15,0,0,0-3.78,12.08c.29,2.92-.93,4.34-3.29,5.77a18.36,18.36,0,0,1-21-1.68,4.34,4.34,0,0,1-1.39-3,20.41,20.41,0,0,0-4.38-13.34,3.58,3.58,0,0,1-.56-3.94c2.3-6.64,6.92-10.77,13.53-12.83a4,4,0,0,1,.93-.15Z"/><path class="cls-18" d="M149.31,310.75c1.23-3,3.39-3.68,5.34-1.89,3.4-2.79,6.59-.42,9.84.41.06,0,.11.07.16.09,3.73,1.66,5.37,4.36,5.26,8.58-.1,3.92,1.61,7.42,4,10.57a3.88,3.88,0,0,1,.46,3.06c-2.1,7-6.76,11.64-13.83,13-9.25,1.8-16-1.41-21.06-10a3.51,3.51,0,0,1,.19-4.19c3-4.41,3.3-9.42,2.49-14.51a2.6,2.6,0,0,1,.95-2.78c.64-.52,1.24-1.08,1.83-1.64C146.22,310.3,147.58,309.74,149.31,310.75Z"/><path class="cls-18" d="M224.72,308.51c2.08-1.25,3.61-.89,5.16,1.25a1.54,1.54,0,0,0,1.18.61c2.06-.56,3.29.63,4.61,1.87a5,5,0,0,1,1.74,5.05,18.64,18.64,0,0,0,2.78,13,3.06,3.06,0,0,1,0,3.8c-1.84,2.67-3.35,5.48-6.18,7.48a18.21,18.21,0,0,1-15,2.95c-6.36-1.35-10.58-5.49-13.34-11.25a4,4,0,0,1,.5-4.38c2.32-3.25,4.17-6.74,4.51-10.83a9.89,9.89,0,0,0,.06-3.55c-.56-1.83.34-2.74,1.59-3.59a22.1,22.1,0,0,1,10-3.52C222.94,307.32,223.71,308,224.72,308.51Z"/><path class="cls-19" d="M210.27,310.06c-.42-.95-.74-1.62-1-2.3-5.58-13.67-24.43-17.29-35-5.25a23.42,23.42,0,0,0-3.29,5.9c-1,2.13-1,2.24-3.06.92a13,13,0,0,0-1.1-.72c-1.31-.66-1.32-1.43-.93-2.87a27.68,27.68,0,0,0,.58-6.52c.08-2.93,1.34-6.11,3.16-7.55,2.39,1.21,2.52,1.13,4.2-1a2.92,2.92,0,0,1,1.73-.93c3.78-.56,7.63-.76,11.35-1.6,3.42-.78,6.45.53,9.66.91,2.36.28,4.75.32,7.09.7a4.48,4.48,0,0,1,2.41,1.5c.89,1.07,1.75,1.56,3.07,1a1.59,1.59,0,0,1,2.43,1,62.62,62.62,0,0,1,1.47,6.34c.39,2.15.69,4.32.87,6.49a3.07,3.07,0,0,1-.69,2.19A15.7,15.7,0,0,1,210.27,310.06Z"/><path class="cls-13" d="M164.86,287.44c1.53-.05,3.09,2.37,2.39,3.8-1.38,2.83-2.74,5.63-2.59,8.93a31.81,31.81,0,0,1-.38,4.65c-.16,1.61-.86,2.13-2.54,1.61a13.12,13.12,0,0,0-4.28-.5c-2.62.09-2.6-2.21-3.37-3.67-.19-.36.89-1.43,1.42-2.15a13.4,13.4,0,0,0,1.53-1.88c1.16-2.43,2.32-4.87,3.28-7.38S162.32,287.52,164.86,287.44Z"/><path class="cls-13" d="M214.85,299.69c.61-3.33-.76-5.59-2-7.84-.59-1.07-.82-2.1.13-2.86a7,7,0,0,1,2.73-1.12c2.68-.63,3.35,1,4,3.23a45.89,45.89,0,0,0,3.06,7.07,12,12,0,0,0,1.65,2c.5.6,1.52,1.46,1.37,1.79-.58,1.3-1.28,3-2.39,3.49a19.1,19.1,0,0,1-6.13.85,2.07,2.07,0,0,1-1.51-1.24C215.29,303.14,215.07,301.14,214.85,299.69Z"/><path class="cls-13" d="M173,183.61c-2.09-4.11-1-8.37,2.71-10.71,1.63-1,3.31-.63,4,1.19a32.67,32.67,0,0,1,1.42,5.26c.27,1.36-1.73,3.39-2.8,2.79C176,180.82,174.61,182.14,173,183.61Z"/><path class="cls-12" d="M188.59,175.58c.15,2.57-.77,4.19-2.75,4.47-1.39.2-2.5-.08-2.76-1.77-.15-1-.49-2-.68-2.94-.46-2.42.06-3.07,2.64-3.42s3.21,0,3.43,2.53C188.5,174.76,188.54,175.08,188.59,175.58Z"/><path class="cls-14" d="M209.12,314.16a18.16,18.16,0,0,1-1.66,9.4,22.05,22.05,0,0,1-1.6,3,1.35,1.35,0,0,1-1,.63c-.3-.06-.65-.57-.74-.95C203.46,323.73,206.58,316,209.12,314.16Z"/><path class="cls-15" d="M137.88,328.92a17.37,17.37,0,0,1,2.3-12.08C142,319.22,140.35,327.72,137.88,328.92Z"/><path class="cls-15" d="M229.6,301.19c1.15.15,2.45.57,2.25,2.06a5.41,5.41,0,0,1-1.54,3.37c-.79.59-3.88-1.09-3.86-1.66C226.51,303.27,228.18,301.2,229.6,301.19Z"/><path class="cls-15" d="M241.41,328.9a23,23,0,0,1-2.34-9.78,1.48,1.48,0,0,1,.68-1c.14-.09.75.22.84.46a18.68,18.68,0,0,1,1.4,9.71C242,328.47,241.75,328.57,241.41,328.9Z"/><path class="cls-15" d="M174.8,326a18.71,18.71,0,0,1-3.49-10.63C173.3,316,175.53,322.38,174.8,326Z"/><path class="cls-14" d="M150.9,306.44c-2.52-.23-2.67-1.79-2.79-3.08-.17-1.81,1.5-1.7,2.64-1.92.8-.15,2.87,2.42,2.42,3.26S151.45,306.05,150.9,306.44Z"/><path class="cls-15" d="M146.6,303.7a11.35,11.35,0,0,1,.5,3.35c-.11.72-1,1.4-1.76,1.89-.24.16-1.14-.2-1.36-.55-.5-.81-1.1-1.74-.1-2.7.73-.69,1.41-1.45,2.11-2.18Z"/><path class="cls-15" d="M237.16,307.41c-1.09.68-1.75,1.44-2.33,1.39-1.14-.11-2.56-.46-2.23-2.14.21-1.05.07-2.92,1.69-2.53C235.29,304.37,236,306,237.16,307.41Z"/><path class="cls-14" d="M212.1,370.05a10,10,0,0,1-.75,2.46,2,2,0,0,1-3,.36c-.74-.89-.11-4.29.89-4.84C211,367.05,212,367.74,212.1,370.05Z"/><path class="cls-16" d="M288.47,375.25c0,1.89.09,3.78-.06,5.65-.05.65-.73,1.79-1.08,1.77a4.31,4.31,0,0,1-2.75-1,4.14,4.14,0,0,1-.73-2.64c-.1-3.2-.06-6.41-.07-9.62,0-1.24.2-2.26,1.82-2.23s2.9.13,3,2,0,4,0,6Z"/><path class="cls-15" d="M264.08,374a28.55,28.55,0,0,1,1.14-3.15,1.36,1.36,0,0,1,1.16-.57,1.33,1.33,0,0,1,.68,1.07,8.44,8.44,0,0,1-.39,2.75c-.21.59-.87,1-1.33,1.49Z"/><path class="cls-15" d="M304.82,378.42c-1.88-1-2.58-3-1.68-4.23a2.1,2.1,0,0,1,1.69-.78,1.78,1.78,0,0,1,.92,1.47A22.92,22.92,0,0,1,304.82,378.42Z"/><path class="cls-12" d="M199,371.48c-.13,1.31-.3,3-.48,4.79s-1.49,1.94-2.87,2c-1.54.07-1.68-1-1.73-2.13a42.7,42.7,0,0,1-.14-7.23c.14-1.09,1.56-2,2.4-3a36,36,0,0,1,2.77,3.29C199.27,369.61,199,370.41,199,371.48Z"/><path class="cls-12" d="M252.37,376.06c.27-2.59.46-5.18.85-7.75.1-.63.91-1.66,1.34-1.63a3,3,0,0,1,2.27,1.2,17,17,0,0,1,.41,10.74c-.17.69-1.59,1.33-2.51,1.47-.48.07-1.3-.93-1.65-1.6a7.85,7.85,0,0,1-.46-2.36Z"/><path class="cls-15" d="M122.13,372c0-1.33.77-1.71,1.91-1.73,1.5,0,1.92,1,1.93,2.2,0,1.49-1,1.8-2.27,1.87C121.81,374.49,122.38,373,122.13,372Z"/><path class="cls-14" d="M161.1,373.3c-.71-.46-1.9-.82-2-1.39a10.69,10.69,0,0,1,.3-3.66,1.42,1.42,0,0,1,1.16-.2,3,3,0,0,1,1.12,1.55,16.88,16.88,0,0,1-.09,3.17Z"/><path class="cls-9" d="M183.41,224.44a11.71,11.71,0,0,1,2.61,1,5.51,5.51,0,0,0,6.36.24,13.32,13.32,0,0,1,1.74-.73,4.59,4.59,0,0,1,5.61,1.32c1.7,1.92,2.25,2,4.53.7,1-.54,2-1.13,3-1.65a4.47,4.47,0,0,1,5.56.7,6.73,6.73,0,0,1,.81.79c1.91,2.32,3.91,2.95,6.87,1.42,2.8-1.44,5.74-.89,8.15,1.5,2.23,2.2,3.09,2.26,5.74.49,1.36-.91,2.68-1.49,4.16-.49.35.24.41.89.6,1.36-.43.1-1,.44-1.28.28-1.3-.75-2.2-.21-3.22.58a5.34,5.34,0,0,1-6.64-.08c-.75-.57-1.42-1.24-2.15-1.84a3.83,3.83,0,0,0-4.56-.39c-4.75,2.46-5.05,2.39-8.83-1.52-1.7-1.76-3-2-5.19-.8-.39.2-.8.38-1.17.61-2.92,1.84-5.62,2.18-8.23-.68a3.06,3.06,0,0,0-4-.33c-3.22,1.93-6.36,1.53-9.44-.29a7.91,7.91,0,0,1-1.45-1.54Z"/><path class="cls-9" d="M174,218.07c.26,1.61-.43,2.14-1.61,2.29-2.2.29-4.28.29-5.78-1.77-.84-1.17-1.86-1-3-.24-1.6,1.11-3.29,2.11-4.87,3.23a2.9,2.9,0,0,1-3.66.1A3.83,3.83,0,0,0,150,222a12.28,12.28,0,0,1-3.45,2.27,7.33,7.33,0,0,1-3.33,0c-.27,0-.44-.82-.66-1.26.47-.14,1.14-.55,1.37-.38,1.13.84,2,.27,2.87-.34,1-.73,2.08-1.43,3.05-2.22a4.06,4.06,0,0,1,5.22-.44c1.57,1,2.85.8,4.27-.3s3.12-2.12,4.7-3.15a2.36,2.36,0,0,1,3.59.69c1.71,2.36,2.19,2.5,4.86,1.51A11.06,11.06,0,0,1,174,218.07Z"/><path class="cls-2" d="M208.82,219a5.65,5.65,0,0,1-2.13-.18,40.39,40.39,0,0,1-3.55-2.48,2.68,2.68,0,0,0-3.45.07c-2.95,2.11-4,2.13-6.94.1-1.39-.95-2.65-1.65-4.22-.31-.29.25-1,0-1.5,0,.19-.53.22-1.23.59-1.55,2-1.77,2.68-1.77,5-.28a8.26,8.26,0,0,1,1.26.82,3.17,3.17,0,0,0,4.57.06c2.45-2,4.72-1.53,7,.37,1.14,1,2.37,1.81,3.56,2.71Z"/><path class="cls-9" d="M213.93,215.47A9.81,9.81,0,0,1,216,216a48.84,48.84,0,0,0,5.71,2.83c1.45.48,3.16.17,4.74.24a16.69,16.69,0,0,1,4,.32,21.7,21.7,0,0,1,4.25,2c.45.26.7.87,1.05,1.32-.61.07-1.3.36-1.8.17-1.4-.54-2.68-1.43-4.1-1.88a10.38,10.38,0,0,0-3.21-.13c-.35,0-.69.29-1,.37C222.84,221.87,215.27,218.53,213.93,215.47Z"/><path class="cls-9" d="M142.72,233.17c-1.14-.83-1-1.56-.17-2.39,1.8-1.76,3.63-1.73,5.6.14,2.45,2.33,2.46,2.35,4.87-.06.88-.88,1.61-1.93,2.53-2.77.36-.33,1-.3,1.58-.43-.06.48.05,1.14-.22,1.43-1.52,1.65-3.08,3.28-4.73,4.8a2.51,2.51,0,0,1-3.58-.06,5.12,5.12,0,0,1-.43-.36C145.53,231,145.53,231,142.72,233.17Z"/><path class="cls-2" d="M181.15,257c3,2.08,4.39-.13,6-1.57a3.48,3.48,0,0,1,4.46-.55c1.2.68,2.48,1.22,3.64,2a11.65,11.65,0,0,1,1.78,1.67l-.35.69a8.2,8.2,0,0,1-1.88-.45c-.78-.38-1.44-1-2.21-1.43-2.57-1.41-3-1.29-5.24.54a9.81,9.81,0,0,1-3,1.81C182.45,260.34,181.6,259.68,181.15,257Z"/><path class="cls-2" d="M181.29,237.59c3.15.13,4.74-2.34,6.81-4,1.14-.92,2-1.1,3.09,0a35,35,0,0,0,2.74,2.57c.89.71,1.92,1.26,3.09,2a2.64,2.64,0,0,1-3.57-.16c-1.27-1-2.43-2.79-3.74-2.88s-2.43,1.75-3.76,2.56a10.2,10.2,0,0,1-3.12,1.2c-.51.11-1.15-.34-1.73-.53Z"/><path class="cls-9" d="M143.63,212.37c0-.78-.32-2,.07-2.27a4.07,4.07,0,0,1,2.71-.83,5.26,5.26,0,0,1,2.28,1.2c1.64,1.14,3.11,1.12,4.54-.36a32.57,32.57,0,0,1,3.08-2.79c.32-.26.88-.23,1.33-.33,0,.45.15,1.13-.09,1.33a44.2,44.2,0,0,1-5.68,4.48,3.69,3.69,0,0,1-3.14-.47c-1.73-1.17-3.2-2.46-4.8.64Z"/><path class="cls-8" d="M237,210.15c-.56.14-1.29.58-1.66.37-1.46-.81-2.64-.32-3.86.45a3.9,3.9,0,0,1-5-.43c-1-.8-2.07-1.44-3-2.29-.33-.32-.28-1.05-.41-1.59.55.06,1.23-.07,1.64.2a22,22,0,0,1,2.59,2.15c1.15,1.05,2.2.91,3.59.27a12.92,12.92,0,0,1,4.48-.85c.54,0,1.14.67,1.71,1Z"/><path class="cls-8" d="M158.89,228.76a5.08,5.08,0,0,1,1.94.46c1.68,1.32,3.1,1.15,4.69-.21a54.9,54.9,0,0,1,5.32-3.89c.4-.27,1.16,0,1.75,0-.25.53-.35,1.25-.76,1.57-1.72,1.34-3.58,2.51-5.3,3.85-2.72,2.14-5.67,1.75-7.78-1.13Z"/><path class="cls-9" d="M223.45,186.69c.9.95,1.83,1.86,2.69,2.84a2.41,2.41,0,0,0,3,.74,29.7,29.7,0,0,1,4.26-1.45c.5-.12,1.13.33,1.7.52-.4.48-.71,1.16-1.23,1.4a29.7,29.7,0,0,1-2.87.84c-3.53,1.21-6.34.2-8.1-3.07-.24-.44,0-1.12,0-1.7Z"/><path class="cls-8" d="M142.77,252.23c-2.05-1.72-.59-3.79-.74-5.66a31.18,31.18,0,0,1,.28-6c.06-.6.77-1.12,1.5-1.54A44.22,44.22,0,0,1,142.77,252.23Z"/><path class="cls-2" d="M237,238.93a7.91,7.91,0,0,1,.59,1.78c.29,3.06.58,6.12.7,9.19,0,.72-.57,1.48-.89,2.21-.34-.64-.94-1.27-1-1.93-.24-2.94-.35-5.9-.43-8.85a13.07,13.07,0,0,1,.36-2.37Z"/><path class="cls-10" d="M236.34,201.18a3.6,3.6,0,0,1-5.08,0,11.34,11.34,0,0,0-3.16-1.92,6.94,6.94,0,0,0-2.68.05c-.79,0-1.58.15-2.6.25,1.29-2.82,5.38-2.65,7.42-1.31,1.65,1.08,3,2.6,5.25,2.55C235.76,200.75,236,201,236.34,201.18Z"/><path class="cls-8" d="M222.9,237.73c1.14-.31,1.74-.09,1.76,1.17,0,2.63.17,5.26.23,7.89a4.15,4.15,0,0,1-.21,1.65,1.24,1.24,0,0,1-1,.63,1.21,1.21,0,0,1-.76-.92C222.88,244.68,222.9,241.22,222.9,237.73Z"/><path class="cls-10" d="M189.5,207.6c-1.42-.94-2.85-1.85-4.23-2.84-.2-.15-.13-.67-.19-1a8.07,8.07,0,0,1,1.19-.15c.16,0,.33.17.48.27,3.29,2,3.29,2,6.11-.53.23-.21.44-.52.72-.59a9.69,9.69,0,0,1,1.62-.19c-.19.55-.23,1.25-.6,1.63a15.73,15.73,0,0,1-2.48,2C191.42,206.62,190.64,207,189.5,207.6Z"/><path class="cls-9" d="M156.18,237.42c.26.52.75,1,.75,1.55,0,3.12-.17,6.24-.34,9.36,0,.32-.48.62-.74.93-.31-.32-.85-.63-.88-1a18.76,18.76,0,0,1,.09-2.8l.48-7.83Z"/><path class="cls-10" d="M144.44,202.94c.38-.44.67-1.11,1.14-1.28,1.84-.68,3.61-1.34,4.73-3.15.22-.35,1.15-.28,1.75-.4-.13.59-.06,1.34-.41,1.73A11,11,0,0,1,145,203.5Z"/><path class="cls-2" d="M209.2,241.68c.12-1.43.16-2.86.38-4.28.06-.43.58-.79.89-1.19.33.44.95.87.95,1.31,0,1.93-.09,3.87-.26,5.79,0,.43-.55.81-.84,1.21-.34-.38-.82-.71-1-1.16a5.46,5.46,0,0,1,0-1.67Z"/><path class="cls-10" d="M180.18,246.62c.08-2.67,1.53-3.58,3.65-2.5a23,23,0,0,1,2.33,1.16,6.64,6.64,0,0,1,1.2,1.42l-2,.2a.44.44,0,0,1-.17-.08c-1.28-.82-2.55-1.56-4-.22C181,246.75,180.62,246.62,180.18,246.62Z"/><path class="cls-10" d="M169.19,238.77a25.73,25.73,0,0,1,1.1-2.42,1.2,1.2,0,0,1,1.06-.27c.25.08.58.76.5.86-1.31,1.62-.27,3.42-.45,5.1a5,5,0,0,1-.64,1.38c-.35-.38-.9-.71-1-1.15A35.19,35.19,0,0,1,169.19,238.77Z"/><path class="cls-2" d="M179.27,225.93l1.79,1.62c-1.79.88-3.22,2-4.8,2.24s-2.65-1.31-2.39-3.53C175.77,228.22,177.64,228.8,179.27,225.93Z"/><path class="cls-2" d="M185.48,195.36c2.54-3,3.35-3.2,5.82-1.82.37.21.53.79.79,1.2-.51.16-1.21.61-1.49.42a2.22,2.22,0,0,0-2.88.15C187.29,195.61,186.45,195.36,185.48,195.36Z"/><path class="cls-10" d="M158.09,188.2l-3,2.34-1-1.22C156.82,186.57,157.51,186.41,158.09,188.2Z"/><path class="cls-10" d="M181.73,217.65l1.05-2,2.19,1.83-.27.67Z"/><path class="cls-10" d="M191.28,186.52c-.82.57-1.22,1-1.64,1.08s-.82-.45-1.23-.7c.34-.38.63-1,1-1.07S190.36,186.15,191.28,186.52Z"/><path class="cls-9" d="M196.51,244.59c.47.68,1,1.11,1,1.46a1.38,1.38,0,0,1-1,.9c-.4,0-.8-.52-1.21-.82Z"/><path class="cls-10" d="M152.23,192.18l-2.1.6a5.57,5.57,0,0,1-.16-1.3,11.87,11.87,0,0,1,2-.39Z"/><path class="cls-10" d="M144.63,191.77c0-.6-.33-1.43-.06-1.73s1.15-.26,1.76-.35l.28.48-1.27,1.75Z"/></g></g></svg>