<svg xmlns="http://www.w3.org/2000/svg" viewBox="0 0 300 300"><defs><style>.cls-1{fill:#fbfcfd;}.cls-2{fill:#037ec6;}</style></defs><g id="Layer_2" data-name="Layer 2"><g id="Layer_1-2" data-name="Layer 1"><path class="cls-1" d="M0,0H300V300H0ZM101.13,48.92v.73l.59-.23L101,49c1.28-5.36,7.86-10.46,13.71-10.64,1.38-9.19-5.53-18.58-15.57-21.14a22.09,22.09,0,0,0-25.9,13.55,20.76,20.76,0,0,0,9.76,26c-2.32-5.39,3.7-2.7,3.7-4.26,0-4.6,4.29-3.59,6.31-5.39.84-.74,3.35.28,5.06.66A19.37,19.37,0,0,1,101.13,48.92ZM101,52.14l-1,1.29c1.35,1.06,2.54,2.62,4.07,3.07,6.45,1.93,8.29,6.3,7.3,12.46-.13.82-.23,1.64-.29,2.46-.8,10.06,2.93,13.72,13.15,12.74,6.1-.59,11.32-3.2,14.92-8.14,2.3-3.16,3.76-6.93,5.76-10.75,2.47-.24,3.17.88,2.5,3.81-2.23,9.75-11.66,18.25-22,19-4.37.3-8.8-.44-12.92-.69V209l-2.9-2.83-2.29,3.17-11,2.58.39,1.62c4.67-1,9.3-2.19,14-2.84,7.66-1.06,15.38-1.86,23.09-2.48,1.19-.1,2.49,1.33,3.41,1.85l-40.68,5.82v5.31c3.73-.57,7.14-1.25,10.58-1.6,8.76-.9,17.52-1.83,26.31-2.39,3.52-.23,3.55.2,3.21,3-12.24,1.44-24.28,2.85-36.32,4.3-2.92.35-5.37,1.12-3.14,5.16,10.46-.69,20.93-1.3,31.38-2.1,7.6-.59,7.59-.7,9.6,6.37.47-1.45,1.06-2.32.95-3.1-.5-3.64,1.21-5.34,4.5-6.6a155.09,155.09,0,0,0,16.4-7.31c5.79-3,11.35-4.26,18.08-2.91,14.76,3,29.72,4.95,45.89,7.54l-25,12h42.32V4.31H60V234H84.14c-1.76-5.4,2.48-4.6,5.27-5,2-6-3.78-3-5.14-4.93-1.45-5,2.2-4.26,5.16-4.11v-4.58l-6.23-.51c1.25-2.81,2.26-5.06,3.24-7.27l2.69,3.86v-6.09l-5.85-1,3.18-7.45,1.67,3.36,1.15-.19.27-4.73-6.28-.86c1.2-2.86,2.19-5.19,3.17-7.52l1.72,3.3,1.12-.19.5-4.59-6.51-1c1.21-2.81,2.22-5.14,3.23-7.45l1.55,3.21,1-.36v-4.43l-5.88-.95c1.3-3,2.39-5.46,3.49-7.95-1.35-.41-1.35-.41,2.49-6.89l-.29-3.66-6-.93c1.42-2.89,2.54-5.18,3.71-7.54l1.27,3.4,1-.12.25-4.38-7-.87,6.06-9-4.92-.77c-1.35-4.84,1.89-4.71,5.06-4.59L88,126.56l-6-.94,3.5-7,2,3.48a14,14,0,0,0,.8-2.62,16,16,0,0,0-.2-2.33c-5.91-.8-5.91-.8-4.77-5.11l4.62-.3v-4.57l-5.11-.42V102.2l5.44-.37-.35-4.5-5.07-.62c-1.56-5.29,2.12-4.67,5.06-4.77v-4.8l-4.8-.36C81,81.36,85.09,82,88,81.87V77.66l-5.39-2.41,3.09-6c-6.3-2.67-1.49-6.28-.17-9.71L87,62.57l.94-.12.84-5.58-7.49,4.05C68.5,54.58,63.77,38.17,71.31,25.24a26.2,26.2,0,0,1,37-8.41c12.86,8.68,15,25.34,4.74,38.23-6-4.29,3.59-8.13-.24-12.84-3.27,2.64-6.54,5.3-9.72,7.88L105.68,54ZM60.2,273c2.55,3.78,2.58,18.41.15,22.43h7.44c-.34-3.69-.67-7.19-1-10.92h6.81l-1.19,10.75h8.39c-3.44-3.42-3.64-18-.7-22.23H72.44c.36,3.19.69,6.2,1.06,9.47H66.68c.5-3.39.94-6.41,1.39-9.5Zm144,0c3.39,3.92,3.45,18.54.38,22.29h7.87c-.33-3.33-.64-6.35-.94-9.36a21.18,21.18,0,0,1,5.69,7.29c1.85,3.69,4.48,2.61,7.1,1.91-2.41-5.48-8-9-7.64-15.79l-5.53,4.79c.66-4.64,1.12-7.82,1.59-11.13ZM87.79,273c3.33,3.87,3.43,18.63.49,22.44H104.8c.18-2.51.34-4.7.5-6.9-2.89,2.92-4.53,7.05-10.45,4.82l1.41-8.82,4.65,2.66v-6.53l-4.65,1.86L95,274.83l1.74-1.29,8,4.92c-.11-1.67-.23-3.52-.36-5.48Zm105.71,23.4,1.29-.57v-22.7h-2.33v13.63c-2-3.41-4-6.3-5.39-9.45-1.9-4.16-4.62-5.64-9-3.9,2.72,3.92,2.58,18.06-.21,21.89h5.88c-4.53-5.09-1.74-10.57-2.09-15.72C186.53,284.64,188.2,291.88,193.5,296.38Zm-2.45-55.61c2.65,3.88,2.72,18.29.38,22.59h7.63c-.52-3.06-1-6-1.54-9.1,1.69-.29,2.65-.44,3.6-.62,3.85-.73,5.83-3.11,5.63-7-.22-4-2.78-5.8-6.62-5.89C197.2,240.71,194.27,240.77,191.05,240.77Zm-49.63.21c2.22,7.39,10.19,13.18,5.12,22.24h8.51c-5.15-8.94,2.33-15.08,4.64-22.31h-5.9c4.47,4.59-.26,7.47-1.19,11-1.12-3.58-5.68-6.47-1.66-11Zm22.86,0v22.38h3V246.65l.45-.2q2.68,8.6,5.36,17.17l1.57-.27L178,252l-1-.39-1.88,2.59c-.82-2.76-1.49-5-2.13-7.21C171,240.07,171,240.07,164.28,241Zm69.28,22.14h8.08c-1.11-2.33-2.25-4.3-3-6.4-1.65-4.67-3-9.45-4.71-14.1-.37-1-1.6-1.72-2.43-2.56a11,11,0,0,0-1.75,2.65c-1.38,4.71-2.6,9.47-3.72,13.61,2.33.27,5.1.15,7.42,1.12C234.14,257.76,233.56,261.1,233.56,263.15Zm-113,30.33c1.32-6.63-2.38-13.93,2.39-20.4h-9.4c3.29,3.78,3.27,18.59-.07,22.33h15.43c.29-2.67.55-5,.8-7.35C127.3,290.83,126.69,295.58,120.58,293.48Zm20.58-37.36-1-.21c-.47,1.18-.61,2.73-1.46,3.44-1.38,1.17-3.23,1.78-4.87,2.63-.57-1.37-1.53-2.71-1.63-4.11a66.29,66.29,0,0,1,0-10.45c.19-2.18,1.19-4.29,1.83-6.47H125.3c2.77,3.63,2.82,18.5.24,22.32h14.91C140.71,260.68,140.93,258.4,141.16,256.12ZM59.43,241c2.26,4.15,5.63,7.89,6.12,12,.46,3.76,8.71,5.08,2.42,10.21h9.39C73.3,256,69.09,249.36,67.19,241ZM150,279.24c.37-3,2.58-6.61-2.74-7-4.17-.27-7.72.48-9.06,5.05s.5,7.38,5.7,9.42c5.55,2.17,6,4.51,1.45,8.65,3.64.39,6-1.33,5.94-4.27a17.17,17.17,0,0,0-2.73-8.24c-.75-1.23-3.36-1.19-4.87-2.13a5.72,5.72,0,0,1-2.57-3.14c-.18-.91,1-2.87,1.77-3a6.62,6.62,0,0,1,4.48.93C148.54,276.31,149.14,278,150,279.24Zm37.74-15.87c-2.73-3.87-2.73-18.61-.12-22.24-8.1-1.15-8.72-.71-9.23,7.46l2.26-3.51c-.8,6.06,2.75,12.49-2,18.29Zm-19.65,32.11c-.32-4.05-.87-7.67-.83-11.28s.66-7.46,1-11.14h-8c2.94,3.64,3,18.64.06,22.42Zm63.49-22.39c3.39,3.4,3.42,18.83.25,22.23h9.37c-2.94-3.31-3.09-18.07-.61-22.23Zm-21.69-32.17c3,3.47,3.19,18.13.78,22.4h8.43c-2.74-3.5-2.78-18.62-.12-22.4Zm-130.61-.1c1,2.56,2,4.59,2.69,6.73,1.48,4.73,2.72,9.53,4.24,14.25.28.89,1.38,1.51,2.1,2.26.58-.71,1.6-1.4,1.64-2.14a23.56,23.56,0,0,0-.45-5.55c-.94-5.13-4.63-9.89-2-15.55Zm35,22.11c5.48-.29,8.25-4.88,7.8-12.21-.37-6.2-3.07-9.43-7.62-9.15C118.09,246.65,118.11,257.36,114.22,262.93Zm-2.47.26c-2.18-7.67-3.15-14.78.69-22-5.25-.22-6.41,3.78-7.22,7.61C103.76,255.71,106.38,261.4,111.75,263.19ZM109,167.44c-2.46,6.54-1.67,14.93,1.53,17C110.05,178.44,111.56,172.78,109,167.44Zm1.08-2.34c1.31-10.65.67-15.55-2.07-16.76C106.31,156.06,107,163.12,110.05,165.1Zm-1.16-77.76c5-10.06,4.14-15.79-2-17.52C107.6,75.71,106,81.74,108.89,87.34Zm-.59,22c-1.6,6.68-.86,14.33,1.57,16.1C111.51,116.62,111,111,108.3,109.32Zm.64-2.42c2-10.53,1.33-15.08-2-16.31C107.9,96.11,105.5,101.82,108.94,106.9Zm.59,95.92c2.13-8.35,1.46-14.23-1.6-15.9C108.36,192.48,107,197.83,109.53,202.82Zm.14-73.57-1.86.05c.45,5.28-1.27,10.71,1.86,15.78Z"/><path class="cls-2" d="M101,52.14l4.73,1.9-2.56-3.94c3.18-2.58,6.45-5.24,9.72-7.88,3.83,4.71-5.71,8.55.24,12.84,10.29-12.89,8.12-29.55-4.74-38.23a26.2,26.2,0,0,0-37,8.41c-7.54,12.93-2.81,29.34,9.93,35.68l7.49-4.05-.84,5.58-.94.12L85.5,59.49c-1.32,3.43-6.13,7,.17,9.71l-3.09,6L88,77.66v4.21c-2.88.15-7-.51-4.9,4.91l4.8.36v4.8c-2.94.1-6.62-.52-5.06,4.77l5.07.62.35,4.5-5.44.37v4.53l5.11.42v4.57l-4.62.3c-1.14,4.31-1.14,4.31,4.77,5.11a16,16,0,0,1,.2,2.33,14,14,0,0,1-.8,2.62l-2-3.48-3.5,7,6,.94.32,4.62c-3.17-.12-6.41-.25-5.06,4.59l4.92.77-6.06,9,7,.87-.25,4.38-1,.12-1.27-3.4c-1.17,2.36-2.29,4.65-3.71,7.54l6,.93.29,3.66c-3.84,6.48-3.84,6.48-2.49,6.89-1.1,2.49-2.19,5-3.49,7.95l5.88.95v4.43l-1,.36L86.5,177c-1,2.31-2,4.64-3.23,7.45l6.51,1-.5,4.59-1.12.19-1.72-3.3c-1,2.33-2,4.66-3.17,7.52l6.28.86L89.28,200l-1.15.19-1.67-3.36-3.18,7.45,5.85,1v6.09l-2.69-3.86c-1,2.21-2,4.46-3.24,7.27l6.23.51v4.58c-3-.15-6.61-.88-5.17,4.12,1.37,2,7.15-1.07,5.15,4.92-2.79.45-7-.35-5.27,5H60V4.31H241.08V233.5H198.76l25-12c-16.17-2.59-31.13-4.58-45.89-7.54-6.73-1.35-12.29-.13-18.08,2.91a155.09,155.09,0,0,1-16.4,7.31c-3.29,1.26-5,3-4.5,6.6.11.78-.48,1.65-.95,3.1-2-7.07-2-7-9.6-6.37-10.45.8-20.92,1.41-31.38,2.1-2.23-4,.22-4.81,3.14-5.16,12-1.45,24.08-2.86,36.32-4.3.34-2.76.31-3.19-3.21-3-8.79.56-17.55,1.49-26.31,2.39-3.44.35-6.85,1-10.58,1.6v-5.31L137,210c-.92-.52-2.22-1.95-3.41-1.85-7.71.62-15.43,1.42-23.09,2.48-4.72.65-9.35,1.87-14,2.84l-.39-1.62,11-2.58,2.29-3.17,2.9,2.83V87.36c4.12.25,8.55,1,12.92.69,10.39-.72,19.82-9.22,22-19,.67-2.93,0-4-2.5-3.81-2,3.82-3.46,7.59-5.76,10.75-3.6,4.94-8.82,7.55-14.92,8.14-10.22,1-14-2.68-13.15-12.74.06-.82.16-1.64.29-2.46,1-6.16-.85-10.53-7.3-12.46-1.53-.45-2.72-2-4.07-3.07Zm24.89-16.33c1.17-1.05,2.94-1.88,3.41-3.17,3.58-10.06,11.77-16.23,21.74-16a22.11,22.11,0,0,1,20.66,16c2.68,9.55-1.22,18.67-10.34,24.92-1.38.95-2.07,2.91-3.07,4.4,12.76-3,19.62-14.34,18-27.51-1.52-12.16-12.4-21.59-25.34-22-11.88-.34-23.53,8.6-25.59,19.77-.21,1.14.42,2.44.67,3.67l-4.62,1-.71,1.27c1.22.85,2.36,2.26,3.67,2.45,9.08,1.3,15.08,6.25,18.66,14.6.61,1.41,2.43,2.3,3.7,3.43l1-1.19c-2.06-9.6-7.68-16.17-17-19.59C129,37.22,127.45,36.48,125.84,35.81Zm45.73,3.66-1.28-1.27c-11.68,3.5-19,15.54-17.17,28.08a25.81,25.81,0,0,0,25.77,22c13.56,0,23.59-8.93,25.65-22.89,19.07-2.12,29.64-12.8,28.67-28.95-.81-13.43-12.29-24-26-24-13.1,0-24.5,10-25.21,22.22,4,2.18,3.78-1.34,4.6-3.39,3.37-8.5,9.5-13.62,18.64-14.51,8.95-.87,16,2.8,20.68,10.4s4.55,15.3-.09,22.71-11.55,11-20.29,10.28-14.86-5.36-18.44-13.33c-1-2.18-1.36-5-5.31-3.66,2.2,11.46,9.58,17.77,19.79,20.92-.63,1.72-1.19,3.2-1.71,4.7A22.08,22.08,0,0,1,188.43,82,21.69,21.69,0,0,1,159.9,73.1C154.15,63,157.19,50.77,167,44,168.71,42.81,170,41,171.57,39.47ZM139,223.52c8.62-3.92,16.76-8,25.2-11.29a21.7,21.7,0,0,1,11-1.32c15.73,2.61,31.36,5.78,47,8.71a14.73,14.73,0,0,0,2.74,0,9.57,9.57,0,0,0-5-2.52c-15-3.6-30-7.28-45.07-10.67a16.14,16.14,0,0,0-8.14.24c-7.9,2.52-15.53,5.89-23.48,8.23C138.54,216.34,138.22,219.06,139,223.52Zm25-62.44c9.43-.69,16.32-8.78,14.24-17-1.12-4.43-4.24-6.22-8.56-6a7.14,7.14,0,0,0-6.9,7.67c.19,4.46,2.77,6.54,7.05,6.81.76.05,1.52.14,2.28.21l.69,1.23Zm-37.65-119-1.08,1.15C127,54.51,136.79,63.7,147.76,64.1c1.22.05,2.48-1.11,3.73-1.71-1-.74-2-2-3.11-2.14-9-1.32-15.07-6.23-18.6-14.6C129.18,44.23,127.51,43.25,126.33,42.07Zm75.75,116.5-.74-1.51c2.68-2.23,5.75-4.15,7.93-6.79a12.35,12.35,0,0,0,2.67-7.29c0-1.35-2.66-3.76-4.2-3.82-2.72-.12-5.57,1-8.22,2.05-.44.16-.16,2.23-.21,3.42a4.83,4.83,0,0,0,2.41-1.43c1.59-1.09,3.27-2.06,4.91-3.07.63,2.05,2.23,4.42,1.67,6.08-.82,2.48-3.11,4.5-4.87,6.64-2,2.42-4.06,4.75-6.61,7.72,13.36,1.67,15.72,1.09,15.62-2.51ZM178.68,36.72l-1.14,1.42c1.05.79,2,2.11,3.18,2.28,9.22,1.4,15.49,6.3,19,14.94.55,1.34,2.28,2.19,4.37,4.08C203.09,45.75,191.84,36.43,178.68,36.72Zm3.26,111.37c2.77,1.43,6,2.15,7.48,4.15,1.33,1.78.79,5,1.18,8.41,1.19-2,3-3.77,3.37-5.82,1.43-7-5.05-8.06-9.16-11.29,2-.78,3.93-.7,5.66-1.2,1.4-.4,2.59-1.51,3.88-2.3C184.1,138,184.1,138,181.94,148.09ZM157.89,161c-4-7.19-.36-15.32-2.35-23L148,142.46c4.78,1.85,5,15,.84,18.58Z"/><path class="cls-2" d="M101.13,48.92a19.37,19.37,0,0,0-3-1.18c-1.71-.38-4.22-1.4-5.06-.66-2,1.8-6.31.79-6.31,5.39,0,1.56-6-1.13-3.7,4.26a20.76,20.76,0,0,1-9.76-26,22.09,22.09,0,0,1,25.9-13.55c10,2.56,17,12,15.57,21.14-5.85.18-12.43,5.28-13.71,10.64Z"/><path class="cls-2" d="M60.2,273h7.87c-.45,3.09-.89,6.11-1.39,9.5H73.5c-.37-3.27-.7-6.28-1.06-9.47h7.64c-2.94,4.25-2.74,18.81.7,22.23H72.39l1.19-10.75H66.77c.35,3.73.68,7.23,1,10.92H60.35C62.78,291.44,62.75,276.81,60.2,273Z"/><path class="cls-2" d="M204.2,273h8.52c-.47,3.31-.93,6.49-1.59,11.13l5.53-4.79c-.34,6.81,5.23,10.31,7.64,15.79-2.62.7-5.25,1.78-7.1-1.91a21.18,21.18,0,0,0-5.69-7.29c.3,3,.61,6,.94,9.36h-7.87C207.65,291.55,207.59,276.93,204.2,273Z"/><path class="cls-2" d="M87.79,273h16.57c.13,2,.25,3.81.36,5.48l-8-4.92L95,274.83l1.29,7.68,4.65-1.86v6.53l-4.65-2.66-1.41,8.82c5.92,2.23,7.56-1.9,10.45-4.82-.16,2.2-.32,4.39-.5,6.9H88.28C91.22,291.61,91.12,276.85,87.79,273Z"/><path class="cls-2" d="M193.5,296.38c-5.3-4.5-7-11.74-11.84-16.82.35,5.15-2.44,10.63,2.09,15.72h-5.88c2.79-3.83,2.93-18,.21-21.89,4.37-1.74,7.09-.26,9,3.9,1.43,3.15,3.42,6,5.39,9.45V273.11h2.33v22.7Z"/><path class="cls-2" d="M191.05,240.77c3.22,0,6.15-.06,9.08,0,3.84.09,6.4,1.86,6.62,5.89.2,3.86-1.78,6.24-5.63,7-1,.18-1.91.33-3.6.62.53,3.11,1,6,1.54,9.1h-7.63C193.77,259.06,193.7,244.65,191.05,240.77Zm7.09,10.92,1.6.7c.72-1.85,2-3.7,2-5.55,0-1.61-1.42-3.22-2.21-4.82l-1.38.57Z"/><path class="cls-2" d="M141.42,241h9.52c-4,4.5.54,7.39,1.66,11,.93-3.57,5.66-6.45,1.19-11h5.9c-2.31,7.23-9.79,13.37-4.64,22.31h-8.51C151.61,254.16,143.64,248.37,141.42,241Z"/><path class="cls-2" d="M164.28,241c6.73-.94,6.73-.94,8.75,6,.64,2.23,1.31,4.45,2.13,7.21l1.88-2.59,1,.39-3.31,11.32-1.57.27q-2.69-8.58-5.36-17.17l-.45.2v16.74h-3Z"/><path class="cls-2" d="M233.56,263.15c0-2,.58-5.39-.11-5.68-2.32-1-5.09-.85-7.42-1.12,1.12-4.14,2.34-8.9,3.72-13.61a11,11,0,0,1,1.75-2.65c.83.84,2.06,1.54,2.43,2.56,1.69,4.65,3.06,9.43,4.71,14.1.75,2.1,1.89,4.07,3,6.4Z"/><path class="cls-2" d="M120.58,293.48c6.11,2.1,6.72-2.65,9.15-5.42-.25,2.34-.51,4.68-.8,7.35H113.5c3.34-3.74,3.36-18.55.07-22.33H123C118.2,279.55,121.9,286.85,120.58,293.48Z"/><path class="cls-2" d="M141.16,256.12c-.23,2.28-.45,4.56-.71,7.15H125.54c2.58-3.82,2.53-18.69-.24-22.32H134c-.64,2.18-1.64,4.29-1.83,6.47a66.29,66.29,0,0,0,0,10.45c.1,1.4,1.06,2.74,1.63,4.11,1.64-.85,3.49-1.46,4.87-2.63.85-.71,1-2.26,1.46-3.44Z"/><path class="cls-2" d="M59.43,241h7.76c1.9,8.32,6.11,15,10.17,22.19H68c6.29-5.13-2-6.45-2.42-10.21C65.06,248.93,61.69,245.19,59.43,241Z"/><path class="cls-2" d="M150,279.24c-.85-1.27-1.45-2.93-2.63-3.71a6.62,6.62,0,0,0-4.48-.93c-.81.15-1.95,2.11-1.77,3a5.72,5.72,0,0,0,2.57,3.14c1.51.94,4.12.9,4.87,2.13a17.17,17.17,0,0,1,2.73,8.24c0,2.94-2.3,4.66-5.94,4.27,4.59-4.14,4.1-6.48-1.45-8.65-5.2-2-7-4.91-5.7-9.42s4.89-5.32,9.06-5.05C152.57,272.63,150.36,276.28,150,279.24Z"/><path class="cls-2" d="M187.73,263.37h-9.06c4.72-5.8,1.17-12.23,2-18.29l-2.26,3.51c.51-8.17,1.13-8.61,9.23-7.46C185,244.76,185,259.5,187.73,263.37Z"/><path class="cls-2" d="M168.08,295.48h-7.79c2.91-3.78,2.88-18.78-.06-22.42h8c-.36,3.68-1,7.4-1,11.14S167.76,291.43,168.08,295.48Z"/><path class="cls-2" d="M231.57,273.09h9c-2.48,4.16-2.33,18.92.61,22.23h-9.37C235,291.92,235,276.49,231.57,273.09Z"/><path class="cls-2" d="M209.88,240.92H219c-2.66,3.78-2.62,18.9.12,22.4h-8.43C213.07,259.05,212.89,244.39,209.88,240.92Z"/><path class="cls-2" d="M79.27,240.82h8.18c-2.59,5.66,1.1,10.42,2,15.55a23.56,23.56,0,0,1,.45,5.55c0,.74-1.06,1.43-1.64,2.14-.72-.75-1.82-1.37-2.1-2.26-1.52-4.72-2.76-9.52-4.24-14.25C81.29,245.41,80.31,243.38,79.27,240.82Z"/><path class="cls-2" d="M114.22,262.93c3.89-5.57,3.87-16.28.18-21.36,4.55-.28,7.25,3,7.62,9.15C122.47,258.05,119.7,262.64,114.22,262.93Z"/><path class="cls-2" d="M111.75,263.19c-5.37-1.79-8-7.48-6.53-14.43.81-3.83,2-7.83,7.22-7.61C108.6,248.41,109.57,255.52,111.75,263.19Z"/><path class="cls-2" d="M109,167.44c2.59,5.34,1.08,11,1.53,17C107.3,182.37,106.51,174,109,167.44Z"/><path class="cls-2" d="M110.05,165.1c-3-2-3.74-9-2.07-16.76C110.72,149.55,111.36,154.45,110.05,165.1Z"/><path class="cls-2" d="M108.89,87.34c-2.92-5.6-1.29-11.63-2-17.52C113,71.55,113.84,77.28,108.89,87.34Z"/><path class="cls-2" d="M108.3,109.32c2.66,1.68,3.21,7.3,1.57,16.1C107.44,123.65,106.7,116,108.3,109.32Z"/><path class="cls-2" d="M108.94,106.9c-3.44-5.08-1-10.79-2-16.31C110.27,91.82,110.9,96.37,108.94,106.9Z"/><path class="cls-2" d="M109.53,202.82c-2.53-5-1.17-10.34-1.6-15.9C111,188.59,111.66,194.47,109.53,202.82Z"/><path class="cls-2" d="M109.67,129.25v15.83c-3.13-5.07-1.41-10.5-1.86-15.78Z"/><path class="cls-2" d="M101,49l.7.43-.59.23c0-.24,0-.49,0-.73Z"/><path class="cls-1" d="M171.57,39.47C170,41,168.71,42.81,167,44c-9.77,6.75-12.81,19-7.06,29.08A21.69,21.69,0,0,0,188.43,82a22.08,22.08,0,0,0,11.44-13.24c.52-1.5,1.08-3,1.71-4.7-10.21-3.15-17.59-9.46-19.79-20.92,4-1.31,4.33,1.48,5.31,3.66,3.58,8,9.73,12.62,18.44,13.33s15.67-2.9,20.29-10.28,4.66-15.26.09-22.71-11.73-11.27-20.68-10.4c-9.14.89-15.27,6-18.64,14.51-.82,2.05-.64,5.57-4.6,3.39.71-12.19,12.11-22.2,25.21-22.22,13.71,0,25.19,10.57,26,24,1,16.15-9.6,26.83-28.67,28.95-2.06,14-12.09,22.91-25.65,22.89a25.81,25.81,0,0,1-25.77-22c-1.87-12.54,5.49-24.58,17.17-28.08Z"/><path class="cls-1" d="M126,35.89c-.24-1.23-.87-2.53-.66-3.67,2.06-11.17,13.71-20.11,25.59-19.77,12.94.37,23.82,9.8,25.34,22,1.64,13.17-5.22,24.56-18,27.51,1-1.49,1.69-3.45,3.07-4.4,9.12-6.25,13-15.37,10.34-24.92a22.11,22.11,0,0,0-20.66-16c-10-.18-18.16,6-21.74,16.05-.47,1.29-2.24,2.12-3.41,3.17Z"/><path class="cls-1" d="M139,223.52c-.79-4.46-.47-7.18,4.32-8.6,7.95-2.34,15.58-5.71,23.48-8.23a16.14,16.14,0,0,1,8.14-.24C190,209.84,205,213.52,220,217.12a9.57,9.57,0,0,1,5,2.52,14.73,14.73,0,0,1-2.74,0c-15.68-2.93-31.31-6.1-47-8.71a21.7,21.7,0,0,0-11,1.32C155.77,215.55,147.63,219.6,139,223.52Z"/><path class="cls-1" d="M164,161.08l8.8-7-.69-1.23c-.76-.07-1.52-.16-2.28-.21-4.28-.27-6.86-2.35-7.05-6.81a7.14,7.14,0,0,1,6.9-7.67c4.32-.25,7.44,1.54,8.56,6C180.3,152.3,173.41,160.39,164,161.08Zm11.41-15.21c-1.95-2.51-3.4-4.37-4.84-6.24-1.08,1.83-3.1,3.73-3,5.47.14,2,2.21,3.78,3.45,5.66Z"/><path class="cls-1" d="M125.84,35.81c1.61.67,3.19,1.41,4.83,2,9.33,3.42,15,10,17,19.59l-1,1.19c-1.27-1.13-3.09-2-3.7-3.43-3.58-8.35-9.58-13.3-18.66-14.6-1.31-.19-2.45-1.6-3.67-2.45l.71-1.27,4.61-1Z"/><path class="cls-1" d="M126.33,42.07c1.18,1.18,2.85,2.16,3.45,3.58,3.53,8.37,9.56,13.28,18.6,14.6,1.12.16,2.08,1.4,3.11,2.14-1.25.6-2.51,1.76-3.73,1.71-11-.4-20.77-9.59-22.51-20.88Z"/><path class="cls-1" d="M202.08,158.57l10.36-.51c.1,3.6-2.26,4.18-15.62,2.51,2.55-3,4.63-5.3,6.61-7.72,1.76-2.14,4-4.16,4.87-6.64.56-1.66-1-4-1.67-6.08-1.64,1-3.32,2-4.91,3.07a4.83,4.83,0,0,1-2.41,1.43c.05-1.19-.23-3.26.21-3.42,2.65-1,5.5-2.17,8.22-2.05,1.54.06,4.21,2.47,4.2,3.82a12.35,12.35,0,0,1-2.67,7.29c-2.18,2.64-5.25,4.56-7.93,6.79Z"/><path class="cls-1" d="M178.68,36.72c13.16-.29,24.41,9,25.45,22.72-2.09-1.89-3.82-2.74-4.37-4.08-3.55-8.64-9.82-13.54-19-14.94-1.15-.17-2.13-1.49-3.18-2.28Z"/><path class="cls-1" d="M181.94,148.09C184.1,138,184.1,138,194.35,140c-1.29.79-2.48,1.9-3.88,2.3-1.73.5-3.62.42-5.66,1.2,4.11,3.23,10.59,4.31,9.16,11.29-.42,2-2.18,3.83-3.37,5.82-.39-3.44.15-6.63-1.18-8.41C187.91,150.24,184.71,149.52,181.94,148.09Z"/><path class="cls-1" d="M157.89,161h-9c4.16-3.54,3.94-16.73-.84-18.58l7.53-4.41C157.53,145.72,153.84,153.85,157.89,161Z"/><path class="cls-1" d="M198.14,251.69v-9.1l1.38-.57c.79,1.6,2.22,3.21,2.21,4.82,0,1.85-1.27,3.7-2,5.55Z"/><path class="cls-2" d="M175.39,145.87,171,150.76c-1.24-1.88-3.31-3.7-3.45-5.66-.12-1.74,1.9-3.64,3-5.47C172,141.5,173.44,143.36,175.39,145.87Z"/></g></g></svg>