<svg xmlns="http://www.w3.org/2000/svg" viewBox="0 0 300 300"><defs><style>.cls-1{fill:#fefefe;}.cls-2{fill:#158f58;}.cls-3{fill:#f3f9f6;}.cls-4{fill:#18905b;}.cls-5{fill:#f8fbfa;}.cls-6{fill:#03864c;}.cls-7{fill:#08884f;}.cls-8{fill:#098950;}.cls-9{fill:#eff7f4;}.cls-10{fill:#1e965f;}.cls-11{fill:#259964;}.cls-12{fill:#1d935e;}.cls-13{fill:#219762;}.cls-14{fill:#369f70;}.cls-15{fill:#badece;}.cls-16{fill:#f4f9f7;}.cls-17{fill:#2e9b6a;}.cls-18{fill:#deefe8;}.cls-19{fill:#0e8c54;}.cls-20{fill:#edf6f2;}.cls-21{fill:#e6f3ed;}.cls-22{fill:#d5ebe1;}.cls-23{fill:#d0e8dd;}.cls-24{fill:#5fb38d;}.cls-25{fill:#f9fcfb;}.cls-26{fill:#eef7f3;}.cls-27{fill:#f6faf8;}.cls-28{fill:#f1f8f5;}</style></defs><g id="Layer_2" data-name="Layer 2"><g id="Layer_1-2" data-name="Layer 1"><path class="cls-1" d="M161,0H300V300H161a8.39,8.39,0,0,1,2.06-.93,90.33,90.33,0,0,0,77-89.6q.08-59.47,0-118.94A90.24,90.24,0,0,0,177.6,4.38C172.17,2.61,166.54,1.45,161,0Z"/><path class="cls-1" d="M137,300H0V0H138a8.39,8.39,0,0,1-2.06.93A90.33,90.33,0,0,0,59,90.54Q58.9,150.26,59,210a90.15,90.15,0,0,0,64.35,86.2C127.86,297.54,132.44,298.73,137,300Z"/><path class="cls-2" d="M137,300c-4.56-1.27-9.14-2.46-13.67-3.82A90.15,90.15,0,0,1,59,210q-.1-59.71,0-119.44a90.33,90.33,0,0,1,77-89.61A8.39,8.39,0,0,0,138,0h23c5.54,1.45,11.17,2.61,16.6,4.38A90.24,90.24,0,0,1,240,90.53q.06,59.47,0,118.94a90.33,90.33,0,0,1-77,89.6A8.39,8.39,0,0,0,161,300ZM238,150.15c0-3.67,0-7.33,0-11-.24-19.64.89-39.42-1-58.9C231.84,28,180.52-7.73,129.47,4.38c-39.85,9.46-68,44.25-68.32,85.25-.31,38.48-.12,77-.06,115.45a150.22,150.22,0,0,0,.82,15.44c5.14,49.21,54.55,85.65,103,76,44-8.76,72.92-43.92,73.06-88.91C238,188.46,238,169.3,238,150.15Z"/><path class="cls-3" d="M238,150.15c0,19.15,0,38.31,0,57.47-.14,45-29.06,80.15-73.06,88.91-48.42,9.64-97.83-26.8-103-76a150.22,150.22,0,0,1-.82-15.44c-.06-38.48-.25-77,.06-115.45.34-41,28.47-75.79,68.32-85.25C180.52-7.73,231.84,28,236.93,80.25c1.9,19.48.77,39.26,1,58.9C238,142.82,238,146.48,238,150.15Zm-172-1h0c0,19-.29,38,.14,57a103.25,103.25,0,0,0,3.06,23.65c11.43,43.58,53.2,69.76,97.12,61.32,37.13-7.15,66.44-42.64,66.77-81.71q.51-59.71-.1-119.45a85.3,85.3,0,0,0-4-24c-13-42.11-54-66.5-96.61-57.89C95.68,15.41,66.68,50.47,66,88.63,65.65,108.78,65.94,129,65.94,149.11Z"/><path class="cls-4" d="M65.94,149.11c0-20.16-.29-40.33.07-60.48C66.68,50.47,95.68,15.41,132.29,8,174.87-.6,215.92,23.79,228.9,65.9a85.3,85.3,0,0,1,4,24q.59,59.71.1,119.45c-.33,39.07-29.64,74.56-66.77,81.71-43.92,8.44-85.69-17.74-97.12-61.32A103.25,103.25,0,0,1,66,206.08c-.43-19-.14-38-.14-57Zm165,.43h0c0-19,.41-38-.18-57a103.37,103.37,0,0,0-4-26A80.85,80.85,0,0,0,133.94,10C97,17,68.39,51.59,68.1,90.44q-.43,58.73.07,117.46a88.82,88.82,0,0,0,3,21.17,81.17,81.17,0,0,0,93.43,60c36.91-6.63,65.8-41.32,66.34-80C231.18,189.2,231,169.37,231,149.54Z"/><path class="cls-5" d="M231,149.54c0,19.83.22,39.66-.05,59.48-.54,38.72-29.43,73.41-66.34,80a81.17,81.17,0,0,1-93.43-60,88.82,88.82,0,0,1-3-21.17q-.42-58.72-.07-117.46C68.39,51.59,97,17,133.94,10a80.85,80.85,0,0,1,92.87,56.58,103.37,103.37,0,0,1,4,26c.59,19,.18,38,.18,57Zm-12.13,13.61a2.85,2.85,0,0,0,.15.91l0,1.11c-3.39-1.91-1.8,1.72-2.77,2.5l-2.43-.7-2.22-.47.27,4.46,2.19,2.1,0-.05c.13.65.27,1.3.4,2l1.16-1v0c-.48,4.61,4.25,1.9,5.57,4-.35,1-.71,2-1.07,3l-1-.17-1.39-1.48L216,182l-5-.75,4.89,3.81a24.38,24.38,0,0,0-.27,4.8c.32,2.44,1,4.88,3.44,4.14l.83-5,5.86-3.09c-5.31-4.33-4.22,1.19-5.88,2.06l-.8,0-1.12-1.1c-.61-.68-1.22-1.37-1.84-2,0-1-.09-1.92-.13-2.87h2.84l2.22-.68,2-2.32,1.71,1,.33,2.77,1.1.05.88-8.56-4,1.82L217.56,174c-.16-.79-.33-1.57-.49-2.36l0-.09,1.22-.85a.75.75,0,0,1,.05-.55l1.38.56.26.31h1.61l3.4-2.5c3.82-2.48-1.35-5,0-7.49l.23-.42L225,161l-3,3a2.7,2.7,0,0,0-.94,0l-1.13-.05-.31-1.48-.55-1.66.67-3-1.71,1-1,.16q-1.49-3-3-5.94l1.41-.09,1.83,2.13,4.08,0-.3,3.3,2.4-2.18.09,0,.88,1,.63-2.5c.29-1,.59-2,.88-3l-.8-.17-.29,1.32-.91.2a.73.73,0,0,0-.67-.1l-1.29,0c0-.35,0-.7-.08-1l0-2.62c-.49.27-1,.54-1.48.8-.94-1.45-1.89-2.89-2.91-4.45-.53,2-1,3.66-1.45,5.34l-2,.94-1.74-3.48L211,151v2c.94,3.42,1.22,7.31,5.83,8.07l1.13,1.05Zm-76.9,113.78-1.46,1.3.33.32,1.26-1.51c0-.69,0-1.39,0-2.09l3.49-5.15c-4.73,1.65-4.73,1.65-3.65,5.29Zm-58-73.11a2.56,2.56,0,0,1,.3-.84A3.25,3.25,0,0,0,85,203c.18,2.18.14,4.2-2.94,4l-1.12,0L80,206c-.36-.57-.73-1.15-1.07-1.71l.29-3.29,4.08-1.54-6.08-1.51-.16-.08c1.25-1.33,2.48-3.76,3.75-3.79,4.92-.1,6.17-2.84,6.25-6.94,2.45-4.12.09-4.29-3-4l.84,3.83-2.65,1.09-2.89.49v.81l2.53.94c-2.47,2.44-5.05,4.54-8.83,2.63l-.49-.18.38.29c-.17,1.86-.35,3.73-.53,5.59L77,201l-3.42,2.89,2.37,2.27.07,2.11,3-2.44.49,0L80,206l.06,1c-.34,1.67-.67,3.35-1,5-2.54,1.48-5.57,2.77-2.49,6.48,0,0-1.39,1.29-2.76,2.56.19,2.85,1.44,5.75,6.46,4L83,228l1.67,1.57.26-2.56c3.89-3.41,3.56-7.72,3.14-11-2.28.42-4.2.67-6,1.2-.51.14-.76,1.15-1.12,1.77-5.68-1.18-.25-4-.89-5.95,1.53-.39,4.84,1.18,3.06-2.81l4.71-3.93L85,203c0-.91.1-1.83.14-2.75l1.25-.66c-.11-.12-.28-.36-.32-.34-.41.2-.81.44-1.21.66L83,202.47l-1.33,1.81L83,205Zm135.9-1.76,1.72-2.05c1.16-2.56,6-2.79,4.48-7h-1l-2.51-.2C222,195,221.48,197,221,199a3.22,3.22,0,0,0-1,0l-1.87,0-1.8-.15L218,200,219,202l-2.46,0L212,197.71l-.73-1-.21,1.4a31,31,0,0,0,.53,5.65,20.9,20.9,0,0,0,2.29,4.32l.05-.1c.4.68.8,1.36,1.21,2l3.15-2,2.63-1c4.75.74,3.45-3.3,4-6l-4,3.75-2,.16c0-1,0-2,0-2.92h.38ZM84,161l1.06-2,0,0,2.88-9-1.15-.51L82.94,153l.06-.06-1,.22L82,152l-1-3c.55-.69,1.09-1.38,1.67-2.05,2.18-2.56,2.6-4.52-1.64-4.93l-3,2-1,3a7.21,7.21,0,0,1-.93,0l-4.48-2.59c.58,3.6.94,5.86,1.3,8.12L75,156.05l2.15,2.8-1.56,2.76-2.54-1.69-.54-.36.34.56L75.05,164l2,1.93V167l.4,2a.61.61,0,0,1,.55.58l0-.11-1.55.52-3.16-4.12-1.75,1.67q3.08,2.8,6.14,5.62l3,.1q-1.89,1.95-3.77,3.92l-4.78-2v7.61l6.57.54.51,1.94,3-4.23H78.87l-2-3.93L83,177l2-1.92,2.56-10.71-1.3-.53L83.72,169l-.34,0-1.24.84-.21.16-2.27-1.44-.35-1.19,3.42-.48-.5-1.45-2.87,1.85-.87-1.65c3.07-1.32,1.48-3,.39-4.7L80,161l2,.33L83,163.56l.91-2.3ZM211.9,82.87,209.7,82l-.3,1.29,2.73-.15.35-.57ZM214,123l-2,2-1.75.39L212,126l2-3,.23-.42Zm-3-34-3.11-1.47L207.78,89H211l.21-.47Zm6.87-1.83,1,1.69.66-.44-1.39-1.48-3.58-3.19-.71,1.16ZM225,144.89l-1.75,2.17,2.49.85.29-2.09c-.15-.67-.3-1.33-.46-2Zm-18,91.16-.24-3.31-1.48-.19-.41,3.41.29,1c.68,1.55,1.3,3.13,2.07,4.63.61,1.16,1.41,2.23,2.13,3.33L202,246.89c.34-1.86.68-3.72,1.32-7.25l-6.12,5.92,3.65,2.44c1.43,1.75,2.72,2.47,4.89.64,2.33-2,3.62-.24,4,2.09a14,14,0,0,1-.16,3.21c2.52-3.31,2.52-6.37-.47-9.11l5.95-.58,2-.78c2.85-2.46,2.87-5.3.11-7.51s-5.76-2-8,1.37c-.2.3-1.57-.18-2.4-.29ZM86.76,244.76l-3.5.78,2.14,3.9c.95-1.53,1.73-2.76,2.49-4l.36-1.24ZM78.89,87.89,74.54,93.5l1.75,1.07,2.82-6.46,6.63-4.2-1.35-1.57Zm1.22,48.21L84,138.62,81.57,131c-.74,2.16-1.22,3.53-1.69,4.91l-2.66,2,1,.94ZM221,223l-.06,0c5.21,0,7.17-4.89,5.07-12.63A13,13,0,0,0,221,219l-4.36,3-2.47-3,1.72-1.66-2.24-.17-2.73-3.52c-.67,8.11-.67,8.11,4.1,14.43l.13.06-.19-.11c.73-1.35,1.45-2.71,2.18-4.07l2.55-.66ZM84.88,90.89c-3,2.55-6.69,4.61-5.75,9.84l6-9.6,4.43-2.23L93,88.29l1.36.75v30.29l-4.51,1.36c12.41,1.49,20.21-3.09,22.56-12.85.5-2.07.71-4.21,1-6.32A.69.69,0,0,0,114,101c3.42-.55,3.73,1.46,3.53,4.11-.71,9.72-6.29,15.79-14.64,19.85L87,125.1l-4-2.17-8.54-11.2c.45,6.5,3.78,10.23,8.4,11.34l4.22,2.87,7.68,2v5.66c.06,26.33-.35,52.67.33,79,.49,19.2,7.9,35.35,25.36,45.33,17.91,10.24,52.41,10.12,68.63-7.41.54-.59,1.92-.41,2.9-.59-.7,2.78-2.66,6.14.94,7.83,2.12,1,5.09.18,8.13.18.24.82.78,2.65,1.45,5,2.14-4.6,1.17-8.73-1.89-11.24-2-1.65-5.76-1.16-8.73-1.63.1-1-.19-2.36.34-3.07,8.62-11.56,11.63-24.74,11.61-38.89,0-25.11,0-50.22.06-75.33V127.6l-5.89-3,0-.08,0-1.58L198,123l10-2c5.13-2.52,10.74-4.58,11.51-11.07L208,120l-4-.33c0-5.69-.21-11.16.05-16.62.26-5.3-1.29-10.77,1.26-16.08-7.65-.85-13.59,1.93-17.48,8.64a17,17,0,0,0,2,19.89c2.15,2.45,2.72,4.35.13,6.61-8.46-7.13-11.24-15.84-7.32-26.4,4.77-10.7,13.65-14.32,23.57-13.79-1.14-1.78-3-3.52-3.48-5.58-3.84-15.49-11.33-28.64-26.64-34.6-23.11-9-45.57-8.31-65.67,8.52-.86.71-2.51.47-3.79.68l1.19-1.78L96.06,39,94,41.59c3.59,3.26,6.89,6.35,10.33,9.29.46.4,1.59,0,2.4,0,0,1.27.48,3-.14,3.74-6.3,8-9.42,17.19-11.47,27,8.19.81,15.34,3,18.84,11.29-1.58,0-4,.74-4.61,0C104,86.84,97.39,85.75,90,87ZM109,42.32l3,2.46,1-2-2.63-.7-5.24-7.72.62-1.53a.64.64,0,0,1,.26-.71l-.74-1.68L104,31.59l-4,3.35-.16,1.8,2.29-1.16ZM110,33l.81,1,.75,1.16.89,2.8,2.6-1.19.75-.8.24-2,3.42-.41-6.28-9.16L110,27l-1,.87C104.36,30.58,110,31.24,110,33ZM170.1,268c2.48,4.09,5,8.17,7.59,12.52l2.79-1.42-2.61-4.77,3.31-1.8c-.81-3.13-1.62-6.21-2.63-10.09L174,265.84l-3.93,1.2-2.74.63.22,1Zm-63.77-1.82-6.67-2.63,7.46-9.19-1.43-2.08-10.63,10,4.06,3.54L103,269l4,3.25c1.76.42,4.61,1.72,5.09,1.12a54.09,54.09,0,0,0,5.92-9.81c.26-.52-1.27-1.93-2-2.93a1.11,1.11,0,0,0-.72-.6L114,259l-1.72-1.11Zm20.61.91c-2.55-3.42-5.61-2.41-7.35.22a19.11,19.11,0,0,0-2.58,8.89c-.08,1,2.59,2.22,4,3.34,4.72,1,7.74-.53,8.75-5.19C130.35,271.6,131.91,267.86,126.94,267Zm67.54,3.55,4.42-3.82-1.8,1.29L188,255.44l-3.84,4.15c5,2,8.22,5.3,9.66,10.26l-.52.63ZM128.29,18.3c2,.81,5.08,1.14,5.65,2.52,1.23,3,1.16,6.52,1.66,10.11L139.06,29l11.07,2.26c.22-2.45.35-3.86.47-5.13l-5.75,3.26V14.83h-3.92c0,2.91.07,5.45-.09,8,0,.29-1.28.5-2,.75-1.48-6.57-4.78-8.34-11.52-6.19-4.3,2.15-5.43,6-4,10,.87,2.41,3.52,4.17,5.37,6.21l1.4-1.1C127.83,27.92,123.62,23.58,128.29,18.3ZM189,35.67l8.11,2.14-8.28,6.68L193,49l1.51,3.82,1.75-1L193.2,48l10.3-10.91-4-2.56-.62,1.62-1.76,1.31c.53-3.34,2.2-7.06-2.83-8.56l-4.55-3.61c-2.17,5.21-4.27,9.89-9.78,12.62l4.78,3.4ZM84,63.83l-4.11-.52-1.22,3.57,10.69,1.76L90.52,70l.53-.32-.92-1.82,6-2.45L97,62.8H86l-.85-2.43-.88.22C84.18,61.67,84.09,62.75,84,63.83ZM98.33,251.29l.23.71-.13-.74,3.44-4.4-2.78-3.63-12.08,9,3.87,4.5c1.75,4.57,2.9,1,4.57-.18L91,255l3.91-3.8.26,3.93,1.93-3.84ZM202,47l-2,2c.29,2.26,2.46,4.74-.82,6.55l-1.58-1.06.28,1.47,2.19,4,.82.8.5-.64c2.9-4.56,5.81-9.11,9.07-14.21ZM163.09,276.66l7.59,6.4.91-.7q-2-5.73-3.92-11.47c-1.37,3.22-2.54,4-4.7,1.52-1.85-2.08-3.74-3.42-6-.49l-9.73-1.28v15.15h3.6c-.14-2-.26-3.75-.46-6.79,4.35,6.69,4.35,6.69,7.26,6.67-2.53-4.2-2.53-4.2-.73-13.84l5.14,8.18ZM160,30c-4.33-3-1.55-6.5-.67-9.66-4,.13-3.73-2.62-3.57-5.39h-6c2.63,5,7.35,9.48,2.12,16h8L167,29.2c-.25-.72-.49-1.44-.74-2.17Zm14.68-1c-.21,2.15-.42,4.3-.69,7l4.47,1.86c-.56-3.36-1-6-1.44-8.61l2.13-8-2.38-1.34-3.63,6.41c-.25-3.67-.39-5.67-.6-8.79l-6.33,8.16,1.71-.12,2,8.65ZM205,68l-.08-.09c.27,3.59,3.06,4.76,5.6,4,2.8-.87,6.94-3,7.28-5,.64-3.85-1.07-8.08-1.74-11.8l-15.24,8.06C202.13,64.6,203.59,66.31,205,68ZM81,241.08H89.4l-1.06,4.21,8.75-7.43-8.41.45,3.82-5.58-4.64.31ZM218.25,137.56l-1.8,4.06,5.05,2,1.31-1.08q-1.91-6.21-3.8-12.43l-1.6.23-2.53,5.21ZM85.38,53.84l16.25,4.52c-1.36-8.55-10.32-3.1-13.28-8.2a5.78,5.78,0,0,0-.68.29Zm47.37,230.32,1.42-.51c.76-4.74,1.53-9.48,2.32-14.42l-3.09-.29a68.08,68.08,0,0,0-1.26,8A52.41,52.41,0,0,0,132.75,284.16ZM220.45,107c1.54-7-2.25-15.45-6.44-15.21C216.12,96.76,218.3,101.92,220.45,107Zm4.57,2.06c3.08-1.18,1.87-4.14,1.92-6.15,0-1.27-.94-2.57-1.46-3.86l-.46.81ZM81.28,115l1.9-1-3.92-6.77L78,108Zm80.37,171.53,3.61-2.4-2.94-3.94C162.06,282.7,161.91,284.11,161.65,286.56Zm59.54-171,1.46,1,3.25-4.82-1.53-1ZM79.3,237.35l3.27-3.56-.73-1-4.27,1.29Zm56.52,47,.7,1,5.58-3.5-.94-1.41ZM222,119.2l-1.13-1.39-3.71,3,1.12,1.37ZM81.58,73.53,80,73.46l-.19,4,1.74.08Zm5.34,8.72.54,1.26,4.35-1.74-.55-1.29Zm128-6.44,2,2,2.19-2.39-1.68-1.64ZM212.78,185.9l-1.51.78,1.84,3,1-.52ZM94.29,46.32,92.9,47l1.59,2.9,1-.49Zm127.3,43.27c-.58.82-1.25,1.37-1.16,1.72.15.53.81.92,1.26,1.38.39-.42,1.09-.83,1.1-1.26S222.19,90.46,221.59,89.59Zm-146.47,8-.58-.9L72.33,98,73,99ZM93.91,72l-1.49-1.46-1.67,1.86,1.48,1.44Zm-6,45.86c-.6-.34-1.11-.81-1.32-.7-.43.22-.71.75-1.05,1.16.42.16.85.47,1.25.43S87.37,118.3,87.86,117.89Zm94,159.48.53.88,2.38-1.39-.57-.91Zm26.29-149.15a5.38,5.38,0,0,0,.41-1.8c-.05-.29-.68-.49-1.05-.73a10.25,10.25,0,0,0-.79,1.68A8.29,8.29,0,0,0,208.11,128.22ZM83,57l-1-.12-.39,2.57.91.11Zm-9.09,51.67-1.48,1.11c.26.33.6,1,.75.94a2.33,2.33,0,0,0,1.3-.85C74.6,109.71,74.13,109.13,73.91,108.69ZM223.3,94.17l-.78.4L224,97.49l.79-.4ZM161.77,17.94c-.25-.09-.57-.31-.71-.23s-.31.45-.46.69c.25.09.57.32.74.24S161.63,18.19,161.77,17.94ZM117.69,39.1a3.26,3.26,0,0,0-.62-.4c-.07,0-.35.21-.34.29a3.25,3.25,0,0,0,.31.69Zm47.06-6.93a1.16,1.16,0,0,0-.14-.42s-.24.06-.37.09a1.36,1.36,0,0,0,.14.43S164.62,32.21,164.75,32.17Zm-61,217.06.07-.38-.53.1c.05.12.07.26.15.33S103.59,249.25,103.7,249.23Zm-27.93-60.3-.23-.31-.29.26.39.4Zm150.51,9.46a1.13,1.13,0,0,0-.42-.13c-.05,0-.09.22-.13.35a1.36,1.36,0,0,0,.42.13S226.24,198.51,226.28,198.39ZM78,187.14l-.36-.79c-.12.06-.35.12-.36.19a5.49,5.49,0,0,0,0,.81ZM92.38,44.53l-.75-.07c.11.1.23.26.35.27S92.25,44.61,92.38,44.53ZM183.62,273.7c-.11,0-.26,0-.31.07a1.12,1.12,0,0,0-.09.38l.55-.1Z"/><path class="cls-6" d="M87,125.1l15.85-.15,1.09,1c3.27,3,6,7.16,9.91,8.9,10.84,4.87,21.29.51,28.77-11l1.15.14c1.78.58,3.54,1.6,5.33,1.66A74.37,74.37,0,0,0,158,125c.78,1.54,1.26,3.35,2.38,4.6,9.21,10.21,25.34,9.28,33.89-1.77a22.44,22.44,0,0,1,3.76-3.2l5.89,3v5.17c0,25.11-.1,50.22-.06,75.33,0,14.15-3,27.33-11.61,38.89-.53.71-.24,2-.34,3.07l.1-.11c-1,.18-2.36,0-2.9.59-16.22,17.53-50.72,17.65-68.63,7.41-17.46-10-24.87-26.13-25.36-45.33-.68-26.31-.27-52.65-.33-79V128l-7.68-2A1.21,1.21,0,0,1,87,125.1Zm47.09,52.74-2-4.46-1.5.92,3.18,3.94,2.08,1.77,16.11,2.7c5.17-.73,10.62-.74,14.24-5.5l1-3.75-1.93,2.74c-4.48,2.27-5.46-1.73-7.36-4.1l1-1.08.5.41-.41-.51-.08-1.07c3.65-4.64,5.62-9.75,1.85-15-5.73-8-9.68-16.56-9.55-27.82-3.46.85-7.31.65-9.08,2.47-3.66,3.77-6.21,8.62-9.17,12.94L131.28,140c-1.76,8.59-3.75,16.72-.24,24.88l.42,3.81,2-.42-.94-3.13v-14l1.36-.09a42.67,42.67,0,0,0,1.1,4.66,40,40,0,0,0,2,4.18l.06.11v11.78l4.09,1.12.37,0,.36,0-3.14,2-.71.8L137,177Zm15.42,70.82c4.61,3.82,8.41-.68,12-2.23,5.7-2.45,12.5-4.69,13-12.76.14-2.42-.09-4.87-.09-7.3,0-5.76,0-11.52,0-18.64-3.3,2.5-5.22,4.28-7.45,5.5-1,.53-3.41.35-3.73-.26a6.6,6.6,0,0,1-.59-4.87c.46-1.18,2.42-1.77,3.8-2.68l-8.94-5.85c-1.29,3.57-2.78,6.53-3.38,9.66-.8,4.21-.85,8.57-1.36,12.85C151.78,230.76,150.68,239.43,149.55,248.66Zm-5.64-14.95c-1.28,4.81.44,10.56,4.57,13.35.36-15.87-3.81-30.55-5.09-45.11-2.69-.17-4.92-.71-7-.37-3.44.54-6.75,1.92-10.19,2.45-5.32.81-8.08,3.43-8.79,8.81-.39,3-1,5.92-1.66,9.71a7.2,7.2,0,0,0,2.93,1.21,88.6,88.6,0,0,0,11.29-.28c6.5-.65,10.4,2.75,10.22,9.22a16,16,0,0,0,.19,1.88Zm19.31-81.26c-2.15-6.53-4.29-13.06-6.37-19.4C153.36,140.75,159,146.39,163.22,152.45Zm-7.43,42,.09-2H142.5l-.07,1.37Z"/><path class="cls-6" d="M113.91,93c-3.5-8.25-10.65-10.48-18.84-11.29,2.05-9.85,5.17-19.08,11.47-27,.62-.79.12-2.47.14-3.74V51c1.28-.21,2.93,0,3.79-.68,20.1-16.83,42.56-17.51,65.67-8.52,15.31,6,22.8,19.11,26.64,34.6.51,2.06,2.34,3.8,3.48,5.58-9.92-.53-18.8,3.09-23.57,13.79l-1-1c-.49-.63-1-1.81-1.46-1.8-3.68.1-7.37.43-11.05.68L168.1,92c-4-7.48-10.77-10.61-18.83-10.47-9.23.17-15.87,4.91-19.81,13.31L128,93l-11.69.16Z"/><path class="cls-7" d="M128,93l1.45,1.86c-.38,1.27-.79,2.52-1.13,3.79A20.41,20.41,0,0,0,137,121l1.36.1c-5.11,11.64-19.76,14.71-28.59,5.71-2.14-2.17-3.59-2.24-5.76-.87l-1.09-1c8.35-4.06,13.93-10.13,14.64-19.85.2-2.65-.11-4.66-3.53-4.11l0-1.09c3.08-.93,6.16-2.59,9.24-2.6C126.69,97.28,128.12,96.36,128,93Z"/><path class="cls-6" d="M182.7,95.72c-3.92,10.56-1.14,19.27,7.32,26.4l.75,2.37c-7.72,9.46-18.35,10.1-27.21,1.71a18.62,18.62,0,0,0-3.59-2.14c.49-.64.86-1.5,1.51-1.9A20.65,20.65,0,0,0,171.57,106c.24-2.25-1.31-4.69-2-7.05,2.66-.62,5.36-1.09,8-1.92a24.09,24.09,0,0,0,4.21-2.31Z"/><path class="cls-8" d="M113.91,93l2.41.19c-12.24,6.15-16.82,13.6-14.38,24.74a11.39,11.39,0,0,0,3.29-4.93c1.18-5,2.66-9.6,7.48-12.29l.78.84c-.34,2.11-.55,4.25-1,6.32-2.35,9.76-10.15,14.34-22.56,12.85l4.51-1.36V89L93,88.29l-3.49.61c.14-.64.28-1.28.41-1.92,7.44-1.23,14.07-.14,19.35,6C110,93.71,112.33,93,113.91,93Z"/><path class="cls-8" d="M190.77,124.49l-.75-2.37c2.59-2.26,2-4.16-.13-6.61a17,17,0,0,1-2-19.89c3.89-6.71,9.83-9.49,17.48-8.64-2.55,5.31-1,10.78-1.26,16.08-.26,5.46-.05,10.93-.05,16.62l4,.33,0,1-10,2c.15-1.86.3-3.73.46-5.59.74-8.33-1.84-15.22-9.38-20.12-.25,2.15-.26,4.46.85,6C195,110.14,195.4,117,190.77,124.49Z"/><path class="cls-9" d="M190.77,124.49c4.63-7.51,4.21-14.35-.84-21.23-1.11-1.5-1.1-3.81-.85-6,7.54,4.9,10.12,11.79,9.38,20.12-.16,1.86-.31,3.73-.46,5.59l.06-.05-1.06.49,1,1.09,0,.08a22.44,22.44,0,0,0-3.76,3.2c-8.55,11.05-24.68,12-33.89,1.77-1.12-1.25-1.6-3.06-2.38-4.6l-.08,0,2.09-1-.08.08a18.62,18.62,0,0,1,3.59,2.14C172.42,134.59,183.05,134,190.77,124.49Z"/><path class="cls-10" d="M205,68c-1.45-1.71-2.91-3.42-4.18-4.9l15.24-8.06c.67,3.72,2.38,7.95,1.74,11.8-.34,2.08-4.48,4.16-7.28,5-2.54.8-5.33-.37-5.6-4,4,2,7.85,1.68,10.51-2,1.06-1.48.72-4,1.19-7.18-4.37,2.37-7.25,3.65-9.78,5.44C205.86,64.88,205.63,66.7,205,68Z"/><path class="cls-4" d="M156.91,271.83c-1.8,9.64-1.8,9.64.73,13.84-2.91,0-2.91,0-7.26-6.67.2,3,.32,4.8.46,6.79h-3.6V270.64l9.73,1.28Z"/><path class="cls-11" d="M192,250.06c3,.47,6.73,0,8.73,1.63,3.06,2.51,4,6.64,1.89,11.24-.67-2.32-1.21-4.15-1.45-5-3,0-6,.81-8.13-.18-3.6-1.69-1.64-5-.94-7.83Z"/><path class="cls-12" d="M174.66,29l-4.78,5.16-2-8.65-1.71.12,6.33-8.16c.21,3.12.35,5.12.6,8.79l3.63-6.41,2.38,1.34-2.13,8Z"/><path class="cls-13" d="M215.1,244.25l-5.95.58.19.13c-.72-1.1-1.52-2.17-2.13-3.33-.77-1.5-1.39-3.08-2.07-4.63l1.73,0c.83.11,2.2.59,2.4.29,2.22-3.41,5.19-3.6,8-1.37s2.74,5-.11,7.51l-1.65-3.08C215.28,242.45,215.19,243.35,215.1,244.25Z"/><path class="cls-10" d="M138.88,23.55c.68-.25,1.94-.46,2-.75.16-2.52.09-5.06.09-8h3.92V29.38l5.75-3.26c-.12,1.27-.25,2.68-.47,5.13L139.06,29,139,29l2-1.79-2-.76C138.94,25.5,138.91,24.53,138.88,23.55Z"/><path class="cls-11" d="M114,259l1.23,1,.72.6c.71,1,2.24,2.41,2,2.93a54.09,54.09,0,0,1-5.92,9.81c-.48.6-3.33-.7-5.09-1.12,1.42-2.71,2.82-5.42,4.26-8.12C112.09,262.4,113.06,260.71,114,259Z"/><path class="cls-10" d="M159.84,30.92h-8c5.23-6.49.51-11-2.12-16h6c-.16,2.77-.47,5.52,3.57,5.39-.88,3.16-3.66,6.65.67,9.66A1.62,1.62,0,0,1,159.84,30.92Z"/><path class="cls-13" d="M162.05,280l-5.14-8.18.06.09c2.26-2.93,4.15-1.59,6,.49,2.16,2.44,3.33,1.7,4.7-1.52q2,5.75,3.92,11.47l-.91.7-7.59-6.4Zm5.18-5.12a8.52,8.52,0,0,0-.95-1c-.05,0-.64.4-.61.52a5.78,5.78,0,0,0,.6,1.19Z"/><path class="cls-2" d="M200.08,60l-2.19-4,1.3-.41c3.28-1.81,1.11-4.29.82-6.55l2-2L210.47,46l-9.08,14.21Z"/><path class="cls-13" d="M90.88,256.72,87,252.22l12.08-9,2.78,3.63-3.44,4.41-.1,0H97.14L95,251.21,91,255C91,255.58,90.94,256.15,90.88,256.72Z"/><path class="cls-12" d="M81,241.08l6.84-8,4.64-.31-3.82,5.58,8.41-.45-8.75,7.43,1.06-4.21Z"/><path class="cls-10" d="M199.49,34.53l4,2.56L193.2,48,193,49l-4.12-4.49,8.28-6.68,0-.34c.59-.44,1.18-.88,1.76-1.33C199.07,35.6,199.28,35.06,199.49,34.53Z"/><path class="cls-10" d="M86,62.8H97l-.82,2.64-6,2.45-.78.76L78.66,66.88l1.22-3.57,4.11.52Z"/><path class="cls-14" d="M80.91,219c.36-.62.61-1.63,1.12-1.77,1.83-.53,3.75-.78,6-1.2.42,3.26.75,7.57-3.14,11L83,228,80.24,225C80.46,223,80.69,221,80.91,219Z"/><path class="cls-4" d="M189,35.67l-4.31,5.64L180,37.91c5.51-2.73,7.61-7.41,9.78-12.62l4.55,3.61Q191.66,32.29,189,35.67Z"/><path class="cls-11" d="M189,35.67q2.63-3.37,5.24-6.77c5,1.5,3.36,5.22,2.83,8.57l0,.34Z"/><path class="cls-4" d="M138.88,23.55c0,1,.06,1.95.08,2.93s0,1.7,0,2.55l.11,0-3.46,1.94c-.5-3.59-.43-7.12-1.66-10.11-.57-1.38-3.69-1.71-5.65-2.52l-.93-.94C134.1,15.21,137.4,17,138.88,23.55Z"/><path class="cls-3" d="M82.24,188.07,84.89,187l2.13.13c-.08,4.1-1.33,6.84-6.25,6.94-1.27,0-2.5,2.46-3.75,3.79l-4.62.8.53-5.59.11-.11c3.78,1.91,6.36-.19,8.83-2.64C82,189.56,82.12,188.81,82.24,188.07Z"/><path class="cls-15" d="M80.91,219c-.22,2-.45,4-.67,6.05-5,1.76-6.27-1.14-6.46-4,1.37-1.27,2.8-2.52,2.76-2.56-3.08-3.71-.05-5,2.49-6.48l1,1C80.66,214.93,75.23,217.77,80.91,219Z"/><path class="cls-16" d="M218.25,137.56l-3.37-2,2.53-5.21,1.6-.23q1.89,6.22,3.8,12.43l-1.31,1.08-5.05-2Z"/><path class="cls-13" d="M106.69,51V50.9c-.81,0-1.94.38-2.4,0-3.44-2.94-6.74-6-10.33-9.29L96.06,39l11.82,10.2Z"/><path class="cls-17" d="M221,219a13,13,0,0,1,5.08-8.61c2.1,7.74.14,12.62-5.07,12.63C221,221.68,221,220.34,221,219Z"/><path class="cls-12" d="M193.84,269.85c-1.44-5-4.7-8.23-9.66-10.26l3.84-4.15,9.08,12.62,1.8-1.29-4.42,3.82A5,5,0,0,0,193.84,269.85Z"/><path class="cls-18" d="M77.16,158.85,75,156.05l.83-1.82L77,154h2l1,2.14.51,1.5L81,156l0,.06L83,152.94l-.06.06c1.94.06,3.42.39,2.44,3a12.51,12.51,0,0,0-.35,3.09l0,0L84,161l-.06.26-2,.08L80,161l-1.23-1-.82-.88,0-1.15Z"/><path class="cls-12" d="M121,279.49c-1.42-1.12-4.09-2.33-4-3.34a19.11,19.11,0,0,1,2.58-8.89c1.74-2.63,4.8-3.64,7.35-.22l.12,0c-2,.95-4.8,1.39-5.88,3-1.9,2.81-3.53,6.33-.17,9.55Z"/><path class="cls-4" d="M85.38,53.84l2.29-3.39a5.78,5.78,0,0,1,.68-.29c3,5.1,11.92-.35,13.28,8.2Z"/><path class="cls-14" d="M217.1,224c-.73,1.36-1.45,2.72-2.18,4.07l.06.05c-4.77-6.32-4.77-6.32-4.1-14.43l2.73,3.52c.17.61.34,1.22.52,1.83l2.47,3C216.77,222.63,216.93,223.3,217.1,224Z"/><path class="cls-13" d="M99.12,265.8l-4.06-3.55,10.63-10,1.43,2.08-7.46,9.18Z"/><path class="cls-4" d="M132.75,284.16a52.41,52.41,0,0,1-.61-7.26,68.08,68.08,0,0,1,1.26-8l3.09.29c-.79,4.94-1.56,9.68-2.32,14.42Z"/><path class="cls-4" d="M128.29,18.3c-4.67,5.28-.46,9.62,1.86,14.16l-1.4,1.1c-1.85-2-4.5-3.8-5.37-6.21-1.45-4-.32-7.84,4-10Z"/><path class="cls-3" d="M174,265.84l4.51-3.45c1,3.88,1.82,7,2.63,10.09l-3.31,1.8Q176,270,174,265.84Z"/><path class="cls-13" d="M114,259c-.94,1.71-1.91,3.4-2.82,5.12-1.44,2.7-2.84,5.41-4.26,8.12L103,269l3.36-2.86,6-8.24Z"/><path class="cls-11" d="M209.34,245l-.19-.13c3,2.74,3,5.8.47,9.11a14,14,0,0,0,.16-3.21c-.42-2.33-1.71-4-4-2.09-2.17,1.83-3.46,1.11-4.89-.64l1.15-1.11Z"/><path class="cls-2" d="M174,265.84q1.92,4.21,3.83,8.44l2.61,4.77-2.79,1.42c-2.63-4.35-5.11-8.43-7.59-12.52a1.24,1.24,0,0,1,0-.91Z"/><path class="cls-19" d="M121,279.49v.05c4.7-1.07,7.31-6.56,6-12.53l-.12,0c5,.82,3.41,4.56,2.83,7.26C128.76,279,125.74,280.51,121,279.49Z"/><path class="cls-17" d="M78.73,183.34l-6.57-.54v-7.61l4.78,2v0c.64,1.31,1.29,2.62,1.94,3.93C78.82,181.81,78.78,182.57,78.73,183.34Z"/><path class="cls-20" d="M220.45,107c-2.15-5.08-4.33-10.24-6.44-15.21C218.2,91.55,222,100,220.45,107Z"/><path class="cls-17" d="M115,36.84,112.43,38c-.32-1-.61-1.91-.89-2.8l.52-.92-1.27-.24L110,33l-1-5.17,1-.87,6,7.06-.24,2Z"/><path class="cls-15" d="M83,177l-6.07.12v0l3.77-3.93c.19-.22.38-.42.59-.62l2.88,0L83.71,169c.86-1.73,1.71-3.45,2.56-5.18l1.3.53q-1.29,5.35-2.56,10.71Z"/><path class="cls-11" d="M105.09,34.34l5.24,7.72-1.34.26-6.83-6.74L100,34.94l4-3.35,2,.51a.64.64,0,0,0-.26.71l-1.29.11Z"/><path class="cls-9" d="M82.93,123.07c-4.62-1.11-8-4.84-8.4-11.34l8.54,11.2Z"/><path class="cls-20" d="M208,121l0-1,11.53-10.08C218.74,116.42,213.13,118.48,208,121Z"/><path class="cls-16" d="M219,202c0,1,0,1.94,0,2.92.67.38,1.33.77,2,1.16,0,.3,0,.6-.07.9l-2.63,1-4-1.08c-.49-1.42-1-2.85-1.39-4.07l3.62-.88,2.46,0Z"/><path class="cls-13" d="M116,34.06,110,27l3.16-2.51,6.28,9.16Z"/><path class="cls-16" d="M174.66,29l2.34.21c.44,2.62.88,5.25,1.44,8.61L174,36C174.24,33.32,174.45,31.17,174.66,29Z"/><path class="cls-18" d="M81,142c4.24.41,3.82,2.37,1.64,4.93-.58.67-1.12,1.36-1.67,2.05H79.93L78,147.06l-1-.08,1-3,5.12.6Z"/><path class="cls-18" d="M215.5,174v0l-1.56-1,0,.05-2.19-2.1-.27-4.46,2.22.47,3.13,3.74a3.17,3.17,0,0,0,.17.8l0,.09c-.37.81-.75,1.62-1.13,2.42Z"/><path class="cls-16" d="M216.14,184.87c.62.68,1.23,1.37,1.84,2,.38.36.75.73,1.12,1.1l.8,0c0,.35,0,.69,0,1-.25,1.5-.5,3-.83,5-2.45.74-3.12-1.7-3.44-4.14a24.38,24.38,0,0,1,.27-4.8Z"/><path class="cls-13" d="M220,181c.36-1,.72-2,1.07-3l2-1.91,4-1.82-.88,8.56-1.1-.05-.33-2.77-.38-1.73L223,179l-2,2.32Z"/><path class="cls-15" d="M77.16,158.85l.72-.84,0,1.15.82.88a3.76,3.76,0,0,1,.15.94c1.09,1.67,2.68,3.38-.39,4.7-.5-.55-1-1.09-1.51-1.63L75.05,164l-2.19-3.86.2-.2,2.54,1.69Z"/><path class="cls-17" d="M216.49,202l-3.62.88c.42,1.22.9,2.65,1.39,4.07l-.38,1.18a20.9,20.9,0,0,1-2.29-4.32,31,31,0,0,1-.53-5.65l.94-.44Z"/><path class="cls-21" d="M226,193c1.48,4.24-3.32,4.47-4.48,7-.18-.33-.35-.66-.52-1,.48-2,1-4,1.49-6.25l2.51.2Z"/><path class="cls-22" d="M82,207c3.08.23,3.12-1.79,2.94-4L85,203l2.75,3.3-4.71,3.93C82.72,209.13,82.37,208.07,82,207Z"/><path class="cls-3" d="M202,246.89,200.85,248l-3.65-2.44,6.12-5.92C202.68,243.17,202.34,245,202,246.89Z"/><path class="cls-20" d="M225,109.06v-9.2l.46-.81c.52,1.29,1.49,2.59,1.46,3.86C226.89,104.92,228.1,107.88,225,109.06Z"/><path class="cls-14" d="M85,159.05a12.51,12.51,0,0,1,.35-3.09c1-2.57-.5-2.9-2.44-3l3.82-3.45,1.15.51Z"/><path class="cls-9" d="M85.12,91.13q-3,4.8-6,9.6c-.94-5.23,2.77-7.29,5.75-9.84Z"/><path class="cls-18" d="M216.82,161c-4.61-.76-4.89-4.65-5.83-8.06h3l.09.09q1.47,3,3,5.94Z"/><path class="cls-3" d="M82,207c.35,1.06.7,2.12,1.06,3.18,1.78,4-1.53,2.42-3.06,2.81l-1-1c.34-1.68.67-3.36,1-5,.29,0,.57,0,.86,0Z"/><path class="cls-9" d="M81.28,115,78,108l1.27-.69L83.18,114Z"/><path class="cls-21" d="M220.92,207c0-.3.05-.6.07-.9s0-.88,0-1.32l4-3.75C224.37,203.72,225.67,207.76,220.92,207Z"/><path class="cls-3" d="M106.33,266.13,103,269l-3.85-3.2.54-2.3Z"/><path class="cls-18" d="M77.69,173.14q-3.06-2.82-6.14-5.62l1.75-1.67L76.46,170,78,172.56C77.91,172.75,77.8,173,77.69,173.14Z"/><path class="cls-22" d="M221.36,155.05l-4.08,0L215.45,153l-1.41.09L214,153c0-.38,0-.75.05-1.12l2-.94,3.86.05c.06.82.12,1.64.2,2.85l1.82-2c0,.35,0,.7.08,1C221.77,153.61,221.57,154.33,221.36,155.05Z"/><path class="cls-15" d="M223,176.1l-2,1.91c-1.32-2.07-6,.64-5.57-4l.44,0,1.62-.06Z"/><path class="cls-23" d="M219.92,189c0-.34,0-.68,0-1,1.66-.87.57-6.39,5.88-2.06Z"/><path class="cls-21" d="M225,161c-1.39,2.49,3.78,5,0,7.49l-1.18-.71-1.54-2.72L222,164l3-3Z"/><path class="cls-15" d="M75.93,206.2l-2.37-2.27L77,201l1.17,0-.09-.05.81,3.31L80,206h0l-.48-.11-.49,0Z"/><path class="cls-22" d="M72.94,152.51c-.36-2.26-.72-4.52-1.3-8.12L76.12,147q-1.05,3-2.11,6Z"/><path class="cls-16" d="M159.84,30.92A1.62,1.62,0,0,0,160,30l6.27-3c.25.73.49,1.45.74,2.17Z"/><path class="cls-22" d="M79.93,149H81l1,3-2.94,2H77l-1.2.32a.69.69,0,0,1-.58-.2L76,153l1.13-3Z"/><path class="cls-3" d="M77.14,150,76,153l-.79,1.16L74,152.94q1.06-3,2.11-6a7.21,7.21,0,0,0,.93,0l1,.07Z"/><path class="cls-16" d="M217.1,224c-.17-.66-.33-1.33-.5-2l4.36-3c0,1.34,0,2.68,0,4l.06,0-1.38.32Z"/><path class="cls-3" d="M79.88,135.86l1.69-4.9L84,138.62l-3.89-2.52Z"/><path class="cls-18" d="M87,187.11,84.89,187c-.27-1.22-.53-2.45-.84-3.83C87.11,182.82,89.47,183,87,187.11Z"/><path class="cls-9" d="M79.11,88.11l-2.82,6.46L74.54,93.5l4.35-5.61Z"/><path class="cls-3" d="M161.65,286.56c.26-2.45.41-3.86.67-6.34l2.94,3.94Z"/><path class="cls-20" d="M221.19,115.57l3.18-4.79,1.53,1-3.25,4.82Z"/><path class="cls-16" d="M219.88,151l-3.86-.05c.46-1.68.92-3.37,1.45-5.34,1,1.56,2,3,2.91,4.45C220.22,150.35,220.05,150.66,219.88,151Z"/><path class="cls-22" d="M77.69,173.14c.11-.19.22-.39.31-.58,0-1,0-2.07,0-3.11l0,.11,1.69-1L81.93,170l-.63,2.57c-.21.2-.4.4-.59.62Z"/><path class="cls-9" d="M78.89,87.89l5.5-5.55,1.35,1.57-6.63,4.2Z"/><path class="cls-12" d="M87.9,245.44l-2.5,4-2.14-3.9,3.5-.78Z"/><path class="cls-3" d="M79.3,237.35l-1.73-3.26,4.27-1.29.73,1Z"/><path class="cls-3" d="M135.82,284.35l5.34-3.91.94,1.41-5.58,3.5Z"/><path class="cls-3" d="M141.91,275.09c-1.08-3.64-1.08-3.64,3.65-5.29L142.07,275Z"/><path class="cls-14" d="M78.15,201,77,201l-4.58-2.4,4.62-.8.16.08C77.51,199,77.83,200,78.15,201Z"/><path class="cls-16" d="M223.78,167.78l1.18.71-3.4,2.5H220l-.26-.31c.11-.73.21-1.46.32-2.19l1.27-.46Z"/><path class="cls-20" d="M222,119.2l-3.72,3-1.12-1.37,3.71-3Z"/><path class="cls-3" d="M81.58,73.53v4l-1.74-.08.19-4Z"/><path class="cls-9" d="M90,87c-.13.64-.27,1.28-.41,1.92l-4.43,2.23-.23-.24Z"/><path class="cls-3" d="M90.88,256.72c.06-.57.11-1.14.16-1.71l4.41,1.53C93.78,257.69,92.63,261.29,90.88,256.72Z"/><path class="cls-3" d="M109,42.32l1.34-.26,2.63.7-1,2Z"/><path class="cls-16" d="M193,49l.21-1,3.05,3.79-1.75,1Z"/><path class="cls-16" d="M214,151.86c0,.37,0,.74-.05,1.12h-3V152l1.24-.7L211,151l1.27-2.6Z"/><path class="cls-16" d="M81.3,172.61l.63-2.57.21-.16,1.24-.84.34,0c.15,1.2.31,2.4.46,3.61Z"/><path class="cls-13" d="M109,27.87,110,33C110,31.24,104.36,30.58,109,27.87Z"/><path class="cls-3" d="M78.15,201c-.32-1-.64-2-1-3.07l6.08,1.51L79.18,201l-1.12,0Z"/><path class="cls-17" d="M79.66,168.6l-1.69,1a.61.61,0,0,0-.55-.58c-.13-.67-.27-1.34-.4-2v-1.05l0-1.86c.5.54,1,1.08,1.51,1.63l.87,1.64,0,.09Z"/><path class="cls-9" d="M86.92,82.25l4.34-1.77.55,1.29-4.35,1.74Z"/><path class="cls-3" d="M81,142l2.09,2.6L78,144Z"/><path class="cls-3" d="M204.85,236l.41-3.41,1.48.19.24,3.31Z"/><path class="cls-18" d="M226,145.82l-.29,2.09-2.49-.85,1.75-2.17Z"/><path class="cls-3" d="M78.73,183.34c0-.77.09-1.53.14-2.29h3.35l-3,4.23Z"/><path class="cls-16" d="M215.92,185.05,211,181.24l5,.75,0,0c0,1,.09,1.91.13,2.86Z"/><path class="cls-3" d="M80.11,136.1l-1.92,2.68-1-.94,2.66-2Z"/><path class="cls-9" d="M87,125.1a1.21,1.21,0,0,0,.11.84l-4.22-2.87.14-.14Z"/><path class="cls-16" d="M214.94,75.81l2.5-2.08,1.68,1.64-2.19,2.39Z"/><path class="cls-16" d="M212.78,185.9l1.36,3.27-1,.52-1.84-3Z"/><path class="cls-23" d="M213.88,208.12l.38-1.18,4,1.08-3.15,2c-.41-.68-.81-1.36-1.21-2Z"/><path class="cls-16" d="M216,182l1.61-2.64c.46.5.93,1,1.39,1.48-.05.4-.09.79-.14,1.19H216Z"/><path class="cls-3" d="M83,228l1.93-1c-.09.86-.18,1.71-.26,2.56Z"/><path class="cls-3" d="M94.29,46.32l1.18,3.07-1,.49L92.9,47Z"/><path class="cls-3" d="M79.06,154,82,152l0,1.17L80.94,156l0-.06a1.44,1.44,0,0,0-.95.19Z"/><path class="cls-20" d="M221.59,89.59c.6.87,1.21,1.36,1.2,1.84s-.71.84-1.1,1.26c-.45-.46-1.11-.85-1.26-1.38C220.34,91,221,90.41,221.59,89.59Z"/><path class="cls-14" d="M219.88,151c.17-.31.34-.62.5-.94.5-.26,1-.53,1.48-.8,0,.87,0,1.74,0,2.62l-1.82,2C220,152.61,219.94,151.79,219.88,151Z"/><path class="cls-9" d="M75.12,97.54,73,99l-.64-1,2.21-1.33Z"/><path class="cls-20" d="M217.85,87.14l-4-2.26.71-1.16,3.58,3.19Z"/><path class="cls-20" d="M211,89h-3.25l.09-1.53L211,89Z"/><path class="cls-17" d="M216.87,170.71,213.74,167l2.43.69.24.25c.63.74,1.27,1.47,1.9,2.2a.75.75,0,0,0-.05.55Z"/><path class="cls-3" d="M93.91,72l-1.68,1.84-1.48-1.44,1.67-1.86Z"/><path class="cls-1" d="M218.31,170.11c-.63-.73-1.27-1.46-1.9-2.2l1.52-1,1.41.09.67,1.44c-.11.73-.21,1.46-.32,2.19Z"/><path class="cls-3" d="M86,62.8l-2,1,.29-3.24.88-.22Z"/><path class="cls-14" d="M221.36,155.05c.21-.72.41-1.44.62-2.16l1.29,0c.07,1.1.13,2.21.19,3.31l-2.4,2.18C221.2,156.83,221.28,155.94,221.36,155.05Z"/><path class="cls-3" d="M75.93,206.2l3.08-.33-3,2.44Z"/><path class="cls-24" d="M78.06,200.94l1.12,0c-.1,1.1-.19,2.19-.3,3.28C78.6,203.15,78.33,202.05,78.06,200.94Z"/><path class="cls-16" d="M202,47l-2,2Z"/><path class="cls-16" d="M214,123l-2,3c0-.34,0-.68,0-1l2-2Z"/><path class="cls-9" d="M87.86,117.89c-.49.41-.78.85-1.12.89s-.83-.27-1.25-.43c.34-.41.62-.94,1.05-1.16C86.75,117.08,87.26,117.55,87.86,117.89Z"/><path class="cls-11" d="M215.1,244.25c.09-.9.18-1.8.39-3.86l1.65,3.08Z"/><path class="cls-18" d="M82.24,188.07c-.12.74-.24,1.49-.37,2.23l-2.53-.93v-.81Z"/><path class="cls-22" d="M79.31,167.41l0-.09,2.87-1.84.5,1.45Z"/><path class="cls-14" d="M217.93,167l-1.52,1-.24-.25c1-.77-.62-4.4,2.77-2.49Z"/><path class="cls-3" d="M181.82,277.37l2.34-1.42.57.91-2.38,1.39Z"/><path class="cls-20" d="M208.11,128.22a8.29,8.29,0,0,1-1.43-.85,10.25,10.25,0,0,1,.79-1.68c.37.24,1,.44,1.05.73A5.38,5.38,0,0,1,208.11,128.22Z"/><path class="cls-3" d="M83,57l-.49,2.56-.91-.11L82,56.9Z"/><path class="cls-11" d="M74,152.94l1.21,1.16h0a.69.69,0,0,0,.58.2v-.08L75,156.05l-2.07-3.54Z"/><path class="cls-18" d="M218,158.84l1.71-1c-.22,1-.45,2-.67,3l-1-.42Z"/><path class="cls-9" d="M73.91,108.69c.22.44.69,1,.57,1.2a2.33,2.33,0,0,1-1.3.85c-.15,0-.49-.61-.75-.94Z"/><path class="cls-20" d="M212.13,83.1l-2.73.15.3-1.29,2.2.91Z"/><path class="cls-20" d="M223.3,94.17l1.52,2.92-.79.4-1.51-2.92Z"/><path class="cls-3" d="M95,251.21l2.19.09-1.93,3.84Z"/><path class="cls-3" d="M82,161.34l2-.08c-.31.77-.61,1.53-.91,2.3Z"/><path class="cls-22" d="M85,203a3.25,3.25,0,0,1-.76-.06L83,202.47l1.93-2.6.28.34c0,.92-.09,1.84-.14,2.75Z"/><path class="cls-16" d="M218.15,199l1.87,0c-.07,1-.15,2-.22,3.05l-.38,0H219L219,202,218,200Z"/><path class="cls-24" d="M83,202.47l1.23.51a2.56,2.56,0,0,0-.3.84L83,205l-1.38-.72Z"/><path class="cls-16" d="M214.13,219c-.18-.61-.35-1.22-.52-1.83l2.24.17Z"/><path class="cls-3" d="M170.11,267a1.24,1.24,0,0,0,0,.91l-2.51.7-.22-1Z"/><path class="cls-3" d="M100,34.94l2.13.64c-.77.38-1.53.77-2.29,1.16Z"/><path class="cls-19" d="M77,164.05l0,1.86-2-1.93Z"/><path class="cls-23" d="M217.93,167l1-1.78c0-.37,0-.74,0-1.11l.46-.09h.48l1.13.05c0,.35,0,.69-.05,1l.07-.08-1.73,2Z"/><path class="cls-17" d="M225.06,154.61l-.63,2.5-.88-1,.39-3.19.91-.2Z"/><path class="cls-3" d="M106,32.1l-2-.51,1.23-1.17Z"/><path class="cls-14" d="M80.94,156l1.11-2.85,1-.22Z"/><path class="cls-3" d="M83,177l2-1.92Z"/><path class="cls-23" d="M218.85,182c.05-.4.09-.79.14-1.19l1,.17,1.07.34Z"/><path class="cls-21" d="M218.15,199,218,200l-1.65-1.21Z"/><path class="cls-17" d="M211.79,171l2.19,2.1Z"/><path class="cls-20" d="M212,125c0,.33,0,.67,0,1l-1.77-.62Z"/><path class="cls-16" d="M199.19,55.55l-1.3.41-.28-1.47Z"/><path class="cls-3" d="M162.05,280l1-3.35Z"/><path class="cls-3" d="M142.07,277l-1.27,1.51-.33-.32,1.46-1.3Z"/><path class="cls-23" d="M223,179l1.33-.73.38,1.73Z"/><path class="cls-3" d="M105.09,34.34l-.67-1.42,1.29-.11Z"/><path class="cls-24" d="M219.8,202.06c.07-1,.15-2,.22-3.05a3.22,3.22,0,0,1,1,0c.17.33.34.66.52,1C221,200.69,220.37,201.37,219.8,202.06Z"/><path class="cls-16" d="M161.77,17.94c-.14.25-.23.6-.43.7s-.49-.15-.74-.24c.15-.24.25-.57.46-.69S161.52,17.85,161.77,17.94Z"/><path class="cls-7" d="M225.06,154.61l-.21-1.85c.1-.44.2-.88.29-1.32l.8.17C225.65,152.61,225.35,153.61,225.06,154.61Z"/><path class="cls-23" d="M221,204.8c0,.44,0,.88,0,1.32-.66-.39-1.32-.78-2-1.16Z"/><path class="cls-16" d="M226,145.82l-1-.93.57-1.07C225.72,144.49,225.87,145.15,226,145.82Z"/><path class="cls-24" d="M218,158.84c0,.53,0,1,0,1.58l-.09,1.67L216.82,161l.18-2Z"/><path class="cls-20" d="M218.12,86.91l1.39,1.48-.66.44c-.33-.56-.66-1.13-1-1.69Z"/><path class="cls-16" d="M117.69,39.1l-.65.58a3.25,3.25,0,0,1-.31-.69c0-.08.27-.32.34-.29A3.26,3.26,0,0,1,117.69,39.1Z"/><path class="cls-15" d="M223.94,153l-.39,3.19-.09,0c-.06-1.1-.12-2.21-.19-3.31A.73.73,0,0,1,223.94,153Z"/><path class="cls-14" d="M217.56,174l-1.62.06c.38-.8.76-1.61,1.13-2.42C217.23,172.39,217.4,173.17,217.56,174Z"/><path class="cls-16" d="M164.75,32.17c-.13,0-.33.14-.37.1a1.36,1.36,0,0,1-.14-.43c.13,0,.33-.13.37-.09A1.16,1.16,0,0,1,164.75,32.17Z"/><path class="cls-17" d="M219.65,223.3,221,223Z"/><path class="cls-18" d="M77,167c.13.68.27,1.35.4,2C77.29,168.31,77.15,167.63,77,167Z"/><path class="cls-11" d="M215.45,153l1.83,2.13Z"/><path class="cls-14" d="M84,161l1.06-2Z"/><path class="cls-14" d="M78,169.45c0,1,0,2.07,0,3.11L76.46,170Z"/><path class="cls-11" d="M204.85,236l2.13.09c0,.33-.07.66-.11,1l-1.73,0C205,236.66,205,236.31,204.85,236Z"/><path class="cls-16" d="M212,197.71l-.94.44.21-1.4Z"/><path class="cls-3" d="M103.7,249.23c-.11,0-.26.1-.31.05s-.1-.21-.15-.33l.53-.1Z"/><path class="cls-3" d="M75.77,188.93l-.13.35-.39-.4.29-.26Z"/><path class="cls-17" d="M218,162.09l.09-1.67,1,.42c.18.56.37,1.11.55,1.66l-.78.65Z"/><path class="cls-9" d="M93,88.29l1.36.75Z"/><path class="cls-16" d="M226.28,198.39c0,.12-.08.34-.13.35a1.36,1.36,0,0,1-.42-.13c0-.13.08-.35.13-.35A1.13,1.13,0,0,1,226.28,198.39Z"/><path class="cls-10" d="M90.13,67.89l.92,1.82-.53.32-1.17-1.39Z"/><path class="cls-22" d="M84.9,199.87c.4-.22.8-.46,1.21-.66,0,0,.21.22.32.34l-1.25.66Z"/><path class="cls-18" d="M78,187.14l-.68.21a5.49,5.49,0,0,1,0-.81c0-.07.24-.13.36-.19Z"/><path class="cls-17" d="M213.93,208c.4.68.8,1.36,1.21,2C214.73,209.38,214.33,208.7,213.93,208Z"/><path class="cls-3" d="M92.38,44.53c-.13.08-.27.21-.4.2s-.24-.17-.35-.27Z"/><path class="cls-3" d="M183.62,273.7l.15.35-.55.1a1.12,1.12,0,0,1,.09-.38C183.36,273.71,183.51,273.72,183.62,273.7Z"/><path class="cls-3" d="M142.07,275c0,.7,0,1.4,0,2.09l-.13-.11c0-.61,0-1.23,0-1.84Z"/><path class="cls-17" d="M213.94,173l1.56,1-1.16,1C214.21,174.31,214.07,173.66,213.94,173Z"/><path class="cls-18" d="M211,151l1.24.36L211,152Z"/><path class="cls-13" d="M110.79,34.07l1.27.24-.52.92Z"/><path class="cls-17" d="M219.92,164h-.48l-.46.09a2.85,2.85,0,0,1-.15-.91l.78-.65C219.71,163,219.81,163.49,219.92,164Z"/><path class="cls-12" d="M86.76,244.76l1.49-.56c-.12.41-.24.83-.35,1.24Z"/><path class="cls-3" d="M78.88,161a3.76,3.76,0,0,0-.15-.94L80,161Z"/><path class="cls-21" d="M225,161l.23-.42L225,161Z"/><path class="cls-22" d="M83,205l.88-1.18C83.6,204.21,83.31,204.61,83,205Z"/><path class="cls-22" d="M80.9,207c-.29,0-.57,0-.86,0L80,206h0C80.27,206.3,80.59,206.63,80.9,207Z"/><path class="cls-3" d="M98.33,251.29l.1,0c0,.24.09.48.13.73Z"/><path class="cls-20" d="M211,89l.26-.41L211,89Z"/><path class="cls-14" d="M220,171h0Z"/><path class="cls-8" d="M198,124.54l-1-1.09,1.06-.49Z"/><path class="cls-15" d="M216.87,170.71l1.39-.05-1.22.85A3.17,3.17,0,0,1,216.87,170.71Z"/><path class="cls-20" d="M211.9,82.87l.58-.34-.35.57Z"/><path class="cls-10" d="M200.08,60l1.31.16-.49.64Z"/><polygon class="cls-14" points="214.92 228.03 215.11 228.14 214.98 228.08 214.92 228.03"/><path class="cls-22" d="M83.38,169l-1.24.84Z"/><path class="cls-8" d="M114,99.9l0,1.09a.69.69,0,0,1-.51.53l-.78-.84Z"/><path class="cls-3" d="M72.93,193.05l-.38-.29.49.18Z"/><path class="cls-12" d="M194.48,270.59l-1.16-.11.52-.63A5,5,0,0,1,194.48,270.59Z"/><path class="cls-16" d="M214,123l.23-.42L214,123Z"/><path class="cls-13" d="M115,36.84l.75-.8Z"/><path class="cls-16" d="M226,193h0Z"/><path class="cls-15" d="M72.86,160.12l-.34-.56.54.36Z"/><path class="cls-12" d="M221,165.07c0-.35,0-.69.05-1a2.7,2.7,0,0,1,.94,0l.25,1.06Z"/><path class="cls-23" d="M219.1,188c-.37-.37-.74-.74-1.12-1.1C218.36,187.28,218.73,187.65,219.1,188Z"/><path class="cls-3" d="M116,260.62l-.72-.6A1.11,1.11,0,0,1,116,260.62Z"/><path class="cls-25" d="M149.55,248.66c1.13-9.23,2.23-17.9,3.24-26.58.51-4.28.56-8.64,1.36-12.85.6-3.13,2.09-6.09,3.38-9.66l8.94,5.85c-1.38.91-3.34,1.5-3.8,2.68a6.6,6.6,0,0,0,.59,4.87c.32.61,2.75.79,3.73.26,2.23-1.22,4.15-3,7.45-5.5,0,7.12,0,12.88,0,18.64,0,2.43.23,4.88.09,7.3-.47,8.07-7.27,10.31-13,12.76C158,248,154.16,252.48,149.55,248.66Z"/><path class="cls-26" d="M137,160a40,40,0,0,1-2-4.18,42.67,42.67,0,0,1-1.1-4.66l-1.36.09v14l-1.46-.26c-3.51-8.16-1.52-16.29.24-24.88l1.71,2.38c3-4.32,5.51-9.17,9.17-12.94,1.77-1.82,5.62-1.62,9.08-2.47-.13,11.26,3.82,19.8,9.55,27.82,3.77,5.28,1.8,10.39-1.85,15l-6.8-5.53-3-2.42-.06.08c-.05-1-.1-2-.16-3l0-1.76-1.54-4.72c-1.14,1.7-1.73,2.59-2.33,3.47-.57-.26-1.63-.51-1.63-.79-.11-3.91-.08-7.82-.08-11.78Q140.13,151.68,137,160Z"/><path class="cls-27" d="M143.91,233.71l-3.55.87a16,16,0,0,1-.19-1.88c.18-6.47-3.72-9.87-10.22-9.22a88.6,88.6,0,0,1-11.29.28,7.2,7.2,0,0,1-2.93-1.21c.66-3.79,1.27-6.73,1.66-9.71.71-5.38,3.47-8,8.79-8.81,3.44-.53,6.75-1.91,10.19-2.45,2.1-.34,4.33.2,7,.37,1.28,14.56,5.45,29.24,5.09,45.11C144.35,244.27,142.63,238.52,143.91,233.71Z"/><path class="cls-19" d="M138.33,121.09,137,121c-.29-2.17.1-4.82-1-6.43-5.48-8-4.87-17.63,1.95-23.86s16.62-6.29,23.77.37c2.18,2,4,2.49,6.41,1l1.09,1.62c-11.22,5.64-15.85,13.56-13.31,24.27a11.91,11.91,0,0,0,3.22-4.86c1.4-4.88,2.06-10.12,7.9-12,.19,13-6.34,19.71-19.06,20.09-1.4,0-2.75,1.9-4.13,2.92l-1.15-.14c3.56-12.43,1-22.08-8.26-26.92.76,2.72.89,4.75,1.83,6.28C139.71,108.92,141.4,114.69,138.33,121.09Zm8.48-1.65c1.8-.63,3.44-.7,4.14-1.55,3.25-3.9,2.59-17.91-.33-21.77C149.46,103.21,148.21,110.87,146.81,119.44Z"/><path class="cls-28" d="M138.33,121.09c3.07-6.4,1.38-12.17-2.1-17.86-.94-1.53-1.07-3.56-1.83-6.28,9.25,4.84,11.82,14.49,8.26,26.92-7.48,11.47-17.93,15.83-28.77,11-3.86-1.74-6.64-5.87-9.91-8.9,2.17-1.37,3.62-1.3,5.76.87C118.57,135.8,133.22,132.73,138.33,121.09Z"/><path class="cls-19" d="M149.12,161.9l3,2.42,6.8,5.53.08,1.07-.09.1-1,1.08c-5.3,1.61-10.62,2.77-16.11.86l-.36,0-.37,0q-2-6.45-4.09-12.9L137,160q3.17-8.27,6.31-16.53c0,4,0,7.87.08,11.78,0,.28,1.06.53,1.63.79,1.2,5.61,1.51,11.6,6.82,16.4C150.75,168.26,149.94,165.08,149.12,161.9Z"/><path class="cls-26" d="M143.81,124c1.38-1,2.73-2.87,4.13-2.92C160.66,120.71,167.19,114,167,101l2.53-2c.73,2.36,2.28,4.8,2,7.05a20.65,20.65,0,0,1-10.09,16.12c-.65.4-1,1.26-1.51,1.9l.08-.08L158,125l.08,0a74.37,74.37,0,0,1-8.9.68C147.35,125.61,145.59,124.59,143.81,124Z"/><path class="cls-3" d="M141.85,173c5.49,1.91,10.81.75,16.11-.86,1.9,2.37,2.88,6.37,7.36,4.1l.91,1c-3.62,4.76-9.07,4.77-14.24,5.5l-1.93-1.55,1-.7c-.1-.12-.18-.32-.3-.34-4.59-1-9.19-2.06-13.79-3.09l1-1.29.71-.8Z"/><path class="cls-18" d="M163.22,152.45c-4.18-6.06-9.86-11.7-6.37-19.4C158.93,139.39,161.07,145.92,163.22,152.45Z"/><path class="cls-23" d="M155.79,194.46l-13.36-.6.07-1.37h13.38Z"/><path class="cls-12" d="M137,160.07q2.06,6.45,4.09,12.9L137,171.85Z"/><path class="cls-4" d="M137,177c4.6,1,9.2,2.05,13.79,3.09.12,0,.2.22.3.34l-1,.7L135.88,180l-2.08-1.77.33-.4Z"/><path class="cls-23" d="M135.88,180l14.18,1.15,1.93,1.55Z"/><path class="cls-4" d="M133.8,178.24l-3.18-3.94,1.5-.92,2,4.46Z"/><path class="cls-12" d="M131,164.91l1.46.26c.31,1,.63,2.08.94,3.13l-2,.42Z"/><path class="cls-3" d="M165.32,176.2l1.93-2.74-1,3.75Z"/><path class="cls-4" d="M138.71,174.94l-.71.8Z"/><path class="cls-12" d="M159,170.92l.41.51-.5-.41Z"/><path class="cls-3" d="M168.1,92c-2.42,1.54-4.23,1.08-6.41-1-7.15-6.66-16.88-6.66-23.77-.37s-7.43,15.84-1.95,23.86c1.1,1.61.71,4.26,1,6.43a20.41,20.41,0,0,1-8.64-22.34c.34-1.27.75-2.52,1.13-3.79,3.94-8.4,10.58-13.14,19.81-13.31C157.33,81.41,164.05,84.54,168.1,92Z"/><path class="cls-3" d="M169.53,99,167,101c-5.84,1.93-6.5,7.17-7.9,12a11.91,11.91,0,0,1-3.22,4.86c-2.54-10.71,2.09-18.63,13.31-24.27,3.68-.25,7.37-.58,11.05-.68.47,0,1,1.17,1.46,1.8a24.09,24.09,0,0,1-4.21,2.31C174.89,97.9,172.19,98.37,169.53,99Z"/><path class="cls-16" d="M114,99.9l-1.26.78c-4.82,2.69-6.3,7.33-7.48,12.29a11.39,11.39,0,0,1-3.29,4.93c-2.44-11.14,2.14-18.59,14.38-24.74L128,93c.11,3.36-1.32,4.28-4.8,4.3C120.13,97.31,117.05,99,114,99.9Z"/><path class="cls-6" d="M158,125l2.09-1Z"/><path class="cls-27" d="M205,68c.59-1.32.82-3.14,1.84-3.86,2.53-1.79,5.41-3.07,9.78-5.44-.47,3.23-.13,5.7-1.19,7.18-2.66,3.71-6.48,4-10.51,2Z"/><path class="cls-5" d="M139,29c0-.85,0-1.7,0-2.55l2,.76Z"/><path class="cls-5" d="M167.23,274.89l-1,.67a5.78,5.78,0,0,1-.6-1.19c0-.12.56-.56.61-.52A8.52,8.52,0,0,1,167.23,274.89Z"/><path class="cls-5" d="M199.49,34.53c-.21.53-.42,1.07-.62,1.61C199.08,35.61,199.29,35.07,199.49,34.53Z"/><path class="cls-14" d="M80,156.14A1.44,1.44,0,0,1,81,156c-.15.56-.29,1.12-.44,1.69Z"/><path class="cls-3" d="M77.91,159.16l0-1.15Z"/><path class="cls-24" d="M75.84,154.23v.08L77,154Z"/><path class="cls-5" d="M127.06,267c1.26,6-1.35,11.46-6,12.53-3.36-3.22-1.73-6.74.17-9.55C122.26,268.4,125,268,127.06,267Z"/><path class="cls-5" d="M77.14,150l.87-2.9,1.92,2Z"/><path class="cls-5" d="M221,165.07h1.24l1.54,2.72-2.5.24-.21-3Z"/><path class="cls-24" d="M75.25,154.11h0c.27-.38.53-.76.79-1.15Z"/><path class="cls-12" d="M221.07,165l.21,3-1.27.46-.67-1.44Z"/><path class="cls-22" d="M149.12,161.9c.82,3.18,1.63,6.36,2.69,10.5-5.31-4.8-5.62-10.79-6.82-16.4.6-.88,1.19-1.77,2.33-3.47.65,2,1.09,3.36,1.54,4.72l-1.09,1.82,1.29,2.91Z"/><path class="cls-12" d="M147.77,159.07l1.09-1.82c0,.59,0,1.17,0,1.76Z"/><path class="cls-19" d="M147.77,159.07l1.13-.06c.06,1,.11,2,.16,3Z"/><path class="cls-21" d="M146.81,119.44c1.4-8.57,2.65-16.23,3.81-23.32,2.92,3.86,3.58,17.87.33,21.77C150.25,118.74,148.61,118.81,146.81,119.44Z"/></g></g></svg>