<svg xmlns="http://www.w3.org/2000/svg" viewBox="0 0 300 300"><defs><style>.cls-1{fill:#fefefe;}.cls-2{fill:#202020;}.cls-3{fill:#a8a8a8;}.cls-4{fill:#676767;}.cls-5{fill:gray;}.cls-6{fill:#868686;}.cls-7{fill:#d2d2d2;}.cls-8{fill:#bdbdbd;}.cls-9{fill:#b4b4b4;}.cls-10{fill:#9f9f9f;}.cls-11{fill:#b2b2b2;}.cls-12{fill:#d0d0d0;}.cls-13{fill:#7e7e7e;}.cls-14{fill:#b1b1b1;}.cls-15{fill:#6b6b6b;}.cls-16{fill:#8b8b8b;}.cls-17{fill:#a6a6a6;}.cls-18{fill:#323232;}.cls-19{fill:#2e2e2e;}.cls-20{fill:#a4a4a4;}.cls-21{fill:#949494;}.cls-22{fill:silver;}.cls-23{fill:#afafaf;}.cls-24{fill:#aaa;}.cls-25{fill:#c7c7c7;}.cls-26{fill:#969696;}.cls-27{fill:#797979;}.cls-28{fill:#585858;}.cls-29{fill:#bcbcbc;}.cls-30{fill:#aeaeae;}.cls-31{fill:#e1e1e1;}.cls-32{fill:#898989;}.cls-33{fill:#454545;}.cls-34{fill:#c5c5c5;}.cls-35{fill:#adadad;}.cls-36{fill:#c3c3c3;}.cls-37{fill:#696969;}.cls-38{fill:#333;}.cls-39{fill:#5e5e5e;}.cls-40{fill:#ddd;}.cls-41{fill:#7f7f7f;}.cls-42{fill:#c2c2c2;}.cls-43{fill:#555;}.cls-44{fill:#646464;}.cls-45{fill:#535353;}.cls-46{fill:#707070;}.cls-47{fill:#c8c8c8;}.cls-48{fill:#a9a9a9;}.cls-49{fill:#a0a0a0;}.cls-50{fill:#858585;}.cls-51{fill:#c4c4c4;}.cls-52{fill:#9d9d9d;}.cls-53{fill:#a1a1a1;}.cls-54{fill:#595959;}.cls-55{fill:#767676;}.cls-56{fill:#565656;}.cls-57{fill:#4d4d4d;}.cls-58{fill:#b5b5b5;}.cls-59{fill:#ababab;}.cls-60{fill:#818181;}.cls-61{fill:#848484;}.cls-62{fill:#7c7c7c;}.cls-63{fill:#8d8d8d;}.cls-64{fill:#b9b9b9;}.cls-65{fill:#939393;}.cls-66{fill:#6c6c6c;}.cls-67{fill:#a5a5a5;}.cls-68{fill:#515151;}.cls-69{fill:#fcfcfc;}.cls-70{fill:#fdfdfd;}.cls-71{fill:#fafafa;}.cls-72{fill:#f9f9f9;}.cls-73{fill:#fbfbfb;}.cls-74{fill:#d4d4d4;}.cls-75{fill:#5d5d5d;}.cls-76{fill:#8e8e8e;}.cls-77{fill:#666;}.cls-78{fill:#636363;}.cls-79{fill:#757575;}.cls-80{fill:#727272;}.cls-81{fill:#4a4a4a;}.cls-82{fill:#cacaca;}.cls-83{fill:#4e4e4e;}.cls-84{fill:#e6e6e6;}.cls-85{fill:#393939;}.cls-86{fill:#3a3a3a;}.cls-87{fill:#363636;}.cls-88{fill:#737373;}.cls-89{fill:#626262;}.cls-90{fill:#c6c6c6;}.cls-91{fill:#b0b0b0;}.cls-92{fill:#505050;}.cls-93{fill:#bfbfbf;}.cls-94{fill:#9c9c9c;}.cls-95{fill:#e5e5e5;}.cls-96{fill:#e2e2e2;}.cls-97{fill:#d3d3d3;}.cls-98{fill:#cfcfcf;}.cls-99{fill:#7a7a7a;}.cls-100{fill:#6d6d6d;}.cls-101{fill:#999;}.cls-102{fill:#ededed;}.cls-103{fill:#242424;}.cls-104{fill:#f8f8f8;}.cls-105{fill:#5b5b5b;}.cls-106{fill:#8f8f8f;}.cls-107{fill:#3e3e3e;}.cls-108{fill:#464646;}.cls-109{fill:#d5d5d5;}.cls-110{fill:#c9c9c9;}.cls-111{fill:#ccc;}.cls-112{fill:#191919;}.cls-113{fill:#dbdbdb;}.cls-114{fill:#e3e3e3;}.cls-115{fill:#404040;}.cls-116{fill:#dedede;}.cls-117{fill:#828282;}.cls-118{fill:#4b4b4b;}.cls-119{fill:#686868;}.cls-120{fill:#cecece;}.cls-121{fill:#6f6f6f;}.cls-122{fill:#747474;}.cls-123{fill:#9e9e9e;}.cls-124{fill:#a3a3a3;}.cls-125{fill:#bbb;}.cls-126{fill:#979797;}.cls-127{fill:#959595;}.cls-128{fill:#101010;}.cls-129{fill:#b7b7b7;}.cls-130{fill:#b3b3b3;}.cls-131{fill:#f0f0f0;}.cls-132{fill:#f2f2f2;}.cls-133{fill:#717171;}.cls-134{fill:#656565;}.cls-135{fill:#7b7b7b;}.cls-136{fill:#606060;}.cls-137{fill:#414141;}.cls-138{fill:#282828;}.cls-139{fill:#575757;}.cls-140{fill:#121212;}.cls-141{fill:#0f0f0f;}.cls-142{fill:#838383;}.cls-143{fill:#2a2a2a;}.cls-144{fill:#474747;}.cls-145{fill:#eaeaea;}.cls-146{fill:#888;}.cls-147{fill:#bebebe;}.cls-148{fill:#1a1a1a;}.cls-149{fill:#494949;}.cls-150{fill:#424242;}.cls-151{fill:#5f5f5f;}.cls-152{fill:#909090;}.cls-153{fill:#878787;}.cls-154{fill:#262626;}.cls-155{fill:#d1d1d1;}.cls-156{fill:#dcdcdc;}.cls-157{fill:#0e0e0e;}.cls-158{fill:#0a0a0a;}.cls-159{fill:#5c5c5c;}.cls-160{fill:#e9e9e9;}.cls-161{fill:#dadada;}.cls-162{fill:#d8d8d8;}</style></defs><g id="Layer_2" data-name="Layer 2"><g id="Layer_1-2" data-name="Layer 1"><path class="cls-1" d="M0,300V0H300V300ZM45.13,48.92l5.61,2.37L54.08,53c.55.65,1.05,1.78,1.68,1.86A55.37,55.37,0,0,0,62,55H64l9,3Q85.42,64.58,97.86,71.2l.26,3.69q-1.61,25.41-3.2,50.83l-6,6.21-3.7,2.28c-2.18.58-4.35,1.63-6.55,1.68-8.65.2-17.31.25-26,0-4.15-.1-5.54,1.7-5.84,5.55-.18,2.27-1.28,4.46-2,6.68L40,144l-4-4c-.22.25-.63.49-.63.73q0,19.33,0,38.68c0,.22.44.44.68.66l.87,1.85L38,180.12l8.93-6.05L49,186H254c.87-2.62,1.75-5.25,2.58-7.77l4.62.71,2.82,1.32,2.25.42a33.36,33.36,0,0,0,.74-4.9c.07-11,0-22,0-33a35.66,35.66,0,0,0-.61-4.39l-10,8c-.13-1.87-.19-2.69-.24-3.51-.39-6.62-.7-6.92-7.4-7l-9.49,0c0-.32-.09-.65-.15-1a2.17,2.17,0,0,0,0-.95l-1-2.14.13,0c.07-.87.15-1.74.23-2.61l1.52-4.14c.74-.93,1.91-1.75,2.16-2.8.86-3.69,1.4-7.46,2.06-11.19,1-1.11,1.94-2.21,2.9-3.32,3.58,3.15,7.18,3.91,10.83.11l-2.86-4L247,98.16q-4.47-7.72-8.93-15.47c-.65-1.58-1.3-3.17-2-4.75q-3.09-11-6.19-22a83,83,0,0,0-2.67-9c-2-4.76-3.29-10.19-9-12.23L213.94,30,199.08,25l-30.86-.22L158,24.07l-16.87-1.23L130.09,22l-22-2L101,20,84.12,21l-9,1.65L74,16.88Q72.1,10.63,70.15,4.35l-2.35.53q.63,4.5,1.24,9l-2,2.22L66,16c-3.71-.33-7.43-.59-11.13-1-2.35-.26-4.67-.76-7-1.15-.32-2.69-.65-5.39-1-8.08l-1,.22-3.92,7.8c-.37,2.66-.75,5.31-1.13,8l-1.67,5.12L38.73,29q.9,6,1.78,12L42,43.06l.9,1.9,1.18,1.9Zm54.93,156.14c-1.43-6-8.38-11.57-15-12.05-10.82-5-21.45-4.69-31.89,1.12C44.9,199.29,38.59,205.88,37,216c-3.76,4.42-2.74,9.45-2,14.52,2.08,13.8,13.76,25.86,26.88,27.63l9.92,2.8,1.17.29C74.92,266.86,76,273,78.9,278.07c8.92,15.28,24.34,20.3,43.19,15,9-3.16,15.07-9.68,20-17.48q1.51-4.56,3-9.11c1.19-2.68,1.2-6.61,5.9-5.5q2,5.59,4,11.21l2.07,4.95c11.25,17.4,30.84,23.11,49,13.73,3.72-1.92,6.44-5.78,9.61-8.74a1.26,1.26,0,0,0,.36-.82c1.21-.67,3.17-1.09,3.52-2.07,2-5.6,3.66-11.32,5.43-17l10.17-3.06,13-6q6-6.54,12-13.06c0-.33,0-.67,0-1a28.37,28.37,0,0,0,2.25-4.9c1.87-7.5.91-14.79-1.95-21.9A36.34,36.34,0,0,0,244,194c-7.39-4.07-15-4.34-23-3.81l-3.64.73-1.1,1.27c-7.41,2-14.33,4.62-17.22,12.73-5.58,2.62-5.72,8.13-6.93,13.07-2.16,2.21-1.39,6.91-6,7.06a39.12,39.12,0,0,0-8.83-22c-5.3-7.12-12.9-10.21-21.19-12.08l-3-1-19.22,3c-8.94,4-16,9.71-17.76,20.07-3.65,2.66-3.69,6.08-2.09,9.86L113,224c-6.33,1.58-4.87-4.39-6.82-7.05L101.28,208Z"/><path class="cls-2" d="M40,144l4.87,4.12,2.81,4.13,1.32-.36v-14l202,0c.66,0,1.32-.1,2-.16.62,4.72,1.24,9.43,1.94,14.73,3.32-3,6.28-5.79,10-9.26,0,12.52,0,23.89,0,35.25,0,.57-.58,1.14-.89,1.71l-2.82-1.32-7.2-8.13V186H49l-2-11.91L38,180.12c-.11-10.7-.3-21.4-.21-32.1C37.81,146.68,39.24,145.35,40,144Zm98.25-1.76c2.1,6.48-3.7,35.14-7.79,38.51h8.17c-.84-1.64-2.64-3.48-2.41-5,1.33-8.56,3.16-17,5.09-27l9,21.86c3.54-7.56,6.61-14.13,10.31-22,2,9.85,3.92,18.22,5.37,26.67.3,1.76-1,3.8-1.51,5.59h10.93c-1.09-1.67-2.61-3.13-3.05-4.86-2.3-9.21-4.45-18.45-6.34-27.75-.38-1.85.6-4,1-6-6.78-.83-6.77-.82-9.59,6.06-1.68,4.07-3.39,8.12-5.55,13.3-2-5.61-3.91-9.87-5-14.34C145.71,142.1,142.84,141,138.27,142.26ZM64,180.94c-.77-1.79-2.46-3.78-2.21-5.46,1.25-8.29,3-16.51,4.61-24.75l1.17-.1c2.6,6.31,5.19,12.63,8.21,20l9.57-20.41a180,180,0,0,1,6.32,25.84c.26,1.47-1.28,3.25-1.93,4.73h10.75c-1-2.07-2.43-3.94-3-6-2.2-8.71-4.29-17.45-6.07-26.25-.4-2,.62-4.22,1-6.38-6.74-.68-6.72-.67-9.64,6.42-1.65,4-3.37,8-5.46,13-1.88-5.27-3.69-9.4-4.8-13.71-1.31-5.08-3.85-7.3-9.09-5.49,2.3,5.07-3.12,34.26-7.2,38.58ZM211,142.22c4.17,6,8.59,12.3,12.81,18.71.43.64,0,2.31-.62,3.09-4.28,5.61-8.7,11.11-13,16.5h8.65c-3-3.11,1-10.6,7.77-15.2,8.27,10.7,8.82,12.07,6.43,15.17h11.25c-4.33-6.41-8.81-12.92-13.08-19.56a3.77,3.77,0,0,1,.24-3.42c4.08-5.29,8.35-10.42,12.37-15.37h-9.3c3.37,3.39,1.55,7.35-6.67,14.63-.83-5.26-9-7.59-4.55-14.55Zm-30,38.6c7.17,0,13.5-.23,19.8.07,4.94.24,5.4-2.39,5.39-4.89-4,.87-7.62,1.86-11.32,2.43-3.27.51-4.8-1-4.72-4.54.19-8.15-.13-16.31.17-24.46.09-2.41,1.54-4.78,2.32-7h-11.3C186.33,146.58,186.39,176.37,180.92,180.82Zm-55.68-39.93c-5.63,1.57-11.71,1.81-15.88,4.75-8.77,6.19-9.52,23.65-2.4,31.74,4.67,5.3,11.62,6.28,16.69,2.35-8.79.79-11.9-.55-13.83-6.72a35.74,35.74,0,0,1,.78-23.52c2.27-6.09,7.72-7.23,12.86-3.14,1,.82,2,1.7,3,2.55l.89-.65Z"/><path class="cls-3" d="M49,137.93v14l-1.32.36-2.81-4.13c.69-2.22,1.79-4.41,2-6.68.3-3.85,1.69-5.65,5.84-5.55,8.65.23,17.31.18,26,0,2.2,0,4.37-1.1,6.55-1.68,1.61.56,3.2,1.51,4.84,1.61,4,.25,7.94.1,11.91.11,4,.67,3.82-3,5.27-5,.53,4,2.77,5.27,6.8,5.1,7.31-.31,14.65,0,22,0l11.11-.13,19.85-.74c3.37.67,7.21,2.55,8.13-3.14,3.65,2.29,7.14,5,11.91,3.88l11.11.06,6-1.85,7,1.92,17.94-2.91,1,1.84,9.22,1,9.49,0c6.7,0,7,.33,7.4,7,.05.82.11,1.64.24,3.51l10-8a35.66,35.66,0,0,1,.61,4.39c0,11,.06,22,0,33a33.36,33.36,0,0,1-.74,4.9l-2.25-.42c.31-.57.89-1.14.89-1.71.06-11.36,0-22.73,0-35.25-3.76,3.47-6.72,6.21-10,9.26-.7-5.3-1.32-10-1.94-14.73a42.28,42.28,0,0,0-5.86-.8q-95.89-.06-191.79,0A43.1,43.1,0,0,0,49,137.93Z"/><path class="cls-4" d="M97.86,71.2Q85.41,64.59,73,58l3-4,5.11,3.89c.77-3.11,1.35-5.43,1.93-7.76l2-15.18,3,.1c-.43,5.95-.85,11.9-1.32,18.49C90.79,48,91.21,39.16,88.1,35c.64-2,1.29-4,1.93-6l4.8-.05,1.07,2,2,3.9,0,3.11-3.85-.06L92.76,37,92,51.6l1.39.08.65-1.74V62.4l2.81-3.55q.57,6,1.13,12.06Zm-5.77-40c-.06-.14-.08-.34-.19-.4s-.26.08-.4.13c.06.14.09.34.19.4S92,31.24,92.09,31.19Z"/><path class="cls-5" d="M168.22,24.82l30.86.22,3,2.81-8,4.07-5.94-2.59-.69,1.58,3.58,2.15c-1.32-.08-2.64-.22-4-.22-6.19,0-7.11,1.39-5,7.22a33.59,33.59,0,0,1,1,4.85l-6.92-6.06-2.4-5.19-1,.39q-.31,5.94-.65,11.86l-2.94-2a78.07,78.07,0,0,0-2.82-8.31c-.25-.56-2.23-.35-3.41-.49l-.88-1c.76-1.36,1.42-2.78,2.3-4.06C165.54,28.24,166.92,26.55,168.22,24.82Z"/><path class="cls-6" d="M108,20l22,2,2,6.8a31.39,31.39,0,0,0-1.1,5.59c-.1,4.89.08,9.78.15,14.67-.08-1.65.24-3.48-.35-4.93-.9-2.2-.75-5.71-4.75-5.2L121,32c-1.54-2-3.08-4-5.27-6.93L115,31.88c-.23-.4-.38-.94-.73-1.15s-.79.1-1.2.17l-1.8,17-1,1.15c-.44-1.68-.87-3.36-1.31-5,.33-6.14.66-12.28,1-19.35L104,28.9V22.12Zm14.35,9.63.4-.23a4.22,4.22,0,0,0-.58-.54s-.23.13-.35.2Z"/><path class="cls-7" d="M122.09,293.06c-18.85,5.31-34.27.29-43.19-15-3-5.05-4-11.21-5.89-16.87q1.5-4.06,3-8.12v14.4h1.67l.32-4.25,2,6.91c1.77,4.64,3.06,9.66,8.94,10.92,8.64,6.69,18.45,9.07,29.21,7.92l-6.71,3,.53,1.39,11.11-3.21Z"/><path class="cls-8" d="M215.71,282.11c-3.18,3-5.9,6.83-9.62,8.75-18.11,9.38-37.7,3.67-49-13.73l3.92,1c.74-.77,1.47-1.55,2.21-2.33a38.08,38.08,0,0,0,22,13.29c.65.66,1.21,1.74,2,1.93,8.85,2.13,16.5-.47,23.44-6A36.52,36.52,0,0,1,215.71,282.11Z"/><path class="cls-9" d="M177.25,203a39.12,39.12,0,0,1,8.83,22l1.08,5c-.84,1.52-1.62,3.08-2.55,4.55-3.89,6.15-7.82,12.26-11.74,18.39a15.9,15.9,0,0,0-3.27-.29c-3.6.46-5.72-.63-5.42-4.64l1.87,0c2.36-.51,5.5-.23,6.94-1.66,6.21-6.17,12-19.48,7.12-28.26-1.62-5.65-2.54-11.83-10-13l-.18-.9Z"/><path class="cls-10" d="M53.13,194.13C63.57,188.32,74.2,188,85,193l8,6.06c-.11,1.66-.57,3.4-.24,5s1.46,2.87,2.23,4.29c-7.24-8.94-16.54-12.81-28-11.41-2.36-.19-4.79-.81-7-.43s-4.55,1.75-6.82,2.69L51.94,199Z"/><path class="cls-9" d="M221,190.15c8-.53,15.61-.26,23,3.81a36.34,36.34,0,0,1,16.45,18.3l-5.8-4.16c-.21,1.28-.36,2.22-.51,3.15-7.75-10.38-17.14-17.19-31-14.21l-5-6Z"/><path class="cls-11" d="M61.92,258.11C48.8,256.34,37.12,244.28,35,230.48c-.77-5.07-1.79-10.1,2-14.52-.32,2.14-.63,4.29-1,6.5.82,0,1.08.06,1.12,0,.6-1.13,1.18-2.28,1.76-3.43A33.63,33.63,0,0,0,45,241.11L54.36,249l.66,1,11.16,6.42Z"/><path class="cls-12" d="M254.1,211.25c.15-.93.3-1.87.51-3.15l5.8,4.16c2.86,7.11,3.82,14.4,1.95,21.9a28.37,28.37,0,0,1-2.25,4.9,4.76,4.76,0,0,0,0,1q-6,6.52-12,13.06l-4-2c12.95-9.33,16.25-17.87,12-31Q255.11,215.64,254.1,211.25Z"/><path class="cls-8" d="M235.18,259.16,225,262.22l-6.83-1c-1.11-.9-2.16-1.88-3.33-2.68-4.24-2.89-8.53-5.72-12.8-8.58l-2.73-5.2,1.12-1a27.08,27.08,0,0,0,4.28,2.54,21.49,21.49,0,0,0,4.58.77l2.91,2.14c3.48,4.32,8.15,5.33,13.37,4.84l5.31-1.05a11.31,11.31,0,0,1-1.09,4.21Z"/><path class="cls-13" d="M213.94,30l4.3,4.77c0,1.06-.07,2.11-.11,3.16l4,11,0,0-10,2.57L220.05,60l3,5-1.93,2-4.62-.55c-1.12-3-1.79-5.22-2.73-7.29-1.12-2.44-2.47-4.77-3.73-7.15a36.65,36.65,0,0,1-.34-3.9c0-1.71.24-3.41.37-5.11l4.7-.75c.19-1.85,1.21-4.42.45-6.25-1-2.29-3.37-4-5.15-5.94Z"/><path class="cls-14" d="M114,222.87c-1.6-3.78-1.56-7.2,2.09-9.86,1-.65,2.44-1.07,3-2,3.85-6.62,8.59-12.2,16-15l3.06.07-4,2.92-4.86,5.28-11,19.69Z"/><path class="cls-15" d="M76,53.91l-3,4-9-3-1-2.16c1-1.31,2-2.63,3-3.94,3.76-.23,5.59-2.16,5.26-6l2.8-3,5,0Q77.52,46.92,76,53.91Z"/><path class="cls-16" d="M141.15,22.84,158,24.07,157.09,33c0,1,0,2,0,2.94l-1-1-1.78-2-1.19,4L152,38c-2.79-.18-1.64-6-5.9-4.1l-1-2c-.65-1.76-1.24-3.54-2-5.26C142.53,25.33,141.8,24.1,141.15,22.84Z"/><path class="cls-17" d="M240,125.16l-1.52,4.14-2.56-1.46c.42-2.6.82-5.2,1.28-7.79,1.22-6.85-.3-12.9-5.22-18,.37-1,.75-2.09,1.12-3.14,3.11,1.4,4.74.34,5-3l2.1-2,2,3.9c-.35,2.73-.71,5.46-1.06,8.19-.29,3.34-.63,6.69-.84,10C240.15,119.09,240.1,122.12,240,125.16Z"/><path class="cls-18" d="M114,222.87l4.19,1.07,5.54,3.31-8,1.26,8.24,10.72-.07,1.78-3.83-.92-3,.91c-1-1.53-2.47-2.93-3-4.61-1-3.16-2.7-4.68-6-4.36-.17-3.8.4-7.13,4.91-8.07Z"/><path class="cls-19" d="M218.18,261.21l6.83,1c-1.77,5.69-3.41,11.41-5.43,17-.35,1-2.31,1.4-3.52,2.07.31-1.76.61-3.52.95-5.43L210.2,279C215.08,274.05,217.16,267.87,218.18,261.21Z"/><path class="cls-20" d="M177.25,203,170,204.09l-13.89-6.15,0-7C164.35,192.8,172,195.89,177.25,203Z"/><path class="cls-21" d="M74,16.88c.36,1.92.73,3.84,1.09,5.77L75,26.91h-1L71.87,26c-2.78,2.07-1.8,4,.17,5.94l0,0L70.59,34l-3.35-4-5.38,3.13-2-2.21c.4-2.62.79-5.25,1.19-7.87l5-1.16L72,24.51c-.89-3.41-1.34-5.12-1.78-6.84Z"/><path class="cls-22" d="M94.92,125.72q1.59-25.43,3.2-50.83a18.24,18.24,0,0,1,1,3.8c.37,8.09.63,16.18.93,24.27q-.52,6.42-1.07,12.84c-.3,2.11-.3,4.34-1,6.31C97.45,123.5,96,124.53,94.92,125.72Z"/><path class="cls-23" d="M240.2,93.94l-2.1,2q-4.51-13.5-9-27l-1-5h1c1.24,3.59,2.31,7.25,3.81,10.73.57,1.31,2.14,2.2,3.25,3.28.66,1.58,1.31,3.17,2,4.75Q239.16,88.32,240.2,93.94Z"/><path class="cls-5" d="M141.15,22.84c.65,1.26,1.38,2.49,1.93,3.8.72,1.72,1.31,3.5,2,5.26L143,33.11a6.24,6.24,0,0,1-.84-.36c-.52-.93-1-1.87-2.3-4.09l-.8,5.27-4-1-.94-1-2-3.08-2-6.8Z"/><path class="cls-24" d="M229.09,63.93h-1l-4-8c-.67-2.33-1.33-4.66-2-7l0,0c3.17-5.3-.18-8.22-4-11,0-1,.07-2.1.11-3.16,5.76,2,7,7.47,9,12.23A85.39,85.39,0,0,1,230,56C229.67,58.62,229.38,61.27,229.09,63.93Z"/><path class="cls-12" d="M38.93,219c-.58,1.15-1.16,2.3-1.76,3.43,0,.07-.3,0-1.12,0,.33-2.21.64-4.36,1-6.5,1.58-10.08,7.89-16.67,16.12-21.83-.4,1.6-.79,3.21-1.19,4.82l-5.71,6.14Q42.58,212.07,38.93,219Z"/><path class="cls-25" d="M210.2,279l6.81-3.11c-.34,1.91-.64,3.67-.95,5.43a1.3,1.3,0,0,1-.35.82,35.47,35.47,0,0,0-5,2.86c-6.94,5.56-14.59,8.16-23.44,6-.77-.19-1.33-1.27-2-1.93,7.17.79,14.25,1,20.64-3.7l-1.42-1.07Z"/><path class="cls-26" d="M75,26.91l.09-4.26,9-1.65L92,22.81,92,23.94l-2,2c-3.23.42-7.06,0-6.87,5.06l-.89,1.25C79.77,30.55,79.37,26.06,75,26.91Z"/><path class="cls-5" d="M47.84,13.81c2.34.39,4.66.89,7,1.15,3.7.43,7.42.69,11.13,1l-3,1.93L51.92,20c-3.76-3.09-5.27-2.77-7.6,1.6l-3.56.11c.38-2.66.76-5.31,1.13-8Z"/><path class="cls-23" d="M101.28,208l4.88,8.92L105,232c-.31-3.33-.63-6.67-.94-10-.46-1.88-.93-3.76-1.39-5.65l-1.46.27L102,226l-1,.2q-1.56-7.35-3.13-14.7Z"/><path class="cls-27" d="M100.05,103c-.3-8.09-.56-16.18-.93-24.27a18.24,18.24,0,0,0-1-3.8c-.09-1.23-.17-2.46-.26-3.69l.15-.29,3.9,2.12,1.2,4.83q-.6,12.11-1.19,24.21Z"/><path class="cls-28" d="M145.13,266.47q-1.5,4.54-3,9.11l-1.56-7c-2,3.12-3.4,5.24-4.78,7.35l-.65.21L134,275l4-14.85C140.9,261.62,145.36,261.36,145.13,266.47Z"/><path class="cls-29" d="M40,144c-.78,1.33-2.21,2.66-2.22,4-.09,10.7.1,21.4.21,32.1l-1.12,1.82L36,180.09q0-20,0-40.07Q38,142,40,144Z"/><path class="cls-30" d="M156.06,190.93q0,3.51,0,7l-12.89-.89L134.05,199l4-2.92c3.87-1.25,7.77-2.4,11.59-3.8A16.31,16.31,0,0,0,153,189.9Z"/><path class="cls-17" d="M218.09,191l5,6-11.88,4-9.13,6,0-2.12c3.61-3,7.25-5.94,10.79-9a38.11,38.11,0,0,0,3.38-3.78l1.1-1.27A2.9,2.9,0,0,1,218.09,191Z"/><path class="cls-31" d="M135,196c-7.38,2.84-12.12,8.42-16,15-.54.92-2,1.34-3,2,1.78-10.36,8.82-16.06,17.76-20.07C134.21,194,134.61,195,135,196Z"/><path class="cls-32" d="M157.1,33q.45-4.45.92-8.91l10.2.75c-1.3,1.73-2.68,3.42-3.89,5.21-.88,1.28-1.54,2.7-2.3,4.06q0,4.39.08,8.81Z"/><path class="cls-33" d="M187.16,230l-1.08-5c4.6-.15,3.83-4.85,6-7.06,2,1.57,4.05,3.26,5.86-.24,0,1.78,0,3.56,0,5.35.39,1.35.79,2.69,1.19,4l-5.92,1-5.25,2C187.7,230.1,187.43,230.05,187.16,230Z"/><path class="cls-34" d="M135.77,276c1.38-2.11,2.75-4.23,4.78-7.35l1.56,7c-5,7.8-11,14.32-20,17.48.32-1,.65-1.95,1-2.92,4.38-3.62,8.82-7.16,13.07-10.92C136.9,278.55,139.28,276.63,135.77,276Z"/><path class="cls-35" d="M197.93,217.7c-1.81,3.51-3.84,1.82-5.86.25,1.21-4.94,1.35-10.45,6.93-13.07l3.05.07,0,2.12Q200,212.38,197.93,217.7Z"/><path class="cls-36" d="M235.18,259.16l-5.38-2a11.56,11.56,0,0,0,1.1-4.21l7.17-1.84c-.17.81-.33,1.63-.64,3.18l6.69-3.21,4,2Z"/><path class="cls-37" d="M61.92,258.11l4.26-1.72L55,250l17.89,3.31-1.07,7.63Z"/><path class="cls-38" d="M145.13,266.47c.23-5.11-4.23-4.85-7.2-6.31L137,259l2-.1c3.29-.07,5.86-1,6.08-4.89l3.86,0c4.78,1.12,2.87,4.23,2.09,7C146.33,259.86,146.32,263.79,145.13,266.47Z"/><path class="cls-10" d="M229.09,63.93c.29-2.66.58-5.31.88-8l6.18,22c-1.11-1.08-2.68-2-3.25-3.28C231.4,71.18,230.33,67.52,229.09,63.93Z"/><path class="cls-39" d="M240.2,93.94q-1-5.62-2.09-11.25,4.47,7.74,8.93,15.47c-.32,1.24-.63,2.48-.95,3.72l-3.85-4Z"/><path class="cls-40" d="M202.05,205l-3.05-.07c2.89-8.11,9.81-10.75,17.22-12.73a38.11,38.11,0,0,1-3.38,3.78C209.3,199,205.66,202,202.05,205Z"/><path class="cls-41" d="M246.09,101.88c.32-1.24.63-2.48.95-3.72l8.05,5.81H250.2c1.77,3.16,4.09,4.88,7.75,4-3.65,3.8-7.25,3-10.83-.11Q246.61,104.87,246.09,101.88Z"/><path class="cls-42" d="M135,196c-.39-1-.79-2-1.19-3l19.22-3a16.31,16.31,0,0,1-3.38,2.35c-3.82,1.4-7.72,2.55-11.59,3.8Z"/><path class="cls-43" d="M102,135.93c-4,0-7.95.14-11.91-.11-1.64-.1-3.23-1-4.84-1.61l3.7-2.28,4.63-.93c1.21.73,2.68,2.31,3.56,2C100.13,132.07,101.36,133.25,102,135.93Z"/><path class="cls-44" d="M93.54,131l-4.63.93,6-6.21c1-1.19,2.53-2.22,3-3.61.72-2,.72-4.2,1-6.31.69,2.06,1.38,4.11,2.08,6.17C102.4,128.19,96.28,128.18,93.54,131Z"/><path class="cls-45" d="M74,16.88l-3.85.79L69,13.87q-.62-4.48-1.24-9l2.35-.53Q72.1,10.62,74,16.88Z"/><path class="cls-46" d="M240,125.16c.1-3,.15-6.07.34-9.09.21-3.35.55-6.7.84-10,1,1.71,2,3.42,3,5.14-.66,3.73-1.2,7.5-2.06,11.19C241.91,123.41,240.74,124.23,240,125.16Z"/><path class="cls-47" d="M161.06,278.12l-3.92-1-2.07-4.95q-.49-9.66-1-19.33a3.55,3.55,0,0,1,0-.86q.52,5,1.06,10.07Z"/><path class="cls-48" d="M101.28,208l-3.42,3.46L95,208.33c-.77-1.42-1.91-2.77-2.23-4.29s.13-3.31.24-5l7.09,6Z"/><path class="cls-49" d="M92,23.94,92,22.81,101,20,108,20c-1.41.75-2.81,1.5-4,2.12V28.9h-1c-.64-2,0-5.35-4-4Z"/><path class="cls-50" d="M100.06,205.06l-7.09-6L85,193C91.68,193.49,98.63,199.06,100.06,205.06Z"/><path class="cls-51" d="M71.84,260.91q.52-3.81,1.07-7.63a32.08,32.08,0,0,1,2.44-4.74c3.16-4.24,6.48-8.35,9.74-12.51q-4.55,8.52-9.07,17.05-1.51,4-3,8.12Z"/><path class="cls-52" d="M63,17.91,66,16l1.08.1c-.35,1.94-.69,3.87-1,5.81l-5,1.16L56.14,28h-2l.78-1.11Z"/><path class="cls-53" d="M38.73,29l.36-2.11L47,28.92c0,1.61.05,3.23.07,4.84,0,.36-.07.71-.1,1.06a5.62,5.62,0,0,1-.79.18l-1.15-.11-1.17-.22Z"/><path class="cls-54" d="M36,140q0,20,0,40.07c-.24-.22-.68-.44-.68-.66q0-19.35,0-38.68C35.35,140.51,35.76,140.27,36,140Z"/><path class="cls-16" d="M244.22,111.17c-1-1.72-2-3.43-3-5.14.35-2.73.71-5.46,1.06-8.19l3.85,4q.53,3,1,6C246.16,109,245.19,110.06,244.22,111.17Z"/><path class="cls-55" d="M154.07,252.85q.5,9.66,1,19.33-2-5.61-4-11.21c.78-2.78,2.69-5.89-2.09-7Z"/><path class="cls-47" d="M38.73,29l5.17,5.72L40.51,41Q39.63,35,38.73,29Z"/><path class="cls-56" d="M47,28.92l-7.95-2.08,1.67-5.12,3.56-.11C45.22,24.05,46.13,26.48,47,28.92Z"/><path class="cls-57" d="M47.84,13.81l-6-.06L45.81,6l1-.22C47.19,8.42,47.52,11.12,47.84,13.81Z"/><path class="cls-58" d="M254,186V170.79l7.2,8.13-4.62-.71C255.78,180.73,254.9,183.36,254,186Z"/><path class="cls-59" d="M66,21.89c.34-1.94.68-3.87,1-5.81l2-2.21,1.14,3.8c.44,1.72.89,3.43,1.78,6.84Z"/><path class="cls-20" d="M213.94,30h-3.85l-8-2.12-3-2.81Z"/><path class="cls-60" d="M105,232l1.14-15.12c2,2.66.49,8.63,6.82,7.05-4.51.94-5.08,4.27-4.91,8.07l-1.9,2.27Z"/><path class="cls-61" d="M101,20l-9,2.84L84.12,21Z"/><path class="cls-62" d="M258,108c-3.66.89-6-.83-7.75-4h4.89Z"/><path class="cls-63" d="M63,52.82,64,55H62l-7-2.11c.31-1.38.61-2.77.91-4.15l1.38,3.14Z"/><path class="cls-64" d="M55.88,48.73c-.3,1.38-.6,2.77-.91,4.15l-.89.08-3.34-1.67.36-.52L53,48.91l.89-3a4.43,4.43,0,0,0-.06-1l1.05-.1Z"/><path class="cls-65" d="M239.31,135.94l-9.22-1c0-.58,0-1.16,0-1.74l-.12-.43c2.87,2.16,1.61-1,2.18-1.72l.93,0h0c.32.68.65,1.35,1,2l5.09,2C239.22,135.29,239.27,135.62,239.31,135.94Z"/><path class="cls-60" d="M54.08,53l.89-.08L62,55a55.37,55.37,0,0,1-6.19-.17C55.13,54.74,54.63,53.61,54.08,53Z"/><path class="cls-60" d="M235.92,127.84l2.56,1.46c-.08.87-.16,1.74-.23,2.61l-1.1.06c-.06-.62-.13-1.25-.19-1.88l-1.93-.25-1,1.1-1,0h0l.1-2.74Z"/><path class="cls-66" d="M40.51,41l3.39-6.3,1.17.22c-.07.35-.13.71-.2,1.07l-1.81,2.12c0,.27-.08.53-.13.8L42,43.06Z"/><path class="cls-67" d="M237.15,132l1.1-.06-.13,0c.34.72.68,1.43,1,2.14a2.17,2.17,0,0,1,0,.95l-5.09-2,.07-.06Z"/><path class="cls-16" d="M44.07,46.86,42.9,45l.1,0,3-.11,1.21.19.84.89L47.84,47Z"/><path class="cls-64" d="M44.07,46.86l3.77.15c.08.59.15,1.18.23,1.77l-2.94.14Z"/><path class="cls-64" d="M45.13,48.92l2.94-.14,3,2-.36.52Z"/><path class="cls-65" d="M42,43.06c.31-1.4.63-2.79.94-4.18l.32.1q-.14,3-.25,6l-.1,0C42.59,44.33,42.29,43.69,42,43.06Z"/><path class="cls-68" d="M218.09,191a2.9,2.9,0,0,0-.77-.14l3.64-.73Z"/><path class="cls-60" d="M239.13,134c-.33-.71-.67-1.42-1-2.14C238.46,132.6,238.8,133.31,239.13,134Z"/><path class="cls-56" d="M260.15,240.06a4.76,4.76,0,0,1,0-1Z"/><path class="cls-69" d="M138.27,142.26c4.57-1.28,7.44-.16,8.64,5,1,4.47,3,8.73,5,14.34,2.16-5.18,3.87-9.23,5.55-13.3,2.82-6.88,2.81-6.89,9.59-6.06-.36,2.06-1.34,4.18-1,6,1.89,9.3,4,18.54,6.34,27.75.44,1.73,2,3.19,3.05,4.86H164.5c.52-1.79,1.81-3.83,1.51-5.59-1.45-8.45-3.34-16.82-5.37-26.67-3.7,7.89-6.77,14.46-10.31,22l-9-21.86c-1.93,10-3.76,18.45-5.09,27-.23,1.52,1.57,3.36,2.41,5h-8.17C134.57,177.4,140.37,148.74,138.27,142.26Z"/><path class="cls-70" d="M64,180.94H56.29c4.08-4.32,9.5-33.51,7.2-38.58,5.24-1.81,7.78.41,9.09,5.49,1.11,4.31,2.92,8.44,4.8,13.71,2.09-5,3.81-9,5.46-13,2.92-7.09,2.9-7.1,9.64-6.42-.36,2.16-1.38,4.41-1,6.38,1.78,8.8,3.87,17.54,6.07,26.25.53,2.09,1.92,4,3,6H89.78c.65-1.48,2.19-3.26,1.93-4.73a180,180,0,0,0-6.32-25.84l-9.57,20.41c-3-7.37-5.61-13.69-8.21-20l-1.17.1c-1.59,8.24-3.36,16.46-4.61,24.75C61.58,177.16,63.27,179.15,64,180.94Z"/><path class="cls-71" d="M211,142.22H223.3c-4.49,7,3.72,9.29,4.55,14.55,8.22-7.28,10-11.24,6.67-14.63h9.3c-4,5-8.29,10.08-12.37,15.37a3.77,3.77,0,0,0-.24,3.42c4.27,6.64,8.75,13.15,13.08,19.56H233c2.39-3.1,1.84-4.47-6.43-15.17-6.72,4.6-10.76,12.09-7.77,15.2h-8.65c4.26-5.39,8.68-10.89,13-16.5.6-.78,1-2.45.62-3.09C219.55,154.52,215.13,148.25,211,142.22Z"/><path class="cls-72" d="M180.92,180.82c5.47-4.45,5.41-34.24.34-38.43h11.3c-.78,2.26-2.23,4.63-2.32,7-.3,8.15,0,16.31-.17,24.46-.08,3.56,1.45,5.05,4.72,4.54,3.7-.57,7.34-1.56,11.32-2.43,0,2.5-.45,5.13-5.39,4.89C194.42,180.59,188.09,180.82,180.92,180.82Z"/><path class="cls-73" d="M125.24,140.89l2.14,7.36-.89.65c-1-.85-2-1.73-3-2.55-5.14-4.09-10.59-2.95-12.86,3.14a35.74,35.74,0,0,0-.78,23.52c1.93,6.17,5,7.51,13.83,6.72-5.07,3.93-12,3-16.69-2.35-7.12-8.09-6.37-25.55,2.4-31.74C113.53,142.7,119.61,142.46,125.24,140.89Z"/><path class="cls-74" d="M49,137.93a43.1,43.1,0,0,1,6.33-.91q95.9-.08,191.79,0a42.28,42.28,0,0,1,5.86.8c-.67.06-1.33.16-2,.16Z"/><path class="cls-1" d="M136,136c-7.33,0-14.67-.28-22,0-4,.17-6.27-1.08-6.8-5.1-.09-1-.18-2-.26-3l4.17-13.86,2.08-6.14c.69-2.61,1.38-5.23,2.06-7.84Q118.37,89,121.45,78L127,77c1.71,1.94,3.43,3.87,5.14,5.8l6.7-5.79c3.42,5.7,3.5,5.72,9,2.7l4.32.37,3-3.61a2.55,2.55,0,0,0,.84-.42,1.43,1.43,0,0,0,.84.16c2,1,2.41,5.63,6.09,2.56l7.14.15,5.88-1.8c2.87,3.2,5,1.25,7.08-1L185.11,78l.08,1c0,1.8,0,3.62-.16,5.41a42.51,42.51,0,0,1-1,4.52l-4,1.93c-2.32.31-4.63,3.48-7-.1-3.66-5.57-3.7-5.55-8-.82L160,87.81a30.26,30.26,0,0,1,.84,5.37c0,.85-1.11,1.69-1.71,2.54l-4-.76-.21-5.83-8.67-2.62-1.48,5.38L146,94c-1.84,3.08-3.78,6.12-5.49,9.28a33.22,33.22,0,0,0-1.74,4.88l5,1c1.83,3.3,2.5,6.18-2.56,6.94-3.66,1.08-4.56,3.2-2.77,6.64,1,2,1.71,4.16,2.55,6.25Z"/><path class="cls-1" d="M235.92,127.84l-2.72.4-1-.12c-3.89,0-2.53,2.57-2.21,4.62l.12.43-1-.1L211.16,136l1.71-7,3.3-15.93c1.48-3.7,3.11-7.35,4.29-11.14.21-.67-1.48-1.92-2.3-2.9l-4-11.14,1.89-.93,6,6.11L232,102.1c4.92,5.05,6.44,11.1,5.22,18C236.74,122.64,236.34,125.24,235.92,127.84Z"/><path class="cls-75" d="M167,135.11l-19.85.74c1.28-3.34-1.08-5.1-3-7,3.56.3,3.67-1.18,1.9-3.65-.8-2.82.21-4.27,3.09-3.32,2.12.69,4,2.07,6,3.14l6.17,0,1,1.06C160.56,130.73,163.66,133,167,135.11Z"/><path class="cls-76" d="M107,128c.08,1,.17,2,.26,3-1.45,2-1.28,5.69-5.27,5-.6-2.68-1.83-3.86-4.86-2.9-.88.28-2.35-1.3-3.56-2,2.74-2.82,8.86-2.81,7.53-9q.42-9.94.85-19.9.6-12.1,1.19-24.21l1.81,1.24L104.11,90l-.84,15.89c-.38,5-.83,10-1,15.09,0,.61,1.13,1.28,1.74,1.93Q105.46,125.42,107,128Z"/><path class="cls-69" d="M167,135.11c-3.31-2.14-6.41-4.38-4.68-9.11l1.87-.1L174,129,175.1,132C174.18,137.66,170.34,135.78,167,135.11Z"/><path class="cls-77" d="M175.1,132,174,129l2.11,0,7,3,.94-4.13,3.07-.92c0,3-.05,5.93-.08,8.89C182.24,137,178.75,134.26,175.1,132Z"/><path class="cls-78" d="M204.11,134.06l-6,1.85-6-6.91,8,1.05C202.22,130.61,206.75,128.76,204.11,134.06Z"/><path class="cls-62" d="M192.1,129l6,6.91L187,135.85c0-3,.05-5.94.08-8.9H191Z"/><path class="cls-79" d="M204.11,134.06c2.64-5.3-1.89-3.45-4-4l-1-1.09,4-.09,4.92-3.05,4.89,3.12-1.71,7Z"/><path class="cls-80" d="M144.08,128.81c2,1.94,4.32,3.7,3,7L136,136l5.06-7Z"/><path class="cls-81" d="M229.1,133.07l1,.1c0,.58,0,1.16,0,1.74Z"/><path class="cls-82" d="M99.06,24.91c4-1.37,3.34,2,4,4,0,1.67,0,3.34,0,5l0,8c.13,10.87.26,21.74.39,32l-1.41-2c-.63-3-1.25-6.05-1.88-9.07a22.32,22.32,0,0,0,.86-4.35c0-6.94-.08-13.9-.44-20.83,0-1-1.75-1.91-2.69-2.86l-2-3.9,1-1.2Z"/><path class="cls-75" d="M76,53.91q1.5-7,3-14c1-1.33,2-2.67,3-4q.5,7.08,1,14.14c-.58,2.33-1.16,4.65-1.93,7.76Z"/><path class="cls-83" d="M94.07,37.87l3.85.06.1,13-1.14,7.93L94.07,62.4V37.87Z"/><path class="cls-84" d="M98,50.92l-.1-13,0-3.11c.94,1,2.64,1.86,2.69,2.86.36,6.93.42,13.89.44,20.83a22.32,22.32,0,0,1-.86,4.35Q99.1,56.89,98,50.92Z"/><path class="cls-10" d="M98,50.92q1.07,6,2.14,11.94c.63,3,1.25,6,1.88,9.07-.05.37-.09.74-.13,1.1L98,70.91q-.57-6-1.13-12.06Z"/><path class="cls-85" d="M83.05,50q-.48-7.07-1-14.14c.06-1.22.11-2.44.17-3.67.3-.41.59-.83.89-1.25l2,3.88Z"/><path class="cls-65" d="M99.06,24.91q-1.07,2.4-2.12,4.81l-2.11-.83-4.8.05,0-3,2-2Z"/><path class="cls-61" d="M90,25.92l0,3c-.64,2-1.29,4-1.93,6h0l-3-.1-2-3.88C82.94,25.93,86.77,26.34,90,25.92Z"/><path class="cls-86" d="M88.1,35c3.11,4.19,2.69,13-1.32,18.48.47-6.59.89-12.54,1.32-18.49Z"/><path class="cls-87" d="M94.07,37.87V49.94c-.22.58-.44,1.16-.65,1.74L92,51.6,92.76,37Z"/><path class="cls-30" d="M94.83,28.89l2.11.83-1,1.2C95.54,30.25,95.19,29.57,94.83,28.89Z"/><path class="cls-17" d="M92.09,31.19c-.13,0-.31.18-.4.13s-.13-.26-.19-.4c.14-.05.32-.18.4-.13S92,31.05,92.09,31.19Z"/><path class="cls-46" d="M202.13,27.85l8,2.12c1.78,2,4.19,3.65,5.15,5.94.76,1.83-.26,4.4-.45,6.25l-4.7.75-4-2-5.47-7.55-.93.45c.12,1,.25,2.06.38,3.1l-2,2-4-7Z"/><path class="cls-42" d="M183.08,44.91a33.59,33.59,0,0,0-1-4.85c-2.12-5.83-1.2-7.24,5-7.22,1.32,0,2.64.14,4,.22.16,1.81.3,3.63.49,5.44.41,3.83-.67,6.85-4.41,8.51l-1.91-.2Z"/><path class="cls-88" d="M187.13,47c3.74-1.66,4.82-4.68,4.41-8.51-.19-1.81-.33-3.63-.49-5.44l-3.58-2.15.69-1.58,5.94,2.59,4,7c.32,1.33.63,2.65.94,4l-8.42,6.16Z"/><path class="cls-89" d="M172.08,45.91q.33-5.92.65-11.86l1-.39,2.4,5.19,1,5a40,40,0,0,1-1.92,5.52c-.14.27-2-.31-3.08-.49Z"/><path class="cls-90" d="M162.11,42.9q0-4.41-.08-8.81l.88,1c1.06,2.27,2.12,4.53,3.17,6.8-.45,3.5,1.23,7.58-3.34,10.92-.25-2.44-.42-4.16-.6-5.87Z"/><path class="cls-27" d="M172.08,45.91c0,1,0,2,.07,3q.85,3.87,1.72,7.74l1.79.21-2.58,2.07c-5.35.32-5.25-3-4.74-6.84.37-2.71.5-5.46.74-8.18l.06,0Z"/><path class="cls-88" d="M177.15,43.89l-1-5,6.92,6.06,2.14,1.9C181.09,49.81,179.27,46.44,177.15,43.89Z"/><path class="cls-15" d="M166.08,41.9c-1.05-2.27-2.11-4.53-3.17-6.8,1.18.14,3.16-.07,3.41.49a78.07,78.07,0,0,1,2.82,8.31l-.06,0Z"/><path class="cls-91" d="M103.09,33.9c0-1.67,0-3.34,0-5h1L110,24.63c-.37,7.07-.7,13.21-1,19.35l-1.87,1.94L108,48c0,1,0,2,0,3-.92-4.52-1.74-9.07-2.82-13.54C104.86,36.16,103.8,35.07,103.09,33.9Z"/><path class="cls-60" d="M126,38.91c4-.51,3.85,3,4.75,5.2.59,1.45.27,3.28.35,4.93.4,2.29-2.11,5.38,1.86,6.68l-4.9,6.18c-.28-2.43-.59-4.87-.84-7.31-.39-3.91-.75-7.81-1.13-11.72Z"/><path class="cls-92" d="M115,31.88l.71-6.81C117.88,28,119.42,30,121,32l.09,9.9L117,44l-1.08-1.07Z"/><path class="cls-81" d="M110.25,49l1-1.15L113,46c.07.26.13.54.18.81,1.77,7.15-1.14,13.55-3.2,20.09l-2.81,0L106.87,63l2.22-7.14Q109.66,52.41,110.25,49Z"/><path class="cls-93" d="M133,55.71c-4-1.29-1.46-4.38-1.86-6.67-.07-4.89-.25-9.78-.15-14.67a31.39,31.39,0,0,1,1.1-5.59l2,3.09c-.46.62-1.34,1.26-1.32,1.86.3,6.71.74,13.42,1.15,20.13C133.61,54.48,133.3,55.1,133,55.71Z"/><path class="cls-75" d="M121.05,41.9,121,32,126,38.91l.09,4-4.06,3C121.72,44.57,121.38,43.23,121.05,41.9Z"/><path class="cls-94" d="M113.15,46.79c-.05-.27-.11-.55-.18-.81q0-7.54.08-15.08c.41-.07.93-.33,1.2-.17s.5.75.73,1.15l.93,11Z"/><path class="cls-54" d="M113.05,30.9Q113,38.45,113,46l-1.72,1.89Z"/><path class="cls-31" d="M110.25,49q-.59,3.39-1.16,6.8L108,51c0-1,0-2,0-3l-.94-2.08L108.94,44C109.38,45.66,109.81,47.34,110.25,49Z"/><path class="cls-14" d="M122.39,29.63l-.53-.57c.12-.07.31-.23.35-.2a4.22,4.22,0,0,1,.58.54Z"/><path class="cls-1" d="M106.17,234.3l1.9-2.27c3.29-.32,5,1.2,6,4.36.5,1.68,2,3.08,3,4.61,3.57,9.41,11.25,14.27,19.94,18l1,1.17L134,275,121.15,287.1l-3,1.87c-10.76,1.15-20.57-1.23-29.21-7.92l-6.84-11q-.42-5.43-.86-10.84l9.67-4.33L99,247.11Q102.6,240.71,106.17,234.3Z"/><path class="cls-95" d="M118.14,289l3-1.87c6.53-1.25,10.68-5.53,14-10.93l.65-.21c3.51.67,1.13,2.59.37,3.26-4.25,3.76-8.69,7.3-13.07,10.92L112,293.35l-.53-1.39Z"/><path class="cls-96" d="M76,253.08q4.53-8.54,9.07-17.05h.73c-.66,1.94-1.24,3.91-2,5.81-1.59,4-3.27,8-4.92,12.06-.3,3.11-.59,6.21-.89,9.32l-.32,4.25H76Z"/><path class="cls-6" d="M78,263.22c.3-3.11.59-6.21.89-9.32.78,1.78,1.55,3.56,2.33,5.33q.43,5.41.86,10.84l-2.1.06Z"/><path class="cls-17" d="M80,270.13l2.1-.06,6.84,11C83.05,279.79,81.76,274.77,80,270.13Z"/><path class="cls-1" d="M187.16,230c.27.05.54.1.81.13q2,3.09,4,6.18c2.09,5.5,4.09,11.06,10.11,13.64,4.27,2.86,8.56,5.69,12.8,8.58,1.17.8,2.22,1.78,3.33,2.68-1,6.66-3.1,12.84-8,17.77l-5.74,5.33,1.42,1.07c-6.39,4.74-13.47,4.49-20.64,3.7a38.12,38.12,0,0,1-22-13.28q-1.59-7.8-3.17-15.59,6.39-3.63,12.77-7.27c3.92-6.13,7.85-12.24,11.74-18.39C185.54,233.08,186.32,231.52,187.16,230Z"/><path class="cls-97" d="M160.1,260.21q1.59,7.8,3.17,15.59l-2.21,2.32-5.95-16.06a38.92,38.92,0,0,0,2.88-5,45.81,45.81,0,0,0,1.52-6Z"/><path class="cls-1" d="M154.07,252.85,148.94,254l-3.86,0,.06.08c-.56-4.84-1.77-9.37-6-12.45-3.69-6.36-8.37-11.67-15.46-14.38l-5.54-3.31,11-19.69,14-7.2,12.89.89L170,204.09l.18.91q3.47,7,6.95,14c0,2.68,0,5.35,0,8l-8.49,3.92c-3,2.32-7.61,3.17-7.57,8.27q-3.5,6.39-7,12.78A3.62,3.62,0,0,0,154.07,252.85Z"/><path class="cls-31" d="M177.09,227c0-2.67,0-5.34,0-8l3-1c4.93,8.78-.91,22.09-7.12,28.26-1.44,1.43-4.58,1.15-6.94,1.66l8-10.6Q175.57,232.19,177.09,227Z"/><path class="cls-75" d="M160.1,260.21q-.28-4.6-.59-9.19l1.87-3.94h2.52c.09.31.19.62.28.93-.3,4,1.82,5.1,5.42,4.64a15.9,15.9,0,0,1,3.27.29Q166.5,256.59,160.1,260.21Z"/><path class="cls-98" d="M180.11,218l-3,1q-3.48-7-6.95-14C177.57,206.21,178.49,212.39,180.11,218Z"/><path class="cls-69" d="M164.18,248c-.09-.31-.19-.62-.28-.93q3.66-4.44,7.31-8.89l2.83-.83-8,10.6Z"/><path class="cls-1" d="M85.82,236h-.73c-3.26,4.16-6.58,8.27-9.74,12.51a32.08,32.08,0,0,0-2.44,4.74L55,250l-.66-1q-3.6-4-7.19-7.91c-6.56-11.28-6.72-22.4.83-33.33l7.2-6.42L67,196.92c11.45-1.4,20.75,2.47,28,11.41l2.9,3.12q1.58,7.35,3.13,14.7L100.3,228c-1.37-.3-3-1.2-4.08-.78a53.43,53.43,0,0,0-7.16,3.88Z"/><path class="cls-55" d="M55.2,201.33,48,207.75l-1.77-2.66L51.94,199l1.16.23Z"/><path class="cls-99" d="M55.2,201.33l-2.1-2.15c2.27-.94,4.46-2.3,6.82-2.69s4.69.24,7,.43Z"/><path class="cls-1" d="M238.07,251.13,230.9,253,225.58,254l-1.47-1.94-1-3c.15-6.27-4.64-9.73-8-14-4.08-5.23-9.15-8.49-16.07-8.08l.08.09-1.19-4a44.11,44.11,0,0,1,13.27-22l11.88-4c13.86-3,23.25,3.83,31,14.21q1,4.4,2,8.8C257,234.43,251.46,245.05,238.07,251.13Z"/><path class="cls-100" d="M46.23,205.09,48,207.75c-7.55,10.93-7.39,22.05-.83,33.33l-2.16,0A33.63,33.63,0,0,1,38.93,219Q42.58,212.06,46.23,205.09Z"/><path class="cls-101" d="M45,241.11l2.16,0q3.59,4,7.19,7.91Z"/><path class="cls-102" d="M238.07,251.13c13.39-6.08,18.95-16.7,18.06-31.08,4.24,13.18.94,21.72-12,31l-6.69,3.21C237.74,252.76,237.9,251.94,238.07,251.13Z"/><path class="cls-103" d="M202.05,250c-6-2.58-8-8.14-10.11-13.64,1.32-5.6,5.32-3.73,8.85-3.18l.65,1c.71,2.26,1,4.77,2.24,6.71,1.47,2.32,3.71,4.15,5.62,6.19a21.49,21.49,0,0,1-4.58-.77,27.08,27.08,0,0,1-4.28-2.54l-1.12,1Z"/><path class="cls-104" d="M209.3,247c-1.91-2-4.15-3.87-5.62-6.19-1.22-1.94-1.53-4.45-2.24-6.71l5.66,2.28.7.83L215.08,249l-2.87.19Z"/><path class="cls-105" d="M212.21,249.18l2.87-.19,9,3.09,1.47,1.94C220.36,254.51,215.69,253.5,212.21,249.18Z"/><path class="cls-27" d="M210.06,51.92c1.26,2.38,2.61,4.71,3.73,7.15.94,2.07,1.61,4.26,2.73,7.29l4.62.55h0Q218,72,214.8,77.07L204.3,54.88Z"/><path class="cls-37" d="M210.06,51.92l-5.76,3q-2.6-5.46-5.2-10.92l0-1.07c-.31-1.33-.62-2.65-.94-4l2-2c1.5,2.09,1.7,6.16,6,4l4,2c-.13,1.7-.35,3.4-.37,5.11A36.65,36.65,0,0,0,210.06,51.92Z"/><path class="cls-10" d="M224.09,55.91l4,8c.33,1.67.65,3.35,1,5-.52,2.23-1,4.47-1.62,6.66-.16.54-.92.9-1.4,1.35-.66-1.58-1.23-3.2-2-4.73-.9-1.81-2-3.55-2.95-5.32h0l1.93-2,2.32,3,1-.63L221.1,53.92Z"/><path class="cls-106" d="M224.09,55.91l-3-2-2.48-1.6c.57,3.06,1,5.34,1.43,7.63l-7.93-8.47,10-2.57C222.76,51.25,223.42,53.58,224.09,55.91Z"/><path class="cls-59" d="M220.05,60c-.43-2.29-.86-4.57-1.43-7.63l2.48,1.6,5.25,13.34-1,.63-2.32-3Z"/><path class="cls-10" d="M218.13,37.9c3.81,2.76,7.16,5.68,4,11Z"/><path class="cls-62" d="M143.19,197.05l-14,7.2,4.86-5.28Z"/><path class="cls-44" d="M82.24,32.23c-.06,1.23-.11,2.45-.17,3.67-1,1.34-2,2.68-3,4l-5,0v-5l1-5-.84-.8-.08-2.14h1C79.37,26.06,79.77,30.55,82.24,32.23Z"/><path class="cls-107" d="M63,52.82l-5.72-1c-.42-3.06-1.1-6.29,3.78-6l4.92,3C65,50.19,64,51.51,63,52.82Z"/><path class="cls-108" d="M66,48.88l-4.92-3q1.48-2.35,2.95-4.73l.11-.48,3.19,7.25,3.56-5,.37,0C71.54,46.72,69.71,48.65,66,48.88Z"/><path class="cls-105" d="M74,34.86v5l-2.8,3-.37,0c0-1,.09-2.05.13-3.07l.12.08V38.84A7.3,7.3,0,0,0,71,37.9l.07.05,1-1.15L73,35Z"/><path class="cls-109" d="M146.06,33.9c4.26-1.94,3.11,3.92,5.9,4.1-.56,6.6,1.58,13.47-2,19.76l0,0a29.72,29.72,0,0,1-1.54-5.15c-.31-2.59-.2-5.22-.27-7.84Z"/><path class="cls-60" d="M149.93,57.76c3.61-6.29,1.47-13.16,2-19.76l1.13-1.11,3,19Z"/><path class="cls-23" d="M156.06,55.92l-3-19,1.19-4,1.78,2c-.89,5.35-1.15,10.57,2.9,15C158.85,52.3,160.09,55.37,156.06,55.92Z"/><path class="cls-99" d="M146.06,33.9l2.1,10.82-1.7,6.06-2.29-10.85c-.4-2.27-.81-4.55-1.21-6.82L145,31.9Z"/><path class="cls-110" d="M159,49.87c-4.05-4.39-3.79-9.61-2.9-15l1,1q1.08,5,2.17,10C159.13,47.22,159,48.54,159,49.87Z"/><path class="cls-78" d="M159.22,45.9q-1.09-5-2.17-10c0-1,0-2,0-2.94l5,9.92,0,4.05Z"/><path class="cls-21" d="M226.06,77c.48-.45,1.24-.81,1.4-1.35.64-2.19,1.1-4.43,1.62-6.66q4.51,13.5,9,27c-.26,3.33-1.89,4.39-5,3l-14-15.07-1.83-2c-.1-.63-.19-1.25-.29-1.88C220.69,81,224.58,82.59,226.06,77Z"/><path class="cls-93" d="M219.12,83.88,233.1,99c-.37,1-.75,2.1-1.12,3.14L222.09,93Z"/><path class="cls-93" d="M123.69,227.25c7.09,2.71,11.77,8,15.46,14.38l-2.28,5.53c-2.67-2.62-5.28-5.29-8-7.83-1.5-1.39-3.21-3.4-4.9-.1l-8.24-10.72Z"/><path class="cls-111" d="M137,259c-8.69-3.72-16.37-8.58-19.94-18l3-.91,7.09,7.86c2.86,1.84,5.53,4.12,8.62,5.39,2.86,1.19,4,2.62,3.25,5.55Z"/><path class="cls-71" d="M123.94,239.23c1.69-3.3,3.4-1.29,4.9.1,2.75,2.54,5.36,5.21,8,7.83l-2.72,3-1-.07L123.87,241Z"/><path class="cls-46" d="M123.87,241l9.28,9.08-6-2.14L120,240.09Z"/><path class="cls-64" d="M61.86,33.13,67.24,30l3.35,4a7.53,7.53,0,0,1,.41.73l-5.86,2.84Z"/><path class="cls-112" d="M61.86,33.13l3.28,4.4-1,3.13-.11.48-7.14-9,3-1.17Z"/><path class="cls-107" d="M59.85,30.92l-3,1.17c-.23-1.38-.47-2.75-.7-4.12L61,23.05C60.64,25.67,60.25,28.3,59.85,30.92Z"/><path class="cls-85" d="M71,34.69a7.53,7.53,0,0,0-.41-.73L72,31.89l2.18-2.07c.26,0,.52,0,.78,0l-1,5L73,35l-.87,1.83L71.1,38c0-.34-.08-.68-.11-1V34.69Z"/><path class="cls-16" d="M74.19,29.82,72,31.89l0,0Q72,29,71.87,26l2.18.91c0,.71,0,1.43.08,2.14A1.48,1.48,0,0,0,74.19,29.82Z"/><path class="cls-85" d="M71.87,26Q72,29,72,31.93C70.07,30,69.09,28.06,71.87,26Z"/><path class="cls-66" d="M101.92,102.07q-.42,9.95-.85,19.9c-.7-2.06-1.39-4.11-2.08-6.17q.53-6.42,1.06-12.84Z"/><path class="cls-28" d="M135,32.9l4,1q.09,8.94.17,17.88L137,59.89c-.62-1.26-1.65-2.48-1.75-3.78a24.83,24.83,0,0,1,.68-5.36C138,44.68,137.25,38.75,135,32.9Z"/><path class="cls-23" d="M139.19,51.81q-.09-8.94-.17-17.88c.19-1.22.37-2.43.8-5.27,1.26,2.22,1.78,3.16,2.3,4.09q.4,11,.82,22.06c-.59,0-1.49.37-1.72.1A24.34,24.34,0,0,1,139.19,51.81Z"/><path class="cls-113" d="M135,32.9c2.21,5.85,2.93,11.78.92,17.85-.67,1-1.35,2.08-2,3.11-.41-6.71-.85-13.42-1.15-20.13,0-.6.86-1.24,1.32-1.86C134.42,32.21,134.73,32.55,135,32.9Z"/><path class="cls-114" d="M142.94,54.81q-.41-11-.82-22.06a6.24,6.24,0,0,0,.84.36c.4,2.27.81,4.55,1.21,6.82l-1,14A6.74,6.74,0,0,0,142.94,54.81Z"/><path class="cls-47" d="M47,28.92c-.91-2.44-1.82-4.87-2.72-7.31,2.33-4.37,3.84-4.69,7.6-1.6-1.5,3.37.43,5.25,3,6.84L54.13,28q-.74,6.39-1.46,12.79l-1.35-.89L49.87,37c1-1.86,2.13-3.81-1.67-3.11l-1.09-.14Z"/><path class="cls-3" d="M54.91,26.85c-2.56-1.59-4.49-3.47-3-6.84L63,17.91Z"/><path class="cls-95" d="M100.3,228l.69-1.88,1-.2c.34,3,.69,6.08,1,9.13l-9,14h0c-2.42-.33-2.7-1.31-1.16-3.2,1.84-2.27,3.48-4.69,5.2-7v-2.69c.36-1.37.73-2.73,1.1-4.1Z"/><path class="cls-22" d="M94,249.07l9-14q.54-6.53,1.06-13.05c.31,3.33.63,6.67.94,10l1.15,2.27q-3.57,6.4-7.15,12.81Z"/><path class="cls-111" d="M104.08,222q-.52,6.53-1.06,13.05c-.34-3.05-.69-6.09-1-9.13s-.5-6.2-.76-9.3l1.46-.27C103.15,218.27,103.62,220.15,104.08,222Z"/><path class="cls-42" d="M106.87,63l.27,3.88q-.56,5.55-1.1,11.1l-1.12,1.16-1.81-1.24L101.91,73c0-.36.08-.73.13-1.1.64.9,1.28,1.8,1.41,2-.13-10.3-.26-21.17-.39-32,.3,1.93.55,3.87.91,5.78C104.91,52.75,105.9,57.86,106.87,63Z"/><path class="cls-62" d="M135.12,276.17c-3.29,5.4-7.44,9.68-14,10.93L134,275Z"/><path class="cls-115" d="M211.22,201a44.11,44.11,0,0,0-13.27,22c0-1.79,0-3.57,0-5.35q2.08-5.33,4.16-10.64Z"/><path class="cls-11" d="M207.1,236.42l-5.66-2.28c-.22-.34-.44-.67-.65-1l-7.57-5,5.92-1-.08-.09,9,5.16Z"/><path class="cls-68" d="M193.22,228.12l7.57,5c-3.53-.55-7.53-2.42-8.85,3.18q-2-3.09-4-6.18Z"/><path class="cls-59" d="M127.13,248l6,2.14,1,.07,11,3.92-.06-.08c-.22,3.87-2.79,4.82-6.08,4.89.75-2.93-.39-4.36-3.25-5.55C132.66,252.07,130,249.79,127.13,248Z"/><path class="cls-116" d="M161.38,247.08,159.51,251a45.81,45.81,0,0,1-1.52,6,38.92,38.92,0,0,1-2.88,5q-.54-5-1.06-10.07,3.48-6.41,7-12.79a8.42,8.42,0,0,1,1-.18q-.33,3.64-.68,7.27A3,3,0,0,0,161.38,247.08Z"/><path class="cls-117" d="M52.67,40.75q.72-6.41,1.46-12.79h2c.23,1.37.47,2.74.7,4.12l7.14,9Q62.51,43.51,61,45.87c-4.88-.29-4.2,2.94-3.78,6-.45-1-.91-2.09-1.37-3.14-.32-1.28-.64-2.56-1-3.84l.12-3Z"/><path class="cls-40" d="M48.2,33.9c3.8-.7,2.64,1.25,1.67,3.11l-2.66,1.05-1-3.06a5.62,5.62,0,0,0,.79-.18Z"/><path class="cls-48" d="M46.22,35l1,3.06L48,40.89l-.14.23-1.76-.3-1.06-1.09L43.25,39l-.32-.1c0-.27.1-.53.13-.8L44.87,36c.07-.36.13-.72.2-1.07Z"/><path class="cls-48" d="M48.2,33.9,47,34.82c0-.35.07-.7.1-1.06Z"/><path class="cls-118" d="M51.1,50.77l-3-2c-.08-.59-.15-1.18-.23-1.77l.18-1.1,1-.9h.47L50,45,53,48.91Z"/><path class="cls-36" d="M55.05,41.87l-.12,3-1,.1L52,45l.07-.14Z"/><path class="cls-119" d="M53,48.91C52,47.62,51,46.33,50,45l2.11-.21L52,45l1.92,1Z"/><path class="cls-117" d="M53.93,46,52,45l1.87,0A5.15,5.15,0,0,1,53.93,46Z"/><path class="cls-120" d="M230,132.74c-.32-2.05-1.68-4.6,2.21-4.62l0,2.9C231.6,131.79,232.86,134.9,230,132.74Z"/><path class="cls-67" d="M232.17,131l0-2.9,1,.12c0,.92-.06,1.83-.1,2.74Z"/><path class="cls-67" d="M233.1,131l1,0c0,.67.05,1.34.08,2l-.07.06C233.75,132.33,233.42,131.66,233.1,131Z"/><path class="cls-22" d="M234.14,133c0-.67,0-1.34-.08-2l1-1.1,1.93.25c.06.63.13,1.26.19,1.88Z"/><path class="cls-67" d="M237,130.09l-1.93-.25Z"/><path class="cls-121" d="M44.87,36l-1.81,2.12Z"/><path class="cls-48" d="M52.08,44.82,50,45l-.47,0H47.18L46,44.83c.07-.25.13-.51.18-.77l4.51-.83-2.77-2.11.14-.23,3.29-1,1.35.89,2.38,1.12Z"/><path class="cls-51" d="M46.15,44.06c0,.26-.11.52-.18.77l-3,.11q.12-3,.25-6l1.82.75c.32,1.39.63,2.77.94,4.16Z"/><path class="cls-119" d="M47.18,45H49l-1,.9Z"/><path class="cls-5" d="M121.45,78q-3.08,11.05-6.17,22.13l-3.49-4.72a30.53,30.53,0,0,0-1.46,9.68c0,1.78-.26,4.14,2.89,2.88q-1,3.08-2.08,6.14c-3.39-2-3.71,1.38-5.12,2.88-.06-3.7-.11-7.39-.17-11.08L107.11,94q.4-6,.82-12l6.14-1.1,5-3.06Z"/><path class="cls-66" d="M155.07,125c-2-1.07-3.88-2.45-6-3.14-2.88-1-3.89.5-3.09,3.32-2.94-2.31-6.59-4.25-4.69-9.07,5.06-.76,4.39-3.64,2.56-6.94.23-1.43.85-2.92.62-4.27-.53-3.09,1.1-3.8,3.59-3.89l9.94,2c0,1,0,2,0,2.93l-4-.87-2.92-1L148,101.82l-1.66,8,4.52,1.14,1,5.34,4,2.68c.74-1.34,1.49-2.67,2.24-4,0-2.08.05-4.15.08-6.23l2,3Z"/><path class="cls-122" d="M138.84,77l-6.7,5.79c-.58-3.64.71-8-4.07-10l-6-1.91.11-4.12,1-.84,1.9,0,2,2.82c1,3.36,3,2.38,5,1.13a21.73,21.73,0,0,0,16.15-.11L154.06,71l1.11,5.51-3,3.61-5-7.06c-.52,2.51-.77,3.66-1,4.81Z"/><path class="cls-119" d="M155.17,76.47,154.06,71,170,68.88c4.25-.3,8.5-.8,12.75-.78,1.36,0,2.76,1.31,4.07,2.12,2.45,1.53,4.86,3.14,7.28,4.72h0l0,2L188,75a35.5,35.5,0,0,0-2.77-3.41c-2-1.9-2.77-.52-3.24,1.38-4.14-1.75-6.09-.32-6,4.11l-5.88,1.8a24.75,24.75,0,0,0-1.2-4.59c-.49-1-1.64-1.75-2.5-2.62l-2.28,3.18-6.93.07L156,76.05A2.55,2.55,0,0,1,155.17,76.47Z"/><path class="cls-123" d="M159.11,95.71c.6-.84,1.7-1.68,1.71-2.53a30.26,30.26,0,0,0-.84-5.37l5.07,2.09,1.06,2a13.63,13.63,0,0,0,.73,3.31c1.92,3.83.62,6.35-3.61,6.5a21.53,21.53,0,0,1-3.87-.52l-.42-.45.12-2.8Z"/><path class="cls-124" d="M148.06,101c-2.49.09-4.12.8-3.59,3.89.23,1.35-.39,2.84-.62,4.27l-5-1a33.22,33.22,0,0,1,1.74-4.88c1.71-3.16,3.65-6.2,5.49-9.28l4.14,2.84Z"/><path class="cls-125" d="M166.11,92l-1.06-2c4.29-4.73,4.33-4.75,8,.82,2.34,3.58,4.65.41,7,.1-.42,1.51-.83,3-1.25,4.53l-5.28,3.33c-.88-1.38-1.44-2.18-1.91-3a16,16,0,0,1-1.3-2.66C169.42,90.37,167.87,90.81,166.11,92Z"/><path class="cls-53" d="M178.77,95.35c.42-1.51.83-3,1.25-4.53l4-1.93.27.22L198,94.9c-.35,1.07-.7,2.13-1.06,3.19-5.41-4.34-11.7-3.63-17.95-3.13A.32.32,0,0,1,178.77,95.35Z"/><path class="cls-80" d="M106,117c1.41-1.5,1.73-4.93,5.12-2.88L107,128q-1.52-2.53-3-5.07Z"/><path class="cls-116" d="M141.29,116.09c-1.9,4.82,1.75,6.76,4.69,9.07,1.77,2.47,1.66,4-1.9,3.65l-3,.17c-.84-2.09-1.52-4.26-2.55-6.25C136.73,119.29,137.63,117.17,141.29,116.09Z"/><path class="cls-63" d="M113.22,108c-3.15,1.26-2.91-1.1-2.89-2.88a30.53,30.53,0,0,1,1.46-9.68l3.49,4.72C114.6,102.72,113.91,105.34,113.22,108Z"/><path class="cls-126" d="M122,70.93l6,1.91c-.35,1.39-.71,2.77-1.07,4.16l-5.55,1-2.34-.11V67.07l1.85.7Z"/><path class="cls-127" d="M148.06,101l2.11-4.18,5-1.85,4,.76c0,.75,0,1.51-.05,2.27l-.12,2.8.42.45L158,103Z"/><path class="cls-88" d="M155.13,95l-5,1.85L146,94l-1.26-2.08,10.15-2.76Z"/><path class="cls-32" d="M188,75l6.16,1.86,0,.07c0,.65,0,1.3,0,2l1,2-2.88,1-3.13,1-3.89-4c0-.34-.05-.68-.08-1Z"/><path class="cls-23" d="M154.92,89.13l-10.15,2.76q.73-2.69,1.48-5.38Z"/><path class="cls-126" d="M164.1,74.89l2.28-3.18c.86.87,2,1.59,2.5,2.62a24.75,24.75,0,0,1,1.2,4.59l-7.14-.15C163.33,77.48,163.72,76.19,164.1,74.89Z"/><path class="cls-38" d="M176,77.12c-.11-4.43,1.84-5.86,6-4.11L183,76.1C181,78.37,178.83,80.32,176,77.12Z"/><path class="cls-128" d="M164.1,74.89l-1.16,3.88c-3.68,3.07-4.13-1.55-6.09-2.56l.32-1.25Z"/><path class="cls-92" d="M138.84,77l7.35.82,1.65,1.88C142.34,82.73,142.26,82.71,138.84,77Z"/><path class="cls-129" d="M127,77c.36-1.39.72-2.77,1.07-4.16,4.78,1.93,3.49,6.32,4.07,10C130.43,80.87,128.71,78.94,127,77Z"/><path class="cls-53" d="M185.19,79l3.89,4c-.19,3.15-1.31,5.57-4.78,6.16l-.27-.22a42.51,42.51,0,0,0,1-4.52C185.22,82.58,185.15,80.76,185.19,79Z"/><path class="cls-29" d="M183,76.1,181.94,73c.47-1.9,1.25-3.28,3.24-1.38A35.5,35.5,0,0,1,188,75L185.11,78Z"/><path class="cls-130" d="M147.84,79.71l-1.65-1.88c.24-1.15.49-2.3,1-4.81l5,7.06Z"/><path class="cls-43" d="M157.17,75l-.32,1.25a1.43,1.43,0,0,1-.84-.16Z"/><path class="cls-54" d="M194.11,76.9l0-2c7.27-4.38,6.8-4.85,10.88,3.59,1.79,3.72,6.06,6.24,9.21,9.3l4,11.14-3-1.4V111c-.55,1.38-1.11,2.75-2.13,5.29-.45-2.91-.72-4.61-1-6.31,0-.32,0-.64,0-1,3-5.43-1-10.14-1.49-15.21-.31-3.08-1.64-4.47-4.49-4.81-1.92-3.43-3.86-6.86-5.76-10.3-1.52-2.77-3.67-3-6.28-1.67Z"/><path class="cls-92" d="M214.17,87.83c-3.15-3.06-7.42-5.58-9.21-9.3-4.08-8.44-3.61-8-10.88-3.59h0c-3.66-2.32-5-5.81-5-10l16,3.15,9.85,15c.39,1.27.79,2.55,1.19,3.82Z"/><path class="cls-39" d="M212.07,109.93l1,6.31c1-2.54,1.58-3.91,2.13-5.29.32.69.65,1.37,1,2.06l-3.3,15.93L208,125.82Q209,119.9,210,114Z"/><path class="cls-130" d="M216.17,113c-.33-.69-.66-1.37-1-2.06V97.57l3,1.4c.82,1,2.51,2.23,2.3,2.9C219.28,105.66,217.65,109.31,216.17,113Z"/><path class="cls-130" d="M216.06,86.9c-.4-1.27-.8-2.55-1.19-3.82l2.43-1.23c.61.68,1.21,1.36,1.82,2l3,9.13Z"/><path class="cls-58" d="M164.16,125.9l-1.87.1-1-1c.48-2-3.78-4.52.69-6l6.19.15.95,1.92L168,123.85Z"/><path class="cls-46" d="M161.93,118.9c-4.47,1.53-.21,4.06-.69,6l-6.17,0,5.07-13.26C160.74,114.11,161.33,116.51,161.93,118.9Z"/><path class="cls-98" d="M106,117,104,122.88c-.61-.65-1.77-1.32-1.74-1.93.22-5,.67-10.06,1-15.09l2.58,0C105.91,109.58,106,113.27,106,117Z"/><path class="cls-131" d="M105.85,105.89l-2.58,0L104.11,90c.18-.75.37-1.5.55-2.25l1.09,1.2L107.11,94Z"/><path class="cls-36" d="M107.11,94l-1.36-5.06-1.09-1.2c-.18.75-.37,1.5-.55,2.25l.81-10.87c.37-.39.74-.78,1.12-1.16L107.93,82Q107.53,88,107.11,94Z"/><path class="cls-66" d="M164.16,125.9l3.83-2.05,3.06,1.17v0l1,1L174,127l2,2L174,129Z"/><path class="cls-132" d="M191,126.94h-3.92l-3.07.92-4-.94,0-12.18c1.89.55,3.76,1.19,5.67,1.66C193.24,118.28,193.73,119.22,191,126.94Z"/><path class="cls-5" d="M180,126.93l4.05.94c-.32,1.38-.63,2.76-.94,4.13l-7-3-2-2,1.07-.06,1.73-.91Z"/><path class="cls-133" d="M191,126.94c2.72-7.72,2.23-8.66-5.33-10.53-1.91-.47-3.78-1.11-5.67-1.66l-3.93-4.83c-.53,2.51-.81,3.88-1.1,5.25-1.66-5.84-1.17-6.43,7.05-8.45l4.06,6.09c4.6-2,4.56-3.47-.16-8.75l.42-4.13,3.77,1,4.85,16,.08,1,.3.94q1.88,5,3.74,10l1,1.09-8-1.05Z"/><path class="cls-70" d="M199.09,129q-1.86-5-3.74-10a3.82,3.82,0,0,0-.3-.94l-.08-1c.34-1.5,1.09-3,.93-4.48-.44-3.85-1.27-7.67-2-11.5l2.1-.9,4.78,3,1.06-1-.8-4C202.78,99,205,99.56,206,101c1.46,2,2,4.74,3,7.15-.67,2.85-1.22,5.73-2,8.53-1.2,4.1-2.59,8.15-3.9,12.22Z"/><path class="cls-120" d="M203.06,128.87c1.31-4.07,2.7-8.12,3.9-12.22.82-2.8,1.37-5.68,2-8.53.34,1.95.69,3.91,1,5.86q-1,5.92-2.05,11.84Z"/><path class="cls-77" d="M106.87,63c-1-5.1-2-10.21-2.9-15.32-.36-1.91-.61-3.85-.91-5.78l0-8c.71,1.17,1.77,2.26,2.08,3.54,1.08,4.47,1.9,9,2.82,13.54.36,1.61.73,3.22,1.1,4.84Z"/><path class="cls-99" d="M206.1,40.91c-4.32,2.16-4.52-1.91-6-4-.13-1-.26-2.07-.38-3.1l.93-.45Z"/><path class="cls-66" d="M199.07,42.89l0,1.07-1,5.9-6,7.9-2,1.16-4,1-13,.9V58.94l2.58-2.07-1.79-.21q-.87-3.87-1.72-7.74c1.07.18,2.94.76,3.08.49a40,40,0,0,0,1.92-5.52c2.12,2.55,3.94,5.92,8.07,2.92l1.91.2,3.52,2Z"/><path class="cls-66" d="M173.08,58.94v1.88l-10,2.1-12,.13-2-2.17v-1c.3-.73.61-1.46.92-2.19l0,0,6.13-1.84c4-.55,2.79-3.62,2.9-6.05.08-1.33.17-2.65.26-4L162.14,47c.18,1.71.35,3.43.6,5.87,4.57-3.34,2.89-7.42,3.34-10.92l3,2c-.24,2.72-.37,5.47-.74,8.18C167.83,55.89,167.73,59.26,173.08,58.94Z"/><path class="cls-40" d="M107.07,45.92,108,48Z"/><path class="cls-134" d="M125.06,66l-1.9,0c.27-1.32.55-2.63.82-3.95.11-2.4-.49-5.15.46-7.14,1.81-3.76.29-5.89-2.38-8,0-.33,0-.67,0-1l4.06-3c.38,3.91.74,7.81,1.13,11.72.25,2.44.56,4.88.84,7.31Z"/><path class="cls-80" d="M125.06,66l3-4.05,4.9-6.18,1-1.86c.68-1,1.36-2.07,2-3.11a24.83,24.83,0,0,0-.68,5.36c.1,1.3,1.13,2.52,1.75,3.78s1.35,2.7,2,4l-2.91,1.9c-1.53-3.51-3.46-3.52-5.79-.72-1.05,1.27-2.21,2.44-3.32,3.65Z"/><path class="cls-135" d="M119.11,67.07v10.8l-5,3.06A105.89,105.89,0,0,0,113,70.07c-.23-1.21-2-2.14-3.06-3.19,2.06-6.54,5-12.94,3.2-20.09l2.76-3.89L117,44c.2,3.74,1,7.58.41,11.2-.51,3.18.53,5,2.65,6.72Q119.59,64.49,119.11,67.07Z"/><path class="cls-136" d="M120.05,61.89c-2.12-1.75-3.16-3.54-2.65-6.72.59-3.62-.21-7.46-.41-11.2l4.06-2.07c.33,1.33.67,2.67,1,4,0,.33,0,.67,0,1Q121.54,52.44,121,58C120.69,59.27,120.37,60.58,120.05,61.89Z"/><path class="cls-6" d="M110,66.88c1.07,1.05,2.83,2,3.06,3.19a105.89,105.89,0,0,1,1.06,10.86L107.93,82,106,77.94q.54-5.55,1.1-11.1Z"/><path class="cls-119" d="M99.16,232l-1.1,4.1c-7.21,1.32-14.51,8.63-14.82,14.84l-1.19,2.12c-.31,1.14-.61,2.28-.94,3.49l9.79-1.69-9.67,4.33c-.78-1.77-1.55-3.55-2.33-5.33,1.65-4,3.33-8,4.92-12.06.76-1.9,1.34-3.87,2-5.81l3.24-4.9c1.24,2.68,3,3.76,5.88,2.14A18.72,18.72,0,0,1,99.16,232Z"/><path class="cls-6" d="M90.9,254.9l-9.79,1.69c.33-1.21.63-2.35.94-3.49,3.72,1.88,9.54-.08,12-4h0l5-2Z"/><path class="cls-137" d="M145.14,254.08l-11-3.92,2.72-3,2.28-5.53C143.37,244.71,144.58,249.24,145.14,254.08Z"/><path class="cls-138" d="M174,237.36l-2.83.83L169.94,236l.9-1.05,3.3-3.29-5.54-.69,8.49-3.92Q175.56,232.19,174,237.36Z"/><path class="cls-81" d="M168.6,230.93l5.54.69-3.3,3.29c-1-.54-2.44-1.77-2.76-1.52-2.16,1.7-4.07,3.72-6.07,5.63a8.42,8.42,0,0,0-1,.18C161,234.1,165.6,233.25,168.6,230.93Z"/><path class="cls-139" d="M169.94,236l1.27,2.23q-3.65,4.45-7.31,8.89h-2.52a3,3,0,0,1,0-.79Z"/><path class="cls-105" d="M99.16,232a18.72,18.72,0,0,0-4.22,1.23c-2.92,1.62-4.64.54-5.88-2.14a53.43,53.43,0,0,1,7.16-3.88c1.11-.42,2.71.48,4.08.78Z"/><path class="cls-8" d="M224.11,252.08l-9-3.09-7.28-11.74c1.37.53,3.09.71,4,1.66,1.61,1.63,2.58,3.89,4.14,5.59.57.63,2.07.41,3.14.58l4,4Z"/><path class="cls-78" d="M208.09,232.17l-9-5.16c6.92-.41,12,2.85,16.07,8.08l-2,1Z"/><path class="cls-3" d="M213.08,236.11l2-1c3.35,4.29,8.14,7.75,8,14l-4-4Z"/><path class="cls-47" d="M213.08,236.11l6,9c-1.07-.17-2.57,0-3.14-.58-1.56-1.7-2.53-4-4.14-5.59-.93-.95-2.65-1.13-4-1.66l-.7-.83,1-4.25Z"/><path class="cls-111" d="M198.11,49.86l1-5.9q2.61,5.46,5.2,10.92l10.5,22.19L217,80c.1.63.19,1.25.29,1.88l-2.42,1.23-9.85-15q-1.53-3-3-6.1Z"/><path class="cls-13" d="M217,80l-2.2-2.9Q218,72,221.12,66.91c1,1.77,2,3.51,2.95,5.32.76,1.53,1.33,3.15,2,4.73C224.58,82.59,220.69,81,217,80Z"/><path class="cls-140" d="M74.19,29.82a1.48,1.48,0,0,1-.06-.78l.84.8C74.71,29.84,74.45,29.84,74.19,29.82Z"/><path class="cls-141" d="M71,34.69v1.18c0,.36,0,.71,0,1.07s.07.67.11,1L71,37.9l-.06,2c0,1-.08,2-.13,3.07l-3.56,5-3.19-7.25,1-3.13Z"/><path class="cls-142" d="M72.09,36.8,73,35Z"/><path class="cls-143" d="M71,39.85l.06-2a7.3,7.3,0,0,1,.06.94v1.09Z"/><path class="cls-85" d="M71.09,39.93v0Z"/><path class="cls-61" d="M150,57.71c-.31.73-.62,1.46-.92,2.19-2.24-.58-4.47-1-4-4.3.07-.45-1.22-1.11-1.89-1.67l1-14c.7,3.33,1.41,6.66,2.29,10.85l1.7-6.06c.07,2.62,0,5.25.27,7.84A29.72,29.72,0,0,0,150,57.71Z"/><path class="cls-143" d="M71,36.94c0-.36,0-.71,0-1.07C71,36.23,71,36.58,71,36.94Z"/><path class="cls-99" d="M143.18,53.93c.67.56,2,1.22,1.89,1.67-.49,3.25,1.74,3.72,4,4.3v1l-10,3c-.68-1.34-1.35-2.69-2-4l2.16-8.08a24.34,24.34,0,0,0,2,3.1c.23.27,1.13,0,1.72-.1A6.74,6.74,0,0,1,143.18,53.93Z"/><path class="cls-144" d="M51.32,39.86l-3.29,1-.82-2.83L49.87,37Z"/><path class="cls-73" d="M83.24,251c.31-6.21,7.61-13.52,14.82-14.84,0,.9,0,1.79,0,2.69Z"/><path class="cls-93" d="M83.24,251l14.83-12.15c-1.72,2.36-3.36,4.78-5.2,7-1.54,1.89-1.26,2.87,1.16,3.2-2.44,3.94-8.26,5.9-12,4C82.45,252.39,82.84,251.68,83.24,251Z"/><path class="cls-53" d="M169.94,236l-8.61,10.33q.34-3.63.68-7.27c2-1.91,3.91-3.93,6.07-5.63.32-.25,1.81,1,2.76,1.52Z"/><path class="cls-51" d="M47.89,41.12l2.77,2.11-4.51.83L46,43.89l.12-3.07Z"/><path class="cls-145" d="M46.13,40.82,46,43.89c-.31-1.39-.62-2.77-.94-4.16C45.43,40.09,45.78,40.46,46.13,40.82Z"/><path class="cls-70" d="M182,106.72c-8.22,2-8.71,2.61-7.05,8.45-.3,1.93-.6,3.87-.91,5.8l-5.95-1.92-6.19-.15c-.6-2.39-1.19-4.79-1.79-7.18l-2-3c-.06-.93-.11-1.87-.16-2.8s0-2,0-2.93l1.36-1.74a21.53,21.53,0,0,0,3.87.52c4.23-.15,5.53-2.67,3.61-6.5a13.63,13.63,0,0,1-.73-3.31c1.76-1.14,3.31-1.58,4.17,1a16,16,0,0,0,1.3,2.66c.47.85,1,1.65,1.91,3l5.28-3.33A.32.32,0,0,0,179,95l2,2.11c.12,1.39.24,2.78.38,4.46L183,100.1C182.66,102.31,182.35,104.51,182,106.72Z"/><path class="cls-105" d="M150.9,110.93l-4.52-1.14,1.66-8L151.1,104c0,.66.05,1.32.07,2Z"/><path class="cls-17" d="M151.17,106c0-.65,0-1.31-.07-2l2.92,1,2.89,4.14c-.37,1.65-.73,3.31-1.09,5l-2.73-.17-.23.24,1.17-3.29c-.32-1.34-.63-2.67-.95-4Z"/><path class="cls-146" d="M156.9,109.18,154,105l4,.87c.05.93.1,1.87.16,2.8,0,2.08,0,4.15-.08,6.23h-1C157,113,157,111.1,156.9,109.18Z"/><path class="cls-147" d="M154,110.92l-1.17,3.29c-.33.68-.66,1.37-1,2.06l-1-5.34.27-4.93,1.91.92C153.4,108.25,153.71,109.58,154,110.92Z"/><path class="cls-12" d="M151.86,116.27c.34-.69.67-1.38,1-2.06l.23-.24L155,116l.85,2.91Z"/><path class="cls-46" d="M155.82,119c-.29-1-.57-1.94-.85-2.91l1.12-1.11.47,0h1.5C157.31,116.28,156.56,117.61,155.82,119Z"/><path class="cls-68" d="M139.06,63.93l10-3,2,2.16c-.94,2.24-1.89,4.49-2.83,6.74a21.73,21.73,0,0,1-16.15.11c1.35-1.36,2.71-2.71,4.07-4.07Z"/><path class="cls-148" d="M148.23,69.79c.94-2.25,1.89-4.5,2.83-6.74l12-.13-8.37,2.13.32,1.39L170.17,68a8.6,8.6,0,0,1-.19.88L154.06,71Z"/><path class="cls-149" d="M136.15,65.83c-1.36,1.36-2.72,2.71-4.07,4.07-2.05,1.25-4,2.23-5-1.13,1.11-1.22,2.27-2.39,3.32-3.66C132.69,62.31,134.62,62.32,136.15,65.83Z"/><path class="cls-24" d="M122,70.93,121,67.77c0-2.92.07-5.84.11-8.76l1.13,3c0,1.61,0,3.22,0,4.83Z"/><path class="cls-150" d="M122.15,66.81c0-1.61,0-3.22,0-4.83L124,62c-.27,1.32-.55,2.63-.82,3.95Z"/><path class="cls-54" d="M170,68.88a8.6,8.6,0,0,0,.19-.88l15-3,3.95,0c0,4.16,1.35,7.65,5,10-2.42-1.58-4.83-3.19-7.28-4.72-1.31-.81-2.71-2.11-4.07-2.12C178.48,68.08,174.23,68.58,170,68.88Z"/><path class="cls-151" d="M158.94,100.79l.12-2.8Z"/><path class="cls-152" d="M184.3,89.11c3.47-.59,4.59-3,4.78-6.16l3.13-1c-.24,1.71-.48,3.41-.88,6.18l5.76-2.26,3,7.18-2,1.83Z"/><path class="cls-37" d="M181,97.07,179,95c6.25-.5,12.54-1.21,17.95,3.13l-.92,2-2.1.9c-.72-.62-1.45-1.23-2.3-1.94l-1.53,1.92-3.77-1Z"/><path class="cls-9" d="M196.05,100.06l.92-2c.36-1.06.71-2.12,1.06-3.19l2-1.83,1.91,1c-.29,1.34-.58,2.68-.88,4l.8,4-1.06,1Z"/><path class="cls-66" d="M121.07,59c0,2.92-.07,5.84-.11,8.76l-1.85-.7q.48-2.58.94-5.18L121,58Z"/><path class="cls-99" d="M201.09,98.08c.3-1.33.59-2.67.88-4,1.15-7.91-2-13.89-7.88-15.15,0-.65,0-1.3,0-2,2.61-1.38,4.76-1.1,6.28,1.67,1.9,3.44,3.84,6.87,5.76,10.3.23,3.58.47,7.15.74,11.22,4.61-1.54,5.24.84,5.23,3.89,0,1.64,0,3.28,0,4.91,0,.33,0,.65,0,1l-2,4c-.34-2-.69-3.91-1-5.86-.94-2.41-1.51-5.1-3-7.15C205,99.56,202.78,99,201.09,98.08Z"/><path class="cls-153" d="M194.09,78.92c5.92,1.26,9,7.24,7.88,15.15l-1.91-1-3-7.18c1.07-2.35.85-4.18-2-5C194.75,80.27,194.42,79.59,194.09,78.92Z"/><path class="cls-80" d="M195.09,80.94c2.85.77,3.07,2.6,2,5l-5.76,2.26c.4-2.77.64-4.47.88-6.18Z"/><path class="cls-4" d="M212.09,109c0-1.63,0-3.27,0-4.91,0-3-.62-5.43-5.23-3.89-.27-4.07-.51-7.64-.74-11.22,2.85.34,4.18,1.73,4.49,4.81C211.11,98.82,215.09,103.53,212.09,109Z"/><path class="cls-154" d="M189.07,65l-3.95,0,1-5.08,4-1,2.9,0c1.86,4.32,5.73,2.87,9,3.14q1.52,3.06,3,6.1Z"/><path class="cls-152" d="M168.12,119.05l5.95,1.92,0,2-2.66-.33,3.64,4.37L174,127,172.08,126l-1-1v0l-2-4Z"/><path class="cls-5" d="M169.07,121l2,4L168,123.85Z"/><path class="cls-5" d="M171.06,125l1,1Z"/><path class="cls-100" d="M174.11,122.93l0-2c.31-1.93.61-3.87.91-5.8.29-1.37.57-2.74,1.1-5.25l3.93,4.83,0,12.18-3.15-.87C175.92,125,175,124,174.11,122.93Z"/><path class="cls-155" d="M174.11,122.93c.9,1,1.81,2.09,2.72,3.13l-1.74.91-3.64-4.37Z"/><path class="cls-134" d="M190.12,100.94,191.65,99,194,101c.68,3.83,1.51,7.65,2,11.5.16,1.44-.59,3-.93,4.48Q192.56,108.95,190.12,100.94Z"/><path class="cls-156" d="M182,106.72c.32-2.21.63-4.41.95-6.62l1.1-.13v2l1.85,2.1c4.72,5.28,4.76,6.75.16,8.75Z"/><path class="cls-93" d="M185.93,104.06l-1.85-2.1v-2l-1.1.13-1.61,1.43c-.14-1.68-.26-3.07-.38-4.46l5.36,2.86Z"/><path class="cls-134" d="M195.05,118a3.82,3.82,0,0,1,.3.94Z"/><path class="cls-157" d="M186.08,59.92l-1,5.08-15,3-15.12-1.56-.32-1.39,8.37-2.13,10-2.1Z"/><path class="cls-62" d="M202,62c-3.28-.27-7.15,1.18-9-3.14l-.86-1.12,6-7.9Z"/><path class="cls-158" d="M192.11,57.76l.86,1.12-2.9,0Z"/><path class="cls-159" d="M121.07,59,121,58l1-11.06c2.67,2.09,4.19,4.22,2.38,8-1,2-.35,4.74-.46,7.14l-1.78,0Z"/><path class="cls-160" d="M157,115h-.48l-.47,0a3.69,3.69,0,0,0-.27-.79c.36-1.65.72-3.31,1.09-5C157,111.1,157,113,157,115Z"/><path class="cls-161" d="M154,110.92c-.32-1.34-.63-2.67-.95-4C153.4,108.25,153.71,109.58,154,110.92Z"/><path class="cls-134" d="M155.82,114.14a3.69,3.69,0,0,1,.27.79L155,116,153.09,114Z"/><path class="cls-162" d="M184.08,100v0Z"/></g></g></svg>