<svg xmlns="http://www.w3.org/2000/svg" viewBox="0 0 158.69 288.97"><defs><style>.cls-1{fill:#c4252b;}.cls-2{fill:#b12227;}.cls-3{fill:#a42024;}.cls-4{fill:#bb2329;}.cls-5{fill:#991e21;}.cls-6{fill:#911d20;}.cls-7{fill:#b18752;}.cls-8{fill:#866a42;}.cls-9{fill:#82653c;}.cls-10{fill:#82663c;}.cls-11{fill:#856940;}.cls-12{fill:#b28853;}.cls-13{fill:#81643a;}.cls-14{fill:#84683f;}.cls-15{fill:#9a7647;}.cls-16{fill:#b28954;}.cls-17{fill:#7f6237;}.cls-18{fill:#977444;}.cls-19{fill:#9f7a49;}.cls-20{fill:#a67f4d;}.cls-21{fill:#a27c4a;}.cls-22{fill:#e7e1d9;}.cls-23{fill:#a37f51;}.cls-24{fill:#efebe7;}.cls-25{fill:#fcfbfa;}</style></defs><g id="Layer_2" data-name="Layer 2"><g id="Layer_1-2" data-name="Layer 1"><path class="cls-1" d="M147.27,111.94c-11,20.89-28.34,33.63-51.13,38.69-32.2,7.14-65.5-7.89-81.91-36.42a17.89,17.89,0,0,1-1-2.25,65.91,65.91,0,0,1,8.35-1Q84.44,111.39,147.27,111.94Z"/><path class="cls-2" d="M5.46,89.94q0-13.5,0-27a57.47,57.47,0,0,0,7.33,1q67.55.09,135.09,0a57.32,57.32,0,0,0,7.32-1l-.06,27Z"/><path class="cls-3" d="M155.15,63a57.32,57.32,0,0,1-7.32,1q-67.55.09-135.09,0a57.47,57.47,0,0,1-7.33-1q4.34-12,8.66-24.08c2.45.36,4.9,1.05,7.34,1q62.52-.42,125-1Z"/><path class="cls-4" d="M5.46,89.94H155.09q-3.92,11-7.82,22-62.82-.5-125.65-.94a65.91,65.91,0,0,0-8.35,1Z"/><path class="cls-5" d="M146.45,38.9q-62.52.52-125,1c-2.44,0-4.89-.67-7.34-1l15.12-19a40.36,40.36,0,0,0,6.29,1q43.37.09,86.75-.05c2.68,0,5.37-1.24,8-1.9Z"/><path class="cls-6" d="M130.28,19c-2.68.66-5.37,1.89-8,1.9q-43.38.21-86.75.05a40.36,40.36,0,0,1-6.29-1C50.44-2,89.5-6.53,117.7,9.84,122.16,12.43,126.1,15.9,130.28,19Z"/><path class="cls-7" d="M52.3,178.13c3.74.3,3-2.84,3.45-4.78,2.6-10.66,9.45-17.11,20-19.07,10-1.85,18.43,1.77,24.31,10.06,1.89,2.66,2.33,6.34,3.43,9.55l-5,.08c-3.55-9.8-11-15.3-19.61-14.44-10.18,1-16.35,7.44-17.83,18.74,8.27,3.66,15.32,8.55,16.26,18.69l-7.94-3c1.51-5.29-3-3-5-4L64.23,188,62.3,186h0l-2-1-4.18.12.1,0-.8-1.13-3.12-1.16Z"/><path class="cls-8" d="M50.28,251.32c-5.18,12.14-3.41,24.17.35,36.57H43.75c-.61-3.1-1.2-6.15-1.8-9.2l-.67,0V288H34.85V251h6.33v8.67C44.31,256.68,41.05,248.36,50.28,251.32Z"/><path class="cls-9" d="M32.37,269.23c0,4,.24,8-.06,12-.32,4.25-2.53,7.38-7.13,7.53A6.7,6.7,0,0,1,17.92,282c-.41-8.6-.42-17.26,0-25.86.21-4,3-6.71,7.42-6.5s6.55,3.18,6.89,7.17.08,8.3.08,12.46Zm-6.81-12.8-1.09-.07v25.29h1.09Z"/><path class="cls-10" d="M70.13,253.91c1.8-3.35,4.91-5.36,8.2-3.74,2.4,1.18,5.14,4.35,5.35,6.84a176,176,0,0,1,.17,24.41c-.27,5-3.72,7.75-7.71,7.48s-6.65-3.37-6.84-8.43c-.26-6.81-.18-13.64-.24-20.47Q69.6,257,70.13,253.91Zm7,2.69h-1v25.13h1Z"/><path class="cls-11" d="M147.25,251.84h8.49c0,6.94-.08,13.69,0,20.43,0,2.2-1.33,5.17,2.62,6,.38.08.44,3.74-.12,5.49-.48,1.5-2.08,2.63-3.86,4.73H149.7l-.63-4.4-9.6-.56C142.12,272.71,144.66,262.39,147.25,251.84Z"/><path class="cls-9" d="M130.62,263.89c6.59-.7,8.48.82,8.69,6.74a100,100,0,0,1-.07,10.95c-.29,4-2.1,7-6.6,7.36s-7.46-2-7.67-6.08a223.69,223.69,0,0,1,0-26.28c.3-4.55,4.09-6.68,8.17-6,4.59.73,6.4,4.08,5.79,11h-5.34l-1.12-5-1.31.05Zm2,5.51-1.41.12v13.29l1.41,0Z"/><path class="cls-12" d="M105.28,178.08c3.41.4,2.86-2.34,3.34-4.24,2.7-10.66,9.27-17.53,20.19-19.34,10.15-1.68,18.51,1.73,24.38,10.46l-5.65,1.33c-11.92-12.65-31.55-5.87-33.6,10.65l-2.3.8.1.76,2.65.42c7.34,2.21,12.17,7.15,15,14.11.42,1.07-.43,2.65-.69,4l-4.37-2.11-2-1.94a3.76,3.76,0,0,0-.88.14l-.22-.2c-.23-1.41,0-3.71-.76-4.08-3.86-1.89-8-3.29-12-4.87l-3.13-1.08Z"/><path class="cls-13" d="M108.28,258.09c1-5.75,3.33-8.23,7.56-8.09,4.47.14,7.21,3.23,7.37,8.88.19,6.47.11,12.94.05,19.41s-2.52,9.87-7.14,10.17-6.68-2-7.84-8.81c0-1.7,0-3.44,0-5.17l5.66-2.11c.39,4.16.68,7.18,1,10.21l1.62-.12V272.23l-8.24-1.55V260.42Zm8.24-2h-1.38v9.92h1.38Z"/><path class="cls-14" d="M67.45,260c-1.54,9.08-3.09,18.15-4.74,27.89H57.78C55.87,275.46,54,263.31,52.09,251h5.78c.65,3.36,1.32,6.79,2,10.22l1,0c.85-3.39,1.69-6.78,2.62-10.51,2.27.81,6.18-2.36,5.77,3.2Z"/><path class="cls-8" d="M17.2,252l-3.7,5.22-1.09-.61v31.11H5.7V256.8l-1,.51L0,250.58H16Z"/><path class="cls-15" d="M76.37,211c-3.61,9.62-12.18,15.53-22.68,15.64A23.83,23.83,0,0,1,31,211.07l5.2-1.11c1.55,2,2.72,4.6,4.71,6,11.87,8.44,21.52,6.42,30.34-6Z"/><path class="cls-16" d="M5.17,166.67a23.84,23.84,0,0,1,23.41-12.76,23.8,23.8,0,0,1,20.74,16l-5.1,1c-2.51-2.79-4.6-6.2-7.61-8.25-9-6.09-18.68-3.51-27.11,6.6Z"/><path class="cls-17" d="M108.33,274.48c0,1.73,0,3.47,0,5.17-.91,2.54-1.82,5.11-2.85,8h-5.3c0-6.88.15-13.62-.09-20.34-.07-2.12-1.17-4.2-1.82-6.3a11.19,11.19,0,0,1-.68-1.76c-.36-2.78,5.26-8.12,8-8,1,2.36,1.87,4.56,2.77,6.79,0,.81,0,1.59.06,2.36-2.06.91-2.06.91-2.07,5.32C106.26,273.57,106.26,273.57,108.33,274.48Z"/><path class="cls-18" d="M127.73,214.11c-4.85,8-11.94,12.53-21.36,12.4C96.54,226.38,89,222.06,84.55,213l4.79-2.13c9.76,13,21.47,13.74,32.89,2.1Z"/><path class="cls-18" d="M124.29,194.91l4.37,2.11c8.29,2.37,14.39-1.45,19.84-7.05l4.89,2.14c-5.15,6.5-11.19,11.32-20.1,11a10.8,10.8,0,0,0-3.13.84l-3-1c-7-2.28-12.72-6-15.93-12.94,2.5-1.5,4.62-1.25,6.64,1,.8.9,2.17,1.3,3.29,1.92l.22.2.87.85Z"/><path class="cls-19" d="M105.28,178.08v4.8a11.21,11.21,0,0,0-1.78,2.84C101.7,193,94.71,200,88.3,200.85c0-1.31,0-2.61,0-3.91,2.35-2.41,5.43-4.46,6.83-7.33,1.59-3.25,5.53-6.24,3-10.74l.3-4.9,5-.08C104.07,175.28,104.68,176.68,105.28,178.08Z"/><path class="cls-15" d="M28.29,202.69C16,204.05,6.12,196.87,2.48,184H8.15a61.62,61.62,0,0,0,4.18,7.15c4,5.16,10.07,5.95,16,7Z"/><path class="cls-18" d="M69.3,193.93l7.94,3,4.94.71c0,1.88,0,3.77,0,5.65l-4.6-.27-5-.12a25.68,25.68,0,0,1-4-2.72c-3.64-3.63-7.13-7.4-10.69-11.12l4.45-1.15,1.92.08c0,.65.07,1.29.1,1.93Z"/><path class="cls-20" d="M28.29,202.69v-4.58l2.7-5.29L36.3,196l0,2-1.8,3.43L36.19,210,31,211.07Z"/><path class="cls-20" d="M8.15,184H2.48c-.8-6-1.19-12,2.69-17.29l4.33,2.65Z"/><path class="cls-21" d="M82.14,203.32c0-1.88,0-3.77,0-5.65a.8.8,0,0,1,.18-.71l5.93,0v3.91q.51,5,1,10L84.55,213Q83.35,208.15,82.14,203.32Z"/><path class="cls-21" d="M44.22,171l5.1-1c.65,2.67,1.29,5.34,1.94,8l-.87,4.18c-.19,1.31-.39,2.63-.58,3.94L45.34,185l-.06-6.05C44.93,176.27,44.57,173.62,44.22,171Z"/><path class="cls-20" d="M147.54,166.29l5.65-1.33,4.05,13h-5Q149.92,172.12,147.54,166.29Z"/><path class="cls-21" d="M152.29,178h5q-1.94,7.08-3.85,14.16L148.5,190Q150.41,184,152.29,178Z"/><path class="cls-21" d="M127.17,202.91l3,1-2.43,10.17-5.5-1.18c.85-2,1.62-4,2.56-5.93C125.48,205.58,126.37,204.27,127.17,202.91Z"/><path class="cls-20" d="M72.5,202.93l5,.12L76.37,211l-5.13-1Z"/><path class="cls-22" d="M67.45,260l1.78-6a3.88,3.88,0,0,1,.9,0q-.52,3-1.07,6.09Z"/><path class="cls-16" d="M50.39,182.15l.87-4.18,1,.16v4.69Z"/><path class="cls-20" d="M57.85,189.09l-1.73-4L60.3,185l2,1h0v2Z"/><path class="cls-16" d="M69.3,193.93l-5-4C66.27,190.91,70.81,188.64,69.3,193.93Z"/><path class="cls-16" d="M62.3,187.94v-2L64.23,188Z"/><path class="cls-16" d="M62.3,186l-2-1Z"/><path class="cls-20" d="M56.22,185.11l-.8-1.13Z"/><path class="cls-23" d="M111.24,190c-.94-2-1.88-4-2.83-6,4,1.58,8.14,3,12,4.87.74.37.53,2.67.76,4.08-1.12-.62-2.49-1-3.29-1.92C115.86,188.72,113.74,188.47,111.24,190Z"/><path class="cls-16" d="M113.94,176.94l.45,2-2.65-.42-.1-.76Z"/><path class="cls-16" d="M124.29,194.91l-2-.95c0-.33,0-.66,0-1Z"/><path class="cls-23" d="M122.27,193c0,.33,0,.66,0,1l-.87-.85A3.76,3.76,0,0,1,122.27,193Z"/><path class="cls-24" d="M108.33,274.48c-2.07-.91-2.07-.91-2.06-8.74,0-4.41,0-4.41,2.07-5.32v10.26l8.24,1.55v10.23l-1.62.12c-.29-3-.58-6.05-1-10.21Z"/><path class="cls-22" d="M116.52,256.12V266h-1.38v-9.92Z"/><path class="cls-25" d="M44.22,171c.35,2.65.71,5.3,1.06,7.94-6.86,2.48-11.82,6.92-14.29,13.91l-2.7,5.29c-5.89-1.05-12-1.84-16-7A61.62,61.62,0,0,1,8.15,184L9.5,169.32c8.43-10.11,18.14-12.69,27.11-6.6C39.62,164.77,41.71,168.18,44.22,171Z"/><path class="cls-7" d="M82.36,197c1.92-8.94,7.24-14.91,15.76-18.09,2.53,4.5-1.41,7.49-3,10.74-1.4,2.87-4.48,4.92-6.83,7.33Z"/><path class="cls-16" d="M31,192.82c2.47-7,7.43-11.43,14.29-13.91l.06,6.05q-4.52,5.5-9,11Z"/><path class="cls-15" d="M36.3,196q4.52-5.49,9-11l4.47,1.13c-3.1,6.63-6.44,13-14.5,14.78.32-1,.65-1.94,1-2.9Z"/><path class="cls-16" d="M36.28,198c-.32,1-.65,1.93-1,2.9-.27.19-.55.37-.83.53Z"/></g></g></svg>