<svg xmlns="http://www.w3.org/2000/svg" viewBox="0 0 300 300"><defs><style>.cls-1{fill:#fdfdfd;}.cls-2{fill:#181818;}.cls-3{fill:#161717;}.cls-4{fill:#232323;}.cls-5{fill:#191919;}.cls-6{fill:#e8e8e8;}.cls-7{fill:#030303;}.cls-8{fill:#393536;}.cls-9{fill:#1d8dc3;}.cls-10{fill:#e63f5b;}.cls-11{fill:#2f2f2f;}.cls-12{fill:#1b1b1b;}.cls-13{fill:#101010;}.cls-14{fill:#eaeaea;}.cls-15{fill:#f9f9f9;}.cls-16{fill:#eff0ef;}.cls-17{fill:#373333;}.cls-18{fill:#eeefeb;}.cls-19{fill:#dcdcdc;}.cls-20{fill:#1a1a1a;}.cls-21{fill:#f7b542;}.cls-22{fill:#f6f6f6;}.cls-23{fill:#f6b74c;}.cls-24{fill:#222;}.cls-25{fill:#14a364;}.cls-26{fill:#eaf2ef;}.cls-27{fill:#0a0a0a;}.cls-28{fill:#f4f4f4;}</style></defs><g id="Layer_2" data-name="Layer 2"><g id="Layer_1-2" data-name="Layer 1"><path class="cls-1" d="M300,300H0V0H300ZM279.8,136l-1.74-6.52-1-2-2.52-1.54c-.62-3.72-1.89-6.5-6.47-4.45l1.14-1.19-2.71-1.37h-1l-5-1h-1c-2.71.46-5.45.79-8.09,1.5-.39.11-.31,2-.45,3a.66.66,0,0,0-.64.56L249,121.67l-.06,1.9-.39.05,0,.39-.41-1.73-4.82,2.63c-7.86-7.14-15.55-9.2-23.53-5.91s-12.26,9.25-12.75,17.9l-2.59.64c.11-8.65-3.52-15.26-11.4-18.89-9.63-4.42-18.07-1.67-25.29,5.64-4.73-5.21-10.26-7.68-17-7.5s-11.61,3.79-16.38,8.72c-.2-3.57-.35-6.37-.56-10.13-3.69,5.52-3.23,67.39.27,69.92v-8.86c13.11,11.55,21.09,11.79,34.25,1.29,6.52,6.89,14.46,9.39,23.47,5.9,8-3.11,12.24-9.38,12.73-18l2.5.71c.38,8.66,4.62,14.87,12.5,18.14,9.35,3.87,17.39,1.06,24.14-6.14,6.85,7.14,14.76,10,24,6.08,7.89-3.31,12.06-9.53,12.38-18.19,4.56-1.65,8.13-4.4,10-9,3.24-8.06-.49-15.58-10-20.25A1.21,1.21,0,0,0,279.8,136ZM117.1,124.5c-3.06,7.67-6.2,15.31-9.13,23-.6,1.57-1.1,3.69-.53,5.11,4,10.16,8.31,20.21,12.64,30.24.44,1,1.74,1.65,2.92,2.72V115.48L118.91,119l-1.32-2.55a8.29,8.29,0,0,0-2.18,1.69,25.8,25.8,0,0,0-1.64,3.62c-3.71,8.17-7.43,16.33-11.53,25.32-1.09-2.43-1.77-3.91-2.42-5.4-3.33-7.6-6.68-15.19-9.95-22.81-1.58-3.7-3.07-2.68-4.59-.12-9.16-3.82-17.5-2.76-24.88,4-8.84-7.23-12-7.65-23.26-3.42a4,4,0,0,1-3-.32C23.68,112.53,7.7,119.12,8,135.49c.27,15.15.05,30.31.08,45.47,0,1.36.24,2.71.37,4.06l1.52.16a23.81,23.81,0,0,0,.83-4.43c.06-15.66-.1-31.32.09-47,.15-12,12.18-18.41,22.43-12.11,1.47.91,3,1.64,4.9,2.62L36,127.65c-.7-.67-1.19-1.07-1.61-1.53-3.79-4.07-8.33-5.41-13.56-3.37s-7.59,6.31-7.61,11.77q-.11,23.74,0,47.48c0,1.1.73,2.19,1.12,3.29L16,185v-5.17c0-15.33-.05-30.65,0-46a8.85,8.85,0,0,1,7.54-9.15,8.54,8.54,0,0,1,9.9,4.94,16.24,16.24,0,0,1,1.12,6.8c.09,14.83,0,29.65.08,44.48a22.76,22.76,0,0,0,.85,4.32l1.61-.27v-4.74q0-22.25,0-44.48c0-7.13,3.82-11.65,9.59-11.49,5.59.16,9.14,4.54,9.15,11.44,0,15,0,30,0,45,0,1.48.18,3,.28,4.45l1.72.08.83-7.18c10.43,7.2,15.28,8.44,22.91,6.39,1.79-.48,3.81-.07,6.55-.07l14-30.43c4.3,9.86,8.16,18.82,12.16,27.72a20,20,0,0,0,2.83,3.68l1.23-1c-4.39-10-8.88-20-13.1-30.1-.74-1.79-1.12-4.33-.43-6,3.09-7.52,6.59-14.88,10-22.24C115.23,125.29,116.35,125,117.1,124.5ZM30.27,185.24l1.14-.23c.19-.4.56-.8.56-1.2,0-16.47.09-32.93,0-49.4,0-4-2.31-6.53-6.47-6.77-3.93-.23-6.75,2.45-6.79,6.91-.13,16.13-.08,32.27,0,48.4,0,.78.78,1.55,1.19,2.32l1.25-.36q0-11.13,0-22.26c0-9.15-.23-18.31.19-27.44.08-1.76,2.66-3.4,4.09-5.1a40.68,40.68,0,0,1,3.8,4.95c.5.88.09,2.28.09,3.44,0,14.14,0,28.28,0,42.42A21.53,21.53,0,0,0,30.27,185.24ZM51,185.13l1.75-.18a17.83,17.83,0,0,0,.28-2.3c0-15.82,0-31.65,0-47.47,0-4.85-2.6-7.61-6.7-7.54s-6.44,2.76-6.46,7.77q-.08,23.47,0,47a11.46,11.46,0,0,0,.74,2.78l1.33-.08c.08-1.69.23-3.37.23-5.05q0-22.23,0-44.47c0-3,1.08-5.84,4.34-5.26,1.61.29,2.93,3.2,4,5.13.49.89.09,2.29.09,3.45q0,20.75,0,41.48C50.62,182,50.86,183.54,51,185.13Zm75.54-69.22v69.51C129.7,182.79,129.86,119.4,126.53,115.91ZM102.19,132.7c-4.13-4.89-4.5-12.09-9.29-16.27l-1.43.91,10.64,22.6,10.59-22.73-1.55-.92C106.74,120.75,105.88,127.5,102.19,132.7ZM91.4,184.39l1.3.81c5.09-4.18,5.21-11.69,9.36-16.16,4,4.94,4.42,11.76,8.86,16.14l1.41-.81c-3.32-7.23-6.63-14.46-10.32-22.53C98.24,169.84,94.82,177.12,91.4,184.39ZM98.54,116l-1.36,1,4.91,10.57,4.75-10.67-1.3-.78-3.46,4Zm-1.29,68.33,1,1,3.88-3.8,4,3.82.91-.91-4.93-10.21C100.21,178.19,98.73,181.27,97.25,184.34Z"/><path class="cls-2" d="M117.1,124.5c-.75.48-1.87.79-2.19,1.47-3.46,7.36-7,14.72-10,22.24-.69,1.68-.31,4.22.43,6,4.22,10.09,8.71,20.08,13.1,30.1l-1.23,1a20,20,0,0,1-2.83-3.68c-4-8.9-7.86-17.86-12.16-27.72l-14,30.43c-2.74,0-4.76-.41-6.55.07-7.63,2-12.48.81-22.91-6.39l-.83,7.18-1.72-.08c-.1-1.48-.28-3-.28-4.45,0-15,0-30,0-45,0-6.9-3.56-11.28-9.15-11.44-5.77-.16-9.58,4.36-9.59,11.49q0,22.23,0,44.48V185l-1.61.27a22.76,22.76,0,0,1-.85-4.32c-.06-14.83,0-29.65-.08-44.48a16.24,16.24,0,0,0-1.12-6.8,8.54,8.54,0,0,0-9.9-4.94A8.85,8.85,0,0,0,16,133.83c-.09,15.33,0,30.65,0,46V185l-1.59.31c-.39-1.1-1.11-2.19-1.12-3.29q-.11-23.75,0-47.48c0-5.46,2.33-9.7,7.61-11.77s9.77-.7,13.56,3.37c.42.46.91.86,1.61,1.53l2.19-3.36c-1.85-1-3.43-1.71-4.9-2.62-10.25-6.3-22.28.06-22.43,12.11-.19,15.65,0,31.31-.09,47a23.81,23.81,0,0,1-.83,4.43L8.45,185c-.13-1.35-.37-2.7-.37-4.06,0-15.16.19-30.32-.08-45.47-.3-16.37,15.68-23,26.09-16.51a4,4,0,0,0,3,.32c11.26-4.23,14.42-3.81,23.26,3.42,7.38-6.72,15.72-7.78,24.88-4,1.52-2.56,3-3.58,4.59.12,3.27,7.62,6.62,15.21,9.95,22.81.65,1.49,1.33,3,2.42,5.4,4.1-9,7.82-17.15,11.53-25.32a25.8,25.8,0,0,1,1.64-3.62,8.29,8.29,0,0,1,2.18-1.69l1.32,2.55L119,119l-1,2,0,0-1,3.62Zm-56.71,2.62c-9.1-9.5-19.45-10.81-23.11-2.75a7.36,7.36,0,0,0,1.92-.27c11.48-5.3,19.11-.56,19.17,12,0,10-.09,20,0,30,.11,8.64,5,14.37,13.38,16.12,8.64,1.8,15.45-1.63,19-9.62,3.08-6.81,8.29-13.55,8.57-20.48.27-6.77-5.1-13.58-7-20.65C89,118.38,69.86,114,60.39,127.12Z"/><path class="cls-3" d="M204.49,165.58c-.49,8.67-4.72,14.94-12.73,18-9,3.49-16.95,1-23.47-5.9-13.16,10.5-21.14,10.26-34.25-1.29v8.86c-3.5-2.53-4-64.4-.27-69.92.21,3.76.36,6.56.56,10.13,4.77-4.93,9.68-8.54,16.38-8.72s12.32,2.29,17,7.5c7.22-7.31,15.66-10.06,25.29-5.64,7.88,3.63,11.51,10.24,11.4,18.88l-2.38,1.54c0-.5-.09-1-.1-1.49-.26-9.07-4.7-15.29-12.63-17.66-7.75-2.32-14.83.3-20,7.37a13,13,0,0,1-1.64,1.58c-6-8.38-12.91-11.23-21.12-8.85a16.84,16.84,0,0,0-12.39,15.76c-.24,10.15-.34,20.32,0,30.47.39,10.93,10.71,18.81,21.24,15.71,4.85-1.43,9-5.27,13.54-8.06,5.27,7.33,12.23,10.25,20.33,8,7.61-2.13,12.15-8.42,12.76-17.68Z"/><path class="cls-4" d="M117.1,124.5l-.13.07,1-3.62,0,0c.34-.69.69-1.37,1-2l-.06.06,4.09-3.53v70.11c-1.18-1.07-2.48-1.71-2.92-2.72-4.33-10-8.61-20.08-12.64-30.24-.57-1.42-.07-3.54.53-5.11C110.9,139.81,114,132.17,117.1,124.5Zm3.48,52.72V124.36c-3.74,8.8-7,16.4-10.16,24a5.5,5.5,0,0,0-.28,3.77C113.38,160.26,116.81,168.26,120.58,177.22Z"/><path class="cls-5" d="M30.27,185.24a21.53,21.53,0,0,1-.93-4.32c-.07-14.14,0-28.28,0-42.42,0-1.16.41-2.56-.09-3.44a40.68,40.68,0,0,0-3.8-4.95c-1.43,1.7-4,3.34-4.09,5.1-.42,9.13-.19,18.29-.19,27.44q0,11.13,0,22.26l-1.25.36c-.41-.77-1.19-1.54-1.19-2.32-.06-16.13-.11-32.27,0-48.4,0-4.46,2.86-7.14,6.79-6.91,4.16.24,6.45,2.72,6.47,6.77.1,16.47,0,32.93,0,49.4,0,.4-.37.8-.56,1.2Z"/><path class="cls-6" d="M268.08,121.49c4.58-2,5.85.73,6.47,4.45.22.77.44,1.54.65,2.31l1.87-.77,1,2c-.56.54-1.64,1.12-1.6,1.62a49.09,49.09,0,0,0,1,5.6l-2.94,0L272,132.5h0l.24-1.55-1.25,0,.05.07c.06-.9.12-1.79.19-2.69l-2.66.61a1.4,1.4,0,0,1-.58-.6l2.4-.39c-.46-.5-.92-1-1.39-1.48l-4.4-2.48c-5.68-2.61-10.5-1.62-14.59,3L250,127l-2.59,2-.27,1.77c-1.26,2.12-2.52,4.25-4.19,7-4.22-11.74-8.88-15.54-17.25-14.9-7,.54-11.62,5.3-13.34,13.88h-2.75c1-8.65,5.4-14,13.16-16,7.95-2.13,14.31.67,20.59,9l5.15-5.77,0-.39.39-.05,1.35-.53a.66.66,0,0,1,.64-.56c2.45-.85,4.94-1.62,7.33-2.62.57-.24.82-1.27,1.21-1.93h1c.59,2.49,2.92,2.95,5,1h1Z"/><path class="cls-7" d="M51,185.13c-.13-1.59-.37-3.18-.37-4.77q0-20.75,0-41.48c0-1.16.4-2.56-.09-3.45-1.07-1.93-2.39-4.84-4-5.13-3.26-.58-4.34,2.25-4.34,5.26q0,22.23,0,44.47c0,1.68-.15,3.36-.23,5.05l-1.33.08a11.46,11.46,0,0,1-.74-2.78q-.06-23.49,0-47c0-5,2.37-7.7,6.46-7.77s6.69,2.69,6.7,7.54c.06,15.82,0,31.65,0,47.47a17.83,17.83,0,0,1-.28,2.3Z"/><path class="cls-8" d="M280,166.19c-.32,8.66-4.49,14.88-12.38,18.19-9.25,3.88-17.16,1.06-24-6.08-6.75,7.2-14.79,10-24.14,6.14-7.88-3.27-12.12-9.48-12.5-18.14l2.5.72c1.06,8,5.28,13.72,13.14,15.77,9,2.35,15.88-1.27,21-9.23,5.15,8,12.23,11.68,21.35,9.07,7.56-2.17,11.7-7.79,12.54-15.7Z"/><path class="cls-9" d="M209.49,167l-2.5-.72-2.5-.72-2.43-1.4-2.93-2.37-2.19-3.34V145.1l2.23-3.28,2.9-2.75,2.38-1.54,2.59-.63,2.61-.13h2.75l2.53.21,2.76,1,2.25,1.73,4.9,5.68c.1.52.19,1,.29,1.57.3.72.59,1.44.89,2.17l.12,5.71c-.83,1.68-1.65,3.35-2.48,5l-2.73,3-3,2.14-2.85.71c1.14-2.24,2.19-4.52,3.42-6.71,1.39-2.45,2.93-4.81,4.4-7.21L215,140.32l-2.51-.34-4.65,1.28-3.33.64-2.75,1.6c-4.63,5.83-4.62,10.76,0,16.27l2.76,2.13,2.37,1.08,2.28.76,3.32-1.88-.33,4.54Z"/><path class="cls-10" d="M280,166.19l-2.54.74-3.12-.37-2.33-.41-3-1.06-1.87-1.17L266,163l-3-3.42-3.17-4.64,4.36-.63.85.73L265,155l6,7.08,0-.08.68.89,2.39.69,3.29.19L280,163c5.44-2,8.13-5.5,8.31-10.84.19-5.73-2.37-9.4-8.32-11.94l-2.75-.34-3,.12c-5.32,1.94-8.59,5.76-10.22,11.09l-2.59-.14-1.39-1.1a4.77,4.77,0,0,0-.17-.65c.35-1.07.71-2.14,1.06-3.21l2.4-2.85,2.63-2.94,1.31-1,1.77-1.09,3.07-1.15,2.41-.24,2.94,0,1.56.16.48.14.49-.08c9.53,4.67,13.26,12.19,10,20.25C288.15,161.79,284.58,164.54,280,166.19Z"/><path class="cls-11" d="M126.53,115.91c3.33,3.49,3.17,66.88,0,69.51Z"/><path class="cls-2" d="M209.65,136.77l-2.61.13c.49-8.65,4.84-14.64,12.75-17.9s15.67-1.23,23.53,5.9l4.82-2.62c.14.58.27,1.15.41,1.73l-5.15,5.77c-6.28-8.37-12.64-11.17-20.59-9C215.05,122.81,210.69,128.12,209.65,136.77Z"/><path class="cls-12" d="M102.19,132.7c3.69-5.2,4.55-11.95,9-16.41l1.55.92-10.59,22.73-10.64-22.6,1.43-.91C97.69,120.61,98.06,127.81,102.19,132.7Z"/><path class="cls-13" d="M91.4,184.39c3.42-7.27,6.84-14.55,10.61-22.55,3.69,8.07,7,15.3,10.32,22.53l-1.41.81C106.48,180.8,106,174,102.06,169c-4.15,4.47-4.27,12-9.36,16.16Z"/><path class="cls-4" d="M98.54,116l3.54,4.16,3.46-4,1.3.78-4.75,10.67L97.18,117Z"/><path class="cls-5" d="M97.25,184.34c1.48-3.07,3-6.15,4.83-10.06L107,184.49l-.91.91-4-3.82-3.88,3.8Z"/><path class="cls-2" d="M259.49,117.93c-.39.66-.64,1.69-1.21,1.93-2.39,1-4.88,1.77-7.33,2.62.14-1.06.06-2.94.45-3C254,118.72,256.78,118.39,259.49,117.93Z"/><path class="cls-2" d="M279,136.85l-1.56-.16a49.09,49.09,0,0,1-1-5.6c0-.5,1-1.08,1.6-1.62L279.8,136Z"/><path class="cls-2" d="M265.52,118.93c-2.1,1.95-4.43,1.49-5-1Z"/><path class="cls-8" d="M268.08,121.49l-1.57-2.56,2.71,1.37Z"/><path class="cls-2" d="M277.07,127.48l-1.87.77c-.21-.77-.43-1.54-.65-2.31Z"/><path class="cls-8" d="M279,136.85l.77-.86a1.21,1.21,0,0,1,.2.92l-.49.08Z"/><path class="cls-8" d="M250.31,123l-1.35.53.06-1.9Z"/><path class="cls-1" d="M60.39,127.12C69.86,114,89,118.38,92.44,131.44c1.86,7.07,7.23,13.88,7,20.65-.28,6.93-5.49,13.67-8.57,20.48-3.6,8-10.41,11.42-19,9.62-8.39-1.75-13.27-7.48-13.38-16.12-.12-10,0-20,0-30-.06-12.53-7.69-17.27-19.17-12a7.36,7.36,0,0,1-1.92.27C40.94,116.31,51.29,117.62,60.39,127.12Zm.66,23.62h0c0,5-.22,10,0,15a14.72,14.72,0,0,0,13.58,14.16c7,.58,13.51-4.38,15.29-11.68.35-1.44.43-3.16,1.29-4.24,7.29-9.26,6-18.48.22-27.81a34.23,34.23,0,0,1-1.7-4.14c-3.46-7.87-10-11.57-17.47-9.91-6.83,1.51-11.19,7.54-11.29,15.66C61,142.08,61.05,146.41,61.05,150.74Z"/><path class="cls-1" d="M118,121l-1,3.62Z"/><path class="cls-1" d="M119,119c-.34.68-.69,1.36-1,2C118.28,120.31,118.63,119.63,119,119Z"/><path class="cls-14" d="M199.13,161.81l2.93,2.37c-.61,9.27-5.15,15.56-12.76,17.69-8.1,2.28-15.06-.64-20.33-8-4.55,2.79-8.69,6.63-13.54,8.06-10.53,3.1-20.85-4.78-21.24-15.71-.36-10.15-.26-20.32,0-30.47A16.84,16.84,0,0,1,146.56,120c8.21-2.38,15.17.47,21.12,8.85a13,13,0,0,0,1.64-1.58c5.19-7.07,12.27-9.69,20-7.37,7.93,2.37,12.37,8.59,12.63,17.66,0,.49.07,1,.1,1.49l-2.9,2.75c0-1.67-.08-3.33-.13-5-.21-8.29-6-14.55-13.72-15-8.33-.44-15.17,4.87-15.64,13.36a293,293,0,0,0,0,30.94c.39,7.62,6.46,12.89,13.77,13.3C192.81,180,198.78,173.27,199.13,161.81ZM136.93,151c0,4.67-.1,9.33,0,14A14.8,14.8,0,0,0,151,179.68a14.34,14.34,0,0,0,15.22-13.4c.48-10.3.5-20.66,0-31-.37-8.09-7.19-13.62-15.18-13.38A14.56,14.56,0,0,0,137,136.49C136.81,141.32,136.93,146.15,136.93,151Z"/><path class="cls-15" d="M120.58,177.22c-3.77-9-7.2-17-10.44-25a5.5,5.5,0,0,1,.28-3.77c3.14-7.65,6.42-15.25,10.16-24Z"/><path class="cls-3" d="M263.34,143.09l-2.4,2.85-3.84,1.19,2.78,2a4.77,4.77,0,0,1,.17.65,3.37,3.37,0,0,0,0,.95c-.65,1.07-1.31,2.14-2,3.21l-2.22,0L254,151.88l-2-1.75,3.87-4.31-6.49-6.2-2.44,5.49c-1.59-1.76-.38-5.91-4.77-6.05.44,2.63.78,4.61,1.11,6.59l-1.4.46L239,139.6c-3,2.21-7.43,3.07-5.29,7.78l-2.8,3.6L227,149l1.53-1.23-3.39-.77c-.1-.53-.19-1-.29-1.57,3.28.3,5.8-.67,7.51-3.76.64-1.15,2.17-1.82,3.3-2.7l0,0,3.68-2.25c-1.11-7.11-5.81-11.57-12.08-11.59s-11,4.45-12.34,11.83l-2.53-.21c1.72-8.58,6.3-13.34,13.34-13.88,8.37-.64,13,3.16,17.25,14.9,1.67-2.79,2.93-4.92,4.19-7,.47,2.42.93,4.82,1.4,7.22,2.18-2.33,2.85-4.55,4.1-6.37,1-1.49,2.68-3.3,4.52-.55-3.63,2.06-5.5,5-3.43,9S259.19,145.12,263.34,143.09Z"/><path class="cls-16" d="M257.21,131.08c-1.85-2.75-3.5-.94-4.53.55-1.25,1.82-1.92,4-4.1,6.37-.47-2.4-.93-4.8-1.4-7.22.09-.61.18-1.2.27-1.79.47.52.94,1,1.4,1.57.4-1.2.8-2.4,1.19-3.6L250,127c.48.3,1.24,1,1.41.84a14.61,14.61,0,0,1,12.27-2.6c.2,0,.6-.82.91-1.26l4.4,2.48-1,1.87a1.4,1.4,0,0,0,.58.6l2.47,2.08-.05-.07c.34.51.68,1,1,1.52h0c.05,1.49.11,3,.17,4.45l-3.07,1.15a30.29,30.29,0,0,0-1.83-5.86c-.41-.76-2.12-.81-3.24-1.19h0l-1.68-2.55-1.82,1.56h0l-.73-2-1.24,2Z"/><path class="cls-3" d="M264.55,124c-.31.44-.71,1.31-.91,1.26a14.61,14.61,0,0,0-12.27,2.6c-.17.12-.93-.54-1.41-.84C254.05,122.4,258.87,121.41,264.55,124Z"/><path class="cls-3" d="M272.12,137c-.06-1.48-.12-3-.17-4.45l2.58,4.21Z"/><path class="cls-3" d="M250,127c-.39,1.2-.79,2.4-1.19,3.6-.46-.53-.93-1.05-1.4-1.57Z"/><path class="cls-17" d="M271,131.05,268.52,129l2.66-.61C271.11,129.26,271.05,130.15,271,131.05Z"/><path class="cls-17" d="M267.94,128.37l1-1.87c.47.49.93,1,1.39,1.48Z"/><path class="cls-17" d="M272,132.5c-.33-.51-.67-1-1-1.52l1.25,0Z"/><path class="cls-18" d="M274.36,166.56l3.12.37c-.84,7.91-5,13.53-12.54,15.7-9.12,2.61-16.2-1.1-21.35-9.07-5.08,8-12,11.58-21,9.23-7.86-2-12.08-7.75-13.14-15.77l2.7-.62c2.21,9.29,7.88,14.58,15.3,14.26,7.81-.33,13.32-5.72,14.61-14.3l2.72-.05c1.29,8.77,7.11,14.3,14.95,14.2S273.22,175.09,274.36,166.56Z"/><path class="cls-19" d="M196.94,145.1v13.37c-.09,2-.12,4-.27,6-.57,7.67-5.76,12.75-12.77,12.56S172,171.37,172,163.72q-.09-13.25,0-26.48c.07-7.28,5-12.7,11.73-13.08,6.52-.37,12.22,4.82,12.91,12C196.91,139.09,196.84,142.1,196.94,145.1Zm-22.13,5.4c0,4.82-.15,9.64,0,14.45.21,5.5,3.94,9.09,9.13,9.12s9.16-3.42,9.3-8.95q.38-14.44,0-28.9a9,9,0,0,0-9.63-9.19c-5,.21-8.65,4-8.83,9.52C174.68,141.19,174.79,145.85,174.81,150.5Z"/><path class="cls-20" d="M196.94,145.1c-.1-3,0-6-.33-9-.69-7.14-6.39-12.33-12.91-12C177,124.54,172,130,172,137.24q-.1,13.23,0,26.48c.05,7.65,5,13.1,11.93,13.29s12.2-4.89,12.77-12.56c.15-2,.18-4,.27-6l2.19,3.34c-.35,11.46-6.32,18.18-15.68,17.66-7.31-.41-13.38-5.68-13.77-13.3a293,293,0,0,1,0-30.94c.47-8.49,7.31-13.8,15.64-13.36,7.76.41,13.51,6.67,13.72,15,.05,1.66.09,3.32.13,5C198.43,142.91,197.68,144,196.94,145.1Z"/><path class="cls-11" d="M244.82,166.31l-2.72.05-2.68-.3c-1.73-1.23-2.59-1.28-3.26,1.25-1.46,5.53-5.09,8.11-9.86,7.66s-7.73-3.83-8.41-9.88l3-2.14c-.84,4.2-.15,8.11,4.54,8.89a8.75,8.75,0,0,0,7.11-2.73c1.14-1.5.78-5.13-.27-7.11-1.78-3.39-5.19-3.71-8.65-2.09.83-1.67,1.65-3.34,2.48-5,2.44-1.74,4-1.19,6.28,1,2.86,2.8,4.36,7.6,9.49,7.64l2.9.23Z"/><path class="cls-21" d="M239.42,166.06l2.68.3c-1.29,8.58-6.8,14-14.61,14.3-7.42.32-13.09-5-15.3-14.26.11-1.51.22-3,.32-4.53l.45-1.31,2.13-3.9,7.77-4.78c-1.47,2.4-3,4.76-4.4,7.21-1.23,2.19-2.28,4.47-3.42,6.71.52,7.12,5.21,11.95,11.81,12.2C233.66,178.26,238.38,173.77,239.42,166.06Z"/><path class="cls-22" d="M235.65,139c-1.13.88-2.66,1.55-3.3,2.7-1.71,3.09-4.23,4.06-7.51,3.76l-4.9-5.68a23.09,23.09,0,0,1,.79-4.83c1.81-4.78,8-6.05,11.27-2.23C233.53,134.52,234.45,136.87,235.65,139Z"/><path class="cls-22" d="M223.66,159.91c3.46-1.62,6.87-1.3,8.65,2.09,1.05,2,1.41,5.61.27,7.11a8.75,8.75,0,0,1-7.11,2.73c-4.69-.78-5.38-4.69-4.54-8.89Z"/><path class="cls-23" d="M241.91,163.55c-5.13,0-6.63-4.84-9.49-7.64-2.26-2.21-3.84-2.76-6.28-1l-.12-5.71a1.56,1.56,0,0,1,1-.17l3.95,2C236.83,153.23,240.91,157.05,241.91,163.55Z"/><path class="cls-13" d="M217.69,138c.74-6.81,4.49-10.5,10.21-10q8.26.69,7.77,11l0,0c-1.2-2.11-2.12-4.46-3.65-6.28-3.24-3.82-9.46-2.55-11.27,2.23a23.09,23.09,0,0,0-.79,4.83Z"/><path class="cls-17" d="M204.55,161.9l-2.76-2.13,0-16.27,2.75-1.6Q204.54,151.9,204.55,161.9Z"/><path class="cls-13" d="M215,140.32l.09,16.35L213,160.56q-.24-10.29-.47-20.58Z"/><path class="cls-24" d="M206.92,163l1-13.24c.42,2.87.93,5.73,1.22,8.61a51,51,0,0,1,0,5.39Z"/><path class="cls-17" d="M227,149a1.56,1.56,0,0,0-1,.17c-.3-.73-.59-1.45-.89-2.17l3.39.77Z"/><path class="cls-15" d="M280,140.17c5.95,2.54,8.51,6.21,8.32,11.94-.18,5.34-2.87,8.86-8.31,10.84-1.58-3.92-3.17-7.83-4.52-11.16C277.05,147.77,278.53,144,280,140.17Z"/><path class="cls-25" d="M244.82,166.31v-2.53a15.38,15.38,0,0,1,9.22-11.9l1.78,2.12-.93,1c-2,1.66-4.15,3.26-6.08,5.05-.25.23.41,1.45.65,2.21l-.35,1.94,0-.05-1.81,1.67c1.29,7.9,5.69,12.22,12.41,12.16,6.48-.05,11-4.38,12.28-11.84l2.33.41c-1.14,8.53-6.71,13.85-14.59,13.95S246.11,175.08,244.82,166.31Z"/><path class="cls-15" d="M263,159.57l3,3.42.3,1a38.41,38.41,0,0,0-1.12,5.63c0,.58,1.2,1.24,1.85,1.86a.46.46,0,0,0-.46.48,10.32,10.32,0,0,0-3-.81c-2,.08-4,.48-6.06.75l-3-2c-.09-2.7-1-5.79-.06-8C256,158.49,259.58,158.36,263,159.57Z"/><path class="cls-15" d="M260.49,130.05h0l3.5,1h0l2.36,7.91-.37,1.19-2.63,2.94c-4.15,2-7.52.94-9.57-3s-.2-6.92,3.43-9l1.32-1Z"/><path class="cls-26" d="M254.54,170l3,2c.53,1,1.32,2.85,1.55,2.79,2.55-.74,5-1.78,7.5-2.73a.46.46,0,0,1,.46-.48l2-6.44,3,1.06c-1.31,7.46-5.8,11.79-12.28,11.84-6.72.06-11.12-4.26-12.41-12.16l1.81-1.67,0,.05c.9,2,1.65,4.17,2.74,6.1S253.06,172.12,254.54,170Z"/><path class="cls-16" d="M277.33,163.73l-3.29-.19c-.14-6.3-4.65-9.32-9.22-12.3,5.22-2,8.49-5.68,9.43-11.29l3-.11-5.1,11.78Z"/><path class="cls-8" d="M277.33,163.73l-5.18-12.11,5.1-11.78,2.75.33c-1.47,3.8-2.95,7.6-4.51,11.62,1.35,3.33,2.94,7.24,4.52,11.16Z"/><path class="cls-3" d="M254.54,170c-1.48,2.15-1.63,2.23-2.69.34s-1.84-4.06-2.74-6.1c.12-.65.23-1.29.36-1.94l5.67-6.24,3.92-.88a7.59,7.59,0,0,1,.78-.22l3.17,4.64c-3.43-1.21-7-1.08-8.53,2.39C253.49,164.18,254.45,167.27,254.54,170Z"/><path class="cls-25" d="M259.84,154.93a7.59,7.59,0,0,0-.78.22L258,154c.66-1.07,1.32-2.14,2-3.21l1.43.15L264,151a4.16,4.16,0,0,1,.79.2c4.57,3,9.08,6,9.22,12.3l-2.39-.69L271,162l0,.08L265,155l.08.07-.85-.73Z"/><path class="cls-8" d="M264.82,151.24a4.16,4.16,0,0,0-.79-.2c1.63-5.33,4.9-9.15,10.22-11.09C273.31,145.56,270,149.21,264.82,151.24Z"/><path class="cls-3" d="M266.34,139,264,131.05c1.12.38,2.83.43,3.24,1.19a30.29,30.29,0,0,1,1.83,5.86l-1.77,1.09A1.17,1.17,0,0,0,266.34,139Z"/><path class="cls-14" d="M265,155l6,7.08Z"/><path class="cls-3" d="M269,165.09l-2,6.44c-.65-.62-1.89-1.28-1.85-1.86a38.41,38.41,0,0,1,1.12-5.63,1.52,1.52,0,0,0,.84-.12Z"/><path class="cls-17" d="M259.88,149.15l-2.78-2,3.84-1.19C260.59,147,260.23,148.08,259.88,149.15Z"/><path class="cls-14" d="M264.2,154.3l.85.73Z"/><path class="cls-17" d="M266.34,139a1.17,1.17,0,0,1,.94.23l-1.31,1C266.09,139.75,266.21,139.35,266.34,139Z"/><path class="cls-17" d="M261.44,150.9l-1.43-.15a3.37,3.37,0,0,1,0-.95Z"/><path class="cls-14" d="M271,162l.68.89Z"/><path class="cls-17" d="M267.13,163.92a1.52,1.52,0,0,1-.84.12l-.3-1Z"/><path class="cls-12" d="M61.05,150.74c0-4.33,0-8.66,0-13,.1-8.12,4.46-14.15,11.29-15.66,7.47-1.66,14,2,17.47,9.91a34.23,34.23,0,0,0,1.7,4.14c5.73,9.33,7.07,18.55-.22,27.81-.86,1.08-.94,2.8-1.29,4.24-1.78,7.3-8.26,12.26-15.29,11.68a14.72,14.72,0,0,1-13.58-14.16c-.27-5,0-10,0-15ZM82.12,150l0,1.83H63.82c0,4.19,0,7.64,0,11.09a30.49,30.49,0,0,0,.2,4.49,11.69,11.69,0,0,0,10.09,9.63,12,12,0,0,0,12.77-7.48c2.21-5.53,4.57-11,6.76-16.52.44-1.12.9-2.65.5-3.64-2.69-6.61-5.28-13.3-8.57-19.61-2.26-4.32-6.66-6-11.51-5.32-5,.75-9,3.76-9.75,8.75-.8,5.29-.18,10.79-.18,16.78Z"/><path class="cls-20" d="M136.93,151c0-4.83-.12-9.66,0-14.49a14.56,14.56,0,0,1,14.14-14.55c8-.24,14.81,5.29,15.18,13.38.48,10.3.46,20.66,0,31A14.34,14.34,0,0,1,151,179.68,14.8,14.8,0,0,1,137,165C136.83,160.31,136.93,155.65,136.93,151Zm27-.06c0-4.66.11-9.33,0-14-.19-7-5.11-12.17-11.72-12.53a12.07,12.07,0,0,0-12.7,11.48c-.41,10-.41,20,.06,29.94.33,7,6.08,11.53,12.82,11.19A12.19,12.19,0,0,0,164,164.9C164.11,160.24,164,155.58,164,150.92Z"/><path class="cls-16" d="M254,151.88a15.38,15.38,0,0,0-9.22,11.9l-2.91-.23c-1-6.5-5.08-10.32-11-12.57l2.8-3.6c-2.14-4.71,2.32-5.57,5.29-7.78l2.85,6.51,1.4-.46c-.33-2-.67-4-1.11-6.59,4.39.14,3.18,4.29,4.77,6.05l5.06,5Zm-17.93-3,.71,1.32,1.5,1.25,3.65,3.62c2.3,2.29,2.3,2.29,6.49-3.7l-5-5.25-1.18,1a14.89,14.89,0,0,1,1.9,3.55c.17.65-.75,1.58-1.17,2.38q-1.52-1.49-3-3C238.67,149.64,237.35,149.27,236.11,148.86Z"/><path class="cls-19" d="M252,150.13l-5.06-5,2.44-5.49,6.49,6.2Z"/><path class="cls-17" d="M258,154l1,1.19-3.92.88-.25-1,.93-1Z"/><path class="cls-3" d="M264,131l-3.5-1,1.82-1.56Z"/><path class="cls-17" d="M260.49,130.05h-2l1.24-2Z"/><path class="cls-27" d="M174.8,150.5c0-4.65-.12-9.31,0-13.95.18-5.54,3.79-9.31,8.83-9.52a9,9,0,0,1,9.63,9.19q.36,14.44,0,28.9c-.14,5.53-4.09,9-9.3,8.95s-8.92-3.62-9.13-9.12C174.66,160.14,174.81,155.32,174.8,150.5Zm16.19-.06c0-4.48.1-9,0-13.46s-3-7.51-6.93-7.49-6.85,3-6.91,7.56q-.18,13.45,0,26.92c.06,4.58,2.88,7.67,6.73,7.8,4,.14,7-3.08,7.13-7.87C191.07,159.42,191,154.93,191,150.44Z"/><path class="cls-3" d="M249.15,164.16l-1.81,1.67Z"/><path class="cls-3" d="M266.56,172c-2.49,1-4.95,2-7.5,2.73-.23.06-1-1.82-1.55-2.79,2-.27,4-.67,6.05-.75A10.32,10.32,0,0,1,266.56,172Z"/><path class="cls-28" d="M82.12,150h-18c0-6-.62-11.49.18-16.78.76-5,4.7-8,9.75-8.75,4.85-.71,9.25,1,11.51,5.32,3.29,6.31,5.88,13,8.57,19.61.4,1-.06,2.52-.5,3.64-2.19,5.53-4.55,11-6.76,16.52a12,12,0,0,1-12.77,7.48A11.69,11.69,0,0,1,64,167.42a30.49,30.49,0,0,1-.2-4.49c0-3.45,0-6.9,0-11.09H82.14Zm2.06,15.37c-3.16,4-5.75,9.41-12,5.91-5.28-2.95-3.38-8.34-3.65-14H82.29l-.09-1.6H66c0,3.55-.21,7.05.06,10.51A9.52,9.52,0,0,0,75.77,175C80.86,174.87,84.27,171.34,84.18,165.38ZM67.1,143.68c1.74-4.64,2.11-9.89,4.92-12.25,5.68-4.78,8.81,1.66,12.45,5.71,0-5.92-3.16-9.33-8.29-9.74a9.51,9.51,0,0,0-10.09,8.33c-.35,3.57-.07,7.2-.07,10.85h15.9l.25-1.81Z"/><path class="cls-22" d="M164,150.92c0,4.66.13,9.32,0,14A12.19,12.19,0,0,1,152.42,177c-6.74.34-12.49-4.19-12.82-11.19-.47-10-.47-20-.06-29.94a12.07,12.07,0,0,1,12.7-11.48c6.61.36,11.53,5.53,11.72,12.53C164.09,141.59,164,146.26,164,150.92Zm-3.58,13.17a22,22,0,0,0-2.41,3c-1.57,3.45-4.15,5.32-7.92,4.46s-5.38-3.58-5.37-7.39c0-9.16,0-18.32.05-27.47,0-3.57,1.7-6.07,5.35-6.8s6.08.8,7.78,4a16,16,0,0,0,2.16,2.53c-.37-6.43-3.73-9.56-8.76-9.44-4.62.11-9,3.56-9.12,8.29-.32,10.31-.34,20.65,0,31,.18,4.95,4.78,8.28,9.72,8.07C157.06,174.1,160.14,170.91,160.4,164.09Z"/><path class="cls-3" d="M243,153c.42-.8,1.34-1.73,1.17-2.38a14.89,14.89,0,0,0-1.9-3.55l1.18-1,5,5.25c-4.19,6-4.19,6-6.49,3.7Z"/><path class="cls-17" d="M243,153,242,155.05l-3.65-3.62L240,150Q241.5,151.51,243,153Z"/><path class="cls-3" d="M240,150l-1.68,1.42-1.5-1.25L236,148.9Z"/><path class="cls-3" d="M236.82,150.18c-.24-.44-.47-.88-.75-1.3C236.3,149.32,236.56,149.75,236.82,150.18Z"/><path class="cls-15" d="M191,150.44c0,4.49.08,9,0,13.46-.1,4.79-3.11,8-7.13,7.87-3.85-.13-6.67-3.22-6.73-7.8q-.15-13.46,0-26.92c.06-4.57,2.95-7.53,6.91-7.56s6.81,2.95,6.93,7.49S191,146,191,150.44Z"/><path class="cls-24" d="M84.18,165.38c.09,6-3.32,9.49-8.41,9.6a9.52,9.52,0,0,1-9.72-8.77c-.27-3.46-.06-7-.06-10.51H82.2l.09,1.6H68.53c.27,5.65-1.63,11,3.65,14C78.43,174.79,81,169.34,84.18,165.38Z"/><path class="cls-24" d="M67.1,143.68l15.07,1.09-.25,1.81H66c0-3.65-.28-7.28.07-10.85a9.51,9.51,0,0,1,10.09-8.33c5.13.41,8.34,3.82,8.29,9.74-3.64-4-6.77-10.49-12.45-5.71C69.21,133.79,68.84,139,67.1,143.68Z"/><path class="cls-24" d="M160.4,164.09c-.26,6.82-3.34,10-8.5,10.23-4.94.21-9.54-3.12-9.72-8.07-.36-10.31-.34-20.65,0-31,.15-4.73,4.5-8.18,9.12-8.29,5-.12,8.39,3,8.76,9.44a16,16,0,0,1-2.16-2.53c-1.7-3.17-4.21-4.69-7.78-4s-5.32,3.23-5.35,6.8c-.06,9.15,0,18.31-.05,27.47,0,3.81,1.63,6.54,5.37,7.39s6.35-1,7.92-4.46A22,22,0,0,1,160.4,164.09Z"/></g></g></svg>