<svg xmlns="http://www.w3.org/2000/svg" viewBox="0 0 300 300"><defs><style>.cls-1{fill:#fff;}</style></defs><g id="Layer_2" data-name="Layer 2"><g id="Layer_1-2" data-name="Layer 1"><path class="cls-1" d="M300,300H0V0H300ZM63.9,192.85c-2.47-3.81-4.6-7.11-6.92-10.68,1.84-1.28,3.32-2.32,4.82-3.35q19.74-13.59,39.51-27.16c2.56-1.75,5.29-3.25,2.45-6.93l18.31-11.87-.51-1-21.79,4.64,1.65,6.46L45.51,164.8c2,3.64,3.73,6.79,5.57,10.12l-4.32,3.27c4.3,6.16,8.43,12.1,12.76,18.33Zm166.54-34.44c-1.93-.73-3.62-1.36-5.29-2-14.41-5.63-28.76-11.4-43.25-16.82-3.82-1.43-8-1.78-13.22-2.87,1.93,3,3.07,4.71,4.84,7.45l2.78-4.95,48.43,35c2-3.41,3.77-6.53,5.85-10.15l22.21,11.4c2.69-6.65,5.21-12.85,7.89-19.45l-25.81-7.15C233.34,152.12,232,155.09,230.44,158.41ZM234,141.66c.37-1.95.88-3.24.81-4.5-.29-4.89,1.67-6.23,6.54-5.5,7.66,1.15,15.43,1.52,23.31,2.23v-20l-30,3.6v8.67h-5.74c-15.82,0-31.64-.07-47.45.07-2.8,0-5.59,1-8.38,1.53l-.08,1.19,3.44,1.4C178,126,181,128.94,183,129.4,199.79,133.27,216.55,137.43,234,141.66ZM94.22,116.05v8.83H34.59c.53,3.32,1,5.89,1.31,8.49.16,1.44.41,4-.14,4.21-3.74,1.56-1.74,4.24-1.38,6.35a104.79,104.79,0,0,0,2.83,12.14c.31,1.06,1.74,1.78,2.65,2.65.34-1.11,1.1-2.3.93-3.33-.54-3.39-1.42-6.72-2.26-10.47l57.15-13.34-.38-5.33,24.38-3.77v-1Zm121.91,72.34c-1.51-1.25-2.8-2.25-4-3.34-10.2-9.3-20.24-18.8-30.66-27.86-5.42-4.72-11.52-8.67-17.32-13l-.9.87c1,2.68,2,5.36,3,8.08l4.47-1.95,34.5,49.34,7.51-6.56,14.17,15.37,14.15-15.53-18.14-13.36ZM93.53,102.86,39.07,82.42l-5.45,19.33L92.41,111l1.34-5.73L122.53,112l.32-1L96.31,95.07Zm116.1,118.66-9.42-15.41-10.78,5.19c-1.31-2.62-2.44-4.82-3.52-7.05q-10.32-21.34-20.67-42.67a12.3,12.3,0,0,0-2.58-3.27c-1.24-1.21-2.93-2-3.95-3.35-1.24-1.63-2-3.64-3.49-6.54v12.34l4.76-.68c4.83,19.66,9.61,39.08,14.43,58.69L185.06,215l7.14,15.74Zm-139.72-24,8.55,8.21c-1.23,1.85-2.38,3.59-3.64,5.51l16.29,11.46,3-6.7-8.79-6.2c1.19-1.77,2.18-3.25,3.19-4.73,9.41-13.74,18.9-27.43,28.14-41.28,1.29-1.93,1.37-4.67,2-7l-1.37-.53q5.57-7.37,11.14-14.74l-.72-.67-16.94,10.34,4.3,5.48ZM48.8,61.52,97,88.5l3.59-4.8,26.82,18.71.59-.69c-6.91-8.86-13.82-17.72-22-28.14l-4.52,8.09L61.34,45C57.06,50.67,53.14,55.82,48.8,61.52Zm71.74,162.26a17.85,17.85,0,0,1,.21-2.23c5.67-23.49,12.95-46.62,15.36-70.81.12-1.14.42-2.26.64-3.39l-.77-.24-10.36,13.83,4.29,3c-8.9,18.28-17.68,36.35-26.63,54.74l10.42,3.91c-.92,3.32-1.71,6.15-2.65,9.55l19.23,4.36c.58-3.71,1-6.61,1.52-9.77Zm-3.63-160.7c-7.67-15-15.13-29.53-22.74-44.4L77.59,29c11.15,13.82,21.77,27,32.49,40.3l5.17-3.43L135.7,95.65l.75-.45c-4-12-8.08-24.07-12.2-36.36ZM157.48,224c-3.94-24.77-4.25-49.47-12-73.54-1.51,4.67-2.91,9-4.36,13.49l4.92,1.63c-1.88,19.93-3.73,39.53-5.6,59.33l9.56,1c.35,4,.68,7.78,1.06,12.09l20-1.36c-1.18-5-2.28-9.63-3.38-14.28ZM114,9.94c5.42,15.13,10.61,29.58,15.79,44l6.12-1.08c3.14,12.93,6.22,25.58,9.29,38.22l1.29-.18V50.19H139c-1.77-14.74-3.53-29.33-5.32-44.19Zm96.89,61.44L174.4,104.1l.67.88L219.35,82.5,214,74.16l28.53-21.35L230.5,38.23,205.69,65.42ZM231,109.77a28,28,0,0,0-.68-4.44c-1.39-4-.23-6.09,4.15-6.85,4.07-.71,8-2.15,12-3.27l15-4.16-6.81-18.44L233.89,83.17c-8.57,4.35-8.57,4.35-6.72,13.37l-47.89,18.55.27.94Zm-43.6-54.09L166.91,96.07l.91.57,30.93-34.23-7.24-6L212.3,24.18,196,14.9,180.94,51.42ZM156.2,92.62l.87.13c5.59-13.64,11.18-27.28,16.85-41.14l-8.82-3.33,9.84-40-18.44-3c-.77,14.73-1.5,28.9-2.25,43.17l7.6.74C159.93,64,158.06,78.3,156.2,92.62ZM48.39,291.42c-2.89-8.2-5.44-14.86-7.55-21.66-1.26-4.06-3.34-5.38-7.68-3.64,0,8.39-.08,16.85.09,25.3,0,1.21,1.3,2.38,2,3.57.54-1.18,1.53-2.35,1.56-3.54.15-6.37.07-12.75.07-19.12,3.46,6.14,5.66,12.5,8.11,18.76.58,1.49,2,2.67,3,4,1.19-1.35,2.85-2.51,3.5-4.09,2.41-5.9,4.48-11.93,6.68-17.91l1.28.22c0,1.73,0,3.47,0,5.21,0,4.66-.07,9.33.11,14,0,.84,1.12,1.65,1.72,2.47.59-.62,1.68-1.23,1.69-1.85.11-9.1.07-18.19.07-27-4-1.57-5.45-.06-6.49,3C54.13,276.13,51.46,283.09,48.39,291.42ZM203,287.55c1.22,5.3,3.71,7.35,7.65,7.68,4.34.37,8.12-.89,10.09-4.93a23.56,23.56,0,0,0,.58-19.85c-2.1-5.13-8.72-7-13.64-4.41-4.47,2.32-6.4,8.57-4.16,13.47,2.13,4.66,7.52,6.3,12.76,3.88.83-.37,1.64-.77,2.46-1.15l1.07.67c-1.1,2.64-1.6,5.8-3.4,7.8C211.37,296.36,207.91,289.42,203,287.55ZM248,274.16c1-.66,2.28-1.11,2.92-2,2.9-4,6.8-5.11,10.08-2.53,3,2.34,2.91,5.85-.67,9.53-3,3.1-6.62,5.6-9.65,8.68-1.9,1.94-3.2,4.46-5.1,7.19,13.68,1.64,20.07.87,21.25-3H250.85c4.9-4.33,8.75-7.49,12.31-10.95,3-2.94,4.87-6.49,2.72-10.79s-6-5-10.19-4.66C251.15,266,247.82,268.06,248,274.16Zm-86.46-8.88-2,.55v29l1.32.49c.58-1.15,1.54-2.27,1.66-3.47.26-2.64,0-5.32.12-8,.18-5.19,2.5-8.1,6.38-7.75,4.87.45,4.88,4.21,4.92,7.8s0,7.32,0,11l2.06.3a12.64,12.64,0,0,0,1.14-3.44c.15-3.65.16-7.33,0-11-.24-5.82-4.16-8.67-9.78-7.21-1.4.37-2.75,1-4.15,1.45ZM89.31,293.8c0-5.63,0-12.32-.11-19,0-.27-1.61-.51-3.21-1,0,4.8.2,9.11-.07,13.38-.23,3.68-2.57,5.83-6.26,5.75-3.85-.08-4.89-2.76-4.82-6.19.07-4.13,0-8.26,0-12.39l-1.69-.69c-.66,1.12-1.79,2.2-1.87,3.36-.25,3.48-.17,7-.08,10.48.17,6.95,5.11,10.05,11.56,7.51C84.42,294.36,86.29,294.33,89.31,293.8Zm24.82,1.53,1.78-.74c0-4.3.06-8.6,0-12.9-.11-7.24-5.08-10.35-11.8-7.5-1,.43-2.51,1.09-3.17.67-3.2-2.05-3.3.12-3.33,2.27-.07,4.82-.14,9.65.07,14.46,0,1.13,1.24,2.2,1.9,3.3.49-1.07,1.31-2.11,1.41-3.22.36-3.79-.23-7.83.94-11.31.64-1.89,4-3.62,6.32-3.87,1.16-.13,3.48,3.08,3.87,5.06.66,3.37.06,7,.3,10.44C112.49,293.14,113.53,294.22,114.13,295.33ZM152,279.85c-1.27-6.3-4.5-7.91-10.27-6.77-5,1-7.67,5-7.58,11.27.08,5.88,2.94,9.83,7.83,10.56,4.18.62,8.08,0,10.4-4,.51-.89.1-2.31.11-3.48-1,.57-2.37.9-2.83,1.75-1.64,3.06-4.41,4.16-7.07,2.81-2-1-3.67-3.58-4.47-5.81-.67-1.84-.24-4.34.4-6.32,1.54-4.81,6.76-5.83,10.3-2.3A25.67,25.67,0,0,0,152,279.85Zm86.81-11.36c-3.24,8.3-6.13,15.44-8.73,22.68-.42,1.16.46,2.79.74,4.21a18.87,18.87,0,0,0,2.65-3.34c3.39-7.11,6.64-14.29,9.95-21.44.58-1.25,1.21-2.47,1.89-3.85H225.11l-.08,1.74Zm-47.54,3.89c0,7.2-.07,13.64.08,20.08,0,1,1.13,1.93,1.74,2.89.6-1,1.7-1.88,1.72-2.84.16-6.45.09-12.92.09-19.38v-9L183.22,274.6l1.12,1.25C186.35,274.84,188.36,273.84,191.24,272.38ZM124,284.28c0,2.82-.1,5.65.07,8.46,0,.75.93,1.44,1.42,2.16.58-.65,1.63-1.29,1.65-2q.2-8.44,0-16.9c0-.65-1.09-1.27-1.68-1.91-.48.73-1.33,1.44-1.38,2.2C123.89,279,124,281.63,124,284.28Z"/><path d="M63.9,192.85l-4.38,3.67c-4.33-6.23-8.46-12.17-12.76-18.33l4.32-3.27c-1.84-3.33-3.57-6.48-5.57-10.12L101.42,143l-1.65-6.46,21.79-4.64.51,1-18.31,11.87c2.84,3.68.11,5.18-2.45,6.93Q81.53,165.19,61.8,178.82c-1.5,1-3,2.07-4.82,3.35C59.3,185.74,61.43,189,63.9,192.85Z"/><path d="M230.44,158.41c1.53-3.32,2.9-6.29,4.43-9.59L260.68,156c-2.68,6.6-5.2,12.8-7.89,19.45L230.58,164c-2.08,3.62-3.88,6.74-5.85,10.15l-48.43-35-2.78,4.95c-1.77-2.74-2.91-4.49-4.84-7.45,5.18,1.09,9.4,1.44,13.22,2.87,14.49,5.42,28.84,11.19,43.25,16.82C226.82,157.05,228.51,157.68,230.44,158.41Z"/><path d="M234,141.66c-17.44-4.23-34.2-8.39-51-12.26-2-.46-5-3.41-6.49.92l-3.44-1.4.08-1.19c2.79-.54,5.58-1.5,8.38-1.53,15.81-.14,31.63-.07,47.45-.07h5.74v-8.67l30-3.6v20c-7.88-.71-15.65-1.08-23.31-2.23-4.87-.73-6.83.61-6.54,5.5C234.87,138.42,234.36,139.71,234,141.66Z"/><path d="M94.22,116.05l25.47,5.4v1L95.3,126.25l.38,5.33L38.53,144.92c.84,3.75,1.72,7.08,2.26,10.47.17,1-.59,2.22-.93,3.33-.91-.87-2.34-1.59-2.65-2.65a104.79,104.79,0,0,1-2.83-12.14c-.36-2.11-2.36-4.79,1.38-6.35.55-.23.3-2.77.14-4.21-.29-2.6-.78-5.17-1.31-8.49H94.22Z"/><path d="M216.13,188.39l6.78-7.91,18.14,13.36L226.9,209.37,212.73,194l-7.51,6.56-34.5-49.34-4.47,1.95c-1-2.72-2-5.4-3-8.08l.9-.87c5.8,4.3,11.9,8.25,17.32,13,10.42,9.06,20.46,18.56,30.66,27.86C213.33,186.14,214.62,187.14,216.13,188.39Z"/><path d="M93.53,102.86l2.78-7.79L122.85,111l-.32,1-28.78-6.71L92.41,111l-58.79-9.26,5.45-19.33Z"/><path d="M209.63,221.52l-17.43,9.24L185.06,215l-10.65,3.75c-4.82-19.61-9.6-39-14.43-58.69l-4.76.68V148.42c1.51,2.9,2.25,4.91,3.49,6.54,1,1.34,2.71,2.14,3.95,3.35a12.3,12.3,0,0,1,2.58,3.27q10.39,21.3,20.67,42.67c1.08,2.23,2.21,4.43,3.52,7.05l10.78-5.19Z"/><path d="M69.91,197.49l45.17-40.88-4.3-5.48,16.94-10.34.72.67q-5.56,7.38-11.14,14.74l1.37.53c-.64,2.36-.72,5.1-2,7C107.42,177.61,97.93,191.3,88.52,205c-1,1.48-2,3-3.19,4.73l8.79,6.2-3,6.7L74.82,211.21c1.26-1.92,2.41-3.66,3.64-5.51Z"/><path d="M48.8,61.52c4.34-5.7,8.26-10.85,12.54-16.5l40.22,36.65,4.52-8.09c8.14,10.42,15,19.28,22,28.14l-.59.69L100.63,83.7,97,88.5Z"/><path d="M120.54,223.78l11.26,2.94c-.49,3.16-.94,6.06-1.52,9.77l-19.23-4.36c.94-3.4,1.73-6.23,2.65-9.55l-10.42-3.91c9-18.39,17.73-36.46,26.63-54.74l-4.29-3L136,147.11l.77.24c-.22,1.13-.52,2.25-.64,3.39-2.41,24.19-9.69,47.32-15.36,70.81A17.85,17.85,0,0,0,120.54,223.78Z"/><path d="M116.91,63.08l7.34-4.24c4.12,12.29,8.16,24.33,12.2,36.36l-.75.45L115.25,65.87l-5.17,3.43C99.36,56,88.74,42.82,77.59,29L94.17,18.68C101.78,33.55,109.24,48.11,116.91,63.08Z"/><path d="M157.48,224l10.22-1.63c1.1,4.65,2.2,9.27,3.38,14.28l-20,1.36c-.38-4.31-.71-8.06-1.06-12.09l-9.56-1c1.87-19.8,3.72-39.4,5.6-59.33l-4.92-1.63c1.45-4.51,2.85-8.82,4.36-13.49C153.23,174.49,153.54,199.19,157.48,224Z"/><path d="M114,9.94,133.72,6c1.79,14.86,3.55,29.45,5.32,44.19h7.41V90.92l-1.29.18c-3.07-12.64-6.15-25.29-9.29-38.22L129.75,54C124.57,39.52,119.38,25.07,114,9.94Z"/><path d="M210.85,71.38l-5.16-6L230.5,38.23l12.07,14.58L214,74.16l5.31,8.34L175.07,105l-.67-.88Z"/><path d="M231,109.77,179.55,116l-.27-.94,47.89-18.55c-1.85-9-1.85-9,6.72-13.37l20.78-10.56,6.81,18.44-15,4.16c-4,1.12-7.94,2.56-12,3.27-4.38.76-5.54,2.82-4.15,6.85A28,28,0,0,1,231,109.77Z"/><path d="M187.43,55.68l-6.49-4.26L196,14.9l16.3,9.28L191.51,56.42l7.24,6L167.82,96.64l-.91-.57Z"/><path d="M156.2,92.62c1.86-14.32,3.73-28.64,5.65-43.43l-7.6-.74C155,34.18,155.73,20,156.5,5.28l18.44,3-9.84,40,8.82,3.33c-5.67,13.86-11.26,27.5-16.85,41.14Z"/><path d="M48.39,291.42c3.07-8.33,5.74-15.29,8.16-22.34,1-3.06,2.52-4.57,6.49-3,0,8.83,0,17.92-.07,27,0,.62-1.1,1.23-1.69,1.85-.6-.82-1.69-1.63-1.72-2.47-.18-4.65-.1-9.32-.11-14,0-1.74,0-3.48,0-5.21l-1.28-.22c-2.2,6-4.27,12-6.68,17.91-.65,1.58-2.31,2.74-3.5,4.09-1-1.31-2.42-2.49-3-4-2.45-6.26-4.65-12.62-8.11-18.76,0,6.37.08,12.75-.07,19.12,0,1.19-1,2.36-1.56,3.54-.7-1.19-2-2.36-2-3.57-.17-8.45-.09-16.91-.09-25.3,4.34-1.74,6.42-.42,7.68,3.64C43,276.56,45.5,283.22,48.39,291.42Z"/><path d="M203,287.55c4.88,1.87,8.34,8.81,13.41,3.16,1.8-2,2.3-5.16,3.4-7.8l-1.07-.67c-.82.38-1.63.78-2.46,1.15-5.24,2.42-10.63.78-12.76-3.88-2.24-4.9-.31-11.15,4.16-13.47,4.92-2.55,11.54-.72,13.64,4.41a23.56,23.56,0,0,1-.58,19.85c-2,4-5.75,5.3-10.09,4.93C206.74,294.9,204.25,292.85,203,287.55Zm16-12.2c.28-4-2.11-7.17-5.58-7.52-3.69-.37-6.86,2.57-7.15,6.63a6.52,6.52,0,0,0,5.92,7.24C215.86,282,218.77,279.27,219.06,275.35Z"/><path d="M248,274.16c-.13-6.1,3.2-8.17,7.74-8.53,4.16-.34,8.08.44,10.19,4.66s.29,7.85-2.72,10.79c-3.56,3.46-7.41,6.62-12.31,10.95h15.93c-1.18,3.86-7.57,4.63-21.25,3,1.9-2.73,3.2-5.25,5.1-7.19,3-3.08,6.65-5.58,9.65-8.68,3.58-3.68,3.63-7.19.67-9.53-3.28-2.58-7.18-1.52-10.08,2.53C250.23,273.05,248.94,273.5,248,274.16Z"/><path d="M161.49,265.28l1.69,9.72c1.4-.49,2.75-1.08,4.15-1.45,5.62-1.46,9.54,1.39,9.78,7.21.14,3.65.13,7.33,0,11a12.64,12.64,0,0,1-1.14,3.44l-2.06-.3c0-3.66,0-7.32,0-11s0-7.35-4.92-7.8c-3.88-.35-6.2,2.56-6.38,7.75-.09,2.66.14,5.34-.12,8-.12,1.2-1.08,2.32-1.66,3.47l-1.32-.49v-29Z"/><path d="M89.31,293.8c-3,.53-4.89.56-6.53,1.21-6.45,2.54-11.39-.56-11.56-7.51-.09-3.49-.17-7,.08-10.48.08-1.16,1.21-2.24,1.87-3.36l1.69.69c0,4.13,0,8.26,0,12.39-.07,3.43,1,6.11,4.82,6.19,3.69.08,6-2.07,6.26-5.75.27-4.27.07-8.58.07-13.38,1.6.47,3.21.71,3.21,1C89.34,281.48,89.31,288.17,89.31,293.8Z"/><path d="M114.13,295.33c-.6-1.11-1.64-2.19-1.72-3.34-.24-3.48.36-7.07-.3-10.44-.39-2-2.71-5.19-3.87-5.06-2.3.25-5.68,2-6.32,3.87-1.17,3.48-.58,7.52-.94,11.31-.1,1.11-.92,2.15-1.41,3.22-.66-1.1-1.85-2.17-1.9-3.3-.21-4.81-.14-9.64-.07-14.46,0-2.15.13-4.32,3.33-2.27.66.42,2.17-.24,3.17-.67,6.72-2.85,11.69.26,11.8,7.5.07,4.3,0,8.6,0,12.9Z"/><path d="M152,279.85a25.67,25.67,0,0,1-3.18-2.32c-3.54-3.53-8.76-2.51-10.3,2.3-.64,2-1.07,4.48-.4,6.32.8,2.23,2.47,4.79,4.47,5.81,2.66,1.35,5.43.25,7.07-2.81.46-.85,1.86-1.18,2.83-1.75,0,1.17.4,2.59-.11,3.48-2.32,4.06-6.22,4.65-10.4,4-4.89-.73-7.75-4.68-7.83-10.56-.09-6.31,2.58-10.28,7.58-11.27C147.47,271.94,150.7,273.55,152,279.85Z"/><path d="M238.78,268.49H225l.08-1.74h20.17c-.68,1.38-1.31,2.6-1.89,3.85-3.31,7.15-6.56,14.33-9.95,21.44a18.87,18.87,0,0,1-2.65,3.34c-.28-1.42-1.16-3.05-.74-4.21C232.65,283.93,235.54,276.79,238.78,268.49Z"/><path d="M191.24,272.38c-2.88,1.46-4.89,2.46-6.9,3.47l-1.12-1.25,11.65-10.45v9c0,6.46.07,12.93-.09,19.38,0,1-1.12,1.89-1.72,2.84-.61-1-1.71-1.91-1.74-2.89C191.17,286,191.24,279.58,191.24,272.38Z"/><path d="M124,284.28c0-2.65-.1-5.31.07-7.95,0-.76.9-1.47,1.38-2.2.59.64,1.67,1.26,1.68,1.91q.21,8.44,0,16.9c0,.67-1.07,1.31-1.65,2-.49-.72-1.37-1.41-1.42-2.16C123.89,289.93,124,287.1,124,284.28Z"/><path class="cls-1" d="M219.06,275.35c-.29,3.92-3.2,6.64-6.81,6.35a6.52,6.52,0,0,1-5.92-7.24c.29-4.06,3.46-7,7.15-6.63C217,268.18,219.34,271.39,219.06,275.35Z"/></g></g></svg>