<svg xmlns="http://www.w3.org/2000/svg" viewBox="0 0 300 300"><defs><style>.cls-1{fill:#fefdfd;}.cls-2{fill:#d5343b;}.cls-3{fill:#d32d33;}.cls-4{fill:#d43138;}.cls-5{fill:#d32e34;}.cls-6{fill:#d43036;}.cls-7{fill:#d5353c;}.cls-8{fill:#d9474d;}.cls-9{fill:#d5343a;}.cls-10{fill:#d5373d;}.cls-11{fill:#dc565b;}.cls-12{fill:#d8444a;}.cls-13{fill:#d73f45;}.cls-14{fill:#da4f55;}.cls-15{fill:#d9494e;}.cls-16{fill:#db5257;}.cls-17{fill:#fbeff0;}.cls-18{fill:#d94b51;}.cls-19{fill:#de6065;}.cls-20{fill:#dc585e;}.cls-21{fill:#fbedee;}.cls-22{fill:#eca3a6;}.cls-23{fill:#fdfbfb;}.cls-24{fill:#fdfafa;}.cls-25{fill:#fdf9f9;}.cls-26{fill:#f9e8e8;}.cls-27{fill:#faeced;}</style></defs><g id="Layer_2" data-name="Layer 2"><g id="Layer_1-2" data-name="Layer 1"><path class="cls-1" d="M0,300V0H300V300ZM279,173l3.79,3.09c.42-1.12.8-2.15,1.19-3.18l6-1.6c-.8-1.71-2.15-4.57-3.89-8.3l-2.13,8.32-2.68-1.68-.08-.12v-6h-4.37l-3.76,7.74c-.6-2.43-1.21-4.85-1.89-7.57l-3.14.39L263,165l0,0c-3.93-1.89-7-1.07-9,3.92-.7-2.5-1.12-4.05-1.55-5.59l-1,.15v11.3l6.36-7.28c.14,2.17.24,3.8.34,5.43l5.25-.74.09-.08,4.47.78L273,173c.34,1,.69,2,1,2.84l4-2.83Zm-91.95,20.05,1.82,0,1.62-1.86,1.6-.32,3.86,1.62c1.93.26,3.89.85,5.77.66,1.17-.12,2.95-1.22,3.2-2.21,1.6-6.16-1.15-8.74-7.12-7.29-.63,3-1.24,5.91-1.84,8.81l-2.56-8-2.21,2c-.87-1-1.66-1.86-2.44-2.75l-3.85.24L182,185l-2.94,3.52c-3.73-7-6.47-7.23-11.53-1.23-.23.27-1.07,0-1.63,0l-2.11-8c-1.81,3-3.12,5.17-4.75,7.85-1.62-2.76-2.91-5-4.63-7.91-1.49,5.19-2.71,9.45-3.92,13.7l1.67.64,3.2-6.81,3.84,5.93c1.4-2.17,2.42-3.75,3.86-6a45.72,45.72,0,0,0,1.83,5.31c.16.31,1.42.08,2.18.11,4.9,1.71,9.74,3.19,12-3.7C180.72,193.69,182.17,194.52,187.05,193.05ZM214,185.93c.18,1.21.36,2.42.55,3.62l1.69-.81L213.93,186c-1.69-.61-4.22-2.2-4.89-1.63-1.51,1.29-3.14,3.9-2.77,5.53s2.92,3.25,4.84,3.91c1.52.53,3.55-.4,5.35-.68a3.87,3.87,0,0,0-2.84-1.66c-1.26-.14-2.8.4-3.77-.15C206.23,189.22,208.77,185.87,214,185.93Zm25-15c-.62-2.54-1.24-5.08-2.07-8.44l-3.42,5.63-3.59-5.26L227,173l1.09.55,2.85-4,2.42,3.26,2.54-2.74,3.09,2.81h3.69c1.62-2.06-1.88-7.41,4-7,.49,2.9.87,5.11,1.25,7.32l1.62-.3v-9.46h-7.94C240.66,166.27,239.84,168.62,239,171Zm-21.95-7.64-10.93,1.41c-.8-4.73-3.93-6.9-8.4-6.74-4,.14-6.91,2.47-7.53,6.63a6.89,6.89,0,0,0,4.56,8c4.15,1.61,7.79.73,10.46-3.14A9.33,9.33,0,0,1,207,167.9c-.31,1.67-.61,3.33-.91,5l1.58.75c.8-1.87,1.56-3.77,2.44-5.6a13.53,13.53,0,0,1,1.52-2c.5.69,1.31,1.33,1.44,2.08a39.52,39.52,0,0,1,.32,5.11l3.69-.33,6.47-4.26c.26,1.38.58,3,.89,4.69l1.23-.24V161.74l-5.76,6.43ZM175.2,142.88l-7.5-.83v10l1.5.14c.36-2.37.71-4.74,1.11-7.34l4.64.21V155.9l1.58.07c.32-1.55.64-3.11.8-3.93l7.39-2c1.57,3.05,5.29,3.13,8.22-.22l0-2.34-.84-.54L188,145.15,184.75,144l-3-1.29-.81,1.1,3,2.21a25.56,25.56,0,0,1-3.81,3.83c-.4.27-2.69-1-2.65-1.5a27.28,27.28,0,0,1,1.48-5.44ZM164,172.38c-1.65-2-4.39-4-4.65-6.19-.29-2.49,1.65-5.25,2.62-7.89l-.94-.84L157,161.3l-4.8-3.79-1.73,1c5.77,4.77,4.14,9.51.34,14.24l1.38,1,5.11-4.4c1.14,3.34,3.16,5,6.69,3.16l6-2.36,4.09,3.41,1.46-1c-4.43-4.65-4.76-9.35-.13-14.11l-1.53-.91-4.23,3.86-4.75-3.73-1.41,1C168.42,163.23,167.14,167.81,164,172.38Zm-97.21,82.5c.35,1.34.75,2.66,1,4a19.42,19.42,0,0,0,19.32,15.6c9.26-.14,17.22-6.44,18.73-15.58.57-3.44,2.17-4.12,5-4.68a19.38,19.38,0,0,0-2.27-38.44C98.35,215.2,90,221.85,88,232.17c-.19,1-.45,2-.67,3.05-3.22-10.9-8.69-19.13-21-19.23-12.53-.1-18.25,8-20.24,18.56-3-4.81-5.32-10.13-9-14.2-4.15-4.57-10.27-5.27-16.28-4.16C12,217.82,5.34,226.08,5.23,235.14c-.13,10.38,6.43,17,20.08,20.26,2.62,12,8.28,18,18,19C53.62,275.4,58.88,270.88,66.82,254.88ZM63,43.47v5.87c0,44.3-.06,88.61.06,132.92a22.7,22.7,0,0,1-5.79,15.48A25.07,25.07,0,0,1,37,206.88c-10.94-.09-21.88,0-33.1,0l.3,5.47c12.63,0,24.92.18,37.21-.07,7.15-.15,13.09-3.58,18.06-8.56,2.3-2.3,4.23-5,6.53-7.71.66.89,1.24,1.65,1.79,2.44,6.6,9.38,15.5,14.28,27.09,14.17,8.33-.08,16.66,0,25,.07,2.58,0,5.17,0,8.1,0l-.37-5.84c-11.71,0-23-.07-34.32,0C79.41,207,68.53,193,68.68,181.76c.58-44.13.24-88.28.24-132.42V43.47ZM4.15,203c10.61,0,20.74.05,30.87,0,16.07-.08,24.53-8.61,24.58-24.79q.09-33.48.09-66.94c0-12.62,0-25.24,0-37.94H53.88v47.81c0,19.31.06,38.63-.06,57.94-.08,11.91-6,17.83-17.84,18-9.15.13-18.31,0-27.47,0-1.43,0-2.85.18-4.36.28Zm123.45-5.87c-10.31,0-20.1,0-29.89,0C83.52,197.08,78,191.6,78,177.5Q78,128,78,78.6V73.17H72.68a6.87,6.87,0,0,0-.44,1.58c0,35.63-.19,71.26.08,106.89.08,11.24,6.84,18.67,18,20.66,4.86.86,9.94.61,14.91.67,7.43.1,14.86,0,22.37,0ZM45.24,98v5.82q0,35.94,0,71.88c0,10.07-2.34,12.37-12.27,12.34-9.6,0-19.19,0-29,0l.26,5.81c11.38,0,22.5.38,33.59-.13,8-.36,12.93-6.14,13.21-14.2.19-5.32.1-10.65.1-16,0-21.77,0-43.54,0-65.54Zm82.42,90.05c-9.52,0-18.8,0-28.09,0-11,0-13.11-2.06-13.12-13.1q0-35.7,0-71.4V98.12H81c0,27.89-.14,55.49.11,83.09A12.12,12.12,0,0,0,92.8,193.43c11.55.67,23.17.18,34.86.18Zm53,21.36a26.8,26.8,0,0,1,.05-4.91c.67-3.61-1.72-6.52-5.27-5.76-7.59,1.62-.91,8.72-4.43,12,1.46,1.52,2.9,4.27,4.38,4.29,2.33,0,4.68-1.79,5.93-2.34,3.36.77,6.93,2.79,8.82,1.76,4.14-2.26,4.18-7.12,2.64-11.1-.76-2-3.77-4.62-5.43-4.41C181.27,199.7,182.39,205.22,180.63,209.42ZM65.57,22.46c-.91,5.64-5,6.72-8.41,7l3.35,10.58H72.22c-3.09-4.28.79-7.19,4.23-11.17C70.34,30,67.65,27.3,65.57,22.46Zm88.26,114.63-1.78-.16v15.35c5.82-1,6.23-8,11.64-11v10.9l1.48,0v-15.5c-5.77,1.33-6.54,8-11.34,11.15Zm9.71,61.38c-1,.88-3.62,2.05-4,3.73a7.72,7.72,0,0,0,1.84,6.41c1.67,1.49,3.22,1.93,1.21,4.2-.29.33,0,1.45.39,2a1.84,1.84,0,0,0,1.66-.18c1.91-3.39,4.32-6.68,5.32-10.35C170.9,200.83,168.2,199,163.54,198.47Zm-11.71.68c.52,3.93,1,7.13,1.34,10.34.15,1.3-.09,2.66.15,3.94.11.6,1.08,1.59,1.42,1.5.75-.2,1.91-1,1.92-1.51.16-4.8.09-9.6.09-14.65ZM129,271.91c-2.74-2.35-4.43-4.69-5.42-4.43-1.77.47-4.19,2.42-4.33,3.94s2.14,3.82,3.8,4.32C124.21,276.08,126.11,273.9,129,271.91ZM179.76,157c-3.47,4.2-3.2,14.38,0,16.69Zm4.88.62c-3.63,2.77-3.48,14,0,15.89Z"/><path class="cls-2" d="M66.82,254.88c-7.94,16-13.2,20.52-23.52,19.48-9.71-1-15.37-6.94-18-19-13.65-3.27-20.21-9.88-20.08-20.26.11-9.06,6.78-17.32,15.57-18.95,6-1.11,12.13-.41,16.28,4.16,3.7,4.07,6.05,9.39,9,14.2,2-10.54,7.71-18.66,20.24-18.56,12.34.1,17.81,8.33,21,19.23.22-1,.48-2,.67-3.05,1.94-10.32,10.31-17,20.64-16.38A19.38,19.38,0,0,1,111,254.23c-2.87.56-4.47,1.24-5,4.68-1.51,9.14-9.47,15.44-18.73,15.58a19.42,19.42,0,0,1-19.32-15.6C67.57,257.54,67.17,256.22,66.82,254.88ZM51,240l-.56-.36.45.51c.62,5.39,4.13,8.28,8.78,10.19l1,.35,0-1.14C58.94,244.86,56.28,241.1,51,240ZM30.46,250.69c5.51-1.82,8.62-5.69,10.69-11.9-6.12,2.44-10,5.48-11.39,11l-.5.73Zm75.82.78c10.14,0,17.54-6.85,17.68-16.05a16.49,16.49,0,0,0-16.84-16.65c-9.32.13-16.07,7.16-16,17C99,238,104.2,243.07,106.28,251.47ZM41,235.41c.15-9.42-6.66-16.46-16-16.53A16.55,16.55,0,0,0,8.23,235.59c.22,9.25,7.79,16.24,17.3,16C29.72,241.43,30.74,240.36,41,235.41Zm42,.17c-.42-2.06-.61-3.72-1.09-5.29A16.39,16.39,0,0,0,65,218.92c-7.05.38-13.63,5.81-14.84,12.63-.26,1.49.19,4.23,1.08,4.62,6.54,2.8,11.09,7.16,13,14.14.17.62,1.16,1.5,1.64,1.42a2.87,2.87,0,0,0,2.07-1.48C70,242.67,75.24,238.21,82.92,235.58ZM61.58,254.32c-8.54-1.81-12.65-8.6-16.41-16.26-2.93,8.48-7.85,14.29-16.1,16.38-.2,9.79,6.61,16.87,15.94,17S61.28,264.62,61.58,254.32Zm9.12.17c.2,10.19,7.18,17.18,16.61,17s16-7.39,15.73-17.24c-8.44-1.84-12.89-8.18-16.42-16.38C83.78,246.38,78.73,252.08,70.7,254.49Zm32.38-3.39c-2.84-7.34-5.36-9.83-11.46-11.37C93.42,245.61,96.91,249.09,103.08,251.1Zm-32.54-2.33c6.14.57,9.42-2.69,10.95-8.74l-1-1.05Z"/><path class="cls-3" d="M63,43.47h6v5.87c0,44.14.34,88.29-.24,132.42C68.53,193,79.41,207,93.3,206.85c11.3-.09,22.61,0,34.32,0l.37,5.84c-2.93,0-5.52,0-8.1,0-8.33,0-16.66-.15-25-.07-11.59.11-20.49-4.79-27.09-14.17-.55-.79-1.13-1.55-1.79-2.44-2.3,2.74-4.23,5.41-6.53,7.71-5,5-10.91,8.41-18.06,8.56-12.29.25-24.58.07-37.21.07l-.3-5.47c11.22,0,22.16-.07,33.1,0a25.07,25.07,0,0,0,20.2-9.14A22.7,22.7,0,0,0,63,182.26C62.89,138,63,93.64,63,49.34Z"/><path class="cls-4" d="M4.15,203v-5.59c1.51-.1,2.93-.28,4.36-.28,9.16,0,18.32.08,27.47,0,11.84-.18,17.76-6.1,17.84-18,.12-19.31,0-38.63.06-57.94V73.32h5.81c0,12.7,0,25.32,0,37.94q0,33.46-.09,66.94C59.55,194.38,51.09,202.91,35,203,24.89,203.05,14.76,203,4.15,203Z"/><path class="cls-5" d="M127.6,197.13V203c-7.51,0-14.94.07-22.37,0-5-.06-10,.19-14.91-.67-11.16-2-17.92-9.42-18-20.66-.27-35.63-.1-71.26-.08-106.89a6.87,6.87,0,0,1,.44-1.58H78V78.6q0,49.46,0,98.9c0,14.1,5.49,19.58,19.68,19.62C107.5,197.15,117.29,197.13,127.6,197.13Z"/><path class="cls-6" d="M45.24,98h5.85c0,22,0,43.77,0,65.54,0,5.32.09,10.65-.1,16-.28,8.06-5.2,13.84-13.21,14.2-11.09.51-22.21.13-33.59.13L3.93,188c9.84,0,19.43,0,29,0,9.93,0,12.26-2.27,12.27-12.34q0-35.94,0-71.88Z"/><path class="cls-7" d="M180.63,209.42c1.76-4.2.64-9.72,6.69-10.5,1.66-.21,4.67,2.44,5.43,4.41,1.54,4,1.5,8.84-2.64,11.1-1.89,1-5.46-1-8.82-1.76-1.25.55-3.6,2.36-5.93,2.34-1.48,0-2.92-2.77-4.38-4.29,3.52-3.25-3.16-10.35,4.43-12,3.55-.76,5.94,2.15,5.27,5.76A26.8,26.8,0,0,0,180.63,209.42Zm6.92-8c-3.41,4.52-3.32,7.32.1,10.92C191.16,209.1,191.21,205.11,187.55,201.42Z"/><path class="cls-3" d="M65.57,22.46c2.08,4.84,4.77,7.56,10.88,6.43-3.44,4-7.32,6.89-4.23,11.17H60.51L57.16,29.48C60.58,29.18,64.66,28.1,65.57,22.46Z"/><path class="cls-8" d="M153.83,137.09V147.8c4.8-3.18,5.57-9.82,11.34-11.15v15.5l-1.48,0v-10.9c-5.41,3-5.82,10-11.64,11V136.93Z"/><path class="cls-9" d="M163.54,198.47c4.66.49,7.36,2.36,6.42,5.82-1,3.67-3.41,7-5.32,10.35a1.84,1.84,0,0,1-1.66.18c-.35-.56-.68-1.68-.39-2,2-2.27.46-2.71-1.21-4.2a7.72,7.72,0,0,1-1.84-6.41C159.92,200.52,162.53,199.35,163.54,198.47Z"/><path class="cls-2" d="M167.06,192.14c-.76,0-2,.2-2.18-.11a45.72,45.72,0,0,1-1.83-5.31c-1.44,2.25-2.46,3.83-3.86,6l-3.84-5.93-3.2,6.81-1.67-.64c1.21-4.25,2.43-8.51,3.92-13.7,1.72,3,3,5.15,4.63,7.91,1.63-2.68,2.94-4.86,4.75-7.85l2.11,8Z"/><path class="cls-10" d="M164,172.45c-3.53,1.84-5.55.18-6.69-3.16l-5.11,4.4-1.38-1c3.8-4.73,5.43-9.47-.34-14.24l1.73-1,4.8,3.79,4.09-3.84.94.84c-1,2.64-2.91,5.4-2.62,7.89.26,2.22,3,4.14,4.65,6.19Z"/><path class="cls-2" d="M207,167.9a9.33,9.33,0,0,0-1.79,1.56c-2.67,3.87-6.31,4.75-10.46,3.14a6.89,6.89,0,0,1-4.56-8c.62-4.16,3.49-6.49,7.53-6.63,4.47-.16,7.6,2,8.4,6.74Zm-9.69,3.87,2.31-.07c1.36-2.09,4.06-4.45,3.72-6.22-.38-2-3.3-4.59-5.46-4.95a4.28,4.28,0,0,0-4.82,5.35C193.54,168.05,195.84,169.82,197.32,171.77Z"/><path class="cls-6" d="M192.13,146.94l.84.54,0,2.34c-2.93,3.35-6.65,3.27-8.22.22l-7.39,2c-.16.82-.48,2.38-.8,3.93L175,155.9V145.07l.25-2.19H179a27.28,27.28,0,0,0-1.48,5.44c0,.46,2.25,1.77,2.65,1.5A25.56,25.56,0,0,0,184,146l.79-2,3.24,1.18-.72,4.45Z"/><path class="cls-11" d="M207,167.9l-.88-3.16,10.93-1.41,0,9.58-3.69.33a39.52,39.52,0,0,0-.32-5.11c-.13-.75-.94-1.39-1.44-2.08a13.53,13.53,0,0,0-1.52,2c-.88,1.83-1.64,3.73-2.44,5.6l-1.58-.75C206.4,171.23,206.7,169.57,207,167.9Z"/><path class="cls-4" d="M263.4,172.13l-5.25.74c-.1-1.63-.2-3.26-.34-5.43l-6.36,7.28v-11.3l1-.15c.43,1.54.85,3.09,1.55,5.59,2-5,5-5.81,9-3.92Z"/><path class="cls-12" d="M239,171c.83-2.35,1.65-4.7,2.65-7.52h7.94v9.46l-1.62.3c-.38-2.21-.76-4.42-1.25-7.32-5.92-.37-2.42,5-4,7H239C239,172.28,239,171.62,239,171Z"/><path class="cls-13" d="M239,171c0,.65,0,1.31,0,2l-3.09-2.81-2.54,2.74L231,169.6l-2.85,4L227,173l2.92-10.1,3.59,5.26,3.42-5.63C237.77,165.89,238.39,168.43,239,171Z"/><path class="cls-13" d="M167.06,192.14l-1.17-4.79c.56,0,1.4.24,1.63,0,5.06-6,7.8-5.72,11.53,1.23v-.11C176.8,195.33,172,193.85,167.06,192.14Zm5.71.93c1.5-1.94,3.27-3.26,3.1-4.25-.23-1.34-1.94-2.42-3-3.62-1,1.1-2.72,2.13-2.83,3.32S171.42,191,172.77,193.07Z"/><path class="cls-14" d="M151.83,199.15l4.92-.38c0,5,.07,9.85-.09,14.65,0,.56-1.17,1.31-1.92,1.51-.34.09-1.31-.9-1.42-1.5-.24-1.28,0-2.64-.15-3.94C152.81,206.28,152.35,203.08,151.83,199.15Z"/><path class="cls-4" d="M217.09,172.91l0-9.58,2.86,4.84,5.76-6.43V173.1l-1.23.24c-.31-1.66-.63-3.31-.89-4.69Z"/><path class="cls-15" d="M129,271.91c-2.92,2-4.82,4.17-6,3.83-1.66-.5-3.93-2.92-3.8-4.32s2.56-3.47,4.33-3.94C124.6,267.22,126.29,269.56,129,271.91Z"/><path class="cls-16" d="M214,185.93c-5.2-.06-7.74,3.29-4.12,5.35,1,.55,2.51,0,3.77.15a3.87,3.87,0,0,1,2.84,1.66c-1.8.28-3.83,1.21-5.35.68-1.92-.66-4.48-2.28-4.84-3.91s1.26-4.24,2.77-5.53c.67-.57,3.2,1,4.89,1.63Z"/><path class="cls-10" d="M278,173l-4,2.83c-.3-.86-.65-1.85-1-2.84l0-1.68,3.76-7.74h4.37v6Zm.23-6,1.32-.67a5.13,5.13,0,0,0-1.11-1.12c-.15-.08-.82.41-.91.74S277.94,166.57,278.23,167Z"/><path class="cls-17" d="M182,185l2.91-1,3.65,2.19v4.59l-1.76.47C181.73,192.19,180.79,191,182,185Z"/><path class="cls-18" d="M179.76,157v16.69C176.56,171.36,176.29,161.18,179.76,157Z"/><path class="cls-13" d="M184.64,157.6v15.89C181.16,171.55,181,160.37,184.64,157.6Z"/><path class="cls-19" d="M175.2,142.88l-.25,2.19-4.64-.21c-.4,2.6-.75,5-1.11,7.34l-1.5-.14v-10Z"/><path class="cls-17" d="M263.4,172.13l-.42-7.19,0,0,5,.47c0,2,0,4,0,6l-4.45.65Z"/><path class="cls-20" d="M283.94,171.33l2.13-8.32c1.74,3.73,3.09,6.59,3.89,8.3l-6,1.6C284,172.38,284,171.86,283.94,171.33Z"/><path class="cls-20" d="M267.94,171.4c0-2,0-4,0-6,0-.43.07-.87.1-1.31l3.14-.39,1.89,7.57,0,1.68-5.05-.16C268,172.35,267.94,171.87,267.94,171.4Z"/><path class="cls-4" d="M188.55,190.79V186.2c.07-.81.13-1.62.2-2.43.78.89,1.57,1.77,2.44,2.75l2.21-2,2.56,8v0l-3.86-1.62-1.29-1.54-.31,1.86-1.62,1.86C188.77,192.33,188.66,191.56,188.55,190.79Z"/><path class="cls-8" d="M182,185c-1.2,5.94-.26,7.16,4.8,6.23.09.59.17,1.19.26,1.79-4.88,1.47-6.33.64-8-4.61v.11Z"/><path class="cls-7" d="M192.13,146.94l-4.86,2.66.72-4.45Z"/><path class="cls-10" d="M283.94,171.33c0,.53,0,1,0,1.58-.39,1-.77,2.06-1.19,3.18L279,173l2.26-3.35Z"/><path class="cls-21" d="M184.75,144l-.79,2-3-2.21.81-1.1Z"/><path class="cls-21" d="M213.93,186l2.28,2.78-1.69.81c-.19-1.2-.37-2.41-.55-3.62Z"/><path class="cls-22" d="M188.75,183.77c-.07.81-.13,1.62-.2,2.43L184.9,184Z"/><path class="cls-10" d="M267.94,171.4c0,.47,0,.95,0,1.43l-4.47-.78Z"/><path class="cls-20" d="M281.26,169.65,279,173h-1l3.18-3.46Z"/><path class="cls-7" d="M192.94,149.82l0-2.34Z"/><path class="cls-4" d="M268,164.13c0,.44-.06.88-.1,1.31l-5-.47Z"/><path class="cls-22" d="M190.49,191.24l.31-1.86,1.29,1.54Z"/><path class="cls-23" d="M106.28,251.47C104.2,243.07,99,238,91.14,235.75c-.09-9.82,6.66-16.85,16-17A16.49,16.49,0,0,1,124,235.42C123.82,244.62,116.42,251.51,106.28,251.47Z"/><path class="cls-23" d="M41,235.41c-10.23,5-11.25,6-15.44,16.15-9.51.27-17.08-6.72-17.3-16A16.55,16.55,0,0,1,25,218.88C34.31,219,41.12,226,41,235.41Z"/><path class="cls-24" d="M82.92,235.58c-7.68,2.63-12.88,7.09-15,14.67a2.87,2.87,0,0,1-2.07,1.48c-.48.08-1.47-.8-1.64-1.42-1.92-7-6.47-11.34-13-14.14-.89-.39-1.34-3.13-1.08-4.62,1.21-6.82,7.79-12.25,14.84-12.63a16.39,16.39,0,0,1,16.88,11.37C82.31,231.86,82.5,233.52,82.92,235.58Z"/><path class="cls-24" d="M61.58,254.32c-.3,10.3-7.23,17.27-16.57,17.13s-16.14-7.22-15.94-17c8.25-2.09,13.17-7.9,16.1-16.38C48.93,245.72,53,252.51,61.58,254.32Z"/><path class="cls-25" d="M70.7,254.49c8-2.41,13.08-8.11,15.92-16.65,3.53,8.2,8,14.54,16.42,16.38.31,9.85-6.41,17-15.73,17.24S70.9,264.68,70.7,254.49Z"/><path class="cls-26" d="M103.08,251.1c-6.17-2-9.66-5.49-11.46-11.37C97.72,241.27,100.24,243.76,103.08,251.1Z"/><path class="cls-27" d="M29.76,249.77c1.39-5.5,5.27-8.54,11.39-11C39.08,245,36,248.87,30.46,250.69Z"/><path class="cls-21" d="M70.54,248.77,80.47,239l1,1.05C80,246.08,76.68,249.34,70.54,248.77Z"/><path class="cls-17" d="M59.68,250.32c-4.65-1.91-8.16-4.8-8.78-10.19L51,240c5.27,1.12,7.93,4.88,9.69,9.55Z"/><path class="cls-27" d="M30.46,250.69l-1.2-.19.5-.73Z"/><path class="cls-17" d="M60.7,249.53l0,1.14-1-.35Z"/><path class="cls-17" d="M50.9,240.13l-.45-.51L51,240Z"/><path class="cls-17" d="M187.55,201.42c3.66,3.69,3.61,7.68.1,10.92C184.23,208.74,184.14,205.94,187.55,201.42Z"/><path class="cls-21" d="M197.32,171.77c-1.48-2-3.78-3.72-4.25-5.89a4.28,4.28,0,0,1,4.82-5.35c2.16.36,5.08,2.94,5.46,4.95.34,1.77-2.36,4.13-3.72,6.22Z"/><path class="cls-27" d="M172.77,193.07c-1.35-2.09-2.87-3.4-2.75-4.55s1.82-2.22,2.83-3.32c1.08,1.2,2.79,2.28,3,3.62C176,189.81,174.27,191.13,172.77,193.07Z"/></g></g></svg>