<svg xmlns="http://www.w3.org/2000/svg" viewBox="0 0 286.51 244.99"><defs><style>.cls-1{fill:#07a3e4;}.cls-2{fill:#09a4e4;}.cls-3{fill:#0fa6e5;}.cls-4{fill:#0aa4e4;}.cls-5{fill:#0da5e4;}.cls-6{fill:#ee3756;}.cls-7{fill:#0d94d6;}.cls-8{fill:#17a9e5;}.cls-9{fill:#0ca5e4;}.cls-10{fill:#0ea361;}.cls-11{fill:#0d0d0d;}.cls-12{fill:#13a7e5;}.cls-13{fill:#fbb53d;}.cls-14{fill:#d43036;}.cls-15{fill:#d43339;}.cls-16{fill:#d2262c;}.cls-17{fill:#d2282f;}.cls-18{fill:#d32b32;}.cls-19{fill:#d5363c;}.cls-20{fill:#121212;}.cls-21{fill:#f1f6f5;}.cls-22{fill:#7dcef0;}</style></defs><g id="Layer_2" data-name="Layer 2"><g id="Layer_1-2" data-name="Layer 1"><path class="cls-1" d="M214.65,56.08c-6.13,6.62-13.13,8.21-21.49,8.12-36.14-.41-72.29-.14-108.43-.27-2.47,0-4.92-1.32-7.38-2a18.22,18.22,0,0,0-4.2-1.18c-22.49-.78-45-1.45-67.48-2.25A30.92,30.92,0,0,1,0,57.25l.27-1.17Z"/><path class="cls-1" d="M15.42,67H199.91c-6.35,3.77-10.14,8.33-17.38,8.22-27.47-.43-55-.14-82.45-.3-2.46,0-4.92-1.33-7.38-2A20,20,0,0,0,88,71.8c-6.49-.13-13,.14-19.49-.09-16.33-.58-32.66-1.31-49-2.09-1.47-.07-2.91-1-4.36-1.54Z"/><path class="cls-2" d="M183,78.2c-5.88,5.55-11.87,8.36-19.89,8C147,85.62,130.82,86,114.66,86c-1,0-2.19.33-3-.08-11.78-6.3-24.57-1.3-36.63-3.35-13.66-2.33-27.34-1.77-41-2.06A5.32,5.32,0,0,1,30.4,78.2Z"/><path class="cls-3" d="M31.92,111.85a26.47,26.47,0,0,1,4.61-.79c45.27,0,90.53.11,135.8-.2,6.47,0,7.17,3.25,7.53,8.42-7.59,0-16,2-22.53-.54-7.44-2.89-14.45-2.65-21.73-2.7-3.09,0-6.18,1.51-9.29,2.27a20.14,20.14,0,0,1-4.31.78,122.49,122.49,0,0,1-14.47-.1c-2.35-.23-6.57,2.73-7-2.83a8.64,8.64,0,0,0-2.36-.25l-62.09-2.2c-1.29,0-2.58-.16-3.87-.24Z"/><path class="cls-4" d="M176.16,108.24h-5c-20.48,0-40.95.05-61.43-.09-1.91,0-5.45,2-5.42-2.69a6.68,6.68,0,0,0-2.71-.58q-31-1.06-62.07-2.08c-1.31,0-2.62-.11-5.12-.23,1.49-1.29,2.13-2.29,3-2.46a21.56,21.56,0,0,1,4.48-.11H167.23C174.7,100,174.7,100,176.16,108.24Z"/><path class="cls-5" d="M173.16,97.18H154.84c-14,0-28,0-42-.06-1.73,0-4.7,1.47-4.68-2.48,0-.29-2-.8-3-.83-3.16-.1-6.33.1-9.49,0q-27.32-1-54.61-2.14c-.56,0-1.11-.38-1.76-1.77A19.72,19.72,0,0,1,43.42,89c41.13,0,82.26,0,123.39-.11C172.68,88.9,171.14,93.54,173.16,97.18Z"/><path class="cls-6" d="M171.57,191.88c2.29-15.67,15-23.76,27-23.35a26.37,26.37,0,0,1,25.56,25.62c.35,13.81-10.68,25.94-24.39,26.75-2.32.13-4.65,0-7,0l.11.06c-10.32-3.1-17.57-9.43-20.84-19.89-.27-.87.15-2,.25-3l3.82,1a46.49,46.49,0,0,0,2,5.06c2.92,5.38,6.58,9.94,13.24,10.78l-.11-.05c.2.25.36.66.62.73a21.75,21.75,0,0,0,13.46-41.33,22,22,0,0,0-27.9,12.51c-.69,1.79-1.48,3.54-2.23,5.31Z"/><path class="cls-7" d="M105.49,193.91a21.34,21.34,0,0,0-21-20.94c-11.34-.22-21.2,8.5-22.1,19.53-1,11.88,6.63,21.77,18.16,23.62,4.43.71,4.43.71,4.38,4.31-12,1.74-24.23-7.8-26.65-20.87a26.21,26.21,0,0,1,19.62-30.37,26.48,26.48,0,0,1,31.37,18.14c4,13.77-3.32,27.55-17.07,32.16-.52-2.93.57-4.65,3.24-6.31C102.4,208.83,106.23,202.48,105.49,193.91Z"/><path class="cls-8" d="M186.21,136.15l.6,3.4A116.74,116.74,0,0,0,175.12,138c-7-.25-14,.14-21-.12-14.33-.54-28.66-1.34-43-2-6.19-.3-12.39-.59-16.51,4.39-1.58-1-2.69-2.19-3.84-2.24-20.34-.79-40.68-1.44-61-2.11-1.75-.06-3.51,0-5.27,0l-.3-2a31.72,31.72,0,0,1,5.23-.87q45-.09,90,0,32.74,0,65.48.08C185.32,134.13,185.76,135.14,186.21,136.15Z"/><path class="cls-9" d="M153.48,36.33,154.7,42c-8.72,0-18,2.29-25.28-.53-10.88-4.22-21.76.46-31.8-2.64-13-4-26.14-.77-39.42-3.81,1.07-.52,2.14-1.47,3.21-1.47q45.45,0,90.9.11Z"/><path class="cls-1" d="M54.36,45.62a22.73,22.73,0,0,1,4.25-.81c31.3,0,62.59.15,93.88-.11,6.58-.05,4.14,4.93,6.3,8.35-11.61,0-23.28,2.41-33.27-.65-10.81-3.32-21.38.36-31.37-2.49C81,46.16,67.72,49,54.64,47.28Z"/><path class="cls-10" d="M192.9,221l-.11-.06c2.39,1,2.69,2.39,1.93,4.94a26.34,26.34,0,0,1-50.43.73c-.59-1.87-1.29-3.71-1.94-5.56,0-1.61-.06-3.22-.08-4.83l2-5.32c3.3-8.52,8.31-15.19,18.07-16.75l0,2.72c-1.54,1.14-3.09,2.26-4.6,3.43-5.2,4-9.78,8.39-9.38,15.73l.06-.11c-.14,1.56-.27,3.11-.4,4.67.62,10.59,8.25,18.46,19.2,19.82,10,1.23,19.72-5.24,23-15.1C190.78,223.74,192,222.41,192.9,221Z"/><path class="cls-11" d="M162.33,196.85c0-.91,0-1.82,0-2.72a21.28,21.28,0,0,0-18.24-21,22,22,0,0,0-23.75,14.18c-.6,1.63-1.39,3.2-2.09,4.8l-3.7-.26c2-13.64,12.65-22.21,23.37-23.09,13.63-1.12,25.29,6.9,28.44,19.57a38.85,38.85,0,0,0,1.87,4.83v3.56a40.82,40.82,0,0,0-1.93,4.78c-2.42,9.14-10.21,16.8-18,17.62,0-1.07.07-2.15.1-3.22l-.06.11c1.48-1,3-1.95,4.43-3C158.37,209.06,162.19,204,162.33,196.85Z"/><path class="cls-12" d="M149.9,25.17c.39,1.76.78,3.51,1.24,5.6-6.28,0-13.09,1.86-18.06-.38-10.92-4.92-22.39.65-32.51-2.82-12.73-4.37-25.45-.71-38.48-4,1.27-.47,2.54-1.33,3.82-1.37,6-.14,12-.06,18-.06l65,0C149.21,23.15,149.56,24.16,149.9,25.17Z"/><path class="cls-13" d="M90.94,220c1,11.23,8.4,19.1,19,20.19,10.83,1.12,20-4.9,23.39-15.26a27.06,27.06,0,0,1,2.24-4.21l.21-.13.09.24c2.3,1.09,2.67,2.57,1.91,5.12-3.61,12.1-14.76,19.83-27.74,18.93-11.61-.81-22-10.6-23.62-22.19-1.79-13,5.28-24.44,17.82-28.74.7,3-.52,4.59-3.13,6.27C94.05,204.8,90.06,211.25,90.94,220Z"/><path class="cls-12" d="M146.33,14l1.14,5.65c-4.76-1.3-9.71,2.62-13.62-2.57-.46-.61-2.21-.31-3.37-.32-6.65,0-13.32.3-19.94-.14-3.55-.23-8,2.47-10.65-2.55-.25-.5-2.2-.15-3.36-.15H66.14l-.51-1.4C66.88,12,68.12,11,69.37,11c25.28,0,50.55,0,75.83.08C145.57,12.09,146,13.06,146.33,14Z"/><path class="cls-5" d="M142.57,3c.36,1.57.71,3.15,1.15,5.08-1.44.14-3.05.78-3.57.29C135,3.42,128.74,6.49,123,5.86c-4.28-.48-8.67.06-13-.16-2.12-.11-5.16,1.57-6-2.39-.09-.39-2.46-.39-3.77-.39Q85,2.88,69.8,2.9l-.4-1.47C70.76.94,72.13,0,73.49,0c22.66,0,45.32,0,68,.07Z"/><path class="cls-14" d="M142.57,3l-1.1-2.9H213l3,9.15c-2.73-1.21-4.25-2-5.84-2.56a10.82,10.82,0,0,0-3.54-.87c-7.48-.08-15-.22-22.45,0-3.54.12-6.24-.29-6.6-3.17Z"/><path class="cls-15" d="M187.27,33.35c12.44,0,23.52-.34,34.54.33,1.89.11,3.51,4.54,5.26,7l-.93,1.3c-8.52,0-17.26,1.09-25.45-.55a101.36,101.36,0,0,1-10.07-2.62C189.41,38.4,188.84,36,187.27,33.35Z"/><path class="cls-16" d="M286.51,55.87c-6.5,6.73-13.39,9-21.78,8.29C257,63.49,249.16,64,240.3,64c5.89-4.46,10.33-8.85,17.85-8.31C267.33,56.37,276.59,55.87,286.51,55.87Z"/><path class="cls-16" d="M224.68,75.06c6.29-6,12.54-9,20.72-8.27s16.24.15,25.58.15c-5.92,4.42-10.2,8.77-17.56,8.27C244.14,74.58,234.79,75.06,224.68,75.06Z"/><path class="cls-16" d="M254.86,77.94C248.5,84,242.09,87,233.72,86.22c-7.89-.76-15.91-.16-25.34-.16,6.08-4.24,10.12-8.7,17.31-8.26C235.14,78.38,244.65,77.94,254.86,77.94Z"/><path class="cls-17" d="M208.88,100c12.57,0,23.37-.15,34.17.06,4.94.1,3.31,4.75,5.14,8.13-11.91,0-23.15.27-34.35-.31C212.3,107.8,211,103.47,208.88,100Z"/><path class="cls-17" d="M205.44,89.14H242c.83,2.45,1.65,4.9,2.7,8-11.8,0-23.07.29-34.28-.33C208.75,96.72,207.36,92.25,205.44,89.14Z"/><path class="cls-18" d="M251.06,119.3c-7.13,0-14.38.78-21.34-.27-4.66-.7-8.9-3.88-14.1-3.47-.62,0-1.46-2.56-2.51-4.52,11.75,0,22.74-.33,33.67.3,2,.11,3.74,4.14,5.6,6.37Z"/><path class="cls-16" d="M229.46,53.05c-10.61,0-21.24.36-31.82-.19-3.64-.19-5.14-3.94-5.53-8,11.28,0,22.26-.33,33.18.32,1.88.11,3.52,4.35,5.28,6.69Z"/><path class="cls-15" d="M222.88,30.76c-6.56,0-13.48,1.91-18.19-.49-5.75-2.94-11.1-1.25-16.43-2.5-1.65-.39-2.84-2.78-5.23-5.3h37.3Z"/><path class="cls-19" d="M218.64,19.69c-4.3-1.4-9.33,2.49-13.25-2.66-.58-.75-2.86-.23-4.36-.24-4.83,0-9.67-.24-14.49.06-4.08.26-5.3-1.65-5.2-5.83,11.15,0,22.26-.34,33.3.33,1.85.11,3.43,4.57,5.13,7Z"/><path class="cls-14" d="M256.1,129.17c-6.36.94-11.67,2.48-16.62-1.4-1.52-1.2-4.4-.79-6.67-.88a96,96,0,0,0-10.46,0c-3.39.25-4.95-1-4.81-4.89,11.12,0,22.21-.33,33.24.32C252.69,122.47,254.34,126.79,256.1,129.17Z"/><path class="cls-14" d="M221.06,133.07c11,0,21.81,0,32.58,0,5.36,0,3,4.88,4.86,6.53-3.7-.57-7.18-1.47-10.69-1.59-7.29-.24-14.6-.22-21.9,0C222.57,138.11,220.86,137.09,221.06,133.07Z"/><path class="cls-10" d="M168.28,196.72v-3.56l3.29-1.28,3.68.23a34,34,0,0,0,3.64,2.11c9,3.92,14.54,10.52,16.48,20.67H191.3l.11.05a40.24,40.24,0,0,0-2.25-5.35c-3-5.09-6.06-10.27-13-10.49l-3.82-1Z"/><path class="cls-20" d="M135.88,220.87l-.09-.24-.21.13c-10.92-3.47-18.59-10-20.49-21.89l4.24.16-.06,0a48.17,48.17,0,0,0,2,5c3.23,6.22,7.82,10.76,15.12,11.79l5.92.4c0,1.61,0,3.22.08,4.83Z"/><path class="cls-13" d="M114.6,191.85l3.7.26c1.53.86,3,1.84,4.59,2.56,7.48,3.4,12.52,9,14.68,16.89.26,1-.78,2.31-1.22,3.48a36.81,36.81,0,0,1-3.72-4.71c-3.07-5.46-6.13-10.83-13.36-11.33l.06,0-5-1.87-3-2.08Z"/><path class="cls-21" d="M90.94,220c-.88-8.79,3.11-15.24,10.18-19.78,2.61-1.68,3.83-3.3,3.13-6.27l1.24-.08c.74,8.57-3.09,14.92-10.1,19.27-2.67,1.66-3.76,3.38-3.24,6.31Z"/><path class="cls-19" d="M186.21,136.15c-.45-1-.89-2-1.33-3,9.7.37,19.58-1.24,29.12,1,0,.66-.09,1.32-.13,2Z"/><path class="cls-15" d="M146.33,14c-.38-1-.76-1.94-1.13-2.91h27.27l.37,1.53c-1.35.43-2.7,1.21-4.06,1.24C161.3,14,153.81,14,146.33,14Z"/><path class="cls-19" d="M149.9,25.17c-.34-1-.69-2-1-3h19.91c-1.19,3-1.19,3-8.47,3C156.84,25.11,153.37,25.15,149.9,25.17Z"/><path class="cls-15" d="M182.51,125l-1.17-2.84c5.84.38,12-1.66,17.44,2.84Z"/><path class="cls-17" d="M153.48,36.33l-1.17-2.72H165C161.64,37.73,157.35,35.88,153.48,36.33Z"/><path class="cls-22" d="M27.14,145.19H37.69C37.36,150.06,35.14,150.21,27.14,145.19Z"/></g></g></svg>