<svg xmlns="http://www.w3.org/2000/svg" viewBox="0 0 206.68 263.29"><defs><style>.cls-1{fill:#035b99;}.cls-2{fill:#ed3050;}.cls-3{fill:#fbb234;}.cls-4{fill:#fcfcfc;}.cls-5{fill:#ee3755;}.cls-6{fill:#0993d6;}.cls-7{fill:#0d0d0d;}.cls-8{fill:#0da260;}.cls-9{fill:#fbb339;}.cls-10{fill:#f4f7f6;}.cls-11{fill:#f8f5f1;}.cls-12{fill:#1365a0;}.cls-13{fill:#fbb640;}.cls-14{fill:#ee3c59;}.cls-15{fill:#ef4763;}.cls-16{fill:#fbba4a;}.cls-17{fill:#1e6ca4;}</style></defs><g id="Layer_2" data-name="Layer 2"><g id="Layer_1-2" data-name="Layer 1"><path class="cls-1" d="M25.74,70.88c9.34,49.82,56,73.49,92.89,71,39.7-2.65,68.19-35,64.23-74.47-1.23-12.25-5.87-23.15-15.4-31.5l-.05,0-1.52-1.22-1.81-1.6-3.17-1.35,0,0-3-2.48-1.52-.52c-8.8-7.3-28.83-8.12-37.6-1.5-.23.18,0,1,0,1.5h0a7.65,7.65,0,0,0-2.62,0c-.32.12-.28,1.29-.4,2h0c-.78-.08-1.76-.52-2.3-.2-7.31,4.35-11.83,15.71-9.41,23.92.38,1.28,1.76,2.27,2.68,3.39l0,0,4,4,0,.15c2.63,1.14,5.28,3.3,7.88,3.23,6.2-.17,9.64,2.93,8.66,9-1,6.3-5.57,10.47-12.68,11.59-9.58,1.5-17.34-1.94-23.71-8.92-17.72-19.41-14-49,8.18-65.17,24.79-18,61-15,84.63,7.09,17,15.86,23.72,35.75,22.93,58.51-1.76,51.2-43.81,83.39-79.51,86.93C79.91,169,30,151.38,10,93.91,7.38,86.4,5.83,78.54,3.78,70.84Z"/><path class="cls-2" d="M156.35,28.71l1.52.52a10.26,10.26,0,0,0-.12,2.14,18.18,18.18,0,0,0,3.14.34l0,0,1.74,3.14,3.12,2.94c28.22,30.17,14.35,82.42-30,97C93.66,148.72,43.6,122.18,32.08,79.3a5.65,5.65,0,0,1,.12-1.4c7.24,0,14.53-.19,21.79.18,1.34.07,3,2.24,3.78,3.8,9,17.32,22.95,28.41,42,32.37,16.84,3.49,32.66.8,45.59-11.37,11.09-10.44,13.8-23.63,10.07-38.06-2.46-9.55-10.62-15.33-20.33-15.44a11.71,11.71,0,0,0-11,6.39c-3.83,6.77-3.81,6.76-11.56,5.32-.52-.09-1.19.57-1.79.89l0-.15-4-4,0,0c.3-.47,1-1.09.86-1.37-4.06-9.48.29-16.46,6.64-22.91a11.62,11.62,0,0,0,1.53-2.83h0l3-2h0c.36.19.85.66,1.07.55,11.31-5.42,22.55-4.48,33.82.2C154.34,29.74,155.44,29,156.35,28.71Z"/><path class="cls-3" d="M91.77,84.73c5.9,1.63,11.7,4,17.7,4.76,14.24,1.93,22.47-6.57,20.61-20.61a6.83,6.83,0,0,0-1.28-3.62c-2.36-2.57-3.32-5.73-.89-8s5.86-4.16,8.83-4.11c8.14.12,15.25,8.43,16.15,17.62,1.88,19.17-9.68,34.88-29.07,39.51-21.41,5.11-45.09-4-57.46-22.25a20.68,20.68,0,0,1-1.43-3.09Z"/><path class="cls-4" d="M65.13,197.82l2,.14c-1.08,3.42-1.19,6.26,3.69,6l.08,2c2.06,10.47,7.54,18.57,17,23.66,3.11,1.67,6.57,2.69,9.87,4-3.4-.24-3.3,2.45-3.92,4.61A27.22,27.22,0,0,1,65.4,257.74c-12.72-1.28-22.94-11.3-23.85-23.38l1.26-2.59C57.66,226.46,64.42,216.18,65.13,197.82Z"/><path class="cls-5" d="M141.74,197.64c-.12-13.78,12.87-27.45,27.44-28.87,19.34-1.88,35.77,11.39,36.71,29.65,1,20-13.4,35.06-33.62,35.13-1,0-2,.18-3,.27l.13.05c-4.23-1.68-8.75-2.85-12.62-5.13-8.67-5.13-14.05-12.75-15.19-23l5.26.07-.05,0c1.79,3.94,3,8.32,5.52,11.73,3,4.16,6.71,8.28,12.76,8.15l3.76,1.35c15.54,4.74,33-10.45,31.63-27.49-1.12-13.69-10.9-23.94-24.37-25.53-12.64-1.5-24.75,6.82-28.55,19.89-.78,2.71-1.73,4.39-4.77,4.05Z"/><path class="cls-6" d="M65.13,197.82c-.71,18.36-7.47,28.64-22.32,34-.89-3.72.49-5.79,3.9-7.87,8.85-5.38,13.32-13.52,12.82-24.09-1-14.9-12.59-26-27-25.92-14,.1-26.14,11.48-26.77,25.2-.75,16.16,9.67,27.2,27.93,29.15l.3,5.09A29.59,29.59,0,0,1,16.18,229a32.34,32.34,0,0,1-14.72-37C5.68,177.36,18.75,168,34.18,168.6c14.76.53,27.08,11,30.35,25.78C64.79,195.52,64.93,196.67,65.13,197.82Z"/><path class="cls-7" d="M129.65,204.82c1.64-15-6.82-27.14-21.12-30.28a26.71,26.71,0,0,0-31,18,32.22,32.22,0,0,0-.85,4.84l-5.38.31h.15c0-11.29,6-19.16,15.1-24.58,11.41-6.82,23.32-6.47,34.42.78,10.79,7,15.72,17.57,14.44,30.35-1.36,13.56-9.81,23.51-22.29,27.45v-6.56L113,225c7,0,15.82-10.5,16-19l0-.05Z"/><path class="cls-8" d="M169.45,233.87l-.13-.05c.19,1.52.79,3.13.51,4.56-2.83,14.3-17.15,25.39-32,24.89-16.69-.55-29.94-12.44-31.93-28.65a32.19,32.19,0,0,1,22.43-34.52c.07,1.64.14,3.19.21,4.73-.05.15-.19.35-.14.45a3.8,3.8,0,0,0,.53.61l0,.05c-7.77,1.91-12.22,7.48-15.39,14.29-.64,1.37-.41,3.15-.58,4.74l.11.15c-.47.56-1.25,1-1.37,1.67-2.45,12.79,6.26,26.41,19.1,30a27.12,27.12,0,0,0,32.78-16.53c.68-1.86,1.1-3.81,1.7-5.93Z"/><path class="cls-9" d="M41.55,234.36c.91,12.08,11.13,22.1,23.85,23.38a27.22,27.22,0,0,0,28.41-19.47c.62-2.16.52-4.85,3.92-4.61l1.16.35.93.82c-.83,13.49-12.32,25.68-26.42,28-15.1,2.5-30.07-5.77-35.61-19.69-7.06-17.75,1.43-36.23,19.91-43.29.83,3.68-.26,5.94-3.83,8C44.18,213.32,39.19,224.68,41.55,234.36Z"/><path class="cls-7" d="M98.89,234l-1.16-.35c-3.3-1.31-6.76-2.33-9.87-4-9.45-5.09-14.93-13.19-17-23.66l4.87,0,0,0,2.16,4.85c4.29,9.56,11.24,15.65,22,16.86l4.53.55v5l-4.54.78A.91.91,0,0,0,98.89,234Z"/><path class="cls-8" d="M141.74,197.64l1.09.29c1.64.58,3.26,1.21,4.92,1.74,10.85,3.47,18,10.68,21.47,21.46.56,1.75-.19,3.91-.33,5.88l-3.76-1.35a46.76,46.76,0,0,0-1.61-4.67c-3.43-7.37-8-13.51-16.67-15.21l.05,0L140.84,204l-3.51-.39C135.85,199.44,137.26,197.43,141.74,197.64Z"/><path class="cls-9" d="M71.42,197.68h-.15l5.4,1.56c12.66,4.59,21.07,12.87,23.17,26.64-3.64.39-5.45-1.25-6.88-4.71-3.19-7.75-7.74-14.41-17.24-15.23l0,0-4.95-2c-4.88.21-4.77-2.63-3.69-6Z"/><path class="cls-10" d="M41.55,234.36c-2.36-9.68,2.63-21,12.32-26.53,3.57-2,4.66-4.29,3.83-8l1.83-.05c.5,10.57-4,18.71-12.82,24.09-3.41,2.08-4.79,4.15-3.9,7.87Z"/><path class="cls-9" d="M64.79,84.12l-5.14-6.21c9.44,0,17.43-.42,25.32.26,2.36.21,4.45,3.51,6.67,5.4Z"/><path class="cls-11" d="M75.72,205.94c9.5.82,14,7.48,17.24,15.23,1.43,3.46,3.24,5.1,6.88,4.71,0,.59,0,1.18,0,1.77-10.71-1.21-17.66-7.3-22-16.86Z"/><path class="cls-12" d="M6.08,55.63c-1.14-2.41-7.18-.79-4.76-6.33H24.21c-1.73,2.7-2.89,4.52-4,6.35a1.92,1.92,0,0,0-.84.17L18,54l-1.79,1.82h.11c-.78-.65-1.6-1.87-2.3-1.8-1,.1-1.88,1.15-2.82,1.8Z"/><path class="cls-13" d="M57.21,55.71l-3.86-5.46,1.15-1.31c6.22,0,12.44-.17,18.65.06,3.47.14,3.62,2.72.53,6.74Z"/><path class="cls-14" d="M28,53.66l-1.45-4.72c6.85,0,12.82-.14,18.78.11,1.42.06,2.78,1.41,4.17,2.17l-2.64,3.32c-.31.38-.64.74-.91,1.11Z"/><path class="cls-13" d="M80.82,70.58l4.46,6c-8.65,0-16.23.28-23.75-.26-1.36-.1-2.48-3.57-3.71-5.48Z"/><path class="cls-15" d="M28,53.66l17.95,2c3.57-.06,5.13,1.7,4.59,5.64H28Z"/><path class="cls-14" d="M52.79,70.63l2.49,5.66H31.17c-.42-1.7-.89-3.57-1.36-5.43Z"/><path class="cls-16" d="M57.21,55.71l16.47,0c1.57,1.32,3.17,2.65,4.77,4l-.9,1.91c-6.89,0-13.77.07-20.64-.1-.7,0-2-1.66-1.89-2.25C55.35,58,56.43,56.89,57.21,55.71Z"/><path class="cls-17" d="M6.08,55.63l5.13.19h8.12a1.92,1.92,0,0,1,.84-.17c3.62,1.22,3.62,1.22,3.21,5.71h-21C.58,57.25,2.16,55.64,6.08,55.63Z"/><path class="cls-3" d="M57.78,69,55.27,63.5c7.78,0,14.68-.25,21.54.24C78,63.83,79,67.08,80,68.87Z"/><path class="cls-2" d="M29.78,68.94l-1.45-5.48c7.44,0,14.19-.26,20.88.23,1.28.09,2.34,3.17,3.5,4.87Z"/><path class="cls-1" d="M3.76,69,2.35,63.65h22.1l.45,5.18Z"/><path class="cls-13" d="M64.29,38.67c-2.82,0-5.66.18-8.46-.09-.94-.09-1.78-1.31-2.67-2,.79-.61,1.57-1.72,2.37-1.74q8.72-.22,17.43,0c.81,0,1.6,1.11,2.4,1.71-.87.71-1.68,2-2.61,2C70,38.85,67.12,38.67,64.29,38.67Z"/><path class="cls-12" d="M.5,35H22.22L23,36.23c-1.13.8-2.21,2.23-3.39,2.32C5,39.72,1,39,.5,35Z"/><path class="cls-12" d="M1.35,41.86c6.11,0,12.24-.14,18.34.11,1.24.05,2.41,1.57,3.62,2.4l-.73,1.73C16,46.1,9.45,46.23,2.89,46c-1,0-1.93-1.81-2.89-2.78Z"/><path class="cls-5" d="M26.25,44.27c1.2-.8,2.37-2.24,3.61-2.3,5.31-.25,10.65-.22,16,0,1,0,2,1.33,3.05,2-1,.69-2.05,1.93-3.11,2-5.32.21-10.65.1-16,.09-.81,0-1.62-.11-2.43-.17Z"/><path class="cls-14" d="M27.21,35H48.55c-.14,4.27-.86,4.37-18.32,3.72C27.63,38.6,25.91,38.27,27.21,35Z"/><path class="cls-9" d="M64.78,41.87c2.66,0,5.33-.15,8,.1.79.07,1.47,1.25,2.2,1.92-.7.71-1.38,2-2.1,2q-8.46.26-16.93,0c-.74,0-1.45-1.27-2.18-2,.86-.7,1.67-1.92,2.59-2C59.12,41.69,62,41.86,64.78,41.87Z"/><path class="cls-9" d="M75.42,22.67H53.28V21.33H75.35Z"/><path class="cls-9" d="M76.08,28.39c-3.5,3.31-20.26,3.28-23.46,0Z"/><path class="cls-4" d="M27.14,6.34H49.6C46.44,9.34,31,9.66,27.14,6.34Z"/><path class="cls-2" d="M26.83,28.14C41,26.8,47.67,27.46,48.7,30.22,39.83,32.07,27.94,31.06,26.83,28.14Z"/><path class="cls-1" d="M23,29.08c-.81.58-1.61,1.65-2.44,1.67-5.95.15-11.91.13-17.86,0-.74,0-1.46-.84-2.18-1.28.59-.57,1.18-1.62,1.79-1.63,6.74-.12,13.47-.07,20.21-.07Z"/><ellipse class="cls-14" cx="37.8" cy="14.65" rx="15.31" ry="0.75"/><path class="cls-13" d="M54,14.1H75.34v1.06H54Z"/><path class="cls-1" d="M.65,21.07H22.48l0,1.4C15.27,23.61,8,23.09.68,22.75Z"/><path class="cls-12" d="M22.42,15.29H.73l0-1.09H22.43Z"/><path class="cls-4" d="M3.76,69l21.14-.13.84,2-22,0Z"/><path class="cls-2" d="M48.68,22.6H26.92l0-1.32c7.22-1.46,14.5-.32,21.75-.67Z"/></g></g></svg>