<svg xmlns="http://www.w3.org/2000/svg" viewBox="0 0 300 300"><defs><style>.cls-1{fill:#fdfdfd;}.cls-2{fill:#ec1c30;}.cls-3{fill:#fcb815;}.cls-4{fill:#a09ea1;}.cls-5{fill:#a1a1a0;}.cls-6{fill:#035bab;}.cls-7{fill:#fbfbfa;}.cls-8{fill:#0b61ae;}.cls-9{fill:#ed2437;}.cls-10{fill:#2d292a;}.cls-11{fill:#fcbb1e;}.cls-12{fill:#0a9e6f;}.cls-13{fill:#9ea1a5;}.cls-14{fill:#373334;}.cls-15{fill:#0da070;}.cls-16{fill:#2e2a2b;}.cls-17{fill:#fcba1c;}.cls-18{fill:#454242;}.cls-19{fill:#333030;}.cls-20{fill:#363233;}.cls-21{fill:#433f40;}.cls-22{fill:#3b3738;}.cls-23{fill:#4b4848;}.cls-24{fill:#f8f5f5;}.cls-25{fill:#fcfcfb;}.cls-26{fill:#f6f7f5;}.cls-27{fill:#fdfbfb;}.cls-28{fill:#fbfbfb;}.cls-29{fill:#f0efef;}.cls-30{fill:#f2f2f2;}</style></defs><g id="Layer_2" data-name="Layer 2"><g id="Layer_1-2" data-name="Layer 1"><path class="cls-1" d="M0,300V0H300V300ZM68,53l0,0,2.07,4,0,0c2.37,3.13,4.35,6.66,7.16,9.31,12,11.3,25,21.25,40.4,27.56,10.31,4.22,20.19,10,32,9.57,7.74-.29,15.51-.1,23.26-.45,15-.68,28.29-6.49,40.16-15.33,12.24-9.11,19.82-22.19,27.91-34.73a23.76,23.76,0,0,0,2.72-6.41c1.83-6.56-1-15-5.6-17.51l0,0-.88-.92c-4.45-4.26-7.28-4.1-10.14,1.15-1.81,3.32-2.05,7.78-4.43,10.46a102.54,102.54,0,0,1-15.91,14.46c-4,2.94-8.93,4.9-13.71,6.49-6.42,2.13-13.06,4.6-19.69,4.9a144.1,144.1,0,0,1-29.11-1.76,97.06,97.06,0,0,1-25.25-7.21c-10.13-4.69-19.69-10.8-29-17S69.54,29.31,62.77,19.42c-.9-1.32-4.06-1.11-6.17-1.61-.45,1.94-1.6,4-1.25,5.81A74.1,74.1,0,0,0,67.07,51.88Zm81,135.17c-4.84,2.52-6.63,6.15-5,10.18,1.55,3.82,5.36,5.26,10.15,3.82,4.61-1.42,6-4.75,5-9.11S154.72,187.29,149,188.19Zm-23.94,6,9.1-.41c-.68-5.52-2.16-6.68-7.22-6.05-6.41,1-4.6,6.5-5.82,10.37-8,2.77-10.29.67-9.52-8.84H109L98.11,188v14.53h6.26c-3.54-6.53-2.11-13.7,4.65-13.41a10.06,10.06,0,0,1-.24,2.54c-1.71,4.81-.57,8.88,3.23,10.53,4.52,2,7.07-.59,9-4.26a9.33,9.33,0,0,0,2,2.17c1.92,1,4,2.67,6,2.53,1.77-.14,3.39-2.28,5.08-3.54C127.88,200.32,126.63,199.7,125.07,194.16ZM220,187.42l.83-.37-.8.45c-2.18-3.65-4.56-6.31-9.68-5.67-3.86.49-5.78,2.63-5.7,5.57.06,2.3,2,4.92,3.75,6.66,1.16,1.13,3.61.93,5.63,1.35a6,6,0,0,1-.57,1.56c-1,1.27-2.11,2.48-3.18,3.72,4.12.13,7.3-2.43,8.55-7.07C219.33,191.6,219.57,189.49,220,187.42ZM82,198l-4.85-5.79c.77-2.65,2.3-5.05,1.7-6.66s-3.22-3.37-5.13-3.61c-4.29-.53-8.68-.17-13.49-.17,4.57,2.89,4.75,16.58.62,21.1,7.11-.4,14.61,1.82,20.4-4.31l.64.73c.43,1,.81,2.8,1.3,2.82,4.17.23,8.36.13,11.38.13-.26-4.06-.54-6.88-.6-9.7-.1-3.82-1.7-5.37-5.6-4.18,2.22,3.32,1.39,5.49-2,6.7C84.75,195.6,83.43,197,82,198Zm60.1,69.21,7-2.18h.71c.44,1.6.79,3.23,1.34,4.79A27.37,27.37,0,0,0,175.07,288c11.36.58,21.52-5.28,26.25-15.41.74-1.57.5-3.59.72-5.41,1.81-.12,3.63-.26,5.45-.37,16.06-.91,28.26-15,26.24-30.26-2.16-16.38-17.06-27-33.13-23.58-9.82,2.08-19.63,11.7-20.36,20l-5.38.46c-1.76-3-3.29-6.22-5.33-9C163,215.2,154.07,211,142.82,212.72c-11.76,1.85-18.8,9.24-22.53,20.19l-5.47,3.42a5,5,0,0,1-.68-1.26c-3.08-15.93-17-25.32-32.79-22.08-13.4,2.76-23.16,16.83-21,30.25,2.34,14.38,14.91,24.68,28.67,23.1l-.38-5c-19.88-.67-27.72-19.89-19.65-33,4.79-7.81,14.55-12,23.26-9.74,9.11,2.32,15.35,9.21,15.81,17.46a19.35,19.35,0,0,0-4.22,1.08c-10,5.13-15.81,17.64-13.58,28.75,2.4,11.91,12.34,21.07,24,22.11,12.2,1.08,23.88-5.83,27.92-16.7C142.64,270.06,142.15,268.54,142.09,267.18Zm12-226.42c2.35,2.08,4.44,4.61,7.11,6.12,3.24,1.83,7,2.84,10.5,4.11,2.61.94,5.22,2.17,7.93,2.52,5.8.78,8.52-1.68,8.36-7.52s-.55-11.88-1.24-17.78c-.35-3-.69-6.49-4.77-7.24-1.65-2.69-2.18-6.18-6.6-6.45a158,158,0,0,1-18-2.25c-5.21-.93-9.56,1.17-10.11,6.66C146.47,27,146,35.33,154.09,40.76ZM8,124.13c.69,3.53,3,4.87,6.43,4.9a31.73,31.73,0,0,1,7.88.63c5.37,1.45,10.51,4.23,15.94,4.89a115.48,115.48,0,0,1,30.21,7.37c4.21,1.72,9.35,1.55,14.07,1.53,9.73,0,18.93,2.71,28.37,4.27,11.69,1.94,23.66,2.12,35.47,3.39,9.7,1,19.41,2.18,29,4,11.71,2.19,23.4,4.7,34.89,7.83q20.81,5.69,41.22,12.7c11.62,4,23,8.57,34.37,13.33,5.69,2.4,10.06.69,10.17-5.54a205.85,205.85,0,0,0-1-26.17c-.36-3.2-3.25-6.11-5-9.14a16.48,16.48,0,0,0-10.42-11.83c-4.28-1.7-8.56-3.45-13-4.76-9.18-2.73-18.36-5.62-27.71-7.64-10.23-2.2-20.67-3.44-31-5.21-3.07-.53-6.05-1.81-9.13-2.14-18.39-2-36.78-3.89-55.2-5.51-6.57-.58-13.22-.06-19.81-.41-12.49-.66-25-1.94-37.44-2.28-7.59-.2-15.21,1-22.82,1.35-10.56.51-21.13.8-31.7,1.26a24.78,24.78,0,0,0-3.82.81c-7.21,1.42-14.44,2.72-21.6,4.33a6.06,6.06,0,0,0-3.94,2.86c-.39,1,.87,3,1.91,4C5.13,123.76,6.74,123.77,8,124.13Zm183,78.11c-.29-4.26-.19-7.35-.83-10.28-.36-1.65-1.63-3.74-3-4.33s-3.72.2-5.83.42l4.89,2.32c-1.2,1.23-2.33,2.55-3.62,3.67-.73.63-2.21.75-2.52,1.46a37.87,37.87,0,0,0-1.54,5.67c1.74.37,3.47.84,5.23,1.07a26.49,26.49,0,0,0,3.78,0C188.94,202.23,190.4,202.24,191,202.24Zm-24.32.37a79.57,79.57,0,0,1-.5-9.56c.06-1,1.82-1.85,2.8-2.77.74.89,2.06,1.77,2.1,2.69.13,3.18-.19,6.37-.34,9.58h4.91c-.18-3.38,0-6.63-.66-9.72-.37-1.77-1.89-4.48-3.17-4.65-3.59-.46-7.32.17-10.44.34v14.09Zm52.81.27c15.66.15,14.27.82,14.65-4.14h-7.68c2.16-2.94,4.41-5.42,6-8.27,1.68-3.06,1.39-6.35-2-8.24s-6.23-.85-8.24,1.9c2.34,1,6.07,1.6,6.24,2.74a13.56,13.56,0,0,1-1.81,8.18C225,197.78,222.3,199.86,219.45,202.88ZM136.3,182v20.49H141V181Zm63.43,7c.49-2.76,1.14-4.73,1-6.65-.05-.8-1.68-1.76-2.76-2.12-.49-.16-2,1-2,1.57-.06.89.74,1.85,1.22,2.76C197.78,185.63,198.41,186.68,199.73,189Z"/><path class="cls-2" d="M8,124.13c-1.25-.36-2.86-.37-3.67-1.18-1-1-2.3-3.06-1.91-4a6.06,6.06,0,0,1,3.94-2.86c7.16-1.61,14.39-2.91,21.6-4.33a24.78,24.78,0,0,1,3.82-.81c10.57-.46,21.14-.75,31.7-1.26,7.61-.36,15.23-1.55,22.82-1.35,12.49.34,24.95,1.62,37.44,2.28,6.59.35,13.24-.17,19.81.41,18.42,1.62,36.81,3.55,55.2,5.51,3.08.33,6.06,1.61,9.13,2.14,10.33,1.77,20.77,3,31,5.21,9.35,2,18.53,4.91,27.71,7.64,4.4,1.31,8.68,3.06,13,4.76A16.48,16.48,0,0,1,290,148.1c.33,4.26.8,8.52,1,12.8a115.87,115.87,0,0,1-.05,13.44c-.45,5.47-4.67,8.47-8.57,6.73-6.52-2.91-13-6.07-19.71-8.35-14.4-4.86-28.95-9.3-43.48-13.77-6-1.84-12-3.57-18.14-4.93-9.35-2.07-18.74-4.07-28.19-5.57-14.66-2.32-29.34-4.79-44.1-6.08-11.23-1-22.64.22-33.67-3.22A33.65,33.65,0,0,0,87.7,138c-9-.76-18.4-.05-26.9-2.5-7.78-2.23-15.33-5-23.46-5.81-2.46-.24-5.19-.29-7.25-1.43C23.11,124.44,15.66,123.89,8,124.13Z"/><path class="cls-3" d="M67.07,51.88A74.1,74.1,0,0,1,55.35,23.62c-.35-1.79.8-3.87,1.25-5.81,2.11.5,5.27.29,6.17,1.61,6.77,9.89,17.8,13.9,27.14,20.13s18.88,12.33,29,17a97.06,97.06,0,0,0,25.25,7.21,144.1,144.1,0,0,0,29.11,1.76c6.63-.3,13.27-2.77,19.69-4.9,4.78-1.59,9.7-3.55,13.71-6.49a102.54,102.54,0,0,0,15.91-14.46C225,37,225.21,32.55,227,29.23c2.86-5.25,5.69-5.41,10.14-1.16L238,29l0,0c3.77,10.56.72,19.44-6.64,27.32a26.78,26.78,0,0,0-2.69,4.17c-9.26,14.48-22,24.85-37.64,31.76-13.39,5.94-27.7,6.1-41.95,5.75-5.88-.15-12.05-.76-17.51-2.75A182.77,182.77,0,0,1,104.51,82.9C97,78.64,90.12,73,83.13,67.8,78.6,64.4,74.39,60.58,70,57l0,0L68,53l0,0Z"/><path class="cls-4" d="M8,124.13c7.67-.24,15.12.31,22.1,4.15,2.06,1.14,4.79,1.19,7.25,1.43,8.13.79,15.68,3.58,23.46,5.81,8.5,2.45,17.9,1.74,26.9,2.5A33.65,33.65,0,0,1,95,139.15c11,3.44,22.44,2.24,33.67,3.22,14.76,1.29,29.44,3.76,44.1,6.08C182.23,150,191.62,152,201,154c6.11,1.36,12.15,3.09,18.14,4.93,14.53,4.47,29.08,8.91,43.48,13.77,6.74,2.28,13.19,5.44,19.71,8.35,3.9,1.74,8.12-1.26,8.57-6.73a115.87,115.87,0,0,0,.05-13.44c-.16-4.28-.63-8.54-1-12.8,1.74,3,4.63,5.94,5,9.14a205.85,205.85,0,0,1,1,26.17c-.11,6.23-4.48,7.94-10.17,5.54-11.33-4.76-22.75-9.35-34.37-13.33q-20.4-7-41.22-12.7c-11.49-3.13-23.18-5.64-34.89-7.83-9.57-1.8-19.28-2.94-29-4-11.81-1.27-23.78-1.45-35.47-3.39-9.44-1.56-18.64-4.32-28.37-4.27-4.72,0-9.86.19-14.07-1.53a115.48,115.48,0,0,0-30.21-7.37c-5.43-.66-10.57-3.44-15.94-4.89a31.73,31.73,0,0,0-7.88-.63C11,129,8.68,127.66,8,124.13Z"/><path class="cls-5" d="M70,57c4.36,3.63,8.57,7.45,13.1,10.85C90.12,73,97,78.64,104.51,82.9a182.77,182.77,0,0,0,27.07,12.31c5.46,2,11.63,2.6,17.51,2.75,14.25.35,28.56.19,41.95-5.75,15.61-6.91,28.38-17.28,37.64-31.76a26.78,26.78,0,0,1,2.69-4.17C238.73,48.4,241.78,39.52,238,29c4.63,2.47,7.43,10.95,5.6,17.51a23.76,23.76,0,0,1-2.72,6.41C232.8,65.42,225.22,78.5,213,87.61c-11.87,8.84-25.12,14.65-40.16,15.33-7.75.35-15.52.16-23.26.45-11.78.45-21.66-5.35-32-9.57-15.38-6.31-28.41-16.26-40.4-27.56C74.38,63.61,72.4,60.08,70,57Z"/><path class="cls-6" d="M154.09,40.76C146,35.33,146.47,27,147.27,18.93c.55-5.49,4.9-7.59,10.11-6.66a158,158,0,0,0,18,2.25c4.42.27,5,3.76,6.6,6.45.35,6.41.84,12.83,1,19.25.14,5.45-2.59,8.05-8,7.45-2.71-.3-5.33-1.52-8-2.41C162.7,43.8,158.4,42.27,154.09,40.76Z"/><path class="cls-7" d="M149.8,265h-.71c-.43-2.5-1.07-4.54-4.47-4.11-1.47.18-3.07-.71-4.61-1.12v-.71h4.1a24.29,24.29,0,0,0-8.93-18.45c-3.13-2.59-6.87-4.44-10.33-6.63,1.08-1.59,2.28-3.12,3.21-4.8,4.69-8.44,14.65-13,23.74-10.71,9.26,2.29,16,10,16.09,18.46-1.62.14-3.56-.25-4.8.51C152.77,243.72,148.87,253.23,149.8,265Z"/><path class="cls-8" d="M108.08,236c-.46-8.25-6.7-15.14-15.81-17.46-8.71-2.22-18.47,1.93-23.26,9.74-8.07,13.13-.23,32.35,19.65,33l.38,5c-13.76,1.58-26.33-8.72-28.67-23.1-2.18-13.42,7.58-27.49,21-30.25,15.77-3.24,29.71,6.15,32.79,22.08a5,5,0,0,0,.68,1.26c0,.81.07,1.62.11,2.43-.7,10.7-4.87,19.39-14.64,24.62-1,.56-2.84-.31-4.29-.52l0-3.66c9.86-4.61,15.11-14.73,12.06-23.26Z"/><path class="cls-9" d="M180.24,232.93c.73-8.26,10.54-17.88,20.36-20,16.07-3.41,31,7.2,33.13,23.58,2,15.29-10.18,29.35-26.24,30.26-1.82.11-3.64.25-5.45.37l-2.93-.38c-.6-.55-1.1-1.34-1.81-1.61-9.45-3.57-14.84-10.74-17.63-20.08-.44-1.5.2-3.31.34-5l2.88,1a26.76,26.76,0,0,1,3,4.57c2.41,6,5.46,11.25,12.22,13.12l4.77,1.16a6.73,6.73,0,0,0,2.06,1,21.56,21.56,0,1,0-17.43-31.54,33.05,33.05,0,0,1-3.86,4.72Z"/><path class="cls-10" d="M167.89,236.93c-.13-8.49-6.83-16.17-16.09-18.46-9.09-2.25-19.05,2.27-23.74,10.71-.93,1.68-2.13,3.21-3.21,4.8l-4.56-1.07c3.73-10.95,10.77-18.34,22.53-20.19,11.25-1.76,20.16,2.48,26.71,11.62,2,2.83,3.57,6,5.33,9l.27,5.49A38.09,38.09,0,0,0,174,243c-1.36,8.87-5.8,15.67-13.63,20.09-1.23.7-2.94.56-4.43.81,0-1.6,0-3.19,0-4.79,6.88-3.71,11.86-8.74,11.9-17.19Z"/><path class="cls-11" d="M96,259.2l0,3.66a25.6,25.6,0,0,0,.79,4.84c3.07,8.39,9,13.46,17.95,14.39,9.54,1,16.8-2.89,21.46-11.33,1.11-2,1.68-4.44,4.79-3.89l1.1.31c.06,1.36.55,2.88.11,4.06-4,10.87-15.72,17.78-27.92,16.7-11.66-1-21.6-10.2-24-22.11-2.23-11.11,3.62-23.62,13.58-28.75a19.35,19.35,0,0,1,4.22-1.08l0-.06c.25,3.55-1.11,5.88-4.19,8.08A17.76,17.76,0,0,0,96,259.2Z"/><path class="cls-12" d="M167.89,236.93c0,1.66,0,3.33,0,5-7,2-13.19,10.91-11.9,17.19,0,1.6,0,3.19,0,4.79-.18.24-.56.51-.52.7,2,9.49,9.56,16.55,18.68,17.52,10,1.07,18.3-3.67,22.63-12.82a11.5,11.5,0,0,1,2.34-2.51l2.93.38c-.22,1.82,0,3.84-.72,5.41-4.73,10.13-14.89,16-26.25,15.41a27.37,27.37,0,0,1-23.93-18.21c-.55-1.56-.9-3.19-1.34-4.79-.93-11.77,3-21.28,13.29-27.56C164.33,236.68,166.27,237.07,167.89,236.93Z"/><path class="cls-13" d="M154.09,40.76c4.31,1.51,8.61,3,12.93,4.5,2.63.89,5.25,2.11,8,2.41,5.41.6,8.14-2,8-7.45-.16-6.42-.65-12.84-1-19.25,4.08.75,4.42,4.25,4.77,7.24.69,5.9,1.08,11.85,1.24,17.78s-2.56,8.3-8.36,7.52c-2.71-.35-5.32-1.58-7.93-2.52-3.54-1.27-7.26-2.28-10.5-4.11C158.53,45.37,156.44,42.84,154.09,40.76Z"/><path class="cls-14" d="M81.88,199.26l-.64-.73c-5.79,6.13-13.29,3.91-20.4,4.31,4.13-4.52,4-18.21-.62-21.1,4.81,0,9.2-.36,13.49.17,1.91.24,4.5,2,5.13,3.61s-.93,4-1.7,6.66L82,198Zm-13.57-6.45v7.84c3.84.61,7.45.21,7.26-4C75.39,192.63,71.76,192.32,68.31,192.81Zm-.08-9.63v7.63l1.16,1.08c1.85-1.55,5.11-3,5.28-4.68C75.06,183.31,71.75,182.75,68.23,183.18Z"/><path class="cls-15" d="M175.13,238.88l-.27-5.49,5.38-.46,3.4,1.22c10.21,3.55,17.36,10.07,19.79,20.91.34,1.53-.35,3.29-.56,4.95l-4.77-1.16c-.8-9.62-7.64-17.58-15.21-17.69l-2.88-1Z"/><path class="cls-16" d="M142.09,267.18l-1.1-.31a9.77,9.77,0,0,0-2-1.24c-9.86-3.41-16.13-10.14-18.64-20.26a29.66,29.66,0,0,1-.36-5.28l5.14,1.87c1,2.6,1.3,5.73,3,7.69,2.79,3.23,6.45,5.7,9.74,8.49l0-.05,1.11,1-.07-.05,1.09.74c1.54.41,3.14,1.3,4.61,1.12,3.4-.43,4,1.61,4.47,4.11Z"/><path class="cls-17" d="M125.17,242,120,240.09l-5.1-1.33c0-.81-.07-1.62-.11-2.43l5.47-3.42,4.56,1.07c3.46,2.19,7.2,4,10.33,6.63a24.29,24.29,0,0,1,8.93,18.45H140l-1.09,0,.07.05-1.11-1,0,.05C137.93,250.27,132,242.69,125.17,242Z"/><path class="cls-18" d="M191,202.24c-.56,0-2,0-3.48,0a26.49,26.49,0,0,1-3.78,0c-1.76-.23-3.49-.7-5.23-1.07A37.87,37.87,0,0,1,180,195.5c.31-.71,1.79-.83,2.52-1.46,1.29-1.12,2.42-2.44,3.62-3.67l-4.89-2.32c2.11-.22,4.28-1.07,5.83-.42s2.68,2.68,3,4.33C190.77,194.89,190.67,198,191,202.24Z"/><path class="cls-14" d="M166.64,202.61h-5.3V188.52c3.12-.17,6.85-.8,10.44-.34,1.28.17,2.8,2.88,3.17,4.65.64,3.09.48,6.34.66,9.72H170.7c.15-3.21.47-6.4.34-9.58,0-.92-1.36-1.8-2.1-2.69-1,.92-2.74,1.8-2.8,2.77A79.57,79.57,0,0,0,166.64,202.61Z"/><path class="cls-19" d="M220,187.42c-.38,2.07-.62,4.18-1.17,6.2-1.25,4.64-4.43,7.2-8.55,7.07,1.07-1.24,2.16-2.45,3.18-3.72a6,6,0,0,0,.57-1.56c-2-.42-4.47-.22-5.63-1.35-1.79-1.74-3.69-4.36-3.75-6.66-.08-2.94,1.84-5.08,5.7-5.57,5.12-.64,7.5,2,9.68,5.67Zm-3.17,1.08L211.54,183c-1.06,1.58-3.08,3.25-2.94,4.71.17,1.86,2.09,3.55,3.26,5.31Z"/><path class="cls-20" d="M219.45,202.88c2.85-3,5.58-5.1,7.17-7.83a13.56,13.56,0,0,0,1.81-8.18c-.17-1.14-3.9-1.77-6.24-2.74,2-2.75,4.91-3.77,8.24-1.9s3.64,5.18,2,8.24c-1.56,2.85-3.81,5.33-6,8.27h7.68C233.72,203.7,235.11,203,219.45,202.88Z"/><path class="cls-19" d="M81.88,199.26,82,198c1.44-1,2.76-2.37,4.35-2.94,3.41-1.21,4.24-3.38,2-6.7,3.9-1.19,5.5.36,5.6,4.18.06,2.82.34,5.64.6,9.7-3,0-7.21.1-11.38-.13C82.69,202.06,82.31,200.25,81.88,199.26ZM86,199l1.48-2.58L86,196.13V199l-.39.44Zm2.94-.28.4-.21c-.12-.1-.23-.26-.35-.27s-.26.13-.4.2Z"/><path class="cls-21" d="M109,189.14c-6.76-.29-8.19,6.88-4.65,13.41H98.11V188L109,189.23Z"/><path class="cls-14" d="M136.3,182,141,181v21.58H136.3Z"/><path class="cls-14" d="M121.13,198.07c1.22-3.87-.59-9.42,5.82-10.37-.63,2.15-1.25,4.3-1.88,6.46,1.56,5.54,2.81,6.16,9,5-1.69,1.26-3.31,3.4-5.08,3.54-1.93.14-4-1.48-6-2.53a9.33,9.33,0,0,1-2-2.17Z"/><path class="cls-20" d="M109,189.14l0,.09h2.57c-.77,9.51,1.49,11.61,9.52,8.84L121,198c-1.94,3.67-4.49,6.23-9,4.26-3.8-1.65-4.94-5.72-3.23-10.53A10.06,10.06,0,0,0,109,189.14Z"/><path class="cls-22" d="M154.15,202.19c-4.79,1.44-8.6,0-10.15-3.82-1.62-4,.17-7.66,5-10.18,0,.33,0,.66,0,1-3.43,6.69-1.5,11.93,4.62,12.47A2.07,2.07,0,0,1,154.15,202.19Z"/><path class="cls-19" d="M149.05,189.18c0-.33,0-.66,0-1,5.71-.9,9.12.62,10.12,4.89s-.37,7.69-5,9.11a2.07,2.07,0,0,0-.48-.54,8.07,8.07,0,0,0,.61-10.07C153.43,190.22,150.85,190,149.05,189.18Z"/><path class="cls-23" d="M125.07,194.16c.63-2.16,1.25-4.31,1.88-6.46,5.06-.63,6.54.53,7.22,6.05Z"/><path class="cls-22" d="M199.73,189c-1.32-2.31-1.95-3.36-2.52-4.44-.48-.91-1.28-1.87-1.22-2.76,0-.61,1.51-1.73,2-1.57,1.08.36,2.71,1.32,2.76,2.12C200.87,184.26,200.22,186.23,199.73,189Z"/><path class="cls-5" d="M68,53l2.07,4Z"/><path class="cls-20" d="M220,187.42l0,.08.8-.45Z"/><path class="cls-5" d="M67.07,51.88,68,53Z"/><path class="cls-5" d="M238,29l-.88-.93Z"/><path class="cls-24" d="M138.92,259l1.09,0v.71Z"/><path class="cls-25" d="M114.93,238.76l5.1,1.33a29.66,29.66,0,0,0,.36,5.28c2.51,10.12,8.78,16.85,18.64,20.26a9.77,9.77,0,0,1,2,1.24c-3.11-.55-3.68,1.87-4.79,3.89-4.66,8.44-11.92,12.33-21.46,11.33-8.92-.93-14.88-6-17.95-14.39a25.6,25.6,0,0,1-.79-4.84c1.45.21,3.25,1.08,4.29.52C110.06,258.15,114.23,249.46,114.93,238.76Z"/><path class="cls-26" d="M96,259.2A17.76,17.76,0,0,1,103.84,244c3.08-2.2,4.44-4.53,4.19-8.08C111.08,244.47,105.83,254.59,96,259.2Z"/><path class="cls-27" d="M202.87,260c.21-1.66.9-3.42.56-4.95-2.43-10.84-9.58-17.36-19.79-20.91a33.05,33.05,0,0,0,3.86-4.72A21.61,21.61,0,1,1,204.93,261,6.73,6.73,0,0,1,202.87,260Z"/><path class="cls-28" d="M175.13,238.88l4.88,1.25c-.14,1.67-.78,3.48-.34,5,2.79,9.34,8.18,16.51,17.63,20.08.71.27,1.21,1.06,1.81,1.61a11.5,11.5,0,0,0-2.34,2.51c-4.33,9.15-12.6,13.89-22.63,12.82-9.12-1-16.66-8-18.68-17.52,0-.19.34-.46.52-.7,1.49-.25,3.2-.11,4.43-.81,7.83-4.42,12.27-11.22,13.63-20.09A38.09,38.09,0,0,1,175.13,238.88Z"/><path class="cls-24" d="M182.89,241.16c7.57.11,14.41,8.07,15.21,17.69-6.76-1.87-9.81-7.14-12.22-13.12A26.76,26.76,0,0,0,182.89,241.16Z"/><path class="cls-26" d="M156,259.12c-1.29-6.28,4.89-15.22,11.9-17.19C167.86,250.38,162.88,255.41,156,259.12Z"/><path class="cls-29" d="M68.31,192.81c3.45-.49,7.08-.18,7.26,3.83.19,4.22-3.42,4.62-7.26,4Z"/><path class="cls-26" d="M68.23,183.18c3.52-.43,6.83.13,6.44,4-.17,1.72-3.43,3.13-5.28,4.68l-1.16-1.08Z"/><path class="cls-24" d="M125.17,242c6.79.73,12.76,8.31,12.74,16.18-3.29-2.79-6.95-5.26-9.74-8.49C126.47,247.69,126.13,244.56,125.17,242Z"/><path class="cls-24" d="M137.88,258.09l1.11,1Z"/><path class="cls-30" d="M216.78,188.5,211.86,193c-1.17-1.76-3.09-3.45-3.26-5.31-.14-1.46,1.88-3.13,2.94-4.71Z"/><path class="cls-22" d="M86,199v-2.85l1.54.32L86,199Z"/><path class="cls-22" d="M89,198.75l-.35-.28c.14-.07.27-.21.4-.2s.23.17.35.27Z"/><path class="cls-22" d="M86,199l-.45.39L86,199Z"/><path class="cls-29" d="M149.05,189.18c1.8.77,4.38,1,5.23,2.4a8.07,8.07,0,0,1-.61,10.07C147.55,201.11,145.62,195.87,149.05,189.18Z"/></g></g></svg>