<svg xmlns="http://www.w3.org/2000/svg" viewBox="0 0 137.37 287.31"><defs><style>.cls-1{fill:#045249;}.cls-2{fill:#ed5930;}.cls-3{fill:#e81264;}.cls-4{fill:#9c7412;}.cls-5{fill:#009ddb;}.cls-6{fill:#ad780c;}.cls-7{fill:#8c62a4;}.cls-8{fill:#9f7511;}.cls-9{fill:#a7760e;}.cls-10{fill:#8b7018;}.cls-11{fill:#a27510;}.cls-12{fill:#a07511;}.cls-13{fill:#a4760f;}.cls-14{fill:#9e7411;}.cls-15{fill:#9a7313;}.cls-16{fill:#a17510;}.cls-17{fill:#a5760f;}.cls-18{fill:#a9770d;}.cls-19{fill:#145643;}.cls-20{fill:#0a5446;}.cls-21{fill:#035249;}.cls-22{fill:#055348;}.cls-23{fill:#1b5740;}.cls-24{fill:#2d5c3a;}.cls-25{fill:#015249;}.cls-26{fill:#0f5545;}</style></defs><g id="Layer_2" data-name="Layer 2"><g id="Layer_1-2" data-name="Layer 1"><path class="cls-1" d="M.12,143.78C.12,98,.21,52.15,0,6.34,0,1.19,1.48,0,6.45,0Q68.68.29,130.93,0c5,0,6.45,1.21,6.44,6.34q-.24,137.45,0,274.89c0,4.89-1.43,6.1-6.19,6.08q-62.47-.27-125,0c-4.76,0-6.2-1.2-6.18-6.09C.19,235.41.12,189.59.12,143.78ZM111.73,262.1a5.46,5.46,0,0,0-3.9,7c.42,1.71,2.52,3,3.86,4.51,6.28,1.58.31,4.55.77,6.79l-1.17,1,1.87,0c6.53-5.75,6.54-15.55,0-19.59ZM52.6,281.63l1.09,0h4c0-3.34.12-6.3,0-9.25-.23-4.68-1.42-5.34-6-3.57-2.4-1.69-3.1-.64-3.07,1.83.06,3.57,0,7.14,0,11Zm50.1-8q-.92,3.17-1.81,6.33L99.4,281.2l.39.55,2.13-.85c5-4.1,4.57-9.61,3.49-15-.26-1.27-2.43-2.16-3.73-3.22-4.09-.18-6.1,1.78-5.92,6C96,273.11,98.53,274.51,102.7,273.65Zm22-2.43c.74,3,1.49,6.11,2.33,9.57a5.68,5.68,0,0,0,2.06-7.54c-.54-1.15-2.88-1.46-4.4-2.15l-1.29-7.6c-5,3.68-5.87,13.2-1.55,16.73C122.73,277.4,123.71,274.31,124.69,271.22Zm-95.81,9.2c-1-1.36-2.78-2.65-2.93-4.1-.41-4-.14-8-.14-12.52-5,4.16-2.79,9-2.92,13.35-.16,4.91,1.54,5.62,6.08,3.2L33.51,282c0-4.5,0-8.11,0-11.72,0-7.79,0-7.79-3-8.19,0,4.76.11,9.52-.07,14.26C30.33,277.7,29.42,279.05,28.88,280.42Zm36.74-.79c-.52-1.6-1.39-3.18-1.5-4.81-.23-3.52-.07-7.07-.07-11.42-5.2,5.47-2.82,11-2.68,16.19,0,.8,1.72,1.57,2.64,2.35l1.52-2.4c.31-.21.61-.43.19-.13C66,278.89,65.78,279.26,65.62,279.63ZM50.45,112.92c5.62,4.37,10.75,8.72,16.25,12.53,4.23,2.93,9,5,13.36,7.8a11.24,11.24,0,0,1,5,13c-.5,1.69-1.11,3.34-1.7,5.1,7.57.1,15-5.58,18-13.64s1.09-17.94-5.82-23.08c-4.32-3.22-9.51-5.32-14.45-7.66-2.53-1.2-5.36-1.77-8-2.69C58.2,99.12,45.47,91.49,40.16,74.76,32.67,86.55,33,98.3,37.29,111.44a67.88,67.88,0,0,1-7-3,50.23,50.23,0,0,1-5.15-3.94c-1.53,23.29,18,50.52,38.46,47.22C52.46,140.68,47.28,127.78,50.45,112.92Zm9.86-44.41c-3.1-5.15-5.59-9.29-8.29-13.8-2.62,17,1.4,28.74,12.91,38.69,10.72,9.26,28.24,15.87,35.12,13.72L86.94,90.28c12.17-8.11,13.51-9.5,15.33-15.82-3.35.29-6.61.76-9.88.84-12.8.31-17-3.46-17.41-16.3-.16-4.64.83-9.32,1.34-14.4C67,49.59,64.37,58.76,60.31,68.51ZM68.57,188.6c1,2,1.57,3,2,4,2.3,5.49,6.39,8.47,12.34,8.47s9.81-3.21,12.35-8.55a7.81,7.81,0,0,1,4.45-3.58c6.61-2,10.51-6.81,10.26-13.51a12.86,12.86,0,0,0-10.53-12.25c-6-1.24-11.88,2-14.59,7.91-.55,1.22-1.14,2.43-2.26,4.81-2.35-7.91-6.22-12.75-13.51-12.95-7.78-.22-11.79,4.91-14.38,12.84-1.17-2.54-1.79-4-2.48-5.36a13,13,0,0,0-14.49-7.19,12.77,12.77,0,0,0-10.31,12.43c-.15,6.5,3.62,11.67,10.05,13a6.18,6.18,0,0,1,5.15,4.41c2,5.13,6.07,7.86,11.6,8,5.73.11,9.83-2.64,12.33-7.77C67.11,192.13,67.58,190.91,68.57,188.6ZM87.41,34.27a33.53,33.53,0,0,0,1.2,5c1.68,3.87.88,6.39-3.16,8.32-2.67,1.28-4.82,3.63-7.2,5.5a7.5,7.5,0,0,0,4.37,1.19c7.77.49,8.58,1.46,7.29,9.21-.49,2.94-1.28,5.82-1.93,8.73l1.17.68L101.6,59l9.28,6.66c-.08-1.74.2-3-.23-3.93-3.5-7.69-5.09-15.47-1.73-23.65.07-.18-.28-.54-.63-1.16a27.75,27.75,0,0,0-3.35,1.84c-3.61,2.68-6.84,3.51-10.35-.46C93.11,36.61,90.5,35.93,87.41,34.27Zm30.66,130.31,2.3-.56c0-2.39.3-4.84-.18-7.13-.15-.75-2.35-1.52-3.62-1.53q-47.91-.12-95.83,0c-1.28,0-3.51,1.15-3.66,2-.36,2.14.25,4.45.46,6.69l2.25,1.19c-.93-8.1,3.93-6.48,7.75-6.48,27.45,0,54.9,0,82.35-.06C114,158.75,117.91,158.35,118.07,164.58ZM82,30.84c7.53-4.37,10.89.22,14.73,6.94.27-6.41.24-11.47,6.21-11.33-3-4.19-5.81-8.12-8.82-12.31-2.41,4.93-7.6,2.13-13.79,2.15C87,21.15,86.19,25.6,82,30.84ZM70.58,222.73c0-4.5,0-9,0-13.49,0-2.88-.67-5.53-4.2-5.66S62,206.1,62,209c-.07,9.16-.25,18.33.16,27.48.08,1.8,2.36,4.69,4,5,3.29.62,4.38-2.27,4.41-5.23C70.62,231.72,70.58,227.23,70.58,222.73Zm17.12,0c0-4.65.38-9.34-.19-13.92-.23-1.87-2.25-4.57-3.93-5-3.08-.75-4.14,2-4.15,4.76,0,9.29,0,18.58,0,27.87,0,2.78.78,5.14,4,5.16,3.53,0,4.28-2.48,4.26-5.45C87.69,231.66,87.7,227.18,87.7,222.7ZM50.57,241.4l2.12-.1V203.72l-4,.22c.44,4.2,1,7.68,1.12,11.16.17,7.13,0,14.26.09,21.39A36.08,36.08,0,0,0,50.57,241.4ZM73.7,23.4c.94-2.57,2-5.58,3.16-8.66-4.08,1.79-4.92-2.42-6.1-4.21l-7.32,5.08C64.27,18.16,65.21,21,66,23.4ZM71.28,267.92c3.3,2.7,3.08,3.69-.35,6.11-1.53,1.08-2,3.6-3,5.46a30.41,30.41,0,0,0,4.79,2.05c1.34.34,2.85.07,5.09.07C74.38,277.12,80.78,268.89,71.28,267.92ZM44.66,281.67c0-3.56.06-6.53,0-9.49-.11-3.91-2.26-5.06-6-4.19,4.08,2.56,3.87,3.53.08,6.13-1.43,1-2.35,3.37-2.51,5.2,0,.66,2.76,1.81,4.4,2.27A14.69,14.69,0,0,0,44.66,281.67Zm-24.19-.17c-2-6.81-3.91-13.08-6-20.15C8.17,269.64,16.88,275,16,281.5Zm67.4.28,4.34-.29V262.23l-2.15-.12C87.38,268.09,91.12,275.07,87.87,281.78Z"/><path class="cls-2" d="M50.45,112.92c-3.17,14.86,2,27.76,13.19,38.8-20.42,3.3-40-23.93-38.46-47.22a50.23,50.23,0,0,0,5.15,3.94,67.88,67.88,0,0,0,7,3C33,98.3,32.67,86.55,40.16,74.76c5.31,16.73,18,24.36,32.92,29.49,2.67.92,5.5,1.49,8,2.69,4.94,2.34,10.13,4.44,14.45,7.66,6.91,5.14,9,14.89,5.82,23.08s-10.48,13.74-18,13.64c.59-1.76,1.2-3.41,1.7-5.1a11.24,11.24,0,0,0-5-13c-4.34-2.78-9.13-4.87-13.36-7.8C61.2,121.64,56.07,117.29,50.45,112.92Z"/><path class="cls-3" d="M60.31,68.51c4.06-9.75,6.69-18.92,16-23.91-.51,5.08-1.5,9.76-1.34,14.4.42,12.84,4.61,16.61,17.41,16.3,3.27-.08,6.53-.55,9.88-.84-1.82,6.32-3.16,7.71-15.33,15.82l13.11,16.84c-6.88,2.15-24.4-4.46-35.12-13.72C53.42,83.45,49.4,71.68,52,54.71,54.72,59.22,57.21,63.36,60.31,68.51Z"/><path class="cls-4" d="M68.57,188.6c-1,2.31-1.46,3.53-2,4.7-2.5,5.13-6.6,7.88-12.33,7.77-5.53-.11-9.62-2.84-11.6-8a6.18,6.18,0,0,0-5.15-4.41c-6.43-1.36-10.2-6.53-10-13a12.77,12.77,0,0,1,10.31-12.43,13,13,0,0,1,14.49,7.19c.69,1.4,1.31,2.82,2.48,5.36,2.59-7.93,6.6-13.06,14.38-12.84,7.29.2,11.16,5,13.51,12.95,1.12-2.38,1.71-3.59,2.26-4.81,2.71-6,8.57-9.15,14.59-7.91A12.86,12.86,0,0,1,110,175.42c.25,6.7-3.65,11.56-10.26,13.51a7.81,7.81,0,0,0-4.45,3.58c-2.54,5.34-6.37,8.54-12.35,8.55s-10-3-12.34-8.47C70.14,191.58,69.59,190.63,68.57,188.6ZM29.7,175.93A10.83,10.83,0,0,0,37,186.24c2.5.82,4,.56,5.36-2.38a19.8,19.8,0,0,1,6.29-7.33c2.38-1.74,2.41-3.17,1.32-5.38a10.81,10.81,0,0,0-12.24-5.44A10.6,10.6,0,0,0,29.7,175.93Zm66.72-11.52c-2.77,1.85-5.91,3.34-8.2,5.66-2.11,2.13-2.56,4.59,1.09,6.8a15.77,15.77,0,0,1,5.8,7.1c1.31,3.11,3,3,5.42,2.22a10.86,10.86,0,0,0,7-11.88C106.77,169.2,102.34,165.45,96.42,164.41ZM82.83,178.54c-2.48,2.88-4.69,6.49-7.86,8.8-2.81,2-2.83,3.66-1.36,6.09,2.5,4.15,6.28,5.94,11,5.13,5.12-.87,8-4.12,8.6-7.84Zm-24.28-5,10.06,12.05,10.31-12c-1.42-5.34-5-8.36-10.45-8.26S59.42,168.79,58.55,173.57Zm-14.4,17.21a10.14,10.14,0,0,0,9.09,7.85c4.77.55,8.53-1.32,10.66-5.64.6-1.21.75-3.5,0-4.37-3.08-3.62-6.57-6.88-9.54-9.89Zm47.47-5,1.7-1.68-5.41-5.58-1.46,1.37C88.18,181.86,89.9,183.83,91.62,185.79Zm-47.51-1.53,1.74,1.58,5-6.23-1.57-1.3Z"/><path class="cls-5" d="M87.41,34.27c3.09,1.66,5.7,2.34,7.18,4,3.51,4,6.74,3.14,10.35.46a27.75,27.75,0,0,1,3.35-1.84c.35.62.7,1,.63,1.16-3.36,8.18-1.77,16,1.73,23.65.43.93.15,2.19.23,3.93L101.6,59,89.15,72.86,88,72.18c.65-2.91,1.44-5.79,1.93-8.73,1.29-7.75.48-8.72-7.29-9.21a7.5,7.5,0,0,1-4.37-1.19c2.38-1.87,4.53-4.22,7.2-5.5,4-1.93,4.84-4.45,3.16-8.32A33.53,33.53,0,0,1,87.41,34.27Z"/><path class="cls-6" d="M118.07,164.58c-.16-6.23-4.06-5.83-8.18-5.81-27.45.1-54.9,0-82.35.06-3.82,0-8.68-1.62-7.75,6.48l-2.25-1.19c-.21-2.24-.82-4.55-.46-6.69.15-.89,2.38-2,3.66-2q47.93-.18,95.83,0c1.27,0,3.47.78,3.62,1.53.48,2.29.18,4.74.18,7.13Z"/><path class="cls-7" d="M82,30.84c4.21-5.24,5-9.69-1.67-14.55,6.19,0,11.38,2.78,13.79-2.15,3,4.19,5.82,8.12,8.82,12.31-6-.14-5.94,4.92-6.21,11.33C92.87,31.06,89.51,26.47,82,30.84Z"/><path class="cls-8" d="M70.58,222.73c0,4.5,0,9,0,13.49,0,3-1.12,5.85-4.41,5.23-1.66-.31-3.94-3.2-4-5-.41-9.15-.23-18.32-.16-27.48,0-2.87.78-5.52,4.4-5.39s4.18,2.78,4.2,5.66C70.61,213.73,70.58,218.23,70.58,222.73Zm-3.71-15.68H65.72v31h1.15Z"/><path class="cls-9" d="M87.7,222.7c0,4.48,0,9,0,13.44,0,3-.73,5.48-4.26,5.45-3.24,0-4-2.38-4-5.16,0-9.29,0-18.58,0-27.87,0-2.8,1.07-5.51,4.15-4.76,1.68.41,3.7,3.11,3.93,5C88.08,213.36,87.7,218.05,87.7,222.7Zm-3.6-15.53-1.08,0V238H84.1Z"/><path class="cls-10" d="M50.57,241.4a36.08,36.08,0,0,1-.71-4.91c-.08-7.13.08-14.26-.09-21.39-.08-3.48-.68-7-1.12-11.16l4-.22V241.3Z"/><path class="cls-11" d="M73.7,23.4H66c-.78-2.37-1.72-5.24-2.55-7.79l7.32-5.08c1.18,1.79,2,6,6.1,4.21C75.74,17.82,74.64,20.83,73.7,23.4Z"/><path class="cls-12" d="M71.28,267.92c9.5,1,3.1,9.2,6.51,13.69-2.24,0-3.75.27-5.09-.07a30.41,30.41,0,0,1-4.79-2.05c1-1.86,1.49-4.38,3-5.46C74.36,271.61,74.58,270.62,71.28,267.92Z"/><path class="cls-13" d="M44.66,281.67a14.69,14.69,0,0,1-4.07-.08c-1.64-.46-4.45-1.61-4.4-2.27.16-1.83,1.08-4.22,2.51-5.2,3.79-2.6,4-3.57-.08-6.13,3.76-.87,5.91.28,6,4.19C44.72,275.14,44.66,278.11,44.66,281.67Z"/><path class="cls-14" d="M20.47,281.5H16c.91-6.55-7.8-11.86-1.53-20.15C16.56,268.42,18.43,274.69,20.47,281.5Z"/><path class="cls-15" d="M87.87,281.78c3.25-6.71-.49-13.69,2.19-19.67l2.15.12v19.26Z"/><path class="cls-15" d="M65.53,279.53,64,281.94c-.92-.78-2.62-1.55-2.64-2.35-.14-5.19-2.52-10.72,2.68-16.19,0,4.35-.16,7.9.07,11.42.11,1.63,1,3.21,1.5,4.81Z"/><path class="cls-8" d="M28.9,280.41c.52-1.36,1.43-2.71,1.49-4.09.18-4.74.07-9.5.07-14.26,3,.4,3,.4,3,8.19,0,3.61,0,7.22,0,11.72L29,280.35Z"/><path class="cls-8" d="M29,280.35c-4.54,2.42-6.24,1.71-6.08-3.2.13-4.32-2.12-9.19,2.92-13.35,0,4.5-.27,8.55.14,12.52.15,1.45,1.91,2.74,2.94,4.1Z"/><path class="cls-16" d="M113.18,261.76c6.52,4,6.51,13.84,0,19.59l-.7-1c-.46-2.24,5.51-5.21-.77-6.79,0-.25,0-.49,0-.74,1-1.2,2.78-2.38,2.81-3.61C114.56,266.77,113.67,264.26,113.18,261.76Z"/><path class="cls-17" d="M124.69,271.22c-1,3.09-2,6.18-2.85,9-4.32-3.53-3.43-13.05,1.55-16.73l1.29,7.6Z"/><path class="cls-17" d="M100.89,280q.9-3.17,1.81-6.33l-.2-1.36c-.25-3.23-.51-6.46-.76-9.69l-.06,0c1.3,1.06,3.47,2,3.73,3.22,1.08,5.42,1.52,10.93-3.49,15Z"/><path class="cls-12" d="M51.65,268.84c4.54-1.77,5.73-1.11,6,3.57.15,2.95,0,5.91,0,9.25h-4c.29-3.32.71-6.64.74-10,0-.56-1.68-1.14-2.59-1.71Z"/><path class="cls-18" d="M51.65,268.84c.06.38.13.77.19,1.15q.39,5.82.76,11.64h-4c0-3.82,0-7.39,0-11C48.55,268.2,49.25,267.15,51.65,268.84Z"/><path class="cls-19" d="M113.18,261.76c.49,2.5,1.38,5,1.31,7.49,0,1.23-1.82,2.41-2.81,3.61,0-3.59,0-7.17,0-10.76Z"/><path class="cls-15" d="M102.5,272.29l.2,1.36c-4.17.86-6.74-.54-6.94-5-.18-4.17,1.83-6.13,5.92-6l.06,0a63.44,63.44,0,0,0-2.56,7.68C99.09,270.69,101.34,271.61,102.5,272.29Z"/><path class="cls-20" d="M52.6,281.63q-.37-5.82-.76-11.64c.91.57,2.59,1.15,2.59,1.71,0,3.32-.45,6.64-.74,10Z"/><path class="cls-8" d="M124.69,271.22v-.12c1.52.69,3.86,1,4.4,2.15a5.68,5.68,0,0,1-2.06,7.54C126.18,277.33,125.43,274.27,124.69,271.22Z"/><path class="cls-9" d="M111.73,262.1c0,3.59,0,7.17,0,10.76,0,.25,0,.49,0,.74-1.34-1.49-3.44-2.8-3.86-4.51A5.46,5.46,0,0,1,111.73,262.1Z"/><path class="cls-17" d="M101.92,280.9l-2.13.85-.39-.55,1.49-1.22Z"/><path class="cls-15" d="M65.62,279.63c.16-.37.33-.74.1-.22.42-.3.12-.08-.19.13Z"/><path class="cls-16" d="M113.16,281.35l-1.87,0,1.17-1Z"/><path class="cls-21" d="M29.7,175.93a10.6,10.6,0,0,1,8-10.22,10.81,10.81,0,0,1,12.24,5.44c1.09,2.21,1.06,3.64-1.32,5.38a19.8,19.8,0,0,0-6.29,7.33c-1.34,2.94-2.86,3.2-5.36,2.38A10.83,10.83,0,0,1,29.7,175.93Z"/><path class="cls-21" d="M96.42,164.41c5.92,1,10.35,4.79,11.15,9.9a10.86,10.86,0,0,1-7,11.88c-2.41.82-4.11.89-5.42-2.22a15.77,15.77,0,0,0-5.8-7.1c-3.65-2.21-3.2-4.67-1.09-6.8C90.51,167.75,93.65,166.26,96.42,164.41Z"/><path class="cls-22" d="M82.83,178.54l10.35,12.18c-.58,3.72-3.48,7-8.6,7.84-4.69.81-8.47-1-11-5.13-1.47-2.43-1.45-4,1.36-6.09C78.14,185,80.35,181.42,82.83,178.54Z"/><path class="cls-22" d="M58.55,173.57c.87-4.78,4.43-8.09,9.92-8.19s9,2.92,10.45,8.26l-10.31,12Z"/><path class="cls-22" d="M44.15,190.78l10.23-12.05c3,3,6.46,6.27,9.54,9.89.73.87.58,3.16,0,4.37-2.13,4.32-5.89,6.19-10.66,5.64A10.14,10.14,0,0,1,44.15,190.78Z"/><path class="cls-23" d="M91.62,185.79c-1.72-2-3.44-3.93-5.17-5.89l1.46-1.37,5.41,5.58Z"/><path class="cls-23" d="M44.11,184.26l5.18-5.95,1.57,1.3-5,6.23Z"/><path class="cls-24" d="M66.87,207.05v31H65.72v-31Z"/><path class="cls-25" d="M84.1,207.17V238H83V207.19Z"/><path class="cls-26" d="M102.5,272.29c-1.16-.68-3.41-1.6-3.32-2a63.44,63.44,0,0,1,2.56-7.68C102,265.83,102.25,269.06,102.5,272.29Z"/></g></g></svg>