<svg xmlns="http://www.w3.org/2000/svg" viewBox="0 0 227.81 280.69"><defs><style>.cls-1{fill:#f16132;}.cls-2{fill:#0860ad;}.cls-3{fill:#0e0e0e;}.cls-4{fill:#0b0b0b;}.cls-5{fill:#fdbf17;}.cls-6{fill:#fdc018;}.cls-7{fill:#1468b1;}.cls-8{fill:#f1683b;}.cls-9{fill:#111;}.cls-10{fill:#fdc325;}.cls-11{fill:#10a462;}.cls-12{fill:#fdc11d;}.cls-13{fill:#101010;}.cls-14{fill:#141414;}.cls-15{fill:#17a466;}</style></defs><g id="Layer_2" data-name="Layer 2"><g id="Layer_1-2" data-name="Layer 1"><path class="cls-1" d="M41.59,101.13a74.34,74.34,0,0,1,6.73-3.77c19.28-8.46,39.62-10,60.21-8.14,21.53,1.9,26.64,6.82,30.73,28.16,3.22,16.77,3.59,33.74,2.2,50.74A11.11,11.11,0,0,1,139,174c-1.65-2.61-3.77-5-4.87-7.86-3.64-9.38-7-18.88-10.3-28.39-2.29-6.56-4.23-13.24-6.49-19.82a5.56,5.56,0,0,0-5.27-4.26c-5.16-.62-10.1-3.09-15.26-3.8-10.65-1.45-21.4-2.19-32.1-3.33-6.1-.66-12.19-1.45-18.27-2.32a26.92,26.92,0,0,1-4.57-1.52ZM102.09,98l14.84,12.47,3.09-6.51,1.69-.38,9.64,26.14c1.43-14.3-6.25-31.8-14.18-31.53-.33,2.13-.66,4.28-1,6.81-14.85-12-15.88-12.52-20.27-11,.62,1.84,1.25,3.68,1.66,4.87l-26-1.94c9.19,2.38,17.09,4.46,25,6.44a50,50,0,0,0,5.49.75c-.25-1.72-.49-3.43-.74-5.15Z"/><path class="cls-2" d="M69.83,20.22c3.35,3.47,6.84,6.82,10,10.45a14.23,14.23,0,0,1,3.29,6c.89,4.08-1.4,6.3-5.56,6C70.38,42,63.11,40.34,56,41c-11.62,1-23.5,1.8-33.52,9.58C19.06,53.25,14,53.9,9.65,55.5c.5-3.54.4-3.72,16.73-12.86,6.3-3.52,12.93-6.88,19.83-8.76C53.29,32,60.88,32,69.61,31c-4.3-4.19-8.29-7.77-11.87-11.73-1.71-1.88-2.63-4.47-3.91-6.74,2.41-1,4.78-2.58,7.24-2.74C78.33,8.67,93.63,14.86,108.36,23c1,.56,2,1.16,3.06,1.66.25.12.63,0,1.11-.1.9-6-1.74-10.88-4.46-15.87-.94-1.73-1.88-5.11-1.11-5.78,1.87-1.65,4.87-3.15,7.18-2.85,2.94.37,5.82,2.32,8.45,4a138.18,138.18,0,0,1,40.32,39.45A31.16,31.16,0,0,1,165,47.74l-1.07.82c-4-4.05-7.71-8.38-12-12.09q-11.5-10-23.6-19.4c-2.23-1.71-5.44-2.14-8.7-3.34,1.11,5.57,2.27,10.54,3,15.57.29,1.94.35,4.91-.77,5.81a7.52,7.52,0,0,1-6.3.79C104.43,31.66,93.47,27,82.38,22.59c-3.67-1.44-7.54-2.36-11.32-3.51l-1.82-.36Z"/><path class="cls-3" d="M130.23,193c-1.52,1.44-2.95,3-4.59,4.27a28.28,28.28,0,0,1-4,2.23,40.91,40.91,0,0,1-2-4.4,19.43,19.43,0,0,1-.31-3.88c-2.39,1.94-4.19,3.61-6.2,5-2.78,1.88-5.44,4.93-9.25,1.8-.23-.18-.72-.35-.88-.24-2.45,1.72-5.12,2.43-7-.26-1.39-1.94-1.87-4.53-2.73-6.83-.4-1.07-.73-2.16-1.17-3.49-7.26,1.62-1.91,11.87-9.71,13.2-4.53-5.87,1.3-11.56,0-17.3l1.11-.65,4.64,3.67c6.24-3.39,7.18-3.06,10,3.76a6.48,6.48,0,0,0,.72,1.84,29.2,29.2,0,0,0,2.71,2.38c.55-.93,1.44-1.82,1.58-2.82.68-4.7,2.91-8.16,7.52-9.62,1.44-.46,3.12-.17,4.69-.23-.12,1.89.36,4.12-.48,5.59-1.52,2.63-3.83,4.8-6.6,8.1,5.45-1.85,8.73-5.29,12.16-8.48,1.13-1,2.25-2.1,3.37-3.15l1.07.71-.42,8.52,1.3.68c2.33-3,4.67-5.91,7.42-9.38,3.48-.64,4.1,2.23,3.68,5.18-1.11,7.72-2.56,15.4-3.92,23.08-.52,2.91-1.15,5.79-1.93,9.71-4.62-4.52-4-9.5-3.28-14.15.73-4.81,2.28-9.5,3.47-14.25Z"/><path class="cls-4" d="M190.49,206.83c-14.88,2-29.75,4.16-44.65,6-1.29.16-3.25-1.39-4-2.67-.41-.67.75-2.77,1.69-3.75,7.28-7.52,14.72-14.89,22-22.43,1-1,1.19-2.81,1.76-4.24-1.52-.44-3.36-1.64-4.52-1.17-4.6,1.84-9,4.21-14.43,6.85l-3.5-3.17c6.71-5.37,13.61-8.25,21.53-7.23,5.74.74,7.76,6,4.36,11.44-2.18,3.45-5.28,6.36-8.2,9.28-2.17,2.18-4.7,4-6.61,6.56,12,.83,23.63-1.78,34.61,2.65Z"/><path class="cls-4" d="M9.21,216.9c2.33-3.32,4.65-6.66,7-10C19,203,22,199.22,24.56,195.13c2.24-3.6.9-6-3.31-5.6-4.43.41-8.75,2-13.18,2.42-2.36.2-5.61-.42-7.06-2-1.22-1.29-1.34-5-.33-6.76,6.52-10.95,16.21-18,28.15-22.18,3.94,8.21,3.41,9.08-4.23,13-6.07,3.12-11.81,6.89-17.7,10.37l.8,1.9c3.32-.35,6.65-.68,10-1,1.32-.15,2.62-.53,3.94-.58,4.36-.15,8.6.52,10.55,5,1.83,4.19,0,7.95-3.07,10.83-6.17,5.81-12.58,11.37-18.89,17Z"/><path class="cls-5" d="M126,72.06c4.27,2.34,8.71,4.43,12.76,7.11s6.81,3.08,10.15-1.11c4.85-6.08,10.37-11.63,15.47-17.51,1.05-1.22,1.54-2.93,2.28-4.42l1.91,1.53a14.66,14.66,0,0,1,0,3.63c-2.94,11.56-8.45,21.73-17.31,29.78-7.43,6.75-12.84,6.18-18.63-2-3.33-4.73-5.83-10-8.7-15.1Z"/><path class="cls-6" d="M66,81.72c.41-1.73.35-2.69.8-3.2C74.5,69.79,82.88,62,95,60.1c11.09-1.7,25.38,12.1,24.07,24-5.72-3.26-11.33-6-16.46-9.52-4.42-3-8.7-2.71-13.24-1.1-6.09,2.17-12.13,4.47-18.21,6.67C69.72,80.67,68.22,81.05,66,81.72Z"/><path class="cls-7" d="M89.78,242.6c-.06,7.22-2.53,13.3-8.73,17.35-1.51,1-3.57,1.11-5.37,1.64,0-.77,0-1.56,0-2.34,5.09-2.73,9.64-5.9,9.77-12.51l-.06-3.2c.47-8-5.52-14.51-13.71-15-8.94-.55-16.47,5.77-17.08,14.34-.68,9.47,5.16,15.43,17,17.32l0,2.27c-8.45,2.21-18.38-5.12-20-14.76a19.18,19.18,0,0,1,37.39-8.46C89.25,240.34,89.5,241.48,89.78,242.6Z"/><path class="cls-8" d="M135.46,242.49c0-1.7-.5-3.56,0-5.06a18.88,18.88,0,0,1,20-12.25c9.14,1.21,16.1,8.09,17,16.83a18.82,18.82,0,0,1-12.41,19.93c-2.74,1-5.71,1.26-8.58,1.86l-2.88-.24c-1.22-.74-2.41-1.55-3.67-2.23-5.87-3.13-9.68-7.74-10.47-14.53l3.08,1c2.18,4.72,4.31,9.48,10.18,10.68l2.86.34c.36.29.7.78,1.09.84a15.62,15.62,0,1,0,3.11-31.08c-8.7-.61-13.72,3.39-17.72,14.11Z"/><path class="cls-3" d="M71.61,184c1.88-13.3,2.39-14.79,6.61-18.3,3.39,9.42-2.48,18.44-.49,26.15-3.07,1.36-5.59,2.27-7.89,3.57s-4,3.09-6.17,4.19c-1.46.72-4.24,1.36-4.85.66A7.64,7.64,0,0,1,57,194.6c1-5.32,5.29-7.76,10.09-9.3C68.49,184.84,69.92,184.49,71.61,184Zm-.15,7.66c-5.28-1.18-7.86,1.46-9.82,4.9l1,1.43Z"/><path class="cls-9" d="M92.79,241.54c2.83-11,10.61-17.27,20.46-16.41,10.45.91,16.84,7.94,17.88,19.64a.4.4,0,0,0,.41.28c-.32,1.26-.56,2.55-1,3.77-2.26,6.36-5.52,11.73-12.95,12.9l.09-3.15-.06.12c4.93-2.1,8.95-4.93,8.83-11.06.35-1.34.7-2.69,1-4-.37-7.94-5.73-14-13.16-15-8.85-1.14-15.28,3.45-18.25,13l-1.86.94Z"/><path class="cls-10" d="M71.54,262.45c0-.76,0-1.51,0-2.27,1.84-7.84,5.32-14.34,13.83-16.64l.06,3.2c-5.26,2.61-9.15,6.28-9.77,12.51,0,.78,0,1.57,0,2.34-.1,8,4.52,13.63,12.51,15.38a15.74,15.74,0,0,0,17.44-9.1c.66-1.47,1.28-3,1.92-4.45l2.53.36c-1.5,9.6-8.48,16.35-17.42,16.85-9.91.56-17.68-5.13-20.23-14.81C72.13,264.69,71.83,263.57,71.54,262.45Z"/><path class="cls-11" d="M127.49,243.59c-.34,1.35-.69,2.7-1,4-5.41,1.67-8.33,5.33-8.83,11.05l.06-.12c-.16,1.55-.31,3.1-.47,4.64.33,7,4.4,11.23,10.67,13.34,9.29,3.11,17-1.84,20.78-13l2.88.24c-1.33,9.31-7.95,15.91-16.83,16.79a19.21,19.21,0,0,1-20.35-13.22c-.47-1.33-1.17-2.58-1.76-3.87l.87-3.75C114.94,251.58,118.84,245.52,127.49,243.59Z"/><path class="cls-12" d="M132.85,52.15c7.27-.54,9.07.83,10,7.32a35.72,35.72,0,0,1,.36,6.93c-.33,5.86-2.92,7.31-8.15,4.75-4.38-2.15-8.51-9.46-8.39-14.41S130.17,51.94,132.85,52.15Zm4.45,14.31,1.19-.44c-.31-2.27-.48-4.57-1-6.79a4.4,4.4,0,0,0-1.76-2.67,2.7,2.7,0,0,0-2.5.95,4.7,4.7,0,0,0,0,3.59A44.42,44.42,0,0,0,137.3,66.46Z"/><path class="cls-3" d="M40.63,195.64c3.27-2.66,6.49-5.4,9.85-7.95a23.94,23.94,0,0,1,4.12-2c.16,1.25.69,2.59.42,3.75-2.38,10.09-4.9,20.16-7.41,30.38-3.88-1.91-4.53-4.91-2.86-12.32,1-4.32,2.3-8.55,3.67-13.55l-6.54,3.83-1.23-.93v-1.2Z"/><path class="cls-4" d="M191.59,183.27c-.37.3-1.05.58-1.08.91-.15,2.35.75,5.51-.44,6.91a32.92,32.92,0,0,1-9.36,7.21c-1.4.75-5,.12-5.6-1-1.1-2.05-1.61-5.23-.79-7.32,2.43-6.19,10.38-9.64,17.28-8.2C191.6,182.31,191.59,182.79,191.59,183.27Zm-10.94,10.39c6.17-2.61,7.45-6.31,3.42-10.32l-3.68,10a6.12,6.12,0,0,0-.5.64s.19.21.3.32Z"/><path class="cls-13" d="M191.59,183.27v-1.45h12.66a11.06,11.06,0,0,0,1.32,2.61c4.55,4.53,4.5,7.52-.54,11.41a32.2,32.2,0,0,1-6.41,3.77c-1.38.62-3.07.57-4.61.82-.28-2-1.32-4.37-.66-6,1.24-3.14,3.47-5.88,5.72-9.48Zm11.54,1.82-5.39,11.5C205.21,193.68,206,191.92,203.13,185.09Z"/><path class="cls-3" d="M217.08,182.83c1.89.18,4.92.28,7.86.82,2.75.51,4.06,5.63,1.48,7.84a45.5,45.5,0,0,1-11.65,7.06c-2.76,1.18-5.23-2.76-3.83-6.31.75-1.91,2.5-3.42,3.7-5.18C215.45,185.87,216.09,184.57,217.08,182.83ZM215.8,194l1.35,1.25a45.5,45.5,0,0,0,5.46-4.54c.56-.61,0-2.25-.08-3.41-1.24.23-3,0-3.61.78C217.57,189.8,216.8,192,215.8,194Z"/><path class="cls-14" d="M113.47,259.75l-.87,3.75-2.52.28-2.53-.36c-5.47-2.67-10.94-5.41-13.15-11.65-.57-1.6-.34-3.47-.48-5.22l1.13.08,1.58,1.05-.09-.06c1.48,5.65,4.47,9.86,10.58,11.09l2,.78Z"/><path class="cls-15" d="M131.54,245.05a.4.4,0,0,1-.41-.28c1.44-.74,2.88-1.51,4.32-2.28l1.67.17c3.09,1.84,6.6,3.24,9.15,5.65,2.8,2.65,5.68,5.85,4.37,10.48l-2.86-.34c-1.19-6.56-4.69-10.24-10.18-10.68l-3.08-1Z"/><path class="cls-14" d="M40.65,196.81l1.23.93L36.55,199c-.35-2-1.21-4-.95-5.88.72-5,3.31-8.46,8.48-11-.63,2.74-1,4.54-1.48,6.32-.62,2.42-1.31,4.83-2,7.24l0,0-1,.16Z"/><path class="cls-10" d="M109.16,259.49l-2-.78c-2.34-4.82-3.88-10.42-10.58-11.09l.09.06-1.58-1.05-1.13-.08c-1.4-1.08-4.55-.67-3.37-4l1.09-.22,2.58.2,1.86-.94a36.28,36.28,0,0,0,4,3C106.4,248.11,110.07,254,109.16,259.49Z"/><path class="cls-6" d="M115,53.39c2.79-4.71,4.28-4.93,9.6-1.45C123.07,56.33,121.2,56.61,115,53.39Z"/><path class="cls-12" d="M123.85,63.7H116l-.86-1.28c1.43-1.23,2.74-3.28,4.31-3.51C122.19,58.51,124.54,59.77,123.85,63.7Z"/><path class="cls-1" d="M101.32,98.89,101,97.77l1.13.18Z"/></g></g></svg>