<svg xmlns="http://www.w3.org/2000/svg" viewBox="0 0 300 300"><defs><style>.cls-1{fill:#fdfdfe;}.cls-2{fill:#fbb640;}.cls-3{fill:#13a363;}.cls-4{fill:#f7f8f5;}.cls-5{fill:#0283c5;}.cls-6{fill:#fafaf9;}.cls-7{fill:#148bc9;}.cls-8{fill:#ee3a58;}.cls-9{fill:#322f30;}.cls-10{fill:#1b8fca;}.cls-11{fill:#1c8fcb;}.cls-12{fill:#2393cc;}.cls-13{fill:#188dca;}.cls-14{fill:#0986c6;}.cls-15{fill:#0e88c7;}.cls-16{fill:#f8b543;}.cls-17{fill:#d7ebf5;}.cls-18{fill:#302c2d;}.cls-19{fill:#118ac8;}</style></defs><g id="Layer_2" data-name="Layer 2"><g id="Layer_1-2" data-name="Layer 1"><path class="cls-1" d="M122,300H0V0H300V300H176c8.46-3.11,14.32-8.54,15.9-17.8a3.15,3.15,0,0,0,.1-.75l4-.13.94-.11a52.43,52.43,0,0,0,6.91-2.71,20.35,20.35,0,0,0-13.84-37.6,19.37,19.37,0,0,0-16.46,18.93l-2.6-.52a38.1,38.1,0,0,1-2-4.33,20.29,20.29,0,0,0-18.44-14.31c-8.75-.43-16.52,4.27-19.73,12.31-.72,1.79-.41,4-.57,6l-4.23.2c-.33-1.29-.65-2.58-1-3.86a20.25,20.25,0,0,0-21.2-14.67A20.47,20.47,0,0,0,85.1,259a20.18,20.18,0,0,0,14.37,21.4c2.21.62,4.84-.25,7.27-.44C107.58,289.87,113.32,296.05,122,300ZM231,188l1.91-1,2.12-2.9c-.64-.34-1.45-1.12-1.88-1-2,.79-3.85,1.84-5.76,2.8C229,189.75,229,189.75,231,188Zm5.72-8.12c.63-5.08,1.38-9.31,1.64-13.57.59-10,1.64-20.1,1.24-30.11-.65-16.07-3.11-32.1-3.38-48.16-.4-23.93.37-47.89.77-71.83C237.17,6,237.32,6,227,5.91c-.5,0-1,0-1.5,0-23.93,0-47.86,0-71.79-.1-14.68-.08-29.36-.47-44-.72Q90,4.69,70.33,4.36C68,4.32,66.12,4.58,66,7.7c-.66,11.53-2.35,23-2.13,34.59.24,12.26,0,24.53.07,36.8,0,12.74.32,25.48.18,38.21-.18,15.55-.77,31.08-1,46.63-.07,4.91.43,9.82.73,16Zm-98.54,26.85c2.09,3.28,3.67,5.74,5.22,8.21,3.26,5.18,3.25,5.18,6.26,4,.65-16.58.59-17.12-2.66-19.21v13.27c-2.49-2.28-3.86-4.91-5.67-7.18-1.69-2.11-1.78-6.3-6-5.59V220l1.86.19C137.49,216.12,137.79,212.05,138.19,206.77ZM80.65,220.58l1.57-1.11c-2.21-5.84-4.35-11.71-6.68-17.5a3.59,3.59,0,0,0-2.43-1.8c-.6-.1-1.76.88-2,1.62-2.33,5.91-4.52,11.87-6.75,17.82l1.4.87A24.45,24.45,0,0,1,68.33,217c1.37-1.25,2.87-2.67,4.57-3.2,2.47-.76,4.36.22,5.14,3.12C78.41,218.3,79.75,219.38,80.65,220.58Zm38.8-20.19v19.05h11.38l.06-1.5-8.27-1.16v-5.37l7.35-.89v-1.67l-7.52-1.15.28-4.35,7.49-1.22-.28-1.74Zm87.1,10c0,6,2.62,10.2,6.43,10.29s6.69-4,6.94-9.95c.27-6.54-2.46-11-6.74-10.89C209.09,199.87,206.56,203.88,206.55,210.37Zm-16.38.08c0,5.93,2.77,10.17,6.58,10.22s6.36-3.68,6.82-9.55c0-.16,0-.33,0-.49.29-6.23-2.26-10.6-6.3-10.81C193,199.61,190.12,203.9,190.17,210.45Zm-87.6-1.79-1.64-8.8-1.71.37v19.68l1.71.4,1.59-8.8h8.66V220l2.25.21c1.18-5.52.31-11.32.45-17,0-1.11-.88-2.25-1.36-3.38l-1.34.4c-.15,2.74-.29,5.47-.45,8.4ZM232.91,199c-5.53,4.82-8.43,10.12-11.48,16.21l8.4.58,2,5.38,3.83-7.3-1.44.11C233.81,209.5,233.43,205,232.91,199Zm-68.29,2.58c-3.06-2.46-7.82-2.21-9.88.49s-.92,6.07,2.76,8.17a15.36,15.36,0,0,1,3.05,1.66c1,.94,2.35,2.45,2.13,3.35-.27,1.06-2,2.16-3.22,2.49-1.65.43-3.48.11-5.23.11l-.37,1.61c2.23.3,4.66,1.31,6.62.72s4.77-2.47,5.22-4.27-1.29-4.41-2.7-6.16c-1.63-2-3.94-3.5-5.95-5.22Zm9.5,18.06H187.3l.22-1.43-6.84-1.33c2-3,4.64-5.84,5.63-9.13.62-2-.58-5.92-2.26-7a6.49,6.49,0,0,0-8.82,1.2l8.29,2.6a92.32,92.32,0,0,1-4.15,9C178.2,215.53,176.32,217.12,174.12,219.62Zm-85.95.5,1.9-.23V203.56l6.08-1.76-.4-1.2H81.23l-.2,1.5,5.54,1.15C88.28,208.68,85.31,214.92,88.17,220.12Z"/><path class="cls-2" d="M122,300c-8.68-3.95-14.42-10.13-15.25-20,0-.43.09-.89.14-1.34,2-10.63,7-16.61,15.07-18.09v2c-1.28,1-2.56,2.05-3.85,3.06-3.9,3.08-7,6.64-7.06,12l0,2c-.06,8.62,5.85,15.63,14,16.59,9.69,1.14,16.7-4.08,19-14.15l3.62.21C146.13,292,139.93,296.76,132,300Z"/><path class="cls-3" d="M191.9,282.2c-1.58,9.26-7.44,14.69-15.9,17.8H166c-1.08-.66-2.13-1.39-3.26-2A21.19,21.19,0,0,1,151,277c.33-1.1.61-2.23,1-3.3,2.52-6.68,6.37-12,14-13.16,0,1,0,1.94,0,2.91-6.07,2.84-10.43,7-11,14.12l.05,1.54c.24,2.1.12,4.33.79,6.28a16.16,16.16,0,0,0,15.47,11.05,16.33,16.33,0,0,0,15.94-11.14C188.14,282.87,188.8,280.94,191.9,282.2Z"/><path class="cls-4" d="M151,277a21.19,21.19,0,0,0,11.75,21c1.13.57,2.18,1.3,3.26,2H132c7.93-3.24,14.13-8,15.64-17.75L144,282c0-.35,0-.69,0-1,1.87-1.31,6.86,3.45,6-3.1Z"/><path class="cls-5" d="M236.73,179.92H63.79c-.3-6.17-.8-11.08-.73-16,.24-15.55.83-31.08,1-46.63.14-12.73-.14-25.47-.18-38.21,0-12.27.17-24.54-.07-36.8C63.6,30.69,65.29,19.23,66,7.7c.17-3.12,2-3.38,4.38-3.34Q90,4.72,109.63,5c14.67.25,29.35.64,44,.72,23.93.14,47.86.07,71.79.1.5,0,1,0,1.5,0C237.32,6,237.17,6,237,16.25c-.4,23.94-1.17,47.9-.77,71.83.27,16.06,2.73,32.09,3.38,48.16.4,10-.65,20.08-1.24,30.11C238.11,170.61,237.36,174.84,236.73,179.92ZM196,103c-.14-4.76,0-9.56-.57-14.27-.19-1.5-2.25-2.77-3.46-4.15-1,1.54-2.55,3-2.85,4.63-1.16,6.52-2,13.1-2.77,19.68-.12.95.61,2,1,3l1.7-.13,3-23.27,1.89.21c-.42,4.22-.32,8.57-1.4,12.61-.83,3.11-.37,3.91,2.61,3.61-4,10.21-12.48,15.35-20.75,20,.94-5.64,2-10.9,2.54-16.21.13-1.26-1.49-2.7-2.31-4.06-1.31.81-3.11,1.3-3.84,2.47-3.43,5.45-6.69,11-9.69,16.7-.49.93.59,2.69,1,4.07l1.23.08c-.6.51-1.15,1.39-1.8,1.48-11.19,1.54-22.39,2.44-34.84.28a22.54,22.54,0,0,0,2.82-1.16c4.47-2.83,9.07-5.5,13.29-8.68,1-.77.77-3.23,1.11-4.91-1.51-.13-3.36-.89-4.46-.29a83.72,83.72,0,0,0-12.58,7.91c-7.33,5.92-7.17,6.12-15.66,1.18a38,38,0,0,1-3.86-2.28c-4.12-3.11-7.36-6.85-8.78-13,4,1.64,7,3.44,10.29,4.13s7.14,1.64,10.65-2.46c-7.9-3-11.35-13-22.51-10.86.79-7.07,1.53-13.82,2.4-21.72L111,91.55l2-1.06c-2.36-6.87-4.43-13.85-7.23-20.53-.95-2.26-2.35-3.87-.46-6.13,2.09-2.52,2.8-6,7.55-6,6.6,0,13.22-1.13,19.77-2.19,1.3-.21,2.29-2.33,3.42-3.57-1.22-1-2.38-2.67-3.66-2.77a99.6,99.6,0,0,0-10.92.17l-.6-.61,13.7-8.35c5.62,6.54,12.15,9.15,19.8,8.93,1.61,0,3.19-1.07,4.79-1.64-1-1.73-1.6-4.13-3.1-5.07-2.73-1.71-6-2.55-9.73-4,2.13-1.53,4.08-2.54,5.48-4,1.22-1.32,1.83-3.22,2.7-4.87-1.62-.57-3.35-1.83-4.83-1.58-6.92,1.14-15.28.27-16.81,10.3l-17.25,10c3.3-4.74,6.21-8.56,8.64-12.65.62-1-.29-3-.49-4.47-1.63.33-3.92.1-4.76,1.1-2.33,2.76-3.8,6.24-6.07,9.06-4.67,5.81-3.49,14.05-9,19.72-3.8,3.9-4,11.25-11.5,11.7-.54,0-1.11,1.19-1.5,1.9-2.74,4.94-5.58,9.83-8,14.9-.63,1.31,0,3.21,0,4.85,1.58-.68,3.58-1,4.65-2.1a111.84,111.84,0,0,0,6.93-9c.5,1.49,1,2.22,1,2.93-.5,12.18.4,24.65-7.22,35.39a5.47,5.47,0,0,0-1,2.78c-.08,1.92.15,3.86.26,5.79,1.89-.93,4.52-1.38,5.52-2.91,2.22-3.38,3.62-7.3,4.82-9.86l20.35,13.91-.43,1.44a30.27,30.27,0,0,1,4.06,3.29c2.31,2.79,4.21,6,6.75,8.49,1,1,3.29.76,5,1.08.08-1.66.73-3.59.12-4.94-1.22-2.69-3.13-5.07-4.82-7.67,3.77.23,7.24.56,10.72.62,3.66.06,7.33-.29,11-.14A5.68,5.68,0,0,1,154,135.4c4.61,5.07,18.08,7.7,24.21,4.56,3.29-1.69,3.69-4.25.7-6.63a57.67,57.67,0,0,0-6.87-4.07c2.78-1.51,5.68-2.57,7.95-4.42,4.74-3.87,10.23-5,16.05-5.69,2.95-.33,6.21-.67,8.61-2.16,2-1.24,2.86-4.19,4.23-6.38-2.19-1.13-4.28-2.62-6.61-3.28-1.4-.39-3.16.5-6.14,1.08,5-6.46,9.07-12,13.43-17.35,4.9-6,10.19-11.67,14.93-17.78,1-1.3.38-3.88.5-5.86-2,.44-4.55.25-5.86,1.45-4.08,3.69-7.68,7.91-11.08,11.52-.58-4.51.47-11.24-2.38-15.06-4.9-6.57-3.72-12.24-1.66-18.7a7.33,7.33,0,0,0,.4-3.45,59.49,59.49,0,0,0-1.78-6c-2.29.89-5.85,1.18-6.63,2.79-1.86,3.89-2.42,8.41-3.42,12.36-3.87-1.11-9-2.67-14.2-4-1-.24-2.22.59-3.33.93,1,.81,2.05,2.39,3,2.32,6.28-.47,11.21,2.75,16.26,5.58,6.06,3.39,10.6,7.79,10,15.63a26,26,0,0,0,.85,7.92C207.48,90.42,202.06,96.85,196,103Zm2.57-33.6,1.51-1.22c-1-1.69-1.71-4.31-3.17-4.87a33.84,33.84,0,0,0-11-2.17c-1.9,0-3.85,1.86-5.77,2.88,1,2,1.59,4.71,3.22,5.71C188.9,73.2,194.86,76,200.71,79c.24.12.8-.4,1.73-.9-4.56-7.28-15.8-5.17-19.72-13.58C189.58,62.43,194.75,63.63,198.54,69.44Zm-109.35-18c6.7,5.79,11.34,5.35,13.51.3.63-1.47.38-4.22-.63-5.23s-3.7-1-5.16-.28C94.27,47.47,92,49.5,89.19,51.46Zm111.48,69-7.2,5.59c1.77,1.67,4,5,5.21,4.64,2.61-.67,4.71-3.26,7-5.07ZM159.45,39.22c5.49.09,10.5-3.2,10.5-6.15,0-3.3-2.2-4.62-5.14-4.84-3.76-.28-7.83,3.53-7.6,7.53C157.29,37.19,159,38.52,159.45,39.22Zm-88.36,64c3,2.46,4.74,4.88,6.86,5.27,1.26.22,4.32-2.7,4.41-4.32a5,5,0,0,0-5.77-5.27C75.08,99.06,73.75,101.05,71.09,103.23Zm87.69,46-.07-2.34c-1.93-.94-3.79-2.36-5.82-2.7-2.65-.44-5.48.67-4.85,3.9.37,1.89,2.78,4.83,4.11,4.74C154.43,152.66,156.58,150.51,158.78,149.21ZM107,130.07l-7.87,6.56c2,1.71,4.43,5.13,5.93,4.77,2.74-.66,4.93-3.57,7.34-5.54ZM218.44,92.72l-2,.31c-.81,2.12-2.19,4.25-2.18,6.37,0,1.18,3.05,3.57,3.51,3.3,2.05-1.19,4.74-2.94,5.08-4.87C223.08,96.43,220,94.44,218.44,92.72Z"/><path class="cls-6" d="M191.9,282.2c-3.1-1.26-3.76.67-4.65,3.1a16.33,16.33,0,0,1-15.94,11.14,16.16,16.16,0,0,1-15.47-11.05c-.67-1.95-.55-4.18-.8-6.27,1.3,0,2.8.39,3.86-.13,5.11-2.49,8.29-6.71,10.12-12.05a45.37,45.37,0,0,1,2-4.25l5.56,1.26c-3.38-.42-3.05,1.62-2.28,3.65,3.1,8.18,9.11,12.71,17.73,13.85A3.15,3.15,0,0,1,191.9,282.2Z"/><path class="cls-7" d="M106.89,278.62c0,.45-.09.91-.14,1.34-2.44.18-5.07,1.05-7.28.43A20.18,20.18,0,0,1,85.1,259a20.47,20.47,0,0,1,18.74-18.33A20.25,20.25,0,0,1,125,255.33c.37,1.28.69,2.57,1,3.86v3.6c-.42,1.59-.75,3.21-1.26,4.77-2.23,6.81-8.24,12-13.79,12l0-2c5.58-3.6,10.89-7.4,10.91-15v-2a16.38,16.38,0,0,0-15.34-16.42,17,17,0,0,0-17.57,13.12c-1.78,8.71,2.93,17.11,11.14,19.71C102.38,277.64,104.66,278.07,106.89,278.62Z"/><path class="cls-8" d="M192,281.45c-8.62-1.14-14.63-5.67-17.73-13.85-.77-2-1.1-4.07,2.27-3.65h-.08c2.47,6.27,5.49,12,13.11,13.08H190l.44.07a10.63,10.63,0,0,0,2.76.79c8.31.16,15.74-6.07,16.85-14,1.29-9.28-3.71-16.88-12.64-19.22a16.77,16.77,0,0,0-19.48,10,42.44,42.44,0,0,1-3.08,5.17l-1.26.05a19.36,19.36,0,0,1,16.45-18.93,20.35,20.35,0,0,1,13.84,37.6,52.43,52.43,0,0,1-6.91,2.71.94.94,0,0,0-.94.11Z"/><path class="cls-9" d="M171,262.69a45.37,45.37,0,0,0-2,4.25c-1.83,5.34-5,9.56-10.12,12.05-1.06.52-2.56.12-3.86.13,0-.52,0-1,0-1.55,5.42-3.34,10.41-7,11-14.12l0-2.91c-.26-8.46-5.61-14.73-13.84-16.25-7.48-1.38-15.23,3.12-18.36,10.47a25.35,25.35,0,0,1-3,4.31.37.37,0,0,0-.6-.08c.16-2-.15-4.22.57-6,3.21-8,11-12.74,19.73-12.31A20.29,20.29,0,0,1,169,255a38.1,38.1,0,0,0,2,4.33Z"/><path class="cls-10" d="M138.19,206.77c-.4,5.28-.7,9.35-1,13.43l-1.86-.19V200.3c4.24-.71,4.33,3.48,6,5.59,1.81,2.27,3.18,4.9,5.67,7.18V199.8c3.25,2.09,3.31,2.63,2.66,19.21-3,1.15-3,1.15-6.26-4C141.86,212.51,140.28,210.05,138.19,206.77Z"/><path class="cls-11" d="M80.65,220.58c-.9-1.2-2.24-2.28-2.61-3.63-.78-2.9-2.67-3.88-5.14-3.12-1.7.53-3.2,1.95-4.57,3.2a24.45,24.45,0,0,0-2.62,3.45l-1.4-.87c2.23-6,4.42-11.91,6.75-17.82.29-.74,1.45-1.72,2-1.62a3.59,3.59,0,0,1,2.43,1.8c2.33,5.79,4.47,11.66,6.68,17.5Z"/><path class="cls-12" d="M119.45,200.39h10.48l.28,1.74-7.49,1.22-.28,4.35,7.52,1.15v1.67l-7.35.89v5.37l8.27,1.16-.06,1.5H119.45Z"/><path class="cls-13" d="M206.55,210.37c0-6.49,2.54-10.5,6.63-10.55,4.28-.06,7,4.35,6.74,10.89-.25,5.93-3.12,10-6.94,9.95S206.54,216.36,206.55,210.37Zm1.69-.56c1.86,3,3.72,7.83,5,7.68,4.13-.5,3.75-4.81,3.56-8-.16-2.79,0-6.89-3.93-6.73C211.38,202.83,210.09,206.83,208.24,209.81Z"/><path class="cls-13" d="M190.17,210.45c0-6.55,2.83-10.84,7.13-10.63,4,.21,6.59,4.58,6.3,10.81,0,.16,0,.33,0,.49-.46,5.87-3.12,9.59-6.82,9.55S190.21,216.38,190.17,210.45Zm12,.05-5.41-8.11c-1.18,2.85-3.17,5.67-3.26,8.56-.07,2.27,2.19,4.62,3.41,6.94Z"/><path class="cls-14" d="M102.57,208.66h8.16c.16-2.93.3-5.66.45-8.4l1.34-.4c.48,1.13,1.39,2.27,1.36,3.38-.14,5.64.73,11.44-.45,17l-2.25-.21v-8.48h-8.66l-1.59,8.8-1.71-.4V200.23l1.71-.37Z"/><path class="cls-15" d="M232.91,199c.52,6.05.9,10.52,1.28,15l1.44-.11-3.83,7.3-2-5.38-8.4-.58C224.48,209.1,227.38,203.8,232.91,199Zm-2.52,13.77v-8l-5.09,8Z"/><path class="cls-7" d="M164.62,201.56l-7.57,2.95c2,1.72,4.32,3.19,5.95,5.22,1.41,1.75,3.14,4.41,2.7,6.16s-3.15,3.66-5.22,4.27-4.39-.42-6.62-.72l.37-1.61c1.75,0,3.58.32,5.23-.11,1.26-.33,2.95-1.43,3.22-2.49.22-.9-1.17-2.41-2.13-3.35a15.36,15.36,0,0,0-3.05-1.66c-3.68-2.1-4.81-5.47-2.76-8.17S161.56,199.1,164.62,201.56Z"/><path class="cls-13" d="M174.12,219.62c2.2-2.5,4.08-4.09,5.25-6.1a92.32,92.32,0,0,0,4.15-9l-8.29-2.6a6.49,6.49,0,0,1,8.82-1.2c1.68,1.12,2.88,5,2.26,7-1,3.29-3.65,6.09-5.63,9.13l6.84,1.33-.22,1.43Z"/><path class="cls-16" d="M130.29,259a.37.37,0,0,1,.6.08c9,2.69,15,8.27,17,17.7l-1.26.9-2.8-.83-.92-.78,0,0c-.16-6-3.72-10.2-10.13-11.92l-3.64-.17-3.11-1.2v-3.6Z"/><path class="cls-3" d="M171,262.69v-3.38l2.6.52,1.27-.05c8,1,13,5.87,15.83,13.06.47,1.19-.13,2.81-.24,4.24L190,277h-.44c-.94-1.52-1.9-3-2.79-4.55-2.39-4.13-5.16-7.76-10.32-8.53h.08Z"/><path class="cls-13" d="M88.17,220.12c-2.86-5.2.11-11.44-1.6-16.87L81,202.1l.2-1.5H95.75l.4,1.2-6.08,1.76v16.33Z"/><path class="cls-17" d="M231,188c-2,1.71-2,1.71-3.61-2.07,1.91-1,3.78-2,5.76-2.8.43-.17,1.24.61,1.88,1l-2.12,2.9Z"/><path class="cls-12" d="M231,188l1.91-1Z"/><path class="cls-18" d="M148,277.67l2,.23c.83,6.55-4.16,1.79-6,3.1-7.8-3.18-13.2-8.45-14.83-17l3.64.17c1.66,5.43,4.09,10.21,10.13,11.92l0,0,.92.78,2.8.83Z"/><path class="cls-19" d="M156.9,134.18c6.41-5.21,17.92-2.9,20.93,2.47C171.45,140.18,161.43,139,156.9,134.18Z"/><path class="cls-7" d="M211.59,84.85c0-7.47,5-11.4,10.38-15.08l1.5,1.06-10.54,15Z"/><path class="cls-13" d="M112.87,111.43l-15-6.16c1.87-1.66,3.58-3.69,4-3.45,4.14,2.35,8.07,5.09,12.06,7.71Z"/><path class="cls-15" d="M190.62,116.2c3.36-2,6.59-4.29,10.15-5.79,1.34-.57,3.46.72,5.23,1.17-1.17,1.22-2.13,3.11-3.53,3.54a118.11,118.11,0,0,1-11.57,2.41Z"/><path class="cls-19" d="M202.48,40c-.81,4.29-1.56,8.19-2.31,12.17-4.4-1-4.69-3.48-4-6.3S197,39.66,202.48,40Z"/><path class="cls-10" d="M151.81,32.22l-15,5.41c.13-4.71,6.2-7.4,14.46-7Z"/><path class="cls-7" d="M132.83,52.46a38,38,0,0,1-18.51,2.62C120.27,52.39,126.22,49.67,132.83,52.46Z"/><path class="cls-19" d="M141,41.93c5.28,0,10.6,0,14.71,4l-.47,1.73-14.69-3.82Z"/><path class="cls-13" d="M142.09,118.16l-14.9,9.39L126,125.76l14.75-9.63C141.21,116.81,141.65,117.48,142.09,118.16Z"/><path class="cls-7" d="M106,81.83c-1.24-3.84-7.11-6-3.18-13,1.91,4.85,3.36,8.57,4.82,12.28Z"/><path class="cls-13" d="M124.48,133.42l8.41,9.21-1.38,1.24c-4-1.93-6.25-5.44-7.81-9.58Z"/><path class="cls-12" d="M86.05,90.06q3.3-7,6.59-14l1.67.88A29.36,29.36,0,0,1,86,90Z"/><path class="cls-12" d="M95.58,116,91,126.44l-1.81-.83,4.8-10.45Z"/><path class="cls-5" d="M195,105.05l1-2.09Z"/><path class="cls-5" d="M121.41,49.42l-1.21.21.61-.82Z"/><path class="cls-13" d="M123.7,134.29l-.36-1,1.14.11Z"/><path class="cls-12" d="M86,90l-.37.7-.26-.51.7-.1Z"/><path class="cls-7" d="M159.47,35c2-1.35,4-2.73,6.13-3.95a17.13,17.13,0,0,1,1.56,2l-6,4.19C160.58,36.53,160,35.79,159.47,35Z"/><path class="cls-11" d="M101.12,135.34l9.3-.87C106.64,139.76,105,140,101.12,135.34Z"/></g></g></svg>