<svg xmlns="http://www.w3.org/2000/svg" viewBox="0 0 300 300"><defs><style>.cls-1{fill:#fdfdfd;}.cls-2{fill:#e23b42;}.cls-3{fill:#e13a41;}.cls-4{fill:#0e0e24;}.cls-5{fill:#fbfbfa;}.cls-6{fill:#ed2a31;}.cls-7{fill:#0f95d7;}.cls-8{fill:#0f0f24;}.cls-9{fill:#0faa5b;}.cls-10{fill:#2f2b2d;}.cls-11{fill:#0d0d23;}.cls-12{fill:#fbb43b;}.cls-13{fill:#0a0a20;}.cls-14{fill:#121227;}.cls-15{fill:#111126;}.cls-16{fill:#e3454c;}.cls-17{fill:#fbb53e;}.cls-18{fill:#322f2f;}.cls-19{fill:#13ac5e;}.cls-20{fill:#e9e9eb;}.cls-21{fill:#18182d;}.cls-22{fill:#e4e4e6;}.cls-23{fill:#1e1e32;}.cls-24{fill:#f1f2ee;}.cls-25{fill:#fdf8f8;}.cls-26{fill:#fdfbfb;}.cls-27{fill:#e6f1eb;}</style></defs><g id="Layer_2" data-name="Layer 2"><g id="Layer_1-2" data-name="Layer 1"><path class="cls-1" d="M0,300V0H300V300ZM202.66,195.9l-1.48.07c-1,.6-2.79,1.11-2.86,1.79-.32,3.08-.15,6.2-.16,9.31l-13,1.28c4.32-4.32,10.17-6.79,8.24-12.91-.71-2.27-4.11-4.79-6.61-5.19-5.18-.83-10.09.85-14.88,5.78l18.58,1.21c-4.12,7.48-10.09,11.42-19.64,13.31a6.68,6.68,0,0,0,.88,1.71c6,5.92,19.36,4.87,24.41-1.77.61-.8,1.93-1.07,2.92-1.58l3.35,5.64c4-1.54,6.89-2.22,9.28-3.68,3.16-1.93,3.35-11.46.24-15.28C208.93,191.94,205.7,194.36,202.66,195.9ZM61,192.25,61,194.1c-.57,3.57-1.07,7.16-1.76,10.71a36.84,36.84,0,0,1-1.61,4.67c2.43,2,2.62,8.33,9.17,6.81l1.22-4.22c14,2,16.42,1.93,21.41-.72-.49-2.13-1-4.31-1.51-6.5,2.14,1.59,4.54,2.93,6.39,4.81,3.52,3.59,7.16,6.57,12.42,6.18l1.13-1.34-8.18-8.42,7.62-.89A15,15,0,0,0,95.76,196c-5.78-1.16-6.69-.32-6.8,5.45a15.92,15.92,0,0,1-.88,3.57c-.5.12-1.11.47-1.49.31-4.59-1.93-9.14-3.93-13.7-5.92l.25-2c3.37-1.26,6.81-2.39,10.09-3.87,1.23-.55,2.1-1.93,3.13-2.94-1.22-.91-2.37-2.46-3.69-2.63a122.45,122.45,0,0,0-16.75-1.38c-6.9,0-13.79.86-20.68,1.34l-.07,2.66ZM127.1,255c-10,3.12-15.55,14.3-12.21,24.79,3.42,10.73,14.89,16.81,25.33,13.42,8.62-2.81,14.39-10.31,13.33-17.33l5.31-.08c1.57,10.18,8.68,17.33,18.07,18.2a20.09,20.09,0,0,0,21.1-13.1c.53-1.48.07-3.32.06-5a73.45,73.45,0,0,0,7.89-.8,20.26,20.26,0,0,0,15.93-20.16c-.14-9.72-7.64-18.46-17-19.86-9.91-1.48-19.46,4-22.5,13.17-.47,1.41.25,3.22.39,4.84h-4.31c-1.92,5.83,3.35,3.85,5.23,5.41-2.87.59-1.9,2.43-1.28,4.08,2.78,7.42,8.77,11.06,15.86,13.4-3.32-.71-3.45,2-4.31,4a16.24,16.24,0,0,1-15.72,9.93,16,16,0,0,1-14.51-11.55c-.39-1.34.13-2.95.23-4.43a6.6,6.6,0,0,0,1.86-.35,20.57,20.57,0,0,0,11-22C175.37,243.17,168,236,159.78,235c-9.49-1.19-18.06,3.52-21.73,12.19-.72,1.7-.59,3.77-.86,5.66l-3.94.29a7.93,7.93,0,0,0-.85-.14c-.38-1.44-.69-2.91-1.17-4.32a20.32,20.32,0,0,0-22.81-13.62c-9.67,1.56-17.07,10.61-16.84,20.59a20.54,20.54,0,0,0,17.65,19.91c3.71.51,3.88.3,3.1-3.89C100.82,269.84,95,263.19,96,253.12c.81-8.06,8.35-14.43,16.65-14.08,8.61.36,14.92,7,15.24,15.92Zm116-65.92-2.61.2c-3.34.46-6.87,1.73-7,5.26-.07,2.8,2.08,5.67,3.46,9a19.89,19.89,0,0,0-2.54,1.94c-1.12,1.06-2,2.34-3.5,4,0-3.7.39-6.42-.08-9-1.1-6-5.38-7.76-11-5.6-4.85,1.85-3.72,6-4,9.26a13.27,13.27,0,0,0,2.2,8.22c1.55,2.14,10.31.23,12.68-2.25,2.71,7,8.75,7.51,14.88,7.33,3.21-.09,6.92-1,6.91-4.91,0-2.36-2.22-4.71-3.44-7.06-2.12,6.35-3.21,7-10.56,6,1.45-1.57,2.58-2.89,3.83-4.1,2.22-2.15,4.92-3.93,6.69-6.39C254.05,194.19,251.84,190,243.11,189.05ZM124.75,38.82c-1.1,6.21-1.14,6.85,5.44,7.23a184.2,184.2,0,0,0,26.16-.33c12.06-1,23.34-4.68,32.91-12.54,3.72-3.06,3.75-5.33.67-9.16-3.38-4.22-7.69-6.3-12.84-7.76-8.5-2.4-16.6-6.46-25.19-8.27-9.26-1.94-19-2-27,4.52-2.34,1.9-4.05,4.62-5.9,7.07-1.73,2.28-3.78,4.5-4.79,7.1-6.92,17.63-6,36.58-8.84,54.9A5.4,5.4,0,0,0,107,85.86c.67.55,2.73-.34,4-.89,3.94-1.62,7.69-3.89,11.76-5,7-1.88,12.84,2.2,13.83,9.42.47,3.4-.25,7,0,10.42s.39,7,1.62,10.11c.61,1.53,3.49,2.83,5.43,3,1.4.09,4.15-1.86,4.22-3,.4-7,2.52-15.25-.33-20.83-4.38-8.58-5.33-16.77-4.69-25.76.22-3.12-.51-5.07-4.36-4.9a109.44,109.44,0,0,1-15.79-.29c-2.31-.24-5.48-1.5-6.49-3.29C112.22,47.84,116.54,40.22,124.75,38.82Zm-17.22,74.11c-1.13,4.11-2.49,6.78-2.49,9.44,0,8.27.44,16.55.85,24.82.29,6,2.72,11.28,8.31,13.75a93,93,0,0,0,36.59,7.8c1,0,3.18-2.78,2.89-3.61-1.77-5.13.9-8.84,3.69-12.24,4.2-5.11,8.85-9.87,13.44-14.65,10.18-10.58,8.88-25.49-3.13-33.74-1.44-1-3.41-1.18-5.61-1.9,0,2.27-.13,3.59,0,4.87,1.07,9.06-4.89,16.07-12.4,18.74s-17.12-1.18-22.22-7.59c-4.67-5.87-3.55-12-2.88-18.42.26-2.43-.11-6.21-1.63-7.21-1.78-1.17-5.4-.68-7.73.28C107.13,96.64,104.63,104.64,107.53,112.93Zm88.05,43.66c6.74,1.57,9.17.7,9.9-5.24,1.53-12.48,3-25,3.15-37.59.1-11.39-1.59-22.8-2.67-34.18-.43-4.53-1.48-9-2-13.52-.64-5.46-.55-11.06-1.67-16.41s-3.9-6.38-8.88-4.3c-5.5,2.29-10.64,5.65-16.29,7.32s-5.74,4.86-5.58,9.71c.24,7.23,1.62,14.94-5.65,20.5-3.36,2.56-2.55,5.39,1.53,7.12a43.15,43.15,0,0,1,19.72,17c3.77,5.86,7.06,12.37,5.54,19.62a37.18,37.18,0,0,1-9.44,17.66A89.68,89.68,0,0,0,172.67,158c-3.62,5.92-.44,10.72,6.56,10.77C185.73,168.79,192.74,163.69,195.58,156.59Zm-33.53,42.33c-1.21-4.31-1.81-4.83-4.91-4.7A11.64,11.64,0,0,0,146,205c-.32,3.58.52,5.9,4.82,5.41a61,61,0,0,1,6.51,0c-2,9.08-8.79,11-16.63,11.29.07,5.11,3.59,4.4,6.35,4.45,9.73.19,14.63-3.18,16.37-11.07,1.22-5.48-1.66-11.92-6.57-14.16v5.64c-2.13-.86-5-1.4-5-2.12-.16-2.41.68-4.87,1.18-7.52Zm-44.56-3.7c-.76,10.81-3,21-10.26,29.83,3.38-.68,7.26-1.23,8.79-3.43C121.79,213.4,121.29,204.33,117.49,195.22Zm17.28,5.14h4.29c1,4.08-2.27,9.23,5.08,11.74-.29-5.18-.36-9.85-.95-14.45-.12-1-2.08-2.33-3.27-2.42-5.45-.4-8.89,3-9,8.38a31.09,31.09,0,0,1-.2,3.48c-.45,3.41,1.15,4.85,5.27,4.91C135.59,208.08,135.2,204.4,134.77,200.36ZM162.05,67.64c-.23-2.25,0-4.22-.74-5.8a4.35,4.35,0,0,0-3.37-2.1c-1.14,0-3.11,1.43-3.18,2.33a74.18,74.18,0,0,0,.16,12.2c.13,1.28,1.68,2.42,2.58,3.62,1.16-1.1,2.88-2,3.37-3.34C161.69,72.27,161.74,69.7,162.05,67.64ZM122.86,211.13l1.54.24a10.19,10.19,0,0,0-.57-15.65C123.49,201.23,123.17,206.18,122.86,211.13Zm-12.65,0c4.07-2.76,4-7.61,0-14.37C109.17,201.66,107.23,206.31,110.21,211.11Zm12.73-24c-1.77-1.24-2.94-2.43-3.3-2.23a32.5,32.5,0,0,0-4.24,3.31c.69.75,1.67,2.27,2,2.13A40.55,40.55,0,0,0,122.94,187.16Zm-18.66,1.14c5.59,3.54,7.17,2.89,8.1-3.12Zm18.13,1.27,1.91,2a38.23,38.23,0,0,0,4.21-4.13c.23-.3-1-1.73-1.52-2.64Z"/><path class="cls-2" d="M124.75,38.82c-8.21,1.4-12.53,9-8.57,16,1,1.79,4.18,3,6.49,3.29a109.44,109.44,0,0,0,15.79.29c3.85-.17,4.58,1.78,4.36,4.9-.64,9,.31,17.18,4.69,25.76,2.85,5.58.73,13.82.33,20.83-.07,1.16-2.82,3.11-4.22,3-1.94-.13-4.82-1.43-5.43-3-1.23-3.11-1.41-6.7-1.62-10.11s.51-7,0-10.42c-1-7.22-6.86-11.3-13.83-9.42-4.07,1.09-7.82,3.36-11.76,5-1.32.55-3.38,1.44-4,.89a5.4,5.4,0,0,1-1.63-4.28c2.86-18.32,1.92-37.27,8.84-54.9,1-2.6,3.06-4.82,4.79-7.1,1.85-2.45,3.56-5.17,5.9-7.07C132.93,6,142.64,6.05,151.9,8c8.59,1.81,16.69,5.87,25.19,8.27,5.15,1.46,9.46,3.54,12.84,7.76,3.08,3.83,3,6.1-.67,9.16-9.57,7.86-20.85,11.51-32.91,12.54a184.2,184.2,0,0,1-26.16.33C123.61,45.67,123.65,45,124.75,38.82Zm28.15-21c-1.1,1-3.79,2.3-4.68,4.39-2.11,4.94-.45,11.79,3.28,13.25,2.77,1.08,6.88,1.7,9.19.4,4.16-2.34,3.64-7.15,2.27-11.2C161.67,20.85,158.8,18.43,152.9,17.86Z"/><path class="cls-3" d="M107.53,112.93c-2.9-8.29-.4-16.29,7.7-19.66,2.33-1,6-1.45,7.73-.28,1.52,1,1.89,4.78,1.63,7.21-.67,6.46-1.79,12.55,2.88,18.42,5.1,6.41,14.67,10.29,22.22,7.59s13.47-9.68,12.4-18.74c-.15-1.28,0-2.6,0-4.87,2.2.72,4.17.92,5.61,1.9,12,8.25,13.31,23.16,3.13,33.74-4.59,4.78-9.24,9.54-13.44,14.65-2.79,3.4-5.46,7.11-3.69,12.24.29.83-1.88,3.63-2.89,3.61a93,93,0,0,1-36.59-7.8c-5.59-2.47-8-7.73-8.31-13.75-.41-8.27-.85-16.55-.85-24.82C105,119.71,106.4,117,107.53,112.93Z"/><path class="cls-3" d="M195.58,156.59c-2.84,7.1-9.85,12.2-16.35,12.15-7-.05-10.18-4.85-6.56-10.77a89.68,89.68,0,0,1,10.56-13.71,37.18,37.18,0,0,0,9.44-17.66c1.52-7.25-1.77-13.76-5.54-19.62a43.15,43.15,0,0,0-19.72-17c-4.08-1.73-4.89-4.56-1.53-7.12,7.27-5.56,5.89-13.27,5.65-20.5-.16-4.85-.09-8,5.58-9.71s10.79-5,16.29-7.32c5-2.08,7.79-.92,8.88,4.3s1,11,1.67,16.41c.53,4.52,1.58,9,2,13.52,1.08,11.38,2.77,22.79,2.67,34.18-.11,12.54-1.62,25.11-3.15,37.59C204.75,157.29,202.32,158.16,195.58,156.59Z"/><path class="cls-4" d="M243.11,189.05c8.73.9,10.94,5.14,6,12-1.77,2.46-4.47,4.24-6.69,6.39-1.25,1.21-2.38,2.53-3.83,4.1,7.35,1,8.44.31,10.56-6,1.22,2.35,3.44,4.7,3.44,7.06,0,3.89-3.7,4.82-6.91,4.91-6.13.18-12.17-.3-14.88-7.33-2.37,2.48-11.13,4.39-12.68,2.25a13.27,13.27,0,0,1-2.2-8.22c.25-3.27-.88-7.41,4-9.26,5.63-2.16,9.91-.41,11,5.6.47,2.57.08,5.29.08,9,1.46-1.71,2.38-3,3.5-4a19.89,19.89,0,0,1,2.54-1.94c-1.38-3.34-3.53-6.21-3.46-9,.1-3.53,3.63-4.8,7-5.25a50.14,50.14,0,0,0-2.47,5.9,3.44,3.44,0,0,0,.65,3c.91.69,2.87,1.29,3.52.79,2.07-1.57,4.26-3.46,2-6.61A12.2,12.2,0,0,1,243.11,189.05Zm-22.93,7.23c.14,2.72.17,5.46.49,8.15.11,1,.94,1.85,1.44,2.77,1-.72,2.35-1.25,2.8-2.21C226.68,201.21,224.84,198,220.18,196.28Z"/><path class="cls-5" d="M132.4,253a7.93,7.93,0,0,1,.85.14v4.18l3.9,1.5c-.17.44-.58.95-.47,1.29,2.65,8.49,8.57,13.49,17,15.79-3.32-.73-3.59,1.88-4.49,4a16,16,0,0,1-20.6,8.9c-7.61-2.92-11.85-11-9.59-18.26l.26,3.31C127.92,270.91,131.7,264.84,132.4,253Z"/><path class="cls-6" d="M182.8,253.06c-.17-1.62-.89-3.43-.42-4.84,3-9.17,12.59-14.65,22.5-13.17,9.39,1.4,16.89,10.14,17,19.86A20.26,20.26,0,0,1,206,275.07a73.45,73.45,0,0,1-7.89.8l.18.08c-7.09-2.34-13.08-6-15.86-13.4-.62-1.65-1.59-3.49,1.26-4.09a1.8,1.8,0,0,1,.79.48c1.17,1.77,2.09,3.81,3.58,5.24a55,55,0,0,0,6.39,4.66l3.62,1.37a8.88,8.88,0,0,0,2.52,1.08c8.32.65,15.32-5.06,16.83-13.63a16,16,0,0,0-11.49-18,16.31,16.31,0,0,0-19.59,9.52c-.61,1.43-1.91,2.55-2.89,3.81A1,1,0,0,1,182.8,253.06Z"/><path class="cls-7" d="M132.4,253c-.7,11.84-4.48,17.91-13.15,20.82-.09-1.14-.17-2.23-.26-3.31l0,0c3.44-3.32,8.22-5.71,8.1-11.54l0,.06.84-4.11c-.32-9-6.63-15.55-15.24-15.91-8.3-.35-15.84,6-16.65,14.08-1,10.07,4.84,16.72,16.35,18.55.78,4.19.61,4.4-3.1,3.89a20.54,20.54,0,0,1-17.65-19.91c-.23-10,7.17-19,16.84-20.59a20.32,20.32,0,0,1,22.81,13.62C131.71,250.09,132,251.56,132.4,253Z"/><path class="cls-4" d="M162.05,198.92l-9-2.08c-.5,2.65-1.34,5.11-1.18,7.52,0,.72,2.87,1.26,5,2.12v-5.64c4.91,2.24,7.79,8.68,6.57,14.16-1.74,7.89-6.64,11.26-16.37,11.07-2.76,0-6.28.66-6.35-4.45,7.84-.3,14.64-2.21,16.63-11.29a61,61,0,0,0-6.51,0c-4.3.49-5.14-1.83-4.82-5.41a11.64,11.64,0,0,1,11.13-10.74C160.24,194.09,160.84,194.61,162.05,198.92Z"/><path class="cls-8" d="M199,208.91c-1,.51-2.31.78-2.92,1.58-5.05,6.64-18.46,7.69-24.41,1.77a6.68,6.68,0,0,1-.88-1.71c9.55-1.89,15.52-5.83,19.64-13.31L171.88,196c4.79-4.93,9.7-6.61,14.88-5.78,2.5.4,5.9,2.92,6.61,5.19,1.93,6.12-3.92,8.59-8.24,12.91l13-1.28Z"/><path class="cls-9" d="M198.27,276l-.18-.08c0,1.68.47,3.52-.06,5a20.09,20.09,0,0,1-21.1,13.1c-9.39-.87-16.5-8-18.07-18.2-.3-1.29-.59-2.59-.88-3.89.68-1.84,1.31-3.71,2.06-5.53A19.58,19.58,0,0,1,172,254.63v3.94l.06-.13c-3.41,3-7.75,5.27-8,10.65l-.12,4.78c-.1,1.48-.62,3.09-.23,4.43a16,16,0,0,0,14.51,11.55A16.24,16.24,0,0,0,194,279.92C194.82,277.91,195,275.24,198.27,276Z"/><path class="cls-10" d="M164,273.87l.12-4.78c5-1.79,7.58-5.4,8-10.65l-.06.13a5.4,5.4,0,0,0,.84-1.68,16.23,16.23,0,0,0-12.39-17.45c-7.54-1.94-15.39,2.17-18.64,9.65-.75,1.72-.45,4.63-3.78,3.94a.93.93,0,0,0-.82-.18c.27-1.89.14-4,.86-5.66,3.67-8.67,12.24-13.38,21.73-12.19,8.22,1,15.59,8.17,17.07,16.55a20.57,20.57,0,0,1-11,22A6.6,6.6,0,0,1,164,273.87Z"/><path class="cls-11" d="M88,204.85c.51,2.19,1,4.37,1.51,6.5-5,2.65-7.4,2.73-21.41.72l-1.22,4.22c-6.55,1.52-6.74-4.79-9.17-6.81a36.84,36.84,0,0,0,1.61-4.67c.69-3.55,1.19-7.14,1.76-10.71.79.07,2.19,0,2.26.22,1.38,5.24,6.07,4,9.59,5,4.56,2,9.11,4,13.7,5.92.38.16,1-.19,1.49-.31Zm-21.15-3.58-1.54,1.63c1.15,2.22,2,6,3.52,6.36,4.33.88,8.95.31,13.45.31l.51-2.5Z"/><path class="cls-12" d="M119,270.54l0,0c-2.26,7.25,2,15.34,9.59,18.26a16,16,0,0,0,20.6-8.9c.9-2.09,1.17-4.7,4.49-4l-.12,0c1.06,7-4.71,14.52-13.33,17.33-10.44,3.39-21.91-2.69-25.33-13.42-3.34-10.49,2.16-21.67,12.21-24.79,0,1.36,0,2.72-.07,4.09l0-.06C122.78,261.73,119.1,264.89,119,270.54Z"/><path class="cls-13" d="M61,192.25l-15.81-1.73.07-2.66c6.89-.48,13.78-1.29,20.68-1.34a122.45,122.45,0,0,1,16.75,1.38c1.32.17,2.47,1.72,3.69,2.63-1,1-1.9,2.39-3.13,2.94-3.28,1.48-6.72,2.61-10.09,3.87l3.06-5.09Z"/><path class="cls-4" d="M199,208.91l-.87-1.84c0-3.11-.16-6.23.16-9.31.07-.68,1.86-1.19,2.86-1.79,1.13,4.05,2.26,8.1,3.65,13.05,4.08-5.69,3.2-9.08-2.17-13.12,3-1.54,6.27-4,9.24-.31,3.11,3.82,2.92,13.35-.24,15.28-2.39,1.46-5.27,2.14-9.28,3.68Z"/><path class="cls-14" d="M88.08,205A15.92,15.92,0,0,0,89,201.4c.11-5.77,1-6.61,6.8-5.45a15,15,0,0,1,11.58,9.24l-7.62.89,8.18,8.42-1.13,1.34c-5.26.39-8.9-2.59-12.42-6.18-1.85-1.88-4.25-3.22-6.39-4.81Zm10.76-1.06,1.53-2.51L92,196.6l-1.1,1.75Z"/><path class="cls-4" d="M117.49,195.22c3.8,9.11,4.3,18.18-1.47,26.4-1.53,2.2-5.41,2.75-8.79,3.43C114.52,216.19,116.73,206,117.49,195.22Z"/><path class="cls-15" d="M134.77,200.36c.43,4,.82,7.72,1.24,11.64-4.12-.06-5.72-1.5-5.27-4.91a31.09,31.09,0,0,0,.2-3.48c.09-5.38,3.53-8.78,9-8.38,1.19.09,3.15,1.46,3.27,2.42.59,4.6.66,9.27.95,14.45-7.35-2.51-4.06-7.66-5.08-11.74Z"/><path class="cls-16" d="M162.05,67.64c-.31,2.06-.36,4.63-1.18,6.91-.49,1.35-2.21,2.24-3.37,3.34-.9-1.2-2.45-2.34-2.58-3.62a74.18,74.18,0,0,1-.16-12.2c.07-.9,2-2.28,3.18-2.33a4.35,4.35,0,0,1,3.37,2.1C162,63.42,161.82,65.39,162.05,67.64Z"/><path class="cls-17" d="M137.19,252.85a.93.93,0,0,1,.82.18c6.89,2.36,12.59,6.06,15.42,13.22,1,2.66.67,4.09-2.49,3.92l-1.94-1.3c-.39-4.53-2.56-7.62-7.1-8.81l.07.05-2.08-.93-2.74-.36-3.9-1.5v-4.18Z"/><path class="cls-18" d="M137.15,258.82l2.74.36,2.08.93-.07-.05a9.71,9.71,0,0,0,7.1,8.81l1.94,1.3,7,1.71c.29,1.3.58,2.6.88,3.89l-5.31.08.12,0c-8.42-2.3-14.34-7.3-17-15.79C136.57,259.77,137,259.26,137.15,258.82Z"/><path class="cls-19" d="M184.46,258.94a1.8,1.8,0,0,0-.79-.48c-1.86-1.55-7.13.43-5.21-5.4h4.33a1.07,1.07,0,0,0,.64,0c5.49,2.54,11.06,5.1,13.64,11.11.78,1.83.68,4,1,6.08l-3.62-1.37C192.71,263.92,190.15,259.86,184.46,258.94Z"/><path class="cls-20" d="M61,192.25H76.2l-3.06,5.09-.25,2c-3.52-1-8.21.2-9.59-5-.07-.25-1.47-.15-2.26-.22Z"/><path class="cls-21" d="M122.86,211.13c.31-4.95.63-9.9,1-15.41a10.19,10.19,0,0,1,.57,15.65Z"/><path class="cls-11" d="M110.21,211.11c-3-4.8-1-9.45,0-14.37C114.24,203.5,114.28,208.35,110.21,211.11Z"/><path class="cls-20" d="M243.11,189.05a12.2,12.2,0,0,0,1.1,3.3c2.24,3.15,0,5-2,6.61-.65.5-2.61-.1-3.52-.79a3.44,3.44,0,0,1-.65-3,50.14,50.14,0,0,1,2.47-5.9Z"/><path class="cls-22" d="M202.66,195.9c5.37,4,6.25,7.43,2.17,13.12-1.39-5-2.52-9-3.65-13.05Z"/><path class="cls-21" d="M122.94,187.16a40.55,40.55,0,0,1-5.54,3.21c-.33.14-1.31-1.38-2-2.13a32.5,32.5,0,0,1,4.24-3.31C120,184.73,121.17,185.92,122.94,187.16Z"/><path class="cls-23" d="M104.28,188.3l8.1-3.12C111.45,191.19,109.87,191.84,104.28,188.3Z"/><path class="cls-23" d="M122.41,189.57l4.6-4.75c.54.91,1.75,2.34,1.52,2.64a38.23,38.23,0,0,1-4.21,4.13Z"/><path class="cls-24" d="M127,259.06c0-1.37,0-2.73.07-4.09l.77,0Z"/><path class="cls-25" d="M152.9,17.86c5.9.57,8.77,3,10.06,6.84,1.37,4.05,1.89,8.86-2.27,11.2-2.31,1.3-6.42.68-9.19-.4-3.73-1.46-5.39-8.31-3.28-13.25C149.11,20.16,151.8,18.84,152.9,17.86Z"/><path class="cls-20" d="M220.18,196.28c4.66,1.74,6.5,4.93,4.73,8.71-.45,1-1.84,1.49-2.8,2.21-.5-.92-1.33-1.8-1.44-2.77C220.35,201.74,220.32,199,220.18,196.28Z"/><path class="cls-26" d="M198.05,270.21c-.3-2-.2-4.25-1-6.08-2.58-6-8.15-8.57-13.64-11.11,1-1.26,2.28-2.38,2.89-3.81a16.31,16.31,0,0,1,19.59-9.52,16,16,0,0,1,11.49,18c-1.51,8.57-8.51,14.28-16.83,13.63A8.88,8.88,0,0,1,198.05,270.21Z"/><path class="cls-24" d="M184.46,258.94c5.69.92,8.25,5,10,9.9a55,55,0,0,1-6.39-4.66C186.55,262.75,185.63,260.71,184.46,258.94Z"/><path class="cls-24" d="M119,270.54c.13-5.65,3.81-8.81,8.1-11.54C127.19,264.83,122.41,267.22,119,270.54Z"/><path class="cls-5" d="M158,271.88l-7-1.71c3.16.17,3.54-1.26,2.49-3.92C150.6,259.09,144.9,255.39,138,253c3.33.69,3-2.22,3.78-3.94,3.25-7.48,11.1-11.59,18.64-9.65a16.23,16.23,0,0,1,12.39,17.45,5.4,5.4,0,0,1-.84,1.68v-3.94A19.58,19.58,0,0,0,160,266.35C159.29,268.17,158.66,270,158,271.88Z"/><path class="cls-27" d="M172,258.44c-.38,5.25-2.95,8.86-8,10.65C164.29,263.71,168.63,261.42,172,258.44Z"/><path class="cls-20" d="M66.81,201.27l15.94,5.8-.51,2.5c-4.5,0-9.12.57-13.45-.31-1.54-.31-2.37-4.14-3.52-6.36Z"/><path class="cls-22" d="M98.84,203.91l-7.93-5.56L92,196.6l8.36,4.8Z"/><path class="cls-24" d="M149,268.87a9.71,9.71,0,0,1-7.1-8.81C146.44,261.25,148.61,264.34,149,268.87Z"/><path class="cls-24" d="M142,260.11l-2.08-.93Z"/></g></g></svg>