<svg xmlns="http://www.w3.org/2000/svg" viewBox="0 0 437 437"><defs><style>.cls-1{fill:#fefefd;}.cls-2{fill:#fde809;}.cls-3{fill:#fde806;}.cls-4{fill:#fee906;}.cls-5{fill:#fde807;}.cls-6{fill:#fdec0b;}.cls-7{fill:#fde910;}.cls-8{fill:#fde509;}.cls-9{fill:#fce412;}.cls-10{fill:#fce713;}.cls-11{fill:#fde70b;}.cls-12{fill:#fde813;}.cls-13{fill:#fded11;}.cls-14{fill:#de0293;}.cls-15{fill:#de0393;}.cls-16{fill:#fefdf7;}.cls-17{fill:#fefded;}.cls-18{fill:#fdf105;}.cls-19{fill:#fef602;}.cls-20{fill:#fbe8f5;}.cls-21{fill:#fbe1f2;}.cls-22{fill:#de0594;}.cls-23{fill:#de0794;}.cls-24{fill:#de0693;}.cls-25{fill:#df1794;}.cls-26{fill:#de1094;}</style></defs><g id="Layer_2" data-name="Layer 2"><g id="Layer_1-2" data-name="Layer 1"><path class="cls-1" d="M0,437V0H437V437ZM49.17,249.52c-.64,1.82-1.27,3.64-2.17,6.19l5.26-.37,44.59-2.58L61.22,262.7c2,4.54,3.9,8.79,5.79,13q16,17.46,32.05,34.9c-.45,2.75-.53,5.63-1.42,8.23-8.6,25.25-17.35,50.44-26,75.67-1.58,4.58-3,9.23-4.62,14.36l13.21-2c-.72,3.74-1.28,6.69-2,10.69L87,415c26.5-6.49,52.94-13.21,79.54-19.29,6-1.37,8.13-4.14,9.42-9.77,3.35-14.57,7.44-29,11.23-43.44q41.4,35.8,82.87,71.53c1.94,1.66,5,3.21,7.36,3,29.38-2.46,58.74-5.23,88.1-8,7.22-.67,14.42-1.52,23.11-2.45-3.28-2.53-5.17-4-7-5.52-.05-.05,1-1.35,1.52-2.06l16.35-2-78.5-52.88c17.62-9.78,35.17-19.7,52.93-29.21,4-2.16,5.86-4.35,4.26-8.75l6.6-3.89c-7.27-12.11-14.17-23.42-20.89-34.84-9.16-15.54-18.18-31.16-27.26-46.74,16.06-24.31,31.89-48.78,48.34-72.81,4.48-6.55,7.2-12,.65-18.35,3.13-3.17,2-5.5-.92-8.35-12.6-12.18-25-24.6-37.42-36.94L296.57,21.58l-9.08,5.93-7.63-8C263.66,36.57,248.08,53,231.66,70.4L219.3,55.34l-4.85,5.28-6-4c-9.23,16.23-18.15,31.94-27.08,47.65-2.34-1.13-4.8-2.07-7-3.42-31.06-19-62.08-38.09-93.52-57.4L76,53.36l-1.74-1.43-4.69,4.43c-9.28,23.37-18.55,46.73-28,70.45l40.56,20.66c-2.23,7.29-4.33,14.14-6.43,21L45.35,244.08l3.82,5.44Z"/><path class="cls-2" d="M383.22,399c-.53.71-1.57,2-1.52,2.06,1.8,1.55,3.69,3,7,5.52-8.69.93-15.89,1.78-23.11,2.45-29.36,2.74-58.72,5.51-88.1,8-2.38.2-5.42-1.35-7.36-3q-41.57-35.62-82.87-71.53l-2.87-4.2.25-1.45c.4-1.45.81-2.9,1.21-4.35l1.74-7.26,2.72,1.62,1.34.71.08-.92-.13.06c2.2-.63,4.55-.94,6.57-1.92q22.4-10.9,44.67-22.06a40.63,40.63,0,0,0,4.26-2.91c-14.62-2.2-28.16-4.32-41.74-6.17-2.13-.29-4.42.67-6.64,1.05l-2.7-2.85-2.09-.72,0-.14-1.45-1.5.26-.48-.2.51-1.47-1.58-.18.06.84-3.76c1-1.49,2.27-2.88,2.81-4.51,3.61-10.93,7.05-21.92,10.54-32.89.51,1.68,1.74,3.53,1.41,5-2.4,10.8-5.2,21.5-7.61,32.29-.31,1.42.92,3.19,1.44,4.79l54.84,4.83c1.19-4.63,2.12-8.56,3.22-12.44,2.87-10.17,5.82-20.33,8.74-30.5l21.8,32.79-96.78,53.46c2.24,1.83,3.7,3.08,5.21,4.26,27.69,21.45,55.47,42.79,83,64.46,4.28,3.37,8.22,3.88,13.29,3.11,28.4-4.32,56.85-8.36,85.28-12.49ZM267,262.46c-3.06,11.71-5.61,21.42-8.54,32.63L279,284.75Z"/><path class="cls-3" d="M69.54,56.36l4.69-4.43L76,53.36l4.91-9.88c31.44,19.31,62.46,38.39,93.52,57.4,2.2,1.35,4.66,2.29,7,3.42l.9,5.34-.16.06-1.13-.22.67.88-12.56,22L166.35,137l-.16.37c-.77-1.79-2-3.53-2.21-5.38a61.26,61.26,0,0,1,.12-8.56c1.29-4.86,2.57-9.72,3.91-14.83a33.45,33.45,0,0,0-3-2Q121,82.87,77,59.22c-1.37-.73-3.08-.82-4.64-1.21Z"/><path class="cls-4" d="M385.7,129.5c6.55,6.38,3.83,11.8-.65,18.35-16.45,24-32.28,48.5-48.34,72.81L333,223.11l.11-.44-1.29-1.77-1.95-3.17a3.75,3.75,0,0,0,.36-.53,9.78,9.78,0,0,0-.95-.71l.07.07-1.83-2.95a.84.84,0,0,1-.88-.54l-3-2.59c-1.28-2.46-2.55-4.93-4.18-8.09l-26.22,24.1.05-.08-1.58,2-4.1,7,.05,0-4.54,1.28-3.71,3.66-.22,0-2.07-7.1c12.09-12.14,24.25-24.21,36.21-36.46,3.23-3.3,5.44-2.69,8.31.39,4,4.29,8.39,8.21,13.15,12.81,2.09-3.51,3.57-5.94,5-8.39q20.43-35,40.83-70l1.74-2.85-.08-.35Z"/><path class="cls-5" d="M87,415l-8.87,2.58c.76-4,1.32-6.95,2-10.69l-13.21,2c1.64-5.13,3-9.78,4.62-14.36,8.67-25.23,17.42-50.42,26-75.67.89-2.6,1-5.48,1.42-8.23l4.26,0,1.27,1.42,2.12,2.18.14.25,1.22,1.35.2.15c-.3,3.08-.59,6.17-.89,9.25-6,21.58-12,43.13-17.88,64.74-2,7.36-3.52,14.85-5.25,22.28Z"/><path class="cls-6" d="M191.75,284.21l-.84,3.76c-8.65-9-18-17.42-25.76-27.14-8-10-16.16-15.54-28.68-8.53.49-1.24,1-2.48,2-5.06l-41.61,5.52-44.59,2.58,0-4.07c10.94-.6,21.88-1.09,32.81-1.81,15.14-1,30.27-2.15,45.41-3.22,19-1.34,38-2.63,57-4,9.22-.66,18.44-1.43,28.19-2.19l-4.86-11.69,3.34-1.27-.05.49c.74,1.56,1.49,3.13,2.23,4.7l5.9,5.29c.91,1.6,2,4.62,2.68,4.53,3-.37,5.93-1.65,8.87-2.6l11.65,1.74,1.44,2.61-10.17,1.45-25.42-1.57c-3.72,15.4-7.31,30.29-10.9,45.17-.52-1.6-1.75-3.37-1.44-4.79,2.41-10.79,5.21-21.49,7.61-32.29.33-1.49-.9-3.34-1.41-5-.72-.53-1.48-1.56-2.17-1.52-13.88.78-27.75,1.68-43.23,2.66Z"/><path class="cls-7" d="M182.3,109.64l-.9-5.34c8.93-15.71,17.85-31.42,27.08-47.65l6,4,4.85-5.28L231.66,70.4c16.42-17.36,32-33.83,48.2-50.94l7.63,8.05-2.67,2.92-4.1-2.58c-8.72,8.37-17.06,16.38-25.41,24.38l-.36.31-.4.58-1.09,1.12-.37.33L252,55.68l-.39.34-1,1-.48.44-1,1-.49.46-1,1-.49.46-1,1-.48.45-1,1-.48.45-1,1-.49.45-1,1-.49.46-1,1-.49.46-1,1-.47.25L236.24,71l-8.57,7.64L209.9,62.38Z"/><path class="cls-3" d="M96.85,252.76l41.61-5.52c-1,2.58-1.5,3.82-2,5.06L70.86,272.87,67,275.73c-1.89-4.24-3.77-8.49-5.79-13Z"/><path class="cls-8" d="M284.82,30.43l2.67-2.92,9.08-5.93,50.79,62.63-4.68,1.23L300.35,44.3l-2.72-2.2Z"/><path class="cls-9" d="M69.54,56.36,72.36,58c-8.48,22.27-17,44.53-25.55,67.06l40.46,20.56c-9.4,27.88-18.59,55.09-27.77,82.3.07-2.41-.41-5,.3-7.19,5-15.26,10.19-30.42,15.18-45.67.68-2.06.51-4.4.73-6.61,2.1-6.85,4.2-13.7,6.43-21L41.58,126.81C51,103.09,60.26,79.73,69.54,56.36Z"/><path class="cls-10" d="M87,415l-2.79-2.76c26.45-6.68,52.85-13.57,79.39-19.89,5.58-1.33,7.84-3.87,9.11-9.22,3.55-15,7.7-29.89,11.61-44.83l2.87,4.2c-3.79,14.47-7.88,28.87-11.23,43.44-1.29,5.63-3.43,8.4-9.42,9.77C140,401.76,113.54,408.48,87,415Z"/><path class="cls-11" d="M378.26,306.13c1.6,4.4-.24,6.59-4.26,8.75-17.76,9.51-35.31,19.43-52.93,29.21l-5.58.79-.12-.21,5.36-6.59-.06.06,2.9-1.88,52.49-32.64Z"/><path class="cls-12" d="M315.49,344.88l5.58-.79L399.57,397l-16.35,2-4.29-2.62,9.33-2.11Z"/><path class="cls-11" d="M75.71,168.46c-.22,2.21,0,4.55-.73,6.61-5,15.25-10.23,30.41-15.18,45.67-.71,2.2-.23,4.78-.3,7.19l-7.26,23.34,0,4.07-5.26.37c.9-2.55,1.53-4.37,2.17-6.19.21.23.43.46,0,0,.45.42.22.21,0,0-1.17-1.68-2.35-3.35-3.82-5.44Z"/><path class="cls-7" d="M378.26,306.13l-2.2-2.51c4.31-2.13,2.34-4.67.66-7.47q-21.92-36.48-43.7-73l3.69-2.45c9.08,15.58,18.1,31.2,27.26,46.74,6.72,11.42,13.62,22.73,20.89,34.84Z"/><path class="cls-13" d="M342.68,85.44l4.68-1.23c12.45,12.34,24.82,24.76,37.42,36.94,2.94,2.85,4.05,5.18.92,8.35l-3.42-1.09c-.78-2.16-1-4.9-2.45-6.38C367.58,109.7,355.09,97.6,342.68,85.44Z"/><path class="cls-12" d="M67,275.73l3.85-2.86A49,49,0,0,0,75,279.15c9.37,10.54,18.87,21,28.33,31.44l-4.26,0Q83,293.19,67,275.73Z"/><path class="cls-14" d="M333,223.11q21.84,36.52,43.7,73c1.68,2.8,3.65,5.34-.66,7.47l-52.49,32.64-2.9,1.88.06-.06a48,48,0,0,0-5.94,3.38c-.39.29.36,2.1.58,3.21l.12.21,72.77,49.4-9.33,2.11c-28.43,4.13-56.88,8.17-85.28,12.49-5.07.77-9,.26-13.29-3.11-27.52-21.67-55.3-43-83-64.46-1.51-1.18-3-2.43-5.21-4.26l96.78-53.46-21.8-32.79v-2.43l12.05-8,.22,0,3.68-2.24,4.57-2.7-.05,0,39.05-22.34a.84.84,0,0,0,.88.54l1.83,2.95-.07-.07a1.46,1.46,0,0,0,.59,1.24l1.95,3.17,1.29,1.77Z"/><path class="cls-14" d="M103.32,310.59c-9.46-10.47-19-20.9-28.33-31.44a49,49,0,0,1-4.13-6.28l65.61-20.57c12.52-7,20.69-1.5,28.68,8.53,7.74,9.72,17.11,18.15,25.76,27.14l.18-.06,1.47,1.58.2-.51-.26.48L194,291l0,.14a.82.82,0,0,0,.7.72,63,63,0,0,1-.82,7.68c-2,8.6-4.13,17.15-6.22,25.71l-1.74,7.26c-.4,1.45-.81,2.9-1.21,4.35l-.25,1.45c-3.91,14.94-8.06,29.81-11.61,44.83-1.27,5.35-3.53,7.89-9.11,9.22-26.54,6.32-52.94,13.21-79.39,19.89,1.73-7.43,3.25-14.92,5.25-22.28,5.86-21.61,11.91-43.16,17.88-64.74.3-3.08.59-6.17.89-9.25l-.2-.15-1.22-1.35-.14-.25L104.59,312Z"/><path class="cls-15" d="M267.14,248.37v2.43c-2.92,10.17-5.87,20.33-8.74,30.5-1.1,3.88-2,7.81-3.22,12.44l-54.84-4.83c3.59-14.88,7.18-29.77,10.9-45.17l25.42,1.57,2.68.13,1.24.12Z"/><path class="cls-16" d="M198.69,294.67c2.22-.38,4.51-1.34,6.64-1.05,13.58,1.85,27.12,4,41.74,6.17a40.63,40.63,0,0,1-4.26,2.91q-22.31,11.1-44.67,22.06c-2,1-4.37,1.29-6.57,1.92Q195.14,310.67,198.69,294.67Z"/><path class="cls-16" d="M191.75,284.21,159.7,248c15.48-1,29.35-1.88,43.23-2.66.69,0,1.45,1,2.17,1.52-3.49,11-6.93,22-10.54,32.89C194,281.33,192.71,282.72,191.75,284.21Z"/><path class="cls-17" d="M267,262.46,279,284.75l-20.61,10.34C261.34,283.88,263.89,274.17,267,262.46Z"/><path class="cls-10" d="M198.69,294.67q-3.56,16-7.12,32l.13-.06-1.42.21-2.72-1.62c2.09-8.56,4.25-17.11,6.22-25.71a63,63,0,0,0,.82-7.68H196Z"/><path class="cls-10" d="M184.61,336.82c.4-1.45.81-2.9,1.21-4.35C185.42,333.92,185,335.37,184.61,336.82Z"/><path class="cls-6" d="M192.56,289.49l-1.47-1.58Z"/><path class="cls-6" d="M194,291l-1.45-1.5Z"/><path class="cls-6" d="M196,291.82H194.6a.82.82,0,0,1-.7-.72Z"/><path class="cls-16" d="M190.28,326.83l1.42-.21-.08.92Z"/><path class="cls-14" d="M342.68,85.44c12.41,12.16,24.9,24.26,37.15,36.59,1.47,1.48,1.67,4.22,2.45,6.38l.08.35-1.74,2.85q-20.42,35-40.83,70c-1.43,2.45-2.91,4.88-5,8.39-4.76-4.6-9.15-8.52-13.15-12.81-2.87-3.08-5.08-3.69-8.31-.39-12,12.25-24.12,24.32-36.21,36.46-3.13,2.89-6.54,5.55-9.31,8.76-2.48,2.87-4.32,1.85-6.48,0l-2.63-2.58C252,233,245.21,226.63,238.5,220.2q-15.51-14.83-31-29.72l-1.24-1.12L203.91,187l-12-11.44-7.5-7.16-2.17-2.33-1.31-1.31-18.07-16.94q1.67-5.24,3.34-10.47l.16-.37,2.77-4.68,12.56-22a.56.56,0,0,0,.46-.66l.16-.06,27.6-47.26,17.77,16.25L236.24,71l2.26-2.08.47-.25,1-1,.49-.46,1-1,.49-.46,1-1,.49-.45,1-1,.48-.45,1-1,.48-.45,1-1,.49-.46,1-1,.49-.46,1-1,.48-.44,1-1,.39-.34,1.08-1.11.37-.33,1.09-1.12.4-.58,1,.59-.63-.9c8.35-8,16.69-16,25.41-24.38l4.1,2.58L297.63,42.1l2.72,2.2Zm-22.36,69.09c15-2.2,22.61-8.78,24.13-20.4,1.29-9.88-3.94-19.95-13.37-23.33-17.74-6.36-27.46,3.12-33.95,19.32-3.86-12.86-10.95-21.22-24.53-21.26s-19.44,9.9-24,21.77c-8.93-18.45-17.34-24.21-29.68-21.34a22.36,22.36,0,0,0-17.39,21.39c-.09,14.26,8.47,22.08,24.32,24.3,3.15,11.18,9.27,17.87,18.33,19.17,15.7,2.25,24-6.61,29-21C277.93,167.7,286.29,176.71,302,174,312.3,172.27,318.13,165.09,320.32,154.53Z"/><path class="cls-14" d="M52.24,251.27l7.26-23.34c9.18-27.21,18.37-54.42,27.77-82.3L46.81,125.07C55.4,102.54,63.88,80.28,72.36,58c1.56.39,3.27.48,4.64,1.21q44.06,23.61,88,47.38a33.45,33.45,0,0,1,3,2c-1.34,5.11-2.62,10-3.91,14.83l-12.78,42.09-.82,2.63-1.11,4.44c8.91,0,17.43,1.13,25.47-.34,6.82-1.25,10.3.33,12.57,6.3l23.34,49.83,4.86,11.69c-9.75.76-19,1.53-28.19,2.19-19,1.36-38,2.65-57,4-15.14,1.07-30.27,2.23-45.41,3.22C74.12,250.18,63.18,250.67,52.24,251.27Zm73.48-33.67h15.81l4-21.37-2.6-.61c-1,2.73-2.05,5.46-3.2,8.53l-9.68-2C128.74,206.87,127.49,211.3,125.72,217.6Zm39.53.34,1.48,1.25,10.1-13.6c1.89,6-2.53,10,2.09,15.37,1.48-6,2.9-10,3.23-14.18.09-1.17-2.88-3.37-4.71-3.71-2.68-.51-5.59.23-9.13.49Zm-54.4-14.07L108.6,218.6l2.28.6c2.6-4.08,1.57-11.55,9.42-10.75q-.39,5.18-.76,10.36l2.52.27a134.88,134.88,0,0,0,2.58-13.41c.09-.77-2.69-2.49-4.26-2.64C117.79,202.77,115.1,203.43,110.85,203.87Zm43.84,15.45c4.65.15,9.16-4,8.9-8.65-.27-5-3.12-8.09-8.12-8.69-4.6-.55-9,3.58-9.21,8.28A8.78,8.78,0,0,0,154.69,219.32Zm-65.72-8c.85,4.57,3.61,8.08,9,7.87s8.45-3.43,8.23-8.91-3.64-8.45-8.88-8.25S89,205.32,89,211.34Zm-8.85,7.23,1.89.34c4.45-5.54,6.86-20,2.95-24.09C83.24,203.24,81.68,210.91,80.12,218.57Z"/><path class="cls-2" d="M151.32,165.51l12.78-42.09A61.26,61.26,0,0,0,164,132c.22,1.85,1.44,3.59,2.21,5.38q-1.66,5.23-3.34,10.47l-.32.34c-1.86,2-4.12,3.68-5.5,5.93C154.82,157.72,153.19,161.69,151.32,165.51Z"/><path class="cls-2" d="M169.12,132.31,166.35,137Z"/><path class="cls-7" d="M182.14,109.7a.56.56,0,0,1-.46.66l-.67-.88Z"/><path class="cls-17" d="M293.24,226.49l26.22-24.1c1.63,3.16,2.9,5.63,4.18,8.09-5.18,2.91-10.3,5.92-15.55,8.69C303.21,221.74,298.2,224.06,293.24,226.49Z"/><path class="cls-12" d="M293.24,226.49c5-2.43,10-4.75,14.85-7.32,5.25-2.77,10.37-5.78,15.55-8.69l3,2.59-39.05,22.34,4.1-7,1.58-2Z"/><path class="cls-18" d="M261.33,242c2.16,1.84,4,2.86,6.48,0,2.77-3.21,6.18-5.87,9.31-8.76l2.07,7.1-12.05,8-26.56-2.81a2.5,2.5,0,0,0-1.24-.12l-2.68-.13,10.17-1.45h2.86l1.48-1.41.55-.17.58,0,1.77.13C256.77,246.75,259.21,247,261.33,242Z"/><path class="cls-18" d="M283.09,238.06l-3.68,2.24,3.71-3.66Z"/><path class="cls-12" d="M283.09,238.06l0-1.42,4.54-1.28Z"/><path class="cls-12" d="M329.37,216.56l-1.83-2.95Z"/><path class="cls-13" d="M380.62,131.61l1.74-2.85Z"/><path class="cls-17" d="M293.29,226.41l-1.58,2Z"/><path class="cls-7" d="M333.13,222.67l-1.29-1.77Z"/><path class="cls-12" d="M329.89,217.73a1.46,1.46,0,0,1-.59-1.24,9.78,9.78,0,0,1,.95.71A3.75,3.75,0,0,1,329.89,217.73Z"/><path class="cls-12" d="M108.27,315.94c-.3,3.08-.59,6.17-.89,9.25C107.68,322.11,108,319,108.27,315.94Z"/><path class="cls-12" d="M104.59,312l2.12,2.18Z"/><path class="cls-12" d="M106.85,314.44l1.22,1.35Z"/><path class="cls-16" d="M252.3,242.33l-.58,0-.55.17a1.48,1.48,0,0,0-1.38-.22l-4.4-1-11.65-1.74-11.55-1.93-5.9-5.29c-.74-1.57-1.49-3.14-2.23-4.7l.05-.49c-2.35-5.95-4.79-11.87-7-17.86-2.35-6.33-4.51-12.73-6.76-19.1,5.38,5,11,9.74,16.08,15C228.48,217.4,240.35,229.91,252.3,242.33Z"/><path class="cls-11" d="M200.32,190.14c2.25,6.37,4.41,12.77,6.76,19.1,2.24,6,4.68,11.91,7,17.86l-3.34,1.27-23.34-49.83,4.47-3,12,11.44-3.49,1.7L199.26,190l1.11.2Z"/><path class="cls-10" d="M222.19,237.58l11.55,1.93c-2.94,1-5.85,2.23-8.87,2.6C224.18,242.2,223.1,239.18,222.19,237.58Z"/><path class="cls-10" d="M245.39,241.25l4.4,1-.1,1.63h-2.86Z"/><path class="cls-11" d="M214.06,227.59c.74,1.56,1.49,3.13,2.23,4.7C215.55,230.72,214.8,229.15,214.06,227.59Z"/><path class="cls-14" d="M238.5,68.91,236.24,71Z"/><path class="cls-14" d="M244.29,63.31l-1,1Z"/><path class="cls-14" d="M242.83,64.76l-1,1Z"/><path class="cls-14" d="M255.31,52.23l.63.9-1-.59Z"/><path class="cls-14" d="M248.64,59l-1,1Z"/><path class="cls-14" d="M245.74,61.86l-1,1Z"/><path class="cls-14" d="M254.55,53.12l-1.09,1.12Z"/><path class="cls-14" d="M253.09,54.57,252,55.68Z"/><path class="cls-14" d="M251.62,56l-1,1Z"/><path class="cls-14" d="M250.1,57.5l-1,1Z"/><path class="cls-14" d="M247.19,60.41l-1,1Z"/><path class="cls-14" d="M239.93,67.67l-1,1Z"/><path class="cls-14" d="M241.38,66.22l-1,1Z"/><path class="cls-19" d="M300.35,44.3l-2.72-2.2Z"/><path class="cls-12" d="M315.37,344.67c-.22-1.11-1-2.92-.58-3.21a48,48,0,0,1,5.94-3.38Z"/><path class="cls-12" d="M320.67,338.14l2.9-1.88Z"/><path class="cls-6" d="M49.17,249.52c.23.22.46.43,0,0,.42.45.2.22,0,0Z"/><path class="cls-6" d="M239.34,245.44a2.5,2.5,0,0,1,1.24.12Z"/><path class="cls-20" d="M320.32,154.53c-2.19,10.56-8,17.74-18.35,19.5-15.68,2.68-24-6.33-28.83-20.89-5,14.4-13.27,23.26-29,21-9.06-1.3-15.18-8-18.33-19.17-15.85-2.22-24.41-10-24.32-24.3a22.36,22.36,0,0,1,17.39-21.39c12.34-2.87,20.75,2.89,29.68,21.34,4.57-11.87,10.39-21.8,24-21.77s20.67,8.4,24.53,21.26c6.49-16.2,16.21-25.68,33.95-19.32,9.43,3.38,14.66,13.45,13.37,23.33C342.93,145.75,335.3,152.33,320.32,154.53ZM242.26,130c-1.73-11.78-10.23-18.4-21.17-16.8a18.36,18.36,0,0,0-15.33,21c1.44,10.09,9.72,16.29,20.29,14.83C227.33,139.28,233.67,133.49,242.26,130Zm61.83-2.88c5.76,6.72,11.7,11.4,14.43,17.5,2.58,5.75,5.19,5.89,9.76,4.26,8.24-3,13.62-11.74,12.25-20A18.58,18.58,0,0,0,323.35,113C313.12,112.41,306.32,117.94,304.09,127.07Zm-37,26.07c-10.47-2.75-14.93-11-18.91-20.44-2.69,10.71-8.76,17.33-17.92,20.74,2,10.91,8.54,16.92,17.94,17.06C257.86,170.64,264.7,164.65,267.1,153.14ZM254.62,130c9.78,3.21,15,10.56,18.48,20.61,3.34-10.15,8.72-17.62,18.46-20.59-2.48-11.26-8.55-16.66-18-17.12C264.62,112.47,255.19,119.8,254.62,130Zm61.66,23.39c-10.21-3.13-15.61-10.6-19-20.94-2.79,11-9,17.79-18.45,21.13,3.07,11.45,9.36,16.93,18.64,16.9S312.93,165.2,316.28,153.4Zm-51.52-4.27,3-2.68-11.18-12.17-2.62,2.35Zm40.81-14.93-1.75,1.68c3.31,8.38,5.63,10.67,13.69,11.54Zm-75.74,12.36,3.08,2.46,10-12.65-2.76-2.22Zm48.72.07c.94.79,1.87,1.59,2.8,2.39L292,136.48l-2.68-2.3Z"/><path class="cls-10" d="M200.42,188.71l3.49-1.7,2.39,2.35,1.24,1.12q15.48,14.86,31,29.72c6.71,6.43,13.47,12.81,20.2,19.22l-4.63,3-1.77-.13c-12-12.42-23.82-24.93-35.9-37.23-5.12-5.22-10.7-10-16.08-15l.05.1Z"/><path class="cls-19" d="M191.9,175.57l-4.47,3c-2.27-6-5.75-7.55-12.57-6.3-8,1.47-16.56.34-25.47.34l1.11-4.44c2.73,4.39,6.58,2,10.12,1.75,7.44-.55,14.88-1,22.31-1.47h1.47Z"/><path class="cls-2" d="M162.85,147.83l18.07,16.94a8,8,0,0,0-.9.74l-4.1.05q-6-6.33-12-12.67l-1.35-4.72Z"/><path class="cls-6" d="M254.07,242.46l4.63-3,2.63,2.58C259.21,247,256.77,246.75,254.07,242.46Z"/><path class="cls-2" d="M184.4,168.41h-1.47L181.48,167a8.94,8.94,0,0,0,.75-.88Z"/><path class="cls-19" d="M207.54,190.48l-1.24-1.12Z"/><path class="cls-2" d="M180.92,164.77l1.31,1.31a8.94,8.94,0,0,1-.75.88L180,165.51A8,8,0,0,1,180.92,164.77Z"/><path class="cls-21" d="M125.72,217.6c1.77-6.3,3-10.73,4.34-15.41l9.68,2c1.15-3.07,2.18-5.8,3.2-8.53l2.6.61-4,21.37Z"/><path class="cls-7" d="M180,165.51l1.46,1.45,1.45,1.46c-7.43.48-14.87.92-22.31,1.47-3.54.26-7.39,2.64-10.12-1.75l.82-2.63c1.87-3.82,3.5-7.79,5.71-11.41,1.38-2.25,3.64-4,5.5-5.93l1.35,4.72c-2.46,3.85-4.93,7.69-8.12,12.67h20.16Z"/><path class="cls-6" d="M249.69,243.87l.1-1.63a1.48,1.48,0,0,1,1.38.22Z"/><path class="cls-16" d="M200.42,188.71l0,1.53-1.11-.2Z"/><path class="cls-22" d="M242.26,130c-8.59,3.54-14.93,9.33-16.21,19-10.57,1.46-18.85-4.74-20.29-14.83a18.36,18.36,0,0,1,15.33-21C232,111.55,240.53,118.17,242.26,130Z"/><path class="cls-22" d="M304.09,127.07c2.23-9.13,9-14.66,19.26-14.07a18.58,18.58,0,0,1,17.18,15.88c1.37,8.21-4,17-12.25,20-4.57,1.63-7.18,1.49-9.76-4.26C315.79,138.47,309.85,133.79,304.09,127.07Z"/><path class="cls-23" d="M267.1,153.14c-2.4,11.51-9.24,17.5-18.89,17.36-9.4-.14-15.94-6.15-17.94-17.06,9.16-3.41,15.23-10,17.92-20.74C252.17,142.11,256.63,150.39,267.1,153.14Z"/><path class="cls-23" d="M254.62,130c.57-10.21,10-17.54,18.95-17.1,9.44.46,15.51,5.86,18,17.12-9.74,3-15.12,10.44-18.46,20.59C269.6,140.57,264.4,133.22,254.62,130Z"/><path class="cls-24" d="M316.28,153.4c-3.35,11.8-9.42,17.07-18.78,17.09s-15.57-5.45-18.64-16.9c9.43-3.34,15.66-10.1,18.45-21.13C300.67,142.8,306.07,150.27,316.28,153.4Z"/><path class="cls-25" d="M264.76,149.13l-10.83-12.5,2.62-2.35,11.18,12.17Z"/><path class="cls-25" d="M305.57,134.2l11.94,13.22c-8.06-.87-10.38-3.16-13.69-11.54Z"/><path class="cls-25" d="M229.83,146.56l10.27-12.41,2.76,2.22-10,12.65Z"/><path class="cls-26" d="M278.55,146.63l10.73-12.45,2.68,2.3L281.35,149C280.42,148.22,279.49,147.42,278.55,146.63Z"/><path class="cls-26" d="M154.59,203.43c2.42,3.3,4.95,5.23,4.82,7-.15,1.92-2.73,3.65-4.25,5.47-1.76-1.64-4.62-3.07-5-5C149.9,209.2,152.35,207,154.59,203.43Z"/><path class="cls-26" d="M104.69,210.53c-3.17,2.45-5.15,5.14-6.92,5s-4.47-3-4.55-4.85c-.08-1.6,2.76-4.54,4.51-4.7S101.54,208.33,104.69,210.53Z"/></g></g></svg>