<svg xmlns="http://www.w3.org/2000/svg" viewBox="0 0 300 300"><defs><style>.cls-1{fill:#fdfdfd;}.cls-2{fill:#09518c;}.cls-3{fill:#70bd45;}.cls-4{fill:#0876b4;}.cls-5{fill:#69b944;}.cls-6{fill:#ee3f5c;}.cls-7{fill:#0f9fd5;}.cls-8{fill:#1088cb;}.cls-9{fill:#fec50f;}.cls-10{fill:#0e66a4;}.cls-11{fill:#097437;}.cls-12{fill:#f9b540;}.cls-13{fill:#312d2e;}.cls-14{fill:#11aa5c;}.cls-15{fill:#076dac;}.cls-16{fill:#50ab48;}.cls-17{fill:#5fb345;}.cls-18{fill:#188e3d;}.cls-19{fill:#0c90c9;}.cls-20{fill:#f26c25;}.cls-21{fill:#f69424;}.cls-22{fill:#329c40;}.cls-23{fill:#faab1b;}.cls-24{fill:#f58324;}.cls-25{fill:#fdb913;}.cls-26{fill:#fbfbfb;}.cls-27{fill:#fdfcfb;}.cls-28{fill:#fefdfc;}.cls-29{fill:#04a7dd;}.cls-30{fill:#fece07;}</style></defs><g id="Layer_2" data-name="Layer 2"><g id="Layer_1-2" data-name="Layer 1"><path class="cls-1" d="M0,0H300V300H0ZM148.67,37q-.91-4.52-1.81-9c-2-6.91-3.82-13.89-12.7-14.88A10.27,10.27,0,0,0,131.23,12c-10.17-.5-18.66,3.59-26.34,9.83l-5.09,3.9-11,11.21-5.08,6.63L78.85,51Q74.46,60,70,69q-1.25,3.42-2.48,6.86l-1.81,7c-.52,3.37-1,6.74-1.57,10.11L64,101l1.26,13a73.11,73.11,0,0,0,2,7.1c5.51,14.13,24.22,19.31,35.79,10l11.88-8.22,8-7,5-4.23,6.18,6.32c3.08,3.39,5.94,7,9.27,10.12,11.54,10.8,24.52,19,40.64,21,7.76,1.55,15.46,1.74,23-1,12-2.62,21.1-9.26,27.07-20.07l3.77-11,.09-10c-1.07-15.29-9.34-26.22-21.23-34.94l-4.64-3L201,62.17l-9-2.88-14-2.11-9-.2-6.14-.46c1-4.48,2.71-9.24-2.26-11.72-6-3-7.78,3.28-11.36,6.67-.12-2.29-.21-3.88-.3-5.46Zm2.17,232.05c2.44,12.23,10.1,19.16,21.09,19.08,10.8-.08,18.48-7.14,20.63-18.94a48.79,48.79,0,0,0,6.88-.82,20.81,20.81,0,0,0,15.51-23c-1.19-10-10.35-18.15-20.53-18.24-10.85-.09-19.19,7.61-21,19.34l-3.37-.23c-2.72-12.22-10.78-19.36-21.45-19s-18.57,7.87-20.13,19.09l-3.39.09c-3.17-13.35-12.53-20.88-23.69-19.06s-18.94,11.32-18.19,22C84.06,261.15,93,269,105.79,269c.91,7,4,12.58,10.18,16.32,11.62,7.09,29.12,1.43,31.75-16.19Zm75.64-84.54-1.19-1c1.07-1.86,1.78-4.1,3.28-5.51,3.12-2.94,6.82-5.29,10-8.23,1.11-1.05,1.27-3.1,1.87-4.7-1.61.06-3.54-.45-4.77.26-8.85,5.09-15,12.23-17.91,22.36-1,3.54-4.07,6.51-6.19,9.74l-1.61-.77V175.33c-4.12,2.57-7.18,4.32-10,6.4-.46.34,0,3.11.35,3.15,4.29.64,3.22,3.86,3.25,6.47.05,5.88,0,11.76,0,17.64l2.08,1,10.93-14c1.74,3.55,2.38,5.08,3.21,6.5,3.93,6.73,11.34,9,18,5.61s10.39-11.77,7.93-18.07-9.08-8.65-17.34-6Zm-155.61,9c5.36-3.4,10-5.72,13.89-9a12.85,12.85,0,0,0,3.4-15c-2.51-5.45-7.2-7.07-12.75-6.85-8.69.35-15.22,4.48-19.51,12-5.77,10-5.06,20.79-2.67,31.53.21.93,4.06,2.06,4.2,1.84,1.26-2,2.89-4.32,2.86-6.53-.06-6.59-1.69-13.25-1.1-19.74.72-7.92,7.93-12.67,15.81-11.79,3.54.4,6.51,1.71,7.22,5.68a6.92,6.92,0,0,1-4.35,8.12,54.9,54.9,0,0,1-9.53,2.67c-3.85.86-5.62,3.21-4.44,6.88a47.7,47.7,0,0,0,4.68,10.37c4.48,7.22,10.93,7.92,17,2.06,2.45-2.35,4.62-5,7.28-7.89.1,1.55.09,2.39.21,3.21.48,3.25.39,6.93,4.42,8.16s7-1.1,9.43-4.05c1.74-2.13,3.26-4.45,5.16-7.07.79,1.6,1.29,2.77,1.93,3.85,2.67,4.59,6.32,7.9,12,7.58a11.67,11.67,0,0,0,11.08-8.69,26.32,26.32,0,0,0,.62-12.52c-1.19-5.44-5-9.49-11-10.2s-9.77,2.5-12.64,7.23c-2.76,4.55-5.36,9.21-8.25,13.67-.93,1.42-2.57,2.38-3.88,3.55l-1.31-.74c0-3.62.16-7.26-.08-10.86-.1-1.62-1-3.19-1.56-4.78-1.68.83-3.7,1.31-5,2.55-2.11,2.09-3.45,5-5.64,7-2.83,2.54-6.72,6.74-9.16,6.14C75.91,201,73.5,196.36,70.87,193.54Zm98.81,9.2c2.89,4.53,7.37,7.81,14,6.49s10.67-5.83,12.75-12.06c2.3-6.91-.6-14.53-6.52-17.73-5.55-3-13-1.47-17.44,4.23A31.21,31.21,0,0,0,168,193c-1.62,4.9-4.69,8.21-9.67,9-2.5.38-5.23-.83-7.86-1.32,1.15-2,2-4.27,3.53-6,2.38-2.77,5.38-5,7.74-7.79a35.91,35.91,0,0,0,5.83-8.61c2.82-6.54-.23-13.16-6.6-14.79-6.16-1.57-11.59.33-15.92,4.81-1,1.05-.94,3.18-1.36,4.81a27.62,27.62,0,0,0,4.74-.52c1.24-.33,2.36-1.8,3.48-1.75,2.63.11,6.17,0,7.58,1.54s1.45,5.3.72,7.66-3,4.3-4.85,6.19c-3,3.1-6.3,5.95-9.37,9-2.78,2.77-4.41,6.15-2.57,9.92a8.07,8.07,0,0,0,9.79,4.21C158.68,207.79,163.81,205.15,169.68,202.74Zm-63.47-25c-3-2.28-5-4.73-6.21-4.42a7.37,7.37,0,0,0-4.56,4.48c-.29,1,2.5,4,4,4.09C101.17,181.94,103,179.8,106.21,177.71Z"/><path class="cls-2" d="M70.87,193.54c2.63,2.82,5,7.47,8.38,8.27,2.44.6,6.33-3.6,9.16-6.14,2.19-2,3.53-4.87,5.64-7,1.25-1.24,3.27-1.72,5-2.55.54,1.59,1.46,3.16,1.56,4.78.24,3.6.08,7.24.08,10.86l1.31.74c1.31-1.17,3-2.13,3.88-3.55,2.89-4.46,5.49-9.12,8.25-13.67,2.87-4.73,6.8-7.94,12.64-7.23s9.8,4.76,11,10.2a26.32,26.32,0,0,1-.62,12.52A11.67,11.67,0,0,1,126,209.5c-5.64.32-9.29-3-12-7.58-.64-1.08-1.14-2.25-1.93-3.85-1.9,2.62-3.42,4.94-5.16,7.07-2.41,3-5.25,5.33-9.43,4.05s-3.94-4.91-4.42-8.16c-.12-.82-.11-1.66-.21-3.21-2.66,2.9-4.83,5.54-7.28,7.89-6.11,5.86-12.56,5.16-17-2.06a47.7,47.7,0,0,1-4.68-10.37c-1.18-3.67.59-6,4.44-6.88a54.9,54.9,0,0,0,9.53-2.67,6.92,6.92,0,0,0,4.35-8.12c-.71-4-3.68-5.28-7.22-5.68-7.88-.88-15.09,3.87-15.81,11.79-.59,6.49,1,13.15,1.1,19.74,0,2.21-1.6,4.51-2.86,6.53-.14.22-4-.91-4.2-1.84-2.39-10.74-3.1-21.48,2.67-31.53,4.29-7.47,10.82-11.6,19.51-12,5.55-.22,10.24,1.4,12.75,6.85a12.85,12.85,0,0,1-3.4,15C80.89,187.82,76.23,190.14,70.87,193.54ZM132,198.66c.07-7.17-4.81-13.52-9-13.46-3.19,0-4.18,2.13-4.18,5,0,5.31,4.79,12.18,8.78,11.7C129.45,201.67,131.12,199.33,132,198.66Z"/><path class="cls-2" d="M169.68,202.74c-5.87,2.41-11,5-16.44,6.57a8.07,8.07,0,0,1-9.79-4.21c-1.84-3.77-.21-7.15,2.57-9.92,3.07-3.05,6.34-5.9,9.37-9,1.84-1.89,4.13-3.84,4.85-6.19s.7-6.08-.72-7.66-5-1.43-7.58-1.54c-1.12,0-2.24,1.42-3.48,1.75a27.62,27.62,0,0,1-4.74.52c.42-1.63.33-3.76,1.36-4.81,4.33-4.48,9.76-6.38,15.92-4.81,6.37,1.63,9.42,8.25,6.6,14.79a35.91,35.91,0,0,1-5.83,8.61c-2.36,2.78-5.36,5-7.74,7.79-1.5,1.72-2.38,4-3.53,6,2.63.49,5.36,1.7,7.86,1.32,5-.75,8-4.06,9.67-9a31.21,31.21,0,0,1,4.48-9.31c4.43-5.7,11.89-7.24,17.44-4.23,5.92,3.2,8.82,10.82,6.52,17.73-2.08,6.23-6,10.72-12.75,12.06S172.57,207.27,169.68,202.74Zm5-10.75c0,5.72,4.09,10.13,9.35,10.14,4.09,0,6.41-2.29,6.49-6.46.11-5.65-4.49-10.65-9.69-10.54C177,185.21,174.65,187.81,174.67,192Z"/><path class="cls-3" d="M70,69Q74.45,60,78.85,51c3.07,1.15,6.13,2.31,9.2,3.45q9.2,3.39,18.4,6.74c-.06,2.08-1,5,0,6.1C113,74.79,120,82,126.88,89.25l1.44,3.63c-6.45-2.47-13-4.79-19.36-7.44C96,80.06,83,74.5,70,69Z"/><path class="cls-2" d="M226.48,184.53l1.91-.6c8.26-2.64,14.85-.35,17.34,6s-1.21,14.67-7.93,18.07-14.11,1.12-18-5.61c-.83-1.42-1.47-3-3.21-6.5l-10.93,14-2.08-1c0-5.88,0-11.76,0-17.64,0-2.61,1-5.83-3.25-6.47-.3,0-.81-2.81-.35-3.15,2.8-2.08,5.86-3.83,10-6.4v21.33l1.61.77c2.12-3.23,5.19-6.2,6.19-9.74,2.88-10.13,9.06-17.27,17.91-22.36,1.23-.71,3.16-.2,4.77-.26-.6,1.6-.76,3.65-1.87,4.7-3.13,2.94-6.83,5.29-10,8.23-1.5,1.41-2.21,3.65-3.28,5.51,0,.43,0,.86-.07,1.29Zm-1.66,6.34-1.12,2.56c2.25,2.66,4.12,5.87,6.86,7.85,3.23,2.32,7.89.84,8.95-2.27,1.3-3.83-.53-7-4-7.95S228.41,190.87,224.82,190.87Z"/><path class="cls-4" d="M234.1,128c-6,10.81-15,17.45-27.07,20.07-.74-.71-1.36-1.73-2.24-2.07-4-1.52-8.3-2.39-12-4.39s-6.55-5-9.79-7.51l5.29-1.09,11.13-3.27c7.28,1.86,14.49,4.51,22.18,2.13Z"/><path class="cls-5" d="M70,69C83,74.5,96,80.06,109,85.44c6.39,2.65,12.91,5,19.36,7.44l2.53,3.18c1,2,2,4,3,6-1.91-.32-3.93-.33-5.7-1-4.72-1.82-9.3-4-14-5.86-.94-.37-2.2.08-3.31.15L98,90.54c-.81-1.09-1.39-2.73-2.47-3.19-9.27-3.95-18.63-7.68-28-11.48Z"/><path class="cls-6" d="M173.46,246.47c1.77-11.73,10.11-19.43,21-19.34,10.18.09,19.34,8.23,20.53,18.24a20.81,20.81,0,0,1-15.51,23,48.79,48.79,0,0,1-6.88.82l-3.5-.4c-8.72-3.27-14.43-9.08-15.7-18.63l3.83,1.84c2.2,5.51,4.82,10.62,11.38,12l3.67.94c9.62,1.09,17.78-5,18.89-14.19,1.19-9.79-4.92-18.24-14.22-19.67-9.85-1.52-17.86,4.84-19.87,15.76Z"/><path class="cls-7" d="M216.73,72.05C228.62,80.77,236.89,91.7,238,107c-1.29,1.13-2.65,2.2-3.86,3.41-1.83,1.85-3.41,4-5.36,5.68-6,5.23-13.29,5.23-20.64,4.93q.78-2.52,1.57-5c.21-1,.43-2.09.65-3.14a33.32,33.32,0,0,1,4.41-.59c11.07,0,15.3-8.8,14.14-17.91-.25-2-1.89-3.76-2.89-5.63l-1.37.64c-.44,2.2-.89,4.39-1.33,6.59q-.61-5.43-1.24-10.87c-1.42-2.92-2.93-5.81-4.23-8.79A26.63,26.63,0,0,1,216.73,72.05Z"/><path class="cls-8" d="M105.79,269C93,269,84.06,261.15,83.24,249.35c-.75-10.68,7.12-20.21,18.19-22s20.52,5.71,23.69,19.05c0,1.22,0,2.44,0,3.66-1.76,8.78-6,15.5-15.19,18l.2-3.87c6.13-2.2,9.65-6.57,10.77-12.94l.24-4.11c-.15-6-3-10.49-8-13.62a17.19,17.19,0,0,0-25.26,20.35c2.69,7.63,8.76,11.5,17.91,11.42Z"/><path class="cls-9" d="M148.94,46c.09,1.58.18,3.17.3,5.46,3.58-3.39,5.32-9.7,11.36-6.67,5,2.48,3.23,7.24,2.26,11.72L169,57q1,5.46,2,10.92l-8.9,4.39c0-1.15-.08-2.31-.1-3.46-.11-8.87-5.41-14.28-14.15-13.7-3.3.21-6.51,1.87-9.77,2.88l1.52-11.12Z"/><path class="cls-10" d="M184,149.08c-16.12-2-29.1-10.18-40.64-21-3.33-3.11-6.19-6.73-9.27-10.11,2.07.89,4.18,1.69,6.18,2.71,5.28,2.67,10.51,5.44,15.76,8.17l13,4.26a82.53,82.53,0,0,0,5.58,7.12C177.55,143.35,180.84,146.15,184,149.08Z"/><path class="cls-11" d="M103,131.08c-11.57,9.34-30.28,4.16-35.79-10-.89-2.28-1.36-4.72-2-7.09,2,.49,4,.91,6,1.5,3.71,1.09,7.4,2.28,11.1,3.43l3.78,6.87L88,127.06l-.06,0c1.4,1.2,2.67,3.15,4.24,3.44C95.71,131.11,99.4,130.93,103,131.08Z"/><path class="cls-12" d="M121.12,247.12l-.24,4.11c-6,2.28-9.87,6.39-10.77,12.94-.07,1.29-.14,2.58-.2,3.87a16.4,16.4,0,0,0,12.5,16c10.21,2.62,18.3-3,21.66-15.13l3.65.28c-2.63,17.62-20.13,23.28-31.75,16.19-6.14-3.74-9.27-9.33-10.18-16.32l0-3.77C107.29,256.16,112.22,250,121.12,247.12Z"/><path class="cls-13" d="M128.51,246.32c1.56-11.22,9.49-18.74,20.13-19.09s18.73,6.79,21.45,19l0,3.81c-1.86,9.07-6,16.11-16,18.06.33-1.38.65-2.77,1-4.16,6.51-1.81,9.61-6.47,10.73-12.79.1-1.37.2-2.74.29-4.11-1-9.41-7.56-15.85-16.44-16.07-9.29-.24-16.12,5.9-17.72,15.92Z"/><path class="cls-14" d="M155.14,264c-.32,1.39-.64,2.78-1,4.16,2.28,4.23,3.64,9.46,7,12.48,9.68,8.7,25.86,3,27.9-11.78l3.5.4c-2.15,11.8-9.83,18.86-20.63,18.94-11,.08-18.65-6.85-21.09-19.08,0-1.22,0-2.45,0-3.68,1.4-9.19,6.45-15.35,15.28-18.34-.09,1.37-.19,2.74-.29,4.11C160,253.47,156.15,257.53,155.14,264Z"/><path class="cls-15" d="M184,149.08c-3.15-2.93-6.44-5.73-9.41-8.83a82.53,82.53,0,0,1-5.58-7.12l14,1c3.24,2.55,6.22,5.58,9.79,7.51s8,2.87,12,4.39c.88.34,1.5,1.36,2.24,2.07C199.45,150.82,191.75,150.63,184,149.08Z"/><path class="cls-16" d="M64.18,93c.52-3.37,1-6.74,1.57-10.11L90.12,93.34,84,101Z"/><path class="cls-8" d="M234.1,128l-12.51,3.87c-7.69,2.38-14.9-.27-22.18-2.13l6.6-5.73a10.23,10.23,0,0,0,2.67,1.88c9.06,2.59,16.66-.81,23.86-5.92a56.64,56.64,0,0,1,5.33-3Z"/><path class="cls-17" d="M90.12,93.34,65.75,82.9l1.81-7c9.33,3.8,18.69,7.53,28,11.48,1.08.46,1.66,2.1,2.47,3.19Z"/><path class="cls-18" d="M82.33,119c-3.7-1.15-7.39-2.34-11.1-3.43-2-.59-4-1-6-1.5L64,101c2,.52,4.13.9,6.12,1.59,4,1.39,8,2.94,12,4.43Q82.19,113,82.33,119Z"/><path class="cls-5" d="M106.45,61.14q-9.2-3.36-18.4-6.74C85,53.26,81.92,52.1,78.85,51l4.88-7.39L95.85,49l-.57,3.06c3.66,0,7.72-1.17,9.73.35C106.72,53.7,106.06,58.11,106.45,61.14Z"/><path class="cls-19" d="M237.87,117a56.64,56.64,0,0,0-5.33,3c-7.2,5.11-14.8,8.51-23.86,5.92a10.23,10.23,0,0,1-2.67-1.88l2.09-3c7.35.3,14.66.3,20.64-4.93,1.95-1.7,3.53-3.83,5.36-5.68,1.21-1.21,2.57-2.28,3.86-3.41Z"/><path class="cls-20" d="M103,131.08c-3.64-.15-7.33,0-10.87-.61-1.57-.29-2.84-2.24-4.24-3.44,8.22.94,13.49-4.3,19-9l8,4.88Z"/><path class="cls-21" d="M134.16,13.11c8.88,1,10.74,8,12.7,14.88l-7.7,1c-3.11-10-5.49-12.14-12.82-11.32-1.15.13-2.31.18-3.46.27Z"/><path class="cls-16" d="M88.81,36.93l11-11.21c2.1,3.4,5.19,4.1,8.86,3.28l-9.6,13.15Z"/><path class="cls-18" d="M134.16,13.11l-11.28,4.83.12,0-2.12,1-9.68,7.19-6.31-4.27c7.68-6.24,16.17-10.33,26.34-9.83A10.27,10.27,0,0,1,134.16,13.11Z"/><path class="cls-22" d="M82,107c-4-1.49-7.94-3-12-4.43-2-.69-4.08-1.07-6.12-1.59l.21-8L84,101C83.36,103,82.7,105,82,107Z"/><path class="cls-16" d="M156,128.87c-5.25-2.73-10.48-5.5-15.76-8.17-2-1-4.11-1.82-6.18-2.71l-6.18-6.33-1-1.57c1.46.18,2.92.32,4.37.54,2.91.43,5.8.9,8.7,1.35Z"/><path class="cls-23" d="M178,57.18l14,2.11c.32,1.45,1.14,3,.81,4.31S191,65.87,190,67l-12-.17Z"/><path class="cls-17" d="M88.81,36.93l10.25,5.22L95.85,49,83.73,43.56Z"/><path class="cls-12" d="M128.51,246.32l3.49.58c8.39,3.25,14.47,8.43,15.1,18.15l-3.58-1c-1.84-5.84-4.06-11.32-11.34-12l-3.86-1.85-3.22-.13c0-1.22,0-2.44,0-3.66Z"/><path class="cls-13" d="M143.52,264.07l3.58,1,3.78.34c0,1.23,0,2.46,0,3.68l-3.12.1-3.65-.28c-8.77-3.27-14.46-9.13-15.75-18.7l3.86,1.85C134.2,257.71,137,262.65,143.52,264.07Z"/><path class="cls-14" d="M170.12,250.05l0-3.81,3.37.23,3.58.38c8.45,3.2,14.36,8.52,15.2,18.1l-3.67-.94c-2.07-7.6-5.75-11.47-11.38-12l-3.83-1.84Z"/><path class="cls-24" d="M114.92,122.86l-8-4.88,6.83-8.07,9.18,6Z"/><path class="cls-25" d="M178,57.18v9.64l-7,1.08q-1-5.46-2-10.92Z"/><path class="cls-21" d="M122.94,115.89l-9.18-6,4.65-7,8.53,7.18,1,1.57Z"/><path class="cls-24" d="M201,62.17l11.11,6.9L210,74.14l-9-4.29-1.25-.62-.14.11Z"/><path class="cls-25" d="M148.94,46l-9.34.88q.22-4.44.46-8.89l8.61-1Z"/><path class="cls-23" d="M148.67,37l-8.61,1c-.07-1.86-.13-3.71-.2-5.57-.19-.78-.38-1.56-.56-2.34l-.14-1.1,7.7-1Q147.76,32.51,148.67,37Z"/><path class="cls-21" d="M201,62.17l-1.38,7.17L190,67c1-1.12,2.45-2.11,2.78-3.39s-.49-2.86-.81-4.31Z"/><path class="cls-20" d="M210,74.14l2.13-5.07,4.64,3a26.63,26.63,0,0,0,1.08,4.22c1.3,3,2.81,5.87,4.23,8.79Z"/><path class="cls-2" d="M106.21,177.71c-3.19,2.09-5,4.23-6.78,4.15-1.49-.07-4.28-3.1-4-4.09a7.37,7.37,0,0,1,4.56-4.48C101.25,173,103.16,175.43,106.21,177.71Z"/><path class="cls-22" d="M104.89,21.82l6.31,4.27L108.66,29c-3.67.82-6.76.12-8.86-3.28Z"/><path class="cls-26" d="M132,198.66c-.86.67-2.53,3-4.45,3.24-4,.48-8.76-6.39-8.78-11.7,0-2.87,1-5,4.18-5C127.17,185.14,132.05,191.49,132,198.66Z"/><path class="cls-26" d="M174.67,192c0-4.18,2.32-6.78,6.15-6.86,5.2-.11,9.8,4.89,9.69,10.54-.08,4.17-2.4,6.47-6.49,6.46C178.76,202.12,174.7,197.71,174.67,192Z"/><path class="cls-27" d="M108.66,29l2.54-2.91,9.68-7.19,2.12-1-.12,0c1.15-.09,2.31-.14,3.46-.27,7.33-.82,9.71,1.27,12.82,11.32.05.36.09.73.14,1.1.18.78.37,1.56.56,2.34.07,1.86.13,3.71.2,5.57q-.24,4.45-.46,8.89-.76,5.56-1.52,11.12l-3.61,13.81L131.11,81l-4.23,8.25C120,82,113,74.79,106.42,67.24c-1-1.15,0-4,0-6.1-.39-3,.27-7.44-1.44-8.74-2-1.52-6.07-.35-9.73-.35L95.85,49l3.21-6.84Z"/><path class="cls-25" d="M126.88,89.25,131.11,81c2.19,1.28,4.43,2.48,6.56,3.85,6.5,4.18,13.46,3.45,20.51,2.09l5,8.66c-3.69,1.46-7.27,3.45-11.1,4.29-7.48,1.62-14.3-1.71-21.24-3.83l-2.53-3.18Z"/><path class="cls-26" d="M224.82,190.87c3.59,0,7.37-.71,10.72.19s5.27,4.12,4,7.95c-1.06,3.11-5.72,4.59-8.95,2.27-2.74-2-4.61-5.19-6.86-7.85Z"/><path class="cls-1" d="M226.48,184.53l-1.26.27c0-.43.05-.86.07-1.29Z"/><path class="cls-26" d="M156,128.87,140,112q-1.55-2.9-3.1-5.79c7.8-3.32,15.46-2.76,23,.86L173.12,117l7.08,7,8.08,9.12L183,134.14l-14-1Z"/><path class="cls-20" d="M188.28,133.05l-8.08-9.12L193,113.22,209.67,116q-.79,2.52-1.57,5l-2.09,3-6.6,5.73Z"/><path class="cls-27" d="M118.41,102.91l-4.65,7L106.93,118c-5.51,4.75-10.78,10-19,9l.06,0-1.88-1.24L82.33,119Q82.18,113,82,107c.66-2,1.32-4,2-6l6.11-7.66L98,90.54l12.86,4.76Z"/><path class="cls-23" d="M159.91,107.05c-7.54-3.62-15.2-4.18-23-.86l-3-4.17c-1-2-2-4-3-6,6.94,2.12,13.76,5.45,21.24,3.83,3.83-.84,7.41-2.83,11.1-4.29l5.77,5.53Z"/><path class="cls-17" d="M133.87,102l3,4.17q1.56,2.9,3.1,5.79c-2.9-.45-5.79-.92-8.7-1.35-1.45-.22-2.91-.36-4.37-.54l-8.53-7.18-7.56-7.61c1.11-.07,2.37-.52,3.31-.15,4.71,1.85,9.29,4,14,5.86C129.94,101.69,132,101.7,133.87,102Z"/><path class="cls-27" d="M192.24,265c-.84-9.58-6.75-14.9-15.2-18.1,2-10.92,10-17.28,19.87-15.76,9.3,1.43,15.41,9.88,14.22,19.67C210,259.91,201.86,266,192.24,265Z"/><path class="cls-26" d="M170.12,250.05l3.24.13c1.27,9.55,7,15.36,15.7,18.63-2,14.79-18.22,20.48-27.9,11.78-3.35-3-4.71-8.25-7-12.48C164.1,266.16,168.26,259.12,170.12,250.05Z"/><path class="cls-26" d="M177.19,252c5.63.52,9.31,4.39,11.38,12C182,262.64,179.39,257.53,177.19,252Z"/><path class="cls-28" d="M169,101.13l-5.77-5.53-5-8.66-.27-8,4.19-6.7L171,67.9l7-1.08L190,67l9.58,2.35.14-.11,1.25.62,9,4.29L222,85.06q.63,5.43,1.24,10.87c-.86,2.89-2.3,1.65-4,.78-4.67-2.34-8.61-.23-9.2,5a51.82,51.82,0,0,0,.19,7.36c.18.86.36,1.73.55,2.59l-.46,1.2c-.22,1-.44,2.09-.65,3.14L193,113.22l-9.86-3.72Z"/><path class="cls-29" d="M210.23,109a51.82,51.82,0,0,1-.19-7.36c.59-5.2,4.53-7.31,9.2-5,1.74.87,3.18,2.11,4-.78.44-2.2.89-4.39,1.33-6.59L226,88.7c1,1.87,2.64,3.66,2.89,5.63,1.16,9.11-3.07,17.91-14.14,17.91a33.32,33.32,0,0,0-4.41.59c.15-.4.3-.8.46-1.2C210.59,110.77,210.41,109.9,210.23,109Z"/><path class="cls-26" d="M121.12,247.12c-8.9,2.84-13.83,9-15.3,18.15-9.15.08-15.22-3.79-17.91-11.42a17.19,17.19,0,0,1,25.26-20.35C118.11,236.63,121,241.12,121.12,247.12Z"/><path class="cls-26" d="M128.32,250.19c1.29,9.57,7,15.43,15.75,18.7-3.36,12.1-11.45,17.75-21.66,15.13a16.4,16.4,0,0,1-12.5-16c9.23-2.48,13.43-9.2,15.19-18Z"/><path class="cls-26" d="M110.11,264.17c.9-6.55,4.74-10.66,10.77-12.94C119.76,257.6,116.24,262,110.11,264.17Z"/><path class="cls-30" d="M162.1,72.29,157.91,79a17.35,17.35,0,0,0-2.89.55c-7.74,2.91-12.26,1.61-17.24-4.87a21.21,21.21,0,0,0-3.31-2.85L138.08,58c3.26-1,6.47-2.67,9.77-2.88,8.74-.58,14,4.83,14.15,13.7C162,70,162.07,71.14,162.1,72.29Z"/><path class="cls-20" d="M86.11,125.82,88,127.06Z"/><path class="cls-26" d="M150.88,265.39l-3.78-.34c-.63-9.72-6.71-14.9-15.1-18.15,1.6-10,8.43-16.16,17.72-15.92,8.88.22,15.46,6.66,16.44,16.07C157.33,250,152.28,256.2,150.88,265.39Z"/><path class="cls-26" d="M155.14,264c1-6.42,4.83-10.48,10.73-12.79C164.75,257.48,161.65,262.14,155.14,264Z"/><path class="cls-21" d="M123,17.92l-2.12,1Z"/><path class="cls-26" d="M143.52,264.07c-6.53-1.42-9.32-6.36-11.34-12C139.46,252.75,141.68,258.23,143.52,264.07Z"/><path class="cls-21" d="M201,69.85l-1.25-.62Z"/><path class="cls-21" d="M139.86,32.43c-.19-.78-.38-1.56-.56-2.34C139.48,30.87,139.67,31.65,139.86,32.43Z"/><path class="cls-9" d="M134.47,71.82a21.21,21.21,0,0,1,3.31,2.85c5,6.48,9.5,7.78,17.24,4.87a17.35,17.35,0,0,1,2.89-.55l.27,8c-7.05,1.36-14,2.09-20.51-2.09-2.13-1.37-4.37-2.57-6.56-3.85Z"/><path class="cls-21" d="M169,101.13l14.19,8.37-10,7.47-13.21-9.92Z"/><path class="cls-24" d="M173.12,117l10-7.47,9.86,3.72L180.2,123.93Z"/><path class="cls-7" d="M210.23,109c.18.86.36,1.73.55,2.59C210.59,110.77,210.41,109.9,210.23,109Z"/></g></g></svg>