<svg xmlns="http://www.w3.org/2000/svg" viewBox="0 0 360 546.3"><defs><style>.cls-1{fill:#fefefe;}.cls-2{fill:#202b5a;}.cls-3{fill:#212c5b;}.cls-4{fill:#ec204c;}.cls-5{fill:#3c80ca;}.cls-6{fill:#232e5c;}.cls-7{fill:#212c5a;}.cls-8{fill:#222d5b;}.cls-9{fill:#231e1f;}.cls-10{fill:#30aa48;}.cls-11{fill:#f7a91f;}.cls-12{fill:#fdfdfd;}.cls-13{fill:#252f5d;}.cls-14{fill:#fcfcfd;}.cls-15{fill:#27315f;}.cls-16{fill:#fdfcfc;}.cls-17{fill:#fefefd;}</style></defs><g id="Layer_2" data-name="Layer 2"><g id="Layer_1-2" data-name="Layer 1"><path class="cls-1" d="M201.12,0H360V546.3H0V0H158.55V11.32h42.57Zm16.41,470-.09-.06,0,.1A37.74,37.74,0,0,0,180,434.78a38.17,38.17,0,0,0-38.23,35l-6.62,0c-.11-.89-.2-1.79-.34-2.68a38.1,38.1,0,0,0-44.25-31.71c-24.06,3.94-38.27,30.39-28.4,52.72a38.3,38.3,0,0,0,38.2,22.81c.1.64.2,1.28.29,1.92A38.09,38.09,0,0,0,173,523.53a31.62,31.62,0,0,0,3.16-12.81H183c.12,1.09.16,2.2.37,3.27,3.18,15.81,12.43,26.4,28,30.45s28.69-.63,39.09-12.79c5.07-5.93,7.63-13,8.43-20.76a86,86,0,0,0,9-.33,38,38,0,0,0,32.19-41.83,38.06,38.06,0,0,0-74.55-6.08,58.81,58.81,0,0,0-1,7.18Zm10.8-167.42c0-.59-.11-1.18-.11-1.77V260.88H216.69a8.68,8.68,0,0,0-.7-.9l-14.08-14.09c-.24-.24-.49-.45-.67-.61L174,272.54a7.58,7.58,0,0,1,1.32.88q6.75,6.7,13.45,13.45a10,10,0,0,1,.91,1.29c-.17.24-.37.47-.52.72q-7.33,12.69-14.66,25.4c-.12.2-.2.43-.32.69l27,15.59c2.9-5,5.73-9.89,8.53-14.78,2.35-4.1,4.67-8.22,7-12.34,3.32,0,6.63,0,9.95.05a18,18,0,0,1,2.94.59c1.14.69,2.25,1.41,3.4,2.05,1.75,1,3.52,1.88,5.28,2.82v-.05a24.78,24.78,0,0,0,1.1,2.53c1.45,2.59,3,5.14,4.48,7.76l37-21.35c-2-3.39-3.81-6.62-5.65-9.81l27.18-27.2,9.82,5.65,21.34-37-9.9-5.71-21.3,36.87L286.5,244.87a10.73,10.73,0,0,1-1,1.52c-4.44,4.47-8.9,8.91-13.35,13.37l-12.24,12.33-10.29-5.82q2.59-9.51,5.18-19,2.4-8.85,4.82-17.71,5.85,3.33,11.69,6.66c5.09,2.92,10.18,5.86,15.37,8.86,5.21-9,10.38-18,15.62-27.07l-27.11-15.67q-7.79,13.63-15.55,27.27l-21.45-5.8c-3.34,12.48-6.61,24.68-9.9,37l4.26,1.15,16.75,4.4a6.89,6.89,0,0,1-.45,1.46q-4.74,8.31-9.55,16.58-5.28,9.11-10.59,18.2ZM120.9,309.13c-.37-.25-.73-.52-1.11-.74L95.44,294.33l-11.11-6.41-5.72,9.91,37,21.34c1.84-3.19,3.62-6.25,5.37-9.32.1-.18,0-.48,0-.72.08,0,.2.14.24.12,3.33-1.88,6.64-3.77,10-5.7-.34-.63-.59-1.11-.86-1.57q-6-10.43-12-20.84c-2.82-4.86-5.68-9.71-8.52-14.57l21.48-5.81c.26.48.49,1,.76,1.44q7.29,12.69,14.6,25.36v.62l-15,15.3,26.77,26.77L174,314.67a11.6,11.6,0,0,1-1.28-.94c-5-5-10-10-14.94-14.92q-5.36-5.34-10.73-10.65l.12-.6a4.09,4.09,0,0,0,.68-.29q12.6-7.26,25.2-14.56a8.76,8.76,0,0,0,.82-.58C173.22,271,172.63,270,172,269l-13.56-23.37-.68-.05c-.57.3-1.15.57-1.7.89L131.25,260.7q-3.28-12.19-6.58-24.38l-3.36-12.51L100,229.52c.8,3,1.57,5.88,2.33,8.76l7.53,28.3-1.42.79-8.63,4.82c-.36-.41-.7-.84-1.09-1.22q-12.37-12.41-24.77-24.8a11.22,11.22,0,0,1-.87-1L57.47,260.7l27,27,15.15-15.14a1.14,1.14,0,0,0,.16-.39c.11.1.24.17.3.29q10.25,17.73,20.46,35.48A5.69,5.69,0,0,1,120.9,309.13ZM84.29,42.58c0,1.93-.08,3.86-.06,5.79s.12,3.94.18,5.9l-.33,0L83,54.82a12.25,12.25,0,0,0-1.61.24q-11,2.92-22.08,5.87c-4,1.07-8,2.16-12,3.26,1.78,6.66,3.54,13.19,5.27,19.72a10.46,10.46,0,0,1,.17,1.86c-.39.19-.8.37-1.19.6L28,100l-2,1.2c5.23,9.07,10.39,18,15.61,27l1.75-1,25.14-14.46.37,0c1.19,4.56,2.36,9.13,3.56,13.7q3.06,11.61,6.14,23.21L41.63,128.39c-1.35,2.34-2.75,4.52-3.9,6.81a10,10,0,0,1-4.61,4.63c-2.35,1.19-4.55,2.65-6.82,4H14.52v42.85H26.06a1.51,1.51,0,0,0,0,.3q4.77,17.88,9.57,35.75a7.18,7.18,0,0,0,.43.95c.53-.17,1-.35,1.44-.47q7.8-2,15.6-4c1.33-.33,2.67-.57,4-.85a7.47,7.47,0,0,1,.88,1.07q7,12,13.9,24.08c.32.55.66,1.1,1,1.69l5.92-3.42,20.65-12,.05-.75c-.25-.49-.47-1-.74-1.46q-6.57-11.4-13.15-22.8c-.42-.72-.86-1.42-1.33-2.19l-1.38.76c-5.83,3.36-11.67,6.71-17.48,10.1-2.8,1.62-5.56,3.3-8.34,5a3.07,3.07,0,0,0,0-.74q-4.89-18.24-9.81-36.48v-.27l9.66-5.4h.42l26.8,26.7L100,186.3a8.92,8.92,0,0,1-1.26-.89q-12.34-12.33-24.68-24.68c-.39-.38-.73-.81-1.1-1.21.52-.9,1-1.79,1.55-2.69,1.33-2.41,2.64-4.81,4-7.22a9.16,9.16,0,0,0,1.17-.17q5.35-1.4,10.7-2.83L99.88,144c-.09-.48-.14-.82-.23-1.15-2.2-8.23-4.43-16.46-6.61-24.7-1-3.7-1.89-7.42-2.84-11.13l0,0c.54,0,1.09-.12,1.63-.12h29.54V75.73a11.82,11.82,0,0,1,1.45.23c6.83,1.82,13.65,3.67,20.48,5.5l15,4c.65-2.43,1.29-4.73,1.89-7q1.88-7.15,3.71-14.3h31.51c1.9,7.1,3.81,14.2,5.72,21.36l37-9.91c-1.92-7.23-3.79-14.29-5.66-21.35h42.16c-6,3.8-12.05,7.3-18.11,10.8L238.23,75.61c1.47,2.57,2.9,5,4.29,7.49.48.86.86,1.77,1.28,2.66-1.9,7-3.8,14-5.73,21.08l37,9.92c1.05-3.92,2.09-7.75,3.1-11.6.85-3.26,1.65-6.55,2.47-9.82l0,0H312V64.12H280.71l0,0a12.93,12.93,0,0,0-.54-1.2c-1.67-2.95-4-5.71-4.86-8.88s-.22-6.74-.17-10.14a4.66,4.66,0,0,1,.55-2.06c1.66-3,3.39-6,5.13-9l-37-21.35-5.72,9.91,36.61,21.15c-13.92.27-27.71.27-41.49.26a4.7,4.7,0,0,1-1.09-.27,8.44,8.44,0,0,0,.65-1.4q1.76-6.48,3.47-13c.6-2.24,1.2-4.49,1.81-6.8l-36.94-9.89c-1.95,7.19-3.85,14.19-5.76,21.19a1.56,1.56,0,0,1-.42.08H168.42c-1.49,0-3-.06-4.47-.1-.72-2.79-1.41-5.59-2.15-8.37-1.12-4.22-2.27-8.43-3.4-12.62a2.57,2.57,0,0,0-.58,0l-36.16,9.73c-.6-.89-1.26-1.75-1.81-2.67-1.42-2.38-2.79-4.78-4.21-7.21l-37,21.35Zm239.32,95.35c.14-.37.31-.73.42-1.11l5.22-19.49,4.35-16.22-21.35-5.72c-3.33,12.42-6.61,24.66-9.9,37l2.31.63,18.78,4.94a11.86,11.86,0,0,1-.64,1.6q-9.78,17-19.58,33.92c-.32.55-.63,1.11-1,1.73l9.89,5.71,21.35-37c-2.66-1.53-5.2-3-7.73-4.48C325,139,324.32,138.43,323.61,137.93Zm10,48.67H345V144.09H333.64v42.55L312.27,181c-3.32,12.39-6.59,24.59-9.89,36.94l21.26,5.71a4.15,4.15,0,0,0,.23-.56Zm-74-42.62,27.07,15.64,15.62-27.08-27.07-15.63ZM94.07,359.71H86.23v49.21H94.1c0-4.63,0-9.17,0-13.71a2.7,2.7,0,0,1,.18-1.44c1.34-2,2.77-3.95,4.26-6.06.4.68.68,1.14,1,1.61q5.15,9.29,10.32,18.56c.24.43.68,1.06,1,1.07,3,.09,5.91.05,9,.05-.39-.7-.65-1.18-.92-1.65q-7.23-12.66-14.5-25.31a1.67,1.67,0,0,1,.09-2.11q6.45-9.46,12.83-19c.29-.42.54-.86.92-1.46-2.75,0-5.2.06-7.64,0a2.21,2.21,0,0,0-2.16,1.16q-6.7,10-13.47,20c-.23.34-.49.66-1,1.3ZM71.66,384.15h0c0-3.15,0-6.29,0-9.44a21.71,21.71,0,0,0-.27-3.87c-1.3-6.76-5.85-10.91-13.27-11.75-9.07-1-17.37,4.49-17.41,14.94,0,6.69-.12,13.39,0,20.08a19.19,19.19,0,0,0,1.38,6.66c2.44,5.87,8.35,9,15.58,8.52a14.51,14.51,0,0,0,13.88-14.05C71.78,391.55,71.66,387.85,71.66,384.15Zm124.73,0h.23c0-3.19,0-6.39,0-9.59,0-8.77-4.72-14.31-13.46-15.41-9.36-1.17-17.53,4.82-17.49,14.81,0,6.79-.1,13.59.07,20.38a18.17,18.17,0,0,0,1.34,6.52c2.49,5.92,8.85,9.16,15.91,8.44s12.51-5.48,13.31-12.44C196.79,392.64,196.39,388.35,196.39,384.11Zm135.44.12h0c0,4.3-.15,8.6.05,12.89a11.75,11.75,0,0,0,5.19,9.51,14.18,14.18,0,0,0,15,1.14c5.16-2.49,7.17-7,7.23-12.48.1-7.3.06-14.59,0-21.88a14.91,14.91,0,0,0-2.9-9.26c-3.29-4.32-9.44-6.13-15.15-4.49a12.71,12.71,0,0,0-9.39,11.54C331.63,375.53,331.83,379.89,331.83,384.23ZM275.23,202l26.83-26.84-15.33-15.35-26.82,26.88Zm8.64,182.37h0c0-4,.09-8,0-12-.21-8-6.25-14.76-16.58-13.05-6.69,1.1-10.78,6.23-10.93,13.55-.15,7.59-.18,15.19,0,22.78.27,11.63,10.79,15.34,18.39,12.92A12.71,12.71,0,0,0,283.83,397C284,392.81,283.87,388.61,283.87,384.41Zm20.52,17c.39-.57.65-1,.94-1.35,1.82-2.38,3.66-4.74,5.47-7.12,3-3.9,6.09-7.68,8.82-11.74,5.12-7.61,1.53-21.37-11.24-21.91-8.09-.35-15.34,7.43-14,15.36h7.29c.27-1.3.41-2.45.75-3.53a5.72,5.72,0,0,1,6.32-4.13,6.19,6.19,0,0,1,5.41,5.22,8,8,0,0,1-1.86,6.39q-8.73,11.14-17.36,22.36c-.3.39-.72.83-.73,1.26-.07,2.22,0,4.45,0,6.66h27.69v-7.47Zm-77.06.07c.46-.63.71-1,1-1.34,4.55-5.94,9.2-11.81,13.63-17.84,3.84-5.23,4-10.94.84-16.47s-8.23-7.1-14.24-6.34c-6.66.83-12.38,8.63-11.09,15.09h7.35c.11-.79.19-1.53.31-2.26.58-3.41,2.84-5.36,6.16-5.34a6,6,0,0,1,5.95,5.43,7.53,7.53,0,0,1-1.75,6q-8.75,11.21-17.44,22.47a2.84,2.84,0,0,0-.75,1.4c-.08,2.18,0,4.37,0,6.63h27.64v-7.42Zm-80.49,7.42v-1.52c0-6.19,0-12.38,0-18.58a5.57,5.57,0,0,1,.51-2.27q5.91-12.84,11.88-25.63c.2-.43.39-.87.63-1.41H151.7c-2.93,6.44-5.85,12.87-8.89,19.58-.34-.71-.56-1.14-.76-1.58-2.58-5.67-5.14-11.34-7.74-17-.18-.4-.57-1-.89-1-2.51-.08-5-.05-7.73-.05.29.67.47,1.12.68,1.56q5.91,12.75,11.82,25.5a6.09,6.09,0,0,1,.53,2.42c.05,6.14,0,12.28,0,18.43v1.54Zm-135-42v42h8v-42H31.33v-7.28H.33v7.33ZM57.13,260.78c-7.18-12.42-14.25-24.66-21.36-37l-9.9,5.73c7.13,12.36,14.21,24.61,21.35,37Zm260.21,27.55.34.05v1.87c0,1.7,0,3.4,0,5.09,0,.25.31.5.47.74.16-.2.45-.4.45-.6,0-3.18,0-6.36,0-9.54l-.44-.25c-.37.39-.89.71-1.09,1.17-.88,2-1.66,4-2.59,6.28-1-2.28-1.95-4.31-2.79-6.37-.37-.9-.86-1.29-1.87-.85,0,3.06,0,6.15,0,9.25,0,.3.35.6.54.9l.45-.19v-7.19c.91,1.55,1.58,3.15,2.33,4.7.2.42.67,1,1,1s.86-.53,1-.94C316,291.75,316.66,290,317.34,288.33Zm-8.44-1.71c-1-1-7.92-1-8.69.08h3.58v9.24l1.35-.07v-9.25Z"/><path class="cls-2" d="M201.12,0V11.32H158.55V0Z"/><path class="cls-3" d="M259.88,272.09l12.24-12.33c4.45-4.46,8.91-8.9,13.35-13.37a10.73,10.73,0,0,0,1-1.52l15.78,15.79,21.3-36.87,9.9,5.71-21.34,37-9.82-5.65L275.14,288c1.84,3.19,3.69,6.42,5.65,9.81l-37,21.35c-1.52-2.62-3-5.17-4.48-7.76a24.78,24.78,0,0,1-1.1-2.53l.36-.07,0,0,.61-.32c.4-.2.81-.37,1.19-.59l26.77-15.45,7.94-4.6c-.47-.5-.83-.9-1.2-1.28l-14-14.11Z"/><path class="cls-3" d="M243.8,85.76c-.42-.89-.8-1.8-1.28-2.66-1.39-2.47-2.82-4.92-4.29-7.49L256.5,65.05c6.06-3.5,12.13-7,18.11-10.8H232.45v0c0-3.42,0-6.84-.05-10.26a6.55,6.55,0,0,0-.38-1.46h.17a4.7,4.7,0,0,0,1.09.27c13.78,0,27.57,0,41.49-.26L238.17,21.44l5.72-9.91,37,21.35c-1.74,3-3.47,6-5.13,9a4.66,4.66,0,0,0-.55,2.06c-.05,3.4-.67,7,.17,10.14s3.19,5.93,4.86,8.88a12.93,12.93,0,0,1,.54,1.2c-.44.3-.87.63-1.34.9q-17,9.84-34,19.67a6.05,6.05,0,0,0-1.06,1Z"/><path class="cls-4" d="M224.53,469.83a58.81,58.81,0,0,1,1-7.18,38.09,38.09,0,1,1,42.36,47.91,86,86,0,0,1-9,.33l-6.26-1.09c-2.91-1.16-6-2-8.7-3.54-11.62-6.64-18.31-16.61-19.61-30l6.54,1.45a30.83,30.83,0,0,0,15.48,22.75,45.87,45.87,0,0,0,5.7,2.44l0,0,.29.25,6.47,1.32a59.87,59.87,0,0,0,7.58,0,31.79,31.79,0,1,0-34.86-39.59c-.52,2-.76,4-1.13,6Z"/><path class="cls-5" d="M100.34,510.9a38.3,38.3,0,0,1-38.2-22.81c-9.87-22.33,4.34-48.78,28.4-52.72a38.1,38.1,0,0,1,44.25,31.71c.14.89.23,1.79.34,2.68,0,2.13,0,4.27,0,6.4-.06.35-.15.69-.19,1a37,37,0,0,1-11.76,23.4,34.93,34.93,0,0,1-16.49,8.91l0-5.34.29-1.32,0,0c11.55-4,18.56-12,21.3-23.81a9.49,9.49,0,0,0,.06-1.69l.19-6.3a22,22,0,0,0-.05-3.63,31.73,31.73,0,0,0-36.24-26.09c-18.58,2.73-30.8,21.54-25.87,39.66a32,32,0,0,0,34,23.44Z"/><path class="cls-6" d="M164,32.67c1.49,0,3,.1,4.47.1H195a1.56,1.56,0,0,0,.42-.08l0,0c0,.79-.06,1.58-.06,2.37l.06,29.16,0,0H163.92l0,0c0-4.44.08-8.88.08-13.33,0-6,0-12-.07-18A.74.74,0,0,1,164,32.67Z"/><path class="cls-3" d="M121.35,75.73v31.2H91.81c-.54,0-1.09.07-1.63.12l0-31a3.39,3.39,0,0,1,.08-.44l29.37,0c.6,0,1.19.08,1.79.11Z"/><path class="cls-7" d="M259.61,229.58q7.77-13.64,15.55-27.27L302.27,218c-5.24,9.07-10.41,18-15.62,27.07-5.19-3-10.28-5.94-15.37-8.86q-5.83-3.34-11.69-6.66Z"/><path class="cls-7" d="M259.61,144l15.62-27.07,27.07,15.63-15.62,27.08Z"/><path class="cls-8" d="M26.3,143.82c2.27-1.34,4.47-2.8,6.82-4a10,10,0,0,0,4.61-4.63c1.15-2.29,2.55-4.47,3.9-6.81l36.88,21.25,0,0c-1.32,2.41-2.63,4.81-4,7.22-.5.9-1,1.79-1.55,2.69h-.11a9.83,9.83,0,0,1-.93-.43Q60,152.21,48.11,145.34c-3.83-2.21-7.69-4.36-11.55-6.55l-.24-.15.11.29c.23.44.43.9.67,1.32q9.69,16.8,19.37,33.6a8.11,8.11,0,0,1,.51,1.58l-9.66,5.4q-6.62-11.46-13.23-22.92c-2.61-4.53-5.19-9.07-7.78-13.61Z"/><path class="cls-7" d="M68.44,112.77,43.3,127.23l-1.75,1c-5.22-9-10.38-18-15.61-27l2-1.2,23.56-13.6c.39-.23.8-.41,1.19-.6H53a3.51,3.51,0,0,1,.47.55Q60.78,99,68.08,111.7A4.81,4.81,0,0,1,68.44,112.77Z"/><path class="cls-7" d="M216.69,303.44c-2.33,4.12-4.65,8.24-7,12.34-2.8,4.89-5.63,9.76-8.53,14.78l-27-15.59c.12-.26.2-.49.32-.69q7.32-12.7,14.66-25.4c.15-.25.35-.48.52-.72h.4a2,2,0,0,1,.42.13l26.25,15.19Z"/><path class="cls-2" d="M146.64,287.56q-7.3-12.68-14.6-25.36c-.27-.47-.5-1-.76-1.44l0-.06,24.84-14.28c.55-.32,1.13-.59,1.7-.89l.68.05L172,269c.6,1,1.19,2.07,1.83,3.18a8.76,8.76,0,0,1-.82.58q-12.6,7.29-25.2,14.56a4.09,4.09,0,0,1-.68.29Z"/><path class="cls-2" d="M99.49,229.7l-20.65,12-5.92,3.42c-.35-.59-.69-1.14-1-1.69Q65,231.4,58,219.37a8.15,8.15,0,0,0-.88-1.08v0c2.78-1.66,5.54-3.34,8.34-5,5.81-3.39,11.65-6.74,17.48-10.1l1.38-.76c.47.77.91,1.47,1.33,2.19q6.59,11.4,13.15,22.8c.27.47.49,1,.74,1.46Z"/><path class="cls-2" d="M280.71,64.12H312V95.37H280.67a6.69,6.69,0,0,0,.18-1.15q0-14.39,0-28.77A12.3,12.3,0,0,0,280.71,64.12Z"/><path class="cls-9" d="M141.75,469.78a38.17,38.17,0,0,1,38.23-35A37.74,37.74,0,0,1,217.41,470c0,2,0,4,0,6.05-1,15.8-12.45,29.63-28,33.75,0-2.23.09-4.45.14-6.67,11.17-3.31,20.48-14.34,21.51-25.48q.14-3.37.25-6.75c0-.34,0-.7,0-1a31.71,31.71,0,0,0-63.2.95Z"/><path class="cls-10" d="M189.47,503.12c-.05,2.22-.09,4.44-.14,6.67a32.33,32.33,0,0,0,.36,3.55c2.54,12.33,9.74,20.81,21.71,24.59s22.79,1,31.9-7.65c5.81-5.53,8.69-12.54,9.39-20.48l6.26,1.09c-.8,7.74-3.36,14.83-8.43,20.76-10.4,12.16-23.63,16.8-39.09,12.79s-24.84-14.64-28-30.45c-.21-1.07-.25-2.18-.37-3.27q0-3.2,0-6.41c1-15.56,13.05-29.89,28.17-33.42q-.12,3.38-.25,6.75a6.24,6.24,0,0,0-.85.22C198.49,482.39,191.63,490.83,189.47,503.12Z"/><path class="cls-11" d="M106.7,504.16c0,1.78,0,3.56,0,5.34a37.73,37.73,0,0,0,.41,4.77c3,14.23,15.44,24.77,29.62,25.21,15.29.47,28.1-8.8,32.12-23.32.58-2.1.85-4.28,1.27-6.43l6.08,1A31.62,31.62,0,0,1,173,523.53a38.09,38.09,0,0,1-72.39-10.71c-.09-.64-.19-1.28-.29-1.92v-6.46c1.22-10.92,6-19.94,14.63-26.76a32.55,32.55,0,0,1,13.55-6.62c-.06,2.1-.13,4.2-.19,6.3-.43.22-.84.48-1.29.66a31.5,31.5,0,0,0-18.39,18.1,50.3,50.3,0,0,0-1.68,6.74l0,0Z"/><path class="cls-12" d="M68.44,112.77a4.81,4.81,0,0,0-.36-1.07Q60.78,99,53.44,86.31a3.51,3.51,0,0,0-.47-.55c.82-.29,1.62-.66,2.46-.88Q72.69,80.22,90,75.58h.27a3.39,3.39,0,0,0-.08.44l0,31,0,0-21.39,5.69Z"/><path class="cls-3" d="M94.07,359.71v22.21c.48-.64.74-1,1-1.3q6.75-10,13.47-20a2.21,2.21,0,0,1,2.16-1.16c2.44.09,4.89,0,7.64,0-.38.6-.63,1-.92,1.46q-6.4,9.5-12.83,19a1.67,1.67,0,0,0-.09,2.11q7.29,12.63,14.5,25.31c.27.47.53.95.92,1.65-3.12,0-6.08,0-9-.05-.36,0-.8-.64-1-1.07q-5.19-9.25-10.32-18.56c-.27-.47-.55-.93-1-1.61-1.49,2.11-2.92,4.05-4.26,6.06a2.7,2.7,0,0,0-.18,1.44c0,4.54,0,9.08,0,13.71H86.23V359.71Z"/><path class="cls-8" d="M71.66,384.15c0,3.7.12,7.4,0,11.09a14.51,14.51,0,0,1-13.88,14.05c-7.23.45-13.14-2.65-15.58-8.52a19.19,19.19,0,0,1-1.38-6.66c-.17-6.69-.08-13.39,0-20.08,0-10.45,8.34-16,17.41-14.94,7.42.84,12,5,13.27,11.75a21.71,21.71,0,0,1,.27,3.87c0,3.15,0,6.29,0,9.44Zm-7.53,0h0c0-3.05,0-6.1,0-9.14-.08-4.83-3.19-8.05-7.76-8.1a7.68,7.68,0,0,0-8.08,7.83c-.13,6.24-.11,12.49,0,18.73.07,3.82,2.08,6.63,5.15,7.7a7.81,7.81,0,0,0,10.64-7.13C64.25,390.79,64.13,387.49,64.13,384.19Z"/><path class="cls-3" d="M196.39,384.11c0,4.24.4,8.53-.09,12.71-.8,7-6.19,11.72-13.31,12.44s-13.42-2.52-15.91-8.44a18.17,18.17,0,0,1-1.34-6.52c-.17-6.79-.05-13.59-.07-20.38,0-10,8.13-16,17.49-14.81,8.74,1.1,13.45,6.64,13.46,15.41,0,3.2,0,6.4,0,9.59Zm-7.3.09c0-3.15.08-6.3,0-9.44A7.64,7.64,0,0,0,181.3,367c-4.41-.06-8,3-8,7.37-.13,6.59-.1,13.19,0,19.78a7.53,7.53,0,0,0,5.22,7.14c5.45,1.79,10.37-1.78,10.58-7.75C189.18,390.4,189.09,387.3,189.09,384.2Z"/><path class="cls-8" d="M72.86,159.51H73c.37.4.71.83,1.1,1.21q12.33,12.35,24.68,24.68a8.92,8.92,0,0,0,1.26.89L84.2,202.12l-26.8-26.7a10.11,10.11,0,0,1,1-1.28Q65.6,166.82,72.86,159.51Z"/><path class="cls-8" d="M131.25,260.7l0,.06-21.48,5.81h0l-7.53-28.3c-.76-2.88-1.53-5.77-2.33-8.76l21.34-5.71,3.36,12.51Q128,248.52,131.25,260.7Z"/><path class="cls-7" d="M121.35,75.73h0l5.7-21.47,0,0c5.49,1.45,11,2.87,16.47,4.35,6.82,1.83,13.62,3.7,20.43,5.55l0,0q-1.84,7.16-3.71,14.3c-.6,2.3-1.24,4.6-1.89,7l-15-4c-6.83-1.83-13.65-3.68-20.48-5.5A11.82,11.82,0,0,0,121.35,75.73Z"/><path class="cls-7" d="M164,32.67a.74.74,0,0,0,0,.21q-15.86,4.26-31.7,8.51c-1.72.46-3.47.78-5.2,1.17l0,0q-2.76-10.41-5.53-20.8l.1-.37,36.16-9.73a2.57,2.57,0,0,1,.58,0c1.13,4.19,2.28,8.4,3.4,12.62C162.54,27.08,163.23,29.88,164,32.67Z"/><path class="cls-7" d="M333.62,186.6l-9.75,36.53a4.15,4.15,0,0,1-.23.56L302.38,218c3.3-12.35,6.57-24.55,9.89-36.94l21.37,5.6Z"/><path class="cls-7" d="M323.44,137.93,304.66,133l-2.31-.63c3.29-12.31,6.57-24.55,9.9-37l21.35,5.72-4.35,16.22L324,136.82c-.11.38-.28.74-.42,1.11Z"/><path class="cls-7" d="M68.81,112.73,90.2,107c1,3.71,1.85,7.43,2.84,11.13,2.18,8.24,4.41,16.47,6.61,24.7.09.33.14.67.23,1.15l-9.53,2.59Q85,148,79.65,149.44a9.16,9.16,0,0,1-1.17.17l0,0Q75.43,138,72.37,126.43C71.17,121.86,70,117.29,68.81,112.73Z"/><path class="cls-7" d="M232.46,54.29v0c1.87,7.06,3.74,14.12,5.66,21.35l-37,9.91c-1.91-7.16-3.82-14.26-5.72-21.36l0,0,8.35-2.27Z"/><path class="cls-7" d="M57.12,218.32v0c-1.34.29-2.68.53-4,.86q-7.8,2-15.6,4c-.46.12-.91.3-1.44.47a7.18,7.18,0,0,1-.43-.95q-4.8-17.86-9.57-35.75a1.51,1.51,0,0,1,0-.3h0l21.29-5.58q4.91,18.24,9.81,36.48A3.07,3.07,0,0,1,57.12,218.32Z"/><path class="cls-7" d="M259.61,229.58l0-.05q-2.41,8.85-4.82,17.71-2.6,9.51-5.18,19l-.32,0-16.75-4.4-4.26-1.15c3.29-12.3,6.56-24.5,9.9-37Z"/><path class="cls-7" d="M90,75.58q-17.26,4.65-34.53,9.3c-.84.22-1.64.59-2.46.88h-.23a10.46,10.46,0,0,0-.17-1.86c-1.73-6.53-3.49-13.06-5.27-19.72,4.05-1.1,8-2.19,12-3.26q11-3,22.08-5.87A12.25,12.25,0,0,1,83,54.82l1.08-.51.33,0v0c.12.59.21,1.19.36,1.76Q87.35,65.81,90,75.58Z"/><path class="cls-7" d="M243.8,85.76l.52,0c.39.07.79.12,1.17.22l35.15,9.38c-.82,3.27-1.62,6.56-2.47,9.82-1,3.85-2.05,7.68-3.1,11.6l-37-9.92C240,99.76,241.9,92.76,243.8,85.76Z"/><path class="cls-7" d="M232.2,42.58H232a3.81,3.81,0,0,1-.59-.07q-13.6-3.63-27.19-7.29c-3-.81-5.89-1.7-8.84-2.55l0,0c1.91-7,3.81-14,5.76-21.19l36.94,9.89c-.61,2.31-1.21,4.56-1.81,6.8q-1.73,6.5-3.47,13A8.44,8.44,0,0,1,232.2,42.58Z"/><path class="cls-7" d="M99.77,272.15a1.14,1.14,0,0,1-.16.39L84.46,287.68l-27-27,15.58-15.58a11.22,11.22,0,0,0,.87,1Q86.3,258.58,98.69,271c.39.38.73.81,1.09,1.22Z"/><path class="cls-7" d="M147,288.16q5.37,5.32,10.73,10.65c5,5,9.95,9.95,14.94,14.92a11.6,11.6,0,0,0,1.28.94l-15.57,15.58-26.77-26.77,15-15.3Z"/><path class="cls-8" d="M331.83,384.23c0-4.34-.2-8.7,0-13a12.71,12.71,0,0,1,9.39-11.54c5.71-1.64,11.86.17,15.15,4.49a14.91,14.91,0,0,1,2.9,9.26c.05,7.29.09,14.58,0,21.88-.06,5.46-2.07,10-7.23,12.48a14.18,14.18,0,0,1-15-1.14,11.75,11.75,0,0,1-5.19-9.51c-.2-4.29-.05-8.59-.05-12.89Zm19.79.33h0c0-3.75.06-7.49,0-11.24-.07-3.46-1.64-5.62-4.32-6.23-4.18-.95-7.08,1-7.77,5.22a12.58,12.58,0,0,0-.15,1.94q0,10.11,0,20.23a12,12,0,0,0,.19,2.08c.59,3.5,2.43,5.08,5.89,5.11s5.36-1.52,6-5a12.7,12.7,0,0,0,.18-2.39C351.63,391.06,351.62,387.81,351.62,384.56Z"/><path class="cls-2" d="M190.05,288.15h-.4a10,10,0,0,0-.91-1.29q-6.7-6.74-13.45-13.45a7.58,7.58,0,0,0-1.32-.88l27.27-27.26c.18.16.43.37.67.61L216,260a8.68,8.68,0,0,1,.7.9l0,0q-13.05,13-26.09,26.12A3.92,3.92,0,0,0,190.05,288.15Z"/><path class="cls-2" d="M275.23,202l-15.32-15.31,26.82-26.88,15.33,15.35Z"/><path class="cls-8" d="M283.87,384.41c0,4.2.15,8.4,0,12.59a12.71,12.71,0,0,1-9.07,11.63c-7.6,2.42-18.12-1.29-18.39-12.92-.17-7.59-.14-15.19,0-22.78.15-7.32,4.24-12.45,10.93-13.55,10.33-1.71,16.37,5,16.58,13.05.11,4,0,8,0,12Zm-19.8-.13c0,3.74-.08,7.49,0,11.23s2.14,5.95,5.73,6.15,5.78-1.56,6.35-5.43a15.9,15.9,0,0,0,.15-2.39c0-5.64,0-11.28,0-16.92,0-1.55,0-3.1-.19-4.63-.44-4.35-3.62-6.1-8-5.07-2.54.59-3.94,2.73-4,6C264,376.89,264.07,380.58,264.07,384.28Z"/><path class="cls-8" d="M304.39,401.45h17.46v7.47H294.16c0-2.21,0-4.44,0-6.66,0-.43.43-.87.73-1.26q8.65-11.19,17.36-22.36a8,8,0,0,0,1.86-6.39,6.19,6.19,0,0,0-5.41-5.22,5.72,5.72,0,0,0-6.32,4.13c-.34,1.08-.48,2.23-.75,3.53h-7.29c-1.34-7.93,5.91-15.71,14-15.36,12.77.54,16.36,14.3,11.24,21.91-2.73,4.06-5.86,7.84-8.82,11.74-1.81,2.38-3.65,4.74-5.47,7.12C305,400.48,304.78,400.88,304.39,401.45Z"/><path class="cls-8" d="M227.33,401.52h17.55v7.42H217.24c0-2.26,0-4.45,0-6.63a2.84,2.84,0,0,1,.75-1.4q8.7-11.25,17.44-22.47a7.53,7.53,0,0,0,1.75-6,6,6,0,0,0-5.95-5.43c-3.32,0-5.58,1.93-6.16,5.34-.12.73-.2,1.47-.31,2.26h-7.35c-1.29-6.46,4.43-14.26,11.09-15.09,6-.76,11.13.93,14.24,6.34s3,11.24-.84,16.47c-4.43,6-9.08,11.9-13.63,17.84C228,400.53,227.79,400.89,227.33,401.52Z"/><path class="cls-3" d="M146.84,408.94h-8.09V407.4c0-6.15,0-12.29,0-18.43a6.09,6.09,0,0,0-.53-2.42q-5.88-12.76-11.82-25.5c-.21-.44-.39-.89-.68-1.56,2.7,0,5.22,0,7.73.05.32,0,.71.59.89,1,2.6,5.66,5.16,11.33,7.74,17,.2.44.42.87.76,1.58,3-6.71,6-13.14,8.89-19.58h8.19c-.24.54-.43,1-.63,1.41q-6,12.81-11.88,25.63a5.57,5.57,0,0,0-.51,2.27c0,6.2,0,12.39,0,18.58Z"/><path class="cls-12" d="M280.64,95.34,245.49,86c-.38-.1-.78-.15-1.17-.22a6.05,6.05,0,0,1,1.06-1q17-9.85,34-19.67c.47-.27.9-.6,1.34-.9l0,0a12.3,12.3,0,0,1,.15,1.33q0,14.39,0,28.77a6.69,6.69,0,0,1-.18,1.15Z"/><path class="cls-3" d="M11.87,366.9H.33v-7.33h31v7.28H19.82v42h-8Z"/><path class="cls-6" d="M84.4,54.25v0c-.06-2-.16-3.93-.18-5.9s0-3.86.06-5.79h.64c.64,0,1.29.09,1.93.09h38.47c.59,0,1.17-.06,1.76-.09l0,0q0,5.86,0,11.73l0,0Z"/><path class="cls-13" d="M26,186.68H14.52V143.82H26.3v.48a8.28,8.28,0,0,0-.36,1.59q0,19.65,0,39.31C25.94,185.69,26,186.19,26,186.68Z"/><path class="cls-8" d="M99.77,272.15v0l8.63-4.82,1.42-.79h0c2.84,4.86,5.7,9.71,8.52,14.57q6,10.41,12,20.84c.27.46.52.94.86,1.57-3.39,1.93-6.7,3.82-10,5.7,0,0-.16-.08-.24-.12h0a5.69,5.69,0,0,0-.37-1.21q-10.22-17.76-20.46-35.48C100,272.32,99.88,272.25,99.77,272.15Z"/><path class="cls-8" d="M323.44,137.93h.17c.71.5,1.4,1.06,2.14,1.5,2.53,1.49,5.07,2.95,7.73,4.48l-21.35,37-9.89-5.71c.35-.62.66-1.18,1-1.73q9.79-17,19.58-33.92A11.86,11.86,0,0,0,323.44,137.93Z"/><path class="cls-8" d="M84.93,42.59h-.64l-5.61-9.69,37-21.35c1.42,2.43,2.79,4.83,4.21,7.21.55.92,1.21,1.78,1.81,2.67l-.1.37a4.9,4.9,0,0,0-1.28.32q-8.41,4.82-16.8,9.67C97.29,35.37,91.11,39,84.93,42.59Z"/><path class="cls-3" d="M57.13,260.78l-9.91,5.73c-7.14-12.37-14.22-24.62-21.35-37l9.9-5.73C42.88,236.12,50,248.36,57.13,260.78Z"/><path class="cls-8" d="M249.27,266.31l.32,0,10.29,5.82v.43c-.36.3-.85.52-1.07.9q-6.36,10.92-12.66,21.88c-2.45,4.27-4.87,8.57-7.31,12.86l-.27.71,0,0-.35.12c-1.76-.94-3.53-1.85-5.28-2.82-1.15-.64-2.26-1.36-3.4-2.05l-.88-1.23,0-.3q5.3-9.1,10.59-18.2,4.8-8.28,9.55-16.58A6.89,6.89,0,0,0,249.27,266.31Z"/><path class="cls-7" d="M120.9,309.13h0c0,.24.13.54,0,.72-1.75,3.07-3.53,6.13-5.37,9.32l-37-21.34,5.72-9.91,11.11,6.41,24.35,14.06C120.17,308.61,120.53,308.88,120.9,309.13Z"/><path class="cls-7" d="M333.62,186.6l0,0V144.09H345V186.6Z"/><path class="cls-3" d="M228.7,302.85l.88,1.23a18,18,0,0,0-2.94-.59c-3.32-.08-6.63,0-9.95-.05l0,0c0-5.33,0-10.67,0-16q0-13.31,0-26.62l0,0h11.53v39.89c0,.59.07,1.18.11,1.77Z"/><path class="cls-12" d="M26,186.68c0-.49-.09-1-.09-1.48q0-19.66,0-39.31a8.28,8.28,0,0,1,.36-1.59c2.59,4.54,5.17,9.08,7.78,13.61q6.6,11.47,13.23,22.92v.27Z"/><path class="cls-14" d="M72.86,159.51q-7.26,7.31-14.51,14.63a10.11,10.11,0,0,0-1,1.28H57a8.11,8.11,0,0,0-.51-1.58Q46.8,157,37.1,140.25c-.24-.42-.44-.88-.67-1.32a.86.86,0,0,0,.13-.14c3.86,2.19,7.72,4.34,11.55,6.55Q60,152.2,71.93,159.08A9.83,9.83,0,0,0,72.86,159.51Z"/><path class="cls-9" d="M176.18,510.72l-6.08-1a5.58,5.58,0,0,0-.67-.28c-15.21-4.19-26.76-18.09-27.65-33.28l6.58,1.42a29,29,0,0,0,4.21,11.69,30.57,30.57,0,0,0,17.14,13.58l6.56,1.45h6.79q0,3.21,0,6.41Z"/><path class="cls-10" d="M224.53,469.83l5.89,1a39.75,39.75,0,0,1,15.35,8.08,37,37,0,0,1,13.06,25.54l-6.47-1.32-.29-.25,0,0a18.8,18.8,0,0,0-.32-2.61c-3-11.17-9.88-18.78-20.86-22.58l-6.54-1.45-6.82-.19,0-6.07Z"/><path class="cls-11" d="M176.27,504.31l-6.56-1.45a45.49,45.49,0,0,0-1-4.52c-3.38-10.23-10.08-17.25-20.34-20.75l-6.58-1.42h-6.66c0-2.13,0-4.27,0-6.4l6.62,0,6.29,1c.28.09.56.2.85.28C164.05,475.44,175.46,489.27,176.27,504.31Z"/><path class="cls-15" d="M317.34,288.33c-.68,1.7-1.33,3.42-2.08,5.09-.18.41-.69.95-1,.94s-.82-.55-1-1c-.75-1.55-1.42-3.15-2.33-4.7v7.19l-.45.19c-.19-.3-.53-.6-.54-.9,0-3.1,0-6.19,0-9.25,1-.44,1.5-.05,1.87.85.84,2.06,1.78,4.09,2.79,6.37.93-2.28,1.71-4.3,2.59-6.28.2-.46.72-.78,1.09-1.17l.44.25c0,3.18,0,6.36,0,9.54,0,.2-.29.4-.45.6-.16-.24-.46-.49-.47-.74,0-1.69,0-3.39,0-5.09v-1.87Z"/><path class="cls-15" d="M308.9,286.62h-3.76v9.25l-1.35.07V286.7h-3.58C301,285.64,307.88,285.59,308.9,286.62Z"/><path class="cls-5" d="M217.53,470l0,6.07a.18.18,0,0,1-.2,0c0-2,0-4,0-6.05l0-.09Z"/><path class="cls-12" d="M84.08,54.31,83,54.82Z"/><path class="cls-8" d="M147,288.16l-.41,0v-.62h.52Z"/><path class="cls-15" d="M99.49,229.7l.05-.75Z"/><path class="cls-12" d="M228.7,302.85l-.37-.31h.35Z"/><path class="cls-8" d="M158.47,245.58l-.68-.05Z"/><path class="cls-12" d="M238.26,309l.35-.12-.36.07Z"/><path class="cls-1" d="M238.85,308.16c2.44-4.29,4.86-8.59,7.31-12.86q6.3-11,12.66-21.88c.22-.38.71-.6,1.07-.9l14,14.11c.37.38.73.78,1.2,1.28l-7.94,4.6L240.38,308c-.38.22-.79.39-1.19.59Z"/><path class="cls-12" d="M238.85,308.16l.34.39-.61.32Z"/><path class="cls-1" d="M195.41,32.66c3,.85,5.88,1.74,8.84,2.55q13.59,3.67,27.19,7.29a3.81,3.81,0,0,0,.59.07,6.55,6.55,0,0,1,.38,1.46c0,3.42,0,6.84.05,10.26l-28.7,7.63-8.35,2.27L195.35,35C195.35,34.24,195.39,33.45,195.41,32.66Z"/><path class="cls-1" d="M258.83,504.41a37,37,0,0,0-13.06-25.54,39.75,39.75,0,0,0-15.35-8.08c.37-2,.61-4,1.13-6a31.77,31.77,0,1,1,34.86,39.59A59.87,59.87,0,0,1,258.83,504.41Z"/><path class="cls-12" d="M217.36,476a.18.18,0,0,0,.2,0l6.82.19c1.3,13.43,8,23.4,19.61,30,2.7,1.53,5.79,2.38,8.7,3.54-.7,7.94-3.58,14.95-9.39,20.48-9.11,8.68-19.92,11.43-31.9,7.65s-19.17-12.26-21.71-24.59a32.33,32.33,0,0,1-.36-3.55C204.91,505.67,216.4,491.84,217.36,476Z"/><path class="cls-16" d="M230.92,477.67c11,3.8,17.86,11.41,20.86,22.58a18.8,18.8,0,0,1,.32,2.61,45.87,45.87,0,0,1-5.7-2.44A30.83,30.83,0,0,1,230.92,477.67Z"/><path class="cls-16" d="M252.07,502.84l.29.25Z"/><path class="cls-1" d="M128.52,471.06A32.55,32.55,0,0,0,115,477.68c-8.66,6.82-13.41,15.84-14.63,26.76a32,32,0,0,1-34-23.44c-4.93-18.12,7.29-36.93,25.87-39.66a31.73,31.73,0,0,1,36.24,26.09A22,22,0,0,1,128.52,471.06Z"/><path class="cls-17" d="M135.12,476.16h6.66c.89,15.19,12.44,29.09,27.65,33.28a5.58,5.58,0,0,1,.67.28c-.42,2.15-.69,4.33-1.27,6.43-4,14.52-16.83,23.79-32.12,23.32-14.18-.44-26.61-11-29.62-25.21a37.73,37.73,0,0,1-.41-4.77,34.93,34.93,0,0,0,16.49-8.91,37,37,0,0,0,11.76-23.4C135,476.85,135.06,476.51,135.12,476.16Z"/><path class="cls-12" d="M107,502.86a50.3,50.3,0,0,1,1.68-6.74A31.5,31.5,0,0,1,127,478c.45-.18.86-.44,1.29-.66a9.49,9.49,0,0,1-.06,1.69C125.53,490.88,118.52,498.9,107,502.86Z"/><path class="cls-12" d="M106.7,504.16l.29-1.32Z"/><path class="cls-1" d="M127.05,54.29q0-5.86,0-11.73c1.73-.39,3.48-.71,5.2-1.17q15.86-4.23,31.7-8.51c0,6,.07,12,.07,18,0,4.45-.05,8.89-.08,13.33-6.81-1.85-13.61-3.72-20.43-5.55C138,57.16,132.54,55.74,127.05,54.29Z"/><path class="cls-12" d="M84.4,54.25h42.69l-5.7,21.47c-.6,0-1.19-.1-1.79-.11l-29.37,0H90Q87.35,65.8,84.76,56C84.61,55.44,84.52,54.84,84.4,54.25Z"/><path class="cls-14" d="M36.43,138.93l-.11-.29.24.15A.86.86,0,0,1,36.43,138.93Z"/><path class="cls-14" d="M216.71,260.85q0,13.31,0,26.62c0,5.33,0,10.67,0,16l-26.25-15.19a2,2,0,0,0-.42-.13,3.92,3.92,0,0,1,.57-1.18Q203.66,273.89,216.71,260.85Z"/><path class="cls-12" d="M176.27,504.31c-.81-15-12.22-28.87-27.38-33.23-.29-.08-.57-.19-.85-.28a31.71,31.71,0,0,1,63.2-.95c0,.34,0,.7,0,1-15.12,3.53-27.21,17.86-28.17,33.42Z"/><path class="cls-16" d="M189.47,503.12c2.16-12.29,9-20.73,20.66-25.26a6.24,6.24,0,0,1,.85-.22C210,488.78,200.64,499.81,189.47,503.12Z"/><path class="cls-12" d="M64.13,384.19c0,3.3.12,6.6,0,9.89a7.81,7.81,0,0,1-10.64,7.13c-3.07-1.07-5.08-3.88-5.15-7.7-.11-6.24-.13-12.49,0-18.73A7.68,7.68,0,0,1,56.39,367c4.57.05,7.68,3.27,7.76,8.1.06,3,0,6.09,0,9.14Z"/><path class="cls-12" d="M189.09,384.2c0,3.1.09,6.2,0,9.29-.21,6-5.13,9.54-10.58,7.75a7.53,7.53,0,0,1-5.22-7.14c-.11-6.59-.14-13.19,0-19.78.09-4.34,3.63-7.43,8-7.37a7.64,7.64,0,0,1,7.77,7.81C189.17,377.9,189.09,381.05,189.09,384.2Z"/><path class="cls-12" d="M84.93,42.59c6.18-3.6,12.36-7.22,18.55-10.81q8.38-4.86,16.8-9.67a4.9,4.9,0,0,1,1.28-.32q2.77,10.4,5.53,20.8c-.59,0-1.17.09-1.76.09H86.86C86.22,42.68,85.57,42.62,84.93,42.59Z"/><path class="cls-12" d="M351.62,384.56c0,3.25,0,6.5,0,9.74a12.7,12.7,0,0,1-.18,2.39c-.64,3.46-2.54,5-6,5s-5.3-1.61-5.89-5.11a12,12,0,0,1-.19-2.08q0-10.11,0-20.23a12.58,12.58,0,0,1,.15-1.94c.69-4.23,3.59-6.17,7.77-5.22,2.68.61,4.25,2.77,4.32,6.23.07,3.75,0,7.49,0,11.24Z"/><path class="cls-12" d="M264.07,384.28c0-3.7-.05-7.39,0-11.09.06-3.24,1.46-5.38,4-6,4.42-1,7.6.72,8,5.07.15,1.53.18,3.08.19,4.63,0,5.64,0,11.28,0,16.92a15.9,15.9,0,0,1-.15,2.39c-.57,3.87-2.65,5.63-6.35,5.43s-5.63-2.29-5.73-6.15S264.07,388,264.07,384.28Z"/><path class="cls-16" d="M148.36,477.59c10.26,3.5,17,10.52,20.34,20.75a45.49,45.49,0,0,1,1,4.52,30.57,30.57,0,0,1-17.14-13.58A29,29,0,0,1,148.36,477.59Z"/></g></g></svg>